<?xml version="1.0" encoding="UTF-8" standalone="no"?>
<!-- Created with Inkscape (http://www.inkscape.org/) -->

<svg
   width="15.99537"
   height="15.995371"
   viewBox="0 0 4.2321082 4.2321085"
   version="1.1"
   id="svg5"
   xml:space="preserve"
   xmlns:xlink="http://www.w3.org/1999/xlink"
   xmlns="http://www.w3.org/2000/svg"
   xmlns:svg="http://www.w3.org/2000/svg"><defs
     id="defs2"><linearGradient
       id="linearGradient3806"><stop
         style="stop-color:#303030;stop-opacity:1;"
         offset="0"
         id="stop3802" /><stop
         style="stop-color:#000000;stop-opacity:1;"
         offset="1"
         id="stop3804" /></linearGradient><linearGradient
       xlink:href="#linearGradient3806"
       id="linearGradient3808"
       x1="0.61769044"
       y1="0.59002101"
       x2="3.6155372"
       y2="3.6670799"
       gradientUnits="userSpaceOnUse"
       gradientTransform="matrix(1.0075773,0,0,1.0075773,-0.01603882,-0.01620792)" /><linearGradient
       id="linearGradient3806-7"><stop
         style="stop-color:#0396ff;stop-opacity:1;"
         offset="0"
         id="stop3802-5" /><stop
         style="stop-color:#76b900;stop-opacity:1;"
         offset="1"
         id="stop3804-3" /></linearGradient><linearGradient
       xlink:href="#linearGradient3806-7"
       id="linearGradient3808-5"
       x1="0.59105766"
       y1="0.53063554"
       x2="3.859771"
       y2="3.9537389"
       gradientUnits="userSpaceOnUse" /><linearGradient
       id="linearGradient3806-70"><stop
         style="stop-color:#00c7fd;stop-opacity:1;"
         offset="0"
         id="stop3802-9" /><stop
         style="stop-color:#0068b5;stop-opacity:1;"
         offset="1"
         id="stop3804-36" /></linearGradient><linearGradient
       xlink:href="#linearGradient3806-70"
       id="linearGradient3808-0"
       x1="0.59105766"
       y1="0.53063554"
       x2="3.693373"
       y2="3.7203228"
       gradientUnits="userSpaceOnUse"
       gradientTransform="matrix(0.99755672,0,0,0.99755672,0.00517157,0.00522608)" /></defs><g
     id="layer5"
     style="display:none"
     transform="translate(-6.1263144e-4,-6.1239303e-4)"><rect
       style="display:inline;opacity:1;fill:url(#linearGradient3808);fill-opacity:1;stroke:none;stroke-width:0.625094;stroke-linecap:round;stroke-linejoin:round;stroke-dasharray:none;stroke-opacity:1"
       id="rect3777"
       width="3.8191566"
       height="3.8191566"
       x="0.20708834"
       y="0.22939877"
       ry="1.20113"
       transform="translate(0,-0.02231043)" /><path
       style="fill:#67a600;fill-opacity:1;stroke-width:0.00839388"
       d="M 2.825758,4.0040821 C 2.1848474,3.6814185 1.580757,3.200031 1.1763556,2.6016781 L 1.1113611,2.4925007 C 1.0756141,2.4324574 1.0435075,2.3786983 1.0400129,2.3730441 l -0.00635,-0.010275 -0.1007273,0.029797 c -0.19178021,0.056725 -0.42201484,0.1060476 -0.57921469,0.1274471 -0.0311628,0.00424 -0.10117103,0.010465 -0.10309413,0.013587 0.10865408,0.5500476 0.58510097,1.056873 0.93412292,1.3641684 0.060016,0.052116 0.1103799,0.098141 0.1119186,0.1022716 l 0.0028,0.00748 H 2.062614 c 0.4197307,0 0.7631463,-0.00159 0.7631463,-0.00344 z m 0.4341657,-0.081051 c 0.077234,-0.030475 0.152911,-0.070847 0.2315918,-0.123554 l 0.057201,-0.038314 -0.040416,-0.034135 C 2.900631,3.1368034 2.458228,2.5709616 2.2382413,1.7829991 l -5.98e-5,-0.021149 0.1070222,-0.071084 C 2.9175295,1.310608 3.4271438,1.109098 3.8874576,1.0809336 l 0.086401,-0.00528 -0.019381,-0.072228 C 3.9304161,0.91378178 3.886657,0.80921303 3.8403786,0.73079613 3.8067279,0.67377573 3.7203835,0.55292134 3.7085262,0.54624991 2.623426,0.69127322 1.9845917,0.93414925 1.3547289,1.3324726 l -0.073446,0.047414 v 0.013356 c 0,0.00734 0.00968,0.051813 0.021511,0.098818 0.3517076,1.0854556 0.9906426,1.7843752 1.8850231,2.4567377 0.00378,0 0.036212,-0.011594 0.072113,-0.025759 z M 4.0009034,2.0159057 V 1.7616175 1.5073317 C 3.5704776,1.6002951 3.2130942,1.7682571 2.918078,2.0753031 2.998538,2.4687338 3.2193617,2.8511478 3.4503883,3.1582735 l 0.076248,0.1034422 c 0.00363,-0.3172344 0.00727,-0.6344688 0.0109,-0.9517032 C 3.6785744,2.1719374 3.8246055,2.0779454 4.0009034,2.0159057 Z"
       id="path1211" /></g><g
     id="layer1"
     style="display:none"
     transform="translate(-6.1263144e-4,-6.1239303e-4)"><rect
       style="display:inline;opacity:1;fill:url(#linearGradient3808-0);fill-opacity:1;stroke:none;stroke-width:0.618877;stroke-linecap:round;stroke-linejoin:round;stroke-dasharray:none;stroke-opacity:1"
       id="rect3777-26"
       width="3.7811744"
       height="3.7811744"
       x="0.22607969"
       y="0.24839017"
       ry="1.1891845"
       transform="translate(7.0833332e-8,-0.02231042)" /><path
       d="M 2.4356191,1.2461069 H 1.8558516 V 0.78919101 h 0.5797675 z m 0.00146,2.1668862 C 2.0029101,3.3783805 1.8552309,3.1598986 1.8552309,2.9077811 l 6.304e-4,-1.4009902 h 0.5812235 v 1.9062022 z"
       id="path735"
       style="fill:#ffffff;fill-opacity:1;stroke:none;stroke-width:0.0430031" /></g><g
     id="layer6"
     transform="translate(3.1684279,0.68365666)"
     style="display:inline"><rect
       style="opacity:1;fill:url(#linearGradient3808-5);fill-opacity:1;stroke:none;stroke-width:0.620392;stroke-linecap:round;stroke-linejoin:round;stroke-dasharray:none;stroke-opacity:1"
       id="rect3777-2"
       width="3.7904351"
       height="3.7904351"
       x="0.22144917"
       y="0.24375966"
       ry="1.1920972"
       transform="translate(-3.1690405,-0.70657958)" /><text
       xml:space="preserve"
       style="font-style:normal;font-weight:normal;font-size:10.5344px;line-height:1.25;font-family:sans-serif;display:inline;fill:#ffffff;fill-opacity:1;stroke:none;stroke-width:0.263362"
       x="0.54015088"
       y="4.0177937"
       id="text8731"
       transform="matrix(1.1703464,0,0,0.85444788,-3.1690405,-0.70657958)"><tspan
         id="tspan8729"
         style="font-style:normal;font-variant:normal;font-weight:normal;font-stretch:normal;font-size:4.21379px;font-family:'JetBrainsMonoNL Nerd Font';-inkscape-font-specification:'JetBrainsMonoNL Nerd Font, Normal';font-variant-ligatures:normal;font-variant-caps:normal;font-variant-numeric:normal;font-variant-east-asian:normal;fill:#ffffff;fill-opacity:1;stroke-width:0.263362"
         x="0.54015088"
         y="4.0177937">H</tspan></text></g><rect
     style="display:inline;opacity:1;fill:none;fill-opacity:1;stroke:#ffffff;stroke-width:0.239711;stroke-linecap:round;stroke-linejoin:round;stroke-dasharray:none;stroke-opacity:1"
     id="rect3775"
     width="3.9923971"
     height="3.9923975"
     x="0.1198555"
     y="0.11985549"
     ry="1.2556145" /></svg>
