<?xml version="1.0" encoding="UTF-8" standalone="no"?>
<!-- Generator: Adobe Illustrator 16.0.2, SVG Export Plug-In . SVG Version: 6.00 Build 0)  -->

<svg
   version="1.1"
   id="Layer_1"
   x="0px"
   y="0px"
   width="1000px"
   height="1000px"
   viewBox="0 0 1000 1000"
   enable-background="new 0 0 1000 1000"
   xml:space="preserve"
   sodipodi:docname="nobara penguin white.svg"
   inkscape:version="1.2.1 (9c6d41e410, 2022-07-14)"
   xmlns:inkscape="http://www.inkscape.org/namespaces/inkscape"
   xmlns:sodipodi="http://sodipodi.sourceforge.net/DTD/sodipodi-0.dtd"
   xmlns="http://www.w3.org/2000/svg"
   xmlns:svg="http://www.w3.org/2000/svg"><defs
   id="defs17" /><sodipodi:namedview
   id="namedview15"
   pagecolor="#505050"
   bordercolor="#ffffff"
   borderopacity="1"
   inkscape:showpageshadow="0"
   inkscape:pageopacity="0"
   inkscape:pagecheckerboard="1"
   inkscape:deskcolor="#505050"
   showgrid="false"
   inkscape:zoom="0.839"
   inkscape:cx="299.76162"
   inkscape:cy="500.59595"
   inkscape:window-width="1920"
   inkscape:window-height="1011"
   inkscape:window-x="0"
   inkscape:window-y="32"
   inkscape:window-maximized="1"
   inkscape:current-layer="Layer_1" />
<path
   d="M580,500c0,28.66-15.07,53.8-37.73,67.92C530.01,575.58,515.52,580,500,580c-44.18,0-80-35.82-80-80c0-44.18,35.82-80,80-80  c15.52,0,30.01,4.42,42.27,12.08C564.93,446.2,580,471.34,580,500z"
   id="path2"
   style="fill:#ffffff" />
<path
   d="M323.78,841.28c-1.1,1.89-2.24,3.739-3.45,5.56c-1.29,1.97-2.64,3.9-4.06,5.79c1.21-2.09,2.49-4.13,3.83-6.13  C321.28,844.72,322.51,842.98,323.78,841.28z"
   id="path4" />
<path
   d="M323.78,841.28c-1.1,1.89-2.24,3.739-3.45,5.56c-0.08-0.109-0.16-0.229-0.23-0.34  C321.28,844.72,322.51,842.98,323.78,841.28z"
   id="path6" />
<path
   d="M323.78,841.28c-1.1,1.89-2.24,3.739-3.45,5.56c-1.29,1.97-2.64,3.9-4.06,5.79c1.21-2.09,2.49-4.13,3.83-6.13  C321.28,844.72,322.51,842.98,323.78,841.28z"
   id="path8" />
<path
   d="M900,500v280c0,0.17,0,0.33-0.01,0.5C899.73,846.54,846.1,900,780,900h-15.57C705.51,892.36,660,841.99,660,781V534.29  L780,500l-123.94-35.41C639.95,393.26,576.2,340,500,340c-88.37,0-160,71.63-160,160v80c0,44.18,35.82,80,80,80  c66.27,0,120,53.73,120,120v133c0-24.6-7.4-47.47-20.1-66.5C498.39,814.25,461.68,793,420,793c-39.38,0-74.34,18.97-96.22,48.28  c-1.27,1.7-2.5,3.439-3.68,5.22c-1.34,2-2.62,4.04-3.83,6.13c-18.93,25.42-47.71,43.09-80.7,47.37H220  c-66.1,0-119.73-53.46-119.99-119.5c-0.01-0.17-0.01-0.33-0.01-0.5V220c0-66.27,53.73-120,120-120c38.2,0,72.24,17.85,94.21,45.67  C369.72,116.5,432.93,100,500,100C720.91,100,900,279.09,900,500z"
   id="path10"
   style="fill:#ffffff;fill-opacity:1" />
<line
   fill="none"
   x1="540"
   y1="915.67"
   x2="540"
   y2="913"
   id="line12" />
</svg>
