<?xml version="1.0" encoding="UTF-8" standalone="no"?>
<!-- Created with Inkscape (http://www.inkscape.org/) -->

<svg
   width="218.06958mm"
   height="210.1321mm"
   viewBox="0 0 218.06958 210.1321"
   version="1.1"
   id="svg1121"
   sodipodi:docname="distro-pardus-symbolic.svg"
   inkscape:version="1.2.2 (b0a8486541, 2022-12-01)"
   xmlns:inkscape="http://www.inkscape.org/namespaces/inkscape"
   xmlns:sodipodi="http://sodipodi.sourceforge.net/DTD/sodipodi-0.dtd"
   xmlns="http://www.w3.org/2000/svg"
   xmlns:svg="http://www.w3.org/2000/svg">
  <sodipodi:namedview
     id="namedview24"
     pagecolor="#ffffff"
     bordercolor="#000000"
     borderopacity="0.25"
     inkscape:showpageshadow="2"
     inkscape:pageopacity="0.0"
     inkscape:pagecheckerboard="false"
     inkscape:deskcolor="#d1d1d1"
     inkscape:document-units="mm"
     showgrid="false"
     inkscape:zoom="0.5376479"
     inkscape:cx="213.89463"
     inkscape:cy="393.38013"
     inkscape:window-width="2560"
     inkscape:window-height="1362"
     inkscape:window-x="0"
     inkscape:window-y="41"
     inkscape:window-maximized="1"
     inkscape:current-layer="svg1121" />
  <defs
     id="defs1118" />
  <g
     id="layer1"
     transform="translate(4.4333664,-12.786271)"
     style="fill:#cccccc;fill-opacity:1">
    <g
       id="g723"
       transform="matrix(0.26458333,0,0,0.26458333,-403.39857,-209.41081)"
       style="fill:#cccccc;fill-opacity:1">
      <path
         id="path5846"
         class="cls-3"
         d="m 1906.1,1375.9 h -0.1 -0.1 l -152.4,54.4 v 84 l 152.4,93.1 0.1,-0.1 0.1,0.1 152.4,-93.1 v -84 z" />
      <path
         id="path5843"
         class="cls-3"
         d="m 1872.6,1331 4,-85.8 -99.7,-105.5 h 258.3 l -99.8,105.5 4,85.8 198.4,78.5 70,-66.4 -162.8,-130.8 190.5,104.5 19.3,-18.3 -111,-224.6 -237.8,-84.9 -237.8,84.9 -111,224.6 19.4,18.3 190.4,-104.5 -162.7,130.8 70,66.4 z" />
      <path
         id="path5840"
         class="cls-4"
         d="m 1906,1375.9 h -0.1 l -152.4,54.4 v 84 l 152.4,93 h 0.1 z" />
      <path
         id="path5837"
         class="cls-4"
         d="m 1668.2,1073.9 -111,224.6 19.4,18.3 190.4,-104.5 -162.7,130.8 70,66.4 198.3,-78.5 4,-85.8 -99.7,-105.5 H 1906 V 989 Z" />
      <g
         class="cls-5"
         id="g149"
         style="opacity:0.5;fill:#cccccc;fill-opacity:1">
        <path
           id="path5834"
           class="cls-6"
           d="m 1754.2,938 -10.7,57.1 73.2,-60.7 -308.8,-94.6 121.4,98.2 z" />
        <path
           id="path5831"
           class="cls-7"
           d="m 1741.7,839.8 h -233.8 l 308.8,94.6 z" />
        <path
           id="path5828"
           class="cls-6"
           d="m 2057.9,938 10.7,57.1 -73.2,-60.7 308.8,-94.6 -121.4,98.2 z" />
        <path
           id="path5825"
           class="cls-7"
           d="m 2070.4,839.8 h 233.8 l -308.8,94.6 z" />
      </g>
      <path
         id="path5822"
         class="cls-8"
         d="m 1934,1633.9 0.1,0.1 152.4,-93.1 v -84 l -28,-9.9 v 67.3 l -152.4,93.1 -0.1,-0.1 -0.1,0.1 v -0.1 l -124.4,-75.9 v 9.5 l 152.3,93 0.1,0.1 z" />
      <path
         id="path5819"
         class="cls-8"
         d="m 1767,1212.3 -173.1,95 -8.7,17.8 19.1,18 z" />
      <path
         id="path5816"
         class="cls-8"
         d="m 2137.8,1409.5 -171.2,-67.7 0.8,15.9 198.3,78.4 72.4,-68.6 -30.3,-24.4 z" />
      <path
         id="path5813"
         class="cls-8"
         d="m 2045,1212.3 44.2,35.5 174.2,95.6 19.4,-18.3 -111,-224.6 -18,-6.4 101,204.4 -19.3,18.3 z" />
      <path
         id="path5810"
         class="cls-8"
         d="m 1816.7,934.4 -36,29.8 -10.8,57.5 70.1,-58.1 z" />
      <path
         id="path5807"
         class="cls-8"
         d="m 1629.3,938 32.7,26.6 h 87.2 l 5,-26.6 z" />
      <path
         id="path5804"
         class="cls-8"
         d="m 2025,959 70.7,58.5 -9.9,-52.9 h 124.9 l 121.4,-98.2 h -60.8 l -88.5,71.6 h -124.9 l 10.7,57.1 z" />
      <path
         id="path5801"
         class="cls-8"
         d="m 1872.6,1331 -198.3,78.5 27.9,26.6 198.4,-78.4 4,-82.9 -28,-29.6 z" />
      <path
         id="path5798"
         class="cls-8"
         d="m 2035.2,1139.7 h -258.3 l 25.2,26.7 v -0.1 H 2010 Z" />
    </g>
  </g>
</svg>
