<?xml version="1.0" encoding="UTF-8" standalone="no"?>
<svg
   inkscape:version="1.2.1 (9c6d41e410, 2022-07-14)"
   sodipodi:docname="arcmenu-logo-alt-symbolic.svg"
   width="64"
   height="64"
   version="1.1"
   id="svg24"
   xmlns:inkscape="http://www.inkscape.org/namespaces/inkscape"
   xmlns:sodipodi="http://sodipodi.sourceforge.net/DTD/sodipodi-0.dtd"
   xmlns="http://www.w3.org/2000/svg"
   xmlns:svg="http://www.w3.org/2000/svg"
   xmlns:rdf="http://www.w3.org/1999/02/22-rdf-syntax-ns#"
   xmlns:cc="http://creativecommons.org/ns#"
   xmlns:dc="http://purl.org/dc/elements/1.1/">
  <sodipodi:namedview
     inkscape:document-rotation="0"
     inkscape:current-layer="svg24"
     inkscape:window-maximized="1"
     inkscape:window-y="40"
     inkscape:window-x="0"
     inkscape:cy="32.271186"
     inkscape:cx="10.305085"
     inkscape:zoom="3.6875"
     showgrid="false"
     id="namedview715"
     inkscape:window-height="1363"
     inkscape:window-width="2560"
     inkscape:pageshadow="2"
     inkscape:pageopacity="0"
     guidetolerance="10"
     gridtolerance="10"
     objecttolerance="10"
     borderopacity="1"
     bordercolor="#666666"
     pagecolor="#ffffff"
     inkscape:showpageshadow="2"
     inkscape:pagecheckerboard="0"
     inkscape:deskcolor="#d1d1d1" />
  <metadata
     id="metadata30">
    <rdf:RDF>
      <cc:Work
         rdf:about="">
        <dc:format>image/svg+xml</dc:format>
        <dc:type
           rdf:resource="http://purl.org/dc/dcmitype/StillImage" />
        <dc:title />
      </cc:Work>
    </rdf:RDF>
  </metadata>
  <defs
     id="defs28" />
  <path
     style="fill:#cccccc;fill-opacity:1;stroke-width:1.42498"
     d="M 33.071071,3.5201103 A 28.499577,28.499577 0 0 0 12.315635,11.390673 28.499577,28.499577 0 0 0 11.39132,51.685654 28.499577,28.499577 0 0 0 51.684317,52.60997 28.499577,28.499577 0 0 0 52.610617,12.316971 28.499577,28.499577 0 0 0 33.071071,3.5201103 Z M 16.572246,14.857846 h 30.857445 c 0.949734,0 1.713752,0.764018 1.713752,1.713752 v 6.85699 c 0,0.949734 -0.764018,1.713752 -1.713752,1.713752 H 16.572246 c -0.949735,0 -1.715734,-0.764018 -1.715736,-1.713752 v -6.85699 c 0,-0.949734 0.766001,-1.71375 1.715736,-1.713752 z m 0,13.713981 h 17.143466 c 0.949733,0 1.713751,0.764017 1.713751,1.713751 v 17.143466 c 0,0.949733 -0.764018,1.713752 -1.713751,1.713752 H 16.572246 c -0.949735,0 -1.715735,-0.764019 -1.715736,-1.713752 V 30.285578 c 0,-0.949734 0.766001,-1.713751 1.715736,-1.713751 z m 24.000455,0 h 6.85699 c 0.949734,0 1.713752,0.764017 1.713752,1.713751 v 17.143466 c 0,0.949733 -0.764018,1.713752 -1.713752,1.713752 h -6.85699 c -0.949733,0 -1.715735,-0.764019 -1.715735,-1.713752 V 30.285578 c 0,-0.949734 0.766002,-1.713751 1.715735,-1.713751 z"
     id="path1343" />
</svg>
