<?xml version="1.0" encoding="UTF-8" standalone="no"?>
<!-- Created with Inkscape (http://www.inkscape.org/) -->

<svg
   width="66mm"
   height="66mm"
   viewBox="0 0 66 66"
   version="1.1"
   id="svg8"
   inkscape:version="1.2.1 (9c6d41e410, 2022-07-14)"
   sodipodi:docname="menu-gnomeoverview-symbolic.svg"
   xmlns:inkscape="http://www.inkscape.org/namespaces/inkscape"
   xmlns:sodipodi="http://sodipodi.sourceforge.net/DTD/sodipodi-0.dtd"
   xmlns="http://www.w3.org/2000/svg"
   xmlns:svg="http://www.w3.org/2000/svg"
   xmlns:rdf="http://www.w3.org/1999/02/22-rdf-syntax-ns#"
   xmlns:cc="http://creativecommons.org/ns#"
   xmlns:dc="http://purl.org/dc/elements/1.1/">
  <defs
     id="defs2" />
  <sodipodi:namedview
     id="base"
     pagecolor="#ffffff"
     bordercolor="#666666"
     borderopacity="1.0"
     inkscape:pageopacity="0.0"
     inkscape:pageshadow="2"
     inkscape:zoom="2.8284271"
     inkscape:cx="120.91526"
     inkscape:cy="127.27922"
     inkscape:document-units="mm"
     inkscape:current-layer="layer1"
     showgrid="false"
     inkscape:window-width="2560"
     inkscape:window-height="1363"
     inkscape:window-x="0"
     inkscape:window-y="40"
     inkscape:window-maximized="1"
     inkscape:showpageshadow="2"
     inkscape:pagecheckerboard="0"
     inkscape:deskcolor="#d1d1d1" />
  <metadata
     id="metadata5">
    <rdf:RDF>
      <cc:Work
         rdf:about="">
        <dc:format>image/svg+xml</dc:format>
        <dc:type
           rdf:resource="http://purl.org/dc/dcmitype/StillImage" />
        <dc:title />
      </cc:Work>
    </rdf:RDF>
  </metadata>
  <g
     inkscape:label="Layer 1"
     inkscape:groupmode="layer"
     id="layer1"
     transform="translate(0,-231)">
    <path
       id="rect30565"
       d="m 0.3701179,231.52917 a 0.0890044,0.0890044 0 0 0 -0.087891,0.0879 v 2.64062 a 0.0890044,0.0890044 0 0 0 0.087891,0.0899 H 65.627933 a 0.0890044,0.0890044 0 0 0 0.08984,-0.0899 v -2.64062 a 0.0890044,0.0890044 0 0 0 -0.08984,-0.0879 z m 0.089844,0.17773 H 65.540041 v 2.46289 H 0.4599617 Z"
       style="color:#000000;font-style:normal;font-variant:normal;font-weight:normal;font-stretch:normal;font-size:medium;line-height:normal;font-family:sans-serif;font-variant-ligatures:normal;font-variant-position:normal;font-variant-caps:normal;font-variant-numeric:normal;font-variant-alternates:normal;font-feature-settings:normal;text-indent:0;text-align:start;text-decoration:none;text-decoration-line:none;text-decoration-style:solid;text-decoration-color:#000000;letter-spacing:normal;word-spacing:normal;text-transform:none;writing-mode:lr-tb;direction:ltr;text-orientation:mixed;dominant-baseline:auto;baseline-shift:baseline;text-anchor:start;white-space:normal;shape-padding:0;clip-rule:nonzero;display:inline;overflow:visible;visibility:visible;isolation:auto;mix-blend-mode:normal;color-interpolation:sRGB;color-interpolation-filters:linearRGB;solid-color:#000000;solid-opacity:1;vector-effect:none;fill:#000000;fill-opacity:1;fill-rule:nonzero;stroke:none;stroke-width:1;stroke-linecap:butt;stroke-linejoin:round;stroke-miterlimit:4;stroke-dasharray:none;stroke-dashoffset:0;stroke-opacity:1;color-rendering:auto;image-rendering:auto;shape-rendering:auto;text-rendering:auto;enable-background:accumulate"
       inkscape:connector-curvature="0" />
    <path
       id="path36245"
       d="m 55.625976,232.5487 -0.0021,0.54492 2.484374,0.01 0.0021,-0.54492 z m 3.576172,0.0137 -0.0021,0.54687 3.277344,0.0117 0.0039,-0.54492 z m 4.371096,0.0176 -0.0021,0.54687 0.958982,0.004 0.0021,-0.54688 z"
       style="color:#000000;font-style:normal;font-variant:normal;font-weight:normal;font-stretch:normal;font-size:medium;line-height:normal;font-family:sans-serif;font-variant-ligatures:normal;font-variant-position:normal;font-variant-caps:normal;font-variant-numeric:normal;font-variant-alternates:normal;font-feature-settings:normal;text-indent:0;text-align:start;text-decoration:none;text-decoration-line:none;text-decoration-style:solid;text-decoration-color:#000000;letter-spacing:normal;word-spacing:normal;text-transform:none;writing-mode:lr-tb;direction:ltr;text-orientation:mixed;dominant-baseline:auto;baseline-shift:baseline;text-anchor:start;white-space:normal;shape-padding:0;clip-rule:nonzero;display:inline;overflow:visible;visibility:visible;isolation:auto;mix-blend-mode:normal;color-interpolation:sRGB;color-interpolation-filters:linearRGB;solid-color:#000000;solid-opacity:1;vector-effect:none;fill:#000000;fill-opacity:1;fill-rule:evenodd;stroke:none;stroke-width:1;stroke-linecap:butt;stroke-linejoin:miter;stroke-miterlimit:4;stroke-dasharray:3.278, 1.09267;stroke-dashoffset:0.79375;stroke-opacity:1;color-rendering:auto;image-rendering:auto;shape-rendering:auto;text-rendering:auto;enable-background:accumulate"
       inkscape:connector-curvature="0" />
    <path
       id="path30067"
       d="m 31.995118,232.61901 -0.0039,0.40234 0.816407,0.006 0.0039,-0.40234 z m 1.621094,0.0137 -0.0039,0.40235 1.609375,0.0156 0.0039,-0.40234 z m 2.414061,0.0215 -0.0039,0.40234 0.312502,0.004 0.0039,-0.40235 z"
       style="color:#000000;font-style:normal;font-variant:normal;font-weight:normal;font-stretch:normal;font-size:medium;line-height:normal;font-family:sans-serif;font-variant-ligatures:normal;font-variant-position:normal;font-variant-caps:normal;font-variant-numeric:normal;font-variant-alternates:normal;font-feature-settings:normal;text-indent:0;text-align:start;text-decoration:none;text-decoration-line:none;text-decoration-style:solid;text-decoration-color:#000000;letter-spacing:normal;word-spacing:normal;text-transform:none;writing-mode:lr-tb;direction:ltr;text-orientation:mixed;dominant-baseline:auto;baseline-shift:baseline;text-anchor:start;white-space:normal;shape-padding:0;clip-rule:nonzero;display:inline;overflow:visible;visibility:visible;isolation:auto;mix-blend-mode:normal;color-interpolation:sRGB;color-interpolation-filters:linearRGB;solid-color:#000000;solid-opacity:1;vector-effect:none;fill:#000000;fill-opacity:1;fill-rule:evenodd;stroke:none;stroke-width:1;stroke-linecap:butt;stroke-linejoin:miter;stroke-miterlimit:4;stroke-dasharray:1.60947, 0.804735;stroke-dashoffset:0.793529;stroke-opacity:1;color-rendering:auto;image-rendering:auto;shape-rendering:auto;text-rendering:auto;enable-background:accumulate"
       inkscape:connector-curvature="0" />
    <g
       style="fill:#000000;fill-opacity:1;stroke:none;stroke-opacity:1"
       id="rect29160"
       transform="rotate(90,3.537589,291.38033)" />
    <g
       style="fill:#000000;fill-opacity:1;stroke:none;stroke-opacity:1"
       id="rect29162"
       transform="rotate(90,3.537589,291.38033)" />
    <g
       style="fill:#000000;fill-opacity:1;stroke:none;stroke-opacity:1"
       id="rect27687"
       transform="rotate(90,3.537589,291.38033)" />
    <g
       style="fill:#000000;fill-opacity:1;stroke:none;stroke-opacity:1"
       id="rect27689"
       transform="rotate(90,3.537589,291.38033)" />
    <g
       style="fill:#000000;fill-opacity:1;stroke:none;stroke-opacity:1"
       id="rect27691"
       transform="rotate(90,3.537589,291.38033)" />
    <g
       style="fill:#000000;fill-opacity:1;stroke:none;stroke-opacity:1"
       id="rect27693"
       transform="rotate(90,3.537589,291.38033)" />
    <path
       id="path27747"
       d="m 3.4228522,232.66198 -0.00391,0.31445 2.6035159,0.0391 0.00391,-0.31445 z"
       style="color:#000000;font-style:normal;font-variant:normal;font-weight:normal;font-stretch:normal;font-size:medium;line-height:normal;font-family:sans-serif;font-variant-ligatures:normal;font-variant-position:normal;font-variant-caps:normal;font-variant-numeric:normal;font-variant-alternates:normal;font-feature-settings:normal;text-indent:0;text-align:start;text-decoration:none;text-decoration-line:none;text-decoration-style:solid;text-decoration-color:#000000;letter-spacing:normal;word-spacing:normal;text-transform:none;writing-mode:lr-tb;direction:ltr;text-orientation:mixed;dominant-baseline:auto;baseline-shift:baseline;text-anchor:start;white-space:normal;shape-padding:0;clip-rule:nonzero;display:inline;overflow:visible;visibility:visible;isolation:auto;mix-blend-mode:normal;color-interpolation:sRGB;color-interpolation-filters:linearRGB;solid-color:#000000;solid-opacity:1;vector-effect:none;fill:#000000;fill-opacity:1;fill-rule:evenodd;stroke:none;stroke-width:1;stroke-linecap:butt;stroke-linejoin:miter;stroke-miterlimit:4;stroke-dasharray:7.5497, 7.5497;stroke-dashoffset:0.793529;stroke-opacity:1;color-rendering:auto;image-rendering:auto;shape-rendering:auto;text-rendering:auto;enable-background:accumulate"
       inkscape:connector-curvature="0" />
    <g
       style="fill:#000000;fill-opacity:1;stroke:none"
       id="g2840"
       transform="matrix(0.03998079,0,0,0.03998079,0.4959176,231.64213)">
      <g
         id="g1139"
         style="fill:#000000;fill-opacity:1;stroke:none">
        <g
           style="fill:#000000;fill-opacity:1;stroke:none"
           id="g1144"
           transform="matrix(1.48656,0,0,1.48656,-15.403652,-13.20102)">
          <path
             id="rect14"
             d="m 17.337335,14.273518 h 29.52863 c 0.908826,0 1.64048,0.731653 1.64048,1.640479 v 6.561918 c 0,0.908825 -0.731654,1.640479 -1.64048,1.640479 h -29.52863 c -0.908826,0 -1.640479,-0.731654 -1.640479,-1.640479 v -6.561918 c 0,-0.908826 0.731653,-1.640479 1.640479,-1.640479 z"
             style="color:#000000;font-style:normal;font-variant:normal;font-weight:normal;font-stretch:normal;font-size:medium;line-height:normal;font-family:sans-serif;font-variant-ligatures:normal;font-variant-position:normal;font-variant-caps:normal;font-variant-numeric:normal;font-variant-alternates:normal;font-feature-settings:normal;text-indent:0;text-align:start;text-decoration:none;text-decoration-line:none;text-decoration-style:solid;text-decoration-color:#000000;letter-spacing:normal;word-spacing:normal;text-transform:none;writing-mode:lr-tb;direction:ltr;text-orientation:mixed;dominant-baseline:auto;baseline-shift:baseline;text-anchor:start;white-space:normal;shape-padding:0;clip-rule:nonzero;display:inline;overflow:visible;visibility:visible;opacity:1;isolation:auto;mix-blend-mode:normal;color-interpolation:sRGB;color-interpolation-filters:linearRGB;solid-color:#000000;solid-opacity:1;vector-effect:none;fill:#000000;fill-opacity:1;fill-rule:nonzero;stroke:none;stroke-width:1.64048;stroke-linecap:butt;stroke-linejoin:miter;stroke-miterlimit:4;stroke-dasharray:none;stroke-dashoffset:0;stroke-opacity:1;color-rendering:auto;image-rendering:auto;shape-rendering:auto;text-rendering:auto;enable-background:accumulate"
             inkscape:connector-curvature="0" />
          <path
             id="rect18"
             d="m 40.30405,27.397354 h 6.561917 c 0.908826,0 1.64048,0.731654 1.64048,1.64048 v 16.404794 c 0,0.908825 -0.731654,1.640479 -1.64048,1.640479 H 40.30405 c -0.908826,0 -1.64048,-0.731654 -1.64048,-1.640479 V 29.037834 c 0,-0.908826 0.731654,-1.64048 1.64048,-1.64048 z"
             style="color:#000000;font-style:normal;font-variant:normal;font-weight:normal;font-stretch:normal;font-size:medium;line-height:normal;font-family:sans-serif;font-variant-ligatures:normal;font-variant-position:normal;font-variant-caps:normal;font-variant-numeric:normal;font-variant-alternates:normal;font-feature-settings:normal;text-indent:0;text-align:start;text-decoration:none;text-decoration-line:none;text-decoration-style:solid;text-decoration-color:#000000;letter-spacing:normal;word-spacing:normal;text-transform:none;writing-mode:lr-tb;direction:ltr;text-orientation:mixed;dominant-baseline:auto;baseline-shift:baseline;text-anchor:start;white-space:normal;shape-padding:0;clip-rule:nonzero;display:inline;overflow:visible;visibility:visible;opacity:1;isolation:auto;mix-blend-mode:normal;color-interpolation:sRGB;color-interpolation-filters:linearRGB;solid-color:#000000;solid-opacity:1;vector-effect:none;fill:#000000;fill-opacity:1;fill-rule:nonzero;stroke:none;stroke-width:1.64048;stroke-linecap:butt;stroke-linejoin:miter;stroke-miterlimit:4;stroke-dasharray:none;stroke-dashoffset:0;stroke-opacity:1;color-rendering:auto;image-rendering:auto;shape-rendering:auto;text-rendering:auto;enable-background:accumulate"
             inkscape:connector-curvature="0" />
          <path
             id="rect22"
             d="m 17.337335,27.397354 h 16.404794 c 0.908826,0 1.640479,0.731654 1.640479,1.64048 v 16.404794 c 0,0.908825 -0.731653,1.640479 -1.640479,1.640479 H 17.337335 c -0.908826,0 -1.640479,-0.731654 -1.640479,-1.640479 V 29.037834 c 0,-0.908826 0.731653,-1.64048 1.640479,-1.64048 z"
             style="color:#000000;font-style:normal;font-variant:normal;font-weight:normal;font-stretch:normal;font-size:medium;line-height:normal;font-family:sans-serif;font-variant-ligatures:normal;font-variant-position:normal;font-variant-caps:normal;font-variant-numeric:normal;font-variant-alternates:normal;font-feature-settings:normal;text-indent:0;text-align:start;text-decoration:none;text-decoration-line:none;text-decoration-style:solid;text-decoration-color:#000000;letter-spacing:normal;word-spacing:normal;text-transform:none;writing-mode:lr-tb;direction:ltr;text-orientation:mixed;dominant-baseline:auto;baseline-shift:baseline;text-anchor:start;white-space:normal;shape-padding:0;clip-rule:nonzero;display:inline;overflow:visible;visibility:visible;opacity:1;isolation:auto;mix-blend-mode:normal;color-interpolation:sRGB;color-interpolation-filters:linearRGB;solid-color:#000000;solid-opacity:1;vector-effect:none;fill:#000000;fill-opacity:1;fill-rule:nonzero;stroke:none;stroke-width:1.64048;stroke-linecap:butt;stroke-linejoin:miter;stroke-miterlimit:4;stroke-dasharray:none;stroke-dashoffset:0;stroke-opacity:1;color-rendering:auto;image-rendering:auto;shape-rendering:auto;text-rendering:auto;enable-background:accumulate"
             inkscape:connector-curvature="0" />
        </g>
      </g>
    </g>
    <g
       id="g4823">
      <g
         transform="matrix(0.45153137,0,0,0.45153137,21.047286,238.33844)"
         style="fill:#000000;stroke-width:0.442937"
         id="use31418-7">
        <title
           id="title1612">Edit Find</title>
        <path
           d="M 2.5960917,2.3891875 A 0.26458333,0.26458333 0 0 0 2.4638,2.8442708 L 3.5221333,3.9026042 A 0.26614947,0.26614947 0 1 0 3.8944021,3.5221333 L 2.8360687,2.4638 A 0.26458333,0.26458333 0 0 0 2.5958271,2.3897167 Z M 1.7216437,0.27172708 c -0.80115828,0 -1.45785412,0.65616667 -1.45785412,1.45626662 0,0.8008938 0.65669584,1.4567959 1.45785412,1.4567959 0.8016875,0 1.4578542,-0.6561667 1.4578542,-1.4565313 0,-0.80009997 -0.6561667,-1.45600205 -1.4578542,-1.45600205 z m 0,0.5318125 c 0.5154084,0 0.9260417,0.41010412 0.9260417,0.92445412 0,0.5148792 -0.4106333,0.925248 -0.9260417,0.925248 -0.5151437,0 -0.92604162,-0.4101042 -0.92604162,-0.9249834 0,-0.51435 0.41089792,-0.92445413 0.92604162,-0.92445413 z"
           id="path2469"
           inkscape:connector-curvature="0" />
      </g>
      <path
         style="color:#000000;fill:#000000;stroke-width:0.2;-inkscape-stroke:none"
         d="m 21.765509,237.62291 c -1.041773,0 -1.89587,0.74179 -1.89587,1.67547 0,0.9337 0.854097,1.67417 1.89587,1.67416 h 22.468983 c 1.041773,0 1.89587,-0.74046 1.89587,-1.67416 0,-0.93368 -0.854097,-1.67547 -1.89587,-1.67547 z m 0,0.20047 h 22.468983 c 0.947619,0 1.695396,0.66369 1.695396,1.475 0,0.81133 -0.747777,1.47502 -1.695396,1.47502 H 21.765509 c -0.947619,0 -1.695396,-0.66369 -1.695396,-1.47502 0,-0.81131 0.747777,-1.475 1.695396,-1.475 z"
         id="rect1922" />
    </g>
    <g
       id="g4197"
       transform="translate(0,0.78314)">
      <path
         style="color:#000000;fill:#000000;-inkscape-stroke:none"
         d="m 8.9199219,243.10352 c -1.5339389,0 -2.7910157,1.09145 -2.7910157,2.46679 v 35.91797 c 0,1.37535 1.2570768,2.4668 2.7910157,2.4668 H 57.335937 c 1.533939,0 2.792969,-1.09145 2.792969,-2.4668 v -35.91797 c 0,-1.37534 -1.25903,-2.46679 -2.792969,-2.46679 z m 0,0.30078 H 57.335937 c 1.392708,0 2.492188,0.97423 2.492188,2.16601 v 35.91797 c 0,1.19179 -1.09948,2.16602 -2.492188,2.16602 H 8.9199219 c -1.3927073,0 -2.4921875,-0.97423 -2.4921875,-2.16602 v -35.91797 c 0,-1.19178 1.0994802,-2.16601 2.4921875,-2.16601 z"
         id="rect5289" />
      <path
         style="color:#000000;fill:#000000;-inkscape-stroke:none"
         d="m 9.9101563,246.33789 v 0.0996 16.19922 H 32.949219 v -16.29883 z m 0.1992187,0.19922 H 32.75 v 15.89844 H 10.109375 Z"
         id="rect5348" />
      <path
         style="color:#000000;fill:#000000;-inkscape-stroke:none"
         d="m 9.9335938,247.32812 v 0.20118 H 32.925781 v -0.20118 z"
         id="path6905" />
      <path
         style="color:#000000;fill:#000000;-inkscape-stroke:none"
         d="m 38.617187,248.19727 v 0.0996 12.48047 h 17.765625 v -12.58007 z m 0.201172,0.19921 h 17.365235 v 12.18164 H 38.818359 Z"
         id="rect5348-9" />
      <path
         style="color:#000000;fill:#000000;-inkscape-stroke:none"
         d="m 38.660156,248.95898 v 0.19922 h 17.681641 v -0.19922 z"
         id="path6905-1" />
      <path
         style="color:#000000;fill:#000000;-inkscape-stroke:none"
         d="m 17.115234,265.10742 v 0.0996 16.16211 h 31.769532 v -16.26172 z m 0.201172,0.19922 h 31.367188 v 15.86133 H 17.316406 Z"
         id="rect5348-0" />
      <path
         style="color:#000000;fill:#000000;-inkscape-stroke:none"
         d="m 17.111328,266.0957 v 0.20117 h 31.777344 v -0.20117 z"
         id="path6905-9" />
    </g>
    <g
       id="g4773">
      <g
         style="fill:#000000"
         id="rect27711"
         transform="rotate(90,3.537596,291.38032)">
        <path
           sodipodi:nodetypes="ccccccccccccccccccccccccccccccccccccccccccccccccccccccccccccccc"
           inkscape:connector-curvature="0"
           d="m 1.4707031,250.87305 c -0.052203,-2.6e-4 -0.094887,0.0416 -0.095703,0.0937 v 2.44531 c -2.567e-4,0.053 0.042742,0.096 0.095703,0.0957 h 2.5273438 c 0.052961,2.6e-4 0.09596,-0.0427 0.095703,-0.0957 v -2.44531 c -8.429e-4,-0.0522 -0.043519,-0.094 -0.095703,-0.0937 z m -2e-7,3.20706 c -0.052949,-2.6e-4 -0.095943,0.0427 -0.095703,0.0957 v 2.44336 c -2.567e-4,0.053 0.042742,0.096 0.095703,0.0957 h 2.5273438 c 0.052961,2.6e-4 0.09596,-0.0427 0.095703,-0.0957 v -2.44336 c 2.567e-4,-0.053 -0.042742,-0.096 -0.095703,-0.0957 z m -2e-7,3.20894 c -0.052968,-2.6e-4 -0.095971,0.0428 -0.095703,0.0957 v 2.44335 c -2.567e-4,0.053 0.042742,0.096 0.095703,0.0957 h 2.5273438 c 0.052961,2.6e-4 0.09596,-0.0427 0.095703,-0.0957 v -2.44335 c 2.567e-4,-0.053 -0.042742,-0.096 -0.095703,-0.0957 z m -2e-7,3.20895 c -0.052222,-2.6e-4 -0.094914,0.0416 -0.095703,0.0938 v 2.44531 c 8.429e-4,0.0522 0.043519,0.094 0.095703,0.0937 h 2.5273438 c 0.052184,2.6e-4 0.09486,-0.0415 0.095703,-0.0937 v -2.44531 c -8.429e-4,-0.0522 -0.043519,-0.094 -0.095703,-0.0937 z m -2e-7,3.20702 c -0.052984,-2.6e-4 -0.095992,0.0428 -0.095702,0.0958 v 2.44336 c -2.567e-4,0.053 0.042742,0.096 0.095703,0.0957 h 2.5273438 c 0.052961,2.6e-4 0.09596,-0.0427 0.095703,-0.0957 v -2.44336 c 2.567e-4,-0.053 -0.042742,-0.096 -0.095703,-0.0957 z m -2e-7,3.209 c -0.05298,-2.6e-4 -0.095987,0.0428 -0.095702,0.0958 v 2.44335 c -2.567e-4,0.053 0.042742,0.096 0.095703,0.0957 h 2.5273438 c 0.052961,2.6e-4 0.09596,-0.0427 0.095703,-0.0957 v -2.44335 c 2.567e-4,-0.053 -0.042742,-0.096 -0.095703,-0.0957 z m -2e-7,3.20704 c -0.052976,-2.6e-4 -0.095981,0.0428 -0.095702,0.0957 v 2.44336 c -2.567e-4,0.053 0.042742,0.096 0.095703,0.0957 h 2.5273438 c 0.052961,2.6e-4 0.09596,-0.0427 0.095703,-0.0957 v -2.44336 c 2.567e-4,-0.053 -0.042742,-0.096 -0.095703,-0.0957 z"
           style="color:#000000;stroke-linejoin:round"
           id="path1227" />
      </g>
      <path
         style="color:#000000;fill:#000000;-inkscape-stroke:none"
         d="m 21.931641,287.65234 c -1.05087,0 -1.900391,0.84757 -1.900391,1.89844 v 2.05274 c 0,1.05086 0.849521,1.89843 1.900391,1.89843 h 22.34375 c 1.050868,0 1.90039,-0.84757 1.90039,-1.89843 v -2.05274 c 0,-1.05087 -0.849522,-1.89844 -1.90039,-1.89844 z m 0,0.19922 h 22.34375 c 0.943527,0 1.701171,0.75569 1.701171,1.69922 v 2.05274 c 0,0.94352 -0.757644,1.69921 -1.701171,1.69921 h -22.34375 c -0.943529,0 -1.701172,-0.75569 -1.701172,-1.69921 v -2.05274 c 0,-0.94353 0.757643,-1.69922 1.701172,-1.69922 z"
         id="rect4440" />
    </g>
  </g>
</svg>
