<?xml version="1.0" encoding="UTF-8" standalone="no"?>
<!-- Created with Inkscape (http://www.inkscape.org/) -->

<svg
   width="66mm"
   height="66mm"
   viewBox="0 0 66 66"
   version="1.1"
   id="svg8"
   inkscape:version="1.2.1 (9c6d41e410, 2022-07-14)"
   sodipodi:docname="menu-arcmenu-symbolic.svg"
   xmlns:inkscape="http://www.inkscape.org/namespaces/inkscape"
   xmlns:sodipodi="http://sodipodi.sourceforge.net/DTD/sodipodi-0.dtd"
   xmlns="http://www.w3.org/2000/svg"
   xmlns:svg="http://www.w3.org/2000/svg"
   xmlns:rdf="http://www.w3.org/1999/02/22-rdf-syntax-ns#"
   xmlns:cc="http://creativecommons.org/ns#"
   xmlns:dc="http://purl.org/dc/elements/1.1/">
  <defs
     id="defs2" />
  <sodipodi:namedview
     id="base"
     pagecolor="#ffffff"
     bordercolor="#666666"
     borderopacity="1.0"
     inkscape:pageopacity="0.0"
     inkscape:pageshadow="2"
     inkscape:zoom="3.959798"
     inkscape:cx="48.234784"
     inkscape:cy="122.98607"
     inkscape:document-units="mm"
     inkscape:current-layer="layer1"
     showgrid="false"
     inkscape:window-width="2560"
     inkscape:window-height="1363"
     inkscape:window-x="0"
     inkscape:window-y="40"
     inkscape:window-maximized="1"
     inkscape:showpageshadow="2"
     inkscape:pagecheckerboard="0"
     inkscape:deskcolor="#d1d1d1" />
  <metadata
     id="metadata5">
    <rdf:RDF>
      <cc:Work
         rdf:about="">
        <dc:format>image/svg+xml</dc:format>
        <dc:type
           rdf:resource="http://purl.org/dc/dcmitype/StillImage" />
        <dc:title />
      </cc:Work>
    </rdf:RDF>
  </metadata>
  <g
     inkscape:label="Layer 1"
     inkscape:groupmode="layer"
     id="layer1"
     transform="translate(0,-231)">
    <g
       style="fill-rule:nonzero"
       id="rect33674"
       transform="matrix(0.99918043,0,0,0.99918043,-0.16225137,0.31014048)" />
    <g
       style="fill-rule:nonzero"
       id="rect33676"
       transform="matrix(0.99918043,0,0,0.99918043,-0.16225137,0.31014048)" />
    <g
       style="fill-rule:nonzero"
       id="rect33678"
       transform="matrix(0.99918043,0,0,0.99918043,-0.16225137,0.31014048)" />
    <g
       style="fill-rule:nonzero"
       id="rect33680"
       transform="matrix(0.99918043,0,0,0.99918043,-0.16225137,0.31014048)" />
    <g
       style="fill-rule:nonzero"
       id="rect33682"
       transform="matrix(0.99918043,0,0,0.99918043,-0.16225137,0.31014048)" />
    <g
       style="fill-rule:nonzero"
       id="rect33684"
       transform="matrix(0.99918043,0,0,0.99918043,-0.16225137,0.31014048)" />
    <g
       style="fill-rule:nonzero"
       id="rect33686"
       transform="matrix(0.99918043,0,0,0.99918043,-0.16225137,0.31014048)" />
    <g
       style="fill-rule:nonzero"
       id="rect33688"
       transform="matrix(0.99918043,0,0,0.99918043,-0.16225137,0.31014048)" />
    <path
       d="m 14.42149,239 a 0.13219629,0.13219629 0 0 0 -0.132704,0.13075 v 49.7385 A 0.13219629,0.13219629 0 0 0 14.42149,289 h 37.157023 a 0.13219629,0.13219629 0 0 0 0.132701,-0.13075 v -49.7385 A 0.13219629,0.13219629 0 0 0 51.578513,239 Z m 0.132703,0.26344 H 51.44776 v 49.47311 H 14.554193 Z"
       style="color:#000000;stroke-width:0.99918;stroke-linejoin:round"
       id="rect30567"
       inkscape:connector-curvature="0" />
    <g
       id="path30569"
       transform="matrix(0.99918043,0,0,0.99918043,13.820419,-0.43847639)">
      <path
         style="color:#000000;fill:#000000;stroke-width:0.264583px"
         d="m 22.785224,239.76578 0.233152,49.6615"
         id="path289" />
      <path
         style="color:#000000;fill:#000000"
         d="m 22.652344,239.76562 0.234375,49.66211 0.263672,-0.002 -0.232422,-49.66016 z"
         id="path291" />
    </g>
    <path
       id="rect30571"
       d="m 36.586902,239.06634 a 0.06579547,0.06579547 0 0 0 -0.0644,0.0644 v 5.35694 a 0.06579547,0.06579547 0 0 0 0.0644,0.0663 h 14.991611 a 0.06579547,0.06579547 0 0 0 0.06636,-0.0663 v -5.35694 a 0.06579547,0.06579547 0 0 0 -0.06636,-0.0644 z m 0.06636,0.13076 h 14.860857 v 5.22617 h -14.86086 z"
       style="color:#000000;stroke-width:0.99918;stroke-linejoin:round"
       inkscape:connector-curvature="0" />
    <g
       id="path30636"
       transform="matrix(0.99918043,0,0,0.99918043,13.846365,0.52619972)">
      <path
         id="path1693"
         d="m 2.5642889,287.23408 17.9535261,0.0511"
         style="color:#000000;stroke-width:0.265"
         inkscape:connector-curvature="0" />
      <path
         id="path1695"
         d="m 2.5644531,287.10156 v 0.26563 l 17.9531249,0.0508 v -0.26563 z"
         style="color:#000000"
         inkscape:connector-curvature="0" />
    </g>
    <g
       id="g1138"
       transform="translate(0.00741767)">
      <path
         sodipodi:nodetypes="sccccccccccccccccs"
         id="path1135"
         d="m 40.163919,242.34066 c -0.105798,0.15282 -0.220952,0.28526 -0.330729,0.39845 h 4.23e-4 c -0.201026,0.19853 -0.471338,0.43557 -0.471338,0.43557 0,0 -0.286503,-0.23284 -0.473055,-0.43527 h 4.23e-4 c -0.109642,-0.11305 -0.224719,-0.24528 -0.330432,-0.39785 -0.0047,0.002 -0.0096,0.003 -0.01426,0.005 -0.254676,0.0965 -0.479562,0.22488 -0.674675,0.38509 v 0.75099 h 1.055583 0.0013 0.868302 1.056926 v -0.75099 c -0.195114,-0.1602 -0.418916,-0.28856 -0.671537,-0.38509 -0.0056,-0.002 -0.01129,-0.004 -0.01688,-0.006 z"
         style="-inkscape-font-specification:Ubuntu;stroke-width:0.0382251"
         inkscape:connector-curvature="0" />
      <path
         sodipodi:nodetypes="ccsscccccccssssscc"
         style="-inkscape-font-specification:Ubuntu;stroke-width:0.0382251"
         d="m 39.361181,240.50183 c -0.236059,2e-5 -0.464312,0.0996 -0.631213,0.2753 -0.166929,0.17573 -0.261432,0.41599 -0.261432,0.66443 v 7.2e-4 c 4.23e-4,0.0956 0.009,0.20573 0.05406,0.31739 0.117555,0.29108 0.293805,0.51712 0.454761,0.69181 h -2.9e-4 c 0.04444,0.0508 0.09511,0.10233 0.145612,0.15191 h 0.471115 c 0.05114,-0.05 0.103388,-0.10185 0.151811,-0.15221 h -4.22e-4 c 0.160905,-0.17466 0.337099,-0.40054 0.454611,-0.69152 0.04508,-0.11165 0.05371,-0.22171 0.05407,-0.31739 v -7.2e-4 c 0,-0.24849 -0.0946,-0.48872 -0.261506,-0.66443 -0.166891,-0.17567 -0.395088,-0.27528 -0.631148,-0.2753 h -7.6e-5 z"
         id="path1137"
         inkscape:connector-curvature="0" />
    </g>
    <path
       sodipodi:nodetypes="ccccccccccccccccccccccccccccccccccccccccccccccccccccccccccccccccccccccccccccccccccccccccccccccccccccccccccccccccccccccccccccccccccccccccccccccccccccccccccccccccccccccccccccccccccccccccccccccac"
       inkscape:connector-curvature="0"
       d="m 21.16061,245.75686 -0.002,0.79232 3.965497,0.0156 0.002,-0.79232 z m 5.552087,0.0215 -0.002,0.79232 4.757816,0.0195 0.0039,-0.79232 z m 6.344406,0.0254 -0.002,0.79232 1.032357,0.004 0.002,-0.79232 z m -11.84185,4.84367 -0.0039,0.79429 3.965498,0.0156 0.0039,-0.79232 z m 5.552087,0.0234 -0.0039,0.79233 4.757817,0.0195 0.0039,-0.79426 z m 6.344405,0.0254 -0.0039,0.79232 1.032357,0.004 0.0039,-0.79233 z m -11.834043,4.67391 -0.0039,0.79427 3.965497,0.0156 0.0039,-0.79426 z m 5.552087,0.0215 -0.0039,0.79426 4.759768,0.0195 0.002,-0.79427 z m 6.344405,0.0254 -0.0039,0.79427 1.032356,0.004 0.0039,-0.79427 z m -11.779401,5.07787 -0.0039,0.79427 3.965497,0.0156 0.0039,-0.79427 z m 5.552087,0.0234 -0.0039,0.79232 4.757816,0.0195 0.0039,-0.79427 z m 6.344405,0.0254 -0.0039,0.79232 1.032356,0.004 0.0039,-0.7923 z m -11.95894,4.43191 -0.0039,0.79232 3.965497,0.0156 0.0039,-0.79232 z m 5.550135,0.0215 -0.002,0.79427 4.757817,0.0176 0.0039,-0.79232 z m 6.346356,0.0254 -0.0039,0.79427 1.032357,0.004 0.002,-0.79428 z m -11.781351,4.32653 -0.002,0.79232 3.965498,0.0156 0.002,-0.79231 z m 5.552087,0.0215 -0.0039,0.79232 4.759768,0.0195 0.002,-0.79231 z m 6.344405,0.0254 -0.002,0.79232 1.030405,0.004 0.0039,-0.79232 z m -11.890638,4.43191 -0.0039,0.79427 3.965497,0.0156 0.0039,-0.79427 z m 5.550135,0.0215 -0.002,0.79427 4.757815,0.0195 0.0039,-0.79427 z m 6.346357,0.0254 -0.0039,0.79427 1.032356,0.004 0.002,-0.79232 z m -11.896492,-32.88515 -0.0039,0.79232 3.965497,0.0176 0.0039,-0.79427 z m 5.550135,0.0215 -0.002,0.79427 4.757815,0.0195 0.0039,-0.79428 z m 6.346357,0.0254 -0.0039,0.79427 1.032356,0.004 0.002,-0.79427 z m -17.403694,21.63421 c -0.06771,5.4e-4 -0.122509,0.0553 -0.122945,0.12294 v 3.38785 c 4.31e-4,0.0677 0.05523,0.12252 0.122945,0.12295 h 3.079506 c 0.06772,-5.3e-4 0.122515,-0.0553 0.122946,-0.12295 v -3.38785 c -4.49e-4,-0.0677 -0.05522,-0.12251 -0.122946,-0.12294 z m 0,4.05917 c -0.06848,5.4e-4 -0.123589,0.0565 -0.122945,0.1249 v 3.38589 c 4.31e-4,0.0677 0.05523,0.12252 0.122945,0.12295 h 3.079506 c 0.06772,-5.3e-4 0.122515,-0.0553 0.122946,-0.12295 v -3.38589 c 6.35e-4,-0.0684 -0.05447,-0.12445 -0.122946,-0.1249 z m 0,4.37531 c -0.06772,5.4e-4 -0.122514,0.0553 -0.122945,0.12295 v 3.38784 c 4.31e-4,0.0677 0.05523,0.12252 0.122945,0.12295 h 3.079506 c 0.06772,-5.3e-4 0.122515,-0.0553 0.122946,-0.12295 v -3.38784 c -4.23e-4,-0.0677 -0.05522,-0.12252 -0.122946,-0.12295 z m 0,-26.09968 c -0.06848,4.5e-4 -0.123589,0.0565 -0.122945,0.1249 v 3.38589 c -6.43e-4,0.0684 0.05447,0.12446 0.122945,0.1249 h 3.079506 c 0.06848,-4.5e-4 0.123589,-0.0565 0.122946,-0.1249 v -3.38589 c 6.35e-4,-0.0684 -0.05447,-0.12446 -0.122946,-0.1249 z m 0,4.50997 c -0.06772,4.2e-4 -0.122514,0.0553 -0.122945,0.12295 v 3.38784 c 4.31e-4,0.0677 0.05523,0.12252 0.122945,0.12295 h 3.079506 c 0.06772,-4.2e-4 0.122515,-0.0553 0.122946,-0.12295 v -3.38784 c -4.23e-4,-0.0677 -0.05522,-0.12252 -0.122946,-0.12295 z m 0,4.43192 c -0.06848,4.5e-4 -0.123589,0.0564 -0.122945,0.12489 v 3.3859 c 4.31e-4,0.0677 0.05523,0.12252 0.122945,0.12295 h 3.079506 c 0.06772,-4.2e-4 0.122515,-0.0553 0.122946,-0.12295 v -3.3859 c 6.35e-4,-0.0684 -0.05447,-0.12445 -0.122946,-0.12489 z m 0,4.40068 c -0.06772,4.2e-4 -0.122514,0.0553 -0.122945,0.12295 v 3.38785 c 4.36e-4,0.0677 0.05523,0.12251 0.122945,0.12294 h 3.079506 c 0.06771,-5.3e-4 0.12251,-0.0553 0.122946,-0.12294 v -3.38785 c -4.23e-4,-0.0678 -0.05522,-0.12252 -0.122946,-0.12295 z m 0,-17.92866 c -0.06848,4.5e-4 -0.123589,0.0565 -0.122945,0.1249 v 3.3859 c -6.43e-4,0.0685 0.05447,0.12446 0.122945,0.1249 h 3.079506 c 0.06848,-4.5e-4 0.123589,-0.0564 0.122946,-0.1249 v -3.3859 c 6.35e-4,-0.0684 -0.05447,-0.12446 -0.122946,-0.1249 z"
       style="color:#000000;stroke-width:0.99918;stroke-dasharray:4.7586, 1.5862;stroke-dashoffset:0.793099"
       id="path36027" />
    <g
       id="path36029"
       transform="matrix(0.99918043,0,0,0.99918043,13.631122,-0.3446974)">
      <path
         id="path1675"
         d="m 23.198848,281.98804 14.688278,0.0513"
         style="color:#000000;stroke-width:0.240218"
         inkscape:connector-curvature="0" />
      <path
         id="path1677"
         d="m 23.199219,281.86719 v 0.24023 l 14.6875,0.0527 v -0.24024 z"
         style="color:#000000"
         inkscape:connector-curvature="0" />
    </g>
    <g
       id="path36031"
       transform="matrix(0.99918043,0,0,0.99918043,13.631122,-0.3446974)">
      <path
         id="path1657"
         d="m 23.315442,267.11203 14.571665,0.0513"
         style="color:#000000;stroke-width:0.239282"
         inkscape:connector-curvature="0" />
      <path
         id="path1659"
         d="m 23.316406,266.99219 -0.002,0.24023 14.572266,0.0508 v -0.24023 z"
         style="color:#000000"
         inkscape:connector-curvature="0" />
    </g>
    <path
       id="path1220"
       d="m 39.372516,256.2951 c 0.261039,-8.2e-4 0.460117,0.0444 0.460113,0.0444 v 0.23739 h 8.7e-4 v 1.11996 c 0,0.001 5e-6,0.002 0,0.004 0,0.0143 -2.58e-4,0.0283 -8.7e-4,0.0419 -1.18e-4,0.002 1.21e-4,0.004 0,0.005 -6.05e-4,0.0117 -0.0014,0.023 -0.0025,0.0342 -0.007,0.0794 -0.02492,0.14669 -0.05687,0.20025 -2.4e-5,5e-5 -2.4e-5,7e-5 -7.3e-5,1.7e-4 -0.0023,0.004 -0.0048,0.008 -0.0072,0.0115 -0.0025,0.004 -0.005,0.007 -0.0076,0.0111 -0.05313,0.0729 -0.146684,0.10923 -0.275719,0.10923 -0.230065,0 -0.327046,-0.16151 -0.327046,-0.30392 0,-0.007 2.89e-4,-0.0143 7.37e-4,-0.0218 0.0067,-0.11722 0.06881,-0.28119 0.292116,-0.28119 h 5.52e-4 3.17e-4 c 0.0055,0 0.01083,10e-5 0.01617,3.7e-4 0.03324,0.001 0.06356,0.007 0.0918,0.0151 5.27e-4,1.7e-4 0.0011,2.5e-4 0.0016,4e-4 0.0036,10e-4 0.0071,0.002 0.01061,0.003 0.0015,4.9e-4 0.003,9.9e-4 0.0045,0.002 0.0025,8.7e-4 0.005,0.002 0.0076,0.003 0.0025,9.3e-4 0.0051,0.002 0.0076,0.003 0.0012,4.8e-4 0.0024,9.5e-4 0.0037,0.001 0.02942,0.0119 0.05678,0.027 0.08293,0.044 v -0.7649 c 0,0 -0.569452,-0.10543 -0.937018,0.12721 v 0.94069 c 0,0.0143 -1.84e-4,0.0284 -8.17e-4,0.042 -9.3e-5,0.002 9.1e-5,0.004 0,0.005 -6.32e-4,0.0117 -0.0015,0.023 -0.0026,0.0341 -0.008,0.0911 -0.0303,0.16605 -0.07168,0.2228 -0.05313,0.0728 -0.156978,0.1093 -0.286012,0.1093 -0.230065,0 -0.326966,-0.16151 -0.326966,-0.30391 0,-0.11745 0.05614,-0.30313 0.293699,-0.30313 0.08908,0 0.157491,0.0281 0.2198,0.068 0.0042,0.003 0.0083,0.005 0.01236,0.008 v -1.24046 c 0.244933,-0.18082 0.537232,-0.22709 0.79619,-0.22788 v -7e-5 z"
       style="fill:#000000;stroke-width:0.0243837"
       inkscape:connector-curvature="0" />
    <g
       id="g1328"
       transform="matrix(1.2406871,0,0,1.2406871,-9.3496212,-63.546916)">
      <path
         style="color:#000000;fill:#000000;stroke-width:0.134335"
         d="m 37.974828,263.21693 v 1.61201 h 0.134334 v -0.0448 c 0,-0.0124 0.01,-0.0224 0.02239,-0.0224 h 0.156724 c 0.0124,0 0.02239,0.01 0.02239,0.0224 v 0.0448 h 0.134335 v -1.61201 h -0.134335 v 0.0448 c 0,0.0124 -0.01,0.0224 -0.02239,0.0224 h -0.156724 c -0.0124,0 -0.02239,-0.01 -0.02239,-0.0224 v -0.0448 z m 0.156723,0.20151 h 0.156724 c 0.0124,0 0.02239,0.01 0.02239,0.0224 v 0.0895 c 0,0.0124 -0.01,0.0224 -0.02239,0.0224 h -0.156724 c -0.0124,0 -0.02239,-0.01 -0.02239,-0.0224 v -0.0895 c 0,-0.0124 0.01,-0.0224 0.02239,-0.0224 z m 0,0.26867 h 0.156724 c 0.0124,0 0.02239,0.01 0.02239,0.0224 v 0.0895 c 0,0.0124 -0.01,0.0224 -0.02239,0.0224 h -0.156724 c -0.0124,0 -0.02239,-0.01 -0.02239,-0.0224 v -0.0895 c 0,-0.0124 0.01,-0.0224 0.02239,-0.0224 z m 0,0.26866 h 0.156724 c 0.0124,0 0.02239,0.01 0.02239,0.0224 v 0.0895 c 0,0.0124 -0.01,0.0224 -0.02239,0.0224 h -0.156724 c -0.0124,0 -0.02239,-0.01 -0.02239,-0.0224 v -0.0895 c 0,-0.0124 0.01,-0.0224 0.02239,-0.0224 z m 0,0.26866 h 0.156724 c 0.0124,0 0.02239,0.01 0.02239,0.0224 v 0.0895 c 0,0.0124 -0.01,0.0224 -0.02239,0.0224 h -0.156724 c -0.0124,0 -0.02239,-0.01 -0.02239,-0.0224 v -0.0895 c 0,-0.0124 0.01,-0.0224 0.02239,-0.0224 z m 0,0.26867 h 0.156724 c 0.0124,0 0.02239,0.01 0.02239,0.0224 v 0.0895 c 0,0.0124 -0.01,0.0224 -0.02239,0.0224 h -0.156724 c -0.0124,0 -0.02239,-0.01 -0.02239,-0.0224 v -0.0895 c 0,-0.0124 0.01,-0.0224 0.02239,-0.0224 z"
         id="path1142"
         inkscape:connector-curvature="0" />
      <path
         style="color:#000000;fill:#000000;stroke-width:0.134335"
         d="m 39.38534,263.21693 v 1.61201 h 0.134334 v -0.0448 c 0,-0.0124 0.01,-0.0224 0.02239,-0.0224 h 0.156725 c 0.0124,0 0.02239,0.01 0.02239,0.0224 v 0.0448 h 0.134334 v -1.61201 h -0.134334 v 0.0448 c 0,0.0124 -0.01,0.0224 -0.02239,0.0224 h -0.156725 c -0.0124,0 -0.02239,-0.01 -0.02239,-0.0224 v -0.0448 z m 0.156723,0.20151 h 0.156724 c 0.0124,0 0.02239,0.01 0.02239,0.0224 v 0.0895 c 0,0.0124 -0.01,0.0224 -0.02239,0.0224 h -0.156724 c -0.0124,0 -0.02239,-0.01 -0.02239,-0.0224 v -0.0895 c 0,-0.0124 0.01,-0.0224 0.02239,-0.0224 z m 0,0.26867 h 0.156724 c 0.0124,0 0.02239,0.01 0.02239,0.0224 v 0.0895 c 0,0.0124 -0.01,0.0224 -0.02239,0.0224 h -0.156724 c -0.0124,0 -0.02239,-0.01 -0.02239,-0.0224 v -0.0895 c 0,-0.0124 0.01,-0.0224 0.02239,-0.0224 z m 0,0.26866 h 0.156724 c 0.0124,0 0.02239,0.01 0.02239,0.0224 v 0.0895 c 0,0.0124 -0.01,0.0224 -0.02239,0.0224 h -0.156724 c -0.0124,0 -0.02239,-0.01 -0.02239,-0.0224 v -0.0895 c 0,-0.0124 0.01,-0.0224 0.02239,-0.0224 z m 0,0.26866 h 0.156724 c 0.0124,0 0.02239,0.01 0.02239,0.0224 v 0.0895 c 0,0.0124 -0.01,0.0224 -0.02239,0.0224 h -0.156724 c -0.0124,0 -0.02239,-0.01 -0.02239,-0.0224 v -0.0895 c 0,-0.0124 0.01,-0.0224 0.02239,-0.0224 z m 0,0.26867 h 0.156724 c 0.0124,0 0.02239,0.01 0.02239,0.0224 v 0.0895 c 0,0.0124 -0.01,0.0224 -0.02239,0.0224 h -0.156724 c -0.0124,0 -0.02239,-0.01 -0.02239,-0.0224 v -0.0895 c 0,-0.0124 0.01,-0.0224 0.02239,-0.0224 z"
         id="path1144"
         inkscape:connector-curvature="0" />
      <path
         d="m 38.37783,263.21693 h 1.074676 v 0.13433 H 38.37783 Z"
         style="color:#000000;fill:#000000;stroke-width:0.134335"
         id="rect1146"
         inkscape:connector-curvature="0" />
      <path
         d="m 38.37783,264.69462 h 1.074676 v 0.13432 H 38.37783 Z"
         style="color:#000000;fill:#000000;stroke-width:0.134335"
         id="rect1148"
         inkscape:connector-curvature="0" />
      <path
         d="m 38.37783,263.95577 h 1.074676 v 0.13433 H 38.37783 Z"
         style="color:#000000;fill:#000000;stroke-width:0.134335"
         id="rect1150"
         inkscape:connector-curvature="0" />
    </g>
    <g
       id="g1316"
       transform="matrix(1.0053383,0,0,1.0053383,-0.10204641,-1.5248614)">
      <path
         sodipodi:nodetypes="ccccccccccccccc"
         style="color:#000000;fill:#000000;stroke-width:0.102018"
         d="m 37.84217,249.30249 v 1.98938 h 1.377252 0.07652 l 0.535598,-0.53561 v -0.0765 -1.37725 z m 0.153028,0.15305 h 1.683308 v 1.22421 h -0.459084 v 0.45908 h -1.224224 z"
         id="path1095"
         inkscape:connector-curvature="0" />
      <path
         sodipodi:nodetypes="ccccc"
         d="m 38.301254,249.76157 h 1.071196 v 0.15305 h -1.071196 z"
         style="color:#000000;fill:#000000;stroke-width:0.153028"
         id="rect1097"
         inkscape:connector-curvature="0" />
      <path
         sodipodi:nodetypes="ccccc"
         d="m 38.301254,250.06763 h 1.071196 v 0.15304 h -1.071196 z"
         style="color:#000000;fill:#000000;stroke-width:0.153028"
         id="rect1099"
         inkscape:connector-curvature="0" />
      <path
         sodipodi:nodetypes="ccccc"
         d="m 38.301254,250.37369 h 0.612112 v 0.15303 h -0.612112 z"
         style="color:#000000;fill:#000000;stroke-width:0.153028"
         id="rect1101"
         inkscape:connector-curvature="0" />
    </g>
    <g
       id="g1143"
       transform="matrix(0.97969101,0,0,0.97969101,0.89401711,4.8051363)">
      <path
         id="path1092"
         d="m 39.657731,246.83257 v -0.31842 h -0.308052 z"
         style="color:#000000;fill:#000000;stroke-width:1.22423"
         inkscape:connector-curvature="0" />
      <path
         style="-inkscape-font-specification:Ubuntu;fill:#000000;stroke-width:0.0255047"
         d="m 38.836851,246.42905 -0.820879,0.77113 v 0.47262 0.23321 0.28917 h 0.269739 0.178013 0.373127 v -0.77113 c 0.0073,-0.003 0.0189,-0.006 0.03498,-0.0109 0.01754,-0.004 0.03627,-0.009 0.05674,-0.0117 0.02194,-0.004 0.045,-0.008 0.0684,-0.0109 0.0234,-0.003 0.04647,-0.004 0.0684,-0.004 0.05411,0 0.0987,0.007 0.135258,0.0218 0.03656,0.0132 0.06591,0.0346 0.08784,0.0653 0.02194,0.0307 0.03787,0.0715 0.04664,0.12127 0.01024,0.0498 0.01477,0.10936 0.01477,0.17956 v 0.42055 h 0.03809 0.26974 v -0.28917 -0.70583 z"
         id="path1098"
         inkscape:connector-curvature="0" />
      <path
         style="color:#000000;-inkscape-font-specification:sans-serif;fill:#000000;stroke-width:0.153028"
         d="m 37.864396,247.39655 -0.114048,-0.11977 1.086503,-1.12306 1.086504,1.12306 -0.114048,0.11977 -0.972456,-0.93029 z"
         id="path1100"
         inkscape:connector-curvature="0" />
    </g>
    <g
       id="g1321"
       transform="matrix(1.0480203,0,0,1.0480203,-1.6366251,-12.672814)">
      <path
         id="path1188"
         d="m 39.147596,260.20804 c -0.128366,0 -0.232428,0.10406 -0.232428,0.23243 0,0.12836 0.104062,0.23242 0.232428,0.23242 0.128366,0 0.232429,-0.10406 0.232429,-0.23242 0,-0.12837 -0.104062,-0.23243 -0.232429,-0.23243 z"
         style="color:#000000;fill:#000000;stroke-width:0.146797"
         inkscape:connector-curvature="0" />
      <path
         id="path1190"
         d="m 38.480095,260.4527 -0.421243,0.80738 h 0.395301 0.622702 l -0.311355,-0.59676 -0.08776,0.1682 z"
         style="color:#000000;fill:#000000;stroke-width:0.146797"
         inkscape:connector-curvature="0" />
      <path
         id="path1192"
         d="m 37.765258,259.86549 v 1.90836 h 1.908359 v -1.90836 z m 0.146797,0.1468 h 1.614765 v 1.39457 h -1.614765 z"
         style="color:#000000;fill:#000000;stroke-width:0.0978642"
         inkscape:connector-curvature="0" />
    </g>
    <g
       id="g1310"
       transform="matrix(1.0134279,0,0,1.0134279,-0.56903988,-3.5873039)">
      <path
         id="path1079"
         d="m 38.313115,253.49526 c 0.08445,0.15136 0.175566,0.30468 0.274634,0.46022 0.129216,0.20049 0.262847,0.39396 0.400298,0.58015 4.76e-4,0 0.0012,-7.1e-4 0.0017,-7.1e-4 0.134575,-0.18603 0.26621,-0.37913 0.395305,-0.57943 0.09901,-0.15543 0.191039,-0.30893 0.277131,-0.4602 l -1.349033,-1e-5 z"
         style="color:#000000;fill:#000000;stroke-width:0.0858942"
         inkscape:connector-curvature="0" />
      <path
         sodipodi:nodetypes="ccccc"
         id="path1077"
         d="m 38.313115,254.53563 v 0.1431 h 1.349068 v -0.1431 z"
         style="color:#000000;fill:#000000;stroke-width:0.167573"
         inkscape:connector-curvature="0" />
      <path
         id="path1081"
         d="m 38.711085,252.70523 v 1.07552 h 0.553128 v -1.07552 z"
         style="color:#000000;-inkscape-font-specification:Sans;fill:#000000;stroke-width:0.122917"
         inkscape:connector-curvature="0" />
    </g>
    <path
       id="path36589"
       d="m 40.951912,247.04227 -0.002,0.26347 5.155927,0.0527 0.0039,-0.26346 z"
       style="color:#000000;stroke-width:0.99918;stroke-dasharray:6.3448, 6.3448;stroke-dashoffset:0.412835"
       inkscape:connector-curvature="0" />
    <path
       id="path36591"
       d="m 40.950935,250.37924 -0.002,0.26541 6.006793,0.041 0.0021,-0.26542 z"
       style="color:#000000;stroke-width:0.99918;stroke-dasharray:6.3448, 6.3448;stroke-dashoffset:0.338216"
       inkscape:connector-curvature="0" />
    <path
       id="path36591-3"
       d="m 41.772827,242.12267 -0.002,0.26541 6.006793,0.041 0.0021,-0.26542 z"
       style="color:#000000;stroke-width:0.99918;stroke-dasharray:6.3448, 6.3448;stroke-dashoffset:0.338216"
       inkscape:connector-curvature="0" />
    <path
       id="path36593"
       d="m 40.934426,263.86486 -0.002,0.26344 4.781234,0.0527 0.0039,-0.26345 z"
       style="color:#000000;stroke-width:0.99918;stroke-dasharray:6.3448, 6.3448;stroke-dashoffset:0.428262"
       inkscape:connector-curvature="0" />
    <path
       id="path36595"
       d="m 40.881232,260.49665 -0.002,0.26541 5.997035,0.041 0.0021,-0.26346 z"
       style="color:#000000;stroke-width:0.99918;stroke-dasharray:6.3448, 6.3448;stroke-dashoffset:0.346387"
       inkscape:connector-curvature="0" />
    <path
       id="path36597"
       d="m 40.964596,257.10841 -0.002,0.26345 5.81164,0.0527 0.0021,-0.26346 z"
       style="color:#000000;stroke-width:0.99918;stroke-dasharray:6.3448, 6.3448;stroke-dashoffset:0.389515"
       inkscape:connector-curvature="0" />
    <path
       id="path36599"
       d="m 40.86702,253.78075 -0.002,0.26345 6.004839,0.041 0.0021,-0.26347 z"
       style="color:#000000;stroke-width:0.99918;stroke-dasharray:6.3448, 6.3448;stroke-dashoffset:0.340203"
       inkscape:connector-curvature="0" />
    <path
       d="m 40.825325,277.70695 -0.002,0.26541 6.006793,0.0391 0.0021,-0.26346 z m 0,-4.06113 -0.002,0.26541 5.81164,0.0527 0.0021,-0.2654 z m 0,-4.06112 -0.002,0.2654 5.997035,0.041 0.0021,-0.26345 z m -1.423047,7.66162 -0.624933,0.62492 0.118873,0.11888 0.624933,-0.62493 z m 0.160436,0.41346 c 0,0 0.119549,-0.30569 0.1714,-0.62572 -2.2e-5,-3e-5 -2.8e-5,-3e-5 -2.47e-4,-3e-5 -2.2e-5,-2e-5 -1.64e-4,-2e-5 -2.64e-4,0 -2.3e-5,-2e-5 -1.66e-4,-2e-5 -2.65e-4,0 -2.3e-5,-2e-5 -1.65e-4,-2e-5 -2.65e-4,0 -0.334454,0.0577 -0.624561,0.17195 -0.624561,0.17195 z m -1.378037,-0.21817 c -0.27171,0 -0.407564,-1e-5 -0.407564,0.31592 v 0.59085 c 0,0.31592 0.135854,0.31592 0.407564,0.31592 h 0.733618 c 0.27171,0 0.407564,0 0.407564,-0.31592 v -0.5545 l -0.163026,0.16302 v 0.32181 c 0,0.22258 -0.07973,0.22257 -0.295272,0.22257 h -0.63215 c -0.215539,0 -0.295272,10e-6 -0.295272,-0.22257 v -0.45151 c 0,-0.22259 0.07973,-0.22257 0.295272,-0.22257 h 0.575155 l 0.163025,-0.16302 h -9.51e-4 z m 0.326053,-0.73362 c -0.27171,0 -0.407566,0 -0.407566,0.31592 v 0.33618 h 0.163027 v -0.26651 c 0,-0.22258 0.07973,-0.22257 0.295272,-0.22257 h 1.039715 c 0.21554,0 0.295272,-1e-5 0.295272,0.22257 v 0.85908 c 0,0.22258 -0.07973,0.22256 -0.295272,0.22256 h -0.193805 v 0.16303 h 0.244538 c 0.27171,0 0.407566,0 0.407566,-0.31591 v -0.99843 c 0,-0.31592 -0.135856,-0.31592 -0.407566,-0.31592 z m 0.187335,-3.75434 -0.0071,0.0152 c -0.06531,0.13835 -0.127398,0.28042 -0.188967,0.42249 -0.06155,0.14205 -0.125576,0.29499 -0.188969,0.45193 -0.01767,0.0451 -0.03563,0.092 -0.05348,0.13817 h 0.402022 c 0.03258,-0.086 0.06463,-0.16952 0.09446,-0.24784 0.04597,-0.11671 0.08684,-0.21119 0.123898,-0.29861 0.03547,0.0844 0.07135,0.17472 0.116761,0.29152 0.03114,0.08 0.0629,0.16648 0.0954,0.25493 h 0.410893 c -0.01881,-0.0462 -0.03795,-0.0931 -0.05615,-0.13817 -0.06156,-0.15703 -0.119346,-0.30977 -0.180938,-0.45193 -0.06157,-0.14207 -0.124558,-0.28416 -0.189861,-0.42249 l -0.0071,-0.0152 z m -0.668549,1.11418 c -0.126418,0 -0.22817,0.1018 -0.22817,0.22822 0,0.12641 0.101752,0.22817 0.22817,0.22817 h 1.711466 c 0.126417,0 0.22817,-0.10176 0.22817,-0.22817 0,-0.12642 -0.101753,-0.22822 -0.22817,-0.22822 z m 0,0.11409 h 0.998364 c 0.06321,0 0.114084,0.051 0.114084,0.11413 0,0.0632 -0.05088,0.11408 -0.114084,0.11408 h -0.998364 c -0.06321,0 -0.114085,-0.0509 -0.114085,-0.11408 0,-0.0633 0.05088,-0.11413 0.114085,-0.11413 z m -0.0035,0.42878 c -0.03418,0.0971 -0.06932,0.19816 -0.106106,0.30305 l -0.01427,0.0366 h 0.421648 l 0.08732,-0.24066 c 0.01197,-0.0328 0.02425,-0.0658 0.03568,-0.0989 h -0.420755 c -0.0012,0 -0.0023,10e-6 -0.0035,0 z m 1.277281,0 c 0.0113,0.0336 0.02272,0.0666 0.03479,0.0989 0.02783,0.0743 0.05426,0.15016 0.08024,0.22639 l 0.0062,0.0143 h 0.0223 0.42249 l -0.01512,-0.0366 c -0.03684,-0.10505 -0.07322,-0.20601 -0.108782,-0.30305 -0.0015,2e-5 -0.0029,0 -0.0044,0 z m -0.955952,-5.51576 -0.297659,0.25305 0.268225,0.31966 0.299272,-0.25112 -0.269831,-0.32157 z m -0.516717,0.62775 -0.06537,0.38517 0.410944,0.0724 0.06783,-0.38473 -0.413402,-0.0728 z m 0.0077,0.81302 0.197512,0.33707 0.361376,-0.20864 -0.195336,-0.33833 -0.363539,0.20989 z m 0.528477,0.61787 0.367973,0.13126 0.142718,-0.39212 -0.367112,-0.13361 -0.143571,0.39445 z m 0.801998,0.13361 0.366257,-0.13596 -0.142722,-0.39212 -0.36711,0.13361 0.143574,0.39446 z m 0.700257,-0.41315 0.193163,-0.33959 -0.361379,-0.20864 -0.195335,0.33833 0.363541,0.20989 z m 0.270856,-0.76661 -0.07031,-0.3843 -0.410945,0.0724 0.06785,0.38473 0.413403,-0.0728 z m -0.285282,-0.76136 -0.300888,-0.2492 -0.268224,0.31966 0.299273,0.25112 0.26983,-0.32157 z m -0.707934,-0.42777 -0.390672,0.0583 v 0.38938 H 39.1467 Z m -0.448516,0.25658 c -0.241969,0.0646 -0.458948,0.22184 -0.593263,0.4547 -0.268631,0.46572 -0.106798,1.06562 0.35908,1.33485 0.465878,0.26923 1.066212,0.10859 1.334842,-0.35713 0.268631,-0.46572 0.106798,-1.06561 -0.35908,-1.33484 -0.232939,-0.13461 -0.499609,-0.16221 -0.741579,-0.0976 z m 0.573748,0.38836 c 0.309443,0.17882 0.414194,0.56948 0.236135,0.87818 -0.17806,0.30869 -0.568744,0.41301 -0.878187,0.23419 -0.309442,-0.17883 -0.414193,-0.5695 -0.236134,-0.87819 0.178059,-0.3087 0.568743,-0.41301 0.878186,-0.23418 z"
       style="color:#000000;stroke-width:0.99918;stroke-dasharray:6.3448, 6.3448;stroke-dashoffset:0.338216"
       id="path36894"
       inkscape:connector-curvature="0" />
    <path
       id="path534"
       d="m 39.689845,285.11256 c -0.776622,0 -1.409001,0.63239 -1.409001,1.40901 0,0.77662 0.632379,1.40901 1.409001,1.40901 0.776622,0 1.409,-0.63239 1.409,-1.40901 0,-0.77662 -0.632378,-1.40901 -1.409,-1.40901 z m 0,0.26541 c 0.633523,0 1.143593,0.51007 1.143593,1.14359 0,0.63352 -0.51007,1.14359 -1.143593,1.14359 -0.633524,0 -1.143593,-0.51007 -1.143593,-1.14359 0,-0.63352 0.510069,-1.14359 1.143593,-1.14359 z"
       style="color:#000000;font-style:normal;font-variant:normal;font-weight:normal;font-stretch:normal;font-size:medium;line-height:normal;font-family:sans-serif;font-variant-ligatures:normal;font-variant-position:normal;font-variant-caps:normal;font-variant-numeric:normal;font-variant-alternates:normal;font-feature-settings:normal;text-indent:0;text-align:start;text-decoration:none;text-decoration-line:none;text-decoration-style:solid;text-decoration-color:#000000;letter-spacing:normal;word-spacing:normal;text-transform:none;writing-mode:lr-tb;direction:ltr;text-orientation:mixed;dominant-baseline:auto;baseline-shift:baseline;text-anchor:start;white-space:normal;shape-padding:0;clip-rule:nonzero;display:inline;overflow:visible;visibility:visible;isolation:auto;mix-blend-mode:normal;color-interpolation:sRGB;color-interpolation-filters:linearRGB;solid-color:#000000;solid-opacity:1;fill:#000000;fill-opacity:1;fill-rule:nonzero;stroke:none;stroke-width:0.99918;stroke-linecap:butt;stroke-linejoin:round;stroke-miterlimit:4;stroke-dasharray:none;stroke-dashoffset:0;stroke-opacity:1;color-rendering:auto;image-rendering:auto;shape-rendering:auto;text-rendering:auto;enable-background:accumulate"
       inkscape:connector-curvature="0" />
    <path
       id="path531"
       d="m 44.149078,285.11256 c -0.776623,0 -1.409001,0.63239 -1.409001,1.40901 0,0.77662 0.632378,1.40901 1.409001,1.40901 0.776622,0 1.409,-0.63239 1.409,-1.40901 0,-0.77662 -0.632378,-1.40901 -1.409,-1.40901 z m 0,0.26541 c 0.633522,0 1.143593,0.51007 1.143593,1.14359 0,0.63352 -0.510071,1.14359 -1.143593,1.14359 -0.633523,0 -1.143594,-0.51007 -1.143594,-1.14359 0,-0.63352 0.510071,-1.14359 1.143594,-1.14359 z"
       style="color:#000000;font-style:normal;font-variant:normal;font-weight:normal;font-stretch:normal;font-size:medium;line-height:normal;font-family:sans-serif;font-variant-ligatures:normal;font-variant-position:normal;font-variant-caps:normal;font-variant-numeric:normal;font-variant-alternates:normal;font-feature-settings:normal;text-indent:0;text-align:start;text-decoration:none;text-decoration-line:none;text-decoration-style:solid;text-decoration-color:#000000;letter-spacing:normal;word-spacing:normal;text-transform:none;writing-mode:lr-tb;direction:ltr;text-orientation:mixed;dominant-baseline:auto;baseline-shift:baseline;text-anchor:start;white-space:normal;shape-padding:0;clip-rule:nonzero;display:inline;overflow:visible;visibility:visible;isolation:auto;mix-blend-mode:normal;color-interpolation:sRGB;color-interpolation-filters:linearRGB;solid-color:#000000;solid-opacity:1;fill:#000000;fill-opacity:1;fill-rule:nonzero;stroke:none;stroke-width:0.99918;stroke-linecap:butt;stroke-linejoin:round;stroke-miterlimit:4;stroke-dasharray:none;stroke-dashoffset:0;stroke-opacity:1;color-rendering:auto;image-rendering:auto;shape-rendering:auto;text-rendering:auto;enable-background:accumulate"
       inkscape:connector-curvature="0" />
    <path
       id="path528"
       d="m 48.60831,285.11256 c -0.776622,0 -1.409,0.63239 -1.409,1.40901 0,0.77662 0.632378,1.40901 1.409,1.40901 0.776622,0 1.409001,-0.63239 1.409001,-1.40901 0,-0.77662 -0.632379,-1.40901 -1.409001,-1.40901 z m 0,0.26541 c 0.633524,0 1.143593,0.51007 1.143593,1.14359 0,0.63352 -0.510069,1.14359 -1.143593,1.14359 -0.633523,0 -1.145544,-0.51007 -1.145544,-1.14359 0,-0.63352 0.512021,-1.14359 1.145544,-1.14359 z"
       style="color:#000000;font-style:normal;font-variant:normal;font-weight:normal;font-stretch:normal;font-size:medium;line-height:normal;font-family:sans-serif;font-variant-ligatures:normal;font-variant-position:normal;font-variant-caps:normal;font-variant-numeric:normal;font-variant-alternates:normal;font-feature-settings:normal;text-indent:0;text-align:start;text-decoration:none;text-decoration-line:none;text-decoration-style:solid;text-decoration-color:#000000;letter-spacing:normal;word-spacing:normal;text-transform:none;writing-mode:lr-tb;direction:ltr;text-orientation:mixed;dominant-baseline:auto;baseline-shift:baseline;text-anchor:start;white-space:normal;shape-padding:0;clip-rule:nonzero;display:inline;overflow:visible;visibility:visible;isolation:auto;mix-blend-mode:normal;color-interpolation:sRGB;color-interpolation-filters:linearRGB;solid-color:#000000;solid-opacity:1;fill:#000000;fill-opacity:1;fill-rule:nonzero;stroke:none;stroke-width:0.99918;stroke-linecap:butt;stroke-linejoin:round;stroke-miterlimit:4;stroke-dasharray:none;stroke-dashoffset:0;stroke-opacity:1;color-rendering:auto;image-rendering:auto;shape-rendering:auto;text-rendering:auto;enable-background:accumulate"
       inkscape:connector-curvature="0" />
    <g
       transform="matrix(0.13446312,0,0,0.13446312,38.84521,285.64684)"
       style="fill:#000000;fill-opacity:1;stroke:none"
       id="use34459">
      <title
         id="title1064">Exit To App</title>
      <path
         id="path525"
         d="M 5.3366458,8.2470625 6.0854167,8.9958333 8.73125,6.35 6.0854167,3.7041667 5.3366458,4.4529375 6.7045417,5.8208333 H 1.5875 V 6.8791667 H 6.7045417 Z M 10.054167,1.5875 H 2.6458333 C 2.0611042,1.5875 1.5875,2.0611042 1.5875,2.6458333 V 4.7625 H 2.6458333 V 2.6458333 H 10.054167 V 10.054167 H 2.6458333 V 7.9375 H 1.5875 v 2.116667 c 0,0.584729 0.4736042,1.058333 1.0583333,1.058333 h 7.4083337 c 0.584729,0 1.058333,-0.473604 1.058333,-1.058333 V 2.6458333 C 11.1125,2.0611042 10.638896,1.5875 10.054167,1.5875 Z"
         inkscape:connector-curvature="0"
         style="fill:#000000;fill-opacity:1;stroke:none;stroke-width:0.264583" />
    </g>
    <g
       transform="matrix(0.1479743,0,0,0.1479743,43.209212,285.53848)"
       style="fill:#000000;fill-opacity:1;stroke:none"
       id="use34497">
      <title
         id="title1070">Lock Outline</title>
      <path
         id="path522"
         d="M 9.525,4.2333333 H 8.9958333 V 3.175 C 8.9958333,1.7145 7.8105,0.52916667 6.35,0.52916667 4.8895,0.52916667 3.7041667,1.7145 3.7041667,3.175 V 4.2333333 H 3.175 c -0.5847292,0 -1.0583333,0.4736042 -1.0583333,1.0583334 v 5.2916663 c 0,0.584729 0.4736041,1.058334 1.0583333,1.058334 h 6.35 c 0.584729,0 1.058333,-0.473605 1.058333,-1.058334 V 5.2916667 c 0,-0.5847292 -0.473604,-1.0583334 -1.058333,-1.0583334 z M 6.35,1.5345833 c 0.904875,0 1.6404167,0.7355417 1.6404167,1.6404167 V 4.2333333 H 4.7625 V 3.175 H 4.7095833 C 4.7095833,2.270125 5.445125,1.5345833 6.35,1.5345833 Z M 9.525,10.583333 H 3.175 V 5.2916667 h 6.35 z M 6.35,8.9958333 c 0.5847292,0 1.0583333,-0.4736041 1.0583333,-1.0583333 0,-0.5847292 -0.4736041,-1.0583333 -1.0583333,-1.0583333 -0.5847292,0 -1.0583333,0.4736041 -1.0583333,1.0583333 0,0.5847292 0.4736041,1.0583333 1.0583333,1.0583333 z"
         inkscape:connector-curvature="0"
         style="fill:#000000;fill-opacity:1;stroke:none;stroke-width:0.264583" />
    </g>
    <path
       id="path519"
       d="m 48.540746,285.67367 0.133841,-0.0223 v 0.73612 h -0.133841 z"
       style="color:#000000;display:inline;overflow:visible;visibility:visible;fill:#000000;fill-opacity:1;stroke:none;stroke-width:0.200762;marker:none;enable-background:accumulate"
       inkscape:connector-curvature="0" />
    <path
       id="path516"
       d="m 48.239534,285.8838 c -0.28826,0.16643 -0.428986,0.5066 -0.342838,0.82812 0.08615,0.3215 0.378181,0.54554 0.711033,0.54554 0.332853,0 0.624884,-0.22404 0.711033,-0.54554 0.08615,-0.32152 -0.05474,-0.66169 -0.343002,-0.82812 l -0.06701,0.11593 c 0.236357,0.13646 0.351395,0.41381 0.280758,0.67743 -0.07064,0.26363 -0.308848,0.44642 -0.58177,0.44642 -0.272921,0 -0.511132,-0.18279 -0.581769,-0.44642 -0.07064,-0.26362 0.04423,-0.54097 0.280593,-0.67743 z"
       style="color:#000000;font-style:normal;font-variant:normal;font-weight:normal;font-stretch:normal;font-size:medium;line-height:normal;font-family:sans-serif;font-variant-ligatures:normal;font-variant-position:normal;font-variant-caps:normal;font-variant-numeric:normal;font-variant-alternates:normal;font-feature-settings:normal;text-indent:0;text-align:start;text-decoration:none;text-decoration-line:none;text-decoration-style:solid;text-decoration-color:#000000;letter-spacing:normal;word-spacing:normal;text-transform:none;writing-mode:lr-tb;direction:ltr;text-orientation:mixed;dominant-baseline:auto;baseline-shift:baseline;text-anchor:start;white-space:normal;shape-padding:0;clip-rule:nonzero;display:inline;overflow:visible;visibility:visible;isolation:auto;mix-blend-mode:normal;color-interpolation:sRGB;color-interpolation-filters:linearRGB;solid-color:#000000;solid-opacity:1;fill:#000000;fill-opacity:1;fill-rule:nonzero;stroke:none;stroke-width:0.0843095;stroke-linecap:butt;stroke-linejoin:round;stroke-miterlimit:4;stroke-dasharray:none;stroke-dashoffset:0;stroke-opacity:1;marker:none;color-rendering:auto;image-rendering:auto;shape-rendering:auto;text-rendering:auto;enable-background:accumulate"
       inkscape:connector-curvature="0" />
    <g
       transform="matrix(0.52283252,0,0,0.53955023,16.309744,284.87282)"
       style="fill:#000000;fill-opacity:1;stroke:none"
       id="use31418">
      <title
         id="title1370">Edit Find</title>
      <path
         style="fill:#000000;fill-opacity:1;stroke:none;stroke-width:0.264583"
         inkscape:connector-curvature="0"
         d="m 1.7216437,0.27172708 c -0.80115828,0 -1.45785412,0.65616667 -1.45785412,1.45626662 0,0.8008938 0.65669584,1.4567959 1.45785412,1.4567959 0.8016875,0 1.4578542,-0.6561667 1.4578542,-1.4565313 0,-0.80009997 -0.6561667,-1.45600205 -1.4578542,-1.45600205 z m 0,0.5318125 c 0.5154084,0 0.9260417,0.41010412 0.9260417,0.92445412 0,0.5148792 -0.4106333,0.925248 -0.9260417,0.925248 -0.5151437,0 -0.92604162,-0.4101042 -0.92604162,-0.9249834 0,-0.51435 0.41089792,-0.92445413 0.92604162,-0.92445413 z"
         id="path6038" />
      <path
         style="fill:#000000;fill-opacity:1;stroke:none;stroke-width:0.264583"
         inkscape:connector-curvature="0"
         d="M 2.5960917,2.3891875 A 0.26458333,0.26458333 0 0 0 2.4638,2.8442708 L 3.5221333,3.9026042 A 0.26614947,0.26614947 0 1 0 3.8944021,3.5221333 L 2.8360687,2.4638 A 0.26458333,0.26458333 0 0 0 2.5958271,2.3897167 Z"
         id="path6035" />
    </g>
  </g>
</svg>
