<svg xmlns="http://www.w3.org/2000/svg" width="496" height="496"><path fill="#474747" d="M248 16.475A231.526 231.526 0 0 0 16.475 248 231.526 231.526 0 0 0 248 479.526 231.526 231.526 0 0 0 479.526 248 231.526 231.526 0 0 0 248 16.475m25.097 58.05c-.41.09-.921.105-1.357.17.457-.035.9-.076 1.357-.113-4.396.97-10.4.28-14.527 1.752l-2.43-.339c5.606-.698 11.248-1.003 16.957-1.47m-15.714 4.635c5.44.152 7.937.427 8.648.735.713.308-.357.69-2.148 1.074l-.17.283-2.147.17 2.318-.453c.543-.762-3.242-1.185-6.5-1.752.176.005.111-.006.282 0-.14-.024-.144-.032-.283-.056m-9.892 8.253c-2.677 1.493-5.347 2.652-7.857 4.409 10.193-2.428 9.707 1.036 20.123-.34-3.655.528-8.054 1.941-7.348 2.488 11.643 1.346 13.42-3.586 24.193 0l-.679-3.165c14.96 5.391 18.06 4.438 34.31 13.057 5.731.278 6.299-3.505 14.923 0 1.534 2.657-.304 3.148 10.288 9.44 1.176-.471-2.143-3.444-4.748-5.823 21.294 11.365 44.459 35.577 51.55 61.5-6.617-12.163-.718 6.216-2.995 5.256 2.95 7.933 5.4 16.126 6.896 24.588-1.963-6.937-6.265-23.673-13.736-34.48-.613 6.973-9.627-4.843-4.692 10.514 3.754 5.443.79-5.485 5.427 4.183.074 4.595 1.806 9.164 2.826 15.148-1.585-.257-3.536-6.634-4.691-4.86 1.604 7.528 4.254 11.46 5.256 12.04-.512 1.26-1.883-1.166-1.978 3.956.62 11.788 3.3 6.788 4.579 7.348-1.294 5.805-6.473 12.625-3.9 22.61-.737-3.028-2.191-6.064-3.279-8.931-1.01 8.527 1.91 10.19-2.035 20.519 2.843-9.31 2.511-17.726-.169-13.68 1.19 13.239-10.484 23.39-9.213 31.767l-3.393-4.635c-9.194 13.305-.192 7.328-6.443 17.41 2.296-3.96-1.236-1.618 1.752-6.105-1.985.113-8.86 8.394-15.149 13.284-24.698 19.765-54.143 22.343-82.696 11.7-1.11.906 5.085 5.79 9.666 8.14 10.873 4.005 23.157 4.163 32.841 3.787-20.927 8.74-60.868-8.861-73.934-32.22 2.949.643 13.102 16.435 20.688 18.993-4.483-3.585-7.977-8.14-11.192-12.83 6.057 6.945 13.44 12.635 21.48 16.391-.51-1.948 2.215-2.357-1.583-4.917-24.204-18.522-38.546-34.28-33.576-70.713 3.687-2.781 4.705-17.969 13.17-23.288 5.157-11.388 20.606-21.889 37.137-22.158 16.866-.917 31.107 9.014 38.267 18.37-13.023-12.128-34.328-15.822-52.511-6.839-18.589 8.355-29.643 28.829-28.037 49.177.69-1.007 1.31-.374 1.64-2.883-.568 39.553 42.731 68.5 73.877 53.868l.34.848c12.638-3.447 10.997-6.266 19.275-11.927-.644 1.326-5.536 4.682-2.6 4.748 4.014-1.067 16.545-12.724 22.722-18.2 2.83-6.096-1.522-3.3 2.43-10.966l4.805-2.374c2.689-7.75 5.707-12.122 5.37-21.14l-2.826 5.878c4.154-12.534 1.734-26.181 2.317-37.985l-1.13-.282c-1.042-29.688-26.754-61.274-49.629-71.956-19.728-9.088-50.077-10.64-64.099-3.788 1.93-1.704 9.61-2.416 7.292-3.73-21.96 2.176-17.02 7.637-33.858 11.927-4.614 4.453 13.463-3.564 3.73 2.204-9.03 2.489-13.24-1.556-26.623 12.266 1.192 1.919 8.52-5.716 2.43 1.922-12.577-1.554-39.737 28.74-45.502 38.776l2.996.508c-4.937 12.381-11.445 20.283-12.322 27.698-1.282 18.232-7.666 51.5 1.187 61.725l-.848 8.535c1.21 2.422 2.11 4.898 3.617 7.179l-1.978.113c9.313 29.34 10.022.557 22.327 31.032-1.788-.608-3.562-1.247-6.16-4.748-.316 2.662 3.782 10.677 8.647 16.957l-2.091 2.374c2.712 4.92 5.24 5.98 7.122 7.687-10.123-5.527 9.376 18.158 11.135 21.197l1.583-2.77c-.228 3.994 2.812 9.104 8.592 16.223l4.861-.169c1.991 3.936 9.244 11.014 13.623 11.362l-2.94 3.787c11.047 3.501 5.363 4.635 18.936 9.439l-2.77-4.861c6.923 5.99 9.11 11.225 18.88 15.827 13.55 4.717 15.32 2.874 29.223 6.84-11.788-.318-25.616-.203-34.932-3.562-63.572-17.162-121.764-91.644-117.515-168.33-.976-15.524 1.57-34.913-1.018-38.777 3.632-11.816 7.811-26.213 16.28-43.354-.614-1.15 1.405 3.37 5.708-3.957 2.61-5.722 4.742-12.07 8.027-17.636l1.696-.339c1.693-9.831 22.953-24.922 29.28-32.502l.452 2.883c13.807-12.928 38.431-21.58 52.285-27.753-3.638 4.022 8.127-.39 16.618-.905m-133.737 64.212c-.044 2.67 3.42-.666 3.278 1.64-.047.767-.526 2.186-1.64 4.634-6.184 4.238-3.492 3.399-2.147-.847v-.057c.446-1.434.747-3.22.509-5.37m-6.783 27.302c-.733 3.325-1.08 6.756-2.996 12.492.556-4.492-2.286-5.89 2.996-12.492m217.45 39.906c.365.015.727.429.905 1.526.182 1.128.186 2.968 0 5.653-.54 2.126-1.03 1.463-1.526.226v-.056c-.505-1.28-1.015-3.157-1.583-3.448.483-2.024 1.453-3.842 2.205-3.9zm66.756 18.088c-1.65 12.242-5.511 24.34-11.53 35.385.641-1.236.992-2.587 1.582-3.844-.61 1.24-.976 2.57-1.64 3.787 2.721-5.235 5.008-10.666 6.784-16.222a104.6 104.6 0 0 0 3.9-16.901zm-70.712 4.013c-.023.134-.088.263-.115.396.033-.139.138-.255.169-.396-.926 5.548-3.589 10.922-7.235 15.827h-.057v-.056c.13-1.98-2.3-1.6-3.335-2.487v-.057c-.525-.451-.68-1.203.06-2.826.738-1.622 2.36-4.082 5.425-7.857-.803 3.193-6.77 10.3-4.917 10.683.618.128 2.068-.505 4.917-2.26 2.084-3.61 4.249-7.016 5.088-10.967m-24.871 23.006a80 80 0 0 1-5.935 5.03c-5.976-.9-11.58-2.8-11.418-3.73.054-.31.736-.49 2.26-.509 5.089.452 10.141.396 15.093-.791m-76.987.791c1.415 2.758 2.672 5.503 4.805 7.8l1.865 5.427c-1.28-2.115-2.609-4.215-3.787-6.387-1.18-2.172-2.209-4.422-2.883-6.84m-4.691 8.196c5.038 9.51 7.79 12.424 11.474 19.445-2.547-2.066-4.682-4.563-6.613-7.179v-.056c-1.938-2.628-3.702-5.361-5.71-8.027z" style="stroke-width:.933571"/></svg>