<svg xmlns="http://www.w3.org/2000/svg" width="496" height="496"><path d="M409.273 128.889 297.182 323.014l51.69-.135 30.69-52.91 85.397.27 13.057-22.673-12.786-22.168-59.996-.158 30.21-51.99Zm-250.46-80.303-26.163.027-12.804 22.158 29.861 52.036-60.13-.166-25.333 44.845 224.162.01-25.96-44.695-61.169-.125zm-.446 204.338-25.728 44.832 30.476 53.033-42.931 73.82 13.105 22.645 25.592.01 30.133-51.877 29.922 52.156 51.503-.482zM277.32 48.457l-51.504.482L337.89 243.076l25.726-44.832-30.474-53.033 42.931-73.82-13.107-22.645-25.59-.01-30.135 51.877zm-69.902 279.68 25.96 44.697 61.167.125 42.465 74.09 26.164-.03 12.805-22.156-29.862-52.035 60.13.166 25.333-44.846zm-8.6-155.18-51.69.135-30.69 52.91-85.397-.27-13.057 22.672 12.786 22.168 59.996.157-30.21 51.992 26.17 44.361z" style="display:inline;overflow:visible;fill:#474747;fill-rule:evenodd;stroke-width:3.2;stroke-linejoin:round"/></svg>