<svg xmlns="http://www.w3.org/2000/svg" width="824.2" height="794.2" viewBox="0 0 218.07 210.132"><g style="fill:#ccc;fill-opacity:1"><path d="M105.357 141.843h-.053l-40.322 14.393v22.225l40.322 24.633.027-.026.026.026 40.323-24.633v-22.225z" class="cls-3"/><path d="m96.494 129.963 1.058-22.7-26.38-27.914h68.343l-26.406 27.913 1.059 22.701 52.493 20.77 18.52-17.568-43.073-34.608 50.403 27.65 5.106-4.843L168.25 61.94l-62.92-22.464-62.917 22.463-29.369 59.425 5.133 4.842 50.377-27.649-43.048 34.608 18.52 17.568z" class="cls-3"/><path d="M105.33 141.843h-.026l-40.322 14.393v22.225l40.322 24.607h.027zM42.413 61.939l-29.369 59.425 5.133 4.842 50.377-27.649-43.048 34.608 18.52 17.568 52.468-20.77 1.058-22.7-26.38-27.914h34.159V39.476Z" class="cls-4"/><g class="cls-5" style="opacity:.5;fill:#ccc;fill-opacity:1"><path d="M65.167 25.982 62.336 41.09l19.367-16.06L0 0l32.12 25.982z" class="cls-6"/><path d="M61.86 0H0l81.703 25.03z" class="cls-7"/><path d="m145.52 25.982 2.832 15.108-19.368-16.06L210.688 0l-32.12 25.982z" class="cls-6"/><path d="M148.828 0h61.86l-81.704 25.03z" class="cls-7"/></g><path d="m112.739 210.106.026.026 40.323-24.633v-22.225l-7.408-2.619v17.806l-40.323 24.633-.026-.026-.027.026v-.026L72.39 182.986v2.513l40.296 24.607.026.026zM68.554 98.557l-45.8 25.136-2.302 4.71 5.054 4.762zm98.107 52.176-45.297-17.912.212 4.207 52.467 20.743 19.156-18.15-8.017-6.456zm-24.553-52.176 11.694 9.393 46.09 25.294 5.134-4.842-29.37-59.425-4.762-1.693 26.723 54.08-5.106 4.842zM81.703 25.03l-9.525 7.884-2.857 15.214 18.547-15.373zm-49.583.952 8.652 7.038h23.072l1.323-7.038zm104.696 5.556 18.706 15.478-2.62-13.996h33.047l32.12-25.982h-16.086l-23.416 18.944h-33.046l2.83 15.108zm-40.322 98.425-52.467 20.77 7.382 7.038 52.493-20.743 1.058-21.934-7.408-7.832zm43.021-50.614H71.173l6.667 7.064v-.027h55.007Z" class="cls-8"/></g></svg>