<svg xmlns="http://www.w3.org/2000/svg" width="496" height="496"><path d="M178.156 26.102c-51.676 0-95.004 16.766-95.004 68.27 0 24.008 9.17 48.542 24.123 67.967 5.879 6.107 5.514 9.917 3.711 17.025-3.203 11.614-7.932 25.48-12.277 35.666-30.107 28.98-36.713 80.294-9.731 113.582 10.65 17.114 6.86 42.07 21.318 59.035 14.418 20.283 36.288 38.019 61.861 40.112 17.578 24.4 46.897 39.532 76.599 40.241 29.701-.71 59.021-15.841 76.598-40.241 25.574-2.093 47.444-19.829 61.862-40.112 14.458-16.965 10.667-41.921 21.318-59.035 26.982-33.288 20.375-84.602-9.731-113.582-4.346-10.187-9.075-24.052-12.278-35.666-1.802-7.108-2.167-10.918 3.712-17.025 14.954-19.425 24.123-43.959 24.123-67.967 0-51.504-43.328-68.27-95.004-68.27-19.492 0-48.505 17.628-70.6 17.628s-51.108-17.628-70.6-17.628m5.869 55.237c6.788 2.522 10.279 5.784 13.96 8.998 1.248-1.69 3.185-2.937.863-7.013 4.82 2.786 8.449 6.075 11.134 9.753 2.982-1.904 1.774-4.505 1.79-6.905 5.01 4.087 8.193 8.42 12.084 12.666.784-.572 1.465-2.497 2.071-5.567 11.951 11.627 28.834 40.907 4.337 52.519-20.836-17.247-45.726-29.782-73.319-39.184 35.468 18.338 56.068 33.173 67.364 45.808-5.785 23.251-35.96 24.322-46.995 23.67 2.26-1.055 4.143-2.331 4.812-4.272-2.769-1.974-12.587-.195-19.441-4.057 2.633-.547 3.882-1.094 5.114-3.042-6.476-2.071-13.462-3.84-17.564-7.272 2.214.022 4.294.48 7.185-1.532-5.8-3.134-12-5.608-16.808-10.4 2.999-.077 6.223-.033 7.163-1.143-5.309-3.299-9.778-6.971-13.485-10.983 4.196.508 5.976.088 6.99-.647-4.012-4.123-9.1-7.608-11.522-12.688 3.116 1.077 5.972 1.498 8.027-.088-1.364-3.085-7.21-4.917-10.573-12.127 3.28.32 6.749.718 7.444 0-1.525-6.223-4.126-9.71-6.689-13.334 7.021-.11 17.658.01 17.176-.582l-4.337-4.445c6.857-1.852 13.872.303 18.966 1.898 2.287-1.81-.036-4.093-2.827-6.43 5.828.78 11.078 2.12 15.838 3.97 2.543-2.302-1.64-4.601-3.668-6.904 9.004 1.713 12.823 4.106 16.614 6.516 2.75-2.644.152-4.883-1.704-7.185zm134.015 0c-1.856 2.302-4.434 4.541-1.683 7.185 3.79-2.41 7.589-4.803 16.593-6.516-2.03 2.303-6.212 4.602-3.669 6.905 4.76-1.851 10.01-3.19 15.838-3.97-2.79 2.336-5.114 4.62-2.827 6.43 5.094-1.596 12.11-3.751 18.967-1.9l-4.337 4.445c-.482.595 10.154.478 17.175.583-2.562 3.623-5.163 7.11-6.689 13.334.696.718 4.164.32 7.444 0-3.363 7.21-9.209 9.041-10.573 12.127 2.055 1.584 4.911 1.163 8.027.088-2.422 5.08-7.488 8.565-11.5 12.687 1.014.734 2.772 1.156 6.969.648-3.707 4.012-8.177 7.684-13.486 10.982.94 1.106 4.165 1.07 7.164 1.144-4.809 4.792-10.987 7.265-16.787 10.4 2.891 2.011 4.95 1.56 7.163 1.532-4.102 3.431-11.066 5.2-17.542 7.271 1.232 1.95 2.46 2.496 5.093 3.043-6.854 3.862-16.673 2.083-19.441 4.056.668 1.941 2.552 3.218 4.811 4.273-11.034.651-41.21-.42-46.995-23.67 11.296-12.635 31.897-27.47 67.364-45.808-27.592 9.402-52.482 21.936-73.319 39.183-24.496-11.612-7.614-40.89 4.337-52.518.606 3.07 1.31 4.994 2.093 5.567 3.891-4.247 7.052-8.58 12.062-12.666.016 2.4-1.192 5 1.79 6.905 2.686-3.679 6.336-6.967 11.156-9.753-2.322 4.076-.407 5.323.841 7.012 3.682-3.213 7.172-6.475 13.96-8.997zm-67.558 95.78c17.37-.192 38.882 12.991 38.796 25.418-.077 10.969-15.092 19.848-38.645 19.679-23.064-.277-38.612-11.143-38.558-21.772.045-8.747 18.831-23.835 38.407-23.324m-59.1 7.401c3.883-.077 7.897.234 11.997.928 12.083 2.036-57.913 63.323-58.991 49.65-.962-31.21 19.814-50.07 46.994-50.577zM306 185.556c27.18.507 47.956 19.389 46.995 50.598-1.08 13.674-71.074-47.635-58.992-49.67 4.1-.694 8.114-1.001 11.997-.928m-11.565 38.083a45.047 38.138 56.427 0 1 29.56 80.634 45.047 38.138 56.427 1 1-49.562-75.218 45.047 38.138 56.427 0 1 20.002-5.416m-85.834 2.072a38.138 45.047 33.573 0 1 18.319 5.437 38.138 45.047 33.573 1 1-49.584 75.218 38.138 45.047 33.573 0 1 29.582-80.634 38.138 45.047 33.573 0 1 1.683-.022zm149.96 23.303c31.537 18.06 26.073 58.238 9.063 71.96-15.464 6.889-28.07-77.068-9.062-71.96m-219.61 1.035c19.007-5.108 6.4 78.87-9.063 71.981-17.01-13.722-22.474-53.92 9.062-71.981m113.797 54.05a42.484 39.288 0 0 1 41.233 39.27 42.485 39.289 0 0 1-84.97 0 42.484 39.288 0 0 1 43.737-39.27m92.652 14.63c3.318-.089 6.434.848 9.235 3.02 7.542 7.535 11.952 35.913-1.252 52.907-18.184 25.304-42.787 26.274-51.958 19.226-9.59-9.074-2.272-37.227 10.875-52.67 11.284-12.777 23.144-22.223 33.1-22.483m-190.72 6.02c10.696.46 23.504 8.932 33.962 21.102 12.151 14.681 17.693 40.492 7.552 48.095-9.593 5.805-32.895 3.402-49.455-20.455-11.167-20.018-9.718-40.384-1.877-46.369 2.932-1.79 6.252-2.527 9.818-2.373m97.01 70.32c17.068-.747 39.959 5.526 40.004 13.83.283 8.065-20.77 26.267-41.147 25.914-21.102.913-41.786-17.323-41.515-23.648-.315-9.274 25.698-16.522 42.658-16.097" style="fill:#ccc;stroke-width:11.0474577"/></svg>