<svg xmlns="http://www.w3.org/2000/svg" width="496" height="496" version="1"><path d="M248.065 3.543A245.385 245.386 0 0 0 2.694 248.916a245.385 245.386 0 0 0 245.37 245.373A245.385 245.386 0 0 0 493.44 248.916 245.385 245.386 0 0 0 248.065 3.543M193.608 64.92c21.918-.488 31.105 4.366 43.85 12.155 19.37 12.17 33.11 31.144 38.208 53.05 5.096 21.905 3.566 39-2.544 51.17v.938c-12.236 24.826-32.628 44.792-61.175 54.528l24.51 60.84c4.587 11.195 8.672 22.866 5.103 33.575s-19.904 14.168-31.628 2.486c-22.43-22.88-97.874-166.975-103.481-177.684-5.608-10.71-11.752-19.51-11.752-30.219.516-16.064 26.54-32.62 39.284-40.895 12.746-8.275 37.71-19.457 59.632-19.944Zm-21.557 44.522c-13.708 2.417-5.54 32.175-2.407 40.694 3.569 9.736 13.268 30.136 23.974 40.358 2.544 2.435 5.065 4.416 8.125 4.902 3.06.488 9.204-2.417 11.751-6.312 2.544-3.894 3.095-6.85 3.095-10.744a65.251 62.308 0 0 0-1.066-23.37c-4.59-15.09-14.251-29.682-26.997-39.417-2.544-1.946-5.631-4.4-9.2-5.372-2.923-.912-5.292-1.083-7.251-.74zm198.701 17.325a45.993 48.03 0 0 1 24.982 12.826c6.13 5.87 6.677 12.275 4.631 20.28-2.028 8.005-9.218 25.062-14.839 37.336l-14.303 28.271c-27.598 51.232-33.23 56.588-40.897 53.386-9.197-3.735-6.133-54.943 2.545-117.381 2.544-17.078 6.683-25.614 11.284-29.883 4.596-4.27 18.414-6.436 26.59-4.835zm-48.148 184.13c13.543-3.734 19.656 9.582 16.854 19.542-.928 3.735-3.3 7.057-7.048 9.132-3.737 2.074-12.594 2.056-17.73-1.678-5.134-3.734-6.1-9.927-4.7-14.907 1.409-4.98 6.088-10.427 12.624-12.087zm-177.412 60.706H351.01c10.961 0 19.742 6.881 19.742 15.378s-8.78 15.31-19.742 15.31H145.192c-10.961 0-19.811-6.814-19.811-15.31s8.85-15.378 19.81-15.378" style="fill:#ccc;stroke-width:30.6731472"/></svg>