<svg xmlns="http://www.w3.org/2000/svg" width="496" height="496"><path d="M248.305 17.39a230.3 230.3 0 0 0-147.764 53.955c9.35.729 18.684 1.58 28 2.654 7.325.88 14.663 1.618 21.907 3.014 7.572 1.68 15.319 2.462 22.895 4.138 17.434 3.226 34.679 7.509 51.527 13.067 4.668 1.012 8.842 3.356 13.314 4.948 9.567 3.826 18.887 8.353 27.484 14.057-1.953 13.673-2.88 28.647 3.868 41.248 3.695 7.389 10.02 13.452 17.746 16.463 11.2 4.828 23.702 3.229 35.535 3.824 10.742 1.943 20.826 6.344 30.992 10.165 4.037 1.569 7.987 3.308 12.033 4.858.051-1.325.114-2.638.18-3.958 4.546 5.333 10.621 9.236 17.093 11.83-.366-2.252-.803-4.482-1.215-6.725 3.147 2.955 6.108 6.12 9.311 9.02 2.932 2.401 6.182 4.37 9.469 6.251-.01-3.104-.555-6.158-.967-9.22 4.907 5.572 10.237 10.747 15.046 16.418 3.826.057 7.653.115 11.493.18.283.486.632.933.922 1.416v-.944c8.668 9.03-.243-.33 7.94 8.254.227.238.154.08-.158.854-1.19-.474-2.344-1.044-3.509-1.574 1.863 2.823 3.64 5.7 5.533 8.502.876 1.492 1.472 2.491 2.114 4.205.906 2.016-3.5.847-2.451 2.137 6.644 8.298 16.608 11.978 26.741 14.506-3.9 1.948-8.462 2.578-11.515 5.78-.301.332-.147.093-.36.315-.39.756-.61 1.28-1.957 3.441-4.04-3.653-7.56-7.84-11.807-11.268-5.737-4.673-12.127-7.366-18.87-10.39-3.54-1.644-7.524-3.393-9.379-7.04-1.381-3.568-1.682-7.431-2.024-11.2-13.046-6.378-26.636-11.587-40.146-16.869-16.51-6.045-33.323-12.23-51.009-13.494-17.12-1.667-34.538 5.29-46.488 17.498-14.722 14.586-20.986 36.155-15.339 56.16 4.37 18.416 18.415 31.855 36.233 38.256 7.717 2.88 15.996 3.96 24.2 3.913 33.949-.023 68.168 4.066 100.51 14.687 15.136 5.076 29.742 11.952 42.868 21.074a230.3 230.3 0 0 0 20.31-94.101A230.305 230.305 0 0 0 248.304 17.39M94.648 76.518a230.3 230.3 0 0 0-49.344 62.614c5.74-.996 11.49-1.985 17.228-2.946 63.084-10.199 127.135-13.133 190.968-12.595.726 3.938 1.634 7.857 2.52 11.763-26.471-2.655-53.115-3.507-79.708-3.329-44.275.98-88.445 4.642-132.403 10.008A230.3 230.3 0 0 0 18 247.695 230.305 230.305 0 0 0 248.305 478a230.3 230.3 0 0 0 193.488-105.841c-1.514-1.946-2.93-3.99-4.543-5.826-9.342-12.006-21.706-21.31-34.793-28.878-24.926-14.254-54.484-18.788-82.856-16.508-23.545 2.716-47.704-7.535-63.222-25.212-7.735-8.663-13.432-16.797-16.62-27.956-2.936-12.47-3.643-24.537-.248-36.997 2.782-12.18 9.28-23.28 17.633-32.477 5.867-6.218 12.572-11.797 20.332-15.496-7.291-12.334-12.436-25.828-16.486-39.539-2.154-7.323-3.088-14.92-4.858-22.333-.248-1.213-1.639-1.501-2.52-2.091-6.812-3.414-13.653-6.756-20.668-9.739-4.692-2.135-9.804-3.072-14.53-5.128-7.725-2.28-15.35-4.901-23.165-6.882-4.677-1.203-9.08-3.299-13.786-4.408-9.721-2.473-19.359-5.446-29.328-6.747-19.006-4.088-38.217-7.005-57.487-9.424m163.013 64.368c.796 3.798 1.898 7.52 3.059 11.223-60.556 3.1-119.797 19.201-175.698 42.193-8.597 3.404-16.875 7.535-25.37 11.178 7.53-4.739 15.544-8.605 23.481-12.595 22.35-11.182 45.548-20.66 69.182-28.766 34.187-11.318 69.435-19.856 105.346-23.233m71.206 11.808c14.895 3.61 29.09 9.776 42.665 16.823 16.108 8.424 31.011 19.155 43.992 31.892 2.566 2.688 5.862 4.83 7.669 8.164-1.606-.249-3.675.783-4.925-.585-4.753-5.975-10.25-11.341-16.126-16.216-16.249-13.364-34.72-23.841-53.956-32.251-6.298-2.97-12.979-4.975-19.32-7.827zM394.9 325.22c15.944 8.19 29.885 19.956 41.315 33.714 2.796 3.062 5.328 6.323 7.76 9.671a230 230 0 0 0 12.144-22.288c-8.132-4.83-16.777-8.778-25.684-11.965-11.543-4.032-23.38-7.568-35.535-9.132" style="fill:#ccc;stroke-width:11.51525402"/></svg>