<svg xmlns="http://www.w3.org/2000/svg" width="496" height="496"><path d="M46.38 24.407A22.33 22.33 0 0 0 24 46.787V449.62A22.33 22.33 0 0 0 46.38 472h402.834a22.33 22.33 0 0 0 22.38-22.38V46.786a22.33 22.33 0 0 0-22.38-22.38zm123.088 111.898 92.578 104.162 97.649-104.162 11.19 11.19-98.283 104.839 54.835 61.697 21.068-21.068 78.329 89.518H68.759l111.899-134.278 36.301 40.345 23.385-24.937-93.256-104.926ZM250.9 275.48l-23.32 24.87 53.786 59.753 23.691-23.691z" style="fill:#ccc;stroke-width:11.18983078"/></svg>