<svg xmlns="http://www.w3.org/2000/svg" width="496" height="496"><path d="M252.19 75.203c-13.908 0-18.04 17.897-34.957 17.897-16.163 0-28.206-13.428-43.242-13.428-14.66 0-24.04 9.686-31.182 29.815 0 0-20.306 56.653-22.937 64.854-.041.162-.82 1.857-1.041 2.387-.376 1.504-.764 3.007-.388 4.51 0 22.178 88.637 95.117 206.295 95.117 30.072 0 74.526-6.41 74.526-42.12a66 66 0 0 0-.103-3.857l-1.51-6.448-18.039-77.527c-4.135-17.147-7.509-24.985-37.957-39.895-23.306-11.929-74.428-31.305-89.464-31.305M118.832 176.728c-1.648 3.945-6.709 14.955-7.571 18.326zm-8.122 19.611C70.505 198.214 18 205.701 18 251.5 18 326.8 198.057 420 340.9 420c109.388 0 136.829-49.192 136.829-87.587 0-30.94-26.697-65.222-74.812-86.097l-.694-2.939 1.183 5.53c4.135 19.924 4.123 21.797 4.123 24.428 0 33.831-38.429 52.63-88.424 52.63-112.77 0-213.07-66.165-213.07-109.77 0-6.014 1.145-12.013 3.776-17.652z" style="fill:#ccc;stroke-width:10.44838238"/></svg>