<svg xmlns="http://www.w3.org/2000/svg" width="496" height="496"><path fill="#474747" d="M249.525 16.95A231.525 231.525 0 0 0 18 248.474 231.525 231.525 0 0 0 249.525 480a231.525 231.525 0 0 0 231.526-231.525A231.525 231.525 0 0 0 249.525 16.949m48.295 46.304c4.366-.058 8.549.26 13.272.655 25.832 2.162 53.252 18.875 71.154 45.062 24.15 35.326 22.984 80.37.813 107.33-11.137 13.543-14.724 14.547-22.225 20.597 4.718-9.05 6.12-12.52 5.54-19.648-.366-4.472-2.065-8.023-3.03-10.016-3.708-7.658-9.416-10.52-16.099-13.815-8.213-4.051-17.39-4.748-23.084-4.273-4.416.368-6.695.554-12.39 2.51-26.98 9.263-57.906.806-74.455-23.402-19.783-28.939-12.001-69.014 17.432-89.512 8.67-6.038 18.918-12 28.76-13.95 5.41-1.073 9.946-1.48 14.312-1.538M141.495 144.31c4.349-.093 8.667.2 12.91.927 17.056 2.919 19.662 5.523 28.534 8.999-10.043.391-13.688.882-19.467 4.883-3.625 2.512-5.814 5.698-7.032 7.507-4.677 6.95-4.264 13.279-3.753 20.643.629 9.051 4.593 17.27 7.823 21.931 2.505 3.615 3.807 5.471 8.298 9.406 21.27 18.636 29.38 49.4 17.003 75.517v.023c-14.819 31.214-52.761 44.212-84.81 28.986-9.441-4.486-19.592-10.382-26.137-17.885-7.193-8.246-10.455-14.756-14.47-23.265-10.98-23.268-10.329-55.039 3.075-83.295 15.82-33.354 47.586-53.704 78.026-54.377m186.17 138.915c31.298.713 57.698 25.342 60.323 57.7.825 10.167.786 21.627-2.396 30.818-3.498 10.1-7.439 16.037-12.73 23.582-14.466 20.63-41.953 35.593-72.713 38.052-41.496 3.319-78.768-19.282-90.553-50.804-5.92-15.836-4.968-19.273-6.376-28.466 5.29 8.296 7.5 11.11 13.77 14.04 3.934 1.839 7.734 2.138 9.88 2.284 8.247.562 13.472-2.87 19.513-6.896 7.424-4.947 12.51-12.315 14.9-17.319 1.853-3.88 2.787-5.884 3.934-11.599 5.433-27.07 27.704-48.96 56.14-51.234v.023a61 61 0 0 1 6.308-.18z"/></svg>