<svg xmlns="http://www.w3.org/2000/svg" width="496" height="496"><path d="M280.35 58.522c-11.503 1.615-222.493 266.51-222.493 266.51s15.212 4.404 49.796 9.502c11.2-8.883 168.762-279.643 173.302-275.78q-.12-.164-.395-.124zm0 0c34.585 49.826 180.113 242.563 80.975 282.733-46.315 21.707-257.304-12.746-254.277-7.115-15.136 25.338-27.168 45.732-27.168 45.732s162.707 7.47 288.332-9.81c179.356-24.566-36.93-258.786-87.786-311.316ZM478 248a230 230 0 0 1-230 230A230 230 0 0 1 18 248 230 230 0 0 1 248 18a230 230 0 0 1 230 230" style="fill:#ccc;fill-opacity:1;stroke-width:4.47289"/></svg>