<svg xmlns="http://www.w3.org/2000/svg" id="Layer_1" data-name="Layer 1" version="1.1" viewBox="0 0 767.407 738.314"><defs id="defs4"><style id="style2">.cls-1{fill:#e9500e}</style></defs><circle id="circle6" cx="109.027" cy="348.094" r="109.027" class="cls-1" style="fill:#ccc;fill-opacity:1"/><circle id="circle8" cx="563.084" cy="109.027" r="109.027" class="cls-1" style="fill:#ccc;fill-opacity:1"/><path id="path10" d="M492.482 1336.666a265.52 265.52 0 0 1-181.071-138.098 156.95 156.95 0 0 1-93.22 11.458A354.94 354.94 0 0 0 473.73 1424.19a359.2 359.2 0 0 0 77.42 7.967 156 156 0 0 1-31.923-91.154 271 271 0 0 1-26.744-4.337" class="cls-1" style="fill:#ccc;fill-opacity:1" transform="translate(-137.562 -707.98)"/><circle id="circle12" cx="538.52" cy="629.287" r="109.027" class="cls-1" style="fill:#ccc;fill-opacity:1"/><path id="path14" d="M827.798 1297.22a356.7 356.7 0 0 0 17.875-418.518 157.14 157.14 0 0 1-61.31 71.803 267.29 267.29 0 0 1-8.737 265.489 156.35 156.35 0 0 1 52.172 81.227" class="cls-1" style="fill:#ccc;fill-opacity:1" transform="translate(-137.562 -707.98)"/><path id="path16" d="M98.923 191.74q4.151-.229 8.306-.226a157.35 157.35 0 0 1 82.682 23.545 265.9 265.9 0 0 1 214.108-114.51 158.1 158.1 0 0 1 33.076-88.42C299.992 1.272 166.771 72.021 98.923 191.74" class="cls-1" style="fill:#ccc;fill-opacity:1"/></svg>