<svg xmlns="http://www.w3.org/2000/svg" width="496" height="496"><path fill="#474747" d="M247.933 17.872c-20.493 50.233-32.853 83.091-55.67 131.826 13.99 14.826 31.16 32.09 59.048 51.59-29.981-12.334-50.43-24.717-65.714-37.567-29.2 60.92-74.95 147.696-167.79 314.472 72.97-42.116 123.778-68.082 176.497-77.99a133.5 133.5 0 0 1-3.464-31.249l.08-2.337c1.159-46.74 31.743-84.002 60.036-84.065s55.807 46.155 54.65 92.894c-.218 8.796-1.21 17.255-2.944 25.103 52.143 10.198 103.496 36.098 175.478 77.644-14.194-26.124-26.863-49.675-38.96-72.104-19.058-14.767-38.934-33.986-79.48-54.793 27.87 7.24 47.823 15.593 63.376 24.93C300.073 147.257 290.116 116.83 247.93 17.86Z"/></svg>