<svg xmlns="http://www.w3.org/2000/svg" xml:space="preserve" width="1000" height="1000"><path d="M580 500c0 28.66-15.07 53.8-37.73 67.92C530.01 575.58 515.52 580 500 580c-44.18 0-80-35.82-80-80s35.82-80 80-80c15.52 0 30.01 4.42 42.27 12.08C564.93 446.2 580 471.34 580 500" style="fill:#fff"/><path d="M323.78 841.28c-1.1 1.89-2.24 3.739-3.45 5.56-1.29 1.97-2.64 3.9-4.06 5.79 1.21-2.09 2.49-4.13 3.83-6.13 1.18-1.78 2.41-3.52 3.68-5.22"/><path d="M323.78 841.28c-1.1 1.89-2.24 3.739-3.45 5.56a6 6 0 0 1-.23-.34c1.18-1.78 2.41-3.52 3.68-5.22"/><path d="M323.78 841.28c-1.1 1.89-2.24 3.739-3.45 5.56-1.29 1.97-2.64 3.9-4.06 5.79 1.21-2.09 2.49-4.13 3.83-6.13 1.18-1.78 2.41-3.52 3.68-5.22"/><path d="M900 500v280c0 .17 0 .33-.01.5C899.73 846.54 846.1 900 780 900h-15.57C705.51 892.36 660 841.99 660 781V534.29L780 500l-123.94-35.41C639.95 393.26 576.2 340 500 340c-88.37 0-160 71.63-160 160v80c0 44.18 35.82 80 80 80 66.27 0 120 53.73 120 120v133c0-24.6-7.4-47.47-20.1-66.5-21.51-32.25-58.22-53.5-99.9-53.5-39.38 0-74.34 18.97-96.22 48.28-1.27 1.7-2.5 3.439-3.68 5.22-1.34 2-2.62 4.04-3.83 6.13-18.93 25.42-47.71 43.09-80.7 47.37H220c-66.1 0-119.73-53.46-119.99-119.5-.01-.17-.01-.33-.01-.5V220c0-66.27 53.73-120 120-120 38.2 0 72.24 17.85 94.21 45.67C369.72 116.5 432.93 100 500 100c220.91 0 400 179.09 400 400" style="fill:#fff;fill-opacity:1"/><path fill="none" d="M540 915.67V913"/></svg>