<svg xmlns="http://www.w3.org/2000/svg" width="496" height="496" version="1"><path d="M247.781 5.588C114.741 5.588 6.876 113.44 6.876 246.493s107.866 240.905 240.905 240.905c133.04 0 240.905-107.853 240.905-240.905S380.821 5.588 247.781 5.588m1.13 45.405h.024c114.624 0 207.638 92.931 207.638 207.545 0 114.623-93.016 207.545-207.639 207.545-61.893 0-117.438-27.136-155.459-70.107 15.634-12.133 41.801-9.177 74.013-5.505 15.437 1.756 33.028 3.76 51.192 4.164 50.744.295 105.342-8.966 139.038-23.69 21.786-9.556 35.744-15.828 44.464-23.761 3.144-2.58 4.787-6.893 6.47-11.363l1.152-3.012c1.412-3.61 3.444-11.384 4.352-15.62.405-1.855.609-3.863-.705-4.894l-4.706.893c-14.786 8.867-51.732 25.756-86.34 26.444-42.88.896-129.322-43.174-138.332-47.829l-.894-1.058a26897 26897 0 0 0-17.832-42.323c62.22 40.968 113.789 63.642 153.318 67.166 43.953 3.906 78.24-20.094 92.903-30.348 2.862-1.953 5.056-3.48 5.953-3.812l.988-1.6c-2.446-15.453-25.519-90.212-42.888-108.171-4.818-4.926-8.64-9.703-16.421-14.28-62.852-36.63-212.075-58.697-219.073-59.71l-1.153.354-.447.987-.612 34.419c-5.12-1.695-21.014-6.89-43.758-13.128 29.68-36.72 75.163-69.307 154.754-69.307Zm54.862 109.842c1.059-.012 2.133-.036 3.2 0 35.209 1.265 62.864 30.924 61.66 66.108-.626 17.021-7.803 32.752-20.232 44.37-12.464 11.679-28.661 17.773-45.78 17.22-35.149-1.314-62.804-30.972-61.662-66.107.602-17.045 7.8-32.884 20.303-44.464 11.674-10.95 26.624-16.888 42.51-17.127m-1.694 18.82c-10.254.625-19.926 4.778-27.502 11.881-8.633 8.106-13.735 19.097-14.115 30.984-.81 24.562 18.42 45.225 42.958 46.134 11.924.369 23.242-3.8 31.948-11.88 8.682-8.143 13.724-19.239 14.092-31.078.823-24.599-18.48-45.18-43.029-46.04-1.486-.06-2.887-.084-4.352 0m11.716 22.28c10.906 0 19.691 5.927 19.691 13.221 0 7.259-8.785 13.222-19.691 13.222-10.942 0-19.785-5.976-19.785-13.222 0-7.295 8.843-13.221 19.785-13.221" style="fill:#ccc;stroke-width:12.04524803"/></svg>