<svg xmlns="http://www.w3.org/2000/svg" width="496" height="496"><path fill="#474747" d="M417.748 110.542a14.386 14.386 0 0 1-14.385 14.386 14.386 14.386 0 0 1-14.386-14.386 14.386 14.386 0 0 1 14.386-14.385 14.386 14.386 0 0 1 14.385 14.385m-.19.149a14.386 14.386 0 0 1-14.385 14.385 14.386 14.386 0 0 1-14.386-14.385 14.386 14.386 0 0 1 14.386-14.386 14.386 14.386 0 0 1 14.386 14.386m-24.524 96.567a27.94 27.94 0 0 1-27.938 27.938 27.94 27.94 0 0 1-27.938-27.938 27.94 27.94 0 0 1 27.938-27.938 27.94 27.94 0 0 1 27.938 27.938m-.384.289a27.94 27.94 0 0 1-27.938 27.938 27.94 27.94 0 0 1-27.938-27.938 27.94 27.94 0 0 1 27.938-27.938 27.94 27.94 0 0 1 27.938 27.938m86.875 85.458a36.8 36.8 0 0 1-36.8 36.8 36.8 36.8 0 0 1-36.8-36.8 36.8 36.8 0 0 1 36.8-36.8 36.8 36.8 0 0 1 36.8 36.8m-.493.38a36.8 36.8 0 0 1-36.8 36.8 36.8 36.8 0 0 1-36.802-36.8 36.8 36.8 0 0 1 36.801-36.8 36.8 36.8 0 0 1 36.8 36.8M165.253 319.57l-49.587 95.765 7.7 13.861 49.415-96.959zm6.85-157.308-155.628 81.79 106.9 2.613zm-53.287-95.466-12.947 23.353 129.056 71.569 54.134.544zM16.475 244.052l3.357 5.589 106.533 2.146-2.989-5.122h-.002zM118.808 66.796l.006.004.002-.004zm.008 0 170.238 95.462 54.587-94.552zm-.008 0L16.475 244.052l155.628-81.79-48.729 84.403h.002l48.729-84.403h116.947l-54.127-.544-129.056-71.569 12.945-23.35ZM16.475 244.052l106.892 185.152h221.557l55.979-96.959h-228.12l-.005-.006-49.411 96.957-7.701-13.861 49.587-95.765 7.438 12.515-46.357-80.298-106.502-2.146z"/></svg>