<svg xmlns="http://www.w3.org/2000/svg" width="496" height="496" version="1"><g style="fill:#ccc" transform="translate(-17.249 -5.746)scale(10.81219)"><path d="M24 4C12.954 4 4 12.954 4 24c0 4.38 1.407 8.43 3.795 11.725.115.158.24.292.36.437a20 20 0 0 1-.764-1.047c6.897.583 14.792.863 21.443-.103 6.134-.891 11.594-2.854 14.62-6.455a20 20 0 0 1-.86 2.756c.138-.333.278-.664.398-1.026A20 20 0 0 0 44 24c0-11.046-8.954-20-20-20m18.594 27.313-.014.039.002-.002zm-.014.039c-3.366 2.738-8.355 4.24-13.553 4.996-6.441.936-13.913.73-20.545.21 3.694 3.972 9.503 2.419 15.766 2.419 8.432 0 15.412-.673 18.332-7.625M8.482 36.559c-.113-.122-.219-.265-.328-.397a20 20 0 0 0 .29.395zm8.956-30.996c2.133 3.753 3.977 5.881 6.25 10 .226 2.625 1.153 16.247 1.25 17.5-.675-.056-4.267-.413-8.77-.881-2.455-.255-4.986-.547-7.04-.84l-3.253-.78c3.682-6.505 9.53-16.708 11.563-25m7.812 10.625s8.573 6.746 12.188 15c-4.398 2.168-8.453 1.89-10.938 1.875 1.765-4.532 1.762-10.67-1.25-16.876m5.938 3.75c1.554.427 3.321.967 5 1.562 3.043 1.08 5.87 2.563 7.5 4.063-.932 1.717-2.551 3.769-5 5 .262-2.57-.672-5.041-2.5-6.875-1.35-1.355-3.131-2.498-5-3.75" style="fill:#ccc"/><path d="M16.813 2.75c-3.01 9.831-7.459 19.187-12.5 28.125L4 31.5l.482.249c.423.196.98.328 1.733.479s1.681.3 2.723.45c2.084.297 4.624.588 7.09.844 4.929.512 9.556.886 9.556.886l.788.063-.06-.788S25.09 17.8 24.861 15.19l-.012-.141-.068-.125c-1.445-2.307-7.058-11.901-7.97-12.173m.625 2.813c2.133 3.753 3.977 5.882 6.25 10 .227 2.624 1.12 16.174 1.216 17.426-.675-.055-4.234-.341-8.738-.809-2.455-.255-4.984-.545-7.037-.838a51 51 0 0 1-2.649-.438c-.352-.07-.36-.275-.605-.341 3.682-6.506 9.531-16.709 11.563-25m10.042 12.019c3.14 2.1 5.811 5.34 7.755 7.291 1.943 1.95 2.854 3.87 2.115 6.556l-.344 1.255 1.224-.44c3.823-1.377 5.64-4.043 6.75-6.224l.313-.625-.625-.625c-1.864-1.962-4.742-3.263-8.082-4.447s-6.977-2.227-9.106-2.74m3.73 2.485c1.554.427 3.247.933 4.925 1.528 3.044 1.079 5.926 2.467 7.555 3.967-.932 1.717-2.352 3.697-4.802 4.928.263-2.57-.87-4.735-2.697-6.57-1.35-1.353-3.112-2.6-4.98-3.853" style="fill:#ccc;fill-rule:evenodd"/><circle cx="24.024" cy="23.977" r="20.024" fill="none" style="fill:#ccc;fill-opacity:0"/><path d="M42.71 30.572c-4.037 2.865-8.806 4.603-13.683 5.352-6.796.959-13.719.72-20.539.199-.05.118-.082.234-.119.35a20 20 0 0 0 15.434 7.517c.172 0 .348.002.517-.002a20 20 0 0 0 .578-.02q.41-.019.803-.052a20 20 0 0 0 1.479-.18c.094-.015.197-.026.289-.043a20 20 0 0 0 15.326-12.93c-.03-.063-.051-.127-.084-.19" style="fill:#ccc"/></g></svg>