<svg xmlns="http://www.w3.org/2000/svg" width="496" height="496"><path d="M248.122 22.133c-127.117 0-230.039 101.033-230.264 225.766h-.04v174.766h.04c.061 28.288 23.454 51.202 52.304 51.202h177.982c127.14-.08 230.038-101.1 230.038-225.766 0-124.733-103.034-225.765-230.263-225.765Zm46.772 92.964c38.654 0 75.15 29.03 75.15 69.079 0 3.715.023 7.432-.597 11.644-1.07 10.654-10.998 18.31-21.807 16.808-10.81-1.52-18.145-11.587-16.146-22.12.182-1.202.249-3.09.249-6.334 0-22.712-18.945-31.482-36.856-31.482-17.906 0-34.044 14.77-34.067 31.482.31 19.323 0 38.497 0 57.79l33.235-.243c25.95-.527 26.242 37.8.3 37.62l-33.528.243c-.08 15.543.121 12.732.041 20.56 0 0 .281 19.01-.297 33.415-4.012 42.32-40.746 76.14-84.887 76.14-46.795 0-85.337-37.508-85.337-83.516 1.405-47.311 39.869-84.527 88.328-84.1l27.028-.2v37.553l-27.028.244h-.142c-26.624.772-49.448 18.51-49.875 46.48 0 25.477 20.989 45.895 47.042 45.895 26.017 0 46.84-18.568 46.84-45.85l-.04-142.228c.022-2.64.1-4.738.396-7.65 4.392-34.787 36.114-61.299 72.025-61.299z" style="fill:#ccc;fill-opacity:1;stroke-width:2.24866"/></svg>