<svg xmlns="http://www.w3.org/2000/svg" width="496" height="496" version="1"><g style="fill:#705db3"><path d="M3208.587-6664.187c-111.445 2.84-221.076 13.937-327.002 33.309C1608.076-6398.035 711.96-5296.372 636.075-4570.502c-37.225 356.1 154.835 622.297 260.705 740.018 286.224 317.914 856.578 561.13 1223.41 762.339-530.195 452.017-773.255 672.594-1012.775 924.079-358.36 376.322-610.765 790.517-611.533 1087.191-.27 95.578-15.536 400.251 108.77 640.777 46.75 90.494 179.607 392.392 580.456 618.456 256.048 144.485 620.772 197.598 977.9 146.63C3268.251 191.274 4748.613-746.348 5804.926-1619.357c673.155-556.35 1165.184-1095.408 1307.32-1360.879 114.685-214.202 127.643-598.49 61.118-839.603-189.009-684.972-1725.286-2088.035-2981.352-2652.734-300.256-135.001-649.087-200.135-983.425-191.614m922.997 1089.251a793.684 659.134 25.483 0 1 431.63 94.778 793.684 659.134 25.483 0 1 420.925 939.188 793.684 659.134 25.483 0 1-1004.834 242.437 793.684 659.134 25.483 0 1-421.27-939.188 793.684 659.134 25.483 0 1 573.549-337.214" style="fill:#ccc;fill-rule:evenodd;stroke-width:11.29758358" transform="matrix(.0639 0 0 .06426 3.358 450.36)"/></g></svg>