<svg xmlns="http://www.w3.org/2000/svg" width="64" height="64"><g style="fill:#ccc"><path d="M-19.916 34.267a145.24 145.24 0 0 0-145.233 145.241A145.24 145.24 0 0 0-19.916 324.75 145.24 145.24 0 0 0 125.33 179.508 145.24 145.24 0 0 0-19.916 34.267m-11.62 42.459c34.05 0 58.055 12.197 77.41 39.463V81.385h26.529V277.62h-26.53v-34.44c-20.787 27.982-42.282 39.11-75.615 39.11-60.213 0-105.016-43.765-105.016-102.243 0-58.836 44.443-103.322 103.223-103.322m.716 24.396c-42.651 0-77.057 34.439-77.057 77.13 0 44.846 34.044 79.643 78.487 79.643 42.293 0 75.264-34.804 75.264-79.29 0-43.768-33.685-77.483-76.694-77.483" style="fill:#ccc;fill-opacity:1;stroke:none;stroke-width:11.2693;stroke-miterlimit:4;stroke-dasharray:none;stroke-dashoffset:0;stroke-opacity:1" transform="matrix(.19623 0 0 .19604 35.907 -3.19)"/></g></svg>