<svg xmlns="http://www.w3.org/2000/svg" width="64" height="64"><path d="M32 3.5A28.5 28.5 0 0 0 4.82 23.45H20.6l2.85-7.125 2.85 7.125h11.4l2.85-7.125 2.85 7.125h15.753A28.5 28.5 0 0 0 32 3.5m27.153 19.95a29 29 0 0 1 .699 2.658 29 29 0 0 0-.7-2.658m-54.334 0a29 29 0 0 0-.584 2.23 29 29 0 0 1 .584-2.23m-.726 2.792a29 29 0 0 0-.323 2.073 29 29 0 0 1 .323-2.073m55.836.214a29 29 0 0 1 .329 2.12 29 29 0 0 0-.329-2.12M3.656 29.058a29 29 0 0 0-.092 1.673 29 29 0 0 1 .092-1.673m56.708.39A29 29 0 0 1 60.5 32a29 29 0 0 0-.136-2.552m-35.489 1.127v5.7h2.85v-5.7Zm11.4 0v5.7h2.85v-5.7ZM3.5 32a29 29 0 0 0 .136 2.552A29 29 0 0 1 3.5 32m56.936 1.27a29 29 0 0 1-.092 1.672 29 29 0 0 0 .092-1.673M3.742 35.422a29 29 0 0 0 .329 2.121 29 29 0 0 1-.329-2.12m56.488.262a29 29 0 0 1-.323 2.073 29 29 0 0 0 .323-2.073M4.148 37.892a29 29 0 0 0 .7 2.658 29 29 0 0 1-.7-2.658m.7 2.658A28.5 28.5 0 0 0 32 60.5a28.5 28.5 0 0 0 27.18-19.95H36.276L32 46.25l-4.275-5.7zm54.333 0a29 29 0 0 0 .584-2.23 29 29 0 0 1-.584 2.23" style="fill:#ccc;stroke-width:1.425"/></svg>