<svg xmlns="http://www.w3.org/2000/svg" width="64" height="64"><path d="m60.5 50.483-18.256.078-6.195-6.119-.012.016-6.71-6.654-.99-.98h-.004a8 8 0 0 0 .834-1.327l.004-.004a8 8 0 0 0 .55-1.467 8 8 0 0 0 .205-1.078l.008-.046 10.846-.047-.004.046 3.945-.016zM40.787 30.984l-10.857.047a7.85 7.85 0 0 0-1.643-3.9l7.643-7.708a18.68 18.68 0 0 1 4.857 11.561m-1.05 19.588-16.532.071v-.004l-.046.004-.047-10.857a7.85 7.85 0 0 0 3.9-1.642l.1.1.027-.035zM34.6 18.106l-7.634 7.7a7.85 7.85 0 0 0-3.922-1.596L23 13.364a18.68 18.68 0 0 1 11.6 4.742m-13.313 32.53a18.68 18.68 0 0 1-11.602-4.742l7.634-7.7a7.85 7.85 0 0 0 3.921 1.596zm-.113-26.422a7.85 7.85 0 0 0-3.9 1.642l-7.708-7.642a18.68 18.68 0 0 1 11.56-4.857ZM16 36.869l-7.643 7.708A18.68 18.68 0 0 1 3.5 33.016l10.857-.047a7.85 7.85 0 0 0 1.643 3.9m-.05-9.692a7.85 7.85 0 0 0-1.597 3.921l-10.846.047A18.68 18.68 0 0 1 8.25 19.542Z" style="opacity:1;fill:#ccc;stroke-width:1.96291"/></svg>