<svg xmlns="http://www.w3.org/2000/svg" width="64" height="64"><path d="M32 3.5c-14.246 0-25.642 8.55-25.642 17.651V32c0 2.408-.195 6.554 1.403 8.483 2.659 4.42 8.356 13.983 10.543 18.361.713 1.31 2.298 1.656 4.297 1.656H41.4c1.999 0 3.584-.347 4.297-1.656 2.187-4.378 7.884-13.941 10.543-18.36 1.598-1.93 1.403-6.076 1.403-8.484V21.151C57.642 12.05 46.246 3.5 32 3.5M12.05 27.725h39.9v2.85c-4.521 0-6.006 1.755-8.55 5.7-2.237 3.832-2.45 10.039-3.568 12.825-1.573-5.378-.707-15.675-7.832-15.675S25.74 43.722 24.168 49.1c-1.117-2.786-1.331-8.993-3.568-12.825-1.757-2.954-4.303-6.36-8.55-5.7zM32 36.445c5.477 0 4.811 7.914 6.02 12.048l1.205 8.765h-14.45l1.205-8.765c1.209-4.134.543-12.048 6.02-12.048m0 2.324c-4.253 0-3.737 6.147-4.676 9.357l-.935 6.805H37.61l-.934-6.805c-.939-3.21-.423-9.357-4.676-9.357" style="fill:#ccc;stroke-width:1.425"/></svg>