<svg xmlns="http://www.w3.org/2000/svg" width="64" height="64"><path d="M33.071 3.52a28.5 28.5 0 0 0-20.755 7.87 28.5 28.5 0 0 0-.925 40.296 28.5 28.5 0 0 0 40.293.924 28.5 28.5 0 0 0 .927-40.293A28.5 28.5 0 0 0 33.07 3.52M16.572 14.858H47.43c.95 0 1.713.764 1.713 1.714v6.857a1.71 1.71 0 0 1-1.713 1.713H16.572a1.71 1.71 0 0 1-1.715-1.713v-6.857c0-.95.766-1.714 1.715-1.714m0 13.714h17.144c.95 0 1.713.764 1.713 1.714v17.143a1.71 1.71 0 0 1-1.713 1.714H16.572a1.71 1.71 0 0 1-1.715-1.714V30.286c0-.95.766-1.714 1.715-1.714m24 0h6.858c.95 0 1.713.764 1.713 1.714v17.143a1.71 1.71 0 0 1-1.713 1.714h-6.857c-.95 0-1.716-.764-1.716-1.714V30.286c0-.95.766-1.714 1.716-1.714" style="fill:#ccc;fill-opacity:1;stroke-width:1.42498"/></svg>