<svg xmlns="http://www.w3.org/2000/svg" width="64" height="64"><path d="M24.107 4.002a4.6 4.6 0 0 0-2.39.605L8.283 12.334A4.55 4.55 0 0 0 6 16.274v15.453c0 1.624.87 3.125 2.283 3.937l13.815 4.22a4.6 4.6 0 0 0 1.902.587 3.461 3.448 0 0 1-.469-.221l-10.183-5.857a3.461 3.448 0 0 1-1.028-.91l26.291-15.18a3.461 3.448 0 0 1 .297 1.39v7.053L42 16.273c0-1.625-.87-3.127-2.283-3.939L26.283 4.607a4.6 4.6 0 0 0-2.176-.605" style="fill:#ccc" transform="translate(-2.2 -2.2)scale(1.42502)"/><path d="M41.61 14.44 6.927 34.462a4.566 4.548 0 0 0 1.355 1.201l13.434 7.727a4.566 4.548 0 0 0 4.566 0l13.434-7.727A4.566 4.548 0 0 0 42 31.727V16.273a4.566 4.548 0 0 0-.39-1.834m-2.999 3.863a3.461 3.448 0 0 1 .297 1.39v11.715a3.461 3.448 0 0 1-1.73 2.985L26.994 40.25a3.461 3.448 0 0 1-3.463 0l-10.183-5.857a3.461 3.448 0 0 1-1.028-.91z" style="fill:#ccc" transform="translate(-2.2 -2.2)scale(1.42502)"/></svg>