<svg xmlns="http://www.w3.org/2000/svg" width="64" height="64"><path d="M32 3.5A28.5 28.5 0 0 0 3.5 32 28.5 28.5 0 0 0 32 60.5 28.5 28.5 0 0 0 60.5 32 28.5 28.5 0 0 0 32 3.5m.183 9.63c7.236.145 14.818 1.287 21.084 3.058-9.654.942-19.31 4.029-28.385 8.868a80 80 0 0 0-15.255 2.456c-.555.114-1.067-.281-1.056-.833l.182-9.195c.015-.729.518-1.385 1.23-1.559 7.068-1.837 14.537-2.948 22.2-2.795m23.248 3.695-.236 11.839c-13.917.575-27.218 6.715-38.605 13.622l.228-11.318c10.88-7.573 24.22-13.181 38.613-14.143M35.225 33.908a80 80 0 0 1 10.17 3.465c-5.472 1.266-10.602 2.548-15.578 5.522-3.776-.753-7.658-.393-11.686-.547 6.388-3.788 11.909-6.45 17.094-8.44m11.451 4.012-.216 10.776c-7.277 1.937-13.95 4.876-19.692 9.156-.55.406-1.322-.026-1.309-.702l.195-9.705c.01-.52.28-1.035.703-1.34 6.318-4.435 13.028-6.644 20.32-8.185" style="fill:#ccc;stroke-width:3.00268"/></svg>