<svg xmlns="http://www.w3.org/2000/svg" width="64" height="64"><path d="M16 5C9.352 5 4 10.352 4 17v16c0 6.648 5.352 12 12 12h16c6.648 0 12-5.352 12-12V17c0-6.648-5.352-12-12-12Zm-3.105 4c.227.841.433 1.69.74 2.508.662 1.817 2.31 3.987 4.306 4.674 1.506-1.865 3.22-3.582 4.897-5.274q-1.484 2.482-2.965 4.965c-2.032 3.473-3.892 7.043-5.88 10.541-.574.874-1.21 2.452-1.764 2.924.473-2.605 1.222-5.166 2.318-7.582.481-1.201 1.099-2.32 1.797-3.387-.657-.482-1.287-1.34-1.668-1.822-1.403-2.235-1.8-4.954-1.781-7.547m22.21 0c.02 2.593-.378 5.312-1.78 7.547-.382.481-1.012 1.34-1.669 1.822.698 1.067 1.316 2.186 1.797 3.387 1.096 2.416 1.845 4.977 2.318 7.582-.555-.472-1.19-2.05-1.763-2.924-1.99-3.498-3.85-7.068-5.881-10.541q-1.481-2.483-2.965-4.965c1.677 1.692 3.391 3.409 4.897 5.274 1.996-.687 3.644-2.857 4.306-4.674.307-.818.513-1.667.74-2.508M23.05 10.758v.152c-.696 3.346-1.543 6.674-2.307 10.01-.361 1.293-.519 2.672-1.015 3.908-1.76 1.26-3.515 2.526-5.291 3.762-.36.122-1.576 1.393-1.415.777 3.297-6.226 6.664-12.418 10.028-18.61m1.902 0c3.364 6.191 6.731 12.383 10.028 18.61.161.615-1.055-.656-1.415-.778-1.776-1.236-3.532-2.501-5.29-3.762-.497-1.236-.655-2.615-1.016-3.908-.764-3.336-1.611-6.664-2.307-10.01zm-3.62 17.545c-.291.769-.638 1.525-.718 2.355-.377 2.262.832 4.355 2.1 6.121-1.462-.641-2.83-1.51-4.078-2.504-1.03-.806-2.1-2.12-1.537-3.498.946-1.41 2.676-1.993 4.232-2.474m5.339 0c1.556.481 3.286 1.064 4.232 2.474.563 1.378-.507 2.692-1.537 3.498-1.247.994-2.616 1.863-4.078 2.504 1.268-1.766 2.477-3.859 2.1-6.12-.08-.831-.427-1.587-.717-2.356M11 32.178l5.584.476c-.983.476-2.017.867-2.938 1.455.378 2.331 1.144 4.591 1.649 6.891-.985-1.987-1.956-3.982-2.95-5.965-.393-.913-1.328-2.136-1.345-2.857m26 0c-.016.721-.952 1.944-1.346 2.857-.993 1.983-1.964 3.978-2.949 5.965.505-2.3 1.271-4.56 1.649-6.89-.921-.59-1.955-.98-2.938-1.456z" style="opacity:1;fill:#ccc" transform="translate(-1.366 -2.061)scale(1.39024)"/><path d="M16 4C9.352 4 4 9.352 4 16v1C4 10.352 9.352 5 16 5h16c6.648 0 12 5.352 12 12v-1c0-6.648-5.352-12-12-12Z" style="opacity:.1;fill:#fff" transform="translate(-1.366 -2.061)scale(1.39024)"/></svg>