<svg xmlns="http://www.w3.org/2000/svg" width="64" height="64"><path d="M21.525 10c-4.543 0-8.436 2.899-10.045 6.904C7.182 18.366 4 22.354 4 27.104 4 33.045 8.904 38 14.86 38h18.28C39.097 38 44 33.045 44 27.104s-4.904-10.895-10.86-10.895h-.076l-.078.002c-.147.005-.273.079-.42.09-.535-.317-1.048-.629-1.642-.838C28.264 12.329 25.442 10 21.525 10m0 5c2.9 0 5.31 2.12 5.778 4.904.168-.015.342-.019.523-.029 1.427 0 2.697.671 3.518 1.717a5.1 5.1 0 0 1 1.797-.383c3.236 0 5.859 2.638 5.859 5.895S36.378 33 33.14 33H14.86C11.622 33 9 30.36 9 27.104c0-3.257 2.623-5.895 5.86-5.895q.437.046.837.127a5 5 0 0 1-.031-.44c0-3.256 2.623-5.896 5.86-5.896" style="fill:#ccc" transform="translate(-2.2 -2.2)scale(1.425)"/><path d="M21.525 10c-4.543 0-8.436 2.899-10.045 6.904C7.182 18.366 4 22.354 4 27.104c0 .152.017.3.023.45.236-4.504 3.326-8.245 7.457-9.65C13.09 13.9 16.982 11 21.525 11c3.917 0 6.739 2.329 9.399 5.463.594.209 1.108.52 1.642.838.147-.011.273-.085.42-.09l.078-.002h.077c5.786 0 10.566 4.679 10.834 10.394.007-.166.025-.33.025-.5 0-5.941-4.904-10.894-10.86-10.894h-.076l-.078.002c-.147.005-.273.079-.42.09-.535-.317-1.048-.629-1.642-.838C28.264 12.329 25.442 10 21.525 10" style="opacity:.1;fill:#fff" transform="translate(-2.2 -2.2)scale(1.425)"/></svg>