<svg xmlns="http://www.w3.org/2000/svg" width="64" height="64"><path d="M32.074 3.5q-.3-.001-.602.005c-15.74.292-28.258 13.282-27.967 29.023s13.281 28.259 29.023 27.967a28.3 28.3 0 0 0 9.164-1.687l-.16-8.594-23.899.442L35.61 32.002 16.953 13.89l23.898-.443-.159-8.594A28.6 28.6 0 0 0 32.074 3.5m14.181 3.823.23 12.455-14.706.272 12.286 11.726-11.82 12.173 14.684-.272.23 12.455c8.169-5.14 13.528-14.307 13.336-24.66s-5.886-19.315-14.24-24.149m-30.68 15.4c3.077 0 5.246 1.1 6.995 3.561v-3.14h2.397v17.712H22.57v-3.108c-1.878 2.526-3.821 3.53-6.833 3.53-5.44 0-9.488-3.951-9.488-9.23 0-5.31 4.016-9.326 9.327-9.326m.065 2.201a6.95 6.95 0 0 0-6.962 6.962c0 4.048 3.076 7.19 7.092 7.19 3.821 0 6.8-3.142 6.8-7.157 0-3.95-3.044-6.995-6.93-6.995" style="fill:#ccc;stroke-width:.114919"/></svg>