<svg xmlns="http://www.w3.org/2000/svg" width="64" height="64"><path d="M20.6 4.925c-9.975 2.85-17.086 14.311-17.1 25.65 0 15.74 12.76 28.5 28.5 28.5s28.5-12.76 28.5-28.5c-.004-11.366-7.125-22.8-17.1-25.65.993 1.031 1.422 1.68 1.425 2.85 0 3.934-5.741 7.125-12.825 7.125s-12.825-3.19-12.825-7.125c.003-1.152.459-1.83 1.425-2.85m-1.425 14.25C26.3 20.6 32 26.3 32 26.3s7.125-5.7 12.825-7.125c7.125 0 12.783 11.62 12.783 11.62q.035.603.042 1.205c0 14.166-11.484 25.65-25.65 25.65S6.35 46.166 6.35 32c0 0 4.275-12.825 12.825-12.825m-.022 9.975a5.7 7.125 0 0 0-5.472 5.255l5.494 3.295h-5.578a5.7 7.125 0 0 0 2.319 4.403 5.7.713 0 0 1 3.259-.128 5.7.713 0 0 1 3.27.13 5.7 7.125 0 0 0 2.43-5.83 5.7 7.125 0 0 0-5.7-7.125 5.7 7.125 0 0 0-.022 0m25.65 0a5.7 7.125 0 0 0-5.472 5.255l5.494 3.295h-5.578a5.7 7.125 0 0 0 2.319 4.403 5.7.713 0 0 1 3.259-.128 5.7.713 0 0 1 3.27.13 5.7 7.125 0 0 0 2.43-5.83 5.7 7.125 0 0 0-5.7-7.125 5.7 7.125 0 0 0-.022 0" style="fill:#ccc;stroke-width:1.425"/></svg>