<svg xmlns="http://www.w3.org/2000/svg" width="64" height="64"><path d="M17.54 7a3.231 3.273 0 0 0-2.792 1.623L3.439 28.26a3.231 3.273 0 0 0 .104 3.465l6.46 9.818A3.231 3.273 0 0 0 12.694 43H35.31a3.231 3.273 0 0 0 2.687-1.457l6.461-9.818a3.231 3.273 0 0 0 .104-3.465L33.252 8.623A3.231 3.273 0 0 0 30.461 7Zm6.358 11.002a1.778 1.75 0 0 1 .178 0 1.778 1.75 0 0 1 1.461.865l3.11 5.25 3.11 5.25A1.778 1.75 0 0 1 30.224 32H17.779a1.778 1.75 0 0 1-1.537-2.633l3.112-5.25 3.109-5.25a1.778 1.75 0 0 1 1.435-.865" style="opacity:1;fill:#ccc" transform="translate(-.571 -1.25)scale(1.35713)"/><path d="M17.538 6a3.22 3.22 0 0 0-2.79 1.623L3.44 27.26a3.3 3.3 0 0 0-.399 2.164c.06-.403.19-.8.4-1.164L14.746 8.623A3.22 3.22 0 0 1 17.538 7h12.633l.56-1z" style="opacity:.2;fill:#fff" transform="translate(-.571 -1.25)scale(1.35713)"/><path d="M17.538 6a3.231 3.273 0 0 0-.177.008l.546.992h12.555a3.231 3.273 0 0 1 2.79 1.623L44.56 28.26a3.231 3.273 0 0 1 .399 1.152 3.231 3.273 0 0 0-.399-2.152L33.253 7.623A3.231 3.273 0 0 0 30.462 6z" style="opacity:.2;fill:#fff" transform="translate(-.571 -1.25)scale(1.35713)"/></svg>