<svg xmlns="http://www.w3.org/2000/svg" width="64" height="64"><path d="M32 3.5A28.5 28.5 0 0 0 3.5 32 28.5 28.5 0 0 0 32 60.5 28.5 28.5 0 0 0 60.5 32 28.5 28.5 0 0 0 32 3.5m0 4.275A24.225 24.225 0 0 1 56.225 32 24.225 24.225 0 0 1 32 56.225 24.225 24.225 0 0 1 7.775 32 24.225 24.225 0 0 1 32 7.775m-.05 2.85c-2.35-.013-4.542.535-5.6 1.133l.003.016c.09.54.3 1.377.59 2.363.581 1.973 1.488 4.576 2.433 7.148 1.259 3.427 1.875 4.908 2.621 6.782.755-1.872 1.384-3.359 2.653-6.788.95-2.57 1.858-5.17 2.432-7.139.288-.984.491-1.818.574-2.349-1.122-.597-3.358-1.153-5.706-1.166m-10.27 3.067c-1.17.326-3.107 1.489-4.76 3.159-1.65 1.67-2.837 3.641-3.208 4.857.433.317 1.166.765 2.065 1.258 1.798.985 4.28 2.18 6.771 3.326 3.321 1.527 4.813 2.135 6.672 2.925-.798-1.853-1.41-3.339-2.942-6.652-1.15-2.487-2.35-4.966-3.335-6.772-.492-.903-.935-1.642-1.252-2.087-.006-.008-.006-.006-.011-.014m20.64 0-.01.014c-.318.445-.761 1.185-1.253 2.087-.985 1.806-2.184 4.286-3.335 6.772-1.533 3.313-2.144 4.799-2.941 6.652 1.858-.79 3.35-1.398 6.67-2.925 2.491-1.145 4.974-2.34 6.772-3.326.9-.493 1.632-.941 2.066-1.258-.372-1.216-1.559-3.188-3.21-4.857s-3.588-2.833-4.759-3.159M11.758 26.35c-.598 1.058-1.146 3.25-1.133 5.6.013 2.348.57 4.584 1.166 5.705.53-.082 1.365-.286 2.35-.573 1.968-.575 4.567-1.481 7.138-2.432 3.43-1.27 4.916-1.898 6.788-2.653-1.874-.746-3.355-1.363-6.782-2.622-2.572-.944-5.175-1.851-7.148-2.432-.986-.29-1.824-.5-2.363-.59zm40.484 0-.016.003c-.54.09-1.377.3-2.363.59-1.973.581-4.576 1.488-7.148 2.433-3.427 1.259-4.908 1.875-6.782 2.621 1.872.755 3.359 1.384 6.788 2.653 2.57.95 5.17 1.858 7.139 2.432.984.288 1.818.491 2.349.574.597-1.122 1.153-3.358 1.166-5.706.013-2.35-.535-4.542-1.133-5.6m-23.025 8.43c-1.853.798-3.339 1.41-6.652 2.942-2.487 1.15-4.966 2.35-6.772 3.335-.903.492-1.642.935-2.087 1.252-.008.006-.006.006-.014.011.326 1.17 1.489 3.107 3.159 4.76 1.669 1.65 3.641 2.837 4.857 3.208.317-.433.765-1.166 1.258-2.065.985-1.798 2.18-4.281 3.326-6.771 1.527-3.321 2.135-4.813 2.925-6.672m5.566 0c.79 1.859 1.398 3.35 2.925 6.672 1.146 2.49 2.34 4.973 3.326 6.771.493.9.941 1.632 1.258 2.065 1.216-.371 3.188-1.558 4.857-3.209s2.833-3.588 3.159-4.759l-.014-.01c-.445-.318-1.185-.761-2.087-1.253-1.806-.985-4.286-2.184-6.772-3.335-3.313-1.533-4.799-2.144-6.652-2.941Zm-2.786 1.153c-.746 1.874-1.363 3.355-2.622 6.782-.944 2.572-1.851 5.175-2.432 7.148-.29.986-.5 1.824-.59 2.363l-.003.016c1.058.598 3.25 1.146 5.6 1.133 2.348-.013 4.583-.57 5.705-1.166-.082-.53-.286-1.365-.573-2.35-.575-1.968-1.481-4.567-2.433-7.138-1.268-3.43-1.897-4.916-2.652-6.788" style="fill:#ccc;stroke-width:1.425"/></svg>