<svg xmlns="http://www.w3.org/2000/svg" width="64" height="64"><path d="M24 4C12.92 4 4 12.92 4 24s8.92 20 20 20 20-8.92 20-20S35.08 4 24 4m0 3a9 9 0 0 1 9 9 9 9 0 0 1-.525 3h-.038a15 15 0 0 0-4.552-2.07A4 4 0 0 0 28 16a4 4 0 0 0-4-4 4 4 0 0 0-4 4 4 4 0 0 0 .111.92A15 15 0 0 0 15.584 19h-.057A9 9 0 0 1 15 16a9 9 0 0 1 9-9m0 6a3 3 0 0 1 3 3 3 3 0 0 1-3 3 3 3 0 0 1-3-3 3 3 0 0 1 3-3m-8.926 6.217A15 15 0 0 0 15 20.699a15 15 0 0 0 .457 3.615A4 4 0 0 0 13 28a4 4 0 0 0 4 4 4 4 0 0 0 2.338-.76 15 15 0 0 0 4.174 2.963A9 9 0 0 1 17 37a9 9 0 0 1-9-9 9 9 0 0 1 7.074-8.783m17.85.004A9 9 0 0 1 40 28a9 9 0 0 1-9 9 9 9 0 0 1-6.535-2.828l.039-.068a15 15 0 0 0 4.101-2.91A4 4 0 0 0 31 32a4 4 0 0 0 4-4 4 4 0 0 0-2.482-3.7A15 15 0 0 0 33 20.6a15 15 0 0 0-.076-1.38M17 25a3 3 0 0 1 3 3 3 3 0 0 1-3 3 3 3 0 0 1-3-3 3 3 0 0 1 3-3m14 0a3 3 0 0 1 3 3 3 3 0 0 1-3 3 3 3 0 0 1-3-3 3 3 0 0 1 3-3" style="fill:#ccc" transform="translate(-2.197 -2.197)scale(1.42487)"/><path d="M24 4C12.92 4 4 12.92 4 24c0 .168-.004.333 0 .5C4.264 13.654 13.088 5 24 5s19.736 8.654 20 19.5c.004-.167 0-.332 0-.5 0-11.08-8.92-20-20-20" style="opacity:.1;fill:#fff" transform="translate(-2.197 -2.197)scale(1.42487)"/></svg>