<svg xmlns="http://www.w3.org/2000/svg" width="64" height="64"><path d="M15.965 4c1.103 0 1.52 1.662 1.65 2.13.13.466.607 2.201.1 5.46-.347 1.94-.547 1.105-.547 1.105s-.464-.948-.479-1.658c-.003-.176 0-.322 0-.44.005-.35.005-.443-.115-.326-.157.158-.432.613-.558 1.733-.131 1.117.226 2.548.226 2.617 0 .07-.056.084-.187.059-.13-.03-1.629-.256-2.9-3.584-1.268-3.328-1.239-4.35-1.239-4.35s-.045-.425-.115-.44c-.071-.014-.19-.057-.217.214-.03.27-.26 2.66.273 5.439.534 2.775 1.182 4.533 1.79 5.58.604 1.05.664 1.264.794 1.7.13.439.086 1.317.157 1.687.055.274.09.626.056.765-.01.048-.033.07-.086.041-.09-.05-.66-.622-.746-.707-.09-.084-.596-.534-1.054-1.23-.463-.692-.84-1.18-1.127-1.432-.19-.172-.605-.524-.62-.384-.014.142.112.231.213.4.101.168.608 1.145.899 1.855.287.707 1.237 2.634 1.469 2.989.23.351.839.992 1.357 1.486s1.284 1.555 1.459 1.855c.172.297.533 1.118.562 1.305.038.25.071.252-.175.197-.242-.055-1.528-.497-1.785-.607-.224-.099-.71-.29-.952-.396-.093-.04-.38.04-.134.238.245.197 2.425 1.6 2.615 1.728.186.128 1.326 1.091 1.568 1.403.247.31.74 1.035 1.213 2.01.478.98.88 2.142.678 4.093-.183 1.099-.6 1.672-.617 1.705-.023.033-.065.038-.143.016-.186-.048-.578-.253-.738-.33-.202-.1-.608-.356-.664-.326-.06.029-.17.1.056.37.232.268.763.835.88.96.115.128.19.2.146.285a.295.295 0 0 0 .058.326c.101.114.575.652.664.766.086.113.418.563.489.75.07.183.146.34.175.552.026.213.096.638.186.85.086.212.246.454.402.607C21.063 43.224 22 44 22 44h4s.937-.776 1.098-.934a2 2 0 0 0 .402-.607c.09-.212.16-.637.186-.85.03-.212.104-.37.175-.552.071-.187.403-.637.489-.75.09-.114.563-.652.664-.766a.295.295 0 0 0 .058-.326c-.045-.084.031-.157.147-.285.116-.125.647-.692.879-.96.227-.27.116-.341.056-.37-.056-.03-.462.227-.664.326-.16.077-.552.282-.738.33-.078.022-.118.017-.14-.016-.019-.033-.437-.606-.62-1.705-.201-1.951.2-3.112.678-4.094.474-.974.966-1.698 1.213-2.01.242-.31 1.382-1.274 1.568-1.402.19-.128 2.37-1.53 2.615-1.728.247-.198-.041-.279-.134-.239-.243.107-.728.298-.952.397-.257.11-1.543.552-1.785.607-.246.055-.213.052-.175-.197.03-.187.39-1.008.562-1.305.175-.3.941-1.36 1.459-1.855s1.127-1.135 1.357-1.486c.232-.355 1.182-2.282 1.47-2.989.29-.71.797-1.687.898-1.855.1-.169.227-.258.213-.4-.015-.14-.43.212-.62.384-.287.253-.664.74-1.127 1.432-.458.696-.965 1.146-1.054 1.23-.086.085-.657.656-.746.707-.053.03-.075.007-.086-.04-.034-.14 0-.492.056-.766.071-.37.026-1.248.157-1.688.13-.435.19-.648.795-1.699.607-1.047 1.255-2.805 1.789-5.58.532-2.779.302-5.169.273-5.44-.026-.27-.146-.227-.217-.212-.07.014-.115.44-.115.44s.03 1.02-1.238 4.349c-1.272 3.328-2.77 3.554-2.9 3.584-.132.025-.188.01-.188-.059 0-.07.357-1.5.226-2.617-.126-1.12-.401-1.575-.558-1.733-.12-.117-.12-.025-.115.327 0 .117.003.263 0 .44-.015.71-.479 1.657-.479 1.657s-.2.835-.547-1.105c-.507-3.259-.03-4.994.1-5.46.13-.468.547-2.13 1.65-2.13Zm3.305 19.17c.047.014.074.181.142.34.087.205.476.677.627.828.097.094.175.206.258.314.213.267.429.533.627.81.126.17.22.365.289.567.27.775.24 1.54.24 2.35 0 .126.026.838-.06.838-.09 0-.05 0-.116-.112a24 24 0 0 0-.562-.99 43 43 0 0 0-.842-1.203c-.137-.198-.556-.88-.74-1.283A1.8 1.8 0 0 1 19 24.9c0-.19.015-.382.03-.558.028-.36.06-.664.085-1.053a.127.127 0 0 1 .155-.12m9.318 0a.127.127 0 0 1 .154.12c.025.388.057.691.086 1.052.015.176.03.367.03.558 0 .245-.029.495-.133.729-.184.404-.603 1.085-.74 1.283-.148.198-.705.99-.842 1.203s-.502.875-.563.99c-.065.112-.025.112-.115.112-.087 0-.06-.712-.06-.838 0-.81-.03-1.575.24-2.35.068-.202.162-.397.289-.566.198-.278.414-.544.627-.81.082-.109.162-.221.26-.315.15-.151.54-.623.626-.828.069-.159.094-.326.14-.34m-6.37 13.951q.006-.005.035.006c.036.014.07.152.088.213.018.065.117.404.142.516.043.187.166.752.21.947.053.263.206.872.212.93.055.55.188.933 0 1.091-.187.155-.357-.049-.447-.142a4 4 0 0 1-.406-.541c-.044-.083-.084-.106-.084-.153 0-.043.058-.1.058-.1.202-.356.234-.797.227-1.034-.004-.094 0-.203 0-.311a4 4 0 0 0-.006-.41c-.018-.144-.036-.44-.05-.572-.015-.13.017-.339.017-.393q-.002-.042.004-.047m3.535 0q.006.005.004.047c0 .054.034.263.02.393-.015.133-.035.428-.053.572-.01.086-.01.244-.006.41 0 .108.003.217 0 .31-.007.238.025.679.226 1.036 0 0 .059.056.059.1 0 .046-.04.069-.084.152a4 4 0 0 1-.406.54c-.09.094-.26.298-.448.143-.187-.158-.054-.54 0-1.092.007-.057.16-.666.213-.93.044-.194.166-.76.21-.947.025-.111.126-.45.144-.515.018-.061.05-.199.086-.213.02-.005.03-.01.035-.006" style="fill:#ccc" transform="translate(-2.2 -2.2)scale(1.425)"/><path d="M15.965 5c1.103 0 1.52 1.662 1.65 2.13.078.277.274 1.014.317 2.241.065-1.847-.22-2.895-.317-3.24A6.5 6.5 0 0 0 17.201 5Zm14.834 0a6.5 6.5 0 0 0-.414 1.13c-.097.346-.382 1.394-.317 3.241.043-1.227.24-1.964.317-2.24.13-.469.547-2.131 1.65-2.131ZM11.525 8.646a20 20 0 0 0 .332 4.313c.534 2.775 1.182 4.533 1.79 5.58.604 1.05.664 1.264.794 1.7.115.387.1 1.075.143 1.495q.057.02.07-.043c.034-.139 0-.49-.056-.765-.071-.37-.026-1.248-.157-1.688-.13-.435-.19-.648-.795-1.699-.607-1.047-1.255-2.805-1.789-5.58a19.6 19.6 0 0 1-.332-3.313m24.95 0a19.6 19.6 0 0 1-.332 3.313c-.534 2.775-1.182 4.533-1.79 5.58-.604 1.05-.664 1.264-.794 1.7-.13.439-.086 1.317-.157 1.687-.055.274-.09.626-.056.765q.013.063.07.043c.042-.42.028-1.108.143-1.496.13-.435.19-.648.795-1.699.607-1.047 1.255-2.805 1.789-5.58a20 20 0 0 0 .332-4.313m-20.461 4.41c-.056.538-.005 1.137.064 1.624.11.017.164.005.164-.059 0-.048-.167-.763-.228-1.564m15.972 0c-.061.802-.228 1.517-.228 1.565 0 .064.055.076.164.059.07-.487.12-1.086.064-1.623m-20.888 5.9c-.044-.017-.073-.012-.077.023-.014.142.112.231.213.4.101.168.608 1.145.899 1.855.287.707 1.237 2.634 1.469 2.989.23.351.839.992 1.357 1.486s1.284 1.555 1.459 1.855c.055.095.136.28.213.444.041.012.15.053.174.058.246.055.213.052.175-.197-.03-.187-.39-1.008-.562-1.305-.175-.3-.941-1.36-1.459-1.855s-1.127-1.135-1.357-1.486c-.232-.355-1.182-2.282-1.47-2.989-.085-.209-.199-.438-.306-.666-.06-.063-.132-.158-.185-.205-.143-.129-.412-.36-.543-.408m25.804 0c-.131.047-.4.278-.543.407-.053.047-.125.142-.185.205-.107.228-.221.457-.307.666-.287.707-1.237 2.634-1.469 2.989-.23.351-.839.992-1.357 1.486s-1.284 1.555-1.459 1.855c-.172.297-.533 1.118-.562 1.305-.038.25-.071.252.175.197.024-.005.133-.046.174-.058.077-.164.158-.349.213-.444.175-.3.941-1.36 1.459-1.855s1.127-1.135 1.357-1.486c.232-.355 1.182-2.282 1.47-2.989.29-.71.797-1.687.898-1.855.1-.169.227-.258.213-.4-.004-.035-.033-.04-.077-.024M19.27 23.17a.127.127 0 0 0-.155.12c-.025.388-.057.691-.086 1.052A7 7 0 0 0 19 24.9q0 .196.033.391c.028-.338.058-.632.082-1.002a.127.127 0 0 1 .155-.12c.047.015.074.182.142.34.087.206.476.678.627.829.097.094.175.206.258.314.213.267.429.533.627.81.126.17.22.365.289.567.225.646.235 1.29.234 1.955.015-.22.006-.525.006-.605 0-.81.03-1.575-.24-2.35a2 2 0 0 0-.29-.566c-.197-.278-.413-.544-.626-.81-.083-.109-.16-.221-.258-.315-.151-.151-.54-.623-.627-.828-.068-.159-.095-.326-.142-.34m9.318 0c-.047.014-.072.181-.14.34-.087.205-.476.677-.628.828-.097.094-.177.206-.26.314-.212.267-.428.533-.626.81-.127.17-.221.365-.29.567-.27.775-.24 1.54-.24 2.35 0 .08-.008.385.006.605 0-.664.01-1.309.235-1.955.068-.202.162-.397.289-.566.198-.278.414-.544.627-.81.082-.109.162-.221.26-.315.15-.151.54-.623.626-.828.069-.159.094-.326.14-.34a.127.127 0 0 1 .155.12c.024.37.054.663.082 1.001q.034-.195.033-.39c0-.192-.014-.383-.029-.56-.029-.36-.06-.663-.086-1.052a.127.127 0 0 0-.154-.12m-14.52 4.892c-.093-.04-.38.041-.134.239.245.197 2.425 1.6 2.615 1.728.186.128 1.326 1.091 1.568 1.403.247.31.74 1.035 1.213 2.01.333.684.617 1.475.697 2.542.074-1.607-.269-2.663-.697-3.543-.474-.974-.966-1.698-1.213-2.01-.242-.31-1.382-1.274-1.568-1.402l-.156-.103a27 27 0 0 1-1.373-.467c-.224-.099-.71-.29-.952-.396m19.864 0c-.243.107-.728.298-.952.397-.198.084-.9.316-1.373.467l-.156.103c-.186.128-1.326 1.091-1.568 1.403-.247.31-.74 1.035-1.213 2.01-.428.879-.77 1.935-.697 3.542a6.7 6.7 0 0 1 .697-2.543c.474-.974.966-1.698 1.213-2.01.242-.31 1.382-1.274 1.568-1.402.19-.128 2.37-1.53 2.615-1.728.247-.198-.041-.279-.134-.238m-11.715 9.06q-.006.004-.004.046c0 .054-.032.263-.018.393.015.131.033.418.051.564l.006.002c.036.014.07.152.088.213.018.065.117.404.142.516.043.187.166.752.21.947.053.263.206.872.212.93l.01.074c.165-.166.043-.538-.01-1.075-.006-.057-.159-.666-.213-.93-.043-.194-.166-.76-.209-.946-.025-.112-.124-.451-.142-.516-.018-.061-.052-.199-.088-.213-.02-.005-.03-.01-.035-.006m3.535 0c-.005-.005-.015 0-.035.005-.036.014-.068.152-.086.213-.018.065-.12.404-.145.516-.043.187-.165.752-.209.947-.054.263-.206.872-.213.93-.052.536-.175.908-.01 1.074.004-.029.008-.045.01-.075.007-.057.16-.666.213-.93.044-.194.166-.76.21-.946.025-.112.126-.451.144-.516.018-.061.05-.199.086-.213l.006-.002c.018-.146.038-.433.052-.564.015-.13-.02-.339-.02-.393 0-.029.002-.043-.003-.047M17.846 38.6c-.06.029-.17.1.056.37.232.268.763.835.88.96.115.128.19.2.146.285a.295.295 0 0 0 .058.326c.101.114.575.652.664.766.086.113.418.563.489.75.07.183.146.34.175.552.026.213.096.638.186.85.076.187.21.389.348.541H22s-.937-.776-1.098-.934a2 2 0 0 1-.402-.607c-.09-.212-.16-.637-.186-.85-.03-.212-.104-.37-.175-.552-.071-.187-.403-.637-.489-.75-.09-.114-.563-.652-.664-.766a.295.295 0 0 1-.058-.326c.019-.036.006-.071-.012-.108-.156-.072-.318-.139-.406-.181-.202-.1-.608-.356-.664-.326m12.308 0c-.056-.03-.462.227-.664.326-.088.042-.25.109-.406.181-.018.037-.03.072-.012.108a.295.295 0 0 1-.058.326c-.101.114-.575.652-.664.766-.086.113-.418.563-.489.75-.07.183-.146.34-.175.552-.026.213-.097.638-.186.85a2 2 0 0 1-.402.607C26.937 43.224 26 44 26 44h1.152c.138-.152.272-.354.348-.541.09-.212.16-.637.186-.85.03-.212.104-.37.175-.552.071-.187.403-.637.489-.75.09-.114.563-.652.664-.766a.295.295 0 0 0 .058-.326c-.045-.084.031-.157.147-.285.116-.125.647-.692.879-.96.227-.27.116-.341.056-.37m-7.916.441c-.01.246-.05.562-.213.848 0 0-.058.056-.058.1 0 .046.04.069.084.152.03.056.098.129.16.213a2.4 2.4 0 0 0 .041-.5c-.004-.094 0-.203 0-.311a4 4 0 0 0-.006-.41zm3.492.002-.007.09c-.01.086-.01.244-.006.41 0 .108.003.217 0 .31-.004.125.004.306.04.5.063-.083.131-.156.16-.212.045-.083.085-.106.085-.153 0-.043-.059-.1-.059-.1-.161-.285-.202-.599-.213-.845" style="opacity:.1;fill:#fff" transform="translate(-2.2 -2.2)scale(1.425)"/></svg>