<svg xmlns="http://www.w3.org/2000/svg" width="64" height="64"><path d="M24 4C12.92 4 4 12.92 4 24s8.92 20 20 20 20-8.92 20-20S35.08 4 24 4m12 9.002s.098 3.596-1.6 7.193c-.598 1.1-1.399 2.3-2.398 3.3-1.603 1.55-4.575 4.01-6.996 5.968v4.525l-2.998 1.998-.942-3.484c-.09 0-.228-.02-.414-.078l-1.242.564s-.5.202-2.1-1.398c-1.499-1.6-1.298-2-1.298-2l.527-1.158a1.8 1.8 0 0 1-.137-.522l-3.39-.918 2-2.998h4.39c1.977-2.404 4.488-5.38 6.104-6.996 1-1 2.197-1.8 3.297-2.299C32.4 12.9 36 13.002 36 13.002m-6.996 4.996c-1.1 0-2 .898-2 1.998s.9 2 2 2c1.098 0 1.998-.9 1.998-2s-.899-1.998-1.998-1.998M14.71 29.99c.1.2.2.3.3.5-1.498 1.898-1.298 4.797-1.298 4.797s2.897.2 4.797-1.299c.2.101.3.201.5.301-.2.2-.4.5-.602.7-2.3 2.298-6.394 1.997-6.394 1.997s-.3-4.098 1.998-6.394c.2-.201.5-.4.699-.602" style="fill:#ccc" transform="translate(-2.2 -2.2)scale(1.425)"/></svg>