<svg xmlns="http://www.w3.org/2000/svg" width="64" height="64"><path d="M32 3.5A28.5 28.5 0 0 0 3.5 32 28.5 28.5 0 0 0 32 60.5 28.5 28.5 0 0 0 60.5 32 28.5 28.5 0 0 0 32 3.5m-8.956 15.661c1.214.002 2.37.137 3.209 1.169 3.505 6.197 7.115 12.331 10.548 18.583.563 1.484 2.14 2.83 1.575 4.579-1.338 2.603-2.641 5.206-4.225 7.69-.626.983-1.804 3.28-2.922 1.589-5.82-10.191-12.062-21.005-17.345-30.66-.478-.873-.858-2.95.793-2.936 2.382.031 4.76-.051 7.142 0 .407 0 .82-.015 1.225-.014m17.108.014h9.026s2.07 0 1.077 1.954c-.994 1.954-2.225 4.897-3.643 7.72-.394.785-1.243 3.227-2.817.393-1.573-2.834-4.305-8.016-4.305-8.016s-1.16-2.05.662-2.05" style="fill:#ccc;stroke-width:1.425"/></svg>