<svg xmlns="http://www.w3.org/2000/svg" width="64" height="64"><path d="M32 3.5A28.38 28.38 0 0 0 3.5 32 28.38 28.38 0 0 0 32 60.5c2.533 0 4.75-2.218 4.75-4.75 0-1.268-.315-2.216-1.265-3.165-.633-.95-1.267-1.904-1.267-3.17 0-2.534 2.218-4.749 4.751-4.749h5.7c8.866 0 15.831-6.967 15.831-15.833C60.5 14.899 47.833 3.5 32 3.5m-8.55 7.125c2.28 0 4.275 1.995 4.275 4.275s-1.995 4.275-4.275 4.275-4.275-1.995-4.275-4.275 1.995-4.275 4.275-4.275m15.675 0c2.28 0 4.275 1.995 4.275 4.275s-1.995 4.275-4.275 4.275S34.85 17.18 34.85 14.9s1.995-4.275 4.275-4.275M13.475 23.45c2.28 0 4.275 1.995 4.275 4.275S15.755 32 13.475 32 9.2 30.005 9.2 27.725s1.995-4.275 4.275-4.275m35.625 0c2.28 0 4.275 1.995 4.275 4.275S51.38 32 49.1 32s-4.275-1.995-4.275-4.275S46.82 23.45 49.1 23.45" style="fill:#ccc;stroke-width:1.425"/></svg>