<svg xmlns="http://www.w3.org/2000/svg" width="64" height="64"><g style="fill:#ccc"><path d="M8 18v12h32V18Zm6 2a4 4 0 0 1 4 4 4 4 0 0 1-4 4 4 4 0 0 1-4-4 4 4 0 0 1 4-4m10 0a4 4 0 0 1 4 4 4 4 0 0 1-4 4 4 4 0 0 1-4-4 4 4 0 0 1 4-4m10 0a4 4 0 0 1 4 4 4 4 0 0 1-4 4 4 4 0 0 1-4-4 4 4 0 0 1 4-4" style="fill:#ccc" transform="translate(-2.2 -2.2)scale(1.425)"/><path d="M24 4C14.651 4 6.863 10.36 4.65 19h38.7C41.137 10.36 33.349 4 24 4M4.65 29C6.862 37.64 14.651 44 24 44s17.137-6.36 19.35-15Z" style="fill:#ccc" transform="translate(-2.2 -2.2)scale(1.425)"/></g></svg>