<svg xmlns="http://www.w3.org/2000/svg" width="64" height="64"><path d="M15.13 40.252c7.77-4.608 14.486-7.844 20.793-10.264a98 98 0 0 1 12.37 4.213c-6.657 1.54-12.896 3.1-18.949 6.716-4.593-.916-9.315-.478-14.214-.665m9.15 6.201-.236 11.804c-.017.823.923 1.349 1.592.855 6.983-5.207 15.1-8.782 23.953-11.139l.262-13.107c-8.868 1.875-17.03 4.562-24.715 9.958a2.1 2.1 0 0 0-.856 1.63m-11.024-6.276c13.851-8.402 30.028-15.87 46.956-16.57l.288-14.4c-17.508 1.17-33.734 7.991-46.968 17.203ZM5.22 8.114c-.866.21-1.477 1.01-1.495 1.896L3.5 21.193c-.013.67.61 1.152 1.285 1.013a97.4 97.4 0 0 1 18.557-2.986c11.04-5.886 22.783-9.642 34.526-10.788-7.622-2.154-16.844-3.542-25.645-3.718-9.322-.187-18.407 1.165-27.004 3.4" style="fill:#ccc;stroke-width:.126671"/></svg>