<svg xmlns="http://www.w3.org/2000/svg" width="64" height="64"><path d="M32 3.5A28.5 28.5 0 0 0 3.5 32 28.5 28.5 0 0 0 32 60.5 28.5 28.5 0 0 0 60.5 32 28.5 28.5 0 0 0 32 3.5M19.45 13.547c1.183-.056 2.282.283 3.324.874 2.027 1.127 4.028 2.335 6.112 3.32 1.69.817 1.632 1.578.28 2.62-2.111 1.633-4.363 1.943-6.757.704-2.28-1.183-4.48-2.533-6.76-3.688-1.352-.676-1.183-1.295-.226-2.14 1.155-1.042 2.479-1.661 4.028-1.69m24.07 1.487c1.221.091 2.37.577 3.37 1.422 1.014.873 1.378 1.521-.114 2.338-3.97 2.224-7.884 4.588-11.826 6.84-1.915 1.127-3.94 1.185-5.967.115-.732-.563-1.887-.986-1.86-2.085.029-.9 1.184-1.042 1.86-1.436 3.548-2.112 7.122-4.223 10.726-6.25 1.296-.733 2.59-1.036 3.81-.944m8.884 8.672c.468.044.697.519.837 1.31.282 1.522.14 2.957-.62 4.337-.563 1.014-1.408 1.775-2.45 2.366-2.027 1.154-4.054 2.25-5.997 3.546-1.577 1.042-2.194.593-2.391-1.097-.31-2.647.56-4.76 2.842-6.14 2.196-1.351 4.478-2.533 6.646-3.913.486-.306.852-.435 1.133-.409m-40.855.501c.295-.056.698.057 1.258.384 3.942 2.281 7.967 4.39 11.937 6.644 1.943 1.098 3.013 2.79 3.126 5.098-.113.93.113 2.137-.816 2.672-.788.45-1.495-.477-2.198-.87-3.633-1.972-7.29-3.943-10.866-5.999-2.59-1.492-3.718-3.858-3.268-6.448.141-.827.336-1.388.827-1.481M39.403 32a1.15 1.15 0 0 1 .649.184c.705.454.288 1.562.314 2.357.105 4.174.184 8.347.184 12.522-.026 2.981-1.411 5.11-3.685 6.048-1.15.454-1.856.482-1.856-1.25.026-4.6-.133-9.2-.159-13.771-.026-2.244.866-4.033 2.67-5.283.587-.277 1.233-.794 1.883-.807M23.06 39.136c.26.031.566.128.924.281 2.225.963 3.506 2.675 3.582 5.241.077 2.433.026 4.89.153 7.323.077 1.443-.486 1.606-1.586 1.205-1.33-.481-2.403-1.258-3.145-2.541-.588-.963-.821-2.004-.821-3.154 0-2.192.028-4.412-.125-6.604-.096-1.343.24-1.844 1.018-1.75" style="fill:#ccc;stroke-width:1.425"/></svg>