<svg xmlns="http://www.w3.org/2000/svg" width="64" height="64"><path d="M32 3.5A28.44 28.44 0 0 0 3.5 32 28.44 28.44 0 0 0 32 60.5 28.44 28.44 0 0 0 60.5 32 28.44 28.44 0 0 0 32 3.5m-8.937 12.825h17.874a6.76 6.76 0 0 1 6.738 6.738v17.874a6.76 6.76 0 0 1-6.738 6.738H23.063a6.76 6.76 0 0 1-6.738-6.738V23.063a6.76 6.76 0 0 1 6.738-6.738m8.706 7.128-.125.005A8.55 8.55 0 0 0 32 40.55a8.55 8.55 0 0 0 8.55-8.53 8.55 8.55 0 0 0-8.781-8.567m.314 2.847a5.7 5.7 0 0 1 3.947 1.67 5.7 5.7 0 0 1 .72.88 5.7 5.7 0 0 0-.72-.88c.291.29.54.606.754.938a5.7 5.7 0 0 1 .487.924l.017.042v.003a5.7 5.7 0 0 1 .292.98 6 6 0 0 0-.272-.92 5.7 5.7 0 0 1 .364 1.79 5.5 5.5 0 0 0-.072-.793 5.7 5.7 0 0 1 .094.997v.022l.003.07v.01a5.7 5.7 0 0 1-.091.963l-.026.145a6 6 0 0 1-.264.894q-.031.087-.067.175a6 6 0 0 1-.44.835 5.7 5.7 0 0 1-.779.985q.39-.394.688-.838a5.7 5.7 0 0 1-.688.838 5.7 5.7 0 0 1-.88.72q.468-.309.88-.72c-.29.291-.606.54-.938.754a5.7 5.7 0 0 1-.924.487l-.042.017h-.002a5.7 5.7 0 0 1-.98.292c.311-.063.619-.157.918-.272a5.7 5.7 0 0 1-1.79.364c.266-.011.532-.023.794-.072a5.7 5.7 0 0 1-.996.094h-.023l-.07.003h-.01a5.7 5.7 0 0 1-.963-.091l-.145-.026a6 6 0 0 1-.894-.264q-.088-.031-.175-.067a6 6 0 0 1-.835-.44 5.7 5.7 0 0 1-.985-.779c.261.261.543.488.838.688a5.7 5.7 0 0 1-.838-.688 5.7 5.7 0 0 1 0-8.06 5.7 5.7 0 0 1 4.114-1.67" style="fill:#ccc;stroke-width:1.42501"/></svg>