<svg xmlns="http://www.w3.org/2000/svg" width="64" height="64"><path d="M32 3.5A28.44 28.44 0 0 0 3.5 32 28.44 28.44 0 0 0 32 60.5 28.44 28.44 0 0 0 60.5 32 28.44 28.44 0 0 0 32 3.5M20.695 19.175h5.104c-4.767 2.3-8.049 7.16-8.049 12.825 0 5.292 2.864 9.883 7.125 12.34v-1.85c-.405-.427-.698-.99-.754-1.561-.082-.831.202-1.516.88-2.127l.411-.37-.261-1.33c-.33-1.665-.958-2.722-2.043-3.443-.982-.652-1.083-.834-1.083-1.968 0-1.71 1.2-4.172 3.518-7.217 1.086-1.426 3.382-3.836 4.278-4.492.67-.492 1.295-.762 1.934-.801 1.066-.066 2.169.512 3.576 1.78 2.479 2.235 5.837 7.1 6.477 9.383.234.833.221 2.28-.022 2.569-.11.13-.57.49-1.024.807-1.008.701-1.69 1.941-1.974 3.59l-.192 1.108.562.604c1.007 1.084.952 2.52-.033 3.47v1.849A14.21 14.21 0 0 0 46.25 32c0-5.666-3.282-10.525-8.049-12.825h5.104c3.55 3.13 5.795 7.7 5.795 12.825 0 6.924-4.083 12.848-9.975 15.541v.134h-.276c-.823.36-1.69.635-2.574.863v2.922A19.95 19.95 0 0 0 51.95 32a20 20 0 0 0-.849-5.7h2.945A22.8 22.8 0 0 1 54.8 32a22.8 22.8 0 0 1-21.375 22.728V44.686c-.45.06-.9.12-1.394.139-.476-.011-.964-.07-1.456-.148v10.07A22.8 22.8 0 0 1 9.2 32a22.8 22.8 0 0 1 .743-5.7h2.948a20 20 0 0 0-.841 5.7 19.95 19.95 0 0 0 15.675 19.44v-2.902a17 17 0 0 1-2.574-.863h-.276v-.134C18.983 44.848 14.9 38.924 14.9 32c0-5.126 2.245-9.696 5.795-12.825m7.03 19.95A1.425 1.425 0 0 0 26.3 40.55a1.425 1.425 0 0 0 1.425 1.425 1.425 1.425 0 0 0 1.425-1.425 1.425 1.425 0 0 0-1.425-1.425m8.55 0a1.425 1.425 0 0 0-1.425 1.425 1.425 1.425 0 0 0 1.425 1.425A1.425 1.425 0 0 0 37.7 40.55a1.425 1.425 0 0 0-1.425-1.425" style="fill:#ccc;stroke-width:1.425"/></svg>