<svg xmlns="http://www.w3.org/2000/svg" width="64" height="64"><path d="M32 3.5a29 29 0 0 0-3.618.267c-.563 3.275-.57 6.715-.354 9.961 11.26-1.57 22.076 1.624 30.585 8.105.046.12.081.244.125.365A28.5 28.5 0 0 0 32 3.5m-4.208.337a29 29 0 0 0-1.328.234 28 28 0 0 1 1.328-.234m-1.954.373a28.5 28.5 0 0 0-11.305 5.288c-1.514 10.161.89 21.078 7.65 29.833 3.272-2.56 6.077-6.05 8.414-9.775-4.544-7.92-5.97-16.936-4.759-25.346M14.385 9.606l-.267.217c.09-.071.177-.146.267-.217m-2.588 2.324A28.5 28.5 0 0 0 3.5 32a28.5 28.5 0 0 0 4.186 14.82c4.419-1.193 8.621-3.204 12.396-5.858-6.288-8.724-9.11-18.951-8.285-29.032m21.071 3.86q-2.283.004-4.606.265c.701 4.19 2.102 8.381 4.44 12.338 10.422.226 19.738 4.176 26.899 10.568A28.5 28.5 0 0 0 60.5 32a28.5 28.5 0 0 0-.69-6.073c-7.253-6.41-16.733-10.16-26.942-10.136m26.5 8.3c.083.285.15.577.225.866a29 29 0 0 0-.226-.866M32.7 30.72c-5.475 9.09-14.073 15.286-23.61 18.174a28.5 28.5 0 0 0 8.238 7.498c12.301-2.527 22.96-11.028 28.227-23.346-3.973-1.396-8.412-2.326-12.853-2.326m14.957 3.493C42.64 46.028 32.493 54.72 20.708 58.159A28.5 28.5 0 0 0 32 60.5a28.5 28.5 0 0 0 26.733-18.717c-3.153-3.009-6.902-5.602-11.075-7.57m11.787 5.36a28 28 0 0 1-.476 1.556 29 29 0 0 0 .476-1.556m-51.642 7.45a29 29 0 0 0 .78 1.164c-.266-.384-.534-.766-.78-1.163m10.178 9.77a29 29 0 0 0 .57.32 32 32 0 0 1-.57-.32" style="fill:#ccc;stroke-width:1.42499"/></svg>