<svg xmlns="http://www.w3.org/2000/svg" width="64" height="64" fill="none"><path fill="#CCC" d="M60.857 26.98C58.056 18.153 50.27 11.044 41.098 9.437c-8.45-1.653-17.732 1.666-22.949 8.578-4.937 6.262-6.026 15.374-2.36 22.509 3.22 6.623 10.438 11.136 17.838 10.792 6.83-.158 13.403-4.622 15.784-11.072 2.459-6.171.622-13.841-4.672-17.961-4.161-3.426-10.278-4.205-15.14-1.85-6.296 2.328-9.696 10.17-6.99 16.349 2.43 6.471 10.675 9.73 16.87 6.646 2.382-1.312 3.4-2.329 4.337-3.206-2.915 5.08-9.59 7.27-15.05 5.372-6.288-1.95-10.476-8.543-10.079-15.036.224-6.798 5.046-12.996 11.393-15.271 7.03-2.706 15.417-.635 20.665 4.686 5.97 5.797 7.921 15.085 5.247 22.901-2.783 8.699-10.797 15.252-19.748 16.722-9.806 1.799-20.25-2.34-26.518-10.012C4.77 43.707 3.21 35.435 4.393 27.966 6.171 16.28 15.93 6.42 27.572 4.462 38.3 2.389 49.936 7.118 56.152 16.114a28.6 28.6 0 0 1 4.705 10.867"/></svg>