<svg xmlns="http://www.w3.org/2000/svg" width="64" height="64"><path d="M32 46.901c-3.21-4.03 6.36-7.561 5.734-10.583-2.87-11.196-4.84-10.708-7.71.488-.693 3.085 2.103 2.517-1.041 6.484zm17.578 9.317c-5.352 2.33-10.646-1.384-15.179-6.421 13.22-16.549 5.867-25.446-2.398-25.446-6.988 0-10.835 5.917-9.324 12.786.882 3.714 3.21 7.938 6.925 12.66-4.138 4.587-7.703 6.704-10.833 6.988-6.362.945-11.338-5.225-9.072-11.59 1.921-4.982 14.214-29.413 14.742-30.734 2.004-3.826 3.252-7.303 7.555-7.303 4.115 0 5.522 3.3 7.681 7.617 4.58 8.985 11.368 22.581 14.612 30.42 1.675 4.208-.175 9.07-4.71 11.023m5.98-17.318C39.16 4 38.252 3.5 32 3.5c-5.792 0-8.254 4.03-10.772 9.261C7.722 39.774 6.413 43.602 6.3 43.935 3.091 52.756 9.702 60.5 17.704 60.5c2.762 0 7.711-.771 14.297-7.94 7.466 8.115 12.883 7.94 14.297 7.94 8.001.006 14.612-7.744 11.4-16.565.004-.494-2.14-4.949-2.14-5.035z" style="fill:#ccc;stroke-width:.127231"/></svg>