<svg xmlns="http://www.w3.org/2000/svg" width="64" height="64"><path d="M24.808 14.19a1.78 1.78 0 0 0-1.454.855L3.762 47.105c-.72 1.185.13 2.703 1.517 2.707h53.434a1.78 1.78 0 0 0 1.635-2.498L47.88 18.816a1.781 1.781 0 0 0-3.27.014l-7.041 16.322-11.14-20.044a1.78 1.78 0 0 0-1.62-.919m.068 5.343 4.88 8.905H24.87L21.308 32l-2.574-2.575zm21.374 3.562 4.148 10.388-4.153 2.08-4.098-2.046zM17.155 32h.592l3.562 3.562L24.87 32h6.867l4.383 7.882q.074.178.181.334l3.354 6.033H8.45Zm34.523 4.404 4.307 9.845H43.733l-3.987-7.167 1.141-2.637 5.358 2.68z" style="fill:#ccc;stroke-width:3.56226"/></svg>