<svg xmlns="http://www.w3.org/2000/svg" width="64" height="64"><path d="M32 3.5C16.26 3.5 3.5 16.26 3.5 32a28.5 28.5 0 0 0 9.914 21.59c-.89-1.59-1.36-3.38-1.364-5.203 0-5.902 4.785-10.687 10.687-10.687 5.903 0 10.688 4.785 10.688 10.688A10.687 10.687 0 0 1 23.119 59.06 28.5 28.5 0 0 0 32 60.5c15.74 0 28.5-12.76 28.5-28.5S47.74 3.5 32 3.5m0 4.445A24.16 24.16 0 0 1 56.225 32.17c0 12.275-9.052 22.246-20.857 23.888 1.346-2.243 2.33-4.718 2.332-7.498v-.003c0-8.213-6.75-14.962-14.963-14.962-5.651 0-10.44 3.312-12.983 7.982-1.25-2.95-1.977-6.128-1.979-9.407v-.003A24.16 24.16 0 0 1 32 7.945" style="fill:#ccc;stroke-width:1.425"/></svg>