<svg xmlns="http://www.w3.org/2000/svg" width="64" height="64"><path d="M20.6 3.5c-9.473 0-17.1 7.627-17.1 17.1v22.8c0 9.473 7.627 17.1 17.1 17.1h22.8c9.473 0 17.1-7.627 17.1-17.1V20.6c0-9.473-7.627-17.1-17.1-17.1ZM32 9.2A22.8 22.8 0 0 1 54.8 32 22.8 22.8 0 0 1 32 54.8 22.8 22.8 0 0 1 9.2 32 22.8 22.8 0 0 1 32 9.2m-8.219 4.626a19.9 19.9 0 0 0-10.27 10.676c1.916 1.67 8.823 7.701 9.38 8.191l1.01.888.59.518.415-.026c.228-.012.983-.063 1.678-.114.695-.05 1.571-.11 1.945-.133s.752-.05.84-.061c.09-.013.47-.043.844-.064s1.046-.067 1.492-.1c.446-.034 1.29-.093 1.879-.131 1.5-.1 1.34.005 1.285-.822-.115-1.736-.246-3.65-.473-6.888-.05-.73-.112-1.65-.136-2.043l-.045-.712-.3-.295c-.165-.162-.502-.47-.752-.688l-1.555-1.358-1.361-1.186c-.143-.121-.463-.4-.713-.62-.25-.221-1.301-1.14-2.335-2.043-1.034-.902-2.535-2.217-3.337-2.92zm14.732 19.607c-.455-.025-.597-.002-.95.159-1.042.475-1.547 1.647-1.154 2.68.216.571.782 1.144 1.305 1.317 1.026.34 2.109-.11 2.622-1.086.278-.528.285-1.32.02-1.859-.38-.765-.984-1.163-1.843-1.21" style="fill:#ccc;stroke-width:1.425"/></svg>