<svg xmlns="http://www.w3.org/2000/svg" width="64" height="64"><path d="M32 3.5A28.44 28.44 0 0 0 3.5 32 28.44 28.44 0 0 0 32 60.5 28.44 28.44 0 0 0 60.5 32 28.44 28.44 0 0 0 32 3.5m0 8.55c11.018 0 19.95 8.932 19.95 19.95S43.018 51.95 32 51.95 12.05 43.018 12.05 32 20.982 12.05 32 12.05m-1.998 3.813c-.585.06-1.17.101-1.737.217-1.137.233-2.217.538-3.262.98-4.994 2.112-8.76 6.492-10.103 11.84.034.037.072.068.111.11.937 1.002 3.39 2.381 5.21 3.04.996.36 2.926.927 4.242 1.197s2.19.535 2.06.545-.718.448-1.303.975c-1.116 1.003-1.688 1.89-2.17 3.479-.265.87-.24 1.16.105 1.63.208.284 1.14.948 2.065 1.52s2.008 1.363 2.394 1.737c1.436 1.392 2.388 3.882 2.388 6.301 0 .619.066.945.111 1.085.118.01.205-.01.323 0 .266-.102.669-.222 1.302-.54 5.311-2.658 7.738-6.094 7.498-10.648-.19-3.632-1.893-4.949-8.8-6.413-5.086-1.078-7.82-2.905-7.82-5.21 0-.607.203-.967.867-1.63.714-.714.863-.762 1.414-.652.352.07 1.257.533 1.954 1.086 1.57 1.243 2.339 1.736 3.15 1.736.347 0 .652-.054.652-.106 0-.051-.256-.45-.54-.868-1.568-2.31-1.472-6.635.217-10.326.265-.579.462-.974.434-1.085-.234.014-.53-.024-.762 0m16.298 8.15c-.316-.196-2.888 2.508-3.479 3.695-1.171 2.355-.73 3.891 2.065 6.841.969 1.022 2.135 2.399 2.5 3.045.364.647.677 1.178.762 1.086.086-.093.34-.837.54-1.631.527-2.087.568-5.72 0-7.821-.44-1.627-1.98-4.963-2.388-5.216" style="fill:#ccc;stroke-width:1.425"/></svg>