<svg xmlns="http://www.w3.org/2000/svg" width="64" height="64"><path d="M32 3.5A28.5 28.5 0 0 0 3.5 32 28.5 28.5 0 0 0 32 60.5 28.5 28.5 0 0 0 60.5 32 28.5 28.5 0 0 0 32 3.5m-1.425 5.7c1.124.01 2.246.103 3.357.278-1.574.4-3.357 1.375-3.357 3.852 0 4.42 5.7 4.42 5.7 4.42s2.85 0 2.85 2.85-2.85 2.85-2.85 2.85h-11.4s-5.7-.087-5.7 4.23 5.7 4.32 5.7 4.32h8.55s5.7.136 5.7 4.342-5.7 4.208-5.7 4.208h-5.7s-2.85 0-2.85 2.85 2.85 2.85 2.85 2.85h2.85s2.85 0 2.85 1.553c0 1.297-2.85 1.297-2.85 1.297h-5.7s-2.85-.001-2.85 1.614c0 1.235 2.85 1.236 2.85 1.236h5.7s2.85.314 2.85 1.58c0 1.268-2.85 1.27-2.85 1.27-12.592 0-22.8-10.208-22.8-22.8s10.208-22.8 22.8-22.8" style="fill:#ccc;stroke-width:2.85"/></svg>