<svg xmlns="http://www.w3.org/2000/svg" width="64" height="64"><path d="M32 3.5A28.5 28.5 0 0 0 3.5 32 28.5 28.5 0 0 0 32 60.5 28.5 28.5 0 0 0 60.5 32 28.5 28.5 0 0 0 32 3.5m0 8.55A19.95 19.95 0 0 1 51.95 32 19.95 19.95 0 0 1 32 51.95 19.95 19.95 0 0 1 12.05 32 19.95 19.95 0 0 1 32 12.05m-6.554 9.975c-4.238.002-7.696 3.183-7.696 7.125 0 2.051.929 3.922 2.419 5.224l11.639 10.451 12.023-10.45c1.49-1.302 2.419-3.173 2.419-5.225 0-3.942-3.46-7.125-7.698-7.125-2.793 0-5.21 1.37-6.552 3.443-1.343-2.072-3.76-3.442-6.552-3.443Z" style="fill:#ccc;stroke-width:1.425"/></svg>