<svg xmlns="http://www.w3.org/2000/svg" width="64" height="64"><g style="fill:#ccc"><path d="M32.072.361A31.82 31.82 0 0 0 .252 32.18 31.82 31.82 0 0 0 32.072 64a31.82 31.82 0 0 0 31.82-31.82A31.82 31.82 0 0 0 32.073.36m-3.968 11.803h8.125q2.812 0 5.125 1.906 2.312 1.907 2.312 4.688v33.437H38.01v-17H26.135v17h-5.656V18.758q0-2.844 2.375-4.719t5.25-1.875m.375 4.938q-1.22 0-1.782.78-.562.782-.562 1.907v10.594H38.01V19.789q0-1.125-.656-1.906-.625-.781-1.813-.781z" style="fill:#ccc;fill-opacity:1;stroke:none;stroke-width:1.97198;stroke-miterlimit:4;stroke-dasharray:none;stroke-dashoffset:0;stroke-opacity:1" transform="translate(3.274 3.176)scale(.89565)"/></g></svg>