<svg xmlns="http://www.w3.org/2000/svg" width="64" height="64"><path d="M32 3.5c-11.018 0-19.95 8.932-19.95 19.95C12.05 43.4 23.45 60.5 32 60.5s19.95-17.1 19.95-37.05C51.95 12.432 43.018 3.5 32 3.5M16.999 33.428c.239.01.555.055.976.117 3.53.517 6.35 2.4 8.414 5.619 1.105 1.724 2.953 6.374 2.744 6.908-.075.194-.231.215-1.04.136-3.306-.323-6.588-1.974-8.668-4.358-1.932-2.217-2.812-4.283-3.061-7.18-.086-1.007-.083-1.275.635-1.242m30.002 0c.718-.033.721.235.635 1.241-.249 2.898-1.129 4.964-3.061 7.18-2.08 2.385-5.362 4.036-8.667 4.36-.81.078-.966.057-1.041-.137-.209-.534 1.639-5.184 2.744-6.908 2.064-3.22 4.884-5.102 8.414-5.62.42-.061.737-.105.976-.116" style="fill:#ccc;stroke-width:1.425"/></svg>