<svg xmlns="http://www.w3.org/2000/svg" width="64" height="64"><path d="M32 3.5A28.44 28.44 0 0 0 3.5 32 28.44 28.44 0 0 0 32 60.5 28.44 28.44 0 0 0 60.5 32 28.44 28.44 0 0 0 32 3.5m.662 7.395c5.068.085 9.678 2.167 13.841 6.234.56.56 1.295 1.084.56 2.03-.14.14.071.28.211.42 1.715 2.38 2.87 5.04 3.396 7.91.07.28.28.422.49.562 1.435.735 2.17 1.959 2.17 3.604 0 1.435.138 2.87-.072 4.305-.35 2.1-2.448 3.537-4.478 3.082-.56-.14-.807-.56-.807-1.156 0-2.38.07-4.761 0-7.141-.21-6.406-3.01-11.237-8.575-14.317-9.171-5.04-21.072.666-23.067 11.097-.35 1.785-.282 3.675-.282 5.46 0 1.715 0 3.395-.07 5.11 0 .56-.347.947-1.012.947-2.625.14-4.342-1.507-4.342-4.167.07-.42.07-.945.07-1.645.07-.665-.07-1.435.07-2.24.21-1.295.945-2.31 2.1-2.87.28-.14.42-.28.49-.665.49-2.8 1.646-5.39 3.326-7.701.21-.28.35-.42.07-.804-.28-.42-.071-.878.209-1.228 2.38-2.66 5.182-4.62 8.508-5.705q3.74-1.18 7.194-1.122M21.75 32.005c.4.029.823.162 1.253.41 1.18.574 3.336 2.17 4.987 3.67 1.585 1.437 2.766 2.81 2.564 3.8-.203.99-.877 1.595-1.787 1.915-.708.287-3.978.126-4.787.158-1.45-.127-2.628-.67-3.47-1.915-1.18-1.755-1.585-3.734-1.18-5.841.252-1.437 1.224-2.282 2.42-2.196m19.502 2.845c1.223 0 2.087.819 2.143 2.11.064 1.406-.383 2.744-1.31 3.807-.736.858-1.728 1.268-3.04 1.2-.991-.069-1.92-.275-2.91-.412-.353-.069-.673-.137-.897-.24-1.76-.583-2.366-2.127-1.247-3.259.8-.754 1.792-1.337 2.911-1.817 1.248-.48 2.432-1.133 3.808-1.339q.282-.05.542-.05" style="fill:#ccc;stroke-width:1.425"/></svg>