<svg xmlns="http://www.w3.org/2000/svg" width="64" height="64"><path d="M24 4A19.95 19.95 0 0 0 4.037 22.81L4 22.847V40c0 2.216 1.784 4 4 4h16.154l.002-.004A19.953 19.953 0 0 0 44 24c0-11.08-8.92-20-20-20m-10.5 8.5 10 2 7.5 13-7.998 5.5-1.502-7.5 2 10-5.5 4 3.5-14zM33.115 21 35 25l-3.09-.482Z" style="fill:#ccc" transform="matrix(1.425 0 0 1.4221 -2.2 -2.13)"/><path d="M27.206 21h5.91L31 27.5Z" style="fill:#fff" transform="matrix(1.425 0 0 1.4221 -2.2 -2.13)"/><path d="M24 4A19.95 19.95 0 0 0 4.037 22.81L4 22.847v1l.037-.035A19.95 19.95 0 0 1 24 5a19.95 19.95 0 0 1 19.988 19.5c.004-.167.012-.332.012-.5 0-11.08-8.92-20-20-20" style="opacity:.1;fill:#fff" transform="matrix(1.425 0 0 1.4221 -2.2 -2.13)"/></svg>