<svg xmlns="http://www.w3.org/2000/svg" width="64" height="64"><g style="fill:#ccc"><path d="M25.48 4c-5.238 0-9.484 3.478-9.484 9s4.598 8.643 9 10c4.305 1.327 9.969 5.478 9.969 11s-4.246 10-9.485 10c10.225 0 18.516-8.955 18.516-20S35.706 4 25.48 4m.52 6a4 4 0 0 1 4 4 4 4 0 0 1-4 4 4 4 0 0 1-4-4 4 4 0 0 1 4-4" style="fill:#ccc" transform="translate(-2.191 -2.198)scale(1.42493)"/><path d="M22.51 4C12.285 4 3.994 12.955 3.994 24s8.29 20 18.516 20c5.238 0 9.484-3.478 9.484-9s-4.597-8.643-9-10c-4.304-1.327-9.969-5.478-9.969-11S17.272 4 22.51 4M22 32a4 4 0 0 1 4 4 4 4 0 0 1-4 4 4 4 0 0 1-4-4 4 4 0 0 1 4-4" style="fill:#ccc" transform="translate(-2.191 -2.198)scale(1.42493)"/></g></svg>