<svg xmlns="http://www.w3.org/2000/svg" width="64" height="64"><path d="M24 10.05A13.95 13.95 0 0 0 10.05 24 13.95 13.95 0 0 0 24 37.95 13.95 13.95 0 0 0 37.95 24 13.95 13.95 0 0 0 24 10.05m5.01 4.764A10.46 10.46 0 0 1 34.463 24h-6.975a3.49 3.49 0 0 1-1.465 2.834l4.05 5.67A10.46 10.46 0 0 1 24 34.464a10.46 10.46 0 0 1-6.076-1.955l4.05-5.674A3.49 3.49 0 0 1 20.511 24h-6.975a10.46 10.46 0 0 1 5.456-9.176l3.338 6.117a3.5 3.5 0 0 1 1.67-.429 3.5 3.5 0 0 1 1.669.426h.003zM24 22.256A1.744 1.744 0 0 0 22.256 24 1.744 1.744 0 0 0 24 25.744 1.744 1.744 0 0 0 25.744 24 1.744 1.744 0 0 0 24 22.256" style="fill:#ccc;fill-opacity:1;stroke:none;stroke-width:1.74382;stroke-miterlimit:4;stroke-dasharray:none;stroke-opacity:1" transform="translate(-2.2 -2.2)scale(1.425)"/><path d="M24 4A20 20 0 0 0 4 24a20 20 0 0 0 20 20 20 20 0 0 0 20-20A20 20 0 0 0 24 4m0 4a16 16 0 0 1 16 16 16 16 0 0 1-16 16A16 16 0 0 1 8 24 16 16 0 0 1 24 8" style="fill:#ccc" transform="translate(-2.2 -2.2)scale(1.425)"/></svg>