<svg xmlns="http://www.w3.org/2000/svg" width="64" height="64"><path d="M20.6 3.5c-9.473 0-17.1 7.627-17.1 17.1v22.8c0 9.473 7.627 17.1 17.1 17.1h22.8c9.473 0 17.1-7.627 17.1-17.1V20.6c0-9.473-7.627-17.1-17.1-17.1Zm17.799 10.003c.539-.083 1.086.023 1.664.306.927.453 2.186 1.615 2.8 2.583 1.147 1.81 7.085 13.862 8.505 17.033h-12.66l-.393-.39-7.606-8.995 2.351-4.336c2.169-3.998 3.721-5.951 5.339-6.201m-14.061 9.399c.778-.106 1.471.307 2.613 1.394 2.374 2.27 6.139 6.658 7.924 9.129H13.113c1.753-2.604 5.175-6.53 8.1-8.806 1.484-.988 2.346-1.612 3.125-1.717M12.559 36.275h23.048c-.49 1.136-1.432 3.155-2.783 5.867-5.264 10.562-6.943 12.376-9.878 10.676-1.74-1.007-3.249-3.187-6.162-8.895-1.332-2.61-2.943-5.559-3.579-6.549a19 19 0 0 1-.646-1.099m26.277 0h11.892l-2.048 2.9c-3.482 4.93-4.396 7.139-7.601 7.34-1.405.087-3.731-1.385-5.812-3.165z" style="fill:#ccc;stroke-width:1.425"/></svg>