<svg xmlns="http://www.w3.org/2000/svg" width="64" height="64"><path d="M32 3.5c-1.492 0-2.987.557-4.103 1.673L5.173 27.899c-2.232 2.232-2.23 5.967.003 8.199L27.9 58.825c2.232 2.232 5.972 2.234 8.204.002l22.721-22.726c2.232-2.232 2.232-5.97 0-8.202L36.104 5.173C34.988 4.057 33.494 3.5 32 3.5m0 4.071c.57 0 1.14.211 1.565.637l8.654 8.66c.85.85.85 2.272 0 3.122l-8.654 8.66c-.85.85-2.275.847-3.126-.003l-8.657-8.657c-.85-.85-.853-2.272-.002-3.123l8.657-8.66A2.2 2.2 0 0 1 32 7.572M18.43 21.143c.568 0 1.135.21 1.56.636l8.66 8.657c.425.425.636.995.636 1.564s-.21 1.139-.636 1.564l-8.66 8.654a2.23 2.23 0 0 1-3.122 0l-8.66-8.654c-.85-.85-.847-2.275.003-3.125l8.657-8.657a2.2 2.2 0 0 1 1.561-.64m27.142 0c.568 0 1.136.21 1.561.636l8.66 8.657c.425.425.636.995.636 1.564s-.21 1.139-.636 1.564l-8.66 8.654a2.23 2.23 0 0 1-3.122 0l-8.66-8.654c-.85-.85-.848-2.275.003-3.125l8.657-8.657a2.2 2.2 0 0 1 1.561-.64m-13.57 13.573c.568 0 1.138.211 1.564.636l8.654 8.66c.85.85.85 2.272 0 3.123l-8.654 8.66c-.85.85-2.275.847-3.126-.003l-8.657-8.657c-.85-.85-.853-2.273-.002-3.123l8.657-8.66A2.2 2.2 0 0 1 32 34.714" style="fill:#ccc;stroke-width:1.35714"/></svg>