<svg xmlns="http://www.w3.org/2000/svg" width="64" height="64"><path d="M32 3.5A28.5 28.5 0 0 0 3.5 32 28.5 28.5 0 0 0 32 60.5 28.5 28.5 0 0 0 60.5 32 28.5 28.5 0 0 0 32 3.5m-2.803 6.354c.583.569 1.068 4.098 1.428 3.51.027-1.035-1.34-4.279.056-2.14.422 2.073.546 4.2.775 6.288.616-2.026.436-4.216.103-6.18.297 1.558.455.553.667-.259.004 1.853.39 1.165.753.69.17.95-1.844 4.268.21 2.507.97-.744.063-3.161.705-3.484.413 1.889.01 3.496-.27 5.428.308 1.226-.874 3.758-.076 3.387-.146 1.915-1.178 3.642-.934 5.618.022 2.913-.035 5.845.228 8.745 1.057-2.164.895-4.814 1.518-7.16 1.191-5.218.252-10.585.566-15.864.369.679.32 3.843.759 1.322.499 1.575-.589 4.247-.176 6.243.924-1.187 1.17-3.05 1.297-4.6-.15-.867 1.02-3.216.58-1.038-.367 2.152-.613 4.36-1.422 6.396.628-.404 1.826-3.555 1.135-1.018-.46 1.208-1.477 3.194-.067 1.766 1.123-1.555 2.087-3.527 1.403-5.47.296-2.772.365 3.001.862.401.591-1.673.591.992-.05 1.47-.76 1.889-1.864 3.665-2.53 5.577.005.989-.294 3.3.937 1.4-.127 2.12-2.491 3.32-2.733 5.322.594-.837 1.545-2.341.842-.388 1.212-1.21 1.888-3.093 2.667-4.68 1.606-2.98 1.162-6.545 2.505-9.593-.164.974-.69 3.466.323 1.291.28 1.15-1.637 3.918-1.026 5.147.665-.845 2.667-3.047 1.118-.926-1.05 1.718-2.36 3.262-3.012 5.197-.483 1.602-2.522 3.9-1.975 5.107 2.076-1.338 2.124-4.167 3.037-6.273.845-1.284-1.333 4.246.168 1.305 1.494-2.796 3.524-5.64 3.197-8.974-.032-1.328.4.63.744-.9.025 1.016-.566 3.611.38 1.408.21-1.245 1.448-2.03.574-.315-.583.734-.762 2.19.196.689 1.585-2.318.005.785-.7 1.523-1.278 1.374-2.03 3.236-3.12 4.82-.882 1.723-2.074 3.899-2.487 5.462 1.704-1.246 2.512-3.338 3.922-4.879.943-1.03 1.135-2.778 2.002-2.753.866-.807 1.66-3.651 2.048-1.758-1.333 1.181-2.834 2.856-3.303 4.397 1.487-.473 2.325-2.523 3.057-2.037 1.027-1.29 2.225-1.274 3.367-2.223-.743 1.92-2.694 2.818-3.417 4.865-.742 1.254 1.308-.116.042 1.172-.458.942-.946 2.26.455.95.956-1.12 3.194-.757 3.9-2.3.23-1.046 1.328-2.815.638-.678-.368 1.159.33 1.093-.678 2.184-1.593 2.6 2.969-2.728 1.016-.034-1.654 1.728 1.684-.861.99.527-2.027.443-3.034 2.444-4.636 3.655-2.043 1.657 1.55.565 1.93.513 1.125.182 3.256-1.343 3.152-.29-.679.347-4.284.679-1.712.881 1.352.013.58 1.166-.458.343-1.888-.609-3.65.286-5.459.503-1.272.459-2.265 2.53.009 2.033 1.282.318 3.406.152 4.134-.396-1.523 1.258 2.294.273 2.99.616 2.152.318-1.113.184-1.863.307-.846.872-4.68 1.822-1.825.53 1.904-.758-1.819-.367-2.466-.555-1.022-.75-4.275.438-2.454 1.398.806.65 3.369.16 3.347.217-.044 1.686 3.156-.76 3.576-.276-1.414.495-1.323 1.194.187 1.138 1.649-.461 1.938 1.54.29.46-2.398-.326-4.85-.348-7.227-.906-1.57-.328-4.24 3.428-1.122 2.856 1.501.446 3.92-.201 4.91.268-1.089-.041-3.548.26-1.05.639.677.248 3.322.31 1.292.708.482.764 4.109 1.643 1.63 1.239-1.759-.922-3.192-1.197-4.773-1.93-1.341-.433-4.616-1.066-4.904.54.88 2.102 2.615 3.526 4.97 2.642 1.142-.095.06.28.522 1.055-.983-.857-3.936-.44-1.676.753.94.28 2.993 2.252 1.037.848-1.645-1.227-.906.318-.49 1.222-1.253-.728-2.137-3.152-3.287-3.54-.31 1.324 1.78 3.566 1.417 3.796-2.221-1.176-1.652-3.532-2.385-5.528-1.112-2.055-4.772 1.724-2.672 2.758.287.854 3.756 3.021 1.359 1.889-.954-.932-2.03-.814-1.066.61.55.83 1.065 2.703.045.835-.608-1.04-1.612-5.146-2.63-2.24-.758 2.488-1.779 5.523-.207 7.902-1.283 1.042-3.768.445-5.445.374-1.715-.448.755-2.785.15-4.137-.2-1.89.906-5-1.408-5.84-2.007.23-2.753 2.369-4 3.754-.885 1.018 1.06-1.906-.553-.929-1.333.477-1.88.195-.237-.2 1.229.014 1.965-1.323.82-1.504 1.115-1.035 5.395-1.366 3.203-3.473-.534-1.142-2.126-2.725-2.835-.985-1.338.155-1.551 3.859-2.354 2.583-.792 1.533-.962 3.37-2.722 4.16.183-.234 2.176-2.713 1.498-3.401-.922 1.068-1.55.243-2.525.881 1.25-.984 3.915-1.425 3.769-3.258-1.3-.537-2.874 2.68-3.32 1.585.118-1.129-3.142 2.567-2.03.739-2.113.13 2.055-1.135 1.843-1.794 1.364-1.07 4.27-.408 4.795-2.148-1.912-1.015-4.266-.87-5.869.645-.496.305-2.142 1.416-1.026.234-3.19.21 3.547-1.054.254-1.236-.107.084 3.674-.746 1.445-1.436-1.68-1.077-4.738-.344-5.808-1.002.948-.334 3.838.25 1.682-.917-1.58-.982 1.582.524 2.059.666.823.47 2.484.718 1.068-.426-1.022-1.431 1.69 1.69 2.538 1.687 1.262-.094 4.011.093 4.497-.798-1.549-1.648-3.837-2.335-5.794-3.38-2.163-.102-4.376.395-6.572.669-.226-.765 2.948-.656 3.945-.929.644-.977-2.858-1.458-3.964-1.573-.951.235-.993-.822-.982-.787 1.165.325 5.194 1.534 2.589-.48.295-1.478-4.554-3.153-1.29-2.153-.46-.653-1.307-2.217.029-.854 1.27 1.623 2.318 3.663 4.156 4.692.703.538 3.256 1.056 1.45-.19-1.487-.735-1.44-1.675-2.624-2.803 1.933.632 2.689 2.81 4.298 3.939 1.588.404 3.003 2.086 4.419 2.243-.619-2.162-3.136-2.46-4.603-3.867-.98-.506-1.646-.867-.178-.55 1.346.458 2.133 1.656 3.746 2.14-1.454-1.544-3.155-3.396-5.208-4.01-1.4-.094-4.478-1.38-4.605-1.836 1.245.367 4.494 2.24 4.783.859-.517-1.19-3.025-1.624-3.043-2.243.92.595 2.277.556.723-.416-.85-.484-2.914-2.216-.854-1.02 2.087 1.347-2.232-3.083-.123-1.083.898.767 2.562 3.322 2.912 2.951-.45-.937-1.197-3.292-.167-1.124.859 2.291 2.214 4.452 4.343 5.752-.05-1.519-1.667-3.292-2.722-4.661-.763-.888-1.527-2.581-.165-.831.322 1.11 1.906 2.131.843.401-.64-1.54-3.122-2.845-3.309-3.977 1.192 1.33.34-.663.75-.218.097 1.152 2.095 3 1.789 1.819.437.781 1.386 1.753.658.15-.584-1.133-.61-2.087.114-.443.321 2.542 2.842 3.748 4.385 5.526.639.79 2.224 1.789 1.035.153-.59-1.616-3.366-3.264-3.626-4.064.678.745 2.736 1.888 1.197.123-1.635-1.709-3.212-3.538-5.317-4.675-1.032-.565-1.541-1.593-.131-.419 1.945 1.344-2.75-3.243-.773-1.76 1.773 1.552 3.097 3.578 5.06 4.926 1.705.9-.417-2.178-1.012-2.644-.82-1.193-3.471-2.73-3.085-3.599 1.101.638-1.78-2.742-.12-1.325.812 1.025.694.372.329-.432 1.24 1.311 1.989 3.843 3.367 4.544-.352-1.002-.405-2.242-1.08-3.08-.675-.605-2.164-2.3-.421-.942 1.502 1.178 1.67 3.351 2.39 5.043.498 1.341 1.213 4.061 1.889 4.533.348-1.626-.74-3.136-.53-4.717.35 1.443 1.278 2.573 2.31 3.604.611 1.01 1.92 1.715.733.125-1.921-2.924-4.208-5.679-5.291-9.063-.58-.69-2.419-1.505-.433-.834-.278-2.458 1.903 3.628 1.158.447-.343-.973-.44-2.03 0-.514.716 2.49 1.491 5.16 3.264 7.116-.076-1.79-1.57-2.898-1.309-4.12-.384-1.244-1.218-2.737-1.4-3.785.724 1.214.58.227.232-.474 1.249-.191 1.376 2.804 2.173 2.884-.057-.782-1.523-3.283-.885-3.205 1.117 2.014 1.456 4.51 3.13 6.187.606.876 1.886 2.62 1.049.572-.881-2.301-1.896-4.611-3.696-6.352-1.26-1.933 2.204 2.256.946-.267-1.127-1.439.465-.941.42.365.194 1.026 1.015 1.887.581.176.101-.251 1.146 4.873 1.015 1.944.242-2.07-1.609-3.248-1.81-5.13.669 2.072.985-2.107 1.024.204.034.951.298 2.086.75 1.587.319 2.063.212 4.215 1.021 6.179-.045-1.047-.575-4.164.402-1.894.728 2.47.462-2.142-.229-2.893.248-1.405-1.837-2.836-1.208-3.473.957.557 1.196 2.427 1.587 2.778.296-.944-.696-4.228.22-1.763.892 2.307.412-.3.227-1.286m-4.968 1.766c.075.026.687.892.164.338-.156-.262-.19-.347-.164-.338m5.118 1.289a.4.4 0 0 0-.181.003c.086 1.917.696 3.622 1.397 5.512.088-.297.073-.608.092-.912.206-1.233-.413-4.414-1.308-4.603m15.861 1.894c.101-.046.144.357-.111.231.037-.152.077-.216.111-.231m-12.056.045c-.171-.001-.588 1.884-.07 1.291l.056-.22.059-.28c.04-.58.012-.791-.045-.791m-13.208.499c.061-.086.594 1.12.15.628-.137-.426-.17-.6-.15-.628m3.635.438c-.008 2.06 1.606 2.31 2.306 4.053.196.253.7.718 1.019.563-1.147-1.51-2.15-3.13-3.325-4.616m8.602.374c-.01 1.839-.806 4.251-.075 5.749.1-.29.152-.596.21-.896.12-1.424.395-4.223-.135-4.853m-2.84 1.495c-.12-.034-.22.177-.27.82-.21 1.275-.33 2.604.31 3.774.336.891 1.136 3.544 1.127 1.066 1.168.125.642 4.521 1.461 4.683.333-3.14-.434-6.28-1.966-9.021-.197-.53-.46-1.266-.661-1.322m15.117 1.3c.111-.062.115.222-.232.962.154-.115-.22.368-.187.153.086-.645.307-1.053.419-1.115M25.782 20.76c-.462-.01-.598.376.106 1.428 1.47 2.643 2.94 5.287 4.288 7.995.312.183.26-.833.376-.985.597-2.322-1.304-4.282-2.097-6.32-.222-.982-1.902-2.102-2.673-2.118m21.287.513c-.569.098-2.089 2.056-.38.575l.243-.198.31-.287c-.03-.078-.092-.103-.173-.09m1.035 2.087c.077.015.18.097.332.257.728-.206-1.936 3.06-.907.998.347-.752.343-1.299.575-1.255m-4.252.31c-.124-.053-.414.106-.954.6-1.85 1.17-2.499 3.514-4.055 4.99-.162.228-1.956 2.75-.65 2.064 1.77-1.302 3.539-2.748 4.452-4.804.452-.63 1.581-2.692 1.207-2.85m-19.688.415c-.496 2.385 1.065 4.737 3.674 4.31l.223-.003.062-.05c-1.123-1.448-2.566-3.515-3.959-4.257m20.439.103c-.083.065-.234.275-.474.7-.438.616-1.297 2.698-.265.99l.167-.267c.452-.508.821-1.617.572-1.423m-30.947 1.3c.085-.055.791.335.196.237-.18-.152-.224-.218-.196-.237m35.745.031c-1.965.654-4.16 1.524-4.868 3.657-.565 1.01-.672 3.154.65 1.414l.218-.24c.529-.789 1.048-.892.482.201 1.694-.824 4.026-3.527 3.518-5.032m-28.749 1.635c.878 2.316 1.827 4.752 3.54 6.586 1.454.337-1.062-1.926-1.302-2.756-.618-1.658 1.617 1.413 1.924 1.975 1.438 2.01 3.411 3.576 4.854 5.592.348.562.437-.349.351-.46-.425-3.174-2.627-5.814-5.21-7.57-1.425-.978-2.68-2.87-4.157-3.367m5.644 1.738c-.769.147 1.322 2.282 1.567 2.926.702.807 1.804 2.96 2.355 2.862l-.02-.276-.03-.327c.058-2.208-.858-4.749-3.354-5.116-.24-.07-.409-.09-.518-.07m17.16.357c-1.022 1.013-2.31 2.683-2.413 3.924.51.087 1.203.529 1.685.162.211-1.067 1.76-3.798.728-4.086m-2.167.214c-1.126.754-2.54 2.407-2.67 3.387.294-.045.591-.047.887-.05 1.45.293 2.745-2.974 1.783-3.337m-30.461.028c.123.028.385.423-.045.134-.02-.11.004-.143.045-.134m.845.65c.205-.042 1.2.233 1.548.614-.259.032-.51-.08-.753-.148-.755-.3-.917-.44-.795-.466m25.22.307c-1.292 1.167-2.322 2.88-2.357 4.611l.304-.251c.958-1.197 2.434-2.822 2.053-4.36m-21.524.257c.19.063.965.779.087.226-.15-.196-.15-.247-.087-.226m36.121 2.583c.692-.015 1.264.535-.142.312l-.254-.014-.268-.047a.98.98 0 0 1 .664-.251m-40.277.039c.22-.042 1.678.453.343.268-.352-.178-.416-.254-.343-.268m30.606.538c-.928-.09-2.382.658-2.932 1.21-.16.46-3.286 3.32-1.322 2.464 1.452-1.37 4.123-1.56 4.954-3.264-.14-.255-.39-.38-.7-.41m10.976 1.21c.375 0 .466.104-.404.402-.17.339-.505-.01-.74.056-.899-.165.52-.456 1.144-.457m-27.652.18c-.764.822 1.14 3.04 1.945 3.818.447.046.903.074 1.35.008.364-1.41-1.978-3.138-3.295-3.827m11.1.331c-.909.357-2.396 2.834-2.633 4.377-.172.463.336.26.482.09 1.79-.783 2.327-2.667 2.15-4.467m-24.455.547c.148.01.377.473-.093.184.004-.141.043-.188.093-.184m41.278.575c.158-.023.314.442-.137.228.031-.159.084-.22.137-.228m-12.494.192c-1.91.325-3.646 1.774-3.914 3.732.17.204.392-.358.533-.253 1.017-.942 3.587-2.633 3.381-3.479m-16.514 1.512c-.29-.026-.556.001-.708.112-2.705.074 1.023 1.037 1.581.767 1.083-.248-.004-.803-.873-.879m4.23 1.431c-.504-.097-.871.198-.062 1.013.266.315 1.22 1.621.932.323.269-.753-.368-1.24-.87-1.336m22.26.781c.4.04 3.419.95 1.243.471l-.237-.066-.245-.07c-.738-.265-.895-.348-.762-.335m-15.92.639c-.109.076-.074.826.153.223-.066-.199-.117-.249-.153-.223m11.941.05c.034-.13.902.316.33.36-.259-.207-.34-.317-.33-.36M33.69 42.625c-.268.024-.497.31-.37 1.013-.012.494.046 1.402.568.357.805-.718.25-1.41-.198-1.37M40.82 46c.101.037-.013.48-.178.143.087-.123.145-.155.178-.143m-20.173.982c.17-.07-.067.574-.32.366.16-.24.263-.343.32-.366" style="fill:#ccc;fill-opacity:1;stroke:none;stroke-width:3.00818;stroke-miterlimit:4;stroke-dasharray:none;stroke-opacity:1"/></svg>