<svg xmlns="http://www.w3.org/2000/svg" width="64" height="64"><path d="M44.906 42.277c-9.714 4.961-19.712 9.617-30.326 12.098-3.42-.017-1.733-4.62-1.18-6.705 2.654-8.858 6.769-17.15 10.682-25.467 1.55-2.627 2.649-6.248 5.773-7.259 3.034-.348 5.028 2.683 6.6 4.896 6.427 10.17 12.497 20.605 17.82 31.435a644 644 0 0 1 3.975 8.502C54.364 43.39 49.133 27.134 40.702 12.59c-1.89-2.873-3.611-5.99-6.163-8.301-2.485-1.972-5.54.151-7.378 2.06-5.772 5.98-9.287 13.783-12.732 21.316-4.017 8.918-6.653 18.424-8.587 28.024-.679 3.234 2.54 5.581 5.401 4.578 7.924-1.703 15.37-5.274 22.379-9.374 4.039-2.45 7.923-5.233 11.283-8.616z" style="fill:#ccc;stroke-width:1.5"/></svg>