<svg xmlns="http://www.w3.org/2000/svg" width="64" height="64"><path d="M32 3.5A28.44 28.44 0 0 0 3.5 32 28.44 28.44 0 0 0 32 60.5 28.44 28.44 0 0 0 60.5 32 28.44 28.44 0 0 0 32 3.5m0 18.525A9.953 9.953 0 0 1 41.975 32 9.953 9.953 0 0 1 32 41.975 9.953 9.953 0 0 1 22.025 32 9.953 9.953 0 0 1 32 22.025m0 1.425A8.53 8.53 0 0 0 23.45 32 8.53 8.53 0 0 0 32 40.55 8.53 8.53 0 0 0 40.55 32 8.53 8.53 0 0 0 32 23.45m0 1.425A7.11 7.11 0 0 1 39.125 32 7.11 7.11 0 0 1 32 39.125 7.11 7.11 0 0 1 24.875 32 7.11 7.11 0 0 1 32 24.875m0 4.275A2.844 2.844 0 0 0 29.15 32 2.844 2.844 0 0 0 32 34.85 2.844 2.844 0 0 0 34.85 32 2.844 2.844 0 0 0 32 29.15" style="fill:#ccc;stroke-width:1.425"/></svg>