<svg xmlns="http://www.w3.org/2000/svg" width="64" height="64"><path d="M39.114 7.778c-2.552.034-4.634.656-7.977 1.79-2.615.886-3.884 1.01-5.354 1.151-1.25.121-2.669.257-4.92.83-6.486 1.65-9.536 4.268-11.267 5.986-1.351 1.341-1.895 2.707-1.82 3.816-.322.161-.494.34-.849.526-2.377 1.244-3.2 1.823-3.39 2.814-.14.73.12 1.21.726 1.865.98.91 1.537 1.168 3.076 1.168 1.123 0 1.43-.342 2.814-.645 1.224-.269 2.747-.604 3.904-.716 1.47-.141 2.942-.004 5.16.43.657.128 1.402.272 2.218.42 1.05.189 2.143.57 3.251.57.943 0 2.348.04 3.028-.047.494.923 1.314 2.877 2.636 4.45 3.448 4.103 6.453 4.094 6.866 4.097.746.01 1.449-.214 1.792-.821a1.66 1.66 0 0 0-.156-1.885c-.009-.011-.75-1.166-1.105-3.022-.1-.529-.055-.975-.047-1.397 4.59 1.335 11.863 5.4 12.794 9.83l.03 1.567c-.21-.009-.85-.011-1.17-.011-.836 0-1.738.083-2.762.245-3.325.526-5.26 2.673-5.485 2.916-.522.561-.645 1.924-.27 2.575.372.645 1.104 1.028 1.903.965h.04c5.084.703 11.533 3.875 13.623 7.924.326.646 1.035 1.055 1.809 1.055q.075 0 .15-.006c.83-.056 1.535-.576 1.765-1.302.058-.188.57-1.898.29-4.278v-.003c-.223-1.87-1.197-3.455-1.98-4.728-.275-.448-.594-.702-.787-1.08-.021-11.563-4.836-25.348-15.675-31.338.866-.373 3.261-.608 4.125-.766.645-.117 1.184-.516 1.441-1.066a1.66 1.66 0 0 0-.156-1.68c-.336-.478-2.137-1.63-5.499-2.035a21 21 0 0 0-2.772-.164m-26.35 9.972a2.137 2.137 0 0 1 2.137 2.137 2.137 2.137 0 0 1-2.138 2.138 2.137 2.137 0 0 1-2.137-2.138 2.137 2.137 0 0 1 2.137-2.137" style="fill:#ccc;stroke-width:1.42497"/></svg>