<svg xmlns="http://www.w3.org/2000/svg" width="64" height="64"><path d="M32 3.5A28.5 28.5 0 0 0 3.5 32 28.5 28.5 0 0 0 32 60.5 28.5 28.5 0 0 0 60.5 32 28.5 28.5 0 0 0 32 3.5m0 11.4c1.046.004 2.09.103 3.117.298L27.063 29.15l-5.956-10.315A17.1 17.1 0 0 1 32 14.9m5.953 1.091A17.1 17.1 0 0 1 48.101 26.3H32Zm-18.948 4.904 8.058 13.955h-11.92A17 17 0 0 1 14.9 32a17.1 17.1 0 0 1 4.105-11.105m17.932 8.255h11.92A17 17 0 0 1 49.1 32a17.1 17.1 0 0 1-4.105 11.105zm0 5.7 5.956 10.315A17.1 17.1 0 0 1 32 49.1a17 17 0 0 1-3.117-.298ZM15.9 37.7H32l-5.953 10.309A17.1 17.1 0 0 1 15.899 37.7" style="fill:#ccc;stroke-width:1.425"/></svg>