<svg xmlns="http://www.w3.org/2000/svg" width="64" height="64"><path d="M8.682 9.977A5.18 5.18 0 0 0 3.5 15.16v33.682a5.18 5.18 0 0 0 5.182 5.182h2.59a5.18 5.18 0 0 0 5.013-3.887h31.433a5.18 5.18 0 0 0 5.01 3.887h2.59A5.18 5.18 0 0 0 60.5 48.84V15.159a5.18 5.18 0 0 0-5.182-5.182h-2.59a5.18 5.18 0 0 0-5.013 3.887H16.282a5.18 5.18 0 0 0-5.01-3.887Zm0 6.478h2.59v33.681h-2.59zm44.045 0h2.591v33.681h-2.59zM13.864 20.34h2.59v25.91h-2.59zm5.181 0h25.91v25.91h-25.91Zm28.5 0h2.591v25.91h-2.59zm-25.909 2.59v20.73h20.728V22.932Z" style="fill:#ccc;stroke-width:1.29545"/></svg>