<svg xmlns="http://www.w3.org/2000/svg" width="64" height="64"><path d="M32 378.666c-8.832 0-16 7.168-16 16s7.168 16 16 16 16-7.168 16-16-7.168-16-16-16m0 8.475a7.525 7.525 0 0 1 7.525 7.525A7.525 7.525 0 0 1 32 402.192a7.525 7.525 0 0 1-7.525-7.526A7.525 7.525 0 0 1 32 387.141" style="fill:#ccc;stroke-width:.15" transform="translate(3.5 -319.5)scale(.89063)"/><path d="M32 362.666c-17.68 0-32 14.32-32 32s14.32 32 32 32 32-14.32 32-32-14.32-32-32-32m0 57.6c-14.144 0-25.6-11.456-25.6-25.6s11.456-25.6 25.6-25.6 25.6 11.456 25.6 25.6-11.456 25.6-25.6 25.6" style="fill:#ccc;stroke-width:.15" transform="translate(3.5 -319.5)scale(.89063)"/></svg>