<svg xmlns="http://www.w3.org/2000/svg" width="64" height="64"><path d="M31.982 6.179c-20.76 0-21.29.01-21.83.332-1.148.682-1.09-.159-1.09 15.76 0 16.154-.021 15.829 1.232 18.962 1.44 3.603 3.761 6.65 7.572 9.96 3.198 2.777 6.992 5.288 11.22 7.423 1.431.722 2.17 1.052 2.896 1.04.726.012 1.464-.318 2.894-1.04 4.229-2.135 8.023-4.646 11.221-7.424 3.811-3.31 6.131-6.356 7.573-9.96 1.253-3.132 1.23-2.807 1.23-18.96 0-15.92.06-15.079-1.089-15.761-.54-.322-1.07-.332-21.83-.332m0 7.64c8.592 0 12.194.013 15.216.037.026 2.124.063 3.283.063 8.415 0 8.08-.016 12.11-.13 13.87-.115 1.76.098.616-.556 2.253-.944 2.358-2.271 4.238-5.488 7.031-2.508 2.178-5.645 4.207-9.105 6.01z" style="fill:#ccc;stroke-width:1.90993"/></svg>