<svg xmlns="http://www.w3.org/2000/svg" width="64" height="64"><path d="M32 3.5A28.44 28.44 0 0 0 3.5 32 28.44 28.44 0 0 0 32 60.5 28.44 28.44 0 0 0 60.5 32 28.44 28.44 0 0 0 32 3.5M17.75 16.325h2.85a2.844 2.844 0 0 1 2.85 2.85v2.85a2.844 2.844 0 0 1-2.85 2.85h-2.85a2.844 2.844 0 0 1-2.85-2.85v-2.85a2.844 2.844 0 0 1 2.85-2.85m12.825 0h2.85a2.844 2.844 0 0 1 2.85 2.85v2.85a2.844 2.844 0 0 1-2.85 2.85h-2.85a2.844 2.844 0 0 1-2.85-2.85v-2.85a2.844 2.844 0 0 1 2.85-2.85m12.825 0h2.85a2.844 2.844 0 0 1 2.85 2.85v2.85a2.844 2.844 0 0 1-2.85 2.85H43.4a2.844 2.844 0 0 1-2.85-2.85v-2.85a2.844 2.844 0 0 1 2.85-2.85m-25.65 11.4h2.85a2.844 2.844 0 0 1 2.85 2.85v2.85a2.844 2.844 0 0 1-2.85 2.85h-2.85a2.844 2.844 0 0 1-2.85-2.85v-2.85a2.844 2.844 0 0 1 2.85-2.85m12.825 0h2.85a2.844 2.844 0 0 1 2.85 2.85v2.85a2.844 2.844 0 0 1-2.85 2.85h-2.85a2.844 2.844 0 0 1-2.85-2.85v-2.85a2.844 2.844 0 0 1 2.85-2.85m12.825 0h2.85a2.844 2.844 0 0 1 2.85 2.85v2.85a2.844 2.844 0 0 1-2.85 2.85H43.4a2.844 2.844 0 0 1-2.85-2.85v-2.85a2.844 2.844 0 0 1 2.85-2.85m-25.65 11.4h2.85a2.844 2.844 0 0 1 2.85 2.85v2.85a2.844 2.844 0 0 1-2.85 2.85h-2.85a2.844 2.844 0 0 1-2.85-2.85v-2.85a2.844 2.844 0 0 1 2.85-2.85m12.825 0h2.85a2.844 2.844 0 0 1 2.85 2.85v2.85a2.844 2.844 0 0 1-2.85 2.85h-2.85a2.844 2.844 0 0 1-2.85-2.85v-2.85a2.844 2.844 0 0 1 2.85-2.85m12.825 0h2.85a2.844 2.844 0 0 1 2.85 2.85v2.85a2.844 2.844 0 0 1-2.85 2.85H43.4a2.844 2.844 0 0 1-2.85-2.85v-2.85a2.844 2.844 0 0 1 2.85-2.85" style="fill:#ccc;stroke-width:1.425"/></svg>