<svg xmlns="http://www.w3.org/2000/svg" width="64" height="64"><path d="M32 3.5A28.5 28.5 0 0 0 3.5 32 28.5 28.5 0 0 0 32 60.5 28.5 28.5 0 0 0 60.5 32 28.5 28.5 0 0 0 32 3.5m-2.001 8.558c2.3-.076 4.347.36 5.948.997.425.169.838.344 1.194.537-8.953.34-7.595 5.052-6.263 7.765 6.802-1.971 12.93-3.498 17.718-5.132-3.332 4.402-8.873 10.35-14.937 11.133s-12.416-.086-13.755 4.43c-1.233 4.16 3.676 8.042 8.174 7.106 4.806-1 3.767-6.446 1.139-10.156 1.997-.114 1.626-.085 5.012-.256 5.047 4.302 6.719 5.791 15.536 12.068-5.517-.395-10.197-1.658-14.147-4.559l.006.017c1.262 3.169 4.342 10.361 4.926 15.942-2.81-4.04-4.258-5.525-8.614-8.439-4.75-3.176-9.135-3.75-11.951-7.239l-.014-.016a10.6 10.6 0 0 1-1.32-2.102 8.7 8.7 0 0 1-.575-1.611q-.014-.05-.025-.1a7 7 0 0 1-.115-.571c-.682-3.74 1.729-6.948 7.727-8.937-1.705-4.767-10.018-3.6-11.428-3.707 1.608-.798 3.059-1.454 6.373-3.855 3.193-2.313 6.48-3.218 9.39-3.315" style="fill:#ccc;stroke-width:1.425"/></svg>