<svg xmlns="http://www.w3.org/2000/svg" width="66mm" height="66mm" viewBox="0 0 66 66"><g style="fill:#000;fill-opacity:1;stroke:none"><path d="M8.154 45.936a.124.124 0 0 0-.123.123v3.39c0 .068.056.123.123.123h3.082a.124.124 0 0 0 .123-.123v-3.39a.124.124 0 0 0-.123-.123zm4.812 0a.124.124 0 0 0-.123.123v3.39c0 .068.055.123.123.123h3.082a.124.124 0 0 0 .123-.123v-3.39a.124.124 0 0 0-.123-.123zm4.812 0a.124.124 0 0 0-.123.123v3.39c0 .068.055.123.123.123h3.082a.124.124 0 0 0 .123-.123v-3.39a.124.124 0 0 0-.123-.123zm4.811 0a.124.124 0 0 0-.123.123v3.39c0 .068.056.123.123.123h3.082a.124.124 0 0 0 .123-.123v-3.39a.124.124 0 0 0-.123-.123zm4.812 0a.124.124 0 0 0-.123.123v3.39c0 .068.055.123.123.123h3.082a.124.124 0 0 0 .123-.123v-3.39a.124.124 0 0 0-.123-.123zm4.812 0a.124.124 0 0 0-.123.123v3.39c0 .068.055.123.123.123h3.082a.124.124 0 0 0 .123-.123v-3.39a.124.124 0 0 0-.123-.123zM8.154 40.889a.124.124 0 0 0-.123.123v3.39c0 .069.056.123.123.124h3.082a.124.124 0 0 0 .123-.123v-3.39a.124.124 0 0 0-.123-.124zm4.812 0a.124.124 0 0 0-.123.123v3.39c0 .069.055.123.123.124h3.082a.124.124 0 0 0 .123-.123v-3.39a.124.124 0 0 0-.123-.124zm4.812 0a.124.124 0 0 0-.123.123v3.39c0 .069.055.123.123.124h3.082a.124.124 0 0 0 .123-.123v-3.39a.124.124 0 0 0-.123-.124zm4.811 0a.124.124 0 0 0-.123.123v3.39c0 .069.056.123.123.124h3.082a.124.124 0 0 0 .123-.123v-3.39a.124.124 0 0 0-.123-.124zm4.812 0a.124.124 0 0 0-.123.123v3.39c0 .069.055.123.123.124h3.082a.124.124 0 0 0 .123-.123v-3.39a.124.124 0 0 0-.123-.124zm4.812 0a.124.124 0 0 0-.123.123v3.39c0 .069.055.123.123.124h3.082a.124.124 0 0 0 .123-.123v-3.39a.124.124 0 0 0-.123-.124zM8.154 35.843a.124.124 0 0 0-.123.123v3.39c0 .068.056.123.123.123h3.082a.124.124 0 0 0 .123-.123v-3.39a.124.124 0 0 0-.123-.123zm4.812 0a.124.124 0 0 0-.123.123v3.39c0 .068.055.123.123.123h3.082a.124.124 0 0 0 .123-.123v-3.39a.124.124 0 0 0-.123-.123zm4.812 0a.124.124 0 0 0-.123.123v3.39c0 .068.055.123.123.123h3.082a.124.124 0 0 0 .123-.123v-3.39a.124.124 0 0 0-.123-.123zm4.811 0a.124.124 0 0 0-.123.123v3.39c0 .068.056.123.123.123h3.082a.124.124 0 0 0 .123-.123v-3.39a.124.124 0 0 0-.123-.123zm4.812 0a.124.124 0 0 0-.123.123v3.39c0 .068.055.123.123.123h3.082a.124.124 0 0 0 .123-.123v-3.39a.124.124 0 0 0-.123-.123zm4.812 0a.124.124 0 0 0-.123.123v3.39c0 .068.055.123.123.123h3.082a.124.124 0 0 0 .123-.123v-3.39a.124.124 0 0 0-.123-.123zm-4.955 25.546-.003.28 7.541.057.003-.281zm0-5.127-.003.28 7.541.056.003-.28zm-3.935-1.325c-.05 0-.092.046-.092.101v2.784c0 .056.042.1.092.1h2.316c.05 0 .092-.044.092-.1v-2.784c0-.055-.041-.1-.092-.1zm0 5.127c-.05 0-.091.046-.092.101v2.784c0 .056.042.1.093.101h2.315c.051 0 .093-.045.093-.101v-2.784c0-.055-.042-.1-.093-.1zm-11.34 1.325-.002.28 7.54.057.003-.281zm0-5.127-.002.28 7.54.056.003-.28zM8.05 60.064c-.05 0-.092.046-.092.101v2.784c0 .056.041.1.092.101h2.316c.05 0 .092-.045.092-.101v-2.784c0-.055-.041-.1-.092-.1zm0-5.127c-.05 0-.092.046-.092.101v2.784c0 .056.041.1.092.1h2.316c.05 0 .092-.044.092-.1v-2.784c0-.055-.041-.1-.092-.1zM27.953 67.79v.822h.387v-.822zm-.278.705a9 9 0 0 0 .472.916h.001q.14-.248.277-.51.103-.207.193-.406zm-.237 1.057v.352h1.418v-.352zm6.08-1.475-.208.193.188.244.21-.191zm-.36.48-.046.294.287.055.047-.294zm.005.62.138.259.253-.16-.137-.259zm.37.473.257.1.1-.3-.257-.101zm.56.102.256-.104-.1-.3-.256.103zm.49-.316.135-.26-.253-.159-.136.26zm.19-.585-.05-.294-.287.055.047.294zm-.2-.582-.21-.19-.188.244.21.191zm-.495-.327-.273.044v.298h.273zm.455 1.291c.188-.356.075-.815-.25-1.02-.326-.206-.746-.084-.934.272s-.075.815.25 1.02c.327.207.747.084.934-.272m-.202-.128c-.125.236-.398.316-.614.18a.515.515 0 0 1-.165-.672c.124-.236.397-.315.613-.179.217.137.29.435.166.671m-3.661-.2h.428v.117h-.428zm0-.233h.749v.117h-.75zm0-.234h.749v.117h-.75zm-.321-.351v1.52h1.017l.374-.41v-1.11zm.107.117h1.177v.935h-.321v.351h-.856Zm6.126.155a.59.59 0 0 0-.24.633c.06.246.265.417.497.417a.525.525 0 0 0 .498-.417.59.59 0 0 0-.24-.633l-.047.089a.48.48 0 0 1 .196.518.43.43 0 0 1-.407.34.43.43 0 0 1-.406-.34.48.48 0 0 1 .196-.518zm.21-.16.094-.017v.562h-.093zm.048-.429c-.544 0-.986.483-.986 1.077s.442 1.077.986 1.077c.543 0 .985-.483.985-1.077s-.442-1.077-.985-1.077m0 .202c.443 0 .8.39.8.875 0 .484-.357.874-.8.874s-.8-.39-.8-.874.356-.875.8-.875m-27.403.754-.001.202 4.064.04.002-.202zM3.251 65.98l-.005.183 37.449.04v-.184Zm-.003.091 37.448.04m-7.32-32.89-.002.606 2.773.012.003-.605zm3.803.036-.003.606.722.005.003-.608zm-31.144-.035-.003.605 2.773.012.003-.605zm3.881.016-.001.607 3.328.014.002-.606zm4.439.02-.003.605.722.005.002-.608zm-8.32 19.08-.003.606 2.773.012.003-.605zm3.883.017-.003.607 3.328.014.002-.606zm4.437.02-.003.605.722.005.003-.607zm-7.413 15.56a.47.47 0 0 0-.353.169.62.62 0 0 0-.147.406c0 .06.005.126.03.195.067.178.165.316.255.423q.038.046.082.093h.263q.044-.046.085-.093c.09-.107.189-.245.254-.423a.6.6 0 0 0 .03-.194.62.62 0 0 0-.146-.407.47.47 0 0 0-.353-.168m.45 1.125q-.091.14-.186.244c-.112.121-.263.266-.263.266s-.16-.142-.265-.266a2 2 0 0 1-.185-.243l-.008.003a1.3 1.3 0 0 0-.377.235v.46h1.668v-.46a1.3 1.3 0 0 0-.375-.235zm-4.264-38.42c-.07 0-.127.066-.127.148v40.508c0 .082.056.15.127.15h37.677c.07 0 .127-.068.127-.15v-40.51c0-.082-.057-.148-.127-.148zm.128.298h37.42v40.21H3.257Z" style="color:#000;font-style:normal;font-variant:normal;font-weight:400;font-stretch:normal;font-size:medium;line-height:normal;font-family:sans-serif;font-variant-ligatures:normal;font-variant-position:normal;font-variant-caps:normal;font-variant-numeric:normal;font-variant-alternates:normal;font-feature-settings:normal;text-indent:0;text-align:start;text-decoration:none;text-decoration-line:none;text-decoration-style:solid;text-decoration-color:#000;letter-spacing:normal;word-spacing:normal;text-transform:none;writing-mode:lr-tb;direction:ltr;text-orientation:mixed;dominant-baseline:auto;baseline-shift:baseline;text-anchor:start;white-space:normal;shape-padding:0;clip-rule:nonzero;display:inline;overflow:visible;visibility:visible;isolation:auto;mix-blend-mode:normal;color-interpolation:sRGB;color-interpolation-filters:linearRGB;solid-color:#000;solid-opacity:1;fill:#000;fill-opacity:1;fill-rule:nonzero;stroke:none;stroke-linecap:butt;stroke-linejoin:round;stroke-miterlimit:4;stroke-dasharray:none;stroke-dashoffset:0;stroke-opacity:1;color-rendering:auto;image-rendering:auto;shape-rendering:auto;text-rendering:auto" transform="matrix(1.33893 0 0 1.22532 3.589 -29.542)"/></g></svg>