<svg xmlns="http://www.w3.org/2000/svg" width="66mm" height="66mm" viewBox="0 0 66 66"><path d="M.637 239.638a.134.134 0 0 0-.133.135v49.775a.134.134 0 0 0 .133.133h37.972a.134.134 0 0 0 .135-.133v-49.775a.134.134 0 0 0-.135-.135zm.134.267h37.706v49.508H.77Z" style="color:#000;font-style:normal;font-variant:normal;font-weight:400;font-stretch:normal;font-size:medium;line-height:normal;font-family:sans-serif;font-variant-ligatures:normal;font-variant-position:normal;font-variant-caps:normal;font-variant-numeric:normal;font-variant-alternates:normal;font-feature-settings:normal;text-indent:0;text-align:start;text-decoration:none;text-decoration-line:none;text-decoration-style:solid;text-decoration-color:#000;letter-spacing:normal;word-spacing:normal;text-transform:none;writing-mode:lr-tb;direction:ltr;text-orientation:mixed;dominant-baseline:auto;baseline-shift:baseline;text-anchor:start;white-space:normal;shape-padding:0;clip-rule:nonzero;display:inline;overflow:visible;visibility:visible;isolation:auto;mix-blend-mode:normal;color-interpolation:sRGB;color-interpolation-filters:linearRGB;solid-color:#000;solid-opacity:1;fill:#000;fill-opacity:1;fill-rule:nonzero;stroke:none;stroke-width:1;stroke-linecap:butt;stroke-linejoin:round;stroke-miterlimit:4;stroke-dasharray:none;stroke-dashoffset:0;stroke-opacity:1;color-rendering:auto;image-rendering:auto;shape-rendering:auto;text-rendering:auto" transform="translate(13.393 -231.432)scale(.99914)"/><g style="fill:#000;fill-opacity:1;stroke:none"><g style="opacity:1;fill:#000;fill-opacity:1;stroke:none"><path d="M-22.314 251.799a.22.22 0 0 0-.221.222v6.067c0 .122.099.22.22.22h5.514a.22.22 0 0 0 .223-.22v-6.067c0-.123-.1-.223-.223-.222zm0 8.076a.22.22 0 0 0-.221.223v6.066c0 .122.099.22.22.22h5.514a.22.22 0 0 0 .223-.22v-6.066c0-.124-.1-.224-.223-.223zm0 7.94a.22.22 0 0 0-.221.22v6.067c0 .121.099.22.22.22h5.514a.22.22 0 0 0 .223-.22v-6.067a.22.22 0 0 0-.223-.22zm0-24.23a.22.22 0 0 0-.221.222v6.066c0 .122.099.22.22.22h5.514a.22.22 0 0 0 .223-.22v-6.066a.22.22 0 0 0-.223-.221zm7.54 8.204a.22.22 0 0 0-.22.223v6.066c0 .122.098.22.22.22h5.514a.22.22 0 0 0 .222-.22v-6.066a.22.22 0 0 0-.222-.223zm0 8.076a.22.22 0 0 0-.22.223v6.066c0 .122.098.22.22.221h5.514a.22.22 0 0 0 .222-.22v-6.067a.22.22 0 0 0-.222-.223zm0 7.94a.22.22 0 0 0-.22.22v6.067c0 .122.098.22.22.22h5.514a.22.22 0 0 0 .222-.22v-6.067c0-.122-.1-.22-.222-.22zm0-24.229a.22.22 0 0 0-.22.22v6.067c0 .122.098.22.22.221h5.514a.22.22 0 0 0 .222-.22v-6.067a.22.22 0 0 0-.222-.22zm7.54 8.203c-.122 0-.22.1-.22.223v6.066c0 .122.099.22.22.221h5.514a.22.22 0 0 0 .223-.22v-6.067c0-.123-.1-.223-.223-.223zm0 8.077c-.122 0-.22.1-.22.222v6.067c0 .121.099.22.22.22h5.514a.22.22 0 0 0 .223-.22v-6.067c0-.123-.1-.223-.223-.222zm0 7.939a.22.22 0 0 0-.22.22v6.067c0 .122.099.22.22.22h5.514a.22.22 0 0 0 .223-.22v-6.066a.22.22 0 0 0-.223-.221zm0-24.229a.22.22 0 0 0-.22.221v6.067c0 .121.099.22.22.22h5.514a.22.22 0 0 0 .223-.22v-6.067a.22.22 0 0 0-.223-.22zm7.541 8.204a.22.22 0 0 0-.22.222v6.067c0 .121.099.22.22.22h5.514a.22.22 0 0 0 .223-.22v-6.067c0-.123-.1-.223-.223-.222zm0 8.076a.22.22 0 0 0-.22.222v6.067c0 .122.099.22.22.22h5.514a.22.22 0 0 0 .223-.22v-6.067c0-.123-.1-.223-.223-.222zm0 7.94a.22.22 0 0 0-.22.22v6.066c0 .122.099.22.22.221h5.514a.22.22 0 0 0 .223-.22v-6.067a.22.22 0 0 0-.223-.22zm0-24.23a.22.22 0 0 0-.22.221v6.067c0 .122.099.22.22.22h5.514a.22.22 0 0 0 .223-.22v-6.067c0-.122-.1-.22-.223-.22zm7.54 8.204c-.122 0-.22.1-.22.223v6.066c0 .122.1.22.22.22h5.515a.22.22 0 0 0 .222-.22v-6.066c0-.124-.1-.224-.222-.223zm0 8.076c-.122 0-.22.1-.22.223v6.066c0 .122.1.22.22.22h5.515a.22.22 0 0 0 .222-.22v-6.066c0-.123-.1-.223-.222-.223zm0 7.94a.22.22 0 0 0-.22.22v6.067c0 .121.1.22.22.22h5.515a.22.22 0 0 0 .222-.22v-6.067a.22.22 0 0 0-.222-.22zm0-24.229a.22.22 0 0 0-.22.22v6.067c0 .122.1.22.22.22h5.515a.22.22 0 0 0 .222-.22v-6.066a.22.22 0 0 0-.222-.221z" style="color:#000;font-style:normal;font-variant:normal;font-weight:400;font-stretch:normal;font-size:medium;line-height:normal;font-family:sans-serif;font-variant-ligatures:normal;font-variant-position:normal;font-variant-caps:normal;font-variant-numeric:normal;font-variant-alternates:normal;font-feature-settings:normal;text-indent:0;text-align:start;text-decoration:none;text-decoration-line:none;text-decoration-style:solid;text-decoration-color:#000;letter-spacing:normal;word-spacing:normal;text-transform:none;writing-mode:lr-tb;direction:ltr;text-orientation:mixed;dominant-baseline:auto;baseline-shift:baseline;text-anchor:start;white-space:normal;shape-padding:0;clip-rule:nonzero;display:inline;overflow:visible;visibility:visible;isolation:auto;mix-blend-mode:normal;color-interpolation:sRGB;color-interpolation-filters:linearRGB;solid-color:#000;solid-opacity:1;fill:#000;fill-opacity:1;fill-rule:nonzero;stroke:none;stroke-linecap:butt;stroke-linejoin:round;stroke-miterlimit:4;stroke-dasharray:none;stroke-dashoffset:0;stroke-opacity:1;color-rendering:auto;image-rendering:auto;shape-rendering:auto;text-rendering:auto" transform="rotate(-89.926 -97.639 128.193)scale(.99914)"/></g></g><g style="fill:#000;fill-opacity:1;stroke:none"><path d="M2.596 2.39a.265.265 0 0 0-.132.454l1.058 1.059c.254.248.626-.133.372-.38l-1.058-1.06a.27.27 0 0 0-.24-.073M1.722.271C.92.272.264.928.264 1.728S.92 3.185 1.722 3.185s1.457-.656 1.457-1.457c0-.8-.656-1.456-1.457-1.456zm0 .532a.92.92 0 0 1 .926.924.92.92 0 0 1-.926.925.92.92 0 0 1-.926-.925.92.92 0 0 1 .926-.924M-.654-.814l-.05 5.85m43.781-5.85-.048 5.849.11.004.05-5.853zm.056 0-.049 5.85M-.664-.932v.287l43.75.11v-.287zm0 .144 43.749.109M-.742 4.786v.287l43.827.11v-.291Zm0 .143 43.827.108" style="color:#000;font-style:normal;font-variant:normal;font-weight:400;font-stretch:normal;font-size:medium;line-height:normal;font-family:sans-serif;font-variant-ligatures:normal;font-variant-position:normal;font-variant-caps:normal;font-variant-numeric:normal;font-variant-alternates:normal;font-feature-settings:normal;text-indent:0;text-align:start;text-decoration:none;text-decoration-line:none;text-decoration-style:solid;text-decoration-color:#000;letter-spacing:normal;word-spacing:normal;text-transform:none;writing-mode:lr-tb;direction:ltr;text-orientation:mixed;dominant-baseline:auto;baseline-shift:baseline;text-anchor:start;white-space:normal;shape-padding:0;clip-rule:nonzero;display:inline;overflow:visible;visibility:visible;opacity:1;isolation:auto;mix-blend-mode:normal;color-interpolation:sRGB;color-interpolation-filters:linearRGB;solid-color:#000;solid-opacity:1;fill:#000;fill-opacity:1;fill-rule:nonzero;stroke:none;stroke-width:.264583;stroke-linecap:butt;stroke-linejoin:miter;stroke-miterlimit:4;stroke-dasharray:none;stroke-dashoffset:0;stroke-opacity:1;color-rendering:auto;image-rendering:auto;shape-rendering:auto;text-rendering:auto" transform="translate(14.678 8.845)scale(.86496)"/></g></svg>