<svg xmlns="http://www.w3.org/2000/svg" width="66mm" height="66mm" viewBox="0 0 66 66"><g transform="translate(13.787 -231.62)scale(.99914)"><path d="M.635 239.827a.13.13 0 0 0-.131.133v49.777a.13.13 0 0 0 .13.133h37.19a.13.13 0 0 0 .131-.133V239.96a.13.13 0 0 0-.13-.133zm.133.265H37.69v49.514H.768Z" style="color:#000;font-style:normal;font-variant:normal;font-weight:400;font-stretch:normal;font-size:medium;line-height:normal;font-family:sans-serif;font-variant-ligatures:normal;font-variant-position:normal;font-variant-caps:normal;font-variant-numeric:normal;font-variant-alternates:normal;font-feature-settings:normal;text-indent:0;text-align:start;text-decoration:none;text-decoration-line:none;text-decoration-style:solid;text-decoration-color:#000;letter-spacing:normal;word-spacing:normal;text-transform:none;writing-mode:lr-tb;direction:ltr;text-orientation:mixed;dominant-baseline:auto;baseline-shift:baseline;text-anchor:start;white-space:normal;shape-padding:0;clip-rule:nonzero;display:inline;overflow:visible;visibility:visible;isolation:auto;mix-blend-mode:normal;color-interpolation:sRGB;color-interpolation-filters:linearRGB;solid-color:#000;solid-opacity:1;vector-effect:none;fill:#000;fill-opacity:1;fill-rule:nonzero;stroke:none;stroke-width:1;stroke-linecap:butt;stroke-linejoin:round;stroke-miterlimit:4;stroke-dasharray:none;stroke-dashoffset:0;stroke-opacity:1;color-rendering:auto;image-rendering:auto;shape-rendering:auto;text-rendering:auto"/><path d="m17.955 249.651.233 39.97.238-.001-.235-39.969z" style="color:#000;font-style:normal;font-variant:normal;font-weight:400;font-stretch:normal;font-size:medium;line-height:normal;font-family:sans-serif;font-variant-ligatures:normal;font-variant-position:normal;font-variant-caps:normal;font-variant-numeric:normal;font-variant-alternates:normal;font-feature-settings:normal;text-indent:0;text-align:start;text-decoration:none;text-decoration-line:none;text-decoration-style:solid;text-decoration-color:#000;letter-spacing:normal;word-spacing:normal;text-transform:none;writing-mode:lr-tb;direction:ltr;text-orientation:mixed;dominant-baseline:auto;baseline-shift:baseline;text-anchor:start;white-space:normal;shape-padding:0;clip-rule:nonzero;display:inline;overflow:visible;visibility:visible;isolation:auto;mix-blend-mode:normal;color-interpolation:sRGB;color-interpolation-filters:linearRGB;solid-color:#000;solid-opacity:1;vector-effect:none;fill:#000;fill-opacity:1;fill-rule:evenodd;stroke:none;stroke-width:1;stroke-linecap:butt;stroke-linejoin:miter;stroke-miterlimit:4;stroke-dasharray:none;stroke-dashoffset:0;stroke-opacity:1;color-rendering:auto;image-rendering:auto;shape-rendering:auto;text-rendering:auto"/><g style="fill:#000;fill-opacity:1;stroke:none;stroke-opacity:1"><path d="m.834 249.535 37.004.05" style="color:#000;font-style:normal;font-variant:normal;font-weight:400;font-stretch:normal;font-size:medium;line-height:normal;font-family:sans-serif;font-variant-ligatures:normal;font-variant-position:normal;font-variant-caps:normal;font-variant-numeric:normal;font-variant-alternates:normal;font-feature-settings:normal;text-indent:0;text-align:start;text-decoration:none;text-decoration-line:none;text-decoration-style:solid;text-decoration-color:#000;letter-spacing:normal;word-spacing:normal;text-transform:none;writing-mode:lr-tb;direction:ltr;text-orientation:mixed;dominant-baseline:auto;baseline-shift:baseline;text-anchor:start;white-space:normal;shape-padding:0;clip-rule:nonzero;display:inline;overflow:visible;visibility:visible;isolation:auto;mix-blend-mode:normal;color-interpolation:sRGB;color-interpolation-filters:linearRGB;solid-color:#000;solid-opacity:1;vector-effect:none;fill:#000;fill-opacity:1;fill-rule:evenodd;stroke:none;stroke-width:.376674;stroke-linecap:butt;stroke-linejoin:miter;stroke-miterlimit:4;stroke-dasharray:none;stroke-dashoffset:0;stroke-opacity:1;color-rendering:auto;image-rendering:auto;shape-rendering:auto;text-rendering:auto" transform="translate(-.19 .288)"/><path d="M.834 249.348v.375l37.004.05v-.376z" style="color:#000;font-style:normal;font-variant:normal;font-weight:400;font-stretch:normal;font-size:medium;line-height:normal;font-family:sans-serif;font-variant-ligatures:normal;font-variant-position:normal;font-variant-caps:normal;font-variant-numeric:normal;font-variant-alternates:normal;font-feature-settings:normal;text-indent:0;text-align:start;text-decoration:none;text-decoration-line:none;text-decoration-style:solid;text-decoration-color:#000;letter-spacing:normal;word-spacing:normal;text-transform:none;writing-mode:lr-tb;direction:ltr;text-orientation:mixed;dominant-baseline:auto;baseline-shift:baseline;text-anchor:start;white-space:normal;shape-padding:0;clip-rule:nonzero;display:inline;overflow:visible;visibility:visible;isolation:auto;mix-blend-mode:normal;color-interpolation:sRGB;color-interpolation-filters:linearRGB;solid-color:#000;solid-opacity:1;vector-effect:none;fill:#000;fill-opacity:1;fill-rule:evenodd;stroke:none;stroke-linecap:butt;stroke-linejoin:miter;stroke-miterlimit:4;stroke-dasharray:none;stroke-dashoffset:0;stroke-opacity:1;color-rendering:auto;image-rendering:auto;shape-rendering:auto;text-rendering:auto" transform="translate(-.19 .288)"/></g><g style="fill:#000;fill-opacity:1;stroke:none;stroke-opacity:1"><path d="M1.722.272C.92.272.264.928.264 1.728S.92 3.185 1.722 3.185s1.457-.656 1.457-1.457c0-.8-.656-1.456-1.457-1.456m0 .532a.92.92 0 0 1 .926.924.92.92 0 0 1-.926.925.92.92 0 0 1-.926-.925.92.92 0 0 1 .926-.924" style="fill:#000;fill-opacity:1;stroke:none;stroke-width:.264583;stroke-opacity:1" transform="translate(1.444 246.524)scale(.54446)"/><path d="M2.596 2.39a.265.265 0 0 0-.132.454l1.058 1.059a.266.266 0 1 0 .372-.38l-1.058-1.06a.27.27 0 0 0-.24-.073" style="fill:#000;fill-opacity:1;stroke:none;stroke-width:.264583;stroke-opacity:1" transform="translate(1.444 246.524)scale(.54446)"/></g><g style="fill:#000;fill-opacity:1;stroke:none;stroke-opacity:1"><g style="opacity:1;fill:#000;fill-opacity:1;stroke:none;stroke-opacity:1"><path d="M1.814 261.969a.133.133 0 0 0-.132.133v3.627c0 .073.059.133.132.132h3.297c.074 0 .133-.06.133-.132v-3.627a.133.133 0 0 0-.133-.133zm0 4.347a.133.133 0 0 0-.132.133v3.627c0 .074.059.133.132.133h3.297c.074 0 .133-.06.133-.133v-3.627a.133.133 0 0 0-.133-.133zm0 4.686a.133.133 0 0 0-.132.133v3.627c0 .073.059.133.132.133h3.297c.074 0 .133-.06.133-.133v-3.627a.133.133 0 0 0-.133-.133zm0-27.95a.133.133 0 0 0-.132.134v3.627c0 .073.059.132.132.132h3.297c.074 0 .133-.06.133-.132v-3.627a.133.133 0 0 0-.133-.133zm0 4.829a.133.133 0 0 0-.132.133v3.627c0 .073.059.133.132.132h3.297a.13.13 0 0 0 .133-.132v-3.627a.133.133 0 0 0-.133-.133zm0 4.748a.133.133 0 0 0-.132.13v3.628c0 .073.059.133.132.133h3.297c.074 0 .133-.06.133-.133v-3.627a.13.13 0 0 0-.133-.131zm0 4.71a.133.133 0 0 0-.132.134v3.627c0 .073.059.133.132.132h3.297a.13.13 0 0 0 .133-.132v-3.627a.133.133 0 0 0-.133-.133zm0-19.198a.133.133 0 0 0-.132.132v3.627c0 .074.059.133.132.133h3.297c.074 0 .133-.06.133-.133v-3.627a.133.133 0 0 0-.133-.132z" style="color:#000;font-style:normal;font-variant:normal;font-weight:400;font-stretch:normal;font-size:medium;line-height:normal;font-family:sans-serif;font-variant-ligatures:normal;font-variant-position:normal;font-variant-caps:normal;font-variant-numeric:normal;font-variant-alternates:normal;font-feature-settings:normal;text-indent:0;text-align:start;text-decoration:none;text-decoration-line:none;text-decoration-style:solid;text-decoration-color:#000;letter-spacing:normal;word-spacing:normal;text-transform:none;writing-mode:lr-tb;direction:ltr;text-orientation:mixed;dominant-baseline:auto;baseline-shift:baseline;text-anchor:start;white-space:normal;shape-padding:0;clip-rule:nonzero;display:inline;overflow:visible;visibility:visible;isolation:auto;mix-blend-mode:normal;color-interpolation:sRGB;color-interpolation-filters:linearRGB;solid-color:#000;solid-opacity:1;vector-effect:none;fill:#000;fill-opacity:1;fill-rule:nonzero;stroke:none;stroke-linecap:butt;stroke-linejoin:round;stroke-miterlimit:4;stroke-dasharray:none;stroke-dashoffset:0;stroke-opacity:1;color-rendering:auto;image-rendering:auto;shape-rendering:auto;text-rendering:auto" transform="matrix(.77813 0 0 .70523 .18 84.245)"/></g></g><path d="m6.18 252.604-.002.629 2.98.012.002-.63zm4.24.016-.004.629 3.775.013.002-.629zm5.033.017-.004.63 1.502.005.002-.629zM6.18 277.405l-.002.629 2.98.012.002-.63zm4.24.016-.004.628 3.775.014.002-.629zm5.033.017-.004.629 1.502.006.002-.629zm-9.277-3.416-.002.629 2.98.01.002-.629zm4.24.016-.004.629 3.776.013.002-.629zm5.033.017-.002.63 1.5.005.002-.629zm-9.371-3.335-.002.628 2.98.012.004-.63zm4.24.015-.002.629 3.776.014.002-.63zm5.034.018-.002.628 1.5.006.002-.628zm-9.222-3.416-.001.628 2.98.01.002-.628zm4.241.013-.002.631 3.774.014.003-.631zm5.033.02-.002.629 1.5.006.002-.63zm-9.371-3.905-.002.63 2.983.01.002-.63zm4.24.016-.002.629 3.776.014.002-.63zm5.034.018-.002.629 1.5.006.002-.63zM5.982 259.9l-.003.628 2.982.012.002-.631zm4.239.015-.002.629 3.775.013.002-.629zm5.033.017-.002.63 1.5.005.002-.629zm-9.316-3.728-.004.629 2.982.011.002-.629zm4.238.015-.002.63 3.775.013.002-.629zm5.033.018-.002.629 1.5.006.004-.63z" style="color:#000;font-style:normal;font-variant:normal;font-weight:400;font-stretch:normal;font-size:medium;line-height:normal;font-family:sans-serif;font-variant-ligatures:normal;font-variant-position:normal;font-variant-caps:normal;font-variant-numeric:normal;font-variant-alternates:normal;font-feature-settings:normal;text-indent:0;text-align:start;text-decoration:none;text-decoration-line:none;text-decoration-style:solid;text-decoration-color:#000;letter-spacing:normal;word-spacing:normal;text-transform:none;writing-mode:lr-tb;direction:ltr;text-orientation:mixed;dominant-baseline:auto;baseline-shift:baseline;text-anchor:start;white-space:normal;shape-padding:0;clip-rule:nonzero;display:inline;overflow:visible;visibility:visible;isolation:auto;mix-blend-mode:normal;color-interpolation:sRGB;color-interpolation-filters:linearRGB;solid-color:#000;solid-opacity:1;vector-effect:none;fill:#000;fill-opacity:1;fill-rule:evenodd;stroke:none;stroke-width:1;stroke-linecap:butt;stroke-linejoin:miter;stroke-miterlimit:4;stroke-dasharray:3.77505,1.25835;stroke-dashoffset:.79375;stroke-opacity:1;color-rendering:auto;image-rendering:auto;shape-rendering:auto;text-rendering:auto"/><path d="M35.328 246.769s-.756.373-1.418.911v.002a8.6 8.6 0 0 0 1.418.912v-.002h1.62v-1.822zm.254.318.462.462.462-.462.143.143-.462.462.462.462-.143.143-.462-.462-.462.462-.143-.143.462-.462-.462-.462z" style="color:#000;display:inline;overflow:visible;visibility:visible;fill:#000;fill-opacity:1;fill-rule:nonzero;stroke:none;stroke-width:.033775;stroke-opacity:1;marker:none"/><g style="fill:#000;fill-opacity:1;stroke:none;stroke-opacity:1"><path d="M-38.113 271.182v.203l10.613.037v-.203zm.095 3.156v.203l10.614.037v-.203Zm.004 3.232v.203l10.614.038v-.204zm-4.52-8.242a.095.095 0 0 0-.095.096v2.443c0 .053.043.096.096.096h2.527a.095.095 0 0 0 .096-.096v-2.443a.095.095 0 0 0-.096-.096zm0 2.93a.095.095 0 0 0-.095.095v2.444c0 .053.043.096.096.096h2.527a.095.095 0 0 0 .096-.096v-2.444a.095.095 0 0 0-.096-.095zm0 3.156a.095.095 0 0 0-.095.096v2.445c0 .052.044.094.096.094h2.527a.095.095 0 0 0 .096-.094v-2.445a.095.095 0 0 0-.096-.096zm4.281-27.55v.191l10.612.037.002-.192zm.045 3.53-.002.19 10.614.038v-.191zm.051 3.408-.002.19 10.615.037.001-.19zm.095 3.698v.19l10.614.038v-.191zm-.052 3.232v.191l10.614.037v-.19zm.096 3.156-.001.19 10.614.038.002-.192zm.004 3.233v.19l10.614.037v-.19zm0-23.696v.19l10.614.036v-.19zm-4.519 15.453c-.056 0-.102.04-.102.09v2.443c0 .05.046.09.102.09h2.528c.056 0 .102-.04.101-.09v-2.444c0-.05-.045-.09-.101-.09zm0 2.93c-.056 0-.102.04-.102.09v2.443c0 .05.046.09.102.09h2.528c.056 0 .102-.04.101-.09v-2.444c0-.05-.045-.09-.101-.09zm0 3.157c-.056 0-.102.04-.102.09v2.443c0 .05.046.09.102.09h2.528c.056 0 .102-.04.101-.09v-2.444c0-.05-.045-.09-.101-.09zm0-18.833c-.056 0-.102.04-.102.09v2.443c0 .05.046.09.102.09h2.528c.056 0 .102-.04.101-.09v-2.444c0-.05-.045-.09-.101-.09zm0 3.253c-.056 0-.102.04-.102.09v2.444c0 .05.046.09.102.09h2.528c.056 0 .102-.04.101-.09v-2.444c0-.05-.045-.09-.101-.09zm0 3.2c-.055 0-.1.039-.102.088v2.444c0 .05.046.09.102.09h2.528c.056 0 .102-.04.101-.09v-2.444c0-.05-.046-.088-.101-.088zm0 3.174c-.056 0-.102.04-.102.09v2.443c0 .05.046.09.102.09h2.528c.056 0 .102-.04.101-.09v-2.444c0-.05-.045-.09-.101-.09zm0-12.937c-.056 0-.102.04-.102.09v2.443c0 .05.046.09.102.09h2.528c.056 0 .102-.04.101-.09v-2.443c0-.05-.045-.09-.101-.09z" style="color:#000;font-style:normal;font-variant:normal;font-weight:400;font-stretch:normal;font-size:medium;line-height:normal;font-family:sans-serif;font-variant-ligatures:normal;font-variant-position:normal;font-variant-caps:normal;font-variant-numeric:normal;font-variant-alternates:normal;font-feature-settings:normal;text-indent:0;text-align:start;text-decoration:none;text-decoration-line:none;text-decoration-style:solid;text-decoration-color:#000;letter-spacing:normal;word-spacing:normal;text-transform:none;writing-mode:lr-tb;direction:ltr;text-orientation:mixed;dominant-baseline:auto;baseline-shift:baseline;text-anchor:start;white-space:normal;shape-padding:0;clip-rule:nonzero;display:inline;overflow:visible;visibility:visible;opacity:1;isolation:auto;mix-blend-mode:normal;color-interpolation:sRGB;color-interpolation-filters:linearRGB;solid-color:#000;solid-opacity:1;vector-effect:none;fill:#000;fill-opacity:1;fill-rule:evenodd;stroke:none;stroke-linecap:butt;stroke-linejoin:miter;stroke-miterlimit:4;stroke-dasharray:none;stroke-dashoffset:.264583;stroke-opacity:1;color-rendering:auto;image-rendering:auto;shape-rendering:auto;text-rendering:auto" transform="translate(62.832 8.037)"/></g><g style="fill:#000;fill-opacity:1;stroke:none;stroke-opacity:1"><path d="m.834 245.302 37.004.05" style="color:#000;font-style:normal;font-variant:normal;font-weight:400;font-stretch:normal;font-size:medium;line-height:normal;font-family:sans-serif;font-variant-ligatures:normal;font-variant-position:normal;font-variant-caps:normal;font-variant-numeric:normal;font-variant-alternates:normal;font-feature-settings:normal;text-indent:0;text-align:start;text-decoration:none;text-decoration-line:none;text-decoration-style:solid;text-decoration-color:#000;letter-spacing:normal;word-spacing:normal;text-transform:none;writing-mode:lr-tb;direction:ltr;text-orientation:mixed;dominant-baseline:auto;baseline-shift:baseline;text-anchor:start;white-space:normal;shape-padding:0;clip-rule:nonzero;display:inline;overflow:visible;visibility:visible;isolation:auto;mix-blend-mode:normal;color-interpolation:sRGB;color-interpolation-filters:linearRGB;solid-color:#000;solid-opacity:1;vector-effect:none;fill:#000;fill-opacity:1;fill-rule:evenodd;stroke:none;stroke-width:.376674;stroke-linecap:butt;stroke-linejoin:miter;stroke-miterlimit:4;stroke-dasharray:none;stroke-dashoffset:0;stroke-opacity:1;color-rendering:auto;image-rendering:auto;shape-rendering:auto;text-rendering:auto" transform="translate(-.19 .288)"/><path d="M.834 245.113v.377l37.004.051v-.377z" style="color:#000;font-style:normal;font-variant:normal;font-weight:400;font-stretch:normal;font-size:medium;line-height:normal;font-family:sans-serif;font-variant-ligatures:normal;font-variant-position:normal;font-variant-caps:normal;font-variant-numeric:normal;font-variant-alternates:normal;font-feature-settings:normal;text-indent:0;text-align:start;text-decoration:none;text-decoration-line:none;text-decoration-style:solid;text-decoration-color:#000;letter-spacing:normal;word-spacing:normal;text-transform:none;writing-mode:lr-tb;direction:ltr;text-orientation:mixed;dominant-baseline:auto;baseline-shift:baseline;text-anchor:start;white-space:normal;shape-padding:0;clip-rule:nonzero;display:inline;overflow:visible;visibility:visible;isolation:auto;mix-blend-mode:normal;color-interpolation:sRGB;color-interpolation-filters:linearRGB;solid-color:#000;solid-opacity:1;vector-effect:none;fill:#000;fill-opacity:1;fill-rule:evenodd;stroke:none;stroke-linecap:butt;stroke-linejoin:miter;stroke-miterlimit:4;stroke-dasharray:none;stroke-dashoffset:0;stroke-opacity:1;color-rendering:auto;image-rendering:auto;shape-rendering:auto;text-rendering:auto" transform="translate(-.19 .288)"/></g><path d="M4.22 243.09a3 3 0 0 1-.332.398c-.2.199-.471.436-.471.436s-.287-.233-.473-.436a3 3 0 0 1-.33-.398l-.015.005q-.382.145-.675.385v.752h2.984v-.752a2.4 2.4 0 0 0-.672-.385l-.017-.006z" style="font-style:normal;font-variant:normal;font-weight:400;font-stretch:normal;font-size:15.003px;line-height:125%;font-family:Ubuntu;-inkscape-font-specification:Ubuntu;text-align:center;letter-spacing:0;word-spacing:0;writing-mode:lr-tb;text-anchor:middle;fill:#000;fill-opacity:1;stroke:none;stroke-width:.0382565;stroke-opacity:1"/><path d="M3.416 241.249c-.236 0-.465.1-.632.275a.97.97 0 0 0-.262.665c0 .097.01.207.055.319.117.29.294.517.455.692.044.05.095.102.145.152h.472l.152-.152c.16-.175.337-.401.454-.692a.8.8 0 0 0 .054-.318.97.97 0 0 0-.261-.666.87.87 0 0 0-.632-.275" style="font-style:normal;font-variant:normal;font-weight:400;font-stretch:normal;font-size:121.63px;line-height:125%;font-family:Ubuntu;-inkscape-font-specification:Ubuntu;text-align:center;letter-spacing:0;word-spacing:0;writing-mode:lr-tb;text-anchor:middle;fill:#000;fill-opacity:1;stroke:none;stroke-width:.0382565;stroke-opacity:1"/><path d="M27.22 243.23a.98.98 0 0 0-1.695-.98.98.98 0 0 0 1.695.98m-.29-.169a.64.64 0 0 1-.879.235.641.641 0 1 1 .642-1.113.64.64 0 0 1 .237.878" style="color:#000;font-style:normal;font-variant:normal;font-weight:400;font-stretch:normal;font-size:medium;line-height:normal;font-family:sans-serif;font-variant-ligatures:normal;font-variant-position:normal;font-variant-caps:normal;font-variant-numeric:normal;font-variant-alternates:normal;font-feature-settings:normal;text-indent:0;text-align:start;text-decoration:none;text-decoration-line:none;text-decoration-style:solid;text-decoration-color:#000;letter-spacing:normal;word-spacing:normal;text-transform:none;writing-mode:lr-tb;direction:ltr;text-orientation:mixed;dominant-baseline:auto;baseline-shift:baseline;text-anchor:start;white-space:normal;shape-padding:0;clip-rule:nonzero;display:inline;overflow:visible;visibility:visible;isolation:auto;mix-blend-mode:normal;color-interpolation:sRGB;color-interpolation-filters:linearRGB;solid-color:#000;solid-opacity:1;vector-effect:none;fill:#000;fill-opacity:1;fill-rule:nonzero;stroke:none;stroke-width:.105556;stroke-linecap:butt;stroke-linejoin:miter;stroke-miterlimit:4;stroke-dasharray:none;stroke-dashoffset:0;stroke-opacity:1;marker:none;color-rendering:auto;image-rendering:auto;shape-rendering:auto;text-rendering:auto"/><path d="m26.568 241.538-.391.058v.39h.39zm.708.428-.3-.25-.27.32.3.252zm.286.762-.07-.385-.412.073.068.385zm-.272.767.194-.34-.362-.209-.195.34zm-.7.414.366-.136-.142-.393-.368.134zm-.803-.134.368.131.143-.392-.367-.134zm-.529-.618.198.337.362-.209-.196-.339zm-.008-.814-.065.385.411.073.068-.385zm.518-.628-.298.253.268.32.3-.252z" style="color:#000;display:inline;overflow:visible;visibility:visible;fill:#000;fill-opacity:1;fill-rule:nonzero;stroke:none;stroke-width:.0558566;stroke-opacity:1;marker:none"/><path d="M30.534 241.76c-.272 0-.408 0-.408.316v.337h.163v-.267c0-.223.08-.223.296-.223h1.04c.216 0 .296 0 .296.223v.86c0 .223-.08.223-.296.223h-.194v.163h.245c.272 0 .408 0 .408-.316v-1c0-.316-.136-.316-.408-.316z" style="font-style:normal;font-variant:normal;font-weight:400;font-stretch:normal;font-size:15px;line-height:125%;font-family:Ubuntu;-inkscape-font-specification:Ubuntu;text-align:center;letter-spacing:0;word-spacing:0;writing-mode:lr-tb;text-anchor:middle;display:inline;fill:#000;fill-opacity:1;stroke:none;stroke-width:.0271932;stroke-opacity:1" transform="translate(-.245)"/><path d="M30.208 242.494c-.272 0-.408 0-.408.317v.59c0 .317.136.317.408.317h.734c.272 0 .408 0 .408-.316v-.555l-.163.163v.322c0 .223-.08.223-.296.223h-.633c-.215 0-.295 0-.295-.223v-.452c0-.222.08-.222.295-.222h.576l.163-.164h-.001z" style="font-style:normal;font-variant:normal;font-weight:400;font-stretch:normal;font-size:15px;line-height:125%;font-family:Ubuntu;-inkscape-font-specification:Ubuntu;text-align:center;letter-spacing:0;word-spacing:0;writing-mode:lr-tb;text-anchor:middle;display:inline;fill:#000;fill-opacity:1;stroke:none;stroke-width:.0271932;stroke-opacity:1" transform="translate(-.245)"/><path d="M31.587 242.713s.12-.306.171-.626a3.5 3.5 0 0 0-.626.172z" style="color:#000;display:inline;overflow:visible;visibility:visible;fill:#000;fill-opacity:1;fill-rule:nonzero;stroke:none;stroke-width:.0815798;stroke-opacity:1;marker:none" transform="translate(-.245)"/><path d="m31.426 242.299-.625.625.119.12.625-.626z" style="color:#000;font-style:normal;font-variant:normal;font-weight:400;font-stretch:normal;line-height:normal;font-family:Sans;-inkscape-font-specification:Sans;text-indent:0;text-align:start;text-decoration:none;text-decoration-line:none;letter-spacing:normal;word-spacing:normal;text-transform:none;writing-mode:lr-tb;direction:ltr;baseline-shift:baseline;text-anchor:start;display:inline;overflow:visible;visibility:visible;fill:#000;fill-opacity:1;stroke:none;stroke-width:.24474;stroke-opacity:1;marker:none" transform="translate(-.245)"/><path d="m6.184 242.655-.004.418 1.705.014.004-.416zm2.537.023-.004.416 2.088.018.004-.416z" style="color:#000;font-style:normal;font-variant:normal;font-weight:400;font-stretch:normal;font-size:medium;line-height:normal;font-family:sans-serif;font-variant-ligatures:normal;font-variant-position:normal;font-variant-caps:normal;font-variant-numeric:normal;font-variant-alternates:normal;font-feature-settings:normal;text-indent:0;text-align:start;text-decoration:none;text-decoration-line:none;text-decoration-style:solid;text-decoration-color:#000;letter-spacing:normal;word-spacing:normal;text-transform:none;writing-mode:lr-tb;direction:ltr;text-orientation:mixed;dominant-baseline:auto;baseline-shift:baseline;text-anchor:start;white-space:normal;shape-padding:0;clip-rule:nonzero;display:inline;overflow:visible;visibility:visible;isolation:auto;mix-blend-mode:normal;color-interpolation:sRGB;color-interpolation-filters:linearRGB;solid-color:#000;solid-opacity:1;vector-effect:none;fill:#000;fill-opacity:1;fill-rule:evenodd;stroke:none;stroke-width:1;stroke-linecap:butt;stroke-linejoin:miter;stroke-miterlimit:4;stroke-dasharray:2.49836,.832786;stroke-dashoffset:.79375;stroke-opacity:1;color-rendering:auto;image-rendering:auto;shape-rendering:auto;text-rendering:auto"/><a><path d="M34.707 242.186a.62.62 0 1 0 .62 0l-.057.098a.506.506 0 1 1-.507 0zm.253-.176.113-.02v.62h-.113zm.057-.472c-.654 0-1.186.532-1.186 1.185a1.186 1.186 0 1 0 1.186-1.185m0 .221c.533 0 .962.431.962.964a.96.96 0 0 1-.962.963.96.96 0 0 1-.962-.963c0-.533.429-.964.962-.964" style="color:#000;font-style:normal;font-variant:normal;font-weight:400;font-stretch:normal;font-size:medium;line-height:normal;font-family:sans-serif;font-variant-ligatures:normal;font-variant-position:normal;font-variant-caps:normal;font-variant-numeric:normal;font-variant-alternates:normal;font-feature-settings:normal;text-indent:0;text-align:start;text-decoration:none;text-decoration-line:none;text-decoration-style:solid;text-decoration-color:#000;letter-spacing:normal;word-spacing:normal;text-transform:none;writing-mode:lr-tb;direction:ltr;text-orientation:mixed;dominant-baseline:auto;baseline-shift:baseline;text-anchor:start;white-space:normal;shape-padding:0;clip-rule:nonzero;display:inline;overflow:visible;visibility:visible;isolation:auto;mix-blend-mode:normal;color-interpolation:sRGB;color-interpolation-filters:linearRGB;solid-color:#000;solid-opacity:1;fill:#000;fill-opacity:1;fill-rule:nonzero;stroke:none;stroke-width:1.15084;stroke-linecap:butt;stroke-linejoin:round;stroke-miterlimit:4;stroke-dasharray:none;stroke-dashoffset:0;stroke-opacity:1;color-rendering:auto;image-rendering:auto;shape-rendering:auto;text-rendering:auto"/></a></g></svg>