<svg xmlns="http://www.w3.org/2000/svg" width="66mm" height="66mm" viewBox="0 0 66 66"><path d="M3.555 240.093a.13.13 0 0 0-.13.133v49.734c0 .073.058.132.13.133h56.161c.073 0 .131-.06.131-.133v-49.734a.13.13 0 0 0-.13-.133zm.133.266h55.896v49.47H3.688z" style="color:#000;font-style:normal;font-variant:normal;font-weight:400;font-stretch:normal;font-size:medium;line-height:normal;font-family:sans-serif;font-variant-ligatures:normal;font-variant-position:normal;font-variant-caps:normal;font-variant-numeric:normal;font-variant-alternates:normal;font-feature-settings:normal;text-indent:0;text-align:start;text-decoration:none;text-decoration-line:none;text-decoration-style:solid;text-decoration-color:#000;letter-spacing:normal;word-spacing:normal;text-transform:none;writing-mode:lr-tb;direction:ltr;text-orientation:mixed;dominant-baseline:auto;baseline-shift:baseline;text-anchor:start;white-space:normal;shape-padding:0;clip-rule:nonzero;display:inline;overflow:visible;visibility:visible;isolation:auto;mix-blend-mode:normal;color-interpolation:sRGB;color-interpolation-filters:linearRGB;solid-color:#000;solid-opacity:1;fill:#000;fill-opacity:1;fill-rule:nonzero;stroke:none;stroke-width:.999141;stroke-linecap:butt;stroke-linejoin:round;stroke-miterlimit:4;stroke-dasharray:none;stroke-dashoffset:0;stroke-opacity:1;color-rendering:auto;image-rendering:auto;shape-rendering:auto;text-rendering:auto" transform="translate(0 -231)"/><path d="m21.105 244.314-.252.002.232 45.53.254-.003z" style="color:#000;font-style:normal;font-variant:normal;font-weight:400;font-stretch:normal;font-size:medium;line-height:normal;font-family:sans-serif;font-variant-ligatures:normal;font-variant-position:normal;font-variant-caps:normal;font-variant-numeric:normal;font-variant-alternates:normal;font-feature-settings:normal;text-indent:0;text-align:start;text-decoration:none;text-decoration-line:none;text-decoration-style:solid;text-decoration-color:#000;letter-spacing:normal;word-spacing:normal;text-transform:none;writing-mode:lr-tb;direction:ltr;text-orientation:mixed;dominant-baseline:auto;baseline-shift:baseline;text-anchor:start;white-space:normal;shape-padding:0;clip-rule:nonzero;display:inline;overflow:visible;visibility:visible;isolation:auto;mix-blend-mode:normal;color-interpolation:sRGB;color-interpolation-filters:linearRGB;solid-color:#000;solid-opacity:1;fill:#000;fill-opacity:1;fill-rule:evenodd;stroke:none;stroke-width:.999141;stroke-linecap:butt;stroke-linejoin:miter;stroke-miterlimit:4;stroke-dasharray:none;stroke-dashoffset:0;stroke-opacity:1;color-rendering:auto;image-rendering:auto;shape-rendering:auto;text-rendering:auto" transform="translate(0 -231)"/><g style="fill:#000;fill-opacity:1;stroke:none"><path d="m.834 243.714 37.004.05" style="color:#000;font-style:normal;font-variant:normal;font-weight:400;font-stretch:normal;font-size:medium;line-height:normal;font-family:sans-serif;font-variant-ligatures:normal;font-variant-position:normal;font-variant-caps:normal;font-variant-numeric:normal;font-variant-alternates:normal;font-feature-settings:normal;text-indent:0;text-align:start;text-decoration:none;text-decoration-line:none;text-decoration-style:solid;text-decoration-color:#000;letter-spacing:normal;word-spacing:normal;text-transform:none;writing-mode:lr-tb;direction:ltr;text-orientation:mixed;dominant-baseline:auto;baseline-shift:baseline;text-anchor:start;white-space:normal;shape-padding:0;clip-rule:nonzero;display:inline;overflow:visible;visibility:visible;isolation:auto;mix-blend-mode:normal;color-interpolation:sRGB;color-interpolation-filters:linearRGB;solid-color:#000;solid-opacity:1;fill:#000;fill-opacity:1;fill-rule:evenodd;stroke:none;stroke-width:.376674;stroke-linecap:butt;stroke-linejoin:miter;stroke-miterlimit:4;stroke-dasharray:none;stroke-dashoffset:0;stroke-opacity:1;color-rendering:auto;image-rendering:auto;shape-rendering:auto;text-rendering:auto" transform="translate(2.732 -230.24)scale(.99914)"/><path d="M.834 243.525v.377l56.067.051v-.377z" style="color:#000;font-style:normal;font-variant:normal;font-weight:400;font-stretch:normal;font-size:medium;line-height:normal;font-family:sans-serif;font-variant-ligatures:normal;font-variant-position:normal;font-variant-caps:normal;font-variant-numeric:normal;font-variant-alternates:normal;font-feature-settings:normal;text-indent:0;text-align:start;text-decoration:none;text-decoration-line:none;text-decoration-style:solid;text-decoration-color:#000;letter-spacing:normal;word-spacing:normal;text-transform:none;writing-mode:lr-tb;direction:ltr;text-orientation:mixed;dominant-baseline:auto;baseline-shift:baseline;text-anchor:start;white-space:normal;shape-padding:0;clip-rule:nonzero;display:inline;overflow:visible;visibility:visible;isolation:auto;mix-blend-mode:normal;color-interpolation:sRGB;color-interpolation-filters:linearRGB;solid-color:#000;solid-opacity:1;fill:#000;fill-opacity:1;fill-rule:evenodd;stroke:none;stroke-linecap:butt;stroke-linejoin:miter;stroke-miterlimit:4;stroke-dasharray:none;stroke-dashoffset:0;stroke-opacity:1;color-rendering:auto;image-rendering:auto;shape-rendering:auto;text-rendering:auto" transform="translate(2.732 -230.24)scale(.99914)"/></g><path d="M7.559 286.317a1.41 1.41 0 0 0-1.409 1.41 1.41 1.41 0 0 0 1.409 1.408 1.41 1.41 0 0 0 1.409-1.409 1.41 1.41 0 0 0-1.41-1.409m0 .266c.633 0 1.143.51 1.143 1.143 0 .634-.51 1.144-1.143 1.144-.634 0-1.144-.51-1.144-1.144s.51-1.143 1.144-1.143m4.46-.266a1.41 1.41 0 0 0-1.409 1.41 1.41 1.41 0 0 0 1.409 1.408 1.41 1.41 0 0 0 1.409-1.409 1.41 1.41 0 0 0-1.409-1.409m0 .266c.634 0 1.144.51 1.144 1.143 0 .634-.51 1.144-1.144 1.144s-1.144-.51-1.144-1.144.51-1.143 1.144-1.143m4.459-.266a1.41 1.41 0 0 0-1.409 1.41 1.41 1.41 0 0 0 1.41 1.408 1.41 1.41 0 0 0 1.408-1.409 1.41 1.41 0 0 0-1.409-1.409m0 .266c.634 0 1.144.51 1.144 1.143 0 .634-.51 1.144-1.144 1.144a1.143 1.143 0 1 1 0-2.287" style="color:#000;font-style:normal;font-variant:normal;font-weight:400;font-stretch:normal;font-size:medium;line-height:normal;font-family:sans-serif;font-variant-ligatures:normal;font-variant-position:normal;font-variant-caps:normal;font-variant-numeric:normal;font-variant-alternates:normal;font-feature-settings:normal;text-indent:0;text-align:start;text-decoration:none;text-decoration-line:none;text-decoration-style:solid;text-decoration-color:#000;letter-spacing:normal;word-spacing:normal;text-transform:none;writing-mode:lr-tb;direction:ltr;text-orientation:mixed;dominant-baseline:auto;baseline-shift:baseline;text-anchor:start;white-space:normal;shape-padding:0;clip-rule:nonzero;display:inline;overflow:visible;visibility:visible;isolation:auto;mix-blend-mode:normal;color-interpolation:sRGB;color-interpolation-filters:linearRGB;solid-color:#000;solid-opacity:1;fill:#000;fill-opacity:1;fill-rule:nonzero;stroke:none;stroke-width:.999141;stroke-linecap:butt;stroke-linejoin:round;stroke-miterlimit:4;stroke-dasharray:none;stroke-dashoffset:0;stroke-opacity:1;color-rendering:auto;image-rendering:auto;shape-rendering:auto;text-rendering:auto" transform="translate(0 -231)"/><g style="fill:#000;fill-opacity:1;stroke:none"><path d="m5.337 8.247.748.749L8.731 6.35 6.085 3.704l-.748.749L6.705 5.82H1.588v1.058h5.117Zm4.717-6.66H2.646c-.585 0-1.058.474-1.058 1.059v2.117h1.058V2.646h7.408v7.408H2.646V7.937H1.588v2.117c0 .585.473 1.058 1.058 1.058h7.408c.585 0 1.058-.473 1.058-1.058V2.646c0-.585-.473-1.058-1.058-1.058" style="fill:#000;fill-opacity:1;stroke:none;stroke-width:.264583" transform="translate(6.714 55.851)scale(.13446)"/></g><g style="fill:#000;fill-opacity:1;stroke:none"><path d="M9.525 4.233h-.53V3.175a2.647 2.647 0 0 0-5.29 0v1.058h-.53c-.585 0-1.058.474-1.058 1.059v5.291c0 .585.473 1.059 1.058 1.059h6.35c.585 0 1.058-.474 1.058-1.059V5.292c0-.585-.473-1.059-1.058-1.059M6.35 1.535c.905 0 1.64.735 1.64 1.64v1.058H4.763V3.175H4.71c0-.905.735-1.64 1.64-1.64m3.175 9.048h-6.35V5.292h6.35zM6.35 8.996a1.058 1.058 0 1 0 0-2.116 1.058 1.058 0 0 0 0 2.116" style="fill:#000;fill-opacity:1;stroke:none;stroke-width:.264583" transform="translate(11.078 55.743)scale(.14797)"/></g><path d="m16.41 286.878.133-.022v.736h-.133z" style="color:#000;display:inline;overflow:visible;visibility:visible;fill:#000;fill-opacity:1;stroke:none;stroke-width:.200754;marker:none" transform="translate(0 -231)"/><path d="M16.108 287.088a.737.737 0 1 0 .736 0l-.067.116a.602.602 0 1 1-.602 0z" style="color:#000;font-style:normal;font-variant:normal;font-weight:400;font-stretch:normal;font-size:medium;line-height:normal;font-family:sans-serif;font-variant-ligatures:normal;font-variant-position:normal;font-variant-caps:normal;font-variant-numeric:normal;font-variant-alternates:normal;font-feature-settings:normal;text-indent:0;text-align:start;text-decoration:none;text-decoration-line:none;text-decoration-style:solid;text-decoration-color:#000;letter-spacing:normal;word-spacing:normal;text-transform:none;writing-mode:lr-tb;direction:ltr;text-orientation:mixed;dominant-baseline:auto;baseline-shift:baseline;text-anchor:start;white-space:normal;shape-padding:0;clip-rule:nonzero;display:inline;overflow:visible;visibility:visible;isolation:auto;mix-blend-mode:normal;color-interpolation:sRGB;color-interpolation-filters:linearRGB;solid-color:#000;solid-opacity:1;fill:#000;fill-opacity:1;fill-rule:nonzero;stroke:none;stroke-width:.0843062;stroke-linecap:butt;stroke-linejoin:round;stroke-miterlimit:4;stroke-dasharray:none;stroke-dashoffset:0;stroke-opacity:1;marker:none;color-rendering:auto;image-rendering:auto;shape-rendering:auto;text-rendering:auto" transform="translate(0 -231)"/><g style="fill:#000;fill-opacity:1;stroke:none"><path d="m7.023 251.42-.002.793 3.97.015.001-.792zm5.557.021-.002.793 4.762.02.004-.793zm6.35.026-.002.793 1.033.004.002-.793zm-11.852 4.847-.004.795 3.969.016.004-.793zm5.557.024-.004.793 4.762.02.003-.796zm6.35.025-.005.793 1.034.004.004-.793zM7.14 261.041l-.004.795 3.968.016.004-.795zm5.556.022-.004.794 4.764.02.002-.795zm6.35.025-.004.795 1.033.004.004-.795zm-11.79 5.082-.003.795 3.969.015.004-.794zm5.557.023-.003.793 4.761.02.004-.795zm6.35.026-.004.793 1.033.004.004-.793zm-11.969 4.435-.004.793 3.97.016.003-.793zm5.555.022-.002.795 4.762.017.004-.793zm6.352.025-.004.795 1.033.004.002-.795zm-11.791 4.33-.002.793 3.968.016.002-.793zm5.556.022-.004.793 4.764.02.002-.794zm6.35.025-.002.793 1.031.004.004-.793zm-11.9 4.436-.005.795 3.97.015.003-.795zm5.554.021-.002.795 4.762.02.004-.795zm6.352.026-.004.795 1.033.004.002-.793zM7.316 246.649l-.004.792 3.97.018.003-.795zm5.555.021-.002.795 4.762.02.004-.796zm6.352.025-.004.795 1.033.004.002-.795zM1.806 268.347a.124.124 0 0 0-.124.124v3.39c0 .068.055.124.124.124h3.08a.124.124 0 0 0 .125-.125v-3.39a.124.124 0 0 0-.124-.123zm0 4.063a.124.124 0 0 0-.124.124v3.39c0 .068.055.124.124.124h3.08a.124.124 0 0 0 .125-.124v-3.39a.124.124 0 0 0-.124-.124zm0 4.379a.124.124 0 0 0-.124.124v3.39c0 .068.055.124.124.124h3.08a.124.124 0 0 0 .125-.125v-3.39a.124.124 0 0 0-.124-.123zm0-26.12a.124.124 0 0 0-.124.124v3.39c0 .068.055.124.124.124h3.08a.124.124 0 0 0 .125-.125v-3.39a.124.124 0 0 0-.124-.123zm0 4.512a.124.124 0 0 0-.124.124v3.39c0 .068.055.124.124.124h3.08a.124.124 0 0 0 .125-.124v-3.39a.124.124 0 0 0-.124-.124zm0 4.437a.124.124 0 0 0-.124.123v3.39c0 .068.055.123.124.123h3.08a.124.124 0 0 0 .125-.124v-3.39a.124.124 0 0 0-.124-.122zm0 4.403a.124.124 0 0 0-.124.124v3.39c0 .068.055.124.124.124h3.08a.124.124 0 0 0 .125-.125v-3.39a.124.124 0 0 0-.124-.123zm0-17.943a.124.124 0 0 0-.124.124v3.39c0 .068.055.124.124.124h3.08a.124.124 0 0 0 .125-.124v-3.39a.124.124 0 0 0-.124-.124z" style="color:#000;font-style:normal;font-variant:normal;font-weight:400;font-stretch:normal;font-size:medium;line-height:normal;font-family:sans-serif;font-variant-ligatures:normal;font-variant-position:normal;font-variant-caps:normal;font-variant-numeric:normal;font-variant-alternates:normal;font-feature-settings:normal;text-indent:0;text-align:start;text-decoration:none;text-decoration-line:none;text-decoration-style:solid;text-decoration-color:#000;letter-spacing:normal;word-spacing:normal;text-transform:none;writing-mode:lr-tb;direction:ltr;text-orientation:mixed;dominant-baseline:auto;baseline-shift:baseline;text-anchor:start;white-space:normal;shape-padding:0;clip-rule:nonzero;display:inline;overflow:visible;visibility:visible;opacity:1;isolation:auto;mix-blend-mode:normal;color-interpolation:sRGB;color-interpolation-filters:linearRGB;solid-color:#000;solid-opacity:1;fill:#000;fill-opacity:1;fill-rule:evenodd;stroke:none;stroke-linecap:butt;stroke-linejoin:miter;stroke-miterlimit:4;stroke-dasharray:4.7625,1.5875;stroke-dashoffset:.79375;stroke-opacity:1;color-rendering:auto;image-rendering:auto;shape-rendering:auto;text-rendering:auto" transform="matrix(.8319 0 0 .75397 3.01 -169.908)"/></g><g style="fill:#000;fill-opacity:1;stroke:none"><path d="m1.04 274.127 17.344.05" style="color:#000;font-style:normal;font-variant:normal;font-weight:400;font-stretch:normal;font-size:medium;line-height:normal;font-family:sans-serif;font-variant-ligatures:normal;font-variant-position:normal;font-variant-caps:normal;font-variant-numeric:normal;font-variant-alternates:normal;font-feature-settings:normal;text-indent:0;text-align:start;text-decoration:none;text-decoration-line:none;text-decoration-style:solid;text-decoration-color:#000;letter-spacing:normal;word-spacing:normal;text-transform:none;writing-mode:lr-tb;direction:ltr;text-orientation:mixed;dominant-baseline:auto;baseline-shift:baseline;text-anchor:start;white-space:normal;shape-padding:0;clip-rule:nonzero;display:inline;overflow:visible;visibility:visible;isolation:auto;mix-blend-mode:normal;color-interpolation:sRGB;color-interpolation-filters:linearRGB;solid-color:#000;solid-opacity:1;fill:#000;fill-opacity:1;fill-rule:evenodd;stroke:none;stroke-width:.260467;stroke-linecap:butt;stroke-linejoin:miter;stroke-miterlimit:4;stroke-dasharray:none;stroke-dashoffset:0;stroke-opacity:1;color-rendering:auto;image-rendering:auto;shape-rendering:auto;text-rendering:auto" transform="translate(2.732 -230.24)scale(.99914)"/></g><g style="fill:#000;fill-opacity:1;stroke:none"><g style="opacity:1;fill:#000;fill-opacity:1;stroke:none"><path d="m9.74 253.177 40.783.05" style="color:#000;font-style:normal;font-variant:normal;font-weight:400;font-stretch:normal;font-size:medium;line-height:normal;font-family:sans-serif;font-variant-ligatures:normal;font-variant-position:normal;font-variant-caps:normal;font-variant-numeric:normal;font-variant-alternates:normal;font-feature-settings:normal;text-indent:0;text-align:start;text-decoration:none;text-decoration-line:none;text-decoration-style:solid;text-decoration-color:#000;letter-spacing:normal;word-spacing:normal;text-transform:none;writing-mode:lr-tb;direction:ltr;text-orientation:mixed;dominant-baseline:auto;baseline-shift:baseline;text-anchor:start;white-space:normal;shape-padding:0;clip-rule:nonzero;display:inline;overflow:visible;visibility:visible;isolation:auto;mix-blend-mode:normal;color-interpolation:sRGB;color-interpolation-filters:linearRGB;solid-color:#000;solid-opacity:1;fill:#000;fill-opacity:1;fill-rule:evenodd;stroke:none;stroke-width:.133189;stroke-linecap:butt;stroke-linejoin:miter;stroke-miterlimit:4;stroke-dasharray:none;stroke-dashoffset:0;stroke-opacity:1;color-rendering:auto;image-rendering:auto;shape-rendering:auto;text-rendering:auto" transform="matrix(.86748 0 0 1.1114 14.363 -268.745)"/><path d="M9.74 253.111v.133l40.783.05v-.134z" style="color:#000;font-style:normal;font-variant:normal;font-weight:400;font-stretch:normal;font-size:medium;line-height:normal;font-family:sans-serif;font-variant-ligatures:normal;font-variant-position:normal;font-variant-caps:normal;font-variant-numeric:normal;font-variant-alternates:normal;font-feature-settings:normal;text-indent:0;text-align:start;text-decoration:none;text-decoration-line:none;text-decoration-style:solid;text-decoration-color:#000;letter-spacing:normal;word-spacing:normal;text-transform:none;writing-mode:lr-tb;direction:ltr;text-orientation:mixed;dominant-baseline:auto;baseline-shift:baseline;text-anchor:start;white-space:normal;shape-padding:0;clip-rule:nonzero;display:inline;overflow:visible;visibility:visible;isolation:auto;mix-blend-mode:normal;color-interpolation:sRGB;color-interpolation-filters:linearRGB;solid-color:#000;solid-opacity:1;fill:#000;fill-opacity:1;fill-rule:evenodd;stroke:none;stroke-linecap:butt;stroke-linejoin:miter;stroke-miterlimit:4;stroke-dasharray:none;stroke-dashoffset:0;stroke-opacity:1;color-rendering:auto;image-rendering:auto;shape-rendering:auto;text-rendering:auto" transform="matrix(.86748 0 0 1.1114 14.363 -268.745)"/></g><g style="opacity:1;fill:#000;fill-opacity:1;stroke:none"><path d="m9.812 250.532 40.71.05" style="color:#000;font-style:normal;font-variant:normal;font-weight:400;font-stretch:normal;font-size:medium;line-height:normal;font-family:sans-serif;font-variant-ligatures:normal;font-variant-position:normal;font-variant-caps:normal;font-variant-numeric:normal;font-variant-alternates:normal;font-feature-settings:normal;text-indent:0;text-align:start;text-decoration:none;text-decoration-line:none;text-decoration-style:solid;text-decoration-color:#000;letter-spacing:normal;word-spacing:normal;text-transform:none;writing-mode:lr-tb;direction:ltr;text-orientation:mixed;dominant-baseline:auto;baseline-shift:baseline;text-anchor:start;white-space:normal;shape-padding:0;clip-rule:nonzero;display:inline;overflow:visible;visibility:visible;isolation:auto;mix-blend-mode:normal;color-interpolation:sRGB;color-interpolation-filters:linearRGB;solid-color:#000;solid-opacity:1;fill:#000;fill-opacity:1;fill-rule:evenodd;stroke:none;stroke-width:.132662;stroke-linecap:butt;stroke-linejoin:miter;stroke-miterlimit:4;stroke-dasharray:none;stroke-dashoffset:0;stroke-opacity:1;color-rendering:auto;image-rendering:auto;shape-rendering:auto;text-rendering:auto" transform="matrix(.86748 0 0 1.1114 14.363 -268.745)"/><path d="M9.813 250.465v.133l40.71.05v-.132z" style="color:#000;font-style:normal;font-variant:normal;font-weight:400;font-stretch:normal;font-size:medium;line-height:normal;font-family:sans-serif;font-variant-ligatures:normal;font-variant-position:normal;font-variant-caps:normal;font-variant-numeric:normal;font-variant-alternates:normal;font-feature-settings:normal;text-indent:0;text-align:start;text-decoration:none;text-decoration-line:none;text-decoration-style:solid;text-decoration-color:#000;letter-spacing:normal;word-spacing:normal;text-transform:none;writing-mode:lr-tb;direction:ltr;text-orientation:mixed;dominant-baseline:auto;baseline-shift:baseline;text-anchor:start;white-space:normal;shape-padding:0;clip-rule:nonzero;display:inline;overflow:visible;visibility:visible;isolation:auto;mix-blend-mode:normal;color-interpolation:sRGB;color-interpolation-filters:linearRGB;solid-color:#000;solid-opacity:1;fill:#000;fill-opacity:1;fill-rule:evenodd;stroke:none;stroke-linecap:butt;stroke-linejoin:miter;stroke-miterlimit:4;stroke-dasharray:none;stroke-dashoffset:0;stroke-opacity:1;color-rendering:auto;image-rendering:auto;shape-rendering:auto;text-rendering:auto" transform="matrix(.86748 0 0 1.1114 14.363 -268.745)"/></g><g style="opacity:1;fill:#000;fill-opacity:1;stroke:none"><path d="m50.568 250.52-.046 2.707" style="color:#000;font-style:normal;font-variant:normal;font-weight:400;font-stretch:normal;font-size:medium;line-height:normal;font-family:sans-serif;font-variant-ligatures:normal;font-variant-position:normal;font-variant-caps:normal;font-variant-numeric:normal;font-variant-alternates:normal;font-feature-settings:normal;text-indent:0;text-align:start;text-decoration:none;text-decoration-line:none;text-decoration-style:solid;text-decoration-color:#000;letter-spacing:normal;word-spacing:normal;text-transform:none;writing-mode:lr-tb;direction:ltr;text-orientation:mixed;dominant-baseline:auto;baseline-shift:baseline;text-anchor:start;white-space:normal;shape-padding:0;clip-rule:nonzero;display:inline;overflow:visible;visibility:visible;isolation:auto;mix-blend-mode:normal;color-interpolation:sRGB;color-interpolation-filters:linearRGB;solid-color:#000;solid-opacity:1;fill:#000;fill-opacity:1;fill-rule:evenodd;stroke:none;stroke-width:.103723;stroke-linecap:butt;stroke-linejoin:miter;stroke-miterlimit:4;stroke-dasharray:none;stroke-dashoffset:0;stroke-opacity:1;color-rendering:auto;image-rendering:auto;shape-rendering:auto;text-rendering:auto" transform="matrix(.86748 0 0 1.1114 14.363 -268.745)"/><path d="m50.516 250.52-.045 2.707.103.002.045-2.71z" style="color:#000;font-style:normal;font-variant:normal;font-weight:400;font-stretch:normal;font-size:medium;line-height:normal;font-family:sans-serif;font-variant-ligatures:normal;font-variant-position:normal;font-variant-caps:normal;font-variant-numeric:normal;font-variant-alternates:normal;font-feature-settings:normal;text-indent:0;text-align:start;text-decoration:none;text-decoration-line:none;text-decoration-style:solid;text-decoration-color:#000;letter-spacing:normal;word-spacing:normal;text-transform:none;writing-mode:lr-tb;direction:ltr;text-orientation:mixed;dominant-baseline:auto;baseline-shift:baseline;text-anchor:start;white-space:normal;shape-padding:0;clip-rule:nonzero;display:inline;overflow:visible;visibility:visible;isolation:auto;mix-blend-mode:normal;color-interpolation:sRGB;color-interpolation-filters:linearRGB;solid-color:#000;solid-opacity:1;fill:#000;fill-opacity:1;fill-rule:evenodd;stroke:none;stroke-linecap:butt;stroke-linejoin:miter;stroke-miterlimit:4;stroke-dasharray:none;stroke-dashoffset:0;stroke-opacity:1;color-rendering:auto;image-rendering:auto;shape-rendering:auto;text-rendering:auto" transform="matrix(.86748 0 0 1.1114 14.363 -268.745)"/></g><g style="opacity:1;fill:#000;fill-opacity:1;stroke:none"><path d="m9.822 250.52-.046 2.707" style="color:#000;font-style:normal;font-variant:normal;font-weight:400;font-stretch:normal;font-size:medium;line-height:normal;font-family:sans-serif;font-variant-ligatures:normal;font-variant-position:normal;font-variant-caps:normal;font-variant-numeric:normal;font-variant-alternates:normal;font-feature-settings:normal;text-indent:0;text-align:start;text-decoration:none;text-decoration-line:none;text-decoration-style:solid;text-decoration-color:#000;letter-spacing:normal;word-spacing:normal;text-transform:none;writing-mode:lr-tb;direction:ltr;text-orientation:mixed;dominant-baseline:auto;baseline-shift:baseline;text-anchor:start;white-space:normal;shape-padding:0;clip-rule:nonzero;display:inline;overflow:visible;visibility:visible;isolation:auto;mix-blend-mode:normal;color-interpolation:sRGB;color-interpolation-filters:linearRGB;solid-color:#000;solid-opacity:1;fill:#000;fill-opacity:1;fill-rule:evenodd;stroke:none;stroke-width:.103723;stroke-linecap:butt;stroke-linejoin:miter;stroke-miterlimit:4;stroke-dasharray:none;stroke-dashoffset:0;stroke-opacity:1;color-rendering:auto;image-rendering:auto;shape-rendering:auto;text-rendering:auto" transform="matrix(.86748 0 0 1.1114 14.363 -268.745)"/><path d="m9.77 250.52-.045 2.707.103.002.045-2.71z" style="color:#000;font-style:normal;font-variant:normal;font-weight:400;font-stretch:normal;font-size:medium;line-height:normal;font-family:sans-serif;font-variant-ligatures:normal;font-variant-position:normal;font-variant-caps:normal;font-variant-numeric:normal;font-variant-alternates:normal;font-feature-settings:normal;text-indent:0;text-align:start;text-decoration:none;text-decoration-line:none;text-decoration-style:solid;text-decoration-color:#000;letter-spacing:normal;word-spacing:normal;text-transform:none;writing-mode:lr-tb;direction:ltr;text-orientation:mixed;dominant-baseline:auto;baseline-shift:baseline;text-anchor:start;white-space:normal;shape-padding:0;clip-rule:nonzero;display:inline;overflow:visible;visibility:visible;isolation:auto;mix-blend-mode:normal;color-interpolation:sRGB;color-interpolation-filters:linearRGB;solid-color:#000;solid-opacity:1;fill:#000;fill-opacity:1;fill-rule:evenodd;stroke:none;stroke-linecap:butt;stroke-linejoin:miter;stroke-miterlimit:4;stroke-dasharray:none;stroke-dashoffset:0;stroke-opacity:1;color-rendering:auto;image-rendering:auto;shape-rendering:auto;text-rendering:auto" transform="matrix(.86748 0 0 1.1114 14.363 -268.745)"/></g></g><path d="M26.63 261.438c-.11 0-.197.081-.198.18v4.976c0 .1.089.18.198.18h4.941c.109 0 .197-.08.197-.18v-4.975c0-.1-.088-.18-.197-.18zm7.714 0c-.108 0-.196.081-.197.18v4.976c0 .1.089.18.197.18h4.942c.109 0 .197-.08.197-.18v-4.975c0-.1-.088-.18-.197-.18zm7.715 0c-.108 0-.196.081-.197.18v4.976c0 .1.089.18.197.18h4.942c.109 0 .197-.08.197-.18v-4.975c0-.1-.088-.18-.197-.18zm7.715 0c-.108 0-.196.081-.197.18v4.976c0 .1.089.18.197.18h4.942c.109 0 .196-.08.197-.18v-4.975c0-.1-.088-.18-.197-.18zm-23.144-7.405c-.11.001-.197.082-.198.181v4.975c0 .1.089.18.198.18h4.941c.109 0 .197-.08.197-.18v-4.975c0-.1-.088-.18-.197-.18zm7.714 0c-.108.001-.196.082-.197.181v4.975c0 .1.089.18.197.18h4.942c.109 0 .197-.08.197-.18v-4.975c0-.1-.088-.18-.197-.18zm7.715 0c-.108.001-.196.082-.197.181v4.975c0 .1.089.18.197.18h4.942c.109 0 .197-.08.197-.18v-4.975c0-.1-.088-.18-.197-.18zm7.715 0c-.108.001-.196.082-.197.181v4.975c0 .1.089.18.197.18h4.942c.109 0 .196-.08.197-.18v-4.975c0-.1-.088-.18-.197-.18zM26.63 246.63c-.11 0-.197.08-.198.18v4.975c0 .1.089.18.198.18h4.941c.109 0 .197-.08.197-.18v-4.975c0-.1-.088-.18-.197-.18zm7.714 0c-.108 0-.196.08-.197.18v4.975c0 .1.089.18.197.18h4.942c.109 0 .197-.08.197-.18v-4.975c0-.1-.088-.18-.197-.18zm7.715 0c-.108 0-.196.08-.197.18v4.975c0 .1.089.18.197.18h4.942c.109 0 .197-.08.197-.18v-4.975c0-.1-.088-.18-.197-.18zm7.715 0c-.108 0-.196.08-.197.18v4.975c0 .1.089.18.197.18h4.942c.109 0 .196-.08.197-.18v-4.975c0-.1-.088-.18-.197-.18zm-23.118 21.906c-.108.001-.196.082-.197.181v4.975c0 .1.089.18.197.18h4.942c.109 0 .197-.08.197-.18v-4.975c0-.1-.088-.18-.197-.18zm7.715 0c-.108.001-.196.082-.197.181v4.975c0 .1.089.18.197.18h4.942c.108 0 .196-.08.197-.18v-4.975c0-.1-.089-.18-.197-.18zm7.715 0c-.109.001-.196.082-.197.181v4.975c0 .1.088.18.197.18h4.942c.108 0 .196-.08.197-.18v-4.975c0-.1-.089-.18-.197-.18zm7.715 0c-.109.001-.197.082-.197.181v4.975c0 .1.088.18.197.18h4.942c.108 0 .196-.08.197-.18v-4.975c0-.1-.089-.18-.197-.18zM9.747 242.015l-.003.296 6.518.059.002-.296zm-4.001-1.16a.78.78 0 0 0-.566.247.87.87 0 0 0-.235.596v.001c0 .086.008.185.049.285.105.261.263.464.408.62q.061.07.13.137h.423l.136-.137c.144-.156.302-.36.407-.62a.87.87 0 0 0-.186-.882.78.78 0 0 0-.566-.247m.72 1.65a3 3 0 0 1-.297.358c-.18.178-.422.39-.422.39s-.257-.208-.425-.39a3 3 0 0 1-.296-.357l-.012.004q-.343.13-.606.345v.674h2.676v-.674a2.2 2.2 0 0 0-.603-.345l-.015-.006z" style="color:#000;font-style:normal;font-variant:normal;font-weight:400;font-stretch:normal;font-size:medium;line-height:normal;font-family:sans-serif;font-variant-ligatures:normal;font-variant-position:normal;font-variant-caps:normal;font-variant-numeric:normal;font-variant-alternates:normal;font-feature-settings:normal;text-indent:0;text-align:start;text-decoration:none;text-decoration-line:none;text-decoration-style:solid;text-decoration-color:#000;letter-spacing:normal;word-spacing:normal;text-transform:none;writing-mode:lr-tb;direction:ltr;text-orientation:mixed;dominant-baseline:auto;baseline-shift:baseline;text-anchor:start;white-space:normal;shape-padding:0;clip-rule:nonzero;display:inline;overflow:visible;visibility:visible;isolation:auto;mix-blend-mode:normal;color-interpolation:sRGB;color-interpolation-filters:linearRGB;solid-color:#000;solid-opacity:1;fill:#000;fill-opacity:1;fill-rule:nonzero;stroke:none;stroke-width:1.53383;stroke-linecap:butt;stroke-linejoin:round;stroke-miterlimit:4;stroke-dasharray:none;stroke-dashoffset:0;stroke-opacity:1;color-rendering:auto;image-rendering:auto;shape-rendering:auto;text-rendering:auto" transform="translate(0 -231)"/><g style="fill:#000;fill-opacity:1;stroke:none"><path d="M2.596 2.39a.265.265 0 0 0-.132.454l1.058 1.059a.266.266 0 1 0 .372-.38l-1.058-1.06a.27.27 0 0 0-.24-.073M1.722.271C.92.272.264.928.264 1.728S.92 3.185 1.722 3.185s1.457-.656 1.457-1.457c0-.8-.656-1.456-1.457-1.456zm0 .532a.92.92 0 0 1 .926.924.92.92 0 0 1-.926.925.92.92 0 0 1-.926-.925.92.92 0 0 1 .926-.924" style="fill:#000;fill-opacity:1;stroke:none;stroke-width:.264583" transform="translate(23.163 9.817)scale(.66426)"/></g></svg>