<svg xmlns="http://www.w3.org/2000/svg" width="350" height="350"><path d="M87.695 683.702h12.97c2.083 0 3.77 2.703 3.77 6.038v12.068c0 3.334-1.687 6.033-3.77 6.033h-12.97c-2.084 0-3.771-2.699-3.771-6.033V689.74c0-3.335 1.687-6.038 3.771-6.038m-55.664 0H45c2.083 0 3.771 2.703 3.771 6.038v12.068c0 3.334-1.688 6.033-3.771 6.033H32.03c-2.083 0-3.77-2.699-3.77-6.033V689.74c0-3.335 1.687-6.038 3.77-6.038m-55.665 0h12.969c2.084 0 3.771 2.703 3.771 6.038v12.068c0 3.334-1.687 6.033-3.771 6.033h-12.969c-2.084 0-3.771-2.699-3.771-6.033V689.74c0-3.335 1.687-6.038 3.771-6.038m-55.664 0h12.968c2.084 0 3.772 2.703 3.772 6.038v12.068c0 3.334-1.688 6.033-3.772 6.033h-12.968c-2.084 0-3.772-2.699-3.772-6.033V689.74c0-3.335 1.688-6.038 3.772-6.038M87.695 641.92h12.97c2.083 0 3.77 2.703 3.77 6.037v12.069c0 3.334-1.687 6.033-3.77 6.033h-12.97c-2.084 0-3.771-2.7-3.771-6.033v-12.069c0-3.334 1.687-6.037 3.771-6.037m-55.664 0H45c2.083 0 3.771 2.703 3.771 6.037v12.069c0 3.334-1.688 6.033-3.771 6.033H32.03c-2.083 0-3.77-2.7-3.77-6.033v-12.069c0-3.334 1.687-6.037 3.77-6.037m-55.665 0h12.969c2.084 0 3.771 2.703 3.771 6.037v12.069c0 3.334-1.687 6.033-3.771 6.033h-12.969c-2.084 0-3.771-2.7-3.771-6.033v-12.069c0-3.334 1.687-6.037 3.771-6.037m-55.664 0h12.968c2.084 0 3.772 2.703 3.772 6.037v12.069c0 3.334-1.688 6.033-3.772 6.033h-12.968c-2.084 0-3.772-2.7-3.772-6.033v-12.069c0-3.334 1.688-6.037 3.772-6.037m-25.524-40.994H126.19c2.084 0 3.771 2.7 3.771 6.034v6.035c0 3.334-1.687 6.033-3.771 6.033h-231.012c-2.084 0-3.773-2.699-3.773-6.033v-6.035c0-3.335 1.69-6.034 3.773-6.034M26.765 731.101h86.065c4.168 0 5.543 2.623 5.543 5.86v17.578c0 3.237-1.375 5.858-5.543 5.858H26.765c-4.167 0-5.543-2.621-5.543-5.858V736.96c0-3.237 1.376-5.86 5.543-5.86m-118.23.335H-5.4c4.168 0 5.543 2.623 5.543 5.86v17.577c0 3.238-1.375 5.859-5.543 5.859h-86.064c-4.168 0-5.543-2.621-5.543-5.859v-17.577c0-3.237 1.375-5.86 5.543-5.86m-33.633-171.251c-8.331 0-15.086 10.81-15.086 24.138v193.112c0 13.329 6.755 24.14 15.086 24.14h271.562c8.33 0 15.086-10.811 15.086-24.14V584.323c0-13.329-6.755-24.138-15.086-24.138z" style="fill:#383a3c;fill-opacity:1;stroke:none;stroke-width:1.21617;stroke-opacity:1" transform="translate(164.317 -505.88)"/></svg>