<svg xmlns="http://www.w3.org/2000/svg" width="66mm" height="66mm" viewBox="0 0 66 66"><path d="M12.196 241.5a.133.133 0 0 0-.132.133v44.735a.133.133 0 0 0 .132.132h41.607a.133.133 0 0 0 .133-.132v-44.735a.133.133 0 0 0-.133-.133Zm.133.265h41.342v44.47H12.329Z" style="color:#000;font-style:normal;font-variant:normal;font-weight:400;font-stretch:normal;font-size:medium;line-height:normal;font-family:sans-serif;font-variant-ligatures:normal;font-variant-position:normal;font-variant-caps:normal;font-variant-numeric:normal;font-variant-alternates:normal;font-feature-settings:normal;text-indent:0;text-align:start;text-decoration:none;text-decoration-line:none;text-decoration-style:solid;text-decoration-color:#000;letter-spacing:normal;word-spacing:normal;text-transform:none;writing-mode:lr-tb;direction:ltr;text-orientation:mixed;dominant-baseline:auto;baseline-shift:baseline;text-anchor:start;white-space:normal;shape-padding:0;clip-rule:nonzero;display:inline;overflow:visible;visibility:visible;isolation:auto;mix-blend-mode:normal;color-interpolation:sRGB;color-interpolation-filters:linearRGB;solid-color:#000;solid-opacity:1;fill:#000;fill-opacity:1;fill-rule:nonzero;stroke:none;stroke-width:.899227;stroke-linecap:butt;stroke-linejoin:round;stroke-miterlimit:4;stroke-dasharray:none;stroke-dashoffset:0;stroke-opacity:1;color-rendering:auto;image-rendering:auto;shape-rendering:auto;text-rendering:auto" transform="translate(-3.667 -260.333)scale(1.11111)"/><path d="m18.46 243.871-.228.002.21 40.976h.227z" style="color:#000;font-style:normal;font-variant:normal;font-weight:400;font-stretch:normal;font-size:medium;line-height:normal;font-family:sans-serif;font-variant-ligatures:normal;font-variant-position:normal;font-variant-caps:normal;font-variant-numeric:normal;font-variant-alternates:normal;font-feature-settings:normal;text-indent:0;text-align:start;text-decoration:none;text-decoration-line:none;text-decoration-style:solid;text-decoration-color:#000;letter-spacing:normal;word-spacing:normal;text-transform:none;writing-mode:lr-tb;direction:ltr;text-orientation:mixed;dominant-baseline:auto;baseline-shift:baseline;text-anchor:start;white-space:normal;shape-padding:0;clip-rule:nonzero;display:inline;overflow:visible;visibility:visible;isolation:auto;mix-blend-mode:normal;color-interpolation:sRGB;color-interpolation-filters:linearRGB;solid-color:#000;solid-opacity:1;fill:#000;fill-opacity:1;fill-rule:evenodd;stroke:none;stroke-width:.899227;stroke-linecap:butt;stroke-linejoin:miter;stroke-miterlimit:4;stroke-dasharray:none;stroke-dashoffset:0;stroke-opacity:1;color-rendering:auto;image-rendering:auto;shape-rendering:auto;text-rendering:auto" transform="translate(-3.667 -260.333)scale(1.11111)"/><g style="fill:#000;fill-opacity:1;stroke:none"><path d="m2.07 287.704 5.977.052" style="color:#000;font-style:normal;font-variant:normal;font-weight:400;font-stretch:normal;font-size:medium;line-height:normal;font-family:sans-serif;font-variant-ligatures:normal;font-variant-position:normal;font-variant-caps:normal;font-variant-numeric:normal;font-variant-alternates:normal;font-feature-settings:normal;text-indent:0;text-align:start;text-decoration:none;text-decoration-line:none;text-decoration-style:solid;text-decoration-color:#000;letter-spacing:normal;word-spacing:normal;text-transform:none;writing-mode:lr-tb;direction:ltr;text-orientation:mixed;dominant-baseline:auto;baseline-shift:baseline;text-anchor:start;white-space:normal;shape-padding:0;clip-rule:nonzero;display:inline;overflow:visible;visibility:visible;isolation:auto;mix-blend-mode:normal;color-interpolation:sRGB;color-interpolation-filters:linearRGB;solid-color:#000;solid-opacity:1;fill:#000;fill-opacity:1;fill-rule:evenodd;stroke:none;stroke-width:.153352;stroke-linecap:butt;stroke-linejoin:miter;stroke-miterlimit:4;stroke-dasharray:none;stroke-dashoffset:0;stroke-opacity:1;color-rendering:auto;image-rendering:auto;shape-rendering:auto;text-rendering:auto" transform="translate(9.045 -231.333)scale(.99914)"/><path d="m2.07 287.627-.002.154 5.979.051.002-.152z" style="color:#000;font-style:normal;font-variant:normal;font-weight:400;font-stretch:normal;font-size:medium;line-height:normal;font-family:sans-serif;font-variant-ligatures:normal;font-variant-position:normal;font-variant-caps:normal;font-variant-numeric:normal;font-variant-alternates:normal;font-feature-settings:normal;text-indent:0;text-align:start;text-decoration:none;text-decoration-line:none;text-decoration-style:solid;text-decoration-color:#000;letter-spacing:normal;word-spacing:normal;text-transform:none;writing-mode:lr-tb;direction:ltr;text-orientation:mixed;dominant-baseline:auto;baseline-shift:baseline;text-anchor:start;white-space:normal;shape-padding:0;clip-rule:nonzero;display:inline;overflow:visible;visibility:visible;isolation:auto;mix-blend-mode:normal;color-interpolation:sRGB;color-interpolation-filters:linearRGB;solid-color:#000;solid-opacity:1;fill:#000;fill-opacity:1;fill-rule:evenodd;stroke:none;stroke-linecap:butt;stroke-linejoin:miter;stroke-miterlimit:4;stroke-dasharray:none;stroke-dashoffset:0;stroke-opacity:1;color-rendering:auto;image-rendering:auto;shape-rendering:auto;text-rendering:auto" transform="translate(9.045 -231.333)scale(.99914)"/></g><path d="m13.225 243.871-.227.002.21 40.976h.228z" style="color:#000;font-style:normal;font-variant:normal;font-weight:400;font-stretch:normal;font-size:medium;line-height:normal;font-family:sans-serif;font-variant-ligatures:normal;font-variant-position:normal;font-variant-caps:normal;font-variant-numeric:normal;font-variant-alternates:normal;font-feature-settings:normal;text-indent:0;text-align:start;text-decoration:none;text-decoration-line:none;text-decoration-style:solid;text-decoration-color:#000;letter-spacing:normal;word-spacing:normal;text-transform:none;writing-mode:lr-tb;direction:ltr;text-orientation:mixed;dominant-baseline:auto;baseline-shift:baseline;text-anchor:start;white-space:normal;shape-padding:0;clip-rule:nonzero;display:inline;overflow:visible;visibility:visible;isolation:auto;mix-blend-mode:normal;color-interpolation:sRGB;color-interpolation-filters:linearRGB;solid-color:#000;solid-opacity:1;fill:#000;fill-opacity:1;fill-rule:evenodd;stroke:none;stroke-width:.899227;stroke-linecap:butt;stroke-linejoin:miter;stroke-miterlimit:4;stroke-dasharray:none;stroke-dashoffset:0;stroke-opacity:1;color-rendering:auto;image-rendering:auto;shape-rendering:auto;text-rendering:auto" transform="translate(-3.667 -260.333)scale(1.11111)"/><g style="fill:#000;fill-opacity:1;stroke:none"><path d="m1.824 242.177 5.908.052" style="color:#000;font-style:normal;font-variant:normal;font-weight:400;font-stretch:normal;font-size:medium;line-height:normal;font-family:sans-serif;font-variant-ligatures:normal;font-variant-position:normal;font-variant-caps:normal;font-variant-numeric:normal;font-variant-alternates:normal;font-feature-settings:normal;text-indent:0;text-align:start;text-decoration:none;text-decoration-line:none;text-decoration-style:solid;text-decoration-color:#000;letter-spacing:normal;word-spacing:normal;text-transform:none;writing-mode:lr-tb;direction:ltr;text-orientation:mixed;dominant-baseline:auto;baseline-shift:baseline;text-anchor:start;white-space:normal;shape-padding:0;clip-rule:nonzero;display:inline;overflow:visible;visibility:visible;isolation:auto;mix-blend-mode:normal;color-interpolation:sRGB;color-interpolation-filters:linearRGB;solid-color:#000;solid-opacity:1;fill:#000;fill-opacity:1;fill-rule:evenodd;stroke:none;stroke-width:.153091;stroke-linecap:butt;stroke-linejoin:miter;stroke-miterlimit:4;stroke-dasharray:none;stroke-dashoffset:0;stroke-opacity:1;color-rendering:auto;image-rendering:auto;shape-rendering:auto;text-rendering:auto" transform="translate(9.045 -231.333)scale(.99914)"/><path d="m1.824 242.102-.002.152 5.908.05.002-.152z" style="color:#000;font-style:normal;font-variant:normal;font-weight:400;font-stretch:normal;font-size:medium;line-height:normal;font-family:sans-serif;font-variant-ligatures:normal;font-variant-position:normal;font-variant-caps:normal;font-variant-numeric:normal;font-variant-alternates:normal;font-feature-settings:normal;text-indent:0;text-align:start;text-decoration:none;text-decoration-line:none;text-decoration-style:solid;text-decoration-color:#000;letter-spacing:normal;word-spacing:normal;text-transform:none;writing-mode:lr-tb;direction:ltr;text-orientation:mixed;dominant-baseline:auto;baseline-shift:baseline;text-anchor:start;white-space:normal;shape-padding:0;clip-rule:nonzero;display:inline;overflow:visible;visibility:visible;isolation:auto;mix-blend-mode:normal;color-interpolation:sRGB;color-interpolation-filters:linearRGB;solid-color:#000;solid-opacity:1;fill:#000;fill-opacity:1;fill-rule:evenodd;stroke:none;stroke-linecap:butt;stroke-linejoin:miter;stroke-miterlimit:4;stroke-dasharray:none;stroke-dashoffset:0;stroke-opacity:1;color-rendering:auto;image-rendering:auto;shape-rendering:auto;text-rendering:auto" transform="translate(9.045 -231.333)scale(.99914)"/></g><g style="fill:#000;fill-opacity:1;stroke:none"><g style="opacity:1;fill:#000;fill-opacity:1;stroke:none"><path d="m9.77 250.52-.045 2.707.103.002.045-2.71zm.052 0-.046 2.707m40.74-2.707-.045 2.707.103.002.045-2.71zm.052 0-.046 2.707m-40.71-2.762v.133l40.711.05v-.132zm0 .067 40.71.05m-40.782 2.53v.132l40.783.051v-.135zm0 .065 40.783.05m-1.33-1.248a.148.142 0 0 0-.074.244l.593.568a.15.143 0 1 0 .208-.204l-.593-.568a.148.142 0 0 0-.134-.04m-.49-1.137c-.45 0-.817.352-.817.782s.368.782.817.782.817-.352.817-.782-.368-.782-.817-.782m0 .285c.289 0 .519.22.519.497 0 .276-.23.496-.52.496a.505.505 0 0 1-.518-.496c0-.276.23-.496.519-.496z" style="color:#000;font-style:normal;font-variant:normal;font-weight:400;font-stretch:normal;font-size:medium;line-height:normal;font-family:sans-serif;font-variant-ligatures:normal;font-variant-position:normal;font-variant-caps:normal;font-variant-numeric:normal;font-variant-alternates:normal;font-feature-settings:normal;text-indent:0;text-align:start;text-decoration:none;text-decoration-line:none;text-decoration-style:solid;text-decoration-color:#000;letter-spacing:normal;word-spacing:normal;text-transform:none;writing-mode:lr-tb;direction:ltr;text-orientation:mixed;dominant-baseline:auto;baseline-shift:baseline;text-anchor:start;white-space:normal;shape-padding:0;clip-rule:nonzero;display:inline;overflow:visible;visibility:visible;isolation:auto;mix-blend-mode:normal;color-interpolation:sRGB;color-interpolation-filters:linearRGB;solid-color:#000;solid-opacity:1;fill:#000;fill-opacity:1;fill-rule:evenodd;stroke:none;stroke-linecap:butt;stroke-linejoin:miter;stroke-miterlimit:4;stroke-dasharray:none;stroke-dashoffset:0;stroke-opacity:1;color-rendering:auto;image-rendering:auto;shape-rendering:auto;text-rendering:auto" transform="matrix(.8337 0 0 .87034 11.133 -197.304)"/></g></g><path d="M35.958 242.855c-.678 0-1.333.286-1.812.79a2.78 2.78 0 0 0-.751 1.909v.002c0 .274.025.59.155.911.338.836.844 1.486 1.306 1.987.127.146.272.294.417.437h1.354c.146-.144.297-.293.436-.437h-.002c.463-.502.969-1.15 1.306-1.987.13-.32.154-.636.155-.911v-.002a2.78 2.78 0 0 0-.75-1.909 2.5 2.5 0 0 0-1.813-.79zm2.306 5.281a9 9 0 0 1-.95 1.145h.001c-.577.57-1.353 1.25-1.353 1.25s-.823-.668-1.36-1.25h.002a9 9 0 0 1-.949-1.142l-.04.014a6.9 6.9 0 0 0-1.939 1.107v2.156h8.566v-2.156a6.9 6.9 0 0 0-1.93-1.107z" style="font-style:normal;font-variant:normal;font-weight:400;font-stretch:normal;font-size:121.63px;line-height:125%;font-family:Ubuntu;-inkscape-font-specification:Ubuntu;text-align:center;letter-spacing:0;word-spacing:0;writing-mode:lr-tb;text-anchor:middle;fill:#000;fill-opacity:1;stroke:none;stroke-width:.109788" transform="translate(-3.667 -260.333)scale(1.11111)"/><g style="fill:#000;fill-opacity:1;stroke:none"><g style="display:inline;fill:#000;fill-opacity:1;stroke:none"><g style="fill:#000;fill-opacity:1;stroke:none"><path d="m52.217 828.325-2.822 2.4 2.543 3.03 2.837-2.38zm-4.9 5.952-.619 3.652 3.896.687.644-3.648zm.074 7.709 1.872 3.196 3.427-1.979-1.852-3.208zm5.01 5.858 3.49 1.244 1.352-3.717-3.48-1.267zm7.604 1.267 3.473-1.29-1.353-3.717-3.48 1.267zm6.64-3.918 1.831-3.22-3.426-1.978-1.852 3.208zm2.568-7.268-.667-3.644-3.896.687.643 3.648zm-2.705-7.219-2.853-2.363-2.543 3.031 2.838 2.381zm-6.712-4.056-3.704.553v3.692h3.704zm6.177 16.022c2.548-4.415 1.016-10.11-3.401-12.662s-10.112-1.034-12.659 3.381c-2.547 4.416-1.013 10.112 3.404 12.664 4.417 2.553 10.11 1.033 12.656-3.383m-2.75-1.589a6.06 6.06 0 0 1-8.32 2.221 6.075 6.075 0 0 1-2.24-8.323 6.063 6.063 0 0 1 8.322-2.22 6.073 6.073 0 0 1 2.239 8.322" style="color:#000;display:inline;overflow:visible;visibility:visible;fill:#000;fill-opacity:1;fill-rule:nonzero;stroke:none;stroke-width:.529167;marker:none" transform="translate(6.133 -64.032)scale(.13467)"/></g></g></g><path d="M15.17 274.051h.77v.193h-.77zm0-.385h1.347v.193H15.17zm0-.384h1.347v.192H15.17zm-.578-.578v2.502h1.828l.674-.674v-1.828zm.193.193H16.9v1.54h-.577v.576h-1.54zm1.058-4.48a.73.73 0 0 0-.53.231.8.8 0 0 0-.219.558c0 .08.008.173.046.267.098.244.246.434.381.58q.057.065.122.128h.395l.128-.128a1.9 1.9 0 0 0 .38-.58.81.81 0 0 0-.174-.825.73.73 0 0 0-.529-.23m.674 1.543c-.09.128-.186.24-.278.334-.168.167-.395.366-.395.366s-.24-.195-.397-.365a3 3 0 0 1-.276-.334l-.012.005a2 2 0 0 0-.566.323v.63h2.501v-.63a2 2 0 0 0-.577-.328z" style="color:#000;display:inline;overflow:visible;visibility:visible;fill:#000;fill-opacity:1;fill-rule:nonzero;stroke:none;stroke-width:.19241;marker:none" transform="translate(-3.667 -260.333)scale(1.11111)"/><g style="fill:#000;fill-opacity:1;stroke:none"><path d="M.794 4.763h4.762v-.53H.794zm0-1.323h4.762v-.53H.794zm0-1.852v.529h4.762v-.53Z" style="fill:#000;fill-opacity:1;stroke:none;stroke-width:.264583" transform="matrix(.67344 0 0 1.01016 11.585 11.02)"/></g><g style="fill:#000;fill-opacity:1;stroke:none"><g style="opacity:1;fill:#000;fill-opacity:1;stroke:none"><path d="M-22.314 251.799a.22.22 0 0 0-.221.222v6.067c0 .122.099.22.22.22h5.514a.22.22 0 0 0 .223-.22v-6.067c0-.123-.1-.223-.223-.222zm0 8.076a.22.22 0 0 0-.221.223v6.066c0 .122.099.22.22.22h5.514a.22.22 0 0 0 .223-.22v-6.066c0-.124-.1-.224-.223-.223zm0 7.94a.22.22 0 0 0-.221.22v6.067c0 .121.099.22.22.22h5.514a.22.22 0 0 0 .223-.22v-6.067a.22.22 0 0 0-.223-.22zm0-24.23a.22.22 0 0 0-.221.222v6.066c0 .122.099.22.22.22h5.514a.22.22 0 0 0 .223-.22v-6.066a.22.22 0 0 0-.223-.221zm7.54 8.204a.22.22 0 0 0-.22.223v6.066c0 .122.098.22.22.22h5.514a.22.22 0 0 0 .222-.22v-6.066a.22.22 0 0 0-.222-.223zm0 8.076a.22.22 0 0 0-.22.223v6.066c0 .122.098.22.22.221h5.514a.22.22 0 0 0 .222-.22v-6.067a.22.22 0 0 0-.222-.223zm0 7.94a.22.22 0 0 0-.22.22v6.067c0 .122.098.22.22.22h5.514a.22.22 0 0 0 .222-.22v-6.067c0-.122-.1-.22-.222-.22zm0-24.229a.22.22 0 0 0-.22.22v6.067c0 .122.098.22.22.221h5.514a.22.22 0 0 0 .222-.22v-6.067a.22.22 0 0 0-.222-.22zm7.54 8.203c-.122 0-.22.1-.22.223v6.066c0 .122.099.22.22.221h5.514a.22.22 0 0 0 .223-.22v-6.067c0-.123-.1-.223-.223-.223zm0 8.077c-.122 0-.22.1-.22.222v6.067c0 .121.099.22.22.22h5.514a.22.22 0 0 0 .223-.22v-6.067c0-.123-.1-.223-.223-.222zm0 7.939a.22.22 0 0 0-.22.22v6.067c0 .122.099.22.22.22h5.514a.22.22 0 0 0 .223-.22v-6.066a.22.22 0 0 0-.223-.221zm0-24.229a.22.22 0 0 0-.22.221v6.067c0 .121.099.22.22.22h5.514a.22.22 0 0 0 .223-.22v-6.067a.22.22 0 0 0-.223-.22zm7.541 8.204a.22.22 0 0 0-.22.222v6.067c0 .121.099.22.22.22h5.514a.22.22 0 0 0 .223-.22v-6.067c0-.123-.1-.223-.223-.222zm0 8.076a.22.22 0 0 0-.22.222v6.067c0 .122.099.22.22.22h5.514a.22.22 0 0 0 .223-.22v-6.067c0-.123-.1-.223-.223-.222zm0 7.94a.22.22 0 0 0-.22.22v6.066c0 .122.099.22.22.221h5.514a.22.22 0 0 0 .223-.22v-6.067a.22.22 0 0 0-.223-.22zm0-24.23a.22.22 0 0 0-.22.221v6.067c0 .122.099.22.22.22h5.514a.22.22 0 0 0 .223-.22v-6.067c0-.122-.1-.22-.223-.22zm7.54 8.204c-.122 0-.22.1-.22.223v6.066c0 .122.1.22.22.22h5.515a.22.22 0 0 0 .222-.22v-6.066c0-.124-.1-.224-.222-.223zm0 8.076c-.122 0-.22.1-.22.223v6.066c0 .122.1.22.22.22h5.515a.22.22 0 0 0 .222-.22v-6.066c0-.123-.1-.223-.222-.223zm0 7.94a.22.22 0 0 0-.22.22v6.067c0 .121.1.22.22.22h5.515a.22.22 0 0 0 .222-.22v-6.067a.22.22 0 0 0-.222-.22zm0-24.229a.22.22 0 0 0-.22.22v6.067c0 .122.1.22.22.22h5.515a.22.22 0 0 0 .222-.22v-6.066a.22.22 0 0 0-.222-.221z" style="color:#000;font-style:normal;font-variant:normal;font-weight:400;font-stretch:normal;font-size:medium;line-height:normal;font-family:sans-serif;font-variant-ligatures:normal;font-variant-position:normal;font-variant-caps:normal;font-variant-numeric:normal;font-variant-alternates:normal;font-feature-settings:normal;text-indent:0;text-align:start;text-decoration:none;text-decoration-line:none;text-decoration-style:solid;text-decoration-color:#000;letter-spacing:normal;word-spacing:normal;text-transform:none;writing-mode:lr-tb;direction:ltr;text-orientation:mixed;dominant-baseline:auto;baseline-shift:baseline;text-anchor:start;white-space:normal;shape-padding:0;clip-rule:nonzero;display:inline;overflow:visible;visibility:visible;isolation:auto;mix-blend-mode:normal;color-interpolation:sRGB;color-interpolation-filters:linearRGB;solid-color:#000;solid-opacity:1;fill:#000;fill-opacity:1;fill-rule:nonzero;stroke:none;stroke-linecap:butt;stroke-linejoin:round;stroke-miterlimit:4;stroke-dasharray:none;stroke-dashoffset:0;stroke-opacity:1;color-rendering:auto;image-rendering:auto;shape-rendering:auto;text-rendering:auto" transform="scale(.97492 .8293)rotate(-89.926 -88.937 132.885)"/></g></g><path d="M4.544 265.746a1.27 1.27 0 0 0-1.269 1.269c0 .699.57 1.268 1.269 1.268a1.27 1.27 0 0 0 1.268-1.268 1.27 1.27 0 0 0-1.268-1.269m0 .24c.57 0 1.029.458 1.029 1.029 0 .57-.46 1.029-1.03 1.029a1.029 1.029 0 1 1 0-2.059" style="color:#000;font-style:normal;font-variant:normal;font-weight:400;font-stretch:normal;font-size:medium;line-height:normal;font-family:sans-serif;font-variant-ligatures:normal;font-variant-position:normal;font-variant-caps:normal;font-variant-numeric:normal;font-variant-alternates:normal;font-feature-settings:normal;text-indent:0;text-align:start;text-decoration:none;text-decoration-line:none;text-decoration-style:solid;text-decoration-color:#000;letter-spacing:normal;word-spacing:normal;text-transform:none;writing-mode:lr-tb;direction:ltr;text-orientation:mixed;dominant-baseline:auto;baseline-shift:baseline;text-anchor:start;white-space:normal;shape-padding:0;clip-rule:nonzero;display:inline;overflow:visible;visibility:visible;isolation:auto;mix-blend-mode:normal;color-interpolation:sRGB;color-interpolation-filters:linearRGB;solid-color:#000;solid-opacity:1;fill:#000;fill-opacity:1;fill-rule:nonzero;stroke:none;stroke-width:.899262;stroke-linecap:butt;stroke-linejoin:round;stroke-miterlimit:4;stroke-dasharray:none;stroke-dashoffset:0;stroke-opacity:1;color-rendering:auto;image-rendering:auto;shape-rendering:auto;text-rendering:auto" transform="translate(8.997 -243.377)scale(1.11111)"/><path d="m4.483 266.251.12-.02v.663h-.12Z" style="color:#000;display:inline;overflow:visible;visibility:visible;fill:#000;fill-opacity:1;stroke:none;stroke-width:.180686;marker:none" transform="translate(8.997 -243.377)scale(1.11111)"/><path d="M4.212 266.44a.663.663 0 1 0 .662 0l-.06.105a.542.542 0 1 1-.542 0z" style="color:#000;font-style:normal;font-variant:normal;font-weight:400;font-stretch:normal;font-size:medium;line-height:normal;font-family:sans-serif;font-variant-ligatures:normal;font-variant-position:normal;font-variant-caps:normal;font-variant-numeric:normal;font-variant-alternates:normal;font-feature-settings:normal;text-indent:0;text-align:start;text-decoration:none;text-decoration-line:none;text-decoration-style:solid;text-decoration-color:#000;letter-spacing:normal;word-spacing:normal;text-transform:none;writing-mode:lr-tb;direction:ltr;text-orientation:mixed;dominant-baseline:auto;baseline-shift:baseline;text-anchor:start;white-space:normal;shape-padding:0;clip-rule:nonzero;display:inline;overflow:visible;visibility:visible;isolation:auto;mix-blend-mode:normal;color-interpolation:sRGB;color-interpolation-filters:linearRGB;solid-color:#000;solid-opacity:1;fill:#000;fill-opacity:1;fill-rule:nonzero;stroke:none;stroke-width:.0758786;stroke-linecap:butt;stroke-linejoin:round;stroke-miterlimit:4;stroke-dasharray:none;stroke-dashoffset:0;stroke-opacity:1;marker:none;color-rendering:auto;image-rendering:auto;shape-rendering:auto;text-rendering:auto" transform="translate(8.997 -243.377)scale(1.11111)"/></svg>