<svg xmlns="http://www.w3.org/2000/svg" width="66mm" height="66mm" viewBox="0 0 66 66"><path d="M.213 239a.175.175 0 0 0-.174.176v49.65a.175.175 0 0 0 .174.174h65.572a.175.175 0 0 0 .176-.174v-49.65a.175.175 0 0 0-.176-.176Zm.176.35h65.22v49.3H.389Z" style="color:#000;font-style:normal;font-variant:normal;font-weight:400;font-stretch:normal;font-size:medium;line-height:normal;font-family:sans-serif;font-variant-ligatures:normal;font-variant-position:normal;font-variant-caps:normal;font-variant-numeric:normal;font-variant-alternates:normal;font-feature-settings:normal;text-indent:0;text-align:start;text-decoration:none;text-decoration-line:none;text-decoration-style:solid;text-decoration-color:#000;letter-spacing:normal;word-spacing:normal;text-transform:none;writing-mode:lr-tb;direction:ltr;text-orientation:mixed;dominant-baseline:auto;baseline-shift:baseline;text-anchor:start;white-space:normal;shape-padding:0;clip-rule:nonzero;display:inline;overflow:visible;visibility:visible;isolation:auto;mix-blend-mode:normal;color-interpolation:sRGB;color-interpolation-filters:linearRGB;solid-color:#000;solid-opacity:1;fill:#000;fill-opacity:1;fill-rule:nonzero;stroke:none;stroke-width:1.22003;stroke-linecap:butt;stroke-linejoin:round;stroke-miterlimit:4;stroke-dasharray:none;stroke-dashoffset:0;stroke-opacity:1;color-rendering:auto;image-rendering:auto;shape-rendering:auto;text-rendering:auto" transform="translate(0 -231)"/><g style="fill:#000;fill-opacity:1;stroke:none"><path d="M1.722.272C.92.272.264.928.264 1.728S.92 3.185 1.722 3.185s1.457-.656 1.457-1.457c0-.8-.656-1.456-1.457-1.456m0 .532a.92.92 0 0 1 .926.924.92.92 0 0 1-.926.925.92.92 0 0 1-.926-.925.92.92 0 0 1 .926-.924" style="fill:#000;fill-opacity:1;stroke:none;stroke-width:.264583" transform="translate(13.119 10.601)scale(.66425)"/><path d="M2.596 2.39a.265.265 0 0 0-.132.454l1.058 1.059a.266.266 0 1 0 .372-.38l-1.058-1.06a.27.27 0 0 0-.24-.073" style="fill:#000;fill-opacity:1;stroke:none;stroke-width:.264583" transform="translate(13.119 10.601)scale(.66425)"/></g><g style="fill:#000;fill-opacity:1;stroke:none"><g style="opacity:1;fill:#000;fill-opacity:1;stroke:none"><path d="m9.74 253.177 40.783.05" style="color:#000;font-style:normal;font-variant:normal;font-weight:400;font-stretch:normal;font-size:medium;line-height:normal;font-family:sans-serif;font-variant-ligatures:normal;font-variant-position:normal;font-variant-caps:normal;font-variant-numeric:normal;font-variant-alternates:normal;font-feature-settings:normal;text-indent:0;text-align:start;text-decoration:none;text-decoration-line:none;text-decoration-style:solid;text-decoration-color:#000;letter-spacing:normal;word-spacing:normal;text-transform:none;writing-mode:lr-tb;direction:ltr;text-orientation:mixed;dominant-baseline:auto;baseline-shift:baseline;text-anchor:start;white-space:normal;shape-padding:0;clip-rule:nonzero;display:inline;overflow:visible;visibility:visible;isolation:auto;mix-blend-mode:normal;color-interpolation:sRGB;color-interpolation-filters:linearRGB;solid-color:#000;solid-opacity:1;fill:#000;fill-opacity:1;fill-rule:evenodd;stroke:none;stroke-width:.133189;stroke-linecap:butt;stroke-linejoin:miter;stroke-miterlimit:4;stroke-dasharray:none;stroke-dashoffset:0;stroke-opacity:1;color-rendering:auto;image-rendering:auto;shape-rendering:auto;text-rendering:auto" transform="matrix(1.00455 0 0 1.22003 2.49 -295.281)"/><path d="M9.74 253.111v.133l40.783.05v-.134z" style="color:#000;font-style:normal;font-variant:normal;font-weight:400;font-stretch:normal;font-size:medium;line-height:normal;font-family:sans-serif;font-variant-ligatures:normal;font-variant-position:normal;font-variant-caps:normal;font-variant-numeric:normal;font-variant-alternates:normal;font-feature-settings:normal;text-indent:0;text-align:start;text-decoration:none;text-decoration-line:none;text-decoration-style:solid;text-decoration-color:#000;letter-spacing:normal;word-spacing:normal;text-transform:none;writing-mode:lr-tb;direction:ltr;text-orientation:mixed;dominant-baseline:auto;baseline-shift:baseline;text-anchor:start;white-space:normal;shape-padding:0;clip-rule:nonzero;display:inline;overflow:visible;visibility:visible;isolation:auto;mix-blend-mode:normal;color-interpolation:sRGB;color-interpolation-filters:linearRGB;solid-color:#000;solid-opacity:1;fill:#000;fill-opacity:1;fill-rule:evenodd;stroke:none;stroke-linecap:butt;stroke-linejoin:miter;stroke-miterlimit:4;stroke-dasharray:none;stroke-dashoffset:0;stroke-opacity:1;color-rendering:auto;image-rendering:auto;shape-rendering:auto;text-rendering:auto" transform="matrix(1.00455 0 0 1.22003 2.49 -295.281)"/></g><g style="opacity:1;fill:#000;fill-opacity:1;stroke:none"><path d="m9.812 250.532 40.71.05" style="color:#000;font-style:normal;font-variant:normal;font-weight:400;font-stretch:normal;font-size:medium;line-height:normal;font-family:sans-serif;font-variant-ligatures:normal;font-variant-position:normal;font-variant-caps:normal;font-variant-numeric:normal;font-variant-alternates:normal;font-feature-settings:normal;text-indent:0;text-align:start;text-decoration:none;text-decoration-line:none;text-decoration-style:solid;text-decoration-color:#000;letter-spacing:normal;word-spacing:normal;text-transform:none;writing-mode:lr-tb;direction:ltr;text-orientation:mixed;dominant-baseline:auto;baseline-shift:baseline;text-anchor:start;white-space:normal;shape-padding:0;clip-rule:nonzero;display:inline;overflow:visible;visibility:visible;isolation:auto;mix-blend-mode:normal;color-interpolation:sRGB;color-interpolation-filters:linearRGB;solid-color:#000;solid-opacity:1;fill:#000;fill-opacity:1;fill-rule:evenodd;stroke:none;stroke-width:.132662;stroke-linecap:butt;stroke-linejoin:miter;stroke-miterlimit:4;stroke-dasharray:none;stroke-dashoffset:0;stroke-opacity:1;color-rendering:auto;image-rendering:auto;shape-rendering:auto;text-rendering:auto" transform="matrix(1.00455 0 0 1.22003 2.49 -295.281)"/><path d="M9.813 250.465v.133l40.71.05v-.132z" style="color:#000;font-style:normal;font-variant:normal;font-weight:400;font-stretch:normal;font-size:medium;line-height:normal;font-family:sans-serif;font-variant-ligatures:normal;font-variant-position:normal;font-variant-caps:normal;font-variant-numeric:normal;font-variant-alternates:normal;font-feature-settings:normal;text-indent:0;text-align:start;text-decoration:none;text-decoration-line:none;text-decoration-style:solid;text-decoration-color:#000;letter-spacing:normal;word-spacing:normal;text-transform:none;writing-mode:lr-tb;direction:ltr;text-orientation:mixed;dominant-baseline:auto;baseline-shift:baseline;text-anchor:start;white-space:normal;shape-padding:0;clip-rule:nonzero;display:inline;overflow:visible;visibility:visible;isolation:auto;mix-blend-mode:normal;color-interpolation:sRGB;color-interpolation-filters:linearRGB;solid-color:#000;solid-opacity:1;fill:#000;fill-opacity:1;fill-rule:evenodd;stroke:none;stroke-linecap:butt;stroke-linejoin:miter;stroke-miterlimit:4;stroke-dasharray:none;stroke-dashoffset:0;stroke-opacity:1;color-rendering:auto;image-rendering:auto;shape-rendering:auto;text-rendering:auto" transform="matrix(1.00455 0 0 1.22003 2.49 -295.281)"/></g><g style="opacity:1;fill:#000;fill-opacity:1;stroke:none"><path d="m50.568 250.52-.046 2.707" style="color:#000;font-style:normal;font-variant:normal;font-weight:400;font-stretch:normal;font-size:medium;line-height:normal;font-family:sans-serif;font-variant-ligatures:normal;font-variant-position:normal;font-variant-caps:normal;font-variant-numeric:normal;font-variant-alternates:normal;font-feature-settings:normal;text-indent:0;text-align:start;text-decoration:none;text-decoration-line:none;text-decoration-style:solid;text-decoration-color:#000;letter-spacing:normal;word-spacing:normal;text-transform:none;writing-mode:lr-tb;direction:ltr;text-orientation:mixed;dominant-baseline:auto;baseline-shift:baseline;text-anchor:start;white-space:normal;shape-padding:0;clip-rule:nonzero;display:inline;overflow:visible;visibility:visible;isolation:auto;mix-blend-mode:normal;color-interpolation:sRGB;color-interpolation-filters:linearRGB;solid-color:#000;solid-opacity:1;fill:#000;fill-opacity:1;fill-rule:evenodd;stroke:none;stroke-width:.103723;stroke-linecap:butt;stroke-linejoin:miter;stroke-miterlimit:4;stroke-dasharray:none;stroke-dashoffset:0;stroke-opacity:1;color-rendering:auto;image-rendering:auto;shape-rendering:auto;text-rendering:auto" transform="matrix(1.00455 0 0 1.22003 2.49 -295.281)"/><path d="m50.516 250.52-.045 2.707.103.002.045-2.71z" style="color:#000;font-style:normal;font-variant:normal;font-weight:400;font-stretch:normal;font-size:medium;line-height:normal;font-family:sans-serif;font-variant-ligatures:normal;font-variant-position:normal;font-variant-caps:normal;font-variant-numeric:normal;font-variant-alternates:normal;font-feature-settings:normal;text-indent:0;text-align:start;text-decoration:none;text-decoration-line:none;text-decoration-style:solid;text-decoration-color:#000;letter-spacing:normal;word-spacing:normal;text-transform:none;writing-mode:lr-tb;direction:ltr;text-orientation:mixed;dominant-baseline:auto;baseline-shift:baseline;text-anchor:start;white-space:normal;shape-padding:0;clip-rule:nonzero;display:inline;overflow:visible;visibility:visible;isolation:auto;mix-blend-mode:normal;color-interpolation:sRGB;color-interpolation-filters:linearRGB;solid-color:#000;solid-opacity:1;fill:#000;fill-opacity:1;fill-rule:evenodd;stroke:none;stroke-linecap:butt;stroke-linejoin:miter;stroke-miterlimit:4;stroke-dasharray:none;stroke-dashoffset:0;stroke-opacity:1;color-rendering:auto;image-rendering:auto;shape-rendering:auto;text-rendering:auto" transform="matrix(1.00455 0 0 1.22003 2.49 -295.281)"/></g><g style="opacity:1;fill:#000;fill-opacity:1;stroke:none"><path d="m9.822 250.52-.046 2.707" style="color:#000;font-style:normal;font-variant:normal;font-weight:400;font-stretch:normal;font-size:medium;line-height:normal;font-family:sans-serif;font-variant-ligatures:normal;font-variant-position:normal;font-variant-caps:normal;font-variant-numeric:normal;font-variant-alternates:normal;font-feature-settings:normal;text-indent:0;text-align:start;text-decoration:none;text-decoration-line:none;text-decoration-style:solid;text-decoration-color:#000;letter-spacing:normal;word-spacing:normal;text-transform:none;writing-mode:lr-tb;direction:ltr;text-orientation:mixed;dominant-baseline:auto;baseline-shift:baseline;text-anchor:start;white-space:normal;shape-padding:0;clip-rule:nonzero;display:inline;overflow:visible;visibility:visible;isolation:auto;mix-blend-mode:normal;color-interpolation:sRGB;color-interpolation-filters:linearRGB;solid-color:#000;solid-opacity:1;fill:#000;fill-opacity:1;fill-rule:evenodd;stroke:none;stroke-width:.103723;stroke-linecap:butt;stroke-linejoin:miter;stroke-miterlimit:4;stroke-dasharray:none;stroke-dashoffset:0;stroke-opacity:1;color-rendering:auto;image-rendering:auto;shape-rendering:auto;text-rendering:auto" transform="matrix(1.00455 0 0 1.22003 2.49 -295.281)"/><path d="m9.77 250.52-.045 2.707.103.002.045-2.71z" style="color:#000;font-style:normal;font-variant:normal;font-weight:400;font-stretch:normal;font-size:medium;line-height:normal;font-family:sans-serif;font-variant-ligatures:normal;font-variant-position:normal;font-variant-caps:normal;font-variant-numeric:normal;font-variant-alternates:normal;font-feature-settings:normal;text-indent:0;text-align:start;text-decoration:none;text-decoration-line:none;text-decoration-style:solid;text-decoration-color:#000;letter-spacing:normal;word-spacing:normal;text-transform:none;writing-mode:lr-tb;direction:ltr;text-orientation:mixed;dominant-baseline:auto;baseline-shift:baseline;text-anchor:start;white-space:normal;shape-padding:0;clip-rule:nonzero;display:inline;overflow:visible;visibility:visible;isolation:auto;mix-blend-mode:normal;color-interpolation:sRGB;color-interpolation-filters:linearRGB;solid-color:#000;solid-opacity:1;fill:#000;fill-opacity:1;fill-rule:evenodd;stroke:none;stroke-linecap:butt;stroke-linejoin:miter;stroke-miterlimit:4;stroke-dasharray:none;stroke-dashoffset:0;stroke-opacity:1;color-rendering:auto;image-rendering:auto;shape-rendering:auto;text-rendering:auto" transform="matrix(1.00455 0 0 1.22003 2.49 -295.281)"/></g></g><g style="fill:#000;fill-opacity:1;stroke:none"><g style="opacity:1;fill:#000;fill-opacity:1;stroke:none"><path d="M275.898-29.479a.2.2 0 0 0-.203.202v5.267c0 .113.091.204.203.203h5.284a.2.2 0 0 0 .2-.203v-5.267a.2.2 0 0 0-.2-.202zm-.009 10.772a.2.2 0 0 0-.2.203v5.268c0 .11.09.2.2.2h5.286a.2.2 0 0 0 .2-.2v-5.268a.2.2 0 0 0-.2-.203zm-.006 10.773a.2.2 0 0 0-.203.202v5.267c0 .112.092.202.203.201h5.284a.2.2 0 0 0 .2-.2v-5.268a.2.2 0 0 0-.2-.202zm.032-43.09a.2.2 0 0 0-.203.204v5.267a.2.2 0 0 0 .203.201h5.283c.11 0 .2-.09.201-.2v-5.268a.2.2 0 0 0-.201-.203zm-.008 10.774a.2.2 0 0 0-.203.201v5.268c0 .112.09.203.203.203h5.283a.2.2 0 0 0 .201-.203v-5.268c0-.11-.09-.2-.201-.201zm-8.476 10.755a.2.2 0 0 0-.201.203v5.267c0 .111.09.201.201.202h5.285c.111-.001.2-.09.201-.202v-5.267a.2.2 0 0 0-.2-.203zm-.008 10.773c-.11 0-.2.09-.201.201v5.268c0 .11.09.2.201.201h5.283c.112 0 .203-.09.203-.201v-5.268a.2.2 0 0 0-.203-.2zm-.008 10.772c-.11 0-.2.09-.201.2v5.268c0 .112.09.203.201.203h5.283a.2.2 0 0 0 .203-.203v-5.267a.2.2 0 0 0-.203-.201zm.031-43.088a.2.2 0 0 0-.2.2v5.268a.2.2 0 0 0 .2.204h5.284a.203.203 0 0 0 .203-.204v-5.267a.2.2 0 0 0-.203-.201zm-.008 10.771a.2.2 0 0 0-.2.201v5.268a.2.2 0 0 0 .2.203h5.286a.2.2 0 0 0 .2-.203v-5.268a.2.2 0 0 0-.2-.2zm-8.474 10.755a.2.2 0 0 0-.201.204v5.267c0 .111.09.2.2.201h5.286c.11 0 .2-.09.201-.2v-5.268a.2.2 0 0 0-.201-.204zm-.008 10.774c-.111 0-.2.09-.201.201v5.268c0 .11.09.2.2.2h5.284a.2.2 0 0 0 .203-.2v-5.268a.2.2 0 0 0-.203-.201zm-.008 10.771c-.111 0-.2.09-.201.202v5.267c0 .112.09.203.2.203h5.284c.112 0 .204-.09.203-.203v-5.267a.2.2 0 0 0-.203-.202zm.031-43.088c-.11.001-.2.09-.201.202v5.267c0 .112.09.203.201.203h5.283c.113 0 .204-.09.204-.203v-5.267a.2.2 0 0 0-.204-.202zm-.008 10.772c-.11 0-.2.09-.201.201v5.268c0 .111.09.202.201.203h5.285a.2.2 0 0 0 .202-.203v-5.268a.203.203 0 0 0-.202-.201z" style="color:#000;font-style:normal;font-variant:normal;font-weight:400;font-stretch:normal;font-size:medium;line-height:normal;font-family:sans-serif;font-variant-ligatures:normal;font-variant-position:normal;font-variant-caps:normal;font-variant-numeric:normal;font-variant-alternates:normal;font-feature-settings:normal;text-indent:0;text-align:start;text-decoration:none;text-decoration-line:none;text-decoration-style:solid;text-decoration-color:#000;letter-spacing:normal;word-spacing:normal;text-transform:none;writing-mode:lr-tb;direction:ltr;text-orientation:mixed;dominant-baseline:auto;baseline-shift:baseline;text-anchor:start;white-space:normal;shape-padding:0;clip-rule:nonzero;display:inline;overflow:visible;visibility:visible;isolation:auto;mix-blend-mode:normal;color-interpolation:sRGB;color-interpolation-filters:linearRGB;solid-color:#000;solid-opacity:1;fill:#000;fill-opacity:1;fill-rule:nonzero;stroke:none;stroke-linecap:butt;stroke-linejoin:round;stroke-miterlimit:4;stroke-dasharray:none;stroke-dashoffset:0;stroke-opacity:1;color-rendering:auto;image-rendering:auto;shape-rendering:auto;text-rendering:auto" transform="rotate(89.89 149.366 -149.905)scale(1.22003)"/></g></g><path d="m2.564 287.234 17.954.051" style="color:#000;stroke-width:.265" transform="matrix(3.2334 0 0 1.703 -4.987 -439.215)"/><path d="M2.564 287.102v.265l17.954.051v-.266z" style="color:#000" transform="matrix(3.2334 0 0 1.703 -4.987 -439.215)"/><path d="M39.658 246.833v-.319h-.308z" style="color:#000;fill:#000;stroke-width:1.22423" transform="translate(-37.807 -274.027)scale(1.32335)"/><path d="m38.837 246.429-.821.771v.996h.821v-.772l.035-.01q.026-.008.057-.013.033-.007.068-.01l.068-.004a.4.4 0 0 1 .136.021.2.2 0 0 1 .087.066q.033.046.047.12.015.075.015.18v.421h.308v-.995z" style="-inkscape-font-specification:Ubuntu;fill:#000;stroke-width:.0255047" transform="translate(-37.807 -274.027)scale(1.32335)"/><path d="m37.864 247.397-.114-.12 1.087-1.123 1.086 1.123-.114.12-.972-.93z" style="color:#000;-inkscape-font-specification:sans-serif;fill:#000;stroke-width:.153028" transform="translate(-37.807 -274.027)scale(1.32335)"/><path d="M9.63 286.362v.314l1.655.006.002-.314zm2.356.008-.001.314 2.096.007.002-.314z" style="color:#000;font-style:normal;font-variant:normal;font-weight:400;font-stretch:normal;font-size:medium;line-height:normal;font-family:sans-serif;font-variant-ligatures:normal;font-variant-position:normal;font-variant-caps:normal;font-variant-numeric:normal;font-variant-alternates:normal;font-feature-settings:normal;text-indent:0;text-align:start;text-decoration:none;text-decoration-line:none;text-decoration-style:solid;text-decoration-color:#000;letter-spacing:normal;word-spacing:normal;text-transform:none;writing-mode:lr-tb;direction:ltr;text-orientation:mixed;dominant-baseline:auto;baseline-shift:baseline;text-anchor:start;white-space:normal;shape-padding:0;clip-rule:nonzero;display:inline;overflow:visible;visibility:visible;isolation:auto;mix-blend-mode:normal;color-interpolation:sRGB;color-interpolation-filters:linearRGB;solid-color:#000;solid-opacity:1;fill:#000;fill-opacity:1;fill-rule:evenodd;stroke:none;stroke-width:.52682;stroke-linecap:butt;stroke-linejoin:miter;stroke-miterlimit:4;stroke-dasharray:1.98877,.662925;stroke-dashoffset:.418164;stroke-opacity:1;color-rendering:auto;image-rendering:auto;shape-rendering:auto;text-rendering:auto" transform="translate(1.732 -230.527)"/><path d="M24.964 283.246a.145.145 0 0 0-.145.146v.727c0 .08.065.145.145.145h.727c.08 0 .146-.065.146-.145v-.727a.145.145 0 0 0-.146-.146zm.146.437h.436v.29h-.436zm1.018-.437a.145.145 0 0 0-.146.146v.727c0 .08.065.145.146.145h.727c.08 0 .145-.065.145-.145v-.727a.145.145 0 0 0-.145-.146zm.145.437h.436v.29h-.436zm-1.309.727a.145.145 0 0 0-.145.145v.727c0 .08.065.145.145.145h.727c.08 0 .146-.064.146-.145v-.727a.145.145 0 0 0-.146-.145zm.146.436h.436v.29h-.436zm1.018-.436a.145.145 0 0 0-.146.145v.727c0 .08.065.145.146.145h.727c.08 0 .145-.064.145-.145v-.727a.145.145 0 0 0-.145-.145zm.145.436h.436v.29h-.436z" style="fill:#000;fill-opacity:1;stroke:none;stroke-width:.145571;stroke-linecap:round;stroke-linejoin:round;stroke-miterlimit:4;stroke-dasharray:none;stroke-dashoffset:0;stroke-opacity:1" transform="translate(-9.743 -309.323)scale(1.2751)"/><path d="M20.03 286.362v.314l1.655.006.002-.314zm2.356.008-.001.314 2.096.007.002-.314z" style="color:#000;font-style:normal;font-variant:normal;font-weight:400;font-stretch:normal;font-size:medium;line-height:normal;font-family:sans-serif;font-variant-ligatures:normal;font-variant-position:normal;font-variant-caps:normal;font-variant-numeric:normal;font-variant-alternates:normal;font-feature-settings:normal;text-indent:0;text-align:start;text-decoration:none;text-decoration-line:none;text-decoration-style:solid;text-decoration-color:#000;letter-spacing:normal;word-spacing:normal;text-transform:none;writing-mode:lr-tb;direction:ltr;text-orientation:mixed;dominant-baseline:auto;baseline-shift:baseline;text-anchor:start;white-space:normal;shape-padding:0;clip-rule:nonzero;display:inline;overflow:visible;visibility:visible;isolation:auto;mix-blend-mode:normal;color-interpolation:sRGB;color-interpolation-filters:linearRGB;solid-color:#000;solid-opacity:1;fill:#000;fill-opacity:1;fill-rule:evenodd;stroke:none;stroke-width:.52682;stroke-linecap:butt;stroke-linejoin:miter;stroke-miterlimit:4;stroke-dasharray:1.98877,.662925;stroke-dashoffset:.418164;stroke-opacity:1;color-rendering:auto;image-rendering:auto;shape-rendering:auto;text-rendering:auto" transform="translate(1.038 -230.654)"/><path d="M24.964 283.246a.145.145 0 0 0-.145.146v.727c0 .08.065.145.145.145h.727c.08 0 .146-.065.146-.145v-.727a.145.145 0 0 0-.146-.146zm.146.437h.436v.29h-.436zm1.018-.437a.145.145 0 0 0-.146.146v.727c0 .08.065.145.146.145h.727c.08 0 .145-.065.145-.145v-.727a.145.145 0 0 0-.145-.146zm.145.437h.436v.29h-.436zm-1.309.727a.145.145 0 0 0-.145.145v.727c0 .08.065.145.145.145h.727c.08 0 .146-.064.146-.145v-.727a.145.145 0 0 0-.146-.145zm.146.436h.436v.29h-.436zm1.018-.436a.145.145 0 0 0-.146.145v.727c0 .08.065.145.146.145h.727c.08 0 .145-.064.145-.145v-.727a.145.145 0 0 0-.145-.145zm.145.436h.436v.29h-.436z" style="fill:#000;fill-opacity:1;stroke:none;stroke-width:.145571;stroke-linecap:round;stroke-linejoin:round;stroke-miterlimit:4;stroke-dasharray:none;stroke-dashoffset:0;stroke-opacity:1" transform="translate(-.037 -309.323)scale(1.2751)"/><path d="M20.03 286.362v.314l1.655.006.002-.314zm2.356.008-.001.314 2.096.007.002-.314z" style="color:#000;font-style:normal;font-variant:normal;font-weight:400;font-stretch:normal;font-size:medium;line-height:normal;font-family:sans-serif;font-variant-ligatures:normal;font-variant-position:normal;font-variant-caps:normal;font-variant-numeric:normal;font-variant-alternates:normal;font-feature-settings:normal;text-indent:0;text-align:start;text-decoration:none;text-decoration-line:none;text-decoration-style:solid;text-decoration-color:#000;letter-spacing:normal;word-spacing:normal;text-transform:none;writing-mode:lr-tb;direction:ltr;text-orientation:mixed;dominant-baseline:auto;baseline-shift:baseline;text-anchor:start;white-space:normal;shape-padding:0;clip-rule:nonzero;display:inline;overflow:visible;visibility:visible;isolation:auto;mix-blend-mode:normal;color-interpolation:sRGB;color-interpolation-filters:linearRGB;solid-color:#000;solid-opacity:1;fill:#000;fill-opacity:1;fill-rule:evenodd;stroke:none;stroke-width:.52682;stroke-linecap:butt;stroke-linejoin:miter;stroke-miterlimit:4;stroke-dasharray:1.98877,.662925;stroke-dashoffset:.418164;stroke-opacity:1;color-rendering:auto;image-rendering:auto;shape-rendering:auto;text-rendering:auto" transform="translate(10.744 -230.654)"/><path d="M24.964 283.246a.145.145 0 0 0-.145.146v.727c0 .08.065.145.145.145h.727c.08 0 .146-.065.146-.145v-.727a.145.145 0 0 0-.146-.146zm.146.437h.436v.29h-.436zm1.018-.437a.145.145 0 0 0-.146.146v.727c0 .08.065.145.146.145h.727c.08 0 .145-.065.145-.145v-.727a.145.145 0 0 0-.145-.146zm.145.437h.436v.29h-.436zm-1.309.727a.145.145 0 0 0-.145.145v.727c0 .08.065.145.145.145h.727c.08 0 .146-.064.146-.145v-.727a.145.145 0 0 0-.146-.145zm.146.436h.436v.29h-.436zm1.018-.436a.145.145 0 0 0-.146.145v.727c0 .08.065.145.146.145h.727c.08 0 .145-.064.145-.145v-.727a.145.145 0 0 0-.145-.145zm.145.436h.436v.29h-.436z" style="fill:#000;fill-opacity:1;stroke:none;stroke-width:.145571;stroke-linecap:round;stroke-linejoin:round;stroke-miterlimit:4;stroke-dasharray:none;stroke-dashoffset:0;stroke-opacity:1" transform="translate(9.669 -309.323)scale(1.2751)"/><path d="M20.03 286.362v.314l1.655.006.002-.314zm2.356.008-.001.314 2.096.007.002-.314z" style="color:#000;font-style:normal;font-variant:normal;font-weight:400;font-stretch:normal;font-size:medium;line-height:normal;font-family:sans-serif;font-variant-ligatures:normal;font-variant-position:normal;font-variant-caps:normal;font-variant-numeric:normal;font-variant-alternates:normal;font-feature-settings:normal;text-indent:0;text-align:start;text-decoration:none;text-decoration-line:none;text-decoration-style:solid;text-decoration-color:#000;letter-spacing:normal;word-spacing:normal;text-transform:none;writing-mode:lr-tb;direction:ltr;text-orientation:mixed;dominant-baseline:auto;baseline-shift:baseline;text-anchor:start;white-space:normal;shape-padding:0;clip-rule:nonzero;display:inline;overflow:visible;visibility:visible;isolation:auto;mix-blend-mode:normal;color-interpolation:sRGB;color-interpolation-filters:linearRGB;solid-color:#000;solid-opacity:1;fill:#000;fill-opacity:1;fill-rule:evenodd;stroke:none;stroke-width:.52682;stroke-linecap:butt;stroke-linejoin:miter;stroke-miterlimit:4;stroke-dasharray:1.98877,.662925;stroke-dashoffset:.418164;stroke-opacity:1;color-rendering:auto;image-rendering:auto;shape-rendering:auto;text-rendering:auto" transform="translate(20.45 -230.654)"/><path d="M24.964 283.246a.145.145 0 0 0-.145.146v.727c0 .08.065.145.145.145h.727c.08 0 .146-.065.146-.145v-.727a.145.145 0 0 0-.146-.146zm.146.437h.436v.29h-.436zm1.018-.437a.145.145 0 0 0-.146.146v.727c0 .08.065.145.146.145h.727c.08 0 .145-.065.145-.145v-.727a.145.145 0 0 0-.145-.146zm.145.437h.436v.29h-.436zm-1.309.727a.145.145 0 0 0-.145.145v.727c0 .08.065.145.145.145h.727c.08 0 .146-.064.146-.145v-.727a.145.145 0 0 0-.146-.145zm.146.436h.436v.29h-.436zm1.018-.436a.145.145 0 0 0-.146.145v.727c0 .08.065.145.146.145h.727c.08 0 .145-.064.145-.145v-.727a.145.145 0 0 0-.145-.145zm.145.436h.436v.29h-.436z" style="fill:#000;fill-opacity:1;stroke:none;stroke-width:.145571;stroke-linecap:round;stroke-linejoin:round;stroke-miterlimit:4;stroke-dasharray:none;stroke-dashoffset:0;stroke-opacity:1" transform="translate(19.375 -309.323)scale(1.2751)"/><path d="M20.03 286.362v.314l1.655.006.002-.314zm2.356.008-.001.314 2.096.007.002-.314z" style="color:#000;font-style:normal;font-variant:normal;font-weight:400;font-stretch:normal;font-size:medium;line-height:normal;font-family:sans-serif;font-variant-ligatures:normal;font-variant-position:normal;font-variant-caps:normal;font-variant-numeric:normal;font-variant-alternates:normal;font-feature-settings:normal;text-indent:0;text-align:start;text-decoration:none;text-decoration-line:none;text-decoration-style:solid;text-decoration-color:#000;letter-spacing:normal;word-spacing:normal;text-transform:none;writing-mode:lr-tb;direction:ltr;text-orientation:mixed;dominant-baseline:auto;baseline-shift:baseline;text-anchor:start;white-space:normal;shape-padding:0;clip-rule:nonzero;display:inline;overflow:visible;visibility:visible;isolation:auto;mix-blend-mode:normal;color-interpolation:sRGB;color-interpolation-filters:linearRGB;solid-color:#000;solid-opacity:1;fill:#000;fill-opacity:1;fill-rule:evenodd;stroke:none;stroke-width:.52682;stroke-linecap:butt;stroke-linejoin:miter;stroke-miterlimit:4;stroke-dasharray:1.98877,.662925;stroke-dashoffset:.418164;stroke-opacity:1;color-rendering:auto;image-rendering:auto;shape-rendering:auto;text-rendering:auto" transform="translate(30.156 -230.654)"/></svg>