<svg xmlns="http://www.w3.org/2000/svg" width="66mm" height="66mm" viewBox="0 0 66 66"><path d="M.635 239.921a.13.13 0 0 0-.131.133v49.777a.13.13 0 0 0 .13.133h37.19a.13.13 0 0 0 .131-.133v-49.777a.13.13 0 0 0-.13-.133zm.133.266H37.69V289.7H.768Z" style="color:#000;font-style:normal;font-variant:normal;font-weight:400;font-stretch:normal;font-size:medium;line-height:normal;font-family:sans-serif;font-variant-ligatures:normal;font-variant-position:normal;font-variant-caps:normal;font-variant-numeric:normal;font-variant-alternates:normal;font-feature-settings:normal;text-indent:0;text-align:start;text-decoration:none;text-decoration-line:none;text-decoration-style:solid;text-decoration-color:#000;letter-spacing:normal;word-spacing:normal;text-transform:none;writing-mode:lr-tb;direction:ltr;text-orientation:mixed;dominant-baseline:auto;baseline-shift:baseline;text-anchor:start;white-space:normal;shape-padding:0;clip-rule:nonzero;display:inline;overflow:visible;visibility:visible;isolation:auto;mix-blend-mode:normal;color-interpolation:sRGB;color-interpolation-filters:linearRGB;solid-color:#000;solid-opacity:1;fill:#000;fill-opacity:1;fill-rule:nonzero;stroke:none;stroke-width:1;stroke-linecap:butt;stroke-linejoin:round;stroke-miterlimit:4;stroke-dasharray:none;stroke-dashoffset:0;stroke-opacity:1;color-rendering:auto;image-rendering:auto;shape-rendering:auto;text-rendering:auto" transform="matrix(1.11111 0 0 .99914 11.634 -231.715)"/><path d="m18.205 240.148-.264.002.233 49.566.265-.002z" style="color:#000;font-style:normal;font-variant:normal;font-weight:400;font-stretch:normal;font-size:medium;line-height:normal;font-family:sans-serif;font-variant-ligatures:normal;font-variant-position:normal;font-variant-caps:normal;font-variant-numeric:normal;font-variant-alternates:normal;font-feature-settings:normal;text-indent:0;text-align:start;text-decoration:none;text-decoration-line:none;text-decoration-style:solid;text-decoration-color:#000;letter-spacing:normal;word-spacing:normal;text-transform:none;writing-mode:lr-tb;direction:ltr;text-orientation:mixed;dominant-baseline:auto;baseline-shift:baseline;text-anchor:start;white-space:normal;shape-padding:0;clip-rule:nonzero;display:inline;overflow:visible;visibility:visible;isolation:auto;mix-blend-mode:normal;color-interpolation:sRGB;color-interpolation-filters:linearRGB;solid-color:#000;solid-opacity:1;fill:#000;fill-opacity:1;fill-rule:evenodd;stroke:none;stroke-width:1;stroke-linecap:butt;stroke-linejoin:miter;stroke-miterlimit:4;stroke-dasharray:none;stroke-dashoffset:0;stroke-opacity:1;color-rendering:auto;image-rendering:auto;shape-rendering:auto;text-rendering:auto" transform="matrix(1.11111 0 0 .99914 11.634 -231.715)"/><path d="m3.219 247.34-.002.628 2.98.01.002-.629zm4.24.013-.004.63 3.775.014.002-.63zm5.033.02-.002.628 1.5.006.002-.629zm-9.228 3.66-.002.63 2.98.01.002-.628zm4.238.015-.002.63 3.775.013.002-.63zm5.035.02-.004.629 1.502.004.002-.63zm-9.22 3.53-.004.63 2.982.012.002-.63zm4.238.017-.002.628 3.775.014.002-.629zm5.033.017-.002.631 1.5.004.004-.629zm-9.176 3.838-.002.629 2.983.012.002-.63zm4.24.016-.002.629 3.776.013.002-.629zm5.034.017-.002.63 1.5.005.002-.629zm-9.327 3.35-.002.63 2.983.01.002-.628zm4.24.015-.001.63 3.775.013.002-.629zm5.034.02-.002.629 1.5.004.002-.629zm-9.176 3.268-.002.628 2.98.012.004-.629zm4.24.015-.002.629 3.776.014.002-.63zm5.033.018-.002.63 1.5.005.002-.63zm-9.27 3.351-.001.63 2.98.01.004-.63zm4.241.014-.002.63 3.774.015.004-.631zm5.033.02-.002.628 1.5.006.002-.63zm-9.273-24.835-.002.63 2.98.01.004-.63zm4.24.014-.002.63 3.774.013.004-.63zm5.033.02-.002.629 1.5.006.002-.631z" style="color:#000;font-style:normal;font-variant:normal;font-weight:400;font-stretch:normal;font-size:medium;line-height:normal;font-family:sans-serif;font-variant-ligatures:normal;font-variant-position:normal;font-variant-caps:normal;font-variant-numeric:normal;font-variant-alternates:normal;font-feature-settings:normal;text-indent:0;text-align:start;text-decoration:none;text-decoration-line:none;text-decoration-style:solid;text-decoration-color:#000;letter-spacing:normal;word-spacing:normal;text-transform:none;writing-mode:lr-tb;direction:ltr;text-orientation:mixed;dominant-baseline:auto;baseline-shift:baseline;text-anchor:start;white-space:normal;shape-padding:0;clip-rule:nonzero;display:inline;overflow:visible;visibility:visible;isolation:auto;mix-blend-mode:normal;color-interpolation:sRGB;color-interpolation-filters:linearRGB;solid-color:#000;solid-opacity:1;fill:#000;fill-opacity:1;fill-rule:evenodd;stroke:none;stroke-width:1;stroke-linecap:butt;stroke-linejoin:miter;stroke-miterlimit:4;stroke-dasharray:3.77505,1.25835;stroke-dashoffset:.79375;stroke-opacity:1;color-rendering:auto;image-rendering:auto;shape-rendering:auto;text-rendering:auto" transform="matrix(1.11111 0 0 .99914 11.634 -231.715)"/><g style="fill:#000;fill-opacity:1;stroke:none"><path d="M-38.113 271.182v.203l10.613.037v-.203zm.095 3.156v.203l10.614.037v-.203Zm.004 3.232v.203l10.614.038v-.204zm-4.52-8.242a.095.095 0 0 0-.095.096v2.443c0 .053.043.096.096.096h2.527a.095.095 0 0 0 .096-.096v-2.443a.095.095 0 0 0-.096-.096zm0 2.93a.095.095 0 0 0-.095.095v2.444c0 .053.043.096.096.096h2.527a.095.095 0 0 0 .096-.096v-2.444a.095.095 0 0 0-.096-.095zm0 3.156a.095.095 0 0 0-.095.096v2.445c0 .052.044.094.096.094h2.527a.095.095 0 0 0 .096-.094v-2.445a.095.095 0 0 0-.096-.096zm4.281-27.55v.191l10.612.037.002-.192zm.045 3.53-.002.19 10.614.038v-.191zm.051 3.408-.002.19 10.615.037.001-.19zm.095 3.698v.19l10.614.038v-.191zm-.052 3.232v.191l10.614.037v-.19zm.096 3.156-.001.19 10.614.038.002-.192zm.004 3.233v.19l10.614.037v-.19zm0-23.696v.19l10.614.036v-.19zm-4.519 15.453c-.056 0-.102.04-.102.09v2.443c0 .05.046.09.102.09h2.528c.056 0 .102-.04.101-.09v-2.444c0-.05-.045-.09-.101-.09zm0 2.93c-.056 0-.102.04-.102.09v2.443c0 .05.046.09.102.09h2.528c.056 0 .102-.04.101-.09v-2.444c0-.05-.045-.09-.101-.09zm0 3.157c-.056 0-.102.04-.102.09v2.443c0 .05.046.09.102.09h2.528c.056 0 .102-.04.101-.09v-2.444c0-.05-.045-.09-.101-.09zm0-18.833c-.056 0-.102.04-.102.09v2.443c0 .05.046.09.102.09h2.528c.056 0 .102-.04.101-.09v-2.444c0-.05-.045-.09-.101-.09zm0 3.253c-.056 0-.102.04-.102.09v2.444c0 .05.046.09.102.09h2.528c.056 0 .102-.04.101-.09v-2.444c0-.05-.045-.09-.101-.09zm0 3.2c-.055 0-.1.039-.102.088v2.444c0 .05.046.09.102.09h2.528c.056 0 .102-.04.101-.09v-2.444c0-.05-.046-.088-.101-.088zm0 3.174c-.056 0-.102.04-.102.09v2.443c0 .05.046.09.102.09h2.528c.056 0 .102-.04.101-.09v-2.444c0-.049-.045-.09-.101-.089zm0-12.937c-.056 0-.102.04-.102.09v2.443c0 .05.046.09.102.09h2.528c.056 0 .102-.04.101-.09v-2.443c0-.05-.045-.09-.101-.09z" style="color:#000;font-style:normal;font-variant:normal;font-weight:400;font-stretch:normal;font-size:medium;line-height:normal;font-family:sans-serif;font-variant-ligatures:normal;font-variant-position:normal;font-variant-caps:normal;font-variant-numeric:normal;font-variant-alternates:normal;font-feature-settings:normal;text-indent:0;text-align:start;text-decoration:none;text-decoration-line:none;text-decoration-style:solid;text-decoration-color:#000;letter-spacing:normal;word-spacing:normal;text-transform:none;writing-mode:lr-tb;direction:ltr;text-orientation:mixed;dominant-baseline:auto;baseline-shift:baseline;text-anchor:start;white-space:normal;shape-padding:0;clip-rule:nonzero;display:inline;overflow:visible;visibility:visible;opacity:1;isolation:auto;mix-blend-mode:normal;color-interpolation:sRGB;color-interpolation-filters:linearRGB;solid-color:#000;solid-opacity:1;fill:#000;fill-opacity:1;fill-rule:evenodd;stroke:none;stroke-linecap:butt;stroke-linejoin:miter;stroke-miterlimit:4;stroke-dasharray:none;stroke-dashoffset:.264583;stroke-opacity:1;color-rendering:auto;image-rendering:auto;shape-rendering:auto;text-rendering:auto" transform="matrix(1.11111 0 0 .99914 81.447 -232.05)"/></g><path d="m3.46 287.06-.001.629 2.98.012.004-.63zm4.241.016-.002.628 3.774.014.004-.629zm5.033.017-.002.631 1.5.004.002-.629z" style="color:#000;font-style:normal;font-variant:normal;font-weight:400;font-stretch:normal;font-size:medium;line-height:normal;font-family:sans-serif;font-variant-ligatures:normal;font-variant-position:normal;font-variant-caps:normal;font-variant-numeric:normal;font-variant-alternates:normal;font-feature-settings:normal;text-indent:0;text-align:start;text-decoration:none;text-decoration-line:none;text-decoration-style:solid;text-decoration-color:#000;letter-spacing:normal;word-spacing:normal;text-transform:none;writing-mode:lr-tb;direction:ltr;text-orientation:mixed;dominant-baseline:auto;baseline-shift:baseline;text-anchor:start;white-space:normal;shape-padding:0;clip-rule:nonzero;display:inline;overflow:visible;visibility:visible;isolation:auto;mix-blend-mode:normal;color-interpolation:sRGB;color-interpolation-filters:linearRGB;solid-color:#000;solid-opacity:1;fill:#000;fill-opacity:1;fill-rule:evenodd;stroke:none;stroke-width:1;stroke-linecap:butt;stroke-linejoin:miter;stroke-miterlimit:4;stroke-dasharray:3.77505,1.25835;stroke-dashoffset:.79375;stroke-opacity:1;color-rendering:auto;image-rendering:auto;shape-rendering:auto;text-rendering:auto" transform="matrix(1.11111 0 0 .99914 11.634 -231.715)"/></svg>