<svg xmlns="http://www.w3.org/2000/svg" width="66mm" height="66mm" viewBox="0 0 66 66"><path d="M14.421 239a.13.13 0 0 0-.132.13v49.74a.13.13 0 0 0 .132.13H51.58a.13.13 0 0 0 .132-.13v-49.74a.13.13 0 0 0-.132-.13Zm.133.263h36.894v49.474H14.554Z" style="color:#000;stroke-width:.99918;stroke-linejoin:round" transform="translate(0 -231)"/><path d="m22.785 239.766.233 49.661" style="color:#000;fill:#000;stroke-width:.264583px" transform="translate(13.82 -231.438)scale(.99918)"/><path d="m22.652 239.766.235 49.662.263-.002-.232-49.66z" style="color:#000;fill:#000" transform="translate(13.82 -231.438)scale(.99918)"/><path d="M36.587 239.066a.066.066 0 0 0-.064.065v5.357a.066.066 0 0 0 .064.066h14.992a.066.066 0 0 0 .066-.066v-5.357a.066.066 0 0 0-.066-.065zm.066.131h14.861v5.226h-14.86z" style="color:#000;stroke-width:.99918;stroke-linejoin:round" transform="translate(0 -231)"/><path d="m2.564 287.234 17.954.051" style="color:#000;stroke-width:.265" transform="translate(13.846 -230.474)scale(.99918)"/><path d="M2.564 287.102v.265l17.954.051v-.266z" style="color:#000" transform="translate(13.846 -230.474)scale(.99918)"/><path d="M40.164 242.34a3 3 0 0 1-.33.4c-.201.198-.472.435-.472.435s-.286-.233-.473-.436a3 3 0 0 1-.33-.397l-.014.005q-.383.144-.675.385v.75h2.982v-.75a2.4 2.4 0 0 0-.671-.385z" style="-inkscape-font-specification:Ubuntu;stroke-width:.0382251" transform="translate(.007 -231)"/><path d="M39.361 240.502c-.236 0-.464.1-.631.275a.97.97 0 0 0-.261.665c0 .096.009.206.054.318.117.29.293.517.454.691q.069.077.146.152h.47q.079-.075.153-.152c.16-.174.336-.4.454-.691a.8.8 0 0 0 .054-.318.97.97 0 0 0-.262-.665.87.87 0 0 0-.63-.275" style="-inkscape-font-specification:Ubuntu;stroke-width:.0382251" transform="translate(.007 -231)"/><path d="m21.16 245.757-.001.792 3.965.016.002-.793zm5.553.021-.002.793 4.758.02.003-.793zm6.344.026-.002.792 1.032.004.002-.792zm-11.842 4.843-.004.795 3.966.015.004-.792zm5.552.024-.004.792 4.758.02.004-.795zm6.345.025-.004.793 1.032.004.004-.793zm-11.834 4.674-.004.794 3.965.016.004-.794zm5.552.022-.004.794 4.76.02.002-.795zm6.344.025-.004.794 1.033.004.004-.794zm-11.78 5.078-.003.794 3.965.016.004-.794zm5.553.023-.004.793 4.758.02.004-.795zm6.344.026-.004.792 1.033.004.004-.792zm-11.959 4.432-.004.792 3.966.016.004-.793zm5.55.021-.002.794 4.758.018.004-.792zm6.347.026-.004.794 1.032.004.002-.794zm-11.782 4.326-.002.792 3.966.016.002-.792zm5.553.022-.004.792 4.76.02.001-.793zm6.344.025-.002.792 1.03.004.004-.792zm-11.89 4.432-.005.794 3.966.016.004-.795zm5.55.021-.003.795 4.758.02.004-.795zm6.346.026-.004.794 1.032.004.002-.792zM21.453 240.99l-.004.792 3.966.018.004-.795zm5.55.021-.002.794 4.758.02.004-.794zm6.347.026-.004.794 1.032.004.002-.794zM15.946 262.67a.124.124 0 0 0-.123.123v3.388c0 .067.055.122.123.122h3.08a.124.124 0 0 0 .123-.122v-3.388a.124.124 0 0 0-.123-.123zm0 4.059a.124.124 0 0 0-.123.125v3.386c0 .067.055.122.123.123h3.08a.124.124 0 0 0 .123-.123v-3.386a.124.124 0 0 0-.123-.125zm0 4.375a.124.124 0 0 0-.123.123v3.388c0 .068.055.123.123.123h3.08a.124.124 0 0 0 .123-.123v-3.388a.124.124 0 0 0-.123-.123zm0-26.1a.124.124 0 0 0-.123.125v3.386c0 .069.055.125.123.125h3.08a.124.124 0 0 0 .123-.125v-3.386a.124.124 0 0 0-.123-.124zm0 4.51a.124.124 0 0 0-.123.123v3.388c0 .068.055.123.123.123h3.08a.124.124 0 0 0 .123-.123v-3.388a.124.124 0 0 0-.123-.123zm0 4.432a.124.124 0 0 0-.123.125v3.386c0 .068.055.123.123.123h3.08a.124.124 0 0 0 .123-.123v-3.386a.124.124 0 0 0-.123-.125zm0 4.401a.124.124 0 0 0-.123.123v3.388c0 .068.055.122.123.123h3.08a.124.124 0 0 0 .123-.123v-3.388a.124.124 0 0 0-.123-.123zm0-17.929a.124.124 0 0 0-.123.125v3.386c0 .069.055.125.123.125h3.08a.124.124 0 0 0 .123-.125v-3.386a.124.124 0 0 0-.123-.125z" style="color:#000;stroke-width:.99918;stroke-dasharray:4.7586,1.5862;stroke-dashoffset:.793099" transform="translate(0 -231)"/><path d="m23.199 281.988 14.688.051" style="color:#000;stroke-width:.240218" transform="translate(13.631 -231.345)scale(.99918)"/><path d="M23.2 281.867v.24l14.687.053v-.24z" style="color:#000" transform="translate(13.631 -231.345)scale(.99918)"/><path d="m23.315 267.112 14.572.051" style="color:#000;stroke-width:.239282" transform="translate(13.631 -231.345)scale(.99918)"/><path d="m23.316 266.992-.002.24 14.573.051v-.24z" style="color:#000" transform="translate(13.631 -231.345)scale(.99918)"/><path d="M39.373 256.295c.26 0 .46.044.46.044v1.409l-.003.034a.5.5 0 0 1-.057.2l-.007.012-.008.011q-.08.11-.275.11c-.23 0-.327-.162-.327-.305v-.022c.007-.117.07-.28.292-.28h.018a.4.4 0 0 1 .091.015h.002l.01.003.005.002.008.003.007.003.004.001q.044.018.083.044v-.765s-.57-.105-.937.127v.941l-.001.042v.005l-.003.034a.44.44 0 0 1-.071.223c-.053.073-.157.11-.286.11-.23 0-.327-.162-.327-.305 0-.117.056-.303.293-.303.09 0 .158.028.22.068l.013.008v-1.24c.245-.181.537-.227.796-.228z" style="fill:#000;stroke-width:.0243837" transform="translate(0 -231)"/><path d="M37.975 263.217v1.612h.134v-.045q.002-.02.023-.022h.156q.021.002.023.022v.045h.134v-1.612h-.134v.045c0 .012-.01.022-.023.022h-.156a.022.022 0 0 1-.023-.022v-.045zm.157.201h.156q.021.002.023.023v.09c0 .012-.01.022-.023.022h-.156a.022.022 0 0 1-.023-.023v-.09c0-.012.01-.022.023-.022m0 .27h.156c.013 0 .023.01.023.022v.089c0 .012-.01.022-.023.022h-.156a.022.022 0 0 1-.023-.022v-.09c0-.012.01-.022.023-.022m0 .268h.156q.021.002.023.022v.09c0 .012-.01.022-.023.022h-.156a.022.022 0 0 1-.023-.022v-.09q.002-.02.023-.022m0 .268h.156q.021.002.023.023v.09q-.002.02-.023.022h-.156a.022.022 0 0 1-.023-.023v-.09c0-.012.01-.022.023-.022m0 .27h.156c.013 0 .023.01.023.021v.09q-.002.02-.023.022h-.156a.022.022 0 0 1-.023-.022v-.09c0-.012.01-.022.023-.022m1.253-1.275v1.612h.135v-.045q.002-.02.022-.022h.157q.02.002.022.022v.045h.135v-1.612h-.135v.045c0 .012-.01.022-.022.022h-.157a.02.02 0 0 1-.022-.022v-.045zm.157.201h.157q.02.002.022.023v.09c0 .012-.01.022-.022.022h-.157a.022.022 0 0 1-.022-.023v-.09c0-.012.01-.022.022-.022m0 .27h.157c.012 0 .022.01.022.022v.089c0 .012-.01.022-.022.022h-.157a.02.02 0 0 1-.022-.022v-.09c0-.012.01-.022.022-.022m0 .268h.157q.02.002.022.022v.09c0 .012-.01.022-.022.022h-.157a.02.02 0 0 1-.022-.022v-.09q.002-.02.022-.022m0 .268h.157q.02.002.022.023v.09q-.002.02-.022.022h-.157a.022.022 0 0 1-.022-.023v-.09c0-.012.01-.022.022-.022m0 .27h.157c.012 0 .022.01.022.021v.09q-.002.02-.022.022h-.157a.02.02 0 0 1-.022-.022v-.09c0-.012.01-.022.022-.022" style="color:#000;fill:#000;stroke-width:.134335" transform="translate(-9.35 -294.547)scale(1.24069)"/><path d="M38.378 263.217h1.075v.134h-1.075Zm0 1.478h1.075v.134h-1.075Zm0-.739h1.075v.134h-1.075Z" style="color:#000;fill:#000;stroke-width:.134335" transform="translate(-9.35 -294.547)scale(1.24069)"/><path d="M37.842 249.302v1.99h1.454l.536-.536v-1.453zm.153.154h1.684v1.224h-.46v.459h-1.224z" style="color:#000;fill:#000;stroke-width:.102018" transform="translate(-.102 -232.525)scale(1.00534)"/><path d="M38.301 249.762h1.071v.153h-1.07zm0 .306h1.071v.153h-1.07zm0 .306h.612v.153h-.612z" style="color:#000;fill:#000;stroke-width:.153028" transform="translate(-.102 -232.525)scale(1.00534)"/><path d="M39.658 246.833v-.319h-.308z" style="color:#000;fill:#000;stroke-width:1.22423" transform="translate(.894 -226.195)scale(.97969)"/><path d="m38.837 246.429-.821.771v.996h.821v-.772l.035-.01q.026-.008.057-.013.033-.007.068-.01l.068-.004a.4.4 0 0 1 .136.021.2.2 0 0 1 .087.066q.033.046.047.12.015.075.015.18v.421h.308v-.995z" style="-inkscape-font-specification:Ubuntu;fill:#000;stroke-width:.0255047" transform="translate(.894 -226.195)scale(.97969)"/><path d="m37.864 247.397-.114-.12 1.087-1.123 1.086 1.123-.114.12-.972-.93z" style="color:#000;-inkscape-font-specification:sans-serif;fill:#000;stroke-width:.153028" transform="translate(.894 -226.195)scale(.97969)"/><path d="M39.148 260.208a.232.232 0 1 0 0 .465.232.232 0 0 0 0-.465m-.668.245-.421.807h1.018l-.311-.597-.088.169z" style="color:#000;fill:#000;stroke-width:.146797" transform="translate(-1.637 -243.673)scale(1.04802)"/><path d="M37.765 259.865v1.909h1.909v-1.909zm.147.147h1.615v1.395h-1.615z" style="color:#000;fill:#000;stroke-width:.0978642" transform="translate(-1.637 -243.673)scale(1.04802)"/><path d="M38.313 253.495a9 9 0 0 0 .675 1.04h.002q.201-.28.395-.58.149-.232.277-.46z" style="color:#000;fill:#000;stroke-width:.0858942" transform="translate(-.569 -234.587)scale(1.01343)"/><path d="M38.313 254.536v.143h1.35v-.143z" style="color:#000;fill:#000;stroke-width:.167573" transform="translate(-.569 -234.587)scale(1.01343)"/><path d="M38.711 252.705v1.076h.553v-1.076z" style="color:#000;-inkscape-font-specification:Sans;fill:#000;stroke-width:.122917" transform="translate(-.569 -234.587)scale(1.01343)"/><path d="m40.952 247.042-.002.264 5.156.052.004-.263z" style="color:#000;stroke-width:.99918;stroke-dasharray:6.3448,6.3448;stroke-dashoffset:.412835" transform="translate(0 -231)"/><path d="m40.95 250.38-.001.265 6.007.04.002-.265zm.823-8.257-.002.265 6.007.041.002-.265z" style="color:#000;stroke-width:.99918;stroke-dasharray:6.3448,6.3448;stroke-dashoffset:.338216" transform="translate(0 -231)"/><path d="m40.934 263.865-.002.263 4.782.053.004-.263z" style="color:#000;stroke-width:.99918;stroke-dasharray:6.3448,6.3448;stroke-dashoffset:.428262" transform="translate(0 -231)"/><path d="m40.881 260.497-.002.265 5.997.041.002-.263z" style="color:#000;stroke-width:.99918;stroke-dasharray:6.3448,6.3448;stroke-dashoffset:.346387" transform="translate(0 -231)"/><path d="m40.965 257.108-.002.264 5.811.053.002-.264z" style="color:#000;stroke-width:.99918;stroke-dasharray:6.3448,6.3448;stroke-dashoffset:.389515" transform="translate(0 -231)"/><path d="m40.867 253.78-.002.264 6.005.041.002-.263z" style="color:#000;stroke-width:.99918;stroke-dasharray:6.3448,6.3448;stroke-dashoffset:.340203" transform="translate(0 -231)"/><path d="m40.825 277.707-.002.265 6.007.04.002-.264zm0-4.061-.002.265 5.812.053.002-.265zm0-4.061-.002.265 5.997.041.002-.263zm-1.423 7.661-.625.625.12.12.624-.626zm.16.414s.12-.306.172-.626a3.6 3.6 0 0 0-.625.172zm-1.377-.218c-.272 0-.408 0-.408.316v.59c0 .316.136.316.408.316h.733c.272 0 .408 0 .408-.316v-.554l-.163.163v.322c0 .222-.08.222-.295.222h-.633c-.215 0-.295 0-.295-.222v-.452c0-.222.08-.222.295-.222h.576l.163-.163h-.001zm.326-.734c-.272 0-.408 0-.408.316v.336h.163v-.266c0-.223.08-.223.295-.223h1.04c.216 0 .295 0 .295.223v.859c0 .222-.08.222-.295.222h-.194v.163h.245c.272 0 .407 0 .407-.316v-.998c0-.316-.135-.316-.407-.316zm.187-3.754-.007.015q-.097.208-.189.422a20 20 0 0 0-.189.452l-.053.138h.402l.094-.247c.046-.117.087-.212.124-.299.035.084.071.175.117.292l.095.254h.411l-.056-.138q-.091-.237-.181-.452a15 15 0 0 0-.19-.422l-.007-.015zm-.668 1.114a.228.228 0 1 0 0 .456h1.711a.228.228 0 1 0 0-.456zm0 .114h.998a.114.114 0 1 1 0 .228h-.998a.114.114 0 1 1 0-.228m-.004.429-.106.303-.014.036h.421l.088-.24.035-.1h-.424m1.277 0 .035.099q.041.111.08.226l.007.014h.444l-.015-.036-.109-.303h-.004zm-.956-5.516-.297.253.268.32.3-.251zm-.516.628-.066.385.411.072.068-.384zm.007.813.198.337.361-.209-.195-.338zm.529.618.368.13.142-.391-.367-.134zm.802.133.366-.136-.143-.392-.367.134zm.7-.413.193-.34-.361-.208-.195.338zm.27-.767-.07-.384-.41.073.068.384zm-.284-.76-.301-.25-.268.32.299.25zm-.708-.429-.391.059v.389h.39Zm-.449.257a.97.97 0 0 0-.593.455.98.98 0 0 0 1.694.978.98.98 0 0 0-1.1-1.433m.574.388a.641.641 0 1 1-.642 1.113.641.641 0 1 1 .642-1.113" style="color:#000;stroke-width:.99918;stroke-dasharray:6.3448,6.3448;stroke-dashoffset:.338216" transform="translate(0 -231)"/><path d="M39.69 285.113c-.777 0-1.41.632-1.41 1.409 0 .776.633 1.409 1.41 1.409s1.409-.633 1.409-1.41-.633-1.408-1.41-1.408m0 .265c.633 0 1.143.51 1.143 1.144s-.51 1.143-1.143 1.143c-.634 0-1.144-.51-1.144-1.143 0-.634.51-1.144 1.144-1.144m4.461-.265a1.41 1.41 0 0 0-1.41 1.409c0 .776.632 1.409 1.41 1.409a1.41 1.41 0 0 0-.001-2.818m0 .265c.633 0 1.143.51 1.143 1.144s-.51 1.143-1.144 1.143-1.144-.51-1.144-1.143c0-.634.51-1.144 1.144-1.144m4.46-.265c-.776 0-1.409.632-1.409 1.409 0 .776.633 1.409 1.41 1.409s1.408-.633 1.408-1.41-.632-1.408-1.409-1.408m0 .265c.634 0 1.144.51 1.144 1.144s-.51 1.143-1.144 1.143a1.143 1.143 0 1 1 0-2.287" style="color:#000;font-style:normal;font-variant:normal;font-weight:400;font-stretch:normal;font-size:medium;line-height:normal;font-family:sans-serif;font-variant-ligatures:normal;font-variant-position:normal;font-variant-caps:normal;font-variant-numeric:normal;font-variant-alternates:normal;font-feature-settings:normal;text-indent:0;text-align:start;text-decoration:none;text-decoration-line:none;text-decoration-style:solid;text-decoration-color:#000;letter-spacing:normal;word-spacing:normal;text-transform:none;writing-mode:lr-tb;direction:ltr;text-orientation:mixed;dominant-baseline:auto;baseline-shift:baseline;text-anchor:start;white-space:normal;shape-padding:0;clip-rule:nonzero;display:inline;overflow:visible;visibility:visible;isolation:auto;mix-blend-mode:normal;color-interpolation:sRGB;color-interpolation-filters:linearRGB;solid-color:#000;solid-opacity:1;fill:#000;fill-opacity:1;fill-rule:nonzero;stroke:none;stroke-width:.99918;stroke-linecap:butt;stroke-linejoin:round;stroke-miterlimit:4;stroke-dasharray:none;stroke-dashoffset:0;stroke-opacity:1;color-rendering:auto;image-rendering:auto;shape-rendering:auto;text-rendering:auto" transform="translate(0 -231)"/><g style="fill:#000;fill-opacity:1;stroke:none"><path d="m5.337 8.247.748.749L8.731 6.35 6.085 3.704l-.748.749L6.705 5.82H1.588v1.058h5.117Zm4.717-6.66H2.646c-.585 0-1.058.474-1.058 1.059v2.117h1.058V2.646h7.408v7.408H2.646V7.937H1.588v2.117c0 .585.473 1.058 1.058 1.058h7.408c.585 0 1.058-.473 1.058-1.058V2.646c0-.585-.473-1.058-1.058-1.058" style="fill:#000;fill-opacity:1;stroke:none;stroke-width:.264583" transform="translate(38.845 54.647)scale(.13446)"/></g><g style="fill:#000;fill-opacity:1;stroke:none"><path d="M9.525 4.233h-.53V3.175a2.647 2.647 0 0 0-5.29 0v1.058h-.53c-.585 0-1.058.474-1.058 1.059v5.291c0 .585.473 1.059 1.058 1.059h6.35c.585 0 1.058-.474 1.058-1.059V5.292c0-.585-.473-1.059-1.058-1.059M6.35 1.535c.905 0 1.64.735 1.64 1.64v1.058H4.763V3.175H4.71c0-.905.735-1.64 1.64-1.64m3.175 9.048h-6.35V5.292h6.35zM6.35 8.996a1.058 1.058 0 1 0 0-2.116 1.058 1.058 0 0 0 0 2.116" style="fill:#000;fill-opacity:1;stroke:none;stroke-width:.264583" transform="translate(43.21 54.538)scale(.14797)"/></g><path d="m48.54 285.674.135-.023v.736h-.134z" style="color:#000;display:inline;overflow:visible;visibility:visible;fill:#000;fill-opacity:1;stroke:none;stroke-width:.200762;marker:none" transform="translate(0 -231)"/><path d="M48.24 285.884a.737.737 0 1 0 .736 0l-.067.116a.602.602 0 1 1-.602 0z" style="color:#000;font-style:normal;font-variant:normal;font-weight:400;font-stretch:normal;font-size:medium;line-height:normal;font-family:sans-serif;font-variant-ligatures:normal;font-variant-position:normal;font-variant-caps:normal;font-variant-numeric:normal;font-variant-alternates:normal;font-feature-settings:normal;text-indent:0;text-align:start;text-decoration:none;text-decoration-line:none;text-decoration-style:solid;text-decoration-color:#000;letter-spacing:normal;word-spacing:normal;text-transform:none;writing-mode:lr-tb;direction:ltr;text-orientation:mixed;dominant-baseline:auto;baseline-shift:baseline;text-anchor:start;white-space:normal;shape-padding:0;clip-rule:nonzero;display:inline;overflow:visible;visibility:visible;isolation:auto;mix-blend-mode:normal;color-interpolation:sRGB;color-interpolation-filters:linearRGB;solid-color:#000;solid-opacity:1;fill:#000;fill-opacity:1;fill-rule:nonzero;stroke:none;stroke-width:.0843095;stroke-linecap:butt;stroke-linejoin:round;stroke-miterlimit:4;stroke-dasharray:none;stroke-dashoffset:0;stroke-opacity:1;marker:none;color-rendering:auto;image-rendering:auto;shape-rendering:auto;text-rendering:auto" transform="translate(0 -231)"/><g style="fill:#000;fill-opacity:1;stroke:none"><path d="M1.722.272C.92.272.264.928.264 1.728S.92 3.185 1.722 3.185s1.457-.656 1.457-1.457c0-.8-.656-1.456-1.457-1.456m0 .532a.92.92 0 0 1 .926.924.92.92 0 0 1-.926.925.92.92 0 0 1-.926-.925.92.92 0 0 1 .926-.924" style="fill:#000;fill-opacity:1;stroke:none;stroke-width:.264583" transform="matrix(.52283 0 0 .53955 16.31 53.873)"/><path d="M2.596 2.39a.265.265 0 0 0-.132.454l1.058 1.059a.266.266 0 1 0 .372-.38l-1.058-1.06a.27.27 0 0 0-.24-.073" style="fill:#000;fill-opacity:1;stroke:none;stroke-width:.264583" transform="matrix(.52283 0 0 .53955 16.31 53.873)"/></g></svg>