<svg xmlns="http://www.w3.org/2000/svg" width="66mm" height="66mm" viewBox="0 0 66 66"><path d="M16.28 241.5a.12.12 0 0 0-.119.12v44.76a.12.12 0 0 0 .118.12h33.442a.12.12 0 0 0 .118-.12v-44.76a.12.12 0 0 0-.118-.12Zm.119.239H49.6v44.524H16.4z" style="color:#000;font-style:normal;font-variant:normal;font-weight:400;font-stretch:normal;font-size:medium;line-height:normal;font-family:sans-serif;font-variant-ligatures:normal;font-variant-position:normal;font-variant-caps:normal;font-variant-numeric:normal;font-variant-alternates:normal;font-feature-settings:normal;text-indent:0;text-align:start;text-decoration:none;text-decoration-line:none;text-decoration-style:solid;text-decoration-color:#000;letter-spacing:normal;word-spacing:normal;text-transform:none;writing-mode:lr-tb;direction:ltr;text-orientation:mixed;dominant-baseline:auto;baseline-shift:baseline;text-anchor:start;white-space:normal;shape-padding:0;clip-rule:nonzero;display:inline;overflow:visible;visibility:visible;isolation:auto;mix-blend-mode:normal;color-interpolation:sRGB;color-interpolation-filters:linearRGB;solid-color:#000;solid-opacity:1;fill:#000;fill-opacity:1;fill-rule:nonzero;stroke:none;stroke-width:.899227;stroke-linecap:butt;stroke-linejoin:round;stroke-miterlimit:4;stroke-dasharray:none;stroke-dashoffset:0;stroke-opacity:1;color-rendering:auto;image-rendering:auto;shape-rendering:auto;text-rendering:auto" transform="translate(-3.667 -260.333)scale(1.11111)"/><path d="m29.22 245.299-.229.002.21 40.976.228-.002z" style="color:#000;font-style:normal;font-variant:normal;font-weight:400;font-stretch:normal;font-size:medium;line-height:normal;font-family:sans-serif;font-variant-ligatures:normal;font-variant-position:normal;font-variant-caps:normal;font-variant-numeric:normal;font-variant-alternates:normal;font-feature-settings:normal;text-indent:0;text-align:start;text-decoration:none;text-decoration-line:none;text-decoration-style:solid;text-decoration-color:#000;letter-spacing:normal;word-spacing:normal;text-transform:none;writing-mode:lr-tb;direction:ltr;text-orientation:mixed;dominant-baseline:auto;baseline-shift:baseline;text-anchor:start;white-space:normal;shape-padding:0;clip-rule:nonzero;display:inline;overflow:visible;visibility:visible;isolation:auto;mix-blend-mode:normal;color-interpolation:sRGB;color-interpolation-filters:linearRGB;solid-color:#000;solid-opacity:1;fill:#000;fill-opacity:1;fill-rule:evenodd;stroke:none;stroke-width:.899227;stroke-linecap:butt;stroke-linejoin:miter;stroke-miterlimit:4;stroke-dasharray:none;stroke-dashoffset:0;stroke-opacity:1;color-rendering:auto;image-rendering:auto;shape-rendering:auto;text-rendering:auto" transform="translate(-3.667 -260.333)scale(1.11111)"/><g style="fill:#000;fill-opacity:1;stroke:none"><path d="m.834 243.714 37.004.05" style="color:#000;font-style:normal;font-variant:normal;font-weight:400;font-stretch:normal;font-size:medium;line-height:normal;font-family:sans-serif;font-variant-ligatures:normal;font-variant-position:normal;font-variant-caps:normal;font-variant-numeric:normal;font-variant-alternates:normal;font-feature-settings:normal;text-indent:0;text-align:start;text-decoration:none;text-decoration-line:none;text-decoration-style:solid;text-decoration-color:#000;letter-spacing:normal;word-spacing:normal;text-transform:none;writing-mode:lr-tb;direction:ltr;text-orientation:mixed;dominant-baseline:auto;baseline-shift:baseline;text-anchor:start;white-space:normal;shape-padding:0;clip-rule:nonzero;display:inline;overflow:visible;visibility:visible;isolation:auto;mix-blend-mode:normal;color-interpolation:sRGB;color-interpolation-filters:linearRGB;solid-color:#000;solid-opacity:1;fill:#000;fill-opacity:1;fill-rule:evenodd;stroke:none;stroke-width:.376674;stroke-linecap:butt;stroke-linejoin:miter;stroke-miterlimit:4;stroke-dasharray:none;stroke-dashoffset:0;stroke-opacity:1;color-rendering:auto;image-rendering:auto;shape-rendering:auto;text-rendering:auto" transform="translate(13.598 -231.333)scale(.99914)"/><path d="M.834 243.525v.377l37.004.051v-.377z" style="color:#000;font-style:normal;font-variant:normal;font-weight:400;font-stretch:normal;font-size:medium;line-height:normal;font-family:sans-serif;font-variant-ligatures:normal;font-variant-position:normal;font-variant-caps:normal;font-variant-numeric:normal;font-variant-alternates:normal;font-feature-settings:normal;text-indent:0;text-align:start;text-decoration:none;text-decoration-line:none;text-decoration-style:solid;text-decoration-color:#000;letter-spacing:normal;word-spacing:normal;text-transform:none;writing-mode:lr-tb;direction:ltr;text-orientation:mixed;dominant-baseline:auto;baseline-shift:baseline;text-anchor:start;white-space:normal;shape-padding:0;clip-rule:nonzero;display:inline;overflow:visible;visibility:visible;isolation:auto;mix-blend-mode:normal;color-interpolation:sRGB;color-interpolation-filters:linearRGB;solid-color:#000;solid-opacity:1;fill:#000;fill-opacity:1;fill-rule:evenodd;stroke:none;stroke-linecap:butt;stroke-linejoin:miter;stroke-miterlimit:4;stroke-dasharray:none;stroke-dashoffset:0;stroke-opacity:1;color-rendering:auto;image-rendering:auto;shape-rendering:auto;text-rendering:auto" transform="translate(13.598 -231.333)scale(.99914)"/></g><g style="fill:#000;fill-opacity:1;stroke:none"><path d="M1.722.272C.92.272.264.928.264 1.728S.92 3.185 1.722 3.185s1.457-.656 1.457-1.457c0-.8-.656-1.456-1.457-1.456m0 .532a.92.92 0 0 1 .926.924.92.92 0 0 1-.926.925.92.92 0 0 1-.926-.925.92.92 0 0 1 .926-.924" style="fill:#000;fill-opacity:1;stroke:none;stroke-width:.264583" transform="translate(15.457 8.902)scale(.54399)"/><path d="M2.596 2.39a.265.265 0 0 0-.132.454l1.058 1.059a.266.266 0 1 0 .372-.38l-1.058-1.06a.27.27 0 0 0-.24-.073" style="fill:#000;fill-opacity:1;stroke:none;stroke-width:.264583" transform="translate(15.457 8.902)scale(.54399)"/></g><g style="fill:#000;fill-opacity:1;stroke:none"><path d="m7.023 251.42-.002.793 3.97.017.001-.794zm5.557.023-.004.793 4.764.022.004-.795zm6.35.028-.002.793h.006l.003-.793zm-1.535 4.818-4.764.012.002.793 4.764-.012zm-6.35.016-3.969.01.002.795 3.969-.01zm6.412 4.709-4.762.013.002.793 4.762-.011zm-6.35.017-3.968.01.002.795 3.968-.012zm-3.85 5.139-.003.795 3.969.017.004-.795zm5.557.025-.003.793 4.761.022.004-.793zm4.696 4.432-4.762.012.002.794 4.764-.013zm-6.35.017-3.969.01.002.793 3.97-.01zm6.465 4.288-4.764.046.008.793 4.762-.044zm-6.352.06-3.966.04.006.792 3.968-.037zm6.358 4.494-4.762.014.002.793 4.764-.012zm-6.35.018-3.969.01.002.795 3.97-.012zm-3.965-32.856-.004.793 3.97.02.003-.795zm5.555.026-.002.793 4.762.021.004-.793z" style="color:#000;font-style:normal;font-variant:normal;font-weight:400;font-stretch:normal;font-size:medium;line-height:normal;font-family:sans-serif;font-variant-ligatures:normal;font-variant-position:normal;font-variant-caps:normal;font-variant-numeric:normal;font-variant-alternates:normal;font-feature-settings:normal;text-indent:0;text-align:start;text-decoration:none;text-decoration-line:none;text-decoration-style:solid;text-decoration-color:#000;letter-spacing:normal;word-spacing:normal;text-transform:none;writing-mode:lr-tb;direction:ltr;text-orientation:mixed;dominant-baseline:auto;baseline-shift:baseline;text-anchor:start;white-space:normal;shape-padding:0;clip-rule:nonzero;display:inline;overflow:visible;visibility:visible;opacity:1;isolation:auto;mix-blend-mode:normal;color-interpolation:sRGB;color-interpolation-filters:linearRGB;solid-color:#000;solid-opacity:1;fill:#000;fill-opacity:1;fill-rule:evenodd;stroke:none;stroke-linecap:butt;stroke-linejoin:miter;stroke-miterlimit:4;stroke-dasharray:4.7625,1.5875;stroke-dashoffset:.79375;stroke-opacity:1;color-rendering:auto;image-rendering:auto;shape-rendering:auto;text-rendering:auto" transform="matrix(1.0346 0 0 .67489 9.349 -152.176)"/></g><path d="M47 242.508s-.68.336-1.274.82h-.002l.001.001c.595.484 1.275.82 1.275.82v-.002h1.458v-1.639zm.229.286.415.415.415-.415.13.129-.416.415.415.416-.129.128-.415-.415-.415.415-.13-.128.416-.416-.415-.415z" style="color:#000;display:inline;overflow:visible;visibility:visible;fill:#000;fill-opacity:1;fill-rule:nonzero;stroke:none;stroke-width:.0303714;marker:none" transform="translate(-3.667 -260.333)scale(1.11111)"/><g style="fill:#000;fill-opacity:1;stroke:none"><path d="m-23.605 258.838-.002.203 14.318.037.002-.203zm.095 3.697-.002.203 14.319.037.002-.203zm-.052 3.233v.205l14.318.037v-.205zm.095 3.156v.203l13.79.037v-.203zm.004 3.232v.203l14.318.037v-.203zm-4.52-8.242a.095.095 0 0 0-.095.096v2.443c0 .053.043.096.096.096h2.527a.095.095 0 0 0 .096-.096v-2.443a.095.095 0 0 0-.096-.096zm0 2.93a.095.095 0 0 0-.095.095v2.444c0 .053.043.096.096.095h2.527a.095.095 0 0 0 .096-.095v-2.444a.095.095 0 0 0-.096-.095zm0 3.158a.095.095 0 0 0-.095.094v2.445c0 .052.043.094.096.094h2.527a.095.095 0 0 0 .096-.094v-2.445a.095.095 0 0 0-.096-.094zm0-12.381a.095.095 0 0 0-.095.094v2.445c0 .052.043.094.096.094h2.527a.095.095 0 0 0 .096-.094v-2.445a.095.095 0 0 0-.096-.094zm0 3.174a.095.095 0 0 0-.095.096v2.443c0 .053.043.096.096.096h2.527a.095.095 0 0 0 .096-.096v-2.443a.095.095 0 0 0-.096-.096zm4.281-24.773v.192l14.317.036.002-.191zm.044 3.53v.19l14.318.039v-.192zm.053 3.409-.002.19 14.318.036.002-.19zm.094 3.698v.19l14.318.038v-.192zm-.051 3.232v.191l14.318.037v-.19zm.096 3.155-.002.19 14.319.039.001-.192zm.003 3.234v.19l14.318.037v-.19zm0-23.697v.19l14.318.037v-.19zm-4.518 15.454c-.057 0-.102.04-.102.09v2.443c0 .05.045.09.102.09h2.527c.056 0 .102-.04.102-.09v-2.444c0-.05-.046-.09-.102-.09zm0 2.93c-.057 0-.102.04-.102.089v2.444c0 .05.045.09.102.09h2.527c.056 0 .102-.04.102-.09v-2.444c0-.05-.046-.09-.102-.09zm0 3.157c-.057 0-.102.04-.102.09v2.443c0 .05.045.09.102.09h2.527c.056 0 .102-.04.102-.09v-2.444c0-.05-.046-.09-.102-.09zm0-18.833c-.057 0-.102.04-.102.09v2.443c0 .05.045.09.102.09h2.527c.056 0 .102-.04.102-.09v-2.444c0-.05-.046-.09-.102-.09zm0 3.253c-.057 0-.102.04-.102.09v2.443c0 .05.045.09.102.09h2.527c.056 0 .102-.04.102-.09v-2.443c0-.05-.046-.09-.102-.09zm0 3.2c-.056 0-.101.039-.102.088v2.444c0 .049.045.09.102.089h2.527c.056 0 .102-.04.102-.09v-2.443c0-.05-.046-.089-.102-.089zm0 3.174c-.057 0-.102.04-.102.09v2.443c0 .05.045.09.102.09h2.527c.056 0 .102-.04.102-.09v-2.444c0-.05-.046-.09-.102-.09zm0-12.937c-.057 0-.102.04-.102.09v2.443c0 .05.045.09.102.09h2.527c.056 0 .102-.04.102-.09v-2.444c0-.05-.046-.09-.102-.09z" style="color:#000;font-style:normal;font-variant:normal;font-weight:400;font-stretch:normal;font-size:medium;line-height:normal;font-family:sans-serif;font-variant-ligatures:normal;font-variant-position:normal;font-variant-caps:normal;font-variant-numeric:normal;font-variant-alternates:normal;font-feature-settings:normal;text-indent:0;text-align:start;text-decoration:none;text-decoration-line:none;text-decoration-style:solid;text-decoration-color:#000;letter-spacing:normal;word-spacing:normal;text-transform:none;writing-mode:lr-tb;direction:ltr;text-orientation:mixed;dominant-baseline:auto;baseline-shift:baseline;text-anchor:start;white-space:normal;shape-padding:0;clip-rule:nonzero;display:inline;overflow:visible;visibility:visible;opacity:1;isolation:auto;mix-blend-mode:normal;color-interpolation:sRGB;color-interpolation-filters:linearRGB;solid-color:#000;solid-opacity:1;fill:#000;fill-opacity:1;fill-rule:evenodd;stroke:none;stroke-linecap:butt;stroke-linejoin:miter;stroke-miterlimit:4;stroke-dasharray:none;stroke-dashoffset:.264583;stroke-opacity:1;color-rendering:auto;image-rendering:auto;shape-rendering:auto;text-rendering:auto" transform="translate(58.325 -217.576)scale(.99914)"/></g></svg>