<svg xmlns="http://www.w3.org/2000/svg" width="66mm" height="66mm" viewBox="0 0 66 66"><path d="M20.12 266.37c-.098 0-.177.073-.177.162v4.478c0 .09.08.162.177.162h4.448c.098 0 .177-.073.177-.162v-4.478c0-.09-.08-.162-.177-.162zm6.944 0c-.098 0-.177.073-.178.162v4.478c0 .09.08.162.178.162h4.447c.098 0 .177-.073.178-.162v-4.478c0-.09-.08-.162-.178-.162zm6.943 0c-.098 0-.177.073-.177.162v4.478c0 .09.08.162.177.162h4.448c.097 0 .176-.073.177-.162v-4.478c0-.09-.08-.162-.177-.162zm6.943 0c-.097 0-.176.073-.177.162v4.478c0 .09.08.162.177.162h4.448c.098 0 .177-.073.178-.162v-4.478c-.001-.09-.08-.162-.178-.162zm-20.83-6.665c-.098 0-.177.073-.177.163v4.477c0 .09.08.162.177.163h4.448c.098 0 .177-.073.177-.163v-4.477c0-.09-.08-.162-.177-.163zm6.944 0c-.098 0-.177.073-.178.163v4.477c0 .09.08.162.178.163h4.447c.098 0 .177-.073.178-.163v-4.477c0-.09-.08-.162-.178-.163zm6.943 0c-.098 0-.177.073-.177.163v4.477c0 .09.08.162.177.163h4.448c.097 0 .176-.073.177-.163v-4.477c0-.09-.08-.162-.177-.163zm6.943 0c-.097 0-.176.073-.177.163v4.477c0 .09.08.162.177.163h4.448c.098 0 .177-.073.178-.163v-4.477c-.001-.09-.08-.162-.178-.163zm-20.83-6.664c-.098 0-.177.073-.177.162v4.478c0 .09.08.162.177.163h4.448c.098-.001.177-.073.177-.163v-4.478c0-.09-.08-.161-.177-.162zm6.944 0c-.098 0-.177.073-.178.162v4.478c0 .09.08.162.178.163h4.447c.098-.001.177-.073.178-.163v-4.478c0-.09-.08-.161-.178-.162zm6.943 0c-.098 0-.177.073-.177.162v4.478c0 .09.08.162.177.163h4.448c.097-.001.176-.073.177-.163v-4.478c0-.09-.08-.161-.177-.162zm6.943 0c-.097 0-.176.073-.177.162v4.478c0 .09.08.162.177.163h4.448c.098-.001.177-.073.178-.163v-4.478c-.001-.09-.08-.161-.178-.162zm-19.08 29.868-.002.266 5.865.053.002-.266zm-6.99-3.155-.008.242 36.269.051v-.242zm-.004.12 36.267.052m-9.086-30.347-.004.8 4.002.015.004-.8zm5.487.047-.004.8 1.042.005.004-.801zm-30.458-.047-.004.8 4.003.015.003-.8zm5.602.021-.002.802 4.802.018.003-.8zm6.405.026-.004.8 1.042.005.002-.801zm-10.824 32.239c-.19 0-.375.08-.51.222a.78.78 0 0 0-.21.536v.001c0 .077.006.166.043.256.095.235.237.418.367.559q.056.062.117.123h.38q.064-.062.123-.123a1.9 1.9 0 0 0 .367-.559.78.78 0 0 0-.168-.793.7.7 0 0 0-.509-.222m.648 1.484c-.085.124-.178.23-.267.322-.162.16-.38.352-.38.352s-.231-.188-.382-.352a2.6 2.6 0 0 1-.267-.32l-.011.003a2 2 0 0 0-.545.311v.607h2.408v-.607a2 2 0 0 0-.542-.31zM14.701 241.5c-.101 0-.183.088-.183.196v44.606c0 .109.081.197.183.198h36.598c.102 0 .184-.089.183-.198v-44.606a.19.19 0 0 0-.183-.196Zm.185.393h36.228v44.214H14.886zm5.258 30.864c-.097 0-.177.073-.177.163v4.477c0 .09.08.162.177.163h4.448c.098 0 .177-.073.177-.163v-4.477c0-.09-.08-.162-.177-.163zm6.944 0c-.098 0-.177.073-.178.163v4.477c0 .09.08.162.178.163h4.447c.098 0 .177-.073.178-.163v-4.477c0-.09-.08-.162-.178-.163zm6.943 0c-.098 0-.177.073-.177.163v4.477c0 .09.08.162.177.163h4.448c.097 0 .177-.073.177-.163v-4.477c0-.09-.08-.162-.177-.163zm6.944 0c-.098 0-.177.073-.178.163v4.477c0 .09.08.162.178.163h4.447c.098 0 .177-.073.178-.163v-4.477c0-.09-.08-.162-.178-.163zm-26.061-25.04-.007.243 36.268.05v-.241zm-.004.121 36.267.052" style="color:#000;font-style:normal;font-variant:normal;font-weight:400;font-stretch:normal;font-size:medium;line-height:normal;font-family:sans-serif;font-variant-ligatures:normal;font-variant-position:normal;font-variant-caps:normal;font-variant-numeric:normal;font-variant-alternates:normal;font-feature-settings:normal;text-indent:0;text-align:start;text-decoration:none;text-decoration-line:none;text-decoration-style:solid;text-decoration-color:#000;letter-spacing:normal;word-spacing:normal;text-transform:none;writing-mode:lr-tb;direction:ltr;text-orientation:mixed;dominant-baseline:auto;baseline-shift:baseline;text-anchor:start;white-space:normal;shape-padding:0;clip-rule:nonzero;display:inline;overflow:visible;visibility:visible;isolation:auto;mix-blend-mode:normal;color-interpolation:sRGB;color-interpolation-filters:linearRGB;solid-color:#000;solid-opacity:1;fill:#000;fill-opacity:1;fill-rule:nonzero;stroke:none;stroke-width:1.38045;stroke-linecap:butt;stroke-linejoin:round;stroke-miterlimit:4;stroke-dasharray:none;stroke-dashoffset:0;stroke-opacity:1;color-rendering:auto;image-rendering:auto;shape-rendering:auto;text-rendering:auto" transform="translate(-3.667 -260.333)scale(1.11111)"/><g style="fill:#000;fill-opacity:1;stroke:none"><g style="fill:#000;fill-opacity:1;stroke:none"><path d="M1.722.272C.92.272.264.928.264 1.728S.92 3.185 1.722 3.185s1.457-.656 1.457-1.457c0-.8-.656-1.456-1.457-1.456m0 .532a.92.92 0 0 1 .926.924.92.92 0 0 1-.926.925.92.92 0 0 1-.926-.925.92.92 0 0 1 .926-.924" style="fill:#000;fill-opacity:1;stroke:none;stroke-width:.264583" transform="matrix(.50402 0 0 .52014 16.143 10.637)"/><path d="M2.596 2.39a.265.265 0 0 0-.132.454l1.058 1.059a.266.266 0 1 0 .372-.38l-1.058-1.06a.27.27 0 0 0-.24-.073" style="fill:#000;fill-opacity:1;stroke:none;stroke-width:.264583" transform="matrix(.50402 0 0 .52014 16.143 10.637)"/></g><g style="fill:#000;fill-opacity:1;stroke:none"><g style="opacity:1;fill:#000;fill-opacity:1;stroke:none"><path d="m9.74 253.177 40.783.05" style="color:#000;font-style:normal;font-variant:normal;font-weight:400;font-stretch:normal;font-size:medium;line-height:normal;font-family:sans-serif;font-variant-ligatures:normal;font-variant-position:normal;font-variant-caps:normal;font-variant-numeric:normal;font-variant-alternates:normal;font-feature-settings:normal;text-indent:0;text-align:start;text-decoration:none;text-decoration-line:none;text-decoration-style:solid;text-decoration-color:#000;letter-spacing:normal;word-spacing:normal;text-transform:none;writing-mode:lr-tb;direction:ltr;text-orientation:mixed;dominant-baseline:auto;baseline-shift:baseline;text-anchor:start;white-space:normal;shape-padding:0;clip-rule:nonzero;display:inline;overflow:visible;visibility:visible;isolation:auto;mix-blend-mode:normal;color-interpolation:sRGB;color-interpolation-filters:linearRGB;solid-color:#000;solid-opacity:1;fill:#000;fill-opacity:1;fill-rule:evenodd;stroke:none;stroke-width:.133189;stroke-linecap:butt;stroke-linejoin:miter;stroke-miterlimit:4;stroke-dasharray:none;stroke-dashoffset:0;stroke-opacity:1;color-rendering:auto;image-rendering:auto;shape-rendering:auto;text-rendering:auto" transform="matrix(.84085 0 0 .99638 7.569 -239.231)"/><path d="M9.74 253.111v.133l40.783.05v-.134z" style="color:#000;font-style:normal;font-variant:normal;font-weight:400;font-stretch:normal;font-size:medium;line-height:normal;font-family:sans-serif;font-variant-ligatures:normal;font-variant-position:normal;font-variant-caps:normal;font-variant-numeric:normal;font-variant-alternates:normal;font-feature-settings:normal;text-indent:0;text-align:start;text-decoration:none;text-decoration-line:none;text-decoration-style:solid;text-decoration-color:#000;letter-spacing:normal;word-spacing:normal;text-transform:none;writing-mode:lr-tb;direction:ltr;text-orientation:mixed;dominant-baseline:auto;baseline-shift:baseline;text-anchor:start;white-space:normal;shape-padding:0;clip-rule:nonzero;display:inline;overflow:visible;visibility:visible;isolation:auto;mix-blend-mode:normal;color-interpolation:sRGB;color-interpolation-filters:linearRGB;solid-color:#000;solid-opacity:1;fill:#000;fill-opacity:1;fill-rule:evenodd;stroke:none;stroke-linecap:butt;stroke-linejoin:miter;stroke-miterlimit:4;stroke-dasharray:none;stroke-dashoffset:0;stroke-opacity:1;color-rendering:auto;image-rendering:auto;shape-rendering:auto;text-rendering:auto" transform="matrix(.84085 0 0 .99638 7.569 -239.231)"/></g><g style="opacity:1;fill:#000;fill-opacity:1;stroke:none"><path d="m9.812 250.532 40.71.05" style="color:#000;font-style:normal;font-variant:normal;font-weight:400;font-stretch:normal;font-size:medium;line-height:normal;font-family:sans-serif;font-variant-ligatures:normal;font-variant-position:normal;font-variant-caps:normal;font-variant-numeric:normal;font-variant-alternates:normal;font-feature-settings:normal;text-indent:0;text-align:start;text-decoration:none;text-decoration-line:none;text-decoration-style:solid;text-decoration-color:#000;letter-spacing:normal;word-spacing:normal;text-transform:none;writing-mode:lr-tb;direction:ltr;text-orientation:mixed;dominant-baseline:auto;baseline-shift:baseline;text-anchor:start;white-space:normal;shape-padding:0;clip-rule:nonzero;display:inline;overflow:visible;visibility:visible;isolation:auto;mix-blend-mode:normal;color-interpolation:sRGB;color-interpolation-filters:linearRGB;solid-color:#000;solid-opacity:1;fill:#000;fill-opacity:1;fill-rule:evenodd;stroke:none;stroke-width:.132662;stroke-linecap:butt;stroke-linejoin:miter;stroke-miterlimit:4;stroke-dasharray:none;stroke-dashoffset:0;stroke-opacity:1;color-rendering:auto;image-rendering:auto;shape-rendering:auto;text-rendering:auto" transform="matrix(.84085 0 0 .99638 7.569 -239.231)"/><path d="M9.813 250.465v.133l40.71.05v-.132z" style="color:#000;font-style:normal;font-variant:normal;font-weight:400;font-stretch:normal;font-size:medium;line-height:normal;font-family:sans-serif;font-variant-ligatures:normal;font-variant-position:normal;font-variant-caps:normal;font-variant-numeric:normal;font-variant-alternates:normal;font-feature-settings:normal;text-indent:0;text-align:start;text-decoration:none;text-decoration-line:none;text-decoration-style:solid;text-decoration-color:#000;letter-spacing:normal;word-spacing:normal;text-transform:none;writing-mode:lr-tb;direction:ltr;text-orientation:mixed;dominant-baseline:auto;baseline-shift:baseline;text-anchor:start;white-space:normal;shape-padding:0;clip-rule:nonzero;display:inline;overflow:visible;visibility:visible;isolation:auto;mix-blend-mode:normal;color-interpolation:sRGB;color-interpolation-filters:linearRGB;solid-color:#000;solid-opacity:1;fill:#000;fill-opacity:1;fill-rule:evenodd;stroke:none;stroke-linecap:butt;stroke-linejoin:miter;stroke-miterlimit:4;stroke-dasharray:none;stroke-dashoffset:0;stroke-opacity:1;color-rendering:auto;image-rendering:auto;shape-rendering:auto;text-rendering:auto" transform="matrix(.84085 0 0 .99638 7.569 -239.231)"/></g><g style="opacity:1;fill:#000;fill-opacity:1;stroke:none"><path d="m50.568 250.52-.046 2.707" style="color:#000;font-style:normal;font-variant:normal;font-weight:400;font-stretch:normal;font-size:medium;line-height:normal;font-family:sans-serif;font-variant-ligatures:normal;font-variant-position:normal;font-variant-caps:normal;font-variant-numeric:normal;font-variant-alternates:normal;font-feature-settings:normal;text-indent:0;text-align:start;text-decoration:none;text-decoration-line:none;text-decoration-style:solid;text-decoration-color:#000;letter-spacing:normal;word-spacing:normal;text-transform:none;writing-mode:lr-tb;direction:ltr;text-orientation:mixed;dominant-baseline:auto;baseline-shift:baseline;text-anchor:start;white-space:normal;shape-padding:0;clip-rule:nonzero;display:inline;overflow:visible;visibility:visible;isolation:auto;mix-blend-mode:normal;color-interpolation:sRGB;color-interpolation-filters:linearRGB;solid-color:#000;solid-opacity:1;fill:#000;fill-opacity:1;fill-rule:evenodd;stroke:none;stroke-width:.103723;stroke-linecap:butt;stroke-linejoin:miter;stroke-miterlimit:4;stroke-dasharray:none;stroke-dashoffset:0;stroke-opacity:1;color-rendering:auto;image-rendering:auto;shape-rendering:auto;text-rendering:auto" transform="matrix(.84085 0 0 .99638 7.569 -239.231)"/><path d="m50.516 250.52-.045 2.707.103.002.045-2.71z" style="color:#000;font-style:normal;font-variant:normal;font-weight:400;font-stretch:normal;font-size:medium;line-height:normal;font-family:sans-serif;font-variant-ligatures:normal;font-variant-position:normal;font-variant-caps:normal;font-variant-numeric:normal;font-variant-alternates:normal;font-feature-settings:normal;text-indent:0;text-align:start;text-decoration:none;text-decoration-line:none;text-decoration-style:solid;text-decoration-color:#000;letter-spacing:normal;word-spacing:normal;text-transform:none;writing-mode:lr-tb;direction:ltr;text-orientation:mixed;dominant-baseline:auto;baseline-shift:baseline;text-anchor:start;white-space:normal;shape-padding:0;clip-rule:nonzero;display:inline;overflow:visible;visibility:visible;isolation:auto;mix-blend-mode:normal;color-interpolation:sRGB;color-interpolation-filters:linearRGB;solid-color:#000;solid-opacity:1;fill:#000;fill-opacity:1;fill-rule:evenodd;stroke:none;stroke-linecap:butt;stroke-linejoin:miter;stroke-miterlimit:4;stroke-dasharray:none;stroke-dashoffset:0;stroke-opacity:1;color-rendering:auto;image-rendering:auto;shape-rendering:auto;text-rendering:auto" transform="matrix(.84085 0 0 .99638 7.569 -239.231)"/></g><g style="opacity:1;fill:#000;fill-opacity:1;stroke:none"><path d="m9.822 250.52-.046 2.707" style="color:#000;font-style:normal;font-variant:normal;font-weight:400;font-stretch:normal;font-size:medium;line-height:normal;font-family:sans-serif;font-variant-ligatures:normal;font-variant-position:normal;font-variant-caps:normal;font-variant-numeric:normal;font-variant-alternates:normal;font-feature-settings:normal;text-indent:0;text-align:start;text-decoration:none;text-decoration-line:none;text-decoration-style:solid;text-decoration-color:#000;letter-spacing:normal;word-spacing:normal;text-transform:none;writing-mode:lr-tb;direction:ltr;text-orientation:mixed;dominant-baseline:auto;baseline-shift:baseline;text-anchor:start;white-space:normal;shape-padding:0;clip-rule:nonzero;display:inline;overflow:visible;visibility:visible;isolation:auto;mix-blend-mode:normal;color-interpolation:sRGB;color-interpolation-filters:linearRGB;solid-color:#000;solid-opacity:1;fill:#000;fill-opacity:1;fill-rule:evenodd;stroke:none;stroke-width:.103723;stroke-linecap:butt;stroke-linejoin:miter;stroke-miterlimit:4;stroke-dasharray:none;stroke-dashoffset:0;stroke-opacity:1;color-rendering:auto;image-rendering:auto;shape-rendering:auto;text-rendering:auto" transform="matrix(.84085 0 0 .99638 7.569 -239.231)"/><path d="m9.77 250.52-.045 2.707.103.002.045-2.71z" style="color:#000;font-style:normal;font-variant:normal;font-weight:400;font-stretch:normal;font-size:medium;line-height:normal;font-family:sans-serif;font-variant-ligatures:normal;font-variant-position:normal;font-variant-caps:normal;font-variant-numeric:normal;font-variant-alternates:normal;font-feature-settings:normal;text-indent:0;text-align:start;text-decoration:none;text-decoration-line:none;text-decoration-style:solid;text-decoration-color:#000;letter-spacing:normal;word-spacing:normal;text-transform:none;writing-mode:lr-tb;direction:ltr;text-orientation:mixed;dominant-baseline:auto;baseline-shift:baseline;text-anchor:start;white-space:normal;shape-padding:0;clip-rule:nonzero;display:inline;overflow:visible;visibility:visible;isolation:auto;mix-blend-mode:normal;color-interpolation:sRGB;color-interpolation-filters:linearRGB;solid-color:#000;solid-opacity:1;fill:#000;fill-opacity:1;fill-rule:evenodd;stroke:none;stroke-linecap:butt;stroke-linejoin:miter;stroke-miterlimit:4;stroke-dasharray:none;stroke-dashoffset:0;stroke-opacity:1;color-rendering:auto;image-rendering:auto;shape-rendering:auto;text-rendering:auto" transform="matrix(.84085 0 0 .99638 7.569 -239.231)"/></g></g></g><path d="M46.625 282.604a.625.625 0 1 0 .625 0l-.057.098a.51.51 0 1 1-.511 0zm.255-.178.114-.02v.625h-.114zm.057-.476a1.196 1.196 0 1 0 1.196 1.196c0-.66-.537-1.196-1.196-1.196m0 .223a.97.97 0 0 1 .97.973c0 .537-.432.97-.97.97a.97.97 0 0 1-.97-.97.97.97 0 0 1 .97-.973" style="color:#000;font-style:normal;font-variant:normal;font-weight:400;font-stretch:normal;font-size:medium;line-height:normal;font-family:sans-serif;font-variant-ligatures:normal;font-variant-position:normal;font-variant-caps:normal;font-variant-numeric:normal;font-variant-alternates:normal;font-feature-settings:normal;text-indent:0;text-align:start;text-decoration:none;text-decoration-line:none;text-decoration-style:solid;text-decoration-color:#000;letter-spacing:normal;word-spacing:normal;text-transform:none;writing-mode:lr-tb;direction:ltr;text-orientation:mixed;dominant-baseline:auto;baseline-shift:baseline;text-anchor:start;white-space:normal;shape-padding:0;clip-rule:nonzero;display:inline;overflow:visible;visibility:visible;isolation:auto;mix-blend-mode:normal;color-interpolation:sRGB;color-interpolation-filters:linearRGB;solid-color:#000;solid-opacity:1;fill:#000;fill-opacity:1;fill-rule:nonzero;stroke:none;stroke-width:1.16069;stroke-linecap:butt;stroke-linejoin:round;stroke-miterlimit:4;stroke-dasharray:none;stroke-dashoffset:0;stroke-opacity:1;color-rendering:auto;image-rendering:auto;shape-rendering:auto;text-rendering:auto" transform="translate(-3.667 -260.333)scale(1.11111)"/><path d="m42.253 282.128-.3.256.27.322.302-.253zm-.521.634-.066.389.414.073.069-.388zm.007.82.2.34.364-.21-.197-.341zm.534.624.371.133.144-.396-.37-.135zm.81.135.369-.137-.144-.396-.37.135zm.706-.417.195-.343-.365-.21-.197.341zm.273-.774-.07-.388-.415.074.068.388zm-.288-.768-.303-.252-.271.323.302.253zm-.714-.432-.394.06v.392h.394zm.657 1.706a.988.988 0 0 0-1.71-.988.988.988 0 0 0 1.71.988m-.292-.17a.645.645 0 0 1-.886.237.647.647 0 1 1 .647-1.122c.313.18.418.574.239.885m-4.983-.263h.617v.154h-.617zm0-.31h1.08v.155h-1.08zm0-.308h1.08v.154h-1.08zm-.464-.463v2.007h1.468l.54-.54v-1.467zm.155.154h1.699v1.236h-.464v.463h-1.235z" style="color:#000;font-style:normal;font-variant:normal;font-weight:400;font-stretch:normal;font-size:medium;line-height:normal;font-family:sans-serif;font-variant-ligatures:normal;font-variant-position:normal;font-variant-caps:normal;font-variant-numeric:normal;font-variant-alternates:normal;font-feature-settings:normal;text-indent:0;text-align:start;text-decoration:none;text-decoration-line:none;text-decoration-style:solid;text-decoration-color:#000;letter-spacing:normal;word-spacing:normal;text-transform:none;writing-mode:lr-tb;direction:ltr;text-orientation:mixed;dominant-baseline:auto;baseline-shift:baseline;text-anchor:start;white-space:normal;shape-padding:0;clip-rule:nonzero;display:inline;overflow:visible;visibility:visible;isolation:auto;mix-blend-mode:normal;color-interpolation:sRGB;color-interpolation-filters:linearRGB;solid-color:#000;solid-opacity:1;fill:#000;fill-opacity:1;fill-rule:nonzero;stroke:none;stroke-width:1.38045;stroke-linecap:butt;stroke-linejoin:round;stroke-miterlimit:4;stroke-dasharray:none;stroke-dashoffset:0;stroke-opacity:1;color-rendering:auto;image-rendering:auto;shape-rendering:auto;text-rendering:auto" transform="translate(-3.667 -260.333)scale(1.11111)"/></svg>