<svg xmlns="http://www.w3.org/2000/svg" width="66mm" height="66mm" viewBox="0 0 66 66"><path d="M.635 239.921a.13.13 0 0 0-.131.133v49.777a.13.13 0 0 0 .13.133h37.19a.13.13 0 0 0 .131-.133v-49.777a.13.13 0 0 0-.13-.133zm.133.266H37.69V289.7H.768Z" style="color:#000;font-style:normal;font-variant:normal;font-weight:400;font-stretch:normal;font-size:medium;line-height:normal;font-family:sans-serif;font-variant-ligatures:normal;font-variant-position:normal;font-variant-caps:normal;font-variant-numeric:normal;font-variant-alternates:normal;font-feature-settings:normal;text-indent:0;text-align:start;text-decoration:none;text-decoration-line:none;text-decoration-style:solid;text-decoration-color:#000;letter-spacing:normal;word-spacing:normal;text-transform:none;writing-mode:lr-tb;direction:ltr;text-orientation:mixed;dominant-baseline:auto;baseline-shift:baseline;text-anchor:start;white-space:normal;shape-padding:0;clip-rule:nonzero;display:inline;overflow:visible;visibility:visible;isolation:auto;mix-blend-mode:normal;color-interpolation:sRGB;color-interpolation-filters:linearRGB;solid-color:#000;solid-opacity:1;fill:#000;fill-opacity:1;fill-rule:nonzero;stroke:none;stroke-width:1;stroke-linecap:butt;stroke-linejoin:round;stroke-miterlimit:4;stroke-dasharray:none;stroke-dashoffset:0;stroke-opacity:1;color-rendering:auto;image-rendering:auto;shape-rendering:auto;text-rendering:auto" transform="translate(13.787 -231.715)scale(.99914)"/><path d="m18.2 244.146-.253.002.233 45.568.254-.002z" style="color:#000;font-style:normal;font-variant:normal;font-weight:400;font-stretch:normal;font-size:medium;line-height:normal;font-family:sans-serif;font-variant-ligatures:normal;font-variant-position:normal;font-variant-caps:normal;font-variant-numeric:normal;font-variant-alternates:normal;font-feature-settings:normal;text-indent:0;text-align:start;text-decoration:none;text-decoration-line:none;text-decoration-style:solid;text-decoration-color:#000;letter-spacing:normal;word-spacing:normal;text-transform:none;writing-mode:lr-tb;direction:ltr;text-orientation:mixed;dominant-baseline:auto;baseline-shift:baseline;text-anchor:start;white-space:normal;shape-padding:0;clip-rule:nonzero;display:inline;overflow:visible;visibility:visible;isolation:auto;mix-blend-mode:normal;color-interpolation:sRGB;color-interpolation-filters:linearRGB;solid-color:#000;solid-opacity:1;fill:#000;fill-opacity:1;fill-rule:evenodd;stroke:none;stroke-width:1;stroke-linecap:butt;stroke-linejoin:miter;stroke-miterlimit:4;stroke-dasharray:none;stroke-dashoffset:0;stroke-opacity:1;color-rendering:auto;image-rendering:auto;shape-rendering:auto;text-rendering:auto" transform="translate(13.787 -231.715)scale(.99914)"/><g style="fill:#000;fill-opacity:1;stroke:none"><path d="m.834 243.714 37.004.05" style="color:#000;font-style:normal;font-variant:normal;font-weight:400;font-stretch:normal;font-size:medium;line-height:normal;font-family:sans-serif;font-variant-ligatures:normal;font-variant-position:normal;font-variant-caps:normal;font-variant-numeric:normal;font-variant-alternates:normal;font-feature-settings:normal;text-indent:0;text-align:start;text-decoration:none;text-decoration-line:none;text-decoration-style:solid;text-decoration-color:#000;letter-spacing:normal;word-spacing:normal;text-transform:none;writing-mode:lr-tb;direction:ltr;text-orientation:mixed;dominant-baseline:auto;baseline-shift:baseline;text-anchor:start;white-space:normal;shape-padding:0;clip-rule:nonzero;display:inline;overflow:visible;visibility:visible;isolation:auto;mix-blend-mode:normal;color-interpolation:sRGB;color-interpolation-filters:linearRGB;solid-color:#000;solid-opacity:1;fill:#000;fill-opacity:1;fill-rule:evenodd;stroke:none;stroke-width:.376674;stroke-linecap:butt;stroke-linejoin:miter;stroke-miterlimit:4;stroke-dasharray:none;stroke-dashoffset:0;stroke-opacity:1;color-rendering:auto;image-rendering:auto;shape-rendering:auto;text-rendering:auto" transform="translate(13.598 -231.333)scale(.99914)"/><path d="M.834 243.525v.377l37.004.051v-.377z" style="color:#000;font-style:normal;font-variant:normal;font-weight:400;font-stretch:normal;font-size:medium;line-height:normal;font-family:sans-serif;font-variant-ligatures:normal;font-variant-position:normal;font-variant-caps:normal;font-variant-numeric:normal;font-variant-alternates:normal;font-feature-settings:normal;text-indent:0;text-align:start;text-decoration:none;text-decoration-line:none;text-decoration-style:solid;text-decoration-color:#000;letter-spacing:normal;word-spacing:normal;text-transform:none;writing-mode:lr-tb;direction:ltr;text-orientation:mixed;dominant-baseline:auto;baseline-shift:baseline;text-anchor:start;white-space:normal;shape-padding:0;clip-rule:nonzero;display:inline;overflow:visible;visibility:visible;isolation:auto;mix-blend-mode:normal;color-interpolation:sRGB;color-interpolation-filters:linearRGB;solid-color:#000;solid-opacity:1;fill:#000;fill-opacity:1;fill-rule:evenodd;stroke:none;stroke-linecap:butt;stroke-linejoin:miter;stroke-miterlimit:4;stroke-dasharray:none;stroke-dashoffset:0;stroke-opacity:1;color-rendering:auto;image-rendering:auto;shape-rendering:auto;text-rendering:auto" transform="translate(13.598 -231.333)scale(.99914)"/></g><g style="fill:#000;fill-opacity:1;stroke:none"><path d="M1.722.272C.92.272.264.928.264 1.728S.92 3.185 1.722 3.185s1.457-.656 1.457-1.457c0-.8-.656-1.456-1.457-1.456m0 .532a.92.92 0 0 1 .926.924.92.92 0 0 1-.926.925.92.92 0 0 1-.926-.925.92.92 0 0 1 .926-.924" style="fill:#000;fill-opacity:1;stroke:none;stroke-width:.264583" transform="translate(15.457 8.902)scale(.54399)"/><path d="M2.596 2.39a.265.265 0 0 0-.132.454l1.058 1.059a.266.266 0 1 0 .372-.38l-1.058-1.06a.27.27 0 0 0-.24-.073" style="fill:#000;fill-opacity:1;stroke:none;stroke-width:.264583" transform="translate(15.457 8.902)scale(.54399)"/></g><path d="M4.642 286.185c-.777 0-1.41.633-1.41 1.41s.633 1.41 1.41 1.41 1.41-.633 1.41-1.41-.633-1.41-1.41-1.41m0 .266c.634 0 1.144.51 1.144 1.144s-.51 1.145-1.144 1.145-1.145-.51-1.145-1.145c0-.634.51-1.144 1.145-1.144m4.463-.266c-.777 0-1.41.633-1.41 1.41s.633 1.41 1.41 1.41 1.41-.633 1.41-1.41-.633-1.41-1.41-1.41m0 .266c.634 0 1.144.51 1.144 1.144s-.51 1.145-1.144 1.145-1.145-.51-1.145-1.145c0-.634.51-1.144 1.145-1.144m4.463-.266c-.778 0-1.41.633-1.41 1.41s.632 1.41 1.41 1.41 1.41-.633 1.41-1.41-.633-1.41-1.41-1.41m0 .266c.634 0 1.144.51 1.144 1.144s-.51 1.145-1.144 1.145a1.144 1.144 0 1 1 0-2.29" style="color:#000;font-style:normal;font-variant:normal;font-weight:400;font-stretch:normal;font-size:medium;line-height:normal;font-family:sans-serif;font-variant-ligatures:normal;font-variant-position:normal;font-variant-caps:normal;font-variant-numeric:normal;font-variant-alternates:normal;font-feature-settings:normal;text-indent:0;text-align:start;text-decoration:none;text-decoration-line:none;text-decoration-style:solid;text-decoration-color:#000;letter-spacing:normal;word-spacing:normal;text-transform:none;writing-mode:lr-tb;direction:ltr;text-orientation:mixed;dominant-baseline:auto;baseline-shift:baseline;text-anchor:start;white-space:normal;shape-padding:0;clip-rule:nonzero;display:inline;overflow:visible;visibility:visible;isolation:auto;mix-blend-mode:normal;color-interpolation:sRGB;color-interpolation-filters:linearRGB;solid-color:#000;solid-opacity:1;fill:#000;fill-opacity:1;fill-rule:nonzero;stroke:none;stroke-width:1;stroke-linecap:butt;stroke-linejoin:round;stroke-miterlimit:4;stroke-dasharray:none;stroke-dashoffset:0;stroke-opacity:1;color-rendering:auto;image-rendering:auto;shape-rendering:auto;text-rendering:auto" transform="translate(13.787 -231.715)scale(.99914)"/><g style="fill:#000;fill-opacity:1;stroke:none"><path d="m5.337 8.247.748.749L8.731 6.35 6.085 3.704l-.748.749L6.705 5.82H1.588v1.058h5.117Zm4.717-6.66H2.646c-.585 0-1.058.474-1.058 1.059v2.117h1.058V2.646h7.408v7.408H2.646V7.937H1.588v2.117c0 .585.473 1.058 1.058 1.058h7.408c.585 0 1.058-.473 1.058-1.058V2.646c0-.585-.473-1.058-1.058-1.058" style="fill:#000;fill-opacity:1;stroke:none;stroke-width:.264583" transform="translate(17.58 54.758)scale(.13446)"/></g><g style="fill:#000;fill-opacity:1;stroke:none"><path d="M9.525 4.233h-.53V3.175a2.647 2.647 0 0 0-5.29 0v1.058h-.53c-.585 0-1.058.474-1.058 1.059v5.291c0 .585.473 1.059 1.058 1.059h6.35c.585 0 1.058-.474 1.058-1.059V5.292c0-.585-.473-1.059-1.058-1.059M6.35 1.535c.905 0 1.64.735 1.64 1.64v1.058H4.763V3.175H4.71c0-.905.735-1.64 1.64-1.64m3.175 9.048h-6.35V5.292h6.35zM6.35 8.996a1.058 1.058 0 1 0 0-2.116 1.058 1.058 0 0 0 0 2.116" style="fill:#000;fill-opacity:1;stroke:none;stroke-width:.264583" transform="translate(21.944 54.65)scale(.14797)"/></g><path d="m13.5 286.747.134-.023v.737H13.5z" style="color:#000;display:inline;overflow:visible;visibility:visible;fill:#000;fill-opacity:1;stroke:none;stroke-width:.200927;marker:none" transform="translate(13.787 -231.715)scale(.99914)"/><path d="M13.199 286.957a.737.737 0 1 0 .736 0l-.067.116a.602.602 0 1 1-.602 0z" style="color:#000;font-style:normal;font-variant:normal;font-weight:400;font-stretch:normal;font-size:medium;line-height:normal;font-family:sans-serif;font-variant-ligatures:normal;font-variant-position:normal;font-variant-caps:normal;font-variant-numeric:normal;font-variant-alternates:normal;font-feature-settings:normal;text-indent:0;text-align:start;text-decoration:none;text-decoration-line:none;text-decoration-style:solid;text-decoration-color:#000;letter-spacing:normal;word-spacing:normal;text-transform:none;writing-mode:lr-tb;direction:ltr;text-orientation:mixed;dominant-baseline:auto;baseline-shift:baseline;text-anchor:start;white-space:normal;shape-padding:0;clip-rule:nonzero;display:inline;overflow:visible;visibility:visible;isolation:auto;mix-blend-mode:normal;color-interpolation:sRGB;color-interpolation-filters:linearRGB;solid-color:#000;solid-opacity:1;fill:#000;fill-opacity:1;fill-rule:nonzero;stroke:none;stroke-width:.0843787;stroke-linecap:butt;stroke-linejoin:round;stroke-miterlimit:4;stroke-dasharray:none;stroke-dashoffset:0;stroke-opacity:1;marker:none;color-rendering:auto;image-rendering:auto;shape-rendering:auto;text-rendering:auto" transform="translate(13.787 -231.715)scale(.99914)"/><g style="fill:#000;fill-opacity:1;stroke:none"><path d="m7.023 251.42-.002.793 3.97.015.001-.792zm5.557.021-.002.793 4.762.02.004-.793zm6.35.026-.002.793 1.033.004.002-.793zm-11.852 4.847-.004.795 3.969.016.004-.793zm5.557.024-.004.793 4.762.02.003-.796zm6.35.025-.005.793 1.034.004.004-.793zM7.14 261.041l-.004.795 3.968.016.004-.795zm5.556.022-.004.794 4.764.02.002-.795zm6.35.025-.004.795 1.033.004.004-.795zm-11.79 5.082-.003.795 3.969.015.004-.794zm5.557.023-.003.793 4.761.02.004-.795zm6.35.026-.004.793 1.033.004.004-.793zm-11.969 4.435-.004.793 3.97.016.003-.793zm5.555.022-.002.795 4.762.017.004-.793zm6.352.025-.004.795 1.033.004.002-.795zm-11.791 4.33-.002.793 3.968.016.002-.793zm5.556.022-.004.793 4.764.02.002-.794zm6.35.025-.002.793 1.031.004.004-.793zm-11.9 4.436-.005.795 3.97.015.003-.795zm5.554.021-.002.795 4.762.02.004-.795zm6.352.026-.004.795 1.033.004.002-.793zM7.316 246.649l-.004.792 3.97.018.003-.795zm5.555.021-.002.795 4.762.02.004-.796zm6.352.025-.004.795 1.033.004.002-.795zM1.806 268.347a.124.124 0 0 0-.124.124v3.39c0 .068.055.124.124.124h3.08a.124.124 0 0 0 .125-.125v-3.39a.124.124 0 0 0-.124-.123zm0 4.063a.124.124 0 0 0-.124.124v3.39c0 .068.055.124.124.124h3.08a.124.124 0 0 0 .125-.124v-3.39a.124.124 0 0 0-.124-.124zm0 4.379a.124.124 0 0 0-.124.124v3.39c0 .068.055.124.124.124h3.08a.124.124 0 0 0 .125-.125v-3.39a.124.124 0 0 0-.124-.123zm0-26.12a.124.124 0 0 0-.124.124v3.39c0 .068.055.124.124.124h3.08a.124.124 0 0 0 .125-.125v-3.39a.124.124 0 0 0-.124-.123zm0 4.512a.124.124 0 0 0-.124.124v3.39c0 .068.055.124.124.124h3.08a.124.124 0 0 0 .125-.124v-3.39a.124.124 0 0 0-.124-.124zm0 4.437a.124.124 0 0 0-.124.123v3.39c0 .068.055.123.124.123h3.08a.124.124 0 0 0 .125-.124v-3.39a.124.124 0 0 0-.124-.122zm0 4.403a.124.124 0 0 0-.124.124v3.39c0 .068.055.124.124.124h3.08a.124.124 0 0 0 .125-.125v-3.39a.124.124 0 0 0-.124-.123zm0-17.943a.124.124 0 0 0-.124.124v3.39c0 .068.055.124.124.124h3.08a.124.124 0 0 0 .125-.124v-3.39a.124.124 0 0 0-.124-.124z" style="color:#000;font-style:normal;font-variant:normal;font-weight:400;font-stretch:normal;font-size:medium;line-height:normal;font-family:sans-serif;font-variant-ligatures:normal;font-variant-position:normal;font-variant-caps:normal;font-variant-numeric:normal;font-variant-alternates:normal;font-feature-settings:normal;text-indent:0;text-align:start;text-decoration:none;text-decoration-line:none;text-decoration-style:solid;text-decoration-color:#000;letter-spacing:normal;word-spacing:normal;text-transform:none;writing-mode:lr-tb;direction:ltr;text-orientation:mixed;dominant-baseline:auto;baseline-shift:baseline;text-anchor:start;white-space:normal;shape-padding:0;clip-rule:nonzero;display:inline;overflow:visible;visibility:visible;opacity:1;isolation:auto;mix-blend-mode:normal;color-interpolation:sRGB;color-interpolation-filters:linearRGB;solid-color:#000;solid-opacity:1;fill:#000;fill-opacity:1;fill-rule:evenodd;stroke:none;stroke-linecap:butt;stroke-linejoin:miter;stroke-miterlimit:4;stroke-dasharray:4.7625,1.5875;stroke-dashoffset:.79375;stroke-opacity:1;color-rendering:auto;image-rendering:auto;shape-rendering:auto;text-rendering:auto" transform="matrix(.8319 0 0 .75397 13.875 -171)"/></g><g style="fill:#000;fill-opacity:1;stroke:none"><path d="m1.04 284.71 17.344.051" style="color:#000;font-style:normal;font-variant:normal;font-weight:400;font-stretch:normal;font-size:medium;line-height:normal;font-family:sans-serif;font-variant-ligatures:normal;font-variant-position:normal;font-variant-caps:normal;font-variant-numeric:normal;font-variant-alternates:normal;font-feature-settings:normal;text-indent:0;text-align:start;text-decoration:none;text-decoration-line:none;text-decoration-style:solid;text-decoration-color:#000;letter-spacing:normal;word-spacing:normal;text-transform:none;writing-mode:lr-tb;direction:ltr;text-orientation:mixed;dominant-baseline:auto;baseline-shift:baseline;text-anchor:start;white-space:normal;shape-padding:0;clip-rule:nonzero;display:inline;overflow:visible;visibility:visible;isolation:auto;mix-blend-mode:normal;color-interpolation:sRGB;color-interpolation-filters:linearRGB;solid-color:#000;solid-opacity:1;fill:#000;fill-opacity:1;fill-rule:evenodd;stroke:none;stroke-width:.260467;stroke-linecap:butt;stroke-linejoin:miter;stroke-miterlimit:4;stroke-dasharray:none;stroke-dashoffset:0;stroke-opacity:1;color-rendering:auto;image-rendering:auto;shape-rendering:auto;text-rendering:auto" transform="translate(13.598 -231.333)scale(.99914)"/><path d="M1.041 284.58v.26l17.344.05v-.26z" style="color:#000;font-style:normal;font-variant:normal;font-weight:400;font-stretch:normal;font-size:medium;line-height:normal;font-family:sans-serif;font-variant-ligatures:normal;font-variant-position:normal;font-variant-caps:normal;font-variant-numeric:normal;font-variant-alternates:normal;font-feature-settings:normal;text-indent:0;text-align:start;text-decoration:none;text-decoration-line:none;text-decoration-style:solid;text-decoration-color:#000;letter-spacing:normal;word-spacing:normal;text-transform:none;writing-mode:lr-tb;direction:ltr;text-orientation:mixed;dominant-baseline:auto;baseline-shift:baseline;text-anchor:start;white-space:normal;shape-padding:0;clip-rule:nonzero;display:inline;overflow:visible;visibility:visible;isolation:auto;mix-blend-mode:normal;color-interpolation:sRGB;color-interpolation-filters:linearRGB;solid-color:#000;solid-opacity:1;fill:#000;fill-opacity:1;fill-rule:evenodd;stroke:none;stroke-linecap:butt;stroke-linejoin:miter;stroke-miterlimit:4;stroke-dasharray:none;stroke-dashoffset:0;stroke-opacity:1;color-rendering:auto;image-rendering:auto;shape-rendering:auto;text-rendering:auto" transform="translate(13.598 -231.333)scale(.99914)"/></g><path d="M34.799 241.042s-.756.374-1.418.912h-.001l.001.002a8.6 8.6 0 0 0 1.418.912v-.002h1.62v-1.823zm.254.318.462.462.462-.462.143.144-.462.462.462.461-.143.144-.462-.462-.462.462-.143-.144.461-.461-.461-.462z" style="color:#000;display:inline;overflow:visible;visibility:visible;fill:#000;fill-opacity:1;fill-rule:nonzero;stroke:none;stroke-width:.033775;marker:none" transform="translate(13.787 -231.715)scale(.99914)"/><g style="fill:#000;fill-opacity:1;stroke:none"><path d="m-23.605 258.838-.002.203 10.615.037v-.203Zm.095 3.697-.002.203 10.615.037v-.203zm-.052 3.233v.205l10.613.037.002-.205zm.095 3.156v.203l10.613.037.002-.203zm.004 3.232v.203l10.613.037.002-.203zm-4.52-8.242a.095.095 0 0 0-.095.096v2.443c0 .053.043.096.096.096h2.527a.095.095 0 0 0 .096-.096v-2.443a.095.095 0 0 0-.096-.096zm0 2.93a.095.095 0 0 0-.095.095v2.444c0 .053.043.096.096.095h2.527a.095.095 0 0 0 .096-.095v-2.444a.095.095 0 0 0-.096-.095zm0 3.158a.095.095 0 0 0-.095.094v2.445c0 .052.043.094.096.094h2.527a.095.095 0 0 0 .096-.094v-2.445a.095.095 0 0 0-.096-.094zm0-12.381a.095.095 0 0 0-.095.094v2.445c0 .052.043.094.096.094h2.527a.095.095 0 0 0 .096-.094v-2.445a.095.095 0 0 0-.096-.094zm0 3.174a.095.095 0 0 0-.095.096v2.443c0 .053.043.096.096.096h2.527a.095.095 0 0 0 .096-.096v-2.443a.095.095 0 0 0-.096-.096zm4.281-24.773v.192l10.613.036.002-.191zm.045 3.53-.001.19 10.614.039v-.192zm.052 3.409-.002.19 10.614.036.002-.19zm.094 3.698v.19l10.614.038v-.192zm-.051 3.232v.191l10.614.037v-.19zm.096 3.155-.002.19 10.614.039.002-.192zm.003 3.234v.19l10.614.037v-.19zm0-23.697v.19l10.614.037v-.19zm-4.518 15.454c-.057 0-.102.04-.102.09v2.443c0 .05.045.09.102.09h2.527c.056 0 .102-.04.102-.09v-2.444c0-.05-.046-.09-.102-.09zm0 2.93c-.057 0-.102.04-.102.089v2.444c0 .05.045.09.102.09h2.527c.056 0 .102-.04.102-.09v-2.444c0-.05-.046-.09-.102-.09zm0 3.157c-.057 0-.102.04-.102.09v2.443c0 .05.045.09.102.09h2.527c.056 0 .102-.04.102-.09v-2.444c0-.05-.046-.09-.102-.09zm0-18.833c-.057 0-.102.04-.102.09v2.443c0 .05.045.09.102.09h2.527c.056 0 .102-.04.102-.09v-2.444c0-.05-.046-.09-.102-.09zm0 3.253c-.057 0-.102.04-.102.09v2.443c0 .05.045.09.102.09h2.527c.056 0 .102-.04.102-.09v-2.443c0-.05-.046-.09-.102-.09zm0 3.2c-.056 0-.101.039-.102.088v2.444c0 .049.045.09.102.089h2.527c.056 0 .102-.04.102-.09v-2.443c0-.05-.046-.089-.102-.089zm0 3.174c-.057 0-.102.04-.102.09v2.443c0 .05.045.09.102.09h2.527c.056 0 .102-.04.102-.09v-2.444c0-.05-.046-.09-.102-.09zm0-12.937c-.057 0-.102.04-.102.09v2.443c0 .05.045.09.102.09h2.527c.056 0 .102-.04.102-.09v-2.444c0-.05-.046-.09-.102-.09z" style="color:#000;font-style:normal;font-variant:normal;font-weight:400;font-stretch:normal;font-size:medium;line-height:normal;font-family:sans-serif;font-variant-ligatures:normal;font-variant-position:normal;font-variant-caps:normal;font-variant-numeric:normal;font-variant-alternates:normal;font-feature-settings:normal;text-indent:0;text-align:start;text-decoration:none;text-decoration-line:none;text-decoration-style:solid;text-decoration-color:#000;letter-spacing:normal;word-spacing:normal;text-transform:none;writing-mode:lr-tb;direction:ltr;text-orientation:mixed;dominant-baseline:auto;baseline-shift:baseline;text-anchor:start;white-space:normal;shape-padding:0;clip-rule:nonzero;display:inline;overflow:visible;visibility:visible;opacity:1;isolation:auto;mix-blend-mode:normal;color-interpolation:sRGB;color-interpolation-filters:linearRGB;solid-color:#000;solid-opacity:1;fill:#000;fill-opacity:1;fill-rule:evenodd;stroke:none;stroke-linecap:butt;stroke-linejoin:miter;stroke-miterlimit:4;stroke-dasharray:none;stroke-dashoffset:.264583;stroke-opacity:1;color-rendering:auto;image-rendering:auto;shape-rendering:auto;text-rendering:auto" transform="translate(62.026 -217.576)scale(.99914)"/></g><g style="fill:#000;fill-opacity:1;stroke:none"><path d="m1.04 274.127 17.344.05" style="color:#000;font-style:normal;font-variant:normal;font-weight:400;font-stretch:normal;font-size:medium;line-height:normal;font-family:sans-serif;font-variant-ligatures:normal;font-variant-position:normal;font-variant-caps:normal;font-variant-numeric:normal;font-variant-alternates:normal;font-feature-settings:normal;text-indent:0;text-align:start;text-decoration:none;text-decoration-line:none;text-decoration-style:solid;text-decoration-color:#000;letter-spacing:normal;word-spacing:normal;text-transform:none;writing-mode:lr-tb;direction:ltr;text-orientation:mixed;dominant-baseline:auto;baseline-shift:baseline;text-anchor:start;white-space:normal;shape-padding:0;clip-rule:nonzero;display:inline;overflow:visible;visibility:visible;isolation:auto;mix-blend-mode:normal;color-interpolation:sRGB;color-interpolation-filters:linearRGB;solid-color:#000;solid-opacity:1;fill:#000;fill-opacity:1;fill-rule:evenodd;stroke:none;stroke-width:.260467;stroke-linecap:butt;stroke-linejoin:miter;stroke-miterlimit:4;stroke-dasharray:none;stroke-dashoffset:0;stroke-opacity:1;color-rendering:auto;image-rendering:auto;shape-rendering:auto;text-rendering:auto" transform="translate(13.598 -231.333)scale(.99914)"/><path d="M1.041 273.996v.262l17.344.05v-.261z" style="color:#000;font-style:normal;font-variant:normal;font-weight:400;font-stretch:normal;font-size:medium;line-height:normal;font-family:sans-serif;font-variant-ligatures:normal;font-variant-position:normal;font-variant-caps:normal;font-variant-numeric:normal;font-variant-alternates:normal;font-feature-settings:normal;text-indent:0;text-align:start;text-decoration:none;text-decoration-line:none;text-decoration-style:solid;text-decoration-color:#000;letter-spacing:normal;word-spacing:normal;text-transform:none;writing-mode:lr-tb;direction:ltr;text-orientation:mixed;dominant-baseline:auto;baseline-shift:baseline;text-anchor:start;white-space:normal;shape-padding:0;clip-rule:nonzero;display:inline;overflow:visible;visibility:visible;isolation:auto;mix-blend-mode:normal;color-interpolation:sRGB;color-interpolation-filters:linearRGB;solid-color:#000;solid-opacity:1;fill:#000;fill-opacity:1;fill-rule:evenodd;stroke:none;stroke-linecap:butt;stroke-linejoin:miter;stroke-miterlimit:4;stroke-dasharray:none;stroke-dashoffset:0;stroke-opacity:1;color-rendering:auto;image-rendering:auto;shape-rendering:auto;text-rendering:auto" transform="translate(13.598 -231.333)scale(.99914)"/></g><g style="fill:#000;fill-opacity:1;stroke:none"><path d="M-30.559 282.164v.203l10.614.037v-.203zm.004 3.232-.002.204 10.616.037v-.203zm-4.52-4.783a.095.095 0 0 0-.095.096v2.443c0 .053.043.096.096.096h2.527a.095.095 0 0 0 .096-.096v-2.443a.095.095 0 0 0-.096-.096zm0 3.159a.095.095 0 0 0-.095.093v2.446c0 .053.043.096.096.095h2.527a.095.095 0 0 0 .096-.095v-2.446a.095.095 0 0 0-.096-.093z" style="color:#000;font-style:normal;font-variant:normal;font-weight:400;font-stretch:normal;font-size:medium;line-height:normal;font-family:sans-serif;font-variant-ligatures:normal;font-variant-position:normal;font-variant-caps:normal;font-variant-numeric:normal;font-variant-alternates:normal;font-feature-settings:normal;text-indent:0;text-align:start;text-decoration:none;text-decoration-line:none;text-decoration-style:solid;text-decoration-color:#000;letter-spacing:normal;word-spacing:normal;text-transform:none;writing-mode:lr-tb;direction:ltr;text-orientation:mixed;dominant-baseline:auto;baseline-shift:baseline;text-anchor:start;white-space:normal;shape-padding:0;clip-rule:nonzero;display:inline;overflow:visible;visibility:visible;opacity:1;isolation:auto;mix-blend-mode:normal;color-interpolation:sRGB;color-interpolation-filters:linearRGB;solid-color:#000;solid-opacity:1;fill:#000;fill-opacity:1;fill-rule:evenodd;stroke:none;stroke-linecap:butt;stroke-linejoin:miter;stroke-miterlimit:4;stroke-dasharray:none;stroke-dashoffset:.264583;stroke-opacity:1;color-rendering:auto;image-rendering:auto;shape-rendering:auto;text-rendering:auto" transform="translate(50.74 -235.576)scale(.99914)"/></g></svg>