<svg xmlns="http://www.w3.org/2000/svg" width="66mm" height="66mm" viewBox="0 0 66 66"><g style="fill:#000;fill-opacity:1;stroke:none"><path d="M-53.611 38.59a.2.2 0 0 0-.2.2v5.919c0 .11.09.2.2.2h4.578a.2.2 0 0 0 .199-.2v-5.92a.2.2 0 0 0-.2-.2zm0 7.88a.2.2 0 0 0-.2.2v5.92c0 .11.09.199.2.2h4.578a.2.2 0 0 0 .199-.2v-5.92a.2.2 0 0 0-.2-.2zm0-15.894a.2.2 0 0 0-.2.2v5.917c0 .11.09.2.2.2h4.578a.2.2 0 0 0 .199-.2v-5.918a.2.2 0 0 0-.2-.199zm6.236 7.99a.2.2 0 0 0-.2.199v5.92a.2.2 0 0 0 .2.199h4.578a.2.2 0 0 0 .199-.2v-5.92a.2.2 0 0 0-.2-.199zm0 7.88a.2.2 0 0 0-.2.2v5.92a.2.2 0 0 0 .2.199h4.578a.2.2 0 0 0 .199-.2v-5.92a.2.2 0 0 0-.2-.199zm0-15.894a.2.2 0 0 0-.2.199v5.918c0 .11.09.2.2.2h4.578a.2.2 0 0 0 .199-.2v-5.918a.2.2 0 0 0-.2-.2zm6.237 7.99a.2.2 0 0 0-.2.2v5.918c0 .11.09.2.2.2h4.576a.2.2 0 0 0 .199-.2v-5.918a.2.2 0 0 0-.2-.2zm0 7.88a.2.2 0 0 0-.2.2v5.92c0 .11.09.198.2.198h4.576a.2.2 0 0 0 .199-.199v-5.92a.2.2 0 0 0-.2-.199zm0-15.894a.2.2 0 0 0-.2.199v5.918a.2.2 0 0 0 .2.199h4.576a.2.2 0 0 0 .199-.2v-5.917a.2.2 0 0 0-.2-.2zm6.234 7.99a.2.2 0 0 0-.199.2v5.918c0 .11.09.199.2.2h4.578a.2.2 0 0 0 .199-.2v-5.918a.2.2 0 0 0-.2-.2zm0 7.88a.2.2 0 0 0-.199.199v5.92a.2.2 0 0 0 .2.199h4.578a.2.2 0 0 0 .199-.2v-5.92a.2.2 0 0 0-.2-.198zm0-15.895a.2.2 0 0 0-.199.2v5.92c0 .11.09.198.2.198h4.578a.2.2 0 0 0 .199-.199v-5.92a.2.2 0 0 0-.2-.199zm6.237 7.991a.2.2 0 0 0-.2.2v5.917c.001.11.09.2.2.2h4.576a.2.2 0 0 0 .2-.2v-5.918a.2.2 0 0 0-.2-.199zm0 7.88a.2.2 0 0 0-.2.2v5.918c.001.11.09.2.2.2h4.576a.2.2 0 0 0 .2-.2v-5.918a.2.2 0 0 0-.2-.2zm0-15.895a.2.2 0 0 0-.2.199v5.92a.2.2 0 0 0 .2.199h4.576a.2.2 0 0 0 .2-.2v-5.92a.2.2 0 0 0-.2-.198zm6.235 7.99a.2.2 0 0 0-.2.2v5.918a.2.2 0 0 0 .2.201h4.578a.2.2 0 0 0 .2-.201v-5.918a.2.2 0 0 0-.2-.2zm0 7.882a.2.2 0 0 0-.2.199v5.918a.2.2 0 0 0 .2.199h4.578a.2.2 0 0 0 .2-.2V46.55a.2.2 0 0 0-.2-.2zm0-15.897a.2.2 0 0 0-.2.2v5.92c0 .11.09.198.2.198h4.578a.2.2 0 0 0 .2-.199v-5.92a.2.2 0 0 0-.2-.199zm6.237 7.991a.2.2 0 0 0-.2.2v5.92a.2.2 0 0 0 .2.199h4.576a.2.2 0 0 0 .2-.2v-5.92a.2.2 0 0 0-.2-.199zm0 7.881a.2.2 0 0 0-.2.2v5.917c0 .11.09.2.2.2h4.576a.2.2 0 0 0 .2-.2v-5.918a.2.2 0 0 0-.2-.199zm0-15.896a.2.2 0 0 0-.2.199v5.92a.2.2 0 0 0 .2.199h4.576a.2.2 0 0 0 .2-.2v-5.92a.2.2 0 0 0-.2-.198zm3.276-28.358.003 2.681h.39l-.003-2.681zm.976-.001.002 2.68h.39l-.002-2.68zm1.366-.002h-.39l.002 2.681h.39zm-41.842.799-.254-.298-.32.27.252.298zm-.629-.516-.386-.065-.072.411.386.068zm-.814.009-.337.198.21.361.338-.196zm-.617.53-.131.368.392.142.134-.367zm-.133.802.136.367.392-.144-.134-.367zm.414.7.34.193.208-.362-.338-.195zm.768.27.384-.07-.073-.412-.385.069zm.761-.286.25-.302-.321-.268-.251.3zm.428-.71-.06-.39h-.389v.391zm-1.691.655a.98.98 0 0 0 .978-1.697.98.98 0 0 0-.978 1.697m.167-.29A.64.64 0 0 1-54 3.154a.641.641 0 1 1 1.114.64.64.64 0 0 1-.879.238m3.687-1.1v.613h-.152l-.001-.612zm.306 0 .002 1.072h-.154v-1.07zm.307 0v1.072h-.152l-.001-1.072zm.459-.46-1.991.003.001 1.378v.077l.537.535h.076l1.379-.002zm-.153.153.001 1.685-1.225.002v-.46h-.46l-.001-1.224zm3.913.837a.7.7 0 0 0-.22-.506.78.78 0 0 0-.533-.208.7.7 0 0 0-.255.044 1.8 1.8 0 0 0-.553.365q-.061.054-.122.116v.377q.06.062.123.122c.14.128.32.269.554.363a.78.78 0 0 0 .787-.167.7.7 0 0 0 .22-.506m-1.471.645a2.5 2.5 0 0 1-.32-.265c-.159-.16-.349-.376-.349-.376s.186-.23.348-.38c.09-.087.196-.18.319-.264l-.005-.012a1.9 1.9 0 0 0-.309-.54l-.6.001v1.542l.002.846h.601a1.9 1.9 0 0 0 .308-.539zm34.514 9.286-.793-.002-.012 3.969.793.002zm-.016 5.555h-.795l-.012 4.761.793.003zm-.018 6.352-.793-.003-.005 1.033.795.001zm.794-17.128a.124.124 0 0 0-.125-.123l-3.39.005a.124.124 0 0 0-.124.123l.003 3.082c0 .069.057.124.126.123l3.388-.005a.124.124 0 0 0 .125-.123zm-5.325 5.228-.793-.002-.011 3.968.793.003zm-.015 5.555h-.793l-.014 4.761.793.003zm-.019 6.352-.793-.003-.002 1.033h.793zm-4.54-11.9-.795-.002-.011 3.968.795.003zm-.017 5.555h-.793l-.015 4.76.795.004zm-.019 6.352-.793-.003-.003 1.033h.793zm-4.86-11.847-.795-.002-.012 3.968.795.003zm-.016 5.557-.795-.003-.014 4.764h.795zm-.018 6.35-.795-.003-.003 1.033.795.003zm-4.693-11.837h-.793l-.011 3.968h.793zm-.015 5.557-.793-.003-.015 4.764h.793zm-.019 6.35-.793-.001-.004 1.03.795.004zm-5.095-11.782-.793-.003-.01 3.969.792.003zm-.015 5.557-.795-.003-.012 4.764h.793zm-.018 6.35-.795-.003-.003 1.033.795.002zm-4.451-11.963-.793-.003-.011 3.97.793.002zm-.015 5.557-.793-.003-.015 4.762.793.003zm-.019 6.35-.793-.003-.003 1.033.793.003zm-4.34-11.785h-.796l-.011 3.968h.795zm-.018 5.557-.793-.001-.015 4.762.795.002zm-.017 6.35-.795-.001-.003 1.033h.793zm-4.45-11.894-.793-.003-.012 3.969.793.002zm-.016 5.556-.795-.002-.012 4.761.793.003zm-.018 6.35-.793-.003-.005 1.033.795.003zM-56.51 3.18a.737.737 0 1 0 0 .736l-.115-.067a.602.602 0 1 1-.001-.602zm.21.3.023.135h-.737v-.133zm.562.067a1.41 1.41 0 0 0-1.412-1.408 1.413 1.413 0 0 0-1.409 1.412 1.41 1.41 0 0 0 1.412 1.408 1.413 1.413 0 0 0 1.409-1.412m-.264 0c0 .634-.511 1.146-1.145 1.147a1.14 1.14 0 0 1-1.146-1.143c0-.634.51-1.145 1.143-1.146A1.143 1.143 0 0 1-56 3.547m17.724 4.665a.124.124 0 0 0-.123-.123l-3.39.005a.124.124 0 0 0-.124.124l.003 3.082c0 .068.057.123.126.122l3.388-.005a.124.124 0 0 0 .123-.123zm-4.063.006a.124.124 0 0 0-.123-.123l-3.39.005a.124.124 0 0 0-.124.124l.004 3.082c0 .068.055.122.123.123l3.39-.006a.124.124 0 0 0 .124-.123zm-4.379.007a.124.124 0 0 0-.123-.123l-3.39.005a.124.124 0 0 0-.123.123l.003 3.082c0 .068.055.123.123.123l3.39-.005a.124.124 0 0 0 .124-.123zm26.121-.04a.124.124 0 0 0-.125-.122l-3.388.005a.124.124 0 0 0-.123.123l.003 3.082c0 .068.055.122.123.123l3.389-.005a.124.124 0 0 0 .125-.124zm-4.513.007a.124.124 0 0 0-.123-.123l-3.391.005a.124.124 0 0 0-.123.124l.003 3.082c0 .068.056.122.124.123l3.39-.006a.124.124 0 0 0 .123-.123zm-4.436.007a.124.124 0 0 0-.123-.123l-3.39.005a.124.124 0 0 0-.124.123l.004 3.082c0 .068.055.123.123.123l3.39-.005a.124.124 0 0 0 .124-.123zm-4.402.007a.124.124 0 0 0-.125-.123l-3.389.005a.124.124 0 0 0-.125.123l.004 3.082c0 .069.056.124.125.123l3.388-.005a.124.124 0 0 0 .125-.123zm17.941-.028a.124.124 0 0 0-.123-.122l-3.39.005a.124.124 0 0 0-.124.123l.004 3.082c0 .068.055.123.123.123l3.39-.005a.124.124 0 0 0 .124-.123zm-39.467 2.338a.144.144 0 0 0-.248-.072l-.575.577c-.135.139.072.341.207.203l.576-.577a.14.14 0 0 0 .04-.131m1.153-.478a.796.796 0 0 0-.794-.792.797.797 0 0 0-.792.794c0 .437.358.794.793.793a.796.796 0 0 0 .792-.795zm-.29 0a.5.5 0 0 1-.503.505.5.5 0 0 1-.504-.503c0-.28.223-.505.503-.505a.5.5 0 0 1 .504.503M-57.03 9h-.264l-.033 17.954.265.001zm-.132 0-.032 17.954M-9.477.89c0-.1-.081-.18-.182-.181l-49.677.075a.184.184 0 0 0-.184.182l.06 53.916c0 .1.082.182.183.181l49.678-.075c.1 0 .18-.082.181-.182zm-.365.184.059 53.55-49.313.074-.058-53.55z" style="color:#000;font-style:normal;font-variant:normal;font-weight:400;font-stretch:normal;font-size:medium;line-height:normal;font-family:sans-serif;font-variant-ligatures:normal;font-variant-position:normal;font-variant-caps:normal;font-variant-numeric:normal;font-variant-alternates:normal;font-feature-settings:normal;text-indent:0;text-align:start;text-decoration:none;text-decoration-line:none;text-decoration-style:solid;text-decoration-color:#000;letter-spacing:normal;word-spacing:normal;text-transform:none;writing-mode:lr-tb;direction:ltr;text-orientation:mixed;dominant-baseline:auto;baseline-shift:baseline;text-anchor:start;white-space:normal;shape-padding:0;clip-rule:nonzero;display:inline;overflow:visible;visibility:visible;isolation:auto;mix-blend-mode:normal;color-interpolation:sRGB;color-interpolation-filters:linearRGB;solid-color:#000;solid-opacity:1;vector-effect:none;fill:#000;fill-opacity:1;fill-rule:nonzero;stroke:none;stroke-linecap:butt;stroke-linejoin:round;stroke-miterlimit:4;stroke-dasharray:none;stroke-dashoffset:0;stroke-opacity:1;color-rendering:auto;image-rendering:auto;shape-rendering:auto;text-rendering:auto" transform="matrix(.0015 -.99914 .99914 .0011 5.19 -1.47)"/></g></svg>