<svg xmlns="http://www.w3.org/2000/svg" width="66mm" height="66mm" viewBox="0 0 66 66"><g style="fill:#000;fill-opacity:1;stroke:none"><path d="m27.656 273.918-.002.545 2.485.012.002-.547zm3.576.014-.002.547 3.278.011.004-.545zm4.372.017-.002.547.959.004.002-.547zm-7.948-3.238-.002.547 2.485.01.002-.545zm3.576.016-.002.545 3.278.013.004-.547zm4.372.017-.002.545.959.004.002-.545zm-7.948-3.238-.002.547 2.485.01.002-.547zm3.576.014-.002.546 3.278.014.004-.547zm4.372.017-.002.547.959.004.002-.547zm-7.948-3.236-.002.547 2.485.01.002-.547zm3.576.014-.002.546 3.278.014.004-.547zm4.372.017-.002.547.959.004.002-.547zm-7.948-3.236-.002.545 2.485.01.002-.545zm3.576.014-.002.546 3.278.012.004-.545zm4.372.017-.002.547.959.002.002-.545zm-7.948-3.238-.002.547 2.485.01.002-.547zm3.576.015-.002.545 3.278.014.004-.547zm4.372.018-.002.545.959.004.002-.547zm-7.948-3.238-.002.547 2.485.01.002-.547zm3.576.013-.002.547 3.278.014.004-.547zm4.372.018-.002.547.959.004.002-.547zm-11.44-1.07c-.032 0-.057.041-.058.093v2.447c0 .053.026.096.057.096h1.502c.032 0 .057-.043.057-.096v-2.447c0-.052-.026-.094-.057-.093zm0 3.208c-.032 0-.058.043-.058.096v2.445c0 .053.026.096.057.096h1.502c.032 0 .057-.043.057-.096v-2.445c0-.053-.025-.096-.057-.096zm0 3.211c-.032 0-.058.043-.058.096v2.444c0 .053.026.097.057.096h1.502c.032 0 .057-.043.057-.096v-2.444c0-.053-.025-.096-.057-.096zm0 3.21c-.032 0-.057.042-.058.094v2.447c0 .052.026.094.057.094h1.502c.031 0 .057-.042.057-.094v-2.447c0-.052-.026-.094-.057-.093zm0 3.21c-.032 0-.058.042-.058.095v2.445c0 .053.026.096.057.096h1.502c.032 0 .057-.043.057-.096v-2.445c0-.053-.025-.096-.057-.096zm0 3.21c-.032 0-.058.043-.058.096v2.444c0 .053.026.097.057.096h1.502c.032 0 .057-.043.057-.096v-2.444c0-.053-.025-.096-.057-.096zm0 3.209c-.032 0-.058.042-.058.095v2.445c0 .053.026.096.057.096h1.502c.032 0 .057-.043.057-.096v-2.445c0-.053-.025-.096-.057-.095z" style="color:#000;font-style:normal;font-variant:normal;font-weight:400;font-stretch:normal;font-size:medium;line-height:normal;font-family:sans-serif;font-variant-ligatures:normal;font-variant-position:normal;font-variant-caps:normal;font-variant-numeric:normal;font-variant-alternates:normal;font-feature-settings:normal;text-indent:0;text-align:start;text-decoration:none;text-decoration-line:none;text-decoration-style:solid;text-decoration-color:#000;letter-spacing:normal;word-spacing:normal;text-transform:none;writing-mode:lr-tb;direction:ltr;text-orientation:mixed;dominant-baseline:auto;baseline-shift:baseline;text-anchor:start;white-space:normal;shape-padding:0;clip-rule:nonzero;display:inline;overflow:visible;visibility:visible;opacity:1;isolation:auto;mix-blend-mode:normal;color-interpolation:sRGB;color-interpolation-filters:linearRGB;solid-color:#000;solid-opacity:1;fill:#000;fill-opacity:1;fill-rule:evenodd;stroke:none;stroke-linecap:butt;stroke-linejoin:miter;stroke-miterlimit:4;stroke-dasharray:3.278,1.09267;stroke-dashoffset:.79375;stroke-opacity:1;color-rendering:auto;image-rendering:auto;shape-rendering:auto;text-rendering:auto" transform="matrix(1.63605 0 0 .97183 -16.97 -236.504)"/></g><path d="M19.597 234.146a.09.09 0 0 0-.088.088v30.678a.09.09 0 0 0 .088.088h26.806a.09.09 0 0 0 .088-.088v-30.678a.09.09 0 0 0-.088-.088zm.088.176h26.63v30.502h-26.63z" style="color:#000;font-style:normal;font-variant:normal;font-weight:400;font-stretch:normal;font-size:medium;line-height:normal;font-family:sans-serif;font-variant-ligatures:normal;font-variant-position:normal;font-variant-caps:normal;font-variant-numeric:normal;font-variant-alternates:normal;font-feature-settings:normal;text-indent:0;text-align:start;text-decoration:none;text-decoration-line:none;text-decoration-style:solid;text-decoration-color:#000;letter-spacing:normal;word-spacing:normal;text-transform:none;writing-mode:lr-tb;direction:ltr;text-orientation:mixed;dominant-baseline:auto;baseline-shift:baseline;text-anchor:start;white-space:normal;shape-padding:0;clip-rule:nonzero;display:inline;overflow:visible;visibility:visible;isolation:auto;mix-blend-mode:normal;color-interpolation:sRGB;color-interpolation-filters:linearRGB;solid-color:#000;solid-opacity:1;fill:#000;fill-opacity:1;fill-rule:nonzero;stroke:none;stroke-width:1;stroke-linecap:butt;stroke-linejoin:round;stroke-miterlimit:4;stroke-dasharray:none;stroke-dashoffset:0;stroke-opacity:1;color-rendering:auto;image-rendering:auto;shape-rendering:auto;text-rendering:auto" transform="translate(.913 -223.436)scale(.97234)"/><g style="fill:#000;fill-opacity:1;stroke:none"><path d="m19.61 237.104 26.674.031" style="color:#000;font-style:normal;font-variant:normal;font-weight:400;font-stretch:normal;font-size:medium;line-height:normal;font-family:sans-serif;font-variant-ligatures:normal;font-variant-position:normal;font-variant-caps:normal;font-variant-numeric:normal;font-variant-alternates:normal;font-feature-settings:normal;text-indent:0;text-align:start;text-decoration:none;text-decoration-line:none;text-decoration-style:solid;text-decoration-color:#000;letter-spacing:normal;word-spacing:normal;text-transform:none;writing-mode:lr-tb;direction:ltr;text-orientation:mixed;dominant-baseline:auto;baseline-shift:baseline;text-anchor:start;white-space:normal;shape-padding:0;clip-rule:nonzero;display:inline;overflow:visible;visibility:visible;isolation:auto;mix-blend-mode:normal;color-interpolation:sRGB;color-interpolation-filters:linearRGB;solid-color:#000;solid-opacity:1;fill:#000;fill-opacity:1;fill-rule:evenodd;stroke:none;stroke-width:.25106;stroke-linecap:butt;stroke-linejoin:miter;stroke-miterlimit:4;stroke-dasharray:none;stroke-dashoffset:0;stroke-opacity:1;color-rendering:auto;image-rendering:auto;shape-rendering:auto;text-rendering:auto" transform="translate(.906 -223.29)scale(.97234)"/><path d="M19.61 236.979v.251l26.673.032v-.252z" style="color:#000;font-style:normal;font-variant:normal;font-weight:400;font-stretch:normal;font-size:medium;line-height:normal;font-family:sans-serif;font-variant-ligatures:normal;font-variant-position:normal;font-variant-caps:normal;font-variant-numeric:normal;font-variant-alternates:normal;font-feature-settings:normal;text-indent:0;text-align:start;text-decoration:none;text-decoration-line:none;text-decoration-style:solid;text-decoration-color:#000;letter-spacing:normal;word-spacing:normal;text-transform:none;writing-mode:lr-tb;direction:ltr;text-orientation:mixed;dominant-baseline:auto;baseline-shift:baseline;text-anchor:start;white-space:normal;shape-padding:0;clip-rule:nonzero;display:inline;overflow:visible;visibility:visible;isolation:auto;mix-blend-mode:normal;color-interpolation:sRGB;color-interpolation-filters:linearRGB;solid-color:#000;solid-opacity:1;fill:#000;fill-opacity:1;fill-rule:evenodd;stroke:none;stroke-linecap:butt;stroke-linejoin:miter;stroke-miterlimit:4;stroke-dasharray:none;stroke-dashoffset:0;stroke-opacity:1;color-rendering:auto;image-rendering:auto;shape-rendering:auto;text-rendering:auto" transform="translate(.906 -223.29)scale(.97234)"/></g><g style="fill:#000;fill-opacity:1;stroke:none"><path d="M1.722.272C.92.272.264.928.264 1.728S.92 3.185 1.722 3.185s1.457-.656 1.457-1.457c0-.8-.656-1.456-1.457-1.456m0 .532a.92.92 0 0 1 .926.924.92.92 0 0 1-.926.925.92.92 0 0 1-.926-.925.92.92 0 0 1 .926-.924" style="fill:#000;fill-opacity:1;stroke:none;stroke-width:.264583" transform="matrix(.38161 0 0 .32625 20.964 5.11)"/><path d="M2.596 2.39a.265.265 0 0 0-.132.454l1.058 1.059a.266.266 0 1 0 .372-.38l-1.058-1.06a.27.27 0 0 0-.24-.073" style="fill:#000;fill-opacity:1;stroke:none;stroke-width:.264583" transform="matrix(.38161 0 0 .32625 20.964 5.11)"/></g><path d="M44.278 235.198s-.545.23-1.021.562h-.001v.001a6.4 6.4 0 0 0 1.022.562h1.169v-1.124h-1.169zm.184.196.333.285.333-.285.103.089-.333.284.333.285-.103.088-.333-.284-.333.284-.104-.088.333-.285-.333-.284z" style="color:#000;display:inline;overflow:visible;visibility:visible;fill:#000;fill-opacity:1;fill-rule:nonzero;stroke:none;stroke-width:.0225116;marker:none" transform="translate(.913 -223.436)scale(.97234)"/><path d="m23.92 235.47-.002.546 2.485.01.002-.545zm3.577.014-.003.547 3.278.012.004-.545zm4.37.018-.001.545.959.004.002-.545z" style="color:#000;font-style:normal;font-variant:normal;font-weight:400;font-stretch:normal;font-size:medium;line-height:normal;font-family:sans-serif;font-variant-ligatures:normal;font-variant-position:normal;font-variant-caps:normal;font-variant-numeric:normal;font-variant-alternates:normal;font-feature-settings:normal;text-indent:0;text-align:start;text-decoration:none;text-decoration-line:none;text-decoration-style:solid;text-decoration-color:#000;letter-spacing:normal;word-spacing:normal;text-transform:none;writing-mode:lr-tb;direction:ltr;text-orientation:mixed;dominant-baseline:auto;baseline-shift:baseline;text-anchor:start;white-space:normal;shape-padding:0;clip-rule:nonzero;display:inline;overflow:visible;visibility:visible;isolation:auto;mix-blend-mode:normal;color-interpolation:sRGB;color-interpolation-filters:linearRGB;solid-color:#000;solid-opacity:1;fill:#000;fill-opacity:1;fill-rule:evenodd;stroke:none;stroke-width:1;stroke-linecap:butt;stroke-linejoin:miter;stroke-miterlimit:4;stroke-dasharray:3.278,1.09267;stroke-dashoffset:.79375;stroke-opacity:1;color-rendering:auto;image-rendering:auto;shape-rendering:auto;text-rendering:auto" transform="translate(.913 -223.436)scale(.97234)"/><path d="M.37 231.53a.09.09 0 0 0-.088.087v2.64a.09.09 0 0 0 .088.09h65.258a.09.09 0 0 0 .09-.09v-2.64a.09.09 0 0 0-.09-.088zm.09.177h65.08v2.463H.46Z" style="color:#000;font-style:normal;font-variant:normal;font-weight:400;font-stretch:normal;font-size:medium;line-height:normal;font-family:sans-serif;font-variant-ligatures:normal;font-variant-position:normal;font-variant-caps:normal;font-variant-numeric:normal;font-variant-alternates:normal;font-feature-settings:normal;text-indent:0;text-align:start;text-decoration:none;text-decoration-line:none;text-decoration-style:solid;text-decoration-color:#000;letter-spacing:normal;word-spacing:normal;text-transform:none;writing-mode:lr-tb;direction:ltr;text-orientation:mixed;dominant-baseline:auto;baseline-shift:baseline;text-anchor:start;white-space:normal;shape-padding:0;clip-rule:nonzero;display:inline;overflow:visible;visibility:visible;isolation:auto;mix-blend-mode:normal;color-interpolation:sRGB;color-interpolation-filters:linearRGB;solid-color:#000;solid-opacity:1;fill:#000;fill-opacity:1;fill-rule:nonzero;stroke:none;stroke-width:1;stroke-linecap:butt;stroke-linejoin:round;stroke-miterlimit:4;stroke-dasharray:none;stroke-dashoffset:0;stroke-opacity:1;color-rendering:auto;image-rendering:auto;shape-rendering:auto;text-rendering:auto" transform="translate(0 -231)"/><path d="m55.626 232.549-.002.545 2.484.01.002-.545zm3.576.013-.002.547 3.277.012.004-.545zm4.371.018-.002.547.96.004.001-.547z" style="color:#000;font-style:normal;font-variant:normal;font-weight:400;font-stretch:normal;font-size:medium;line-height:normal;font-family:sans-serif;font-variant-ligatures:normal;font-variant-position:normal;font-variant-caps:normal;font-variant-numeric:normal;font-variant-alternates:normal;font-feature-settings:normal;text-indent:0;text-align:start;text-decoration:none;text-decoration-line:none;text-decoration-style:solid;text-decoration-color:#000;letter-spacing:normal;word-spacing:normal;text-transform:none;writing-mode:lr-tb;direction:ltr;text-orientation:mixed;dominant-baseline:auto;baseline-shift:baseline;text-anchor:start;white-space:normal;shape-padding:0;clip-rule:nonzero;display:inline;overflow:visible;visibility:visible;isolation:auto;mix-blend-mode:normal;color-interpolation:sRGB;color-interpolation-filters:linearRGB;solid-color:#000;solid-opacity:1;fill:#000;fill-opacity:1;fill-rule:evenodd;stroke:none;stroke-width:1;stroke-linecap:butt;stroke-linejoin:miter;stroke-miterlimit:4;stroke-dasharray:3.278,1.09267;stroke-dashoffset:.79375;stroke-opacity:1;color-rendering:auto;image-rendering:auto;shape-rendering:auto;text-rendering:auto" transform="translate(0 -231)"/><path d="m31.995 232.619-.004.402.817.006.004-.402zm1.621.014-.004.402 1.61.016.004-.403zm2.414.021-.004.403.313.004.004-.403z" style="color:#000;font-style:normal;font-variant:normal;font-weight:400;font-stretch:normal;font-size:medium;line-height:normal;font-family:sans-serif;font-variant-ligatures:normal;font-variant-position:normal;font-variant-caps:normal;font-variant-numeric:normal;font-variant-alternates:normal;font-feature-settings:normal;text-indent:0;text-align:start;text-decoration:none;text-decoration-line:none;text-decoration-style:solid;text-decoration-color:#000;letter-spacing:normal;word-spacing:normal;text-transform:none;writing-mode:lr-tb;direction:ltr;text-orientation:mixed;dominant-baseline:auto;baseline-shift:baseline;text-anchor:start;white-space:normal;shape-padding:0;clip-rule:nonzero;display:inline;overflow:visible;visibility:visible;isolation:auto;mix-blend-mode:normal;color-interpolation:sRGB;color-interpolation-filters:linearRGB;solid-color:#000;solid-opacity:1;fill:#000;fill-opacity:1;fill-rule:evenodd;stroke:none;stroke-width:1;stroke-linecap:butt;stroke-linejoin:miter;stroke-miterlimit:4;stroke-dasharray:1.60947,.804735;stroke-dashoffset:.793529;stroke-opacity:1;color-rendering:auto;image-rendering:auto;shape-rendering:auto;text-rendering:auto" transform="translate(0 -231)"/><path d="m3.423 232.662-.004.314 2.603.04.004-.315z" style="color:#000;font-style:normal;font-variant:normal;font-weight:400;font-stretch:normal;font-size:medium;line-height:normal;font-family:sans-serif;font-variant-ligatures:normal;font-variant-position:normal;font-variant-caps:normal;font-variant-numeric:normal;font-variant-alternates:normal;font-feature-settings:normal;text-indent:0;text-align:start;text-decoration:none;text-decoration-line:none;text-decoration-style:solid;text-decoration-color:#000;letter-spacing:normal;word-spacing:normal;text-transform:none;writing-mode:lr-tb;direction:ltr;text-orientation:mixed;dominant-baseline:auto;baseline-shift:baseline;text-anchor:start;white-space:normal;shape-padding:0;clip-rule:nonzero;display:inline;overflow:visible;visibility:visible;isolation:auto;mix-blend-mode:normal;color-interpolation:sRGB;color-interpolation-filters:linearRGB;solid-color:#000;solid-opacity:1;fill:#000;fill-opacity:1;fill-rule:evenodd;stroke:none;stroke-width:1;stroke-linecap:butt;stroke-linejoin:miter;stroke-miterlimit:4;stroke-dasharray:7.5497,7.5497;stroke-dashoffset:.793529;stroke-opacity:1;color-rendering:auto;image-rendering:auto;shape-rendering:auto;text-rendering:auto" transform="translate(0 -231)"/><g style="fill:#000;fill-opacity:1;stroke:none"><path d="M17.337 14.274h29.529c.909 0 1.64.731 1.64 1.64v6.562c0 .909-.731 1.64-1.64 1.64H17.337c-.908 0-1.64-.731-1.64-1.64v-6.562c0-.909.732-1.64 1.64-1.64m22.967 13.123h6.562c.909 0 1.64.732 1.64 1.64v16.406c0 .908-.731 1.64-1.64 1.64h-6.562c-.909 0-1.64-.732-1.64-1.64V29.038c0-.909.731-1.64 1.64-1.64m-22.967-.001h16.405c.909 0 1.64.732 1.64 1.64v16.406c0 .908-.731 1.64-1.64 1.64H17.337c-.908 0-1.64-.732-1.64-1.64V29.038c0-.909.732-1.64 1.64-1.64" style="color:#000;font-style:normal;font-variant:normal;font-weight:400;font-stretch:normal;font-size:medium;line-height:normal;font-family:sans-serif;font-variant-ligatures:normal;font-variant-position:normal;font-variant-caps:normal;font-variant-numeric:normal;font-variant-alternates:normal;font-feature-settings:normal;text-indent:0;text-align:start;text-decoration:none;text-decoration-line:none;text-decoration-style:solid;text-decoration-color:#000;letter-spacing:normal;word-spacing:normal;text-transform:none;writing-mode:lr-tb;direction:ltr;text-orientation:mixed;dominant-baseline:auto;baseline-shift:baseline;text-anchor:start;white-space:normal;shape-padding:0;clip-rule:nonzero;display:inline;overflow:visible;visibility:visible;opacity:1;isolation:auto;mix-blend-mode:normal;color-interpolation:sRGB;color-interpolation-filters:linearRGB;solid-color:#000;solid-opacity:1;fill:#000;fill-opacity:1;fill-rule:nonzero;stroke:none;stroke-width:1.64048;stroke-linecap:butt;stroke-linejoin:miter;stroke-miterlimit:4;stroke-dasharray:none;stroke-dashoffset:0;stroke-opacity:1;color-rendering:auto;image-rendering:auto;shape-rendering:auto;text-rendering:auto" transform="translate(-.12 .114)scale(.05943)"/></g></svg>