<svg xmlns="http://www.w3.org/2000/svg" width="66mm" height="66mm" viewBox="0 0 66 66"><path d="M.63 239.985a.15.15 0 0 0-.146.148v49.748a.15.15 0 0 0 .147.147H46.9a.15.15 0 0 0 .148-.147v-49.748a.15.15 0 0 0-.149-.148zm.15.295h45.974v49.453H.779Z" style="color:#000;font-style:normal;font-variant:normal;font-weight:400;font-stretch:normal;font-size:medium;line-height:normal;font-family:sans-serif;font-variant-ligatures:normal;font-variant-position:normal;font-variant-caps:normal;font-variant-numeric:normal;font-variant-alternates:normal;font-feature-settings:normal;text-indent:0;text-align:start;text-decoration:none;text-decoration-line:none;text-decoration-style:solid;text-decoration-color:#000;letter-spacing:normal;word-spacing:normal;text-transform:none;writing-mode:lr-tb;direction:ltr;text-orientation:mixed;dominant-baseline:auto;baseline-shift:baseline;text-anchor:start;white-space:normal;shape-padding:0;clip-rule:nonzero;display:inline;overflow:visible;visibility:visible;isolation:auto;mix-blend-mode:normal;color-interpolation:sRGB;color-interpolation-filters:linearRGB;solid-color:#000;solid-opacity:1;fill:#000;fill-opacity:1;fill-rule:nonzero;stroke:none;stroke-width:1;stroke-linecap:butt;stroke-linejoin:round;stroke-miterlimit:4;stroke-dasharray:none;stroke-dashoffset:0;stroke-opacity:1;color-rendering:auto;image-rendering:auto;shape-rendering:auto;text-rendering:auto" transform="translate(9.254 -231.779)scale(.99914)"/><path d="m7.597 242.621-.253.002.232 45.569h.254z" style="color:#000;font-style:normal;font-variant:normal;font-weight:400;font-stretch:normal;font-size:medium;line-height:normal;font-family:sans-serif;font-variant-ligatures:normal;font-variant-position:normal;font-variant-caps:normal;font-variant-numeric:normal;font-variant-alternates:normal;font-feature-settings:normal;text-indent:0;text-align:start;text-decoration:none;text-decoration-line:none;text-decoration-style:solid;text-decoration-color:#000;letter-spacing:normal;word-spacing:normal;text-transform:none;writing-mode:lr-tb;direction:ltr;text-orientation:mixed;dominant-baseline:auto;baseline-shift:baseline;text-anchor:start;white-space:normal;shape-padding:0;clip-rule:nonzero;display:inline;overflow:visible;visibility:visible;isolation:auto;mix-blend-mode:normal;color-interpolation:sRGB;color-interpolation-filters:linearRGB;solid-color:#000;solid-opacity:1;fill:#000;fill-opacity:1;fill-rule:evenodd;stroke:none;stroke-width:1;stroke-linecap:butt;stroke-linejoin:miter;stroke-miterlimit:4;stroke-dasharray:none;stroke-dashoffset:0;stroke-opacity:1;color-rendering:auto;image-rendering:auto;shape-rendering:auto;text-rendering:auto" transform="translate(9.254 -231.779)scale(.99914)"/><g style="fill:#000;fill-opacity:1;stroke:none"><path d="m2.07 287.704 5.977.052" style="color:#000;font-style:normal;font-variant:normal;font-weight:400;font-stretch:normal;font-size:medium;line-height:normal;font-family:sans-serif;font-variant-ligatures:normal;font-variant-position:normal;font-variant-caps:normal;font-variant-numeric:normal;font-variant-alternates:normal;font-feature-settings:normal;text-indent:0;text-align:start;text-decoration:none;text-decoration-line:none;text-decoration-style:solid;text-decoration-color:#000;letter-spacing:normal;word-spacing:normal;text-transform:none;writing-mode:lr-tb;direction:ltr;text-orientation:mixed;dominant-baseline:auto;baseline-shift:baseline;text-anchor:start;white-space:normal;shape-padding:0;clip-rule:nonzero;display:inline;overflow:visible;visibility:visible;isolation:auto;mix-blend-mode:normal;color-interpolation:sRGB;color-interpolation-filters:linearRGB;solid-color:#000;solid-opacity:1;fill:#000;fill-opacity:1;fill-rule:evenodd;stroke:none;stroke-width:.153352;stroke-linecap:butt;stroke-linejoin:miter;stroke-miterlimit:4;stroke-dasharray:none;stroke-dashoffset:0;stroke-opacity:1;color-rendering:auto;image-rendering:auto;shape-rendering:auto;text-rendering:auto" transform="translate(9.045 -231.333)scale(.99914)"/><path d="m2.07 287.627-.002.154 5.979.051.002-.152z" style="color:#000;font-style:normal;font-variant:normal;font-weight:400;font-stretch:normal;font-size:medium;line-height:normal;font-family:sans-serif;font-variant-ligatures:normal;font-variant-position:normal;font-variant-caps:normal;font-variant-numeric:normal;font-variant-alternates:normal;font-feature-settings:normal;text-indent:0;text-align:start;text-decoration:none;text-decoration-line:none;text-decoration-style:solid;text-decoration-color:#000;letter-spacing:normal;word-spacing:normal;text-transform:none;writing-mode:lr-tb;direction:ltr;text-orientation:mixed;dominant-baseline:auto;baseline-shift:baseline;text-anchor:start;white-space:normal;shape-padding:0;clip-rule:nonzero;display:inline;overflow:visible;visibility:visible;isolation:auto;mix-blend-mode:normal;color-interpolation:sRGB;color-interpolation-filters:linearRGB;solid-color:#000;solid-opacity:1;fill:#000;fill-opacity:1;fill-rule:evenodd;stroke:none;stroke-linecap:butt;stroke-linejoin:miter;stroke-miterlimit:4;stroke-dasharray:none;stroke-dashoffset:0;stroke-opacity:1;color-rendering:auto;image-rendering:auto;shape-rendering:auto;text-rendering:auto" transform="translate(9.045 -231.333)scale(.99914)"/></g><g style="fill:#000;fill-opacity:1;stroke:none"><path d="m-23.605 258.838-.002.203 10.615.037v-.203Zm.095 3.697-.002.203 10.615.037v-.203zm-.052 3.233v.205l10.613.037.002-.205zm.095 3.156v.203l10.613.037.002-.203zm.004 3.232v.203l10.613.037.002-.203zm-4.52-8.242a.095.095 0 0 0-.095.096v2.443c0 .053.043.096.096.096h2.527a.095.095 0 0 0 .096-.096v-2.443a.095.095 0 0 0-.096-.096zm0 2.93a.095.095 0 0 0-.095.095v2.444c0 .053.043.096.096.095h2.527a.095.095 0 0 0 .096-.095v-2.444a.095.095 0 0 0-.096-.095zm0 3.158a.095.095 0 0 0-.095.094v2.445c0 .052.043.094.096.094h2.527a.095.095 0 0 0 .096-.094v-2.445a.095.095 0 0 0-.096-.094zm0-12.381a.095.095 0 0 0-.095.094v2.445c0 .052.043.094.096.094h2.527a.095.095 0 0 0 .096-.094v-2.445a.095.095 0 0 0-.096-.094zm0 3.174a.095.095 0 0 0-.095.096v2.443c0 .053.043.096.096.096h2.527a.095.095 0 0 0 .096-.096v-2.443a.095.095 0 0 0-.096-.096zm4.281-24.773v.192l10.613.036.002-.191zm.045 3.53-.001.19 10.614.039v-.192zm.052 3.409-.002.19 10.614.036.002-.19zm.094 3.698v.19l10.614.038v-.192zm-.051 3.232v.191l10.614.037v-.19zm.096 3.155-.002.19 10.614.039.002-.192zm.003 3.234v.19l10.614.037v-.19zm0-23.697v.19l10.614.037v-.19zm-4.518 15.454c-.057 0-.102.04-.102.09v2.443c0 .05.045.09.102.09h2.527c.056 0 .102-.04.102-.09v-2.444c0-.05-.046-.09-.102-.09zm0 2.93c-.057 0-.102.04-.102.089v2.444c0 .05.045.09.102.09h2.527c.056 0 .102-.04.102-.09v-2.444c0-.05-.046-.09-.102-.09zm0 3.157c-.057 0-.102.04-.102.09v2.443c0 .05.045.09.102.09h2.527c.056 0 .102-.04.102-.09v-2.444c0-.05-.046-.09-.102-.09zm0-18.833c-.057 0-.102.04-.102.09v2.443c0 .05.045.09.102.09h2.527c.056 0 .102-.04.102-.09v-2.444c0-.05-.046-.09-.102-.09zm0 3.253c-.057 0-.102.04-.102.09v2.443c0 .05.045.09.102.09h2.527c.056 0 .102-.04.102-.09v-2.443c0-.05-.046-.09-.102-.09zm0 3.2c-.056 0-.101.039-.102.088v2.444c0 .049.045.09.102.089h2.527c.056 0 .102-.04.102-.09v-2.443c0-.05-.046-.089-.102-.089zm0 3.174c-.057 0-.102.04-.102.09v2.443c0 .05.045.09.102.09h2.527c.056 0 .102-.04.102-.09v-2.444c0-.05-.046-.09-.102-.09zm0-12.937c-.057 0-.102.04-.102.09v2.443c0 .05.045.09.102.09h2.527c.056 0 .102-.04.102-.09v-2.444c0-.05-.046-.09-.102-.09zm-14.363 4.36-.002.599 3.305.012.001-.599zm4.626.017-.001.598 3.964.015.004-.599zm5.287.019-.001.598.86.003.001-.598zm-9.868 3.658-.003.6 3.304.012.004-.599zm4.627.018-.003.598 3.964.015.004-.6zm5.287.019-.004.598.86.003.004-.598zm-9.862 3.53-.003.6 3.304.012.004-.6zm4.627.016-.003.6 3.966.015.002-.6zm5.287.02-.004.6.86.002.004-.6zm-9.816 3.834-.003.6 3.304.012.003-.6zm4.626.018-.003.598 3.965.015.003-.6zm5.287.02-.003.598.86.003.004-.599zm-9.965 3.346-.003.599 3.304.012.003-.599zm4.625.017-.002.6 3.965.013.003-.599zm5.288.019-.003.6.86.003.002-.6zm-9.817 3.267-.002.599 3.305.011.001-.598zm4.626.016-.003.599 3.966.015.002-.599zm5.287.02-.001.598.858.003.004-.598zm-9.908 3.347-.004.6 3.305.012.003-.6zm4.625.016-.002.6 3.965.015.003-.6zm5.288.02-.003.6.86.002.002-.598zM-42.1 232.74l-.004.598 3.305.014.003-.6zm4.625.016-.002.6 3.965.015.003-.6zm5.288.02-.003.6.86.002.002-.6zm-14.502 16.338c-.057 0-.103.042-.103.094v2.558c0 .051.046.093.103.093h2.566c.057 0 .103-.042.103-.093v-2.558c0-.052-.046-.094-.103-.094zm0 3.066c-.057 0-.103.042-.103.094v2.558c0 .052.046.094.103.093h2.566c.057 0 .103-.041.103-.093v-2.558c0-.052-.046-.094-.103-.094zm0 3.305c-.057 0-.103.041-.103.093v2.558c0 .052.046.094.103.094h2.566c.057 0 .103-.042.103-.094v-2.558c0-.052-.046-.094-.103-.093zm0-19.711c-.057 0-.103.042-.103.094v2.557c0 .052.046.094.103.094h2.566c.057 0 .103-.042.103-.094v-2.557c0-.052-.046-.094-.103-.094zm0 3.405c-.057 0-.103.042-.103.094v2.557c0 .052.046.094.103.094h2.566c.057 0 .103-.042.103-.094v-2.557c0-.052-.046-.094-.103-.094zm0 3.348c-.056 0-.102.041-.103.093v2.557c0 .052.046.094.103.094h2.566c.057 0 .103-.042.103-.094v-2.557c0-.052-.047-.093-.103-.093zm0 3.323c-.057 0-.103.042-.103.093v2.558c0 .052.046.094.103.094h2.566c.057 0 .103-.042.103-.094v-2.558c0-.051-.046-.093-.103-.093zm0-13.54c-.057 0-.103.042-.103.093v2.558c0 .052.046.094.103.094h2.566c.057 0 .103-.042.103-.094v-2.558c0-.051-.046-.093-.103-.093z" style="color:#000;font-style:normal;font-variant:normal;font-weight:400;font-stretch:normal;font-size:medium;line-height:normal;font-family:sans-serif;font-variant-ligatures:normal;font-variant-position:normal;font-variant-caps:normal;font-variant-numeric:normal;font-variant-alternates:normal;font-feature-settings:normal;text-indent:0;text-align:start;text-decoration:none;text-decoration-line:none;text-decoration-style:solid;text-decoration-color:#000;letter-spacing:normal;word-spacing:normal;text-transform:none;writing-mode:lr-tb;direction:ltr;text-orientation:mixed;dominant-baseline:auto;baseline-shift:baseline;text-anchor:start;white-space:normal;shape-padding:0;clip-rule:nonzero;display:inline;overflow:visible;visibility:visible;opacity:1;isolation:auto;mix-blend-mode:normal;color-interpolation:sRGB;color-interpolation-filters:linearRGB;solid-color:#000;solid-opacity:1;fill:#000;fill-opacity:1;fill-rule:evenodd;stroke:none;stroke-linecap:butt;stroke-linejoin:miter;stroke-miterlimit:4;stroke-dasharray:none;stroke-dashoffset:.264583;stroke-opacity:1;color-rendering:auto;image-rendering:auto;shape-rendering:auto;text-rendering:auto" transform="translate(65.933 -217.047)scale(.99914)"/></g><path d="m1.775 242.621-.252.002.233 45.569h.254z" style="color:#000;font-style:normal;font-variant:normal;font-weight:400;font-stretch:normal;font-size:medium;line-height:normal;font-family:sans-serif;font-variant-ligatures:normal;font-variant-position:normal;font-variant-caps:normal;font-variant-numeric:normal;font-variant-alternates:normal;font-feature-settings:normal;text-indent:0;text-align:start;text-decoration:none;text-decoration-line:none;text-decoration-style:solid;text-decoration-color:#000;letter-spacing:normal;word-spacing:normal;text-transform:none;writing-mode:lr-tb;direction:ltr;text-orientation:mixed;dominant-baseline:auto;baseline-shift:baseline;text-anchor:start;white-space:normal;shape-padding:0;clip-rule:nonzero;display:inline;overflow:visible;visibility:visible;isolation:auto;mix-blend-mode:normal;color-interpolation:sRGB;color-interpolation-filters:linearRGB;solid-color:#000;solid-opacity:1;fill:#000;fill-opacity:1;fill-rule:evenodd;stroke:none;stroke-width:1;stroke-linecap:butt;stroke-linejoin:miter;stroke-miterlimit:4;stroke-dasharray:none;stroke-dashoffset:0;stroke-opacity:1;color-rendering:auto;image-rendering:auto;shape-rendering:auto;text-rendering:auto" transform="translate(9.254 -231.779)scale(.99914)"/><g style="fill:#000;fill-opacity:1;stroke:none"><path d="m1.824 242.177 5.908.052" style="color:#000;font-style:normal;font-variant:normal;font-weight:400;font-stretch:normal;font-size:medium;line-height:normal;font-family:sans-serif;font-variant-ligatures:normal;font-variant-position:normal;font-variant-caps:normal;font-variant-numeric:normal;font-variant-alternates:normal;font-feature-settings:normal;text-indent:0;text-align:start;text-decoration:none;text-decoration-line:none;text-decoration-style:solid;text-decoration-color:#000;letter-spacing:normal;word-spacing:normal;text-transform:none;writing-mode:lr-tb;direction:ltr;text-orientation:mixed;dominant-baseline:auto;baseline-shift:baseline;text-anchor:start;white-space:normal;shape-padding:0;clip-rule:nonzero;display:inline;overflow:visible;visibility:visible;isolation:auto;mix-blend-mode:normal;color-interpolation:sRGB;color-interpolation-filters:linearRGB;solid-color:#000;solid-opacity:1;fill:#000;fill-opacity:1;fill-rule:evenodd;stroke:none;stroke-width:.153091;stroke-linecap:butt;stroke-linejoin:miter;stroke-miterlimit:4;stroke-dasharray:none;stroke-dashoffset:0;stroke-opacity:1;color-rendering:auto;image-rendering:auto;shape-rendering:auto;text-rendering:auto" transform="translate(9.045 -231.333)scale(.99914)"/><path d="m1.824 242.102-.002.152 5.908.05.002-.152z" style="color:#000;font-style:normal;font-variant:normal;font-weight:400;font-stretch:normal;font-size:medium;line-height:normal;font-family:sans-serif;font-variant-ligatures:normal;font-variant-position:normal;font-variant-caps:normal;font-variant-numeric:normal;font-variant-alternates:normal;font-feature-settings:normal;text-indent:0;text-align:start;text-decoration:none;text-decoration-line:none;text-decoration-style:solid;text-decoration-color:#000;letter-spacing:normal;word-spacing:normal;text-transform:none;writing-mode:lr-tb;direction:ltr;text-orientation:mixed;dominant-baseline:auto;baseline-shift:baseline;text-anchor:start;white-space:normal;shape-padding:0;clip-rule:nonzero;display:inline;overflow:visible;visibility:visible;isolation:auto;mix-blend-mode:normal;color-interpolation:sRGB;color-interpolation-filters:linearRGB;solid-color:#000;solid-opacity:1;fill:#000;fill-opacity:1;fill-rule:evenodd;stroke:none;stroke-linecap:butt;stroke-linejoin:miter;stroke-miterlimit:4;stroke-dasharray:none;stroke-dashoffset:0;stroke-opacity:1;color-rendering:auto;image-rendering:auto;shape-rendering:auto;text-rendering:auto" transform="translate(9.045 -231.333)scale(.99914)"/></g><g style="fill:#000;fill-opacity:1;stroke:none"><path d="M2.854 266.264a.15.15 0 0 0-.15.152v3.938c0 .082.067.15.15.15h3.95c.084 0 .15-.068.151-.15v-3.938a.15.15 0 0 0-.15-.152z" style="color:#000;font-style:normal;font-variant:normal;font-weight:400;font-stretch:normal;font-size:medium;line-height:normal;font-family:sans-serif;font-variant-ligatures:normal;font-variant-position:normal;font-variant-caps:normal;font-variant-numeric:normal;font-variant-alternates:normal;font-feature-settings:normal;text-indent:0;text-align:start;text-decoration:none;text-decoration-line:none;text-decoration-style:solid;text-decoration-color:#000;letter-spacing:normal;word-spacing:normal;text-transform:none;writing-mode:lr-tb;direction:ltr;text-orientation:mixed;dominant-baseline:auto;baseline-shift:baseline;text-anchor:start;white-space:normal;shape-padding:0;clip-rule:nonzero;display:inline;overflow:visible;visibility:visible;isolation:auto;mix-blend-mode:normal;color-interpolation:sRGB;color-interpolation-filters:linearRGB;solid-color:#000;solid-opacity:1;fill:#000;fill-opacity:1;fill-rule:nonzero;stroke:none;stroke-linecap:butt;stroke-linejoin:round;stroke-miterlimit:4;stroke-dasharray:none;stroke-dashoffset:0;stroke-opacity:1;color-rendering:auto;image-rendering:auto;shape-rendering:auto;text-rendering:auto" transform="translate(9.045 -231.333)scale(.99914)"/></g><g style="fill:#000;fill-opacity:1;stroke:none"><g style="opacity:1;fill:#000;fill-opacity:1;stroke:none"><path d="M2.854 250.75a.15.15 0 0 0-.15.152v3.938a.15.15 0 0 0 .15.152h3.95a.15.15 0 0 0 .151-.152v-3.938a.15.15 0 0 0-.15-.152zm0 5.244a.15.15 0 0 0-.15.15v3.94c0 .083.067.15.15.15h3.95a.15.15 0 0 0 .151-.15v-3.94a.15.15 0 0 0-.15-.15zm0 5.154a.15.15 0 0 0-.15.15v3.938a.15.15 0 0 0 .15.153h3.95a.15.15 0 0 0 .151-.153V261.3a.15.15 0 0 0-.15-.15zm0-15.73a.15.15 0 0 0-.15.15v3.94c0 .083.067.15.15.15h3.95a.15.15 0 0 0 .151-.15v-3.94a.15.15 0 0 0-.15-.15z" style="color:#000;font-style:normal;font-variant:normal;font-weight:400;font-stretch:normal;font-size:medium;line-height:normal;font-family:sans-serif;font-variant-ligatures:normal;font-variant-position:normal;font-variant-caps:normal;font-variant-numeric:normal;font-variant-alternates:normal;font-feature-settings:normal;text-indent:0;text-align:start;text-decoration:none;text-decoration-line:none;text-decoration-style:solid;text-decoration-color:#000;letter-spacing:normal;word-spacing:normal;text-transform:none;writing-mode:lr-tb;direction:ltr;text-orientation:mixed;dominant-baseline:auto;baseline-shift:baseline;text-anchor:start;white-space:normal;shape-padding:0;clip-rule:nonzero;display:inline;overflow:visible;visibility:visible;isolation:auto;mix-blend-mode:normal;color-interpolation:sRGB;color-interpolation-filters:linearRGB;solid-color:#000;solid-opacity:1;fill:#000;fill-opacity:1;fill-rule:nonzero;stroke:none;stroke-linecap:butt;stroke-linejoin:round;stroke-miterlimit:4;stroke-dasharray:none;stroke-dashoffset:0;stroke-opacity:1;color-rendering:auto;image-rendering:auto;shape-rendering:auto;text-rendering:auto" transform="translate(9.045 -233.977)scale(.99914)"/></g></g><g style="fill:#000;fill-opacity:1;stroke:none"><g style="opacity:1;fill:#000;fill-opacity:1;stroke:none"><path d="M2.854 271.291a.15.15 0 0 0-.15.15v3.94c0 .083.067.15.15.15h3.95a.15.15 0 0 0 .151-.15v-3.94a.15.15 0 0 0-.15-.15zm0 4.72a.15.15 0 0 0-.15.151v3.94c0 .082.067.15.15.15h3.95c.084 0 .15-.068.151-.15v-3.94a.15.15 0 0 0-.15-.15zm0 5.089a.15.15 0 0 0-.15.15v3.938a.15.15 0 0 0 .15.152h3.95a.15.15 0 0 0 .151-.152v-3.938a.15.15 0 0 0-.15-.15z" style="color:#000;font-style:normal;font-variant:normal;font-weight:400;font-stretch:normal;font-size:medium;line-height:normal;font-family:sans-serif;font-variant-ligatures:normal;font-variant-position:normal;font-variant-caps:normal;font-variant-numeric:normal;font-variant-alternates:normal;font-feature-settings:normal;text-indent:0;text-align:start;text-decoration:none;text-decoration-line:none;text-decoration-style:solid;text-decoration-color:#000;letter-spacing:normal;word-spacing:normal;text-transform:none;writing-mode:lr-tb;direction:ltr;text-orientation:mixed;dominant-baseline:auto;baseline-shift:baseline;text-anchor:start;white-space:normal;shape-padding:0;clip-rule:nonzero;display:inline;overflow:visible;visibility:visible;isolation:auto;mix-blend-mode:normal;color-interpolation:sRGB;color-interpolation-filters:linearRGB;solid-color:#000;solid-opacity:1;fill:#000;fill-opacity:1;fill-rule:nonzero;stroke:none;stroke-linecap:butt;stroke-linejoin:round;stroke-miterlimit:4;stroke-dasharray:none;stroke-dashoffset:0;stroke-opacity:1;color-rendering:auto;image-rendering:auto;shape-rendering:auto;text-rendering:auto" transform="translate(9.045 -229.503)scale(.99914)"/></g></g><g style="fill:#000;fill-opacity:1;stroke:none"><g style="fill:#000;fill-opacity:1;stroke:none"><path d="M1.722.272C.92.272.264.928.264 1.728S.92 3.185 1.722 3.185s1.457-.656 1.457-1.457c0-.8-.656-1.456-1.457-1.456m0 .532a.92.92 0 0 1 .926.924.92.92 0 0 1-.926.925.92.92 0 0 1-.926-.925.92.92 0 0 1 .926-.924" style="fill:#000;fill-opacity:1;stroke:none;stroke-width:.264583" transform="translate(50.932 11.37)scale(.46724)"/><path d="M2.596 2.39a.265.265 0 0 0-.132.454l1.058 1.059a.266.266 0 1 0 .372-.38l-1.058-1.06a.27.27 0 0 0-.24-.073" style="fill:#000;fill-opacity:1;stroke:none;stroke-width:.264583" transform="translate(50.932 11.37)scale(.46724)"/></g><g style="fill:#000;fill-opacity:1;stroke:none"><g style="opacity:1;fill:#000;fill-opacity:1;stroke:none"><path d="m9.74 253.177 40.783.05" style="color:#000;font-style:normal;font-variant:normal;font-weight:400;font-stretch:normal;font-size:medium;line-height:normal;font-family:sans-serif;font-variant-ligatures:normal;font-variant-position:normal;font-variant-caps:normal;font-variant-numeric:normal;font-variant-alternates:normal;font-feature-settings:normal;text-indent:0;text-align:start;text-decoration:none;text-decoration-line:none;text-decoration-style:solid;text-decoration-color:#000;letter-spacing:normal;word-spacing:normal;text-transform:none;writing-mode:lr-tb;direction:ltr;text-orientation:mixed;dominant-baseline:auto;baseline-shift:baseline;text-anchor:start;white-space:normal;shape-padding:0;clip-rule:nonzero;display:inline;overflow:visible;visibility:visible;isolation:auto;mix-blend-mode:normal;color-interpolation:sRGB;color-interpolation-filters:linearRGB;solid-color:#000;solid-opacity:1;fill:#000;fill-opacity:1;fill-rule:evenodd;stroke:none;stroke-width:.133189;stroke-linecap:butt;stroke-linejoin:miter;stroke-miterlimit:4;stroke-dasharray:none;stroke-dashoffset:0;stroke-opacity:1;color-rendering:auto;image-rendering:auto;shape-rendering:auto;text-rendering:auto" transform="matrix(.8337 0 0 .87034 11.133 -206.82)"/><path d="M9.74 253.111v.133l40.783.05v-.134z" style="color:#000;font-style:normal;font-variant:normal;font-weight:400;font-stretch:normal;font-size:medium;line-height:normal;font-family:sans-serif;font-variant-ligatures:normal;font-variant-position:normal;font-variant-caps:normal;font-variant-numeric:normal;font-variant-alternates:normal;font-feature-settings:normal;text-indent:0;text-align:start;text-decoration:none;text-decoration-line:none;text-decoration-style:solid;text-decoration-color:#000;letter-spacing:normal;word-spacing:normal;text-transform:none;writing-mode:lr-tb;direction:ltr;text-orientation:mixed;dominant-baseline:auto;baseline-shift:baseline;text-anchor:start;white-space:normal;shape-padding:0;clip-rule:nonzero;display:inline;overflow:visible;visibility:visible;isolation:auto;mix-blend-mode:normal;color-interpolation:sRGB;color-interpolation-filters:linearRGB;solid-color:#000;solid-opacity:1;fill:#000;fill-opacity:1;fill-rule:evenodd;stroke:none;stroke-linecap:butt;stroke-linejoin:miter;stroke-miterlimit:4;stroke-dasharray:none;stroke-dashoffset:0;stroke-opacity:1;color-rendering:auto;image-rendering:auto;shape-rendering:auto;text-rendering:auto" transform="matrix(.8337 0 0 .87034 11.133 -206.82)"/></g><g style="opacity:1;fill:#000;fill-opacity:1;stroke:none"><path d="m9.812 250.532 40.71.05" style="color:#000;font-style:normal;font-variant:normal;font-weight:400;font-stretch:normal;font-size:medium;line-height:normal;font-family:sans-serif;font-variant-ligatures:normal;font-variant-position:normal;font-variant-caps:normal;font-variant-numeric:normal;font-variant-alternates:normal;font-feature-settings:normal;text-indent:0;text-align:start;text-decoration:none;text-decoration-line:none;text-decoration-style:solid;text-decoration-color:#000;letter-spacing:normal;word-spacing:normal;text-transform:none;writing-mode:lr-tb;direction:ltr;text-orientation:mixed;dominant-baseline:auto;baseline-shift:baseline;text-anchor:start;white-space:normal;shape-padding:0;clip-rule:nonzero;display:inline;overflow:visible;visibility:visible;isolation:auto;mix-blend-mode:normal;color-interpolation:sRGB;color-interpolation-filters:linearRGB;solid-color:#000;solid-opacity:1;fill:#000;fill-opacity:1;fill-rule:evenodd;stroke:none;stroke-width:.132662;stroke-linecap:butt;stroke-linejoin:miter;stroke-miterlimit:4;stroke-dasharray:none;stroke-dashoffset:0;stroke-opacity:1;color-rendering:auto;image-rendering:auto;shape-rendering:auto;text-rendering:auto" transform="matrix(.8337 0 0 .87034 11.133 -206.82)"/><path d="M9.813 250.465v.133l40.71.05v-.132z" style="color:#000;font-style:normal;font-variant:normal;font-weight:400;font-stretch:normal;font-size:medium;line-height:normal;font-family:sans-serif;font-variant-ligatures:normal;font-variant-position:normal;font-variant-caps:normal;font-variant-numeric:normal;font-variant-alternates:normal;font-feature-settings:normal;text-indent:0;text-align:start;text-decoration:none;text-decoration-line:none;text-decoration-style:solid;text-decoration-color:#000;letter-spacing:normal;word-spacing:normal;text-transform:none;writing-mode:lr-tb;direction:ltr;text-orientation:mixed;dominant-baseline:auto;baseline-shift:baseline;text-anchor:start;white-space:normal;shape-padding:0;clip-rule:nonzero;display:inline;overflow:visible;visibility:visible;isolation:auto;mix-blend-mode:normal;color-interpolation:sRGB;color-interpolation-filters:linearRGB;solid-color:#000;solid-opacity:1;fill:#000;fill-opacity:1;fill-rule:evenodd;stroke:none;stroke-linecap:butt;stroke-linejoin:miter;stroke-miterlimit:4;stroke-dasharray:none;stroke-dashoffset:0;stroke-opacity:1;color-rendering:auto;image-rendering:auto;shape-rendering:auto;text-rendering:auto" transform="matrix(.8337 0 0 .87034 11.133 -206.82)"/></g><g style="opacity:1;fill:#000;fill-opacity:1;stroke:none"><path d="m50.568 250.52-.046 2.707" style="color:#000;font-style:normal;font-variant:normal;font-weight:400;font-stretch:normal;font-size:medium;line-height:normal;font-family:sans-serif;font-variant-ligatures:normal;font-variant-position:normal;font-variant-caps:normal;font-variant-numeric:normal;font-variant-alternates:normal;font-feature-settings:normal;text-indent:0;text-align:start;text-decoration:none;text-decoration-line:none;text-decoration-style:solid;text-decoration-color:#000;letter-spacing:normal;word-spacing:normal;text-transform:none;writing-mode:lr-tb;direction:ltr;text-orientation:mixed;dominant-baseline:auto;baseline-shift:baseline;text-anchor:start;white-space:normal;shape-padding:0;clip-rule:nonzero;display:inline;overflow:visible;visibility:visible;isolation:auto;mix-blend-mode:normal;color-interpolation:sRGB;color-interpolation-filters:linearRGB;solid-color:#000;solid-opacity:1;fill:#000;fill-opacity:1;fill-rule:evenodd;stroke:none;stroke-width:.103723;stroke-linecap:butt;stroke-linejoin:miter;stroke-miterlimit:4;stroke-dasharray:none;stroke-dashoffset:0;stroke-opacity:1;color-rendering:auto;image-rendering:auto;shape-rendering:auto;text-rendering:auto" transform="matrix(.8337 0 0 .87034 11.133 -206.82)"/><path d="m50.516 250.52-.045 2.707.103.002.045-2.71z" style="color:#000;font-style:normal;font-variant:normal;font-weight:400;font-stretch:normal;font-size:medium;line-height:normal;font-family:sans-serif;font-variant-ligatures:normal;font-variant-position:normal;font-variant-caps:normal;font-variant-numeric:normal;font-variant-alternates:normal;font-feature-settings:normal;text-indent:0;text-align:start;text-decoration:none;text-decoration-line:none;text-decoration-style:solid;text-decoration-color:#000;letter-spacing:normal;word-spacing:normal;text-transform:none;writing-mode:lr-tb;direction:ltr;text-orientation:mixed;dominant-baseline:auto;baseline-shift:baseline;text-anchor:start;white-space:normal;shape-padding:0;clip-rule:nonzero;display:inline;overflow:visible;visibility:visible;isolation:auto;mix-blend-mode:normal;color-interpolation:sRGB;color-interpolation-filters:linearRGB;solid-color:#000;solid-opacity:1;fill:#000;fill-opacity:1;fill-rule:evenodd;stroke:none;stroke-linecap:butt;stroke-linejoin:miter;stroke-miterlimit:4;stroke-dasharray:none;stroke-dashoffset:0;stroke-opacity:1;color-rendering:auto;image-rendering:auto;shape-rendering:auto;text-rendering:auto" transform="matrix(.8337 0 0 .87034 11.133 -206.82)"/></g><g style="opacity:1;fill:#000;fill-opacity:1;stroke:none"><path d="m9.822 250.52-.046 2.707" style="color:#000;font-style:normal;font-variant:normal;font-weight:400;font-stretch:normal;font-size:medium;line-height:normal;font-family:sans-serif;font-variant-ligatures:normal;font-variant-position:normal;font-variant-caps:normal;font-variant-numeric:normal;font-variant-alternates:normal;font-feature-settings:normal;text-indent:0;text-align:start;text-decoration:none;text-decoration-line:none;text-decoration-style:solid;text-decoration-color:#000;letter-spacing:normal;word-spacing:normal;text-transform:none;writing-mode:lr-tb;direction:ltr;text-orientation:mixed;dominant-baseline:auto;baseline-shift:baseline;text-anchor:start;white-space:normal;shape-padding:0;clip-rule:nonzero;display:inline;overflow:visible;visibility:visible;isolation:auto;mix-blend-mode:normal;color-interpolation:sRGB;color-interpolation-filters:linearRGB;solid-color:#000;solid-opacity:1;fill:#000;fill-opacity:1;fill-rule:evenodd;stroke:none;stroke-width:.103723;stroke-linecap:butt;stroke-linejoin:miter;stroke-miterlimit:4;stroke-dasharray:none;stroke-dashoffset:0;stroke-opacity:1;color-rendering:auto;image-rendering:auto;shape-rendering:auto;text-rendering:auto" transform="matrix(.8337 0 0 .87034 11.133 -206.82)"/><path d="m9.77 250.52-.045 2.707.103.002.045-2.71z" style="color:#000;font-style:normal;font-variant:normal;font-weight:400;font-stretch:normal;font-size:medium;line-height:normal;font-family:sans-serif;font-variant-ligatures:normal;font-variant-position:normal;font-variant-caps:normal;font-variant-numeric:normal;font-variant-alternates:normal;font-feature-settings:normal;text-indent:0;text-align:start;text-decoration:none;text-decoration-line:none;text-decoration-style:solid;text-decoration-color:#000;letter-spacing:normal;word-spacing:normal;text-transform:none;writing-mode:lr-tb;direction:ltr;text-orientation:mixed;dominant-baseline:auto;baseline-shift:baseline;text-anchor:start;white-space:normal;shape-padding:0;clip-rule:nonzero;display:inline;overflow:visible;visibility:visible;isolation:auto;mix-blend-mode:normal;color-interpolation:sRGB;color-interpolation-filters:linearRGB;solid-color:#000;solid-opacity:1;fill:#000;fill-opacity:1;fill-rule:evenodd;stroke:none;stroke-linecap:butt;stroke-linejoin:miter;stroke-miterlimit:4;stroke-dasharray:none;stroke-dashoffset:0;stroke-opacity:1;color-rendering:auto;image-rendering:auto;shape-rendering:auto;text-rendering:auto" transform="matrix(.8337 0 0 .87034 11.133 -206.82)"/></g></g></g></svg>