<svg xmlns="http://www.w3.org/2000/svg" width="66mm" height="66mm" viewBox="0 0 66 66"><path d="M6.904 239a.157.157 0 0 0-.156.158v49.686a.157.157 0 0 0 .156.156h52.192a.157.157 0 0 0 .156-.156v-49.686a.157.157 0 0 0-.156-.158Zm.156.314h51.878v49.374H7.06Z" style="color:#000;font-style:normal;font-variant:normal;font-weight:400;font-stretch:normal;font-size:medium;line-height:normal;font-family:sans-serif;font-variant-ligatures:normal;font-variant-position:normal;font-variant-caps:normal;font-variant-numeric:normal;font-variant-alternates:normal;font-feature-settings:normal;text-indent:0;text-align:start;text-decoration:none;text-decoration-line:none;text-decoration-style:solid;text-decoration-color:#000;letter-spacing:normal;word-spacing:normal;text-transform:none;writing-mode:lr-tb;direction:ltr;text-orientation:mixed;dominant-baseline:auto;baseline-shift:baseline;text-anchor:start;white-space:normal;shape-padding:0;clip-rule:nonzero;display:inline;overflow:visible;visibility:visible;isolation:auto;mix-blend-mode:normal;color-interpolation:sRGB;color-interpolation-filters:linearRGB;solid-color:#000;solid-opacity:1;fill:#000;fill-opacity:1;fill-rule:nonzero;stroke:none;stroke-width:.999141;stroke-linecap:butt;stroke-linejoin:round;stroke-miterlimit:4;stroke-dasharray:none;stroke-dashoffset:0;stroke-opacity:1;color-rendering:auto;image-rendering:auto;shape-rendering:auto;text-rendering:auto" transform="translate(0 -231)"/><path d="m40.053 239.19.232 49.62.265-.002-.234-49.618z" style="color:#000;font-style:normal;font-variant:normal;font-weight:400;font-stretch:normal;font-size:medium;line-height:normal;font-family:sans-serif;font-variant-ligatures:normal;font-variant-position:normal;font-variant-caps:normal;font-variant-numeric:normal;font-variant-alternates:normal;font-feature-settings:normal;text-indent:0;text-align:start;text-decoration:none;text-decoration-line:none;text-decoration-style:solid;text-decoration-color:#000;letter-spacing:normal;word-spacing:normal;text-transform:none;writing-mode:lr-tb;direction:ltr;text-orientation:mixed;dominant-baseline:auto;baseline-shift:baseline;text-anchor:start;white-space:normal;shape-padding:0;clip-rule:nonzero;display:inline;overflow:visible;visibility:visible;isolation:auto;mix-blend-mode:normal;color-interpolation:sRGB;color-interpolation-filters:linearRGB;solid-color:#000;solid-opacity:1;fill:#000;fill-opacity:1;fill-rule:evenodd;stroke:none;stroke-width:.999141;stroke-linecap:butt;stroke-linejoin:miter;stroke-miterlimit:4;stroke-dasharray:none;stroke-dashoffset:0;stroke-opacity:1;color-rendering:auto;image-rendering:auto;shape-rendering:auto;text-rendering:auto" transform="translate(0 -231)"/><path d="M47.156 242.284a3 3 0 0 1-.33.398c-.201.199-.472.436-.472.436s-.286-.233-.473-.435a3 3 0 0 1-.33-.398l-.014.005q-.383.145-.675.385v.75h2.982v-.75a2.4 2.4 0 0 0-.671-.385z" style="font-style:normal;font-variant:normal;font-weight:400;font-stretch:normal;font-size:15.003px;line-height:125%;font-family:Ubuntu;-inkscape-font-specification:Ubuntu;text-align:center;letter-spacing:0;word-spacing:0;writing-mode:lr-tb;text-anchor:middle;fill:#000;fill-opacity:1;stroke:none;stroke-width:.0382237;stroke-opacity:1" transform="translate(-23.517 -371.033)scale(1.58347)"/><path d="M46.353 240.445c-.236 0-.464.1-.631.275a.97.97 0 0 0-.262.665.9.9 0 0 0 .055.318c.117.291.293.517.454.692q.068.076.146.152h.47q.079-.076.153-.153h-.001c.16-.174.337-.4.455-.691a.8.8 0 0 0 .054-.317v-.001a.97.97 0 0 0-.262-.665.87.87 0 0 0-.63-.275z" style="font-style:normal;font-variant:normal;font-weight:400;font-stretch:normal;font-size:121.63px;line-height:125%;font-family:Ubuntu;-inkscape-font-specification:Ubuntu;text-align:center;letter-spacing:0;word-spacing:0;writing-mode:lr-tb;text-anchor:middle;fill:#000;fill-opacity:1;stroke:none;stroke-width:.0382237;stroke-opacity:1" transform="translate(-23.517 -371.033)scale(1.58347)"/><path d="M55.753 284.167a1.41 1.41 0 0 0-1.409 1.408 1.41 1.41 0 0 0 1.41 1.41 1.41 1.41 0 0 0 1.408-1.41 1.41 1.41 0 0 0-1.409-1.408m0 .265c.634 0 1.144.51 1.144 1.143 0 .634-.51 1.144-1.144 1.144a1.143 1.143 0 1 1 0-2.287" style="color:#000;font-style:normal;font-variant:normal;font-weight:400;font-stretch:normal;font-size:medium;line-height:normal;font-family:sans-serif;font-variant-ligatures:normal;font-variant-position:normal;font-variant-caps:normal;font-variant-numeric:normal;font-variant-alternates:normal;font-feature-settings:normal;text-indent:0;text-align:start;text-decoration:none;text-decoration-line:none;text-decoration-style:solid;text-decoration-color:#000;letter-spacing:normal;word-spacing:normal;text-transform:none;writing-mode:lr-tb;direction:ltr;text-orientation:mixed;dominant-baseline:auto;baseline-shift:baseline;text-anchor:start;white-space:normal;shape-padding:0;clip-rule:nonzero;display:inline;overflow:visible;visibility:visible;isolation:auto;mix-blend-mode:normal;color-interpolation:sRGB;color-interpolation-filters:linearRGB;solid-color:#000;solid-opacity:1;fill:#000;fill-opacity:1;fill-rule:nonzero;stroke:none;stroke-width:.999141;stroke-linecap:butt;stroke-linejoin:round;stroke-miterlimit:4;stroke-dasharray:none;stroke-dashoffset:0;stroke-opacity:1;color-rendering:auto;image-rendering:auto;shape-rendering:auto;text-rendering:auto" transform="translate(-5.87 -230.434)"/><path d="m55.686 284.728.133-.023v.736h-.133z" style="color:#000;display:inline;overflow:visible;visibility:visible;fill:#000;fill-opacity:1;stroke:none;stroke-width:.200754;marker:none" transform="translate(-5.87 -230.434)"/><path d="M55.384 284.938a.737.737 0 1 0 .737 0l-.067.116a.602.602 0 1 1-.603 0z" style="color:#000;font-style:normal;font-variant:normal;font-weight:400;font-stretch:normal;font-size:medium;line-height:normal;font-family:sans-serif;font-variant-ligatures:normal;font-variant-position:normal;font-variant-caps:normal;font-variant-numeric:normal;font-variant-alternates:normal;font-feature-settings:normal;text-indent:0;text-align:start;text-decoration:none;text-decoration-line:none;text-decoration-style:solid;text-decoration-color:#000;letter-spacing:normal;word-spacing:normal;text-transform:none;writing-mode:lr-tb;direction:ltr;text-orientation:mixed;dominant-baseline:auto;baseline-shift:baseline;text-anchor:start;white-space:normal;shape-padding:0;clip-rule:nonzero;display:inline;overflow:visible;visibility:visible;isolation:auto;mix-blend-mode:normal;color-interpolation:sRGB;color-interpolation-filters:linearRGB;solid-color:#000;solid-opacity:1;fill:#000;fill-opacity:1;fill-rule:nonzero;stroke:none;stroke-width:.0843062;stroke-linecap:butt;stroke-linejoin:round;stroke-miterlimit:4;stroke-dasharray:none;stroke-dashoffset:0;stroke-opacity:1;marker:none;color-rendering:auto;image-rendering:auto;shape-rendering:auto;text-rendering:auto" transform="translate(-5.87 -230.434)"/><path d="m45.816 247.059-.003.263 8.136.053.003-.263z" style="color:#000;font-style:normal;font-variant:normal;font-weight:400;font-stretch:normal;font-size:medium;line-height:normal;font-family:sans-serif;font-variant-ligatures:normal;font-variant-position:normal;font-variant-caps:normal;font-variant-numeric:normal;font-variant-alternates:normal;font-feature-settings:normal;text-indent:0;text-align:start;text-decoration:none;text-decoration-line:none;text-decoration-style:solid;text-decoration-color:#000;letter-spacing:normal;word-spacing:normal;text-transform:none;writing-mode:lr-tb;direction:ltr;text-orientation:mixed;dominant-baseline:auto;baseline-shift:baseline;text-anchor:start;white-space:normal;shape-padding:0;clip-rule:nonzero;display:inline;overflow:visible;visibility:visible;isolation:auto;mix-blend-mode:normal;color-interpolation:sRGB;color-interpolation-filters:linearRGB;solid-color:#000;solid-opacity:1;fill:#000;fill-opacity:1;fill-rule:evenodd;stroke:none;stroke-width:1.18216;stroke-linecap:butt;stroke-linejoin:miter;stroke-miterlimit:4;stroke-dasharray:7.50674,7.50674;stroke-dashoffset:.460848;stroke-opacity:1;color-rendering:auto;image-rendering:auto;shape-rendering:auto;text-rendering:auto" transform="translate(0 -231)"/><path d="M47.412 246.797v-.318h-.308z" style="color:#000;display:inline;overflow:visible;visibility:visible;fill:#000;fill-opacity:1;fill-rule:nonzero;stroke:none;stroke-width:1.22418;marker:none" transform="translate(-3.38 -226.716)"/><path d="m46.591 246.394-.82.77v.996h.82v-.771l.035-.011q.027-.007.057-.012.033-.006.068-.01l.069-.005a.4.4 0 0 1 .135.022.2.2 0 0 1 .088.065q.033.046.046.121.015.075.015.18v.42h.308v-.995z" style="font-style:normal;font-variant:normal;font-weight:400;font-stretch:normal;font-size:15px;line-height:125%;font-family:Ubuntu;-inkscape-font-specification:Ubuntu;text-align:center;letter-spacing:0;word-spacing:0;writing-mode:lr-tb;text-anchor:middle;fill:#000;fill-opacity:1;stroke:none;stroke-width:.0255037" transform="translate(-3.38 -226.716)"/><path d="m45.619 247.361-.114-.12 1.086-1.123 1.087 1.123-.114.12-.973-.93z" style="color:#000;font-style:normal;font-variant:normal;font-weight:400;font-stretch:normal;line-height:normal;font-family:sans-serif;-inkscape-font-specification:sans-serif;text-indent:0;text-align:start;text-decoration:none;text-decoration-line:none;letter-spacing:normal;word-spacing:normal;text-transform:none;writing-mode:lr-tb;direction:ltr;baseline-shift:baseline;text-anchor:start;clip-rule:nonzero;display:inline;overflow:visible;visibility:visible;color-interpolation:sRGB;color-interpolation-filters:linearRGB;fill:#000;fill-opacity:1;stroke:none;stroke-width:.153022;marker:none;color-rendering:auto;image-rendering:auto;shape-rendering:auto;text-rendering:auto" transform="translate(-3.38 -226.716)"/><path d="m46.229 251.265-.003.263 8.132.053.006-.264z" style="color:#000;font-style:normal;font-variant:normal;font-weight:400;font-stretch:normal;font-size:medium;line-height:normal;font-family:sans-serif;font-variant-ligatures:normal;font-variant-position:normal;font-variant-caps:normal;font-variant-numeric:normal;font-variant-alternates:normal;font-feature-settings:normal;text-indent:0;text-align:start;text-decoration:none;text-decoration-line:none;text-decoration-style:solid;text-decoration-color:#000;letter-spacing:normal;word-spacing:normal;text-transform:none;writing-mode:lr-tb;direction:ltr;text-orientation:mixed;dominant-baseline:auto;baseline-shift:baseline;text-anchor:start;white-space:normal;shape-padding:0;clip-rule:nonzero;display:inline;overflow:visible;visibility:visible;isolation:auto;mix-blend-mode:normal;color-interpolation:sRGB;color-interpolation-filters:linearRGB;solid-color:#000;solid-opacity:1;fill:#000;fill-opacity:1;fill-rule:evenodd;stroke:none;stroke-width:1.25483;stroke-linecap:butt;stroke-linejoin:miter;stroke-miterlimit:4;stroke-dasharray:7.96819,7.96819;stroke-dashoffset:.518464;stroke-opacity:1;color-rendering:auto;image-rendering:auto;shape-rendering:auto;text-rendering:auto" transform="translate(-.902 -231)"/><path d="M45.597 249.617v1.989h1.453l.536-.536v-1.453zm.153.153h1.683v1.224h-.46v.459H45.75z" style="color:#000;display:inline;overflow:visible;visibility:visible;fill:#000;fill-opacity:1;fill-rule:nonzero;stroke:none;stroke-width:.102014;marker:none" transform="translate(-3.38 -226.716)"/><path d="M46.056 250.076h1.07v.153h-1.07zm0 .306h1.07v.153h-1.07zm0 .306h.612v.153h-.612z" style="color:#000;display:inline;overflow:visible;visibility:visible;fill:#000;fill-opacity:1;fill-rule:nonzero;stroke:none;stroke-width:.153022;marker:none" transform="translate(-3.38 -226.716)"/><path d="m46.229 254.742-.003.265 8.833.041.003-.265z" style="color:#000;font-style:normal;font-variant:normal;font-weight:400;font-stretch:normal;font-size:medium;line-height:normal;font-family:sans-serif;font-variant-ligatures:normal;font-variant-position:normal;font-variant-caps:normal;font-variant-numeric:normal;font-variant-alternates:normal;font-feature-settings:normal;text-indent:0;text-align:start;text-decoration:none;text-decoration-line:none;text-decoration-style:solid;text-decoration-color:#000;letter-spacing:normal;word-spacing:normal;text-transform:none;writing-mode:lr-tb;direction:ltr;text-orientation:mixed;dominant-baseline:auto;baseline-shift:baseline;text-anchor:start;white-space:normal;shape-padding:0;clip-rule:nonzero;display:inline;overflow:visible;visibility:visible;isolation:auto;mix-blend-mode:normal;color-interpolation:sRGB;color-interpolation-filters:linearRGB;solid-color:#000;solid-opacity:1;fill:#000;fill-opacity:1;fill-rule:evenodd;stroke:none;stroke-width:1.21166;stroke-linecap:butt;stroke-linejoin:miter;stroke-miterlimit:4;stroke-dasharray:7.69408,7.69408;stroke-dashoffset:.41014;stroke-opacity:1;color-rendering:auto;image-rendering:auto;shape-rendering:auto;text-rendering:auto" transform="translate(-.902 -231)"/><path d="M46.973 261.092a.232.232 0 1 0 0 .465.232.232 0 0 0 0-.465m-.668.244-.421.808h1.018l-.311-.597-.088.168z" style="color:#000;display:inline;overflow:visible;visibility:visible;fill:#000;fill-opacity:1;fill-rule:nonzero;stroke:none;stroke-width:.146791;marker:none" transform="translate(-3.38 -226.716)"/><path d="M45.59 260.75v1.907h1.91v-1.908zm.147.146h1.615v1.394h-1.615Z" style="color:#000;display:inline;overflow:visible;visibility:visible;fill:#000;fill-opacity:1;fill-rule:nonzero;stroke:none;stroke-width:.0978604;marker:none" transform="translate(-3.38 -226.716)"/><path d="m46.229 265.834-.003.265 8.833.041.003-.263z" style="color:#000;font-style:normal;font-variant:normal;font-weight:400;font-stretch:normal;font-size:medium;line-height:normal;font-family:sans-serif;font-variant-ligatures:normal;font-variant-position:normal;font-variant-caps:normal;font-variant-numeric:normal;font-variant-alternates:normal;font-feature-settings:normal;text-indent:0;text-align:start;text-decoration:none;text-decoration-line:none;text-decoration-style:solid;text-decoration-color:#000;letter-spacing:normal;word-spacing:normal;text-transform:none;writing-mode:lr-tb;direction:ltr;text-orientation:mixed;dominant-baseline:auto;baseline-shift:baseline;text-anchor:start;white-space:normal;shape-padding:0;clip-rule:nonzero;display:inline;overflow:visible;visibility:visible;isolation:auto;mix-blend-mode:normal;color-interpolation:sRGB;color-interpolation-filters:linearRGB;solid-color:#000;solid-opacity:1;fill:#000;fill-opacity:1;fill-rule:evenodd;stroke:none;stroke-width:1.21265;stroke-linecap:butt;stroke-linejoin:miter;stroke-miterlimit:4;stroke-dasharray:7.70033,7.70033;stroke-dashoffset:.42039;stroke-opacity:1;color-rendering:auto;image-rendering:auto;shape-rendering:auto;text-rendering:auto" transform="translate(-.902 -231)"/><path d="M46.966 257.286c.262-.001.461.044.461.044v.238h.001v1.175l-.003.034a.5.5 0 0 1-.057.201l-.007.012-.008.011q-.08.11-.277.11c-.23 0-.328-.162-.328-.305l.001-.022c.007-.118.07-.282.293-.282h.017a.4.4 0 0 1 .092.015h.002l.01.004q.003 0 .005.002l.008.003.007.003h.004q.044.019.083.045v-.768s-.571-.105-.94.128v.991l-.003.034a.44.44 0 0 1-.072.224c-.054.073-.158.11-.287.11-.231 0-.328-.163-.328-.306 0-.117.056-.304.294-.304.09 0 .158.028.22.068l.013.008v-1.244c.246-.182.54-.228.8-.229z" style="display:inline;fill:#000;fill-opacity:1;stroke:none;stroke-width:.0244652" transform="translate(-3.38 -226.716)"/><path d="m46.229 262.414-.003.264 8.135.053.003-.264z" style="color:#000;font-style:normal;font-variant:normal;font-weight:400;font-stretch:normal;font-size:medium;line-height:normal;font-family:sans-serif;font-variant-ligatures:normal;font-variant-position:normal;font-variant-caps:normal;font-variant-numeric:normal;font-variant-alternates:normal;font-feature-settings:normal;text-indent:0;text-align:start;text-decoration:none;text-decoration-line:none;text-decoration-style:solid;text-decoration-color:#000;letter-spacing:normal;word-spacing:normal;text-transform:none;writing-mode:lr-tb;direction:ltr;text-orientation:mixed;dominant-baseline:auto;baseline-shift:baseline;text-anchor:start;white-space:normal;shape-padding:0;clip-rule:nonzero;display:inline;overflow:visible;visibility:visible;isolation:auto;mix-blend-mode:normal;color-interpolation:sRGB;color-interpolation-filters:linearRGB;solid-color:#000;solid-opacity:1;fill:#000;fill-opacity:1;fill-rule:evenodd;stroke:none;stroke-width:1.18216;stroke-linecap:butt;stroke-linejoin:miter;stroke-miterlimit:4;stroke-dasharray:7.50674,7.50674;stroke-dashoffset:.460848;stroke-opacity:1;color-rendering:auto;image-rendering:auto;shape-rendering:auto;text-rendering:auto" transform="translate(-.902 -231)"/><path d="M45.812 255.368v.46h2.028v-.46zm1.598.153h.277v.154h-.277Z" style="color:#000;display:inline;overflow:visible;visibility:visible;fill:#000;fill-opacity:1;fill-rule:nonzero;stroke:none;stroke-width:.368738;marker:none" transform="translate(-3.38 -226.716)"/><path d="M46.151 253.985a11 11 0 0 0 .675 1.198h.002q.202-.322.395-.668.149-.269.277-.53z" style="color:#000;display:inline;overflow:visible;visibility:visible;fill:#000;fill-opacity:1;fill-rule:nonzero;stroke:none;stroke-width:.0921844;marker:none" transform="translate(-3.38 -226.716)"/><path d="M46.55 253.063v1.075h.553v-1.075z" style="color:#000;font-style:normal;font-variant:normal;font-weight:400;font-stretch:normal;line-height:normal;font-family:Sans;-inkscape-font-specification:Sans;text-indent:0;text-align:start;text-decoration:none;text-decoration-line:none;letter-spacing:normal;word-spacing:normal;text-transform:none;writing-mode:lr-tb;direction:ltr;baseline-shift:baseline;text-anchor:start;display:inline;overflow:visible;visibility:visible;fill:#000;fill-opacity:1;stroke:none;stroke-width:.122912;marker:none" transform="translate(-3.38 -226.716)"/><path d="m46.133 258.606-.004.227 9.706.035.003-.226z" style="color:#000;font-style:normal;font-variant:normal;font-weight:400;font-stretch:normal;font-size:medium;line-height:normal;font-family:sans-serif;font-variant-ligatures:normal;font-variant-position:normal;font-variant-caps:normal;font-variant-numeric:normal;font-variant-alternates:normal;font-feature-settings:normal;text-indent:0;text-align:start;text-decoration:none;text-decoration-line:none;text-decoration-style:solid;text-decoration-color:#000;letter-spacing:normal;word-spacing:normal;text-transform:none;writing-mode:lr-tb;direction:ltr;text-orientation:mixed;dominant-baseline:auto;baseline-shift:baseline;text-anchor:start;white-space:normal;shape-padding:0;clip-rule:nonzero;display:inline;overflow:visible;visibility:visible;isolation:auto;mix-blend-mode:normal;color-interpolation:sRGB;color-interpolation-filters:linearRGB;solid-color:#000;solid-opacity:1;fill:#000;fill-opacity:1;fill-rule:evenodd;stroke:none;stroke-width:1.17689;stroke-linecap:butt;stroke-linejoin:miter;stroke-miterlimit:4;stroke-dasharray:7.47329,7.47329;stroke-dashoffset:.400712;stroke-opacity:1;color-rendering:auto;image-rendering:auto;shape-rendering:auto;text-rendering:auto" transform="translate(-.902 -231)"/><path d="M47.415 265.804a.98.98 0 0 0-1.694-.979.979.979 0 0 0 1.694.979m-.29-.167a.64.64 0 0 1-.878.234.64.64 0 1 1 .642-1.112.64.64 0 0 1 .236.878" style="color:#000;font-style:normal;font-variant:normal;font-weight:400;font-stretch:normal;font-size:medium;line-height:normal;font-family:sans-serif;font-variant-ligatures:normal;font-variant-position:normal;font-variant-caps:normal;font-variant-numeric:normal;font-variant-alternates:normal;font-feature-settings:normal;text-indent:0;text-align:start;text-decoration:none;text-decoration-line:none;text-decoration-style:solid;text-decoration-color:#000;letter-spacing:normal;word-spacing:normal;text-transform:none;writing-mode:lr-tb;direction:ltr;text-orientation:mixed;dominant-baseline:auto;baseline-shift:baseline;text-anchor:start;white-space:normal;shape-padding:0;clip-rule:nonzero;display:inline;overflow:visible;visibility:visible;isolation:auto;mix-blend-mode:normal;color-interpolation:sRGB;color-interpolation-filters:linearRGB;solid-color:#000;solid-opacity:1;fill:#000;fill-opacity:1;fill-rule:nonzero;stroke:none;stroke-width:.105465;stroke-linecap:butt;stroke-linejoin:miter;stroke-miterlimit:4;stroke-dasharray:none;stroke-dashoffset:0;stroke-opacity:1;marker:none;color-rendering:auto;image-rendering:auto;shape-rendering:auto;text-rendering:auto" transform="translate(-3.38 -226.716)"/><path d="m46.763 264.114-.39.059v.39h.39zm.708.428-.3-.25-.27.32.3.252zm.285.761-.07-.384-.411.073.068.384zm-.271.767.194-.34-.362-.208-.195.338zm-.7.413.366-.136-.142-.392-.367.134zm-.802-.133.368.13.143-.391-.367-.134zm-.528-.618.197.337.362-.209-.196-.338zm-.008-.813-.065.385.41.072.069-.384zm.517-.628-.298.253.268.32.3-.251z" style="color:#000;display:inline;overflow:visible;visibility:visible;fill:#000;fill-opacity:1;fill-rule:nonzero;stroke:none;stroke-width:.0558086;marker:none" transform="translate(-3.38 -226.716)"/><path d="m45.965 269.43-.004.2 9.874.03.003-.198z" style="color:#000;font-style:normal;font-variant:normal;font-weight:400;font-stretch:normal;font-size:medium;line-height:normal;font-family:sans-serif;font-variant-ligatures:normal;font-variant-position:normal;font-variant-caps:normal;font-variant-numeric:normal;font-variant-alternates:normal;font-feature-settings:normal;text-indent:0;text-align:start;text-decoration:none;text-decoration-line:none;text-decoration-style:solid;text-decoration-color:#000;letter-spacing:normal;word-spacing:normal;text-transform:none;writing-mode:lr-tb;direction:ltr;text-orientation:mixed;dominant-baseline:auto;baseline-shift:baseline;text-anchor:start;white-space:normal;shape-padding:0;clip-rule:nonzero;display:inline;overflow:visible;visibility:visible;isolation:auto;mix-blend-mode:normal;color-interpolation:sRGB;color-interpolation-filters:linearRGB;solid-color:#000;solid-opacity:1;fill:#000;fill-opacity:1;fill-rule:evenodd;stroke:none;stroke-width:1.11251;stroke-linecap:butt;stroke-linejoin:miter;stroke-miterlimit:4;stroke-dasharray:7.06445,7.06445;stroke-dashoffset:.385675;stroke-opacity:1;color-rendering:auto;image-rendering:auto;shape-rendering:auto;text-rendering:auto" transform="translate(-.902 -231)"/><path d="m46.315 267.94-.008.015a20 20 0 0 0-.378.874l-.053.139h.402l.094-.248c.046-.117.087-.211.124-.299.036.085.072.175.117.292l.096.255h.41l-.056-.138q-.09-.237-.18-.452a15 15 0 0 0-.19-.423l-.008-.015zm-.669 1.114a.228.228 0 1 0 0 .457h1.711a.228.228 0 1 0 0-.457zm0 .114h.998a.114.114 0 1 1 0 .229h-.998a.114.114 0 1 1 0-.229m-.004.43-.106.302-.014.037h.422l.087-.24.036-.1h-.425m1.278 0q.016.05.035.098l.08.226.006.015h.445l-.015-.037-.11-.303h-.004z" style="font-style:normal;font-variant:normal;font-weight:500;font-stretch:normal;font-size:12.0041px;line-height:125%;font-family:Ubuntu;-inkscape-font-specification:&quot;Ubuntu Medium&quot;;text-align:start;letter-spacing:0;word-spacing:0;writing-mode:lr-tb;text-anchor:start;display:inline;fill:#000;fill-opacity:1;stroke:none;stroke-width:.0264356" transform="translate(-3.38 -226.716)"/><path d="m45.964 273.063-.003.265 8.4.053.003-.265z" style="color:#000;font-style:normal;font-variant:normal;font-weight:400;font-stretch:normal;font-size:medium;line-height:normal;font-family:sans-serif;font-variant-ligatures:normal;font-variant-position:normal;font-variant-caps:normal;font-variant-numeric:normal;font-variant-alternates:normal;font-feature-settings:normal;text-indent:0;text-align:start;text-decoration:none;text-decoration-line:none;text-decoration-style:solid;text-decoration-color:#000;letter-spacing:normal;word-spacing:normal;text-transform:none;writing-mode:lr-tb;direction:ltr;text-orientation:mixed;dominant-baseline:auto;baseline-shift:baseline;text-anchor:start;white-space:normal;shape-padding:0;clip-rule:nonzero;display:inline;overflow:visible;visibility:visible;isolation:auto;mix-blend-mode:normal;color-interpolation:sRGB;color-interpolation-filters:linearRGB;solid-color:#000;solid-opacity:1;fill:#000;fill-opacity:1;fill-rule:evenodd;stroke:none;stroke-width:1.20122;stroke-linecap:butt;stroke-linejoin:miter;stroke-miterlimit:4;stroke-dasharray:7.62777,7.62777;stroke-dashoffset:.468278;stroke-opacity:1;color-rendering:auto;image-rendering:auto;shape-rendering:auto;text-rendering:auto" transform="translate(-.902 -231)"/><path d="M46.127 271.394c-.272 0-.407 0-.407.316v.336h.163v-.267c0-.222.08-.222.295-.222h1.04c.215 0 .295 0 .295.222v.86c0 .222-.08.222-.295.222h-.194v.163h.244c.272 0 .408 0 .408-.316v-.998c0-.316-.136-.316-.408-.316z" style="font-style:normal;font-variant:normal;font-weight:400;font-stretch:normal;font-size:15px;line-height:125%;font-family:Ubuntu;-inkscape-font-specification:Ubuntu;text-align:center;letter-spacing:0;word-spacing:0;writing-mode:lr-tb;text-anchor:middle;display:inline;fill:#000;fill-opacity:1;stroke:none;stroke-width:.0271698" transform="translate(-3.38 -226.716)"/><path d="M45.801 272.127c-.272 0-.407 0-.407.316v.59c0 .317.135.317.407.317h.734c.271 0 .407 0 .407-.316v-.555l-.163.163v.322c0 .223-.08.223-.295.223h-.632c-.216 0-.295 0-.295-.223v-.451c0-.223.08-.223.295-.223h.575l.163-.163h-.001z" style="font-style:normal;font-variant:normal;font-weight:400;font-stretch:normal;font-size:15px;line-height:125%;font-family:Ubuntu;-inkscape-font-specification:Ubuntu;text-align:center;letter-spacing:0;word-spacing:0;writing-mode:lr-tb;text-anchor:middle;display:inline;fill:#000;fill-opacity:1;stroke:none;stroke-width:.0271698" transform="translate(-3.38 -226.716)"/><path d="M47.18 272.345s.119-.305.17-.625a3.6 3.6 0 0 0-.625.172z" style="color:#000;display:inline;overflow:visible;visibility:visible;fill:#000;fill-opacity:1;fill-rule:nonzero;stroke:none;stroke-width:.0815097;marker:none" transform="translate(-3.38 -226.716)"/><path d="m47.019 271.932-.625.625.119.119.625-.625z" style="color:#000;font-style:normal;font-variant:normal;font-weight:400;font-stretch:normal;line-height:normal;font-family:Sans;-inkscape-font-specification:Sans;text-indent:0;text-align:start;text-decoration:none;text-decoration-line:none;letter-spacing:normal;word-spacing:normal;text-transform:none;writing-mode:lr-tb;direction:ltr;baseline-shift:baseline;text-anchor:start;display:inline;overflow:visible;visibility:visible;fill:#000;fill-opacity:1;stroke:none;stroke-width:.24453;marker:none" transform="translate(-3.38 -226.716)"/><path d="m48.442 272.393-.002.265 6.006.039.002-.263z" style="color:#000;font-style:normal;font-variant:normal;font-weight:400;font-stretch:normal;font-size:medium;line-height:normal;font-family:sans-serif;font-variant-ligatures:normal;font-variant-position:normal;font-variant-caps:normal;font-variant-numeric:normal;font-variant-alternates:normal;font-feature-settings:normal;text-indent:0;text-align:start;text-decoration:none;text-decoration-line:none;text-decoration-style:solid;text-decoration-color:#000;letter-spacing:normal;word-spacing:normal;text-transform:none;writing-mode:lr-tb;direction:ltr;text-orientation:mixed;dominant-baseline:auto;baseline-shift:baseline;text-anchor:start;white-space:normal;shape-padding:0;clip-rule:nonzero;display:inline;overflow:visible;visibility:visible;isolation:auto;mix-blend-mode:normal;color-interpolation:sRGB;color-interpolation-filters:linearRGB;solid-color:#000;solid-opacity:1;fill:#000;fill-opacity:1;fill-rule:evenodd;stroke:none;stroke-width:.999141;stroke-linecap:butt;stroke-linejoin:miter;stroke-miterlimit:4;stroke-dasharray:6.34455,6.34455;stroke-dashoffset:.338202;stroke-opacity:1;color-rendering:auto;image-rendering:auto;shape-rendering:auto;text-rendering:auto" transform="matrix(1.64382 0 0 1 -34.567 -226.89)"/><path d="M20.278 285.653c0 .122.1.22.222.22l6.061.008a.22.22 0 0 0 .22-.22l.008-5.509a.22.22 0 0 0-.22-.222l-6.062-.008a.22.22 0 0 0-.222.222zm8.069.01c0 .122.1.221.222.22l6.061.009c.122 0 .22-.099.221-.22l.007-5.51a.22.22 0 0 0-.22-.222l-6.061-.008a.22.22 0 0 0-.223.222zm-16.275-.02c0 .12.098.22.22.22l6.061.008c.122 0 .22-.099.221-.22l.007-5.51a.22.22 0 0 0-.22-.222l-6.061-.008a.22.22 0 0 0-.221.222zm8.206-7.524c0 .122.1.22.222.22l6.061.008a.22.22 0 0 0 .22-.22l.008-5.509a.22.22 0 0 0-.22-.223l-6.062-.008c-.123 0-.223.1-.222.223zm8.069.01c0 .122.1.221.222.22l6.061.009c.122 0 .22-.099.221-.22l.007-5.51a.22.22 0 0 0-.22-.222l-6.061-.008a.22.22 0 0 0-.223.222zm-16.275-.02c0 .12.098.22.22.22l6.061.008c.122 0 .22-.099.221-.22l.007-5.51a.22.22 0 0 0-.22-.222l-6.061-.008a.22.22 0 0 0-.221.222zm8.206-7.524c0 .122.1.22.222.22l6.06.008a.22.22 0 0 0 .222-.22l.007-5.509a.22.22 0 0 0-.22-.223l-6.062-.008c-.123 0-.223.1-.222.223zm8.069.01c0 .122.1.221.222.22l6.061.009a.22.22 0 0 0 .22-.22l.008-5.51a.22.22 0 0 0-.22-.222l-6.061-.008a.22.22 0 0 0-.223.222zm-16.275-.021c0 .121.098.22.22.22l6.061.009a.22.22 0 0 0 .22-.22l.008-5.51a.22.22 0 0 0-.22-.222l-6.061-.008a.22.22 0 0 0-.221.222zm8.205-7.524c0 .123.1.222.223.221l6.06.008a.22.22 0 0 0 .222-.22l.007-5.509a.22.22 0 0 0-.22-.223l-6.062-.008c-.123 0-.223.1-.222.222zm8.07.01c0 .123.1.222.222.222l6.061.008c.122 0 .22-.1.22-.22l.008-5.51a.22.22 0 0 0-.22-.222l-6.061-.008a.22.22 0 0 0-.223.222zm-16.275-.02c0 .121.098.22.22.22l6.061.009c.122 0 .22-.1.22-.22l.008-5.51a.22.22 0 0 0-.22-.222l-6.061-.008a.22.22 0 0 0-.221.222zm8.205-7.524c0 .123.1.221.223.221l6.06.008a.22.22 0 0 0 .222-.22l.007-5.51a.22.22 0 0 0-.22-.222l-6.062-.008c-.123 0-.223.1-.222.222zm8.07.01c0 .123.1.222.222.221l6.061.008a.22.22 0 0 0 .22-.22l.008-5.509a.22.22 0 0 0-.22-.223l-6.061-.008c-.124 0-.224.1-.223.223zm-16.275-.02c0 .121.098.22.22.22l6.061.008a.22.22 0 0 0 .22-.22l.008-5.509a.22.22 0 0 0-.22-.222l-6.061-.008a.22.22 0 0 0-.221.222z" style="color:#000;font-style:normal;font-variant:normal;font-weight:400;font-stretch:normal;font-size:medium;line-height:normal;font-family:sans-serif;font-variant-ligatures:normal;font-variant-position:normal;font-variant-caps:normal;font-variant-numeric:normal;font-variant-alternates:normal;font-feature-settings:normal;text-indent:0;text-align:start;text-decoration:none;text-decoration-line:none;text-decoration-style:solid;text-decoration-color:#000;letter-spacing:normal;word-spacing:normal;text-transform:none;writing-mode:lr-tb;direction:ltr;text-orientation:mixed;dominant-baseline:auto;baseline-shift:baseline;text-anchor:start;white-space:normal;shape-padding:0;clip-rule:nonzero;display:inline;overflow:visible;visibility:visible;isolation:auto;mix-blend-mode:normal;color-interpolation:sRGB;color-interpolation-filters:linearRGB;solid-color:#000;solid-opacity:1;fill:#000;fill-opacity:1;fill-rule:nonzero;stroke:none;stroke-width:.999141;stroke-linecap:butt;stroke-linejoin:round;stroke-miterlimit:4;stroke-dasharray:none;stroke-dashoffset:0;stroke-opacity:1;color-rendering:auto;image-rendering:auto;shape-rendering:auto;text-rendering:auto" transform="translate(0 -231)"/><g style="fill:#000;fill-opacity:1;stroke:none"><path d="M1.722.272C.92.272.264.928.264 1.728S.92 3.185 1.722 3.185s1.457-.656 1.457-1.457c0-.8-.656-1.456-1.457-1.456m0 .532a.92.92 0 0 1 .926.924.92.92 0 0 1-.926.925.92.92 0 0 1-.926-.925.92.92 0 0 1 .926-.924" style="fill:#000;fill-opacity:1;stroke:none;stroke-width:.264583" transform="matrix(.44945 0 0 .46382 10.285 10.219)"/><path d="M2.596 2.39a.265.265 0 0 0-.132.454l1.058 1.059a.266.266 0 1 0 .372-.38l-1.058-1.06a.27.27 0 0 0-.24-.073" style="fill:#000;fill-opacity:1;stroke:none;stroke-width:.264583" transform="matrix(.44945 0 0 .46382 10.285 10.219)"/></g><g style="fill:#000;fill-opacity:1;stroke:none"><g style="opacity:1;fill:#000;fill-opacity:1;stroke:none"><path d="m9.74 253.177 40.783.05" style="color:#000;font-style:normal;font-variant:normal;font-weight:400;font-stretch:normal;font-size:medium;line-height:normal;font-family:sans-serif;font-variant-ligatures:normal;font-variant-position:normal;font-variant-caps:normal;font-variant-numeric:normal;font-variant-alternates:normal;font-feature-settings:normal;text-indent:0;text-align:start;text-decoration:none;text-decoration-line:none;text-decoration-style:solid;text-decoration-color:#000;letter-spacing:normal;word-spacing:normal;text-transform:none;writing-mode:lr-tb;direction:ltr;text-orientation:mixed;dominant-baseline:auto;baseline-shift:baseline;text-anchor:start;white-space:normal;shape-padding:0;clip-rule:nonzero;display:inline;overflow:visible;visibility:visible;isolation:auto;mix-blend-mode:normal;color-interpolation:sRGB;color-interpolation-filters:linearRGB;solid-color:#000;solid-opacity:1;fill:#000;fill-opacity:1;fill-rule:evenodd;stroke:none;stroke-width:.133189;stroke-linecap:butt;stroke-linejoin:miter;stroke-miterlimit:4;stroke-dasharray:none;stroke-dashoffset:0;stroke-opacity:1;color-rendering:auto;image-rendering:auto;shape-rendering:auto;text-rendering:auto" transform="matrix(.65518 0 0 .8885 3.42 -212.59)"/><path d="M9.74 253.111v.133l40.783.05v-.134z" style="color:#000;font-style:normal;font-variant:normal;font-weight:400;font-stretch:normal;font-size:medium;line-height:normal;font-family:sans-serif;font-variant-ligatures:normal;font-variant-position:normal;font-variant-caps:normal;font-variant-numeric:normal;font-variant-alternates:normal;font-feature-settings:normal;text-indent:0;text-align:start;text-decoration:none;text-decoration-line:none;text-decoration-style:solid;text-decoration-color:#000;letter-spacing:normal;word-spacing:normal;text-transform:none;writing-mode:lr-tb;direction:ltr;text-orientation:mixed;dominant-baseline:auto;baseline-shift:baseline;text-anchor:start;white-space:normal;shape-padding:0;clip-rule:nonzero;display:inline;overflow:visible;visibility:visible;isolation:auto;mix-blend-mode:normal;color-interpolation:sRGB;color-interpolation-filters:linearRGB;solid-color:#000;solid-opacity:1;fill:#000;fill-opacity:1;fill-rule:evenodd;stroke:none;stroke-linecap:butt;stroke-linejoin:miter;stroke-miterlimit:4;stroke-dasharray:none;stroke-dashoffset:0;stroke-opacity:1;color-rendering:auto;image-rendering:auto;shape-rendering:auto;text-rendering:auto" transform="matrix(.65518 0 0 .8885 3.42 -212.59)"/></g><g style="opacity:1;fill:#000;fill-opacity:1;stroke:none"><path d="m9.812 250.532 40.71.05" style="color:#000;font-style:normal;font-variant:normal;font-weight:400;font-stretch:normal;font-size:medium;line-height:normal;font-family:sans-serif;font-variant-ligatures:normal;font-variant-position:normal;font-variant-caps:normal;font-variant-numeric:normal;font-variant-alternates:normal;font-feature-settings:normal;text-indent:0;text-align:start;text-decoration:none;text-decoration-line:none;text-decoration-style:solid;text-decoration-color:#000;letter-spacing:normal;word-spacing:normal;text-transform:none;writing-mode:lr-tb;direction:ltr;text-orientation:mixed;dominant-baseline:auto;baseline-shift:baseline;text-anchor:start;white-space:normal;shape-padding:0;clip-rule:nonzero;display:inline;overflow:visible;visibility:visible;isolation:auto;mix-blend-mode:normal;color-interpolation:sRGB;color-interpolation-filters:linearRGB;solid-color:#000;solid-opacity:1;fill:#000;fill-opacity:1;fill-rule:evenodd;stroke:none;stroke-width:.132662;stroke-linecap:butt;stroke-linejoin:miter;stroke-miterlimit:4;stroke-dasharray:none;stroke-dashoffset:0;stroke-opacity:1;color-rendering:auto;image-rendering:auto;shape-rendering:auto;text-rendering:auto" transform="matrix(.65518 0 0 .8885 3.42 -212.59)"/><path d="M9.813 250.465v.133l40.71.05v-.132z" style="color:#000;font-style:normal;font-variant:normal;font-weight:400;font-stretch:normal;font-size:medium;line-height:normal;font-family:sans-serif;font-variant-ligatures:normal;font-variant-position:normal;font-variant-caps:normal;font-variant-numeric:normal;font-variant-alternates:normal;font-feature-settings:normal;text-indent:0;text-align:start;text-decoration:none;text-decoration-line:none;text-decoration-style:solid;text-decoration-color:#000;letter-spacing:normal;word-spacing:normal;text-transform:none;writing-mode:lr-tb;direction:ltr;text-orientation:mixed;dominant-baseline:auto;baseline-shift:baseline;text-anchor:start;white-space:normal;shape-padding:0;clip-rule:nonzero;display:inline;overflow:visible;visibility:visible;isolation:auto;mix-blend-mode:normal;color-interpolation:sRGB;color-interpolation-filters:linearRGB;solid-color:#000;solid-opacity:1;fill:#000;fill-opacity:1;fill-rule:evenodd;stroke:none;stroke-linecap:butt;stroke-linejoin:miter;stroke-miterlimit:4;stroke-dasharray:none;stroke-dashoffset:0;stroke-opacity:1;color-rendering:auto;image-rendering:auto;shape-rendering:auto;text-rendering:auto" transform="matrix(.65518 0 0 .8885 3.42 -212.59)"/></g><g style="opacity:1;fill:#000;fill-opacity:1;stroke:none"><path d="m50.568 250.52-.046 2.707" style="color:#000;font-style:normal;font-variant:normal;font-weight:400;font-stretch:normal;font-size:medium;line-height:normal;font-family:sans-serif;font-variant-ligatures:normal;font-variant-position:normal;font-variant-caps:normal;font-variant-numeric:normal;font-variant-alternates:normal;font-feature-settings:normal;text-indent:0;text-align:start;text-decoration:none;text-decoration-line:none;text-decoration-style:solid;text-decoration-color:#000;letter-spacing:normal;word-spacing:normal;text-transform:none;writing-mode:lr-tb;direction:ltr;text-orientation:mixed;dominant-baseline:auto;baseline-shift:baseline;text-anchor:start;white-space:normal;shape-padding:0;clip-rule:nonzero;display:inline;overflow:visible;visibility:visible;isolation:auto;mix-blend-mode:normal;color-interpolation:sRGB;color-interpolation-filters:linearRGB;solid-color:#000;solid-opacity:1;fill:#000;fill-opacity:1;fill-rule:evenodd;stroke:none;stroke-width:.103723;stroke-linecap:butt;stroke-linejoin:miter;stroke-miterlimit:4;stroke-dasharray:none;stroke-dashoffset:0;stroke-opacity:1;color-rendering:auto;image-rendering:auto;shape-rendering:auto;text-rendering:auto" transform="matrix(.65518 0 0 .8885 3.42 -212.59)"/><path d="m50.516 250.52-.045 2.707.103.002.045-2.71z" style="color:#000;font-style:normal;font-variant:normal;font-weight:400;font-stretch:normal;font-size:medium;line-height:normal;font-family:sans-serif;font-variant-ligatures:normal;font-variant-position:normal;font-variant-caps:normal;font-variant-numeric:normal;font-variant-alternates:normal;font-feature-settings:normal;text-indent:0;text-align:start;text-decoration:none;text-decoration-line:none;text-decoration-style:solid;text-decoration-color:#000;letter-spacing:normal;word-spacing:normal;text-transform:none;writing-mode:lr-tb;direction:ltr;text-orientation:mixed;dominant-baseline:auto;baseline-shift:baseline;text-anchor:start;white-space:normal;shape-padding:0;clip-rule:nonzero;display:inline;overflow:visible;visibility:visible;isolation:auto;mix-blend-mode:normal;color-interpolation:sRGB;color-interpolation-filters:linearRGB;solid-color:#000;solid-opacity:1;fill:#000;fill-opacity:1;fill-rule:evenodd;stroke:none;stroke-linecap:butt;stroke-linejoin:miter;stroke-miterlimit:4;stroke-dasharray:none;stroke-dashoffset:0;stroke-opacity:1;color-rendering:auto;image-rendering:auto;shape-rendering:auto;text-rendering:auto" transform="matrix(.65518 0 0 .8885 3.42 -212.59)"/></g><g style="opacity:1;fill:#000;fill-opacity:1;stroke:none"><path d="m9.822 250.52-.046 2.707" style="color:#000;font-style:normal;font-variant:normal;font-weight:400;font-stretch:normal;font-size:medium;line-height:normal;font-family:sans-serif;font-variant-ligatures:normal;font-variant-position:normal;font-variant-caps:normal;font-variant-numeric:normal;font-variant-alternates:normal;font-feature-settings:normal;text-indent:0;text-align:start;text-decoration:none;text-decoration-line:none;text-decoration-style:solid;text-decoration-color:#000;letter-spacing:normal;word-spacing:normal;text-transform:none;writing-mode:lr-tb;direction:ltr;text-orientation:mixed;dominant-baseline:auto;baseline-shift:baseline;text-anchor:start;white-space:normal;shape-padding:0;clip-rule:nonzero;display:inline;overflow:visible;visibility:visible;isolation:auto;mix-blend-mode:normal;color-interpolation:sRGB;color-interpolation-filters:linearRGB;solid-color:#000;solid-opacity:1;fill:#000;fill-opacity:1;fill-rule:evenodd;stroke:none;stroke-width:.103723;stroke-linecap:butt;stroke-linejoin:miter;stroke-miterlimit:4;stroke-dasharray:none;stroke-dashoffset:0;stroke-opacity:1;color-rendering:auto;image-rendering:auto;shape-rendering:auto;text-rendering:auto" transform="matrix(.65518 0 0 .8885 3.42 -212.59)"/><path d="m9.77 250.52-.045 2.707.103.002.045-2.71z" style="color:#000;font-style:normal;font-variant:normal;font-weight:400;font-stretch:normal;font-size:medium;line-height:normal;font-family:sans-serif;font-variant-ligatures:normal;font-variant-position:normal;font-variant-caps:normal;font-variant-numeric:normal;font-variant-alternates:normal;font-feature-settings:normal;text-indent:0;text-align:start;text-decoration:none;text-decoration-line:none;text-decoration-style:solid;text-decoration-color:#000;letter-spacing:normal;word-spacing:normal;text-transform:none;writing-mode:lr-tb;direction:ltr;text-orientation:mixed;dominant-baseline:auto;baseline-shift:baseline;text-anchor:start;white-space:normal;shape-padding:0;clip-rule:nonzero;display:inline;overflow:visible;visibility:visible;isolation:auto;mix-blend-mode:normal;color-interpolation:sRGB;color-interpolation-filters:linearRGB;solid-color:#000;solid-opacity:1;fill:#000;fill-opacity:1;fill-rule:evenodd;stroke:none;stroke-linecap:butt;stroke-linejoin:miter;stroke-miterlimit:4;stroke-dasharray:none;stroke-dashoffset:0;stroke-opacity:1;color-rendering:auto;image-rendering:auto;shape-rendering:auto;text-rendering:auto" transform="matrix(.65518 0 0 .8885 3.42 -212.59)"/></g></g><path d="m30.718 245.65-.004.889 3.279.017.003-.888zm4.494.053-.003.888.854.007.003-.89zm-24.95-.053-.003.889 3.279.017.003-.888zm4.589.024-.002.89 3.934.02.003-.888zm5.247.029-.003.888.853.007.002-.89z" style="color:#000;font-style:normal;font-variant:normal;font-weight:400;font-stretch:normal;font-size:medium;line-height:normal;font-family:sans-serif;font-variant-ligatures:normal;font-variant-position:normal;font-variant-caps:normal;font-variant-numeric:normal;font-variant-alternates:normal;font-feature-settings:normal;text-indent:0;text-align:start;text-decoration:none;text-decoration-line:none;text-decoration-style:solid;text-decoration-color:#000;letter-spacing:normal;word-spacing:normal;text-transform:none;writing-mode:lr-tb;direction:ltr;text-orientation:mixed;dominant-baseline:auto;baseline-shift:baseline;text-anchor:start;white-space:normal;shape-padding:0;clip-rule:nonzero;display:inline;overflow:visible;visibility:visible;isolation:auto;mix-blend-mode:normal;color-interpolation:sRGB;color-interpolation-filters:linearRGB;solid-color:#000;solid-opacity:1;fill:#000;fill-opacity:1;fill-rule:nonzero;stroke:none;stroke-width:1.31699;stroke-linecap:butt;stroke-linejoin:round;stroke-miterlimit:4;stroke-dasharray:none;stroke-dashoffset:0;stroke-opacity:1;color-rendering:auto;image-rendering:auto;shape-rendering:auto;text-rendering:auto" transform="translate(0 -231)"/></svg>