<svg xmlns="http://www.w3.org/2000/svg" width="350" height="350"><path d="M204.39 115.279h145.817c13.417 0 24.302 10.885 24.302 24.302v145.817c0 13.417-10.885 24.302-24.302 24.302h-24.305V204.39c0-22.329-18.176-40.507-40.504-40.507H180.085V139.58c0-13.417 10.888-24.302 24.305-24.302m-64.809 64.806h145.817c13.417 0 24.302 10.887 24.302 24.305v145.817c0 13.417-10.885 24.302-24.302 24.302H139.581c-13.417 0-24.302-10.885-24.302-24.302V204.39c0-13.418 10.885-24.305 24.302-24.305m14.176 32.404c-3.342 0-6.076 2.735-6.076 6.077v26.328h127.591v-26.328c0-3.342-2.734-6.077-6.076-6.077z" style="fill:#383a3c;fill-opacity:1;stroke-width:1.21617" transform="translate(-69.894 -69.894)"/></svg>