<svg xmlns="http://www.w3.org/2000/svg" width="66mm" height="66mm" viewBox="0 0 66 66"><path d="m20.853 261.418-.298.253.269.32.299-.251zm-.517.628-.065.385.41.072.069-.384zm.008.813.197.337.362-.209-.196-.338zm.528.618.368.13.143-.391-.367-.134zm.802.133.367-.136-.143-.392-.367.134zm.7-.413.194-.34-.362-.208-.195.338zm.271-.767-.07-.384-.41.073.067.384zm-.285-.76-.3-.25-.269.32.3.25zm-.708-.429-.39.059v.389h.39v-.42zm.652 1.69a.98.98 0 0 0-1.694-.979.979.979 0 0 0 1.694.979m-.29-.167a.64.64 0 0 1-.878.234.64.64 0 1 1 .642-1.112.64.64 0 0 1 .236.878m1.106-3.678-3.327.004v.115l3.327-.004zm-3.327.061 3.328-.004m-.001-15.39-3.327.005v.113l3.327-.004zm-3.327.061 3.328-.004m-1.18 25.759-.625.625.119.119.625-.625zm.16.413s.12-.305.172-.625h-.001a3.6 3.6 0 0 0-.625.172zm-1.378-.219c-.271 0-.407 0-.407.316v.591c0 .316.136.316.407.316h.734c.272 0 .407 0 .407-.316v-.554l-.163.163v.321c0 .223-.08.223-.295.223h-.632c-.215 0-.295 0-.295-.223v-.451c0-.223.08-.223.295-.223h.575l.163-.163zm.326-.733c-.271 0-.407 0-.407.316v.336h.163v-.267c0-.222.08-.222.295-.222h1.04c.215 0 .295 0 .295.222v.86c0 .222-.08.222-.295.222h-.194v.163h.244c.272 0 .408 0 .408-.316v-.998c0-.316-.136-.316-.408-.316zm.22-3.754-.006.015q-.098.208-.19.422a20 20 0 0 0-.188.452l-.054.138h.402l.095-.247c.046-.117.087-.212.124-.299a12 12 0 0 1 .212.546h.41l-.056-.138q-.09-.237-.18-.452a15 15 0 0 0-.19-.422l-.007-.015zm-.668 1.114a.228.228 0 1 0 0 .456h1.712a.228.228 0 1 0 0-.456zm0 .114h.999a.114.114 0 1 1 0 .228h-1a.114.114 0 1 1 0-.228m-.003.429-.106.303-.015.036h.422l.087-.24.036-.1h-.424zm1.277 0 .035.098q.041.112.08.227l.006.014h.445l-.015-.036-.109-.303h-.004zm-.695-15.341v1.075h.554v-1.075zm-.398.922a11 11 0 0 0 .675 1.198h.002q.201-.322.395-.668.148-.269.277-.53zm-.339 1.383v.46h2.028v-.46zm1.598.153h.276v.154h-.276zm-1.556-7.747-.114-.12 1.086-1.123 1.086 1.123-.114.12-.972-.93zm.972-.968-.82.771v.996h.82v-.772l.035-.011q.026-.007.057-.012.033-.007.068-.01l.069-.005a.4.4 0 0 1 .135.022.2.2 0 0 1 .088.065q.034.046.046.121.015.075.015.18v.42h.308v-.994zm.82.404v-.319h-.307zm-1.356 3.54h.613v.154h-.613zm0-.305h1.072v.153H20.92zm0-.307h1.072v.154H20.92zm-.459-.459v1.99h1.454l.536-.536v-1.454zm.153.153H22.3v1.225h-.46v.459h-1.224zm1.263 7.702c.262-.001.462.044.462.044v1.414l-.002.034a.5.5 0 0 1-.058.201l-.007.012-.007.011q-.082.11-.277.11c-.23 0-.328-.163-.328-.305v-.022c.007-.118.07-.282.294-.282h.017a.4.4 0 0 1 .092.015h.001l.011.003.004.002.008.003.011.004a.5.5 0 0 1 .084.045v-.768s-.572-.106-.94.128v.944l-.001.042v.004l-.003.034a.44.44 0 0 1-.072.223c-.053.074-.157.11-.287.11-.23 0-.328-.162-.328-.305 0-.118.056-.304.295-.304.09 0 .158.028.22.068q.007.003.013.008v-1.244c.245-.182.539-.228.799-.23zm-.421-15.688a.7.7 0 0 0-.505.22.77.77 0 0 0-.21.532.7.7 0 0 0 .044.254c.094.233.235.414.364.554q.054.061.116.122h.377c.04-.04.083-.082.121-.122.129-.14.27-.32.364-.554a.7.7 0 0 0 .043-.253v-.001a.77.77 0 0 0-.21-.532.7.7 0 0 0-.504-.22m.642 1.471a2.5 2.5 0 0 1-.264.32c-.16.158-.377.348-.377.348s-.23-.187-.379-.349a2.5 2.5 0 0 1-.264-.318l-.011.004q-.306.116-.54.308v.601h2.386v-.6a1.9 1.9 0 0 0-.537-.309q-.008-.002-.014-.006zm9.331-.108-.004.793 3.966.015.003-.792zm5.55.022-.002.794 4.758.018.004-.793zm6.346.025-.004.792 1.033.006.002-.794zm-17.112-.812a.124.124 0 0 0-.123.125v3.386c0 .069.054.125.123.125h3.08a.124.124 0 0 0 .122-.125v-3.386a.124.124 0 0 0-.123-.125zm5.216 5.326-.004.792 3.966.016.003-.793zm5.55.021-.002.793 4.758.02.004-.793zm6.346.026-.004.792 1.033.004.002-.792zm-11.896 4.523-.004.794 3.966.016.003-.794zm5.55.023-.002.793 4.758.02.004-.795zm6.346.026-.004.792 1.033.004.002-.792zm-11.843 4.843-.004.794 3.965.016.004-.794zm5.552.022-.004.794 4.76.02.001-.795zm6.344.025-.004.794 1.032.004.004-.794zm-11.834 4.676-.002.792 3.966.016.002-.793zm5.552.021-.004.792 4.76.02.002-.792zm6.344.025-.002.793 1.03.006.005-.795zm-11.779 5.078-.004.792 3.966.016.004-.792zm5.552.021-.004.795 4.76.017.002-.792zm6.344.026-.004.794 1.033.004.004-.794zM31.6 270.088l-.004.793 3.965.015.004-.792zm5.552.022-.004.792 4.757.02.004-.793zm6.344.025-.004.792 1.032.004.004-.792zm-11.781 4.325-.002.794 3.965.015.002-.794zm5.552.023-.002.792 4.758.02.003-.795zm6.344.023-.002.794 1.032.004.002-.792zm-11.89 4.434-.004.792 3.965.016.004-.793zm5.552.021-.004.795 4.757.017.004-.792zm6.344.026-.004.792 1.032.006.004-.794zm-22.459 5.95a.737.737 0 1 0 .736 0l-.067.116a.602.602 0 1 1-.602 0zm.301-.21.134-.022v.736h-.134zm.537-2.665h-.078v-.156a.392.392 0 0 0-.783 0v.156h-.079a.157.157 0 0 0-.156.157v.783c0 .087.07.157.156.157h.94c.087 0 .157-.07.157-.157v-.783a.157.157 0 0 0-.157-.157m-.47-.399c.134 0 .243.109.243.243v.156h-.478v-.156h-.007c0-.134.108-.243.242-.243m.47 1.339h-.94v-.783h.94zm-.47-.235a.157.157 0 1 0 0-.313.157.157 0 0 0 0 .313m-.136-3.286.1.1.356-.355-.355-.356-.101.1.184.185h-.688v.142h.688zm.634-.896h-.996a.14.14 0 0 0-.142.143v.284h.142v-.284h.996v.996h-.996v-.285h-.142v.285c0 .079.064.142.142.142h.996a.14.14 0 0 0 .143-.142v-.996a.14.14 0 0 0-.143-.143m-.498 5.581a1.41 1.41 0 0 0-1.408 1.41 1.41 1.41 0 0 0 1.408 1.408 1.41 1.41 0 0 0 1.41-1.409 1.41 1.41 0 0 0-1.41-1.409m0 .264c.634 0 1.144.512 1.144 1.145 0 .634-.51 1.144-1.144 1.144s-1.143-.51-1.143-1.144.51-1.145 1.143-1.145m0-3.42a1.41 1.41 0 0 0-1.408 1.41 1.41 1.41 0 0 0 1.408 1.409 1.41 1.41 0 0 0 1.41-1.41 1.41 1.41 0 0 0-1.41-1.408m0 .264c.634 0 1.144.512 1.144 1.146s-.51 1.143-1.144 1.143-1.143-.51-1.143-1.143c0-.634.51-1.146 1.143-1.146m0-3.436a1.41 1.41 0 0 0-1.408 1.409 1.41 1.41 0 0 0 1.408 1.409 1.41 1.41 0 0 0 1.41-1.41 1.41 1.41 0 0 0-1.41-1.408m0 .265c.634 0 1.144.51 1.144 1.144s-.51 1.143-1.144 1.143-1.143-.51-1.143-1.143c0-.634.51-1.144 1.143-1.144m4.688-10.32a.124.124 0 0 0-.123.124v3.386c0 .068.054.124.123.124h3.08a.124.124 0 0 0 .122-.124v-3.386a.124.124 0 0 0-.123-.123zm0 4.06a.124.124 0 0 0-.123.123v3.387c0 .068.055.123.123.123h3.08a.124.124 0 0 0 .122-.123v-3.387a.124.124 0 0 0-.123-.123zm0 4.375a.124.124 0 0 0-.123.123v3.388c0 .067.055.122.123.123h3.08a.124.124 0 0 0 .122-.123v-3.388a.124.124 0 0 0-.123-.123zm0-26.099a.124.124 0 0 0-.123.125v3.386c0 .068.055.122.123.123h3.08a.124.124 0 0 0 .122-.123v-3.386a.124.124 0 0 0-.123-.125zm0 4.51a.124.124 0 0 0-.123.123v3.388c0 .068.055.122.123.123h3.08a.124.124 0 0 0 .122-.123v-3.388a.124.124 0 0 0-.123-.123zm0 4.432a.124.124 0 0 0-.123.123v3.387c0 .068.055.123.123.123h3.08a.124.124 0 0 0 .122-.123v-3.387a.124.124 0 0 0-.123-.123zm0 4.398a.124.124 0 0 0-.123.125v3.386c0 .069.054.125.123.125h3.08a.124.124 0 0 0 .122-.125v-3.386a.124.124 0 0 0-.123-.125zm0-17.926a.124.124 0 0 0-.123.123v3.388c0 .068.055.123.123.123h3.08a.124.124 0 0 0 .122-.123v-3.388a.124.124 0 0 0-.123-.123zm2.276 39.436a.144.144 0 0 0-.072.247l.575.576c.138.135.341-.072.203-.207l-.576-.575a.14.14 0 0 0-.13-.04zm-.476-1.152a.795.795 0 0 0-.793.792c0 .436.357.793.793.793a.795.795 0 0 0 .793-.793.795.795 0 0 0-.793-.792m0 .29a.5.5 0 0 1 .504.502.5.5 0 0 1-.504.504.5.5 0 0 1-.504-.504.5.5 0 0 1 .504-.502m-1.041 2.415v.263l17.938.053.002-.266zm0 .131 17.938.051m-20.676-47.573-.265.002.234 49.62.263-.003zM18.89 239a.13.13 0 0 0-.13.133v49.734a.13.13 0 0 0 .13.133h28.22a.13.13 0 0 0 .13-.133v-49.734a.13.13 0 0 0-.13-.133Zm.133.263h27.954v49.472H19.023Z" style="color:#000;font-style:normal;font-variant:normal;font-weight:400;font-stretch:normal;font-size:medium;line-height:normal;font-family:sans-serif;font-variant-ligatures:normal;font-variant-position:normal;font-variant-caps:normal;font-variant-numeric:normal;font-variant-alternates:normal;font-feature-settings:normal;text-indent:0;text-align:start;text-decoration:none;text-decoration-line:none;text-decoration-style:solid;text-decoration-color:#000;letter-spacing:normal;word-spacing:normal;text-transform:none;writing-mode:lr-tb;direction:ltr;text-orientation:mixed;dominant-baseline:auto;baseline-shift:baseline;text-anchor:start;white-space:normal;shape-padding:0;clip-rule:nonzero;display:inline;overflow:visible;visibility:visible;isolation:auto;mix-blend-mode:normal;color-interpolation:sRGB;color-interpolation-filters:linearRGB;solid-color:#000;solid-opacity:1;vector-effect:none;fill:#000;fill-opacity:1;fill-rule:nonzero;stroke:none;stroke-width:.999141;stroke-linecap:butt;stroke-linejoin:round;stroke-miterlimit:4;stroke-dasharray:none;stroke-dashoffset:0;stroke-opacity:1;color-rendering:auto;image-rendering:auto;shape-rendering:auto;text-rendering:auto" transform="translate(0 -231)"/></svg>