<svg xmlns="http://www.w3.org/2000/svg" width="66mm" height="66mm" viewBox="0 0 66 66"><path d="M.615 236.156a.137.137 0 0 0-.137.137v53.65a.137.137 0 0 0 .137.14h37.19a.137.137 0 0 0 .136-.14v-53.65a.137.137 0 0 0-.137-.137Zm.139.276h36.912v53.375H.754Z" style="color:#000;font-style:normal;font-variant:normal;font-weight:400;font-stretch:normal;font-size:medium;line-height:normal;font-family:sans-serif;font-variant-ligatures:normal;font-variant-position:normal;font-variant-caps:normal;font-variant-numeric:normal;font-variant-alternates:normal;font-feature-settings:normal;text-indent:0;text-align:start;text-decoration:none;text-decoration-line:none;text-decoration-style:solid;text-decoration-color:#000;letter-spacing:normal;word-spacing:normal;text-transform:none;writing-mode:lr-tb;direction:ltr;text-orientation:mixed;dominant-baseline:auto;baseline-shift:baseline;text-anchor:start;white-space:normal;shape-padding:0;clip-rule:nonzero;display:inline;overflow:visible;visibility:visible;isolation:auto;mix-blend-mode:normal;color-interpolation:sRGB;color-interpolation-filters:linearRGB;solid-color:#000;solid-opacity:1;fill:#000;fill-opacity:1;fill-rule:nonzero;stroke:none;stroke-width:1;stroke-linecap:butt;stroke-linejoin:round;stroke-miterlimit:4;stroke-dasharray:none;stroke-dashoffset:0;stroke-opacity:1;color-rendering:auto;image-rendering:auto;shape-rendering:auto;text-rendering:auto" transform="translate(15.189 -210.964)scale(.9272)"/><path d="M33.256 285.064c-.693 0-1.257.564-1.257 1.257s.564 1.257 1.257 1.257 1.257-.564 1.257-1.257-.564-1.257-1.257-1.257m0 .237c.565 0 1.02.455 1.02 1.02s-.455 1.02-1.02 1.02a1.02 1.02 0 1 1 0-2.04" style="color:#000;font-style:normal;font-variant:normal;font-weight:400;font-stretch:normal;font-size:medium;line-height:normal;font-family:sans-serif;font-variant-ligatures:normal;font-variant-position:normal;font-variant-caps:normal;font-variant-numeric:normal;font-variant-alternates:normal;font-feature-settings:normal;text-indent:0;text-align:start;text-decoration:none;text-decoration-line:none;text-decoration-style:solid;text-decoration-color:#000;letter-spacing:normal;word-spacing:normal;text-transform:none;writing-mode:lr-tb;direction:ltr;text-orientation:mixed;dominant-baseline:auto;baseline-shift:baseline;text-anchor:start;white-space:normal;shape-padding:0;clip-rule:nonzero;display:inline;overflow:visible;visibility:visible;isolation:auto;mix-blend-mode:normal;color-interpolation:sRGB;color-interpolation-filters:linearRGB;solid-color:#000;solid-opacity:1;fill:#000;fill-opacity:1;fill-rule:nonzero;stroke:none;stroke-width:.891367;stroke-linecap:butt;stroke-linejoin:round;stroke-miterlimit:4;stroke-dasharray:none;stroke-dashoffset:0;stroke-opacity:1;color-rendering:auto;image-rendering:auto;shape-rendering:auto;text-rendering:auto" transform="translate(15.189 -210.964)scale(.9272)"/><path d="m33.196 285.564.12-.02v.657h-.12z" style="color:#000;display:inline;overflow:visible;visibility:visible;fill:#000;fill-opacity:1;stroke:none;stroke-width:.1791;marker:none" transform="translate(15.189 -210.964)scale(.9272)"/><path d="M32.927 285.752a.657.657 0 1 0 .657 0l-.06.103a.537.537 0 1 1-.537 0z" style="color:#000;font-style:normal;font-variant:normal;font-weight:400;font-stretch:normal;font-size:medium;line-height:normal;font-family:sans-serif;font-variant-ligatures:normal;font-variant-position:normal;font-variant-caps:normal;font-variant-numeric:normal;font-variant-alternates:normal;font-feature-settings:normal;text-indent:0;text-align:start;text-decoration:none;text-decoration-line:none;text-decoration-style:solid;text-decoration-color:#000;letter-spacing:normal;word-spacing:normal;text-transform:none;writing-mode:lr-tb;direction:ltr;text-orientation:mixed;dominant-baseline:auto;baseline-shift:baseline;text-anchor:start;white-space:normal;shape-padding:0;clip-rule:nonzero;display:inline;overflow:visible;visibility:visible;isolation:auto;mix-blend-mode:normal;color-interpolation:sRGB;color-interpolation-filters:linearRGB;solid-color:#000;solid-opacity:1;fill:#000;fill-opacity:1;fill-rule:nonzero;stroke:none;stroke-width:.0752124;stroke-linecap:butt;stroke-linejoin:round;stroke-miterlimit:4;stroke-dasharray:none;stroke-dashoffset:0;stroke-opacity:1;marker:none;color-rendering:auto;image-rendering:auto;shape-rendering:auto;text-rendering:auto" transform="translate(15.189 -210.964)scale(.9272)"/><g style="fill:#000;fill-opacity:1;stroke:none"><path d="m1.78 281.988 35.278.051" style="color:#000;font-style:normal;font-variant:normal;font-weight:400;font-stretch:normal;font-size:medium;line-height:normal;font-family:sans-serif;font-variant-ligatures:normal;font-variant-position:normal;font-variant-caps:normal;font-variant-numeric:normal;font-variant-alternates:normal;font-feature-settings:normal;text-indent:0;text-align:start;text-decoration:none;text-decoration-line:none;text-decoration-style:solid;text-decoration-color:#000;letter-spacing:normal;word-spacing:normal;text-transform:none;writing-mode:lr-tb;direction:ltr;text-orientation:mixed;dominant-baseline:auto;baseline-shift:baseline;text-anchor:start;white-space:normal;shape-padding:0;clip-rule:nonzero;display:inline;overflow:visible;visibility:visible;isolation:auto;mix-blend-mode:normal;color-interpolation:sRGB;color-interpolation-filters:linearRGB;solid-color:#000;solid-opacity:1;fill:#000;fill-opacity:1;fill-rule:evenodd;stroke:none;stroke-width:.372354;stroke-linecap:butt;stroke-linejoin:miter;stroke-miterlimit:4;stroke-dasharray:none;stroke-dashoffset:0;stroke-opacity:1;color-rendering:auto;image-rendering:auto;shape-rendering:auto;text-rendering:auto" transform="translate(14.995 -210.506)scale(.9272)"/><path d="M1.781 281.803v.37l35.276.052.002-.371z" style="color:#000;font-style:normal;font-variant:normal;font-weight:400;font-stretch:normal;font-size:medium;line-height:normal;font-family:sans-serif;font-variant-ligatures:normal;font-variant-position:normal;font-variant-caps:normal;font-variant-numeric:normal;font-variant-alternates:normal;font-feature-settings:normal;text-indent:0;text-align:start;text-decoration:none;text-decoration-line:none;text-decoration-style:solid;text-decoration-color:#000;letter-spacing:normal;word-spacing:normal;text-transform:none;writing-mode:lr-tb;direction:ltr;text-orientation:mixed;dominant-baseline:auto;baseline-shift:baseline;text-anchor:start;white-space:normal;shape-padding:0;clip-rule:nonzero;display:inline;overflow:visible;visibility:visible;isolation:auto;mix-blend-mode:normal;color-interpolation:sRGB;color-interpolation-filters:linearRGB;solid-color:#000;solid-opacity:1;fill:#000;fill-opacity:1;fill-rule:evenodd;stroke:none;stroke-linecap:butt;stroke-linejoin:miter;stroke-miterlimit:4;stroke-dasharray:none;stroke-dashoffset:0;stroke-opacity:1;color-rendering:auto;image-rendering:auto;shape-rendering:auto;text-rendering:auto" transform="translate(14.995 -210.506)scale(.9272)"/></g><path d="M27.132 286.81a.98.98 0 0 0-1.695-.98.98.98 0 0 0 1.695.98m-.29-.167a.64.64 0 0 1-.878.234.641.641 0 1 1 .642-1.113c.31.18.414.57.236.879" style="color:#000;font-style:normal;font-variant:normal;font-weight:400;font-stretch:normal;font-size:medium;line-height:normal;font-family:sans-serif;font-variant-ligatures:normal;font-variant-position:normal;font-variant-caps:normal;font-variant-numeric:normal;font-variant-alternates:normal;font-feature-settings:normal;text-indent:0;text-align:start;text-decoration:none;text-decoration-line:none;text-decoration-style:solid;text-decoration-color:#000;letter-spacing:normal;word-spacing:normal;text-transform:none;writing-mode:lr-tb;direction:ltr;text-orientation:mixed;dominant-baseline:auto;baseline-shift:baseline;text-anchor:start;white-space:normal;shape-padding:0;clip-rule:nonzero;display:inline;overflow:visible;visibility:visible;isolation:auto;mix-blend-mode:normal;color-interpolation:sRGB;color-interpolation-filters:linearRGB;solid-color:#000;solid-opacity:1;fill:#000;fill-opacity:1;fill-rule:nonzero;stroke:none;stroke-width:.105556;stroke-linecap:butt;stroke-linejoin:miter;stroke-miterlimit:4;stroke-dasharray:none;stroke-dashoffset:0;stroke-opacity:1;marker:none;color-rendering:auto;image-rendering:auto;shape-rendering:auto;text-rendering:auto" transform="translate(15.189 -210.964)scale(.9272)"/><path d="m26.48 285.12-.39.058v.39h.39zm.709.427-.301-.249-.269.32.3.251zm.285.763-.07-.385-.411.072.068.385zm-.271.767.194-.34-.362-.209-.196.339zm-.701.413.367-.136-.143-.392-.367.133zm-.802-.134.368.132.143-.393-.368-.133zm-.53-.618.198.337.362-.208-.195-.339zm-.007-.814-.065.386.411.072.068-.385zm.517-.628-.298.253.269.32.3-.251z" style="color:#000;display:inline;overflow:visible;visibility:visible;fill:#000;fill-opacity:1;fill-rule:nonzero;stroke:none;stroke-width:.0558566;marker:none" transform="translate(15.189 -210.964)scale(.9272)"/><g style="fill:#000;fill-opacity:1;stroke:none"><path d="m1.78 244.378 35.278.051" style="color:#000;font-style:normal;font-variant:normal;font-weight:400;font-stretch:normal;font-size:medium;line-height:normal;font-family:sans-serif;font-variant-ligatures:normal;font-variant-position:normal;font-variant-caps:normal;font-variant-numeric:normal;font-variant-alternates:normal;font-feature-settings:normal;text-indent:0;text-align:start;text-decoration:none;text-decoration-line:none;text-decoration-style:solid;text-decoration-color:#000;letter-spacing:normal;word-spacing:normal;text-transform:none;writing-mode:lr-tb;direction:ltr;text-orientation:mixed;dominant-baseline:auto;baseline-shift:baseline;text-anchor:start;white-space:normal;shape-padding:0;clip-rule:nonzero;display:inline;overflow:visible;visibility:visible;isolation:auto;mix-blend-mode:normal;color-interpolation:sRGB;color-interpolation-filters:linearRGB;solid-color:#000;solid-opacity:1;fill:#000;fill-opacity:1;fill-rule:evenodd;stroke:none;stroke-width:.372353;stroke-linecap:butt;stroke-linejoin:miter;stroke-miterlimit:4;stroke-dasharray:none;stroke-dashoffset:0;stroke-opacity:1;color-rendering:auto;image-rendering:auto;shape-rendering:auto;text-rendering:auto" transform="translate(14.995 -210.506)scale(.9272)"/><path d="M1.781 244.191v.373l35.276.051.002-.373z" style="color:#000;font-style:normal;font-variant:normal;font-weight:400;font-stretch:normal;font-size:medium;line-height:normal;font-family:sans-serif;font-variant-ligatures:normal;font-variant-position:normal;font-variant-caps:normal;font-variant-numeric:normal;font-variant-alternates:normal;font-feature-settings:normal;text-indent:0;text-align:start;text-decoration:none;text-decoration-line:none;text-decoration-style:solid;text-decoration-color:#000;letter-spacing:normal;word-spacing:normal;text-transform:none;writing-mode:lr-tb;direction:ltr;text-orientation:mixed;dominant-baseline:auto;baseline-shift:baseline;text-anchor:start;white-space:normal;shape-padding:0;clip-rule:nonzero;display:inline;overflow:visible;visibility:visible;isolation:auto;mix-blend-mode:normal;color-interpolation:sRGB;color-interpolation-filters:linearRGB;solid-color:#000;solid-opacity:1;fill:#000;fill-opacity:1;fill-rule:evenodd;stroke:none;stroke-linecap:butt;stroke-linejoin:miter;stroke-miterlimit:4;stroke-dasharray:none;stroke-dashoffset:0;stroke-opacity:1;color-rendering:auto;image-rendering:auto;shape-rendering:auto;text-rendering:auto" transform="translate(14.995 -210.506)scale(.9272)"/></g><path d="M5.697 240.973a3 3 0 0 1-.331.4c-.2.198-.471.435-.471.435s-.287-.233-.474-.435a3 3 0 0 1-.33-.399l-.014.005q-.382.145-.676.386v.751h2.985v-.751a2.4 2.4 0 0 0-.672-.386z" style="font-style:normal;font-variant:normal;font-weight:400;font-stretch:normal;font-size:15.003px;line-height:125%;font-family:Ubuntu;-inkscape-font-specification:Ubuntu;text-align:center;letter-spacing:0;word-spacing:0;writing-mode:lr-tb;text-anchor:middle;fill:#000;fill-opacity:1;stroke:none;stroke-width:.0382565" transform="translate(15.189 -210.964)scale(.9272)"/><path d="M4.894 239.133c-.237 0-.465.1-.632.276a.97.97 0 0 0-.262.665c0 .096.01.206.054.318.118.291.294.518.455.692q.068.077.146.152h.471q.079-.076.152-.152c.16-.175.337-.4.455-.692a.8.8 0 0 0 .054-.318.97.97 0 0 0-.262-.665.87.87 0 0 0-.631-.276" style="font-style:normal;font-variant:normal;font-weight:400;font-stretch:normal;font-size:121.63px;line-height:125%;font-family:Ubuntu;-inkscape-font-specification:Ubuntu;text-align:center;letter-spacing:0;word-spacing:0;writing-mode:lr-tb;text-anchor:middle;fill:#000;fill-opacity:1;stroke:none;stroke-width:.0382565" transform="translate(15.189 -210.964)scale(.9272)"/><path d="M4.893 237.903a2.72 2.72 0 1 0 .004 5.441 2.72 2.72 0 0 0-.004-5.44m0 .15a2.57 2.57 0 1 1 0 5.141 2.57 2.57 0 1 1 0-5.14" style="color:#000;font-style:normal;font-variant:normal;font-weight:400;font-stretch:normal;font-size:medium;line-height:normal;font-family:sans-serif;font-variant-ligatures:normal;font-variant-position:normal;font-variant-caps:normal;font-variant-numeric:normal;font-variant-alternates:normal;font-feature-settings:normal;text-indent:0;text-align:start;text-decoration:none;text-decoration-line:none;text-decoration-style:solid;text-decoration-color:#000;letter-spacing:normal;word-spacing:normal;text-transform:none;writing-mode:lr-tb;direction:ltr;text-orientation:mixed;dominant-baseline:auto;baseline-shift:baseline;text-anchor:start;white-space:normal;shape-padding:0;clip-rule:nonzero;display:inline;overflow:visible;visibility:visible;isolation:auto;mix-blend-mode:normal;color-interpolation:sRGB;color-interpolation-filters:linearRGB;solid-color:#000;solid-opacity:1;fill:#000;fill-opacity:1;fill-rule:nonzero;stroke:none;stroke-width:1;stroke-linecap:butt;stroke-linejoin:round;stroke-miterlimit:4;stroke-dasharray:none;stroke-dashoffset:0;stroke-opacity:1;color-rendering:auto;image-rendering:auto;shape-rendering:auto;text-rendering:auto" transform="translate(15.189 -210.964)scale(.9272)"/><g style="fill:#000;fill-opacity:1;stroke:none"><path d="M1.722.272C.92.272.264.928.264 1.728S.92 3.185 1.722 3.185s1.457-.656 1.457-1.457c0-.8-.656-1.456-1.457-1.456m0 .532a.92.92 0 0 1 .926.924.92.92 0 0 1-.926.925.92.92 0 0 1-.926-.925.92.92 0 0 1 .926-.924" style="fill:#000;fill-opacity:1;stroke:none;stroke-width:.264583" transform="translate(24.201 12.396)scale(.35322)"/><path d="M2.596 2.39a.265.265 0 0 0-.132.454l1.058 1.059a.266.266 0 1 0 .372-.38l-1.058-1.06a.27.27 0 0 0-.24-.073" style="fill:#000;fill-opacity:1;stroke:none;stroke-width:.264583" transform="translate(24.201 12.396)scale(.35322)"/></g><g style="fill:#000;fill-opacity:1;stroke:none"><g style="opacity:1;fill:#000;fill-opacity:1;stroke:none"><path d="m9.74 253.177 40.783.05" style="color:#000;font-style:normal;font-variant:normal;font-weight:400;font-stretch:normal;font-size:medium;line-height:normal;font-family:sans-serif;font-variant-ligatures:normal;font-variant-position:normal;font-variant-caps:normal;font-variant-numeric:normal;font-variant-alternates:normal;font-feature-settings:normal;text-indent:0;text-align:start;text-decoration:none;text-decoration-line:none;text-decoration-style:solid;text-decoration-color:#000;letter-spacing:normal;word-spacing:normal;text-transform:none;writing-mode:lr-tb;direction:ltr;text-orientation:mixed;dominant-baseline:auto;baseline-shift:baseline;text-anchor:start;white-space:normal;shape-padding:0;clip-rule:nonzero;display:inline;overflow:visible;visibility:visible;isolation:auto;mix-blend-mode:normal;color-interpolation:sRGB;color-interpolation-filters:linearRGB;solid-color:#000;solid-opacity:1;fill:#000;fill-opacity:1;fill-rule:evenodd;stroke:none;stroke-width:.133189;stroke-linecap:butt;stroke-linejoin:miter;stroke-miterlimit:4;stroke-dasharray:none;stroke-dashoffset:0;stroke-opacity:1;color-rendering:auto;image-rendering:auto;shape-rendering:auto;text-rendering:auto" transform="matrix(.58704 0 0 .81097 18.1 -191.121)"/><path d="M9.74 253.111v.133l40.783.05v-.134z" style="color:#000;font-style:normal;font-variant:normal;font-weight:400;font-stretch:normal;font-size:medium;line-height:normal;font-family:sans-serif;font-variant-ligatures:normal;font-variant-position:normal;font-variant-caps:normal;font-variant-numeric:normal;font-variant-alternates:normal;font-feature-settings:normal;text-indent:0;text-align:start;text-decoration:none;text-decoration-line:none;text-decoration-style:solid;text-decoration-color:#000;letter-spacing:normal;word-spacing:normal;text-transform:none;writing-mode:lr-tb;direction:ltr;text-orientation:mixed;dominant-baseline:auto;baseline-shift:baseline;text-anchor:start;white-space:normal;shape-padding:0;clip-rule:nonzero;display:inline;overflow:visible;visibility:visible;isolation:auto;mix-blend-mode:normal;color-interpolation:sRGB;color-interpolation-filters:linearRGB;solid-color:#000;solid-opacity:1;fill:#000;fill-opacity:1;fill-rule:evenodd;stroke:none;stroke-linecap:butt;stroke-linejoin:miter;stroke-miterlimit:4;stroke-dasharray:none;stroke-dashoffset:0;stroke-opacity:1;color-rendering:auto;image-rendering:auto;shape-rendering:auto;text-rendering:auto" transform="matrix(.58704 0 0 .81097 18.1 -191.121)"/></g><g style="opacity:1;fill:#000;fill-opacity:1;stroke:none"><path d="m9.812 250.532 40.71.05" style="color:#000;font-style:normal;font-variant:normal;font-weight:400;font-stretch:normal;font-size:medium;line-height:normal;font-family:sans-serif;font-variant-ligatures:normal;font-variant-position:normal;font-variant-caps:normal;font-variant-numeric:normal;font-variant-alternates:normal;font-feature-settings:normal;text-indent:0;text-align:start;text-decoration:none;text-decoration-line:none;text-decoration-style:solid;text-decoration-color:#000;letter-spacing:normal;word-spacing:normal;text-transform:none;writing-mode:lr-tb;direction:ltr;text-orientation:mixed;dominant-baseline:auto;baseline-shift:baseline;text-anchor:start;white-space:normal;shape-padding:0;clip-rule:nonzero;display:inline;overflow:visible;visibility:visible;isolation:auto;mix-blend-mode:normal;color-interpolation:sRGB;color-interpolation-filters:linearRGB;solid-color:#000;solid-opacity:1;fill:#000;fill-opacity:1;fill-rule:evenodd;stroke:none;stroke-width:.132662;stroke-linecap:butt;stroke-linejoin:miter;stroke-miterlimit:4;stroke-dasharray:none;stroke-dashoffset:0;stroke-opacity:1;color-rendering:auto;image-rendering:auto;shape-rendering:auto;text-rendering:auto" transform="matrix(.58704 0 0 .81097 18.1 -191.121)"/><path d="M9.813 250.465v.133l40.71.05v-.132z" style="color:#000;font-style:normal;font-variant:normal;font-weight:400;font-stretch:normal;font-size:medium;line-height:normal;font-family:sans-serif;font-variant-ligatures:normal;font-variant-position:normal;font-variant-caps:normal;font-variant-numeric:normal;font-variant-alternates:normal;font-feature-settings:normal;text-indent:0;text-align:start;text-decoration:none;text-decoration-line:none;text-decoration-style:solid;text-decoration-color:#000;letter-spacing:normal;word-spacing:normal;text-transform:none;writing-mode:lr-tb;direction:ltr;text-orientation:mixed;dominant-baseline:auto;baseline-shift:baseline;text-anchor:start;white-space:normal;shape-padding:0;clip-rule:nonzero;display:inline;overflow:visible;visibility:visible;isolation:auto;mix-blend-mode:normal;color-interpolation:sRGB;color-interpolation-filters:linearRGB;solid-color:#000;solid-opacity:1;fill:#000;fill-opacity:1;fill-rule:evenodd;stroke:none;stroke-linecap:butt;stroke-linejoin:miter;stroke-miterlimit:4;stroke-dasharray:none;stroke-dashoffset:0;stroke-opacity:1;color-rendering:auto;image-rendering:auto;shape-rendering:auto;text-rendering:auto" transform="matrix(.58704 0 0 .81097 18.1 -191.121)"/></g><g style="opacity:1;fill:#000;fill-opacity:1;stroke:none"><path d="m50.568 250.52-.046 2.707" style="color:#000;font-style:normal;font-variant:normal;font-weight:400;font-stretch:normal;font-size:medium;line-height:normal;font-family:sans-serif;font-variant-ligatures:normal;font-variant-position:normal;font-variant-caps:normal;font-variant-numeric:normal;font-variant-alternates:normal;font-feature-settings:normal;text-indent:0;text-align:start;text-decoration:none;text-decoration-line:none;text-decoration-style:solid;text-decoration-color:#000;letter-spacing:normal;word-spacing:normal;text-transform:none;writing-mode:lr-tb;direction:ltr;text-orientation:mixed;dominant-baseline:auto;baseline-shift:baseline;text-anchor:start;white-space:normal;shape-padding:0;clip-rule:nonzero;display:inline;overflow:visible;visibility:visible;isolation:auto;mix-blend-mode:normal;color-interpolation:sRGB;color-interpolation-filters:linearRGB;solid-color:#000;solid-opacity:1;fill:#000;fill-opacity:1;fill-rule:evenodd;stroke:none;stroke-width:.103723;stroke-linecap:butt;stroke-linejoin:miter;stroke-miterlimit:4;stroke-dasharray:none;stroke-dashoffset:0;stroke-opacity:1;color-rendering:auto;image-rendering:auto;shape-rendering:auto;text-rendering:auto" transform="matrix(.58704 0 0 .81097 18.1 -191.121)"/><path d="m50.516 250.52-.045 2.707.103.002.045-2.71z" style="color:#000;font-style:normal;font-variant:normal;font-weight:400;font-stretch:normal;font-size:medium;line-height:normal;font-family:sans-serif;font-variant-ligatures:normal;font-variant-position:normal;font-variant-caps:normal;font-variant-numeric:normal;font-variant-alternates:normal;font-feature-settings:normal;text-indent:0;text-align:start;text-decoration:none;text-decoration-line:none;text-decoration-style:solid;text-decoration-color:#000;letter-spacing:normal;word-spacing:normal;text-transform:none;writing-mode:lr-tb;direction:ltr;text-orientation:mixed;dominant-baseline:auto;baseline-shift:baseline;text-anchor:start;white-space:normal;shape-padding:0;clip-rule:nonzero;display:inline;overflow:visible;visibility:visible;isolation:auto;mix-blend-mode:normal;color-interpolation:sRGB;color-interpolation-filters:linearRGB;solid-color:#000;solid-opacity:1;fill:#000;fill-opacity:1;fill-rule:evenodd;stroke:none;stroke-linecap:butt;stroke-linejoin:miter;stroke-miterlimit:4;stroke-dasharray:none;stroke-dashoffset:0;stroke-opacity:1;color-rendering:auto;image-rendering:auto;shape-rendering:auto;text-rendering:auto" transform="matrix(.58704 0 0 .81097 18.1 -191.121)"/></g><g style="opacity:1;fill:#000;fill-opacity:1;stroke:none"><path d="m9.822 250.52-.046 2.707" style="color:#000;font-style:normal;font-variant:normal;font-weight:400;font-stretch:normal;font-size:medium;line-height:normal;font-family:sans-serif;font-variant-ligatures:normal;font-variant-position:normal;font-variant-caps:normal;font-variant-numeric:normal;font-variant-alternates:normal;font-feature-settings:normal;text-indent:0;text-align:start;text-decoration:none;text-decoration-line:none;text-decoration-style:solid;text-decoration-color:#000;letter-spacing:normal;word-spacing:normal;text-transform:none;writing-mode:lr-tb;direction:ltr;text-orientation:mixed;dominant-baseline:auto;baseline-shift:baseline;text-anchor:start;white-space:normal;shape-padding:0;clip-rule:nonzero;display:inline;overflow:visible;visibility:visible;isolation:auto;mix-blend-mode:normal;color-interpolation:sRGB;color-interpolation-filters:linearRGB;solid-color:#000;solid-opacity:1;fill:#000;fill-opacity:1;fill-rule:evenodd;stroke:none;stroke-width:.103723;stroke-linecap:butt;stroke-linejoin:miter;stroke-miterlimit:4;stroke-dasharray:none;stroke-dashoffset:0;stroke-opacity:1;color-rendering:auto;image-rendering:auto;shape-rendering:auto;text-rendering:auto" transform="matrix(.58704 0 0 .81097 18.1 -191.121)"/><path d="m9.77 250.52-.045 2.707.103.002.045-2.71z" style="color:#000;font-style:normal;font-variant:normal;font-weight:400;font-stretch:normal;font-size:medium;line-height:normal;font-family:sans-serif;font-variant-ligatures:normal;font-variant-position:normal;font-variant-caps:normal;font-variant-numeric:normal;font-variant-alternates:normal;font-feature-settings:normal;text-indent:0;text-align:start;text-decoration:none;text-decoration-line:none;text-decoration-style:solid;text-decoration-color:#000;letter-spacing:normal;word-spacing:normal;text-transform:none;writing-mode:lr-tb;direction:ltr;text-orientation:mixed;dominant-baseline:auto;baseline-shift:baseline;text-anchor:start;white-space:normal;shape-padding:0;clip-rule:nonzero;display:inline;overflow:visible;visibility:visible;isolation:auto;mix-blend-mode:normal;color-interpolation:sRGB;color-interpolation-filters:linearRGB;solid-color:#000;solid-opacity:1;fill:#000;fill-opacity:1;fill-rule:evenodd;stroke:none;stroke-linecap:butt;stroke-linejoin:miter;stroke-miterlimit:4;stroke-dasharray:none;stroke-dashoffset:0;stroke-opacity:1;color-rendering:auto;image-rendering:auto;shape-rendering:auto;text-rendering:auto" transform="matrix(.58704 0 0 .81097 18.1 -191.121)"/></g></g><path d="m9.527 238.838-.002.264 5.16.052.004-.263zm6.578 0-.002.264 5.16.052.004-.263z" style="color:#000;font-style:normal;font-variant:normal;font-weight:400;font-stretch:normal;font-size:medium;line-height:normal;font-family:sans-serif;font-variant-ligatures:normal;font-variant-position:normal;font-variant-caps:normal;font-variant-numeric:normal;font-variant-alternates:normal;font-feature-settings:normal;text-indent:0;text-align:start;text-decoration:none;text-decoration-line:none;text-decoration-style:solid;text-decoration-color:#000;letter-spacing:normal;word-spacing:normal;text-transform:none;writing-mode:lr-tb;direction:ltr;text-orientation:mixed;dominant-baseline:auto;baseline-shift:baseline;text-anchor:start;white-space:normal;shape-padding:0;clip-rule:nonzero;display:inline;overflow:visible;visibility:visible;isolation:auto;mix-blend-mode:normal;color-interpolation:sRGB;color-interpolation-filters:linearRGB;solid-color:#000;solid-opacity:1;fill:#000;fill-opacity:1;fill-rule:evenodd;stroke:none;stroke-width:1;stroke-linecap:butt;stroke-linejoin:miter;stroke-miterlimit:4;stroke-dasharray:6.35,6.35;stroke-dashoffset:.413173;stroke-opacity:1;color-rendering:auto;image-rendering:auto;shape-rendering:auto;text-rendering:auto" transform="translate(15.189 -210.964)scale(.9272)"/><g style="fill:#000;fill-opacity:1;stroke:none"><path d="m7.916 275.15-.004.795 3.969.016.004-.795zm5.557.024-.004.793 4.761.02.004-.796zm6.35.023-.005.795 1.034.004.003-.793zm-17.134-1.273a.117.117 0 0 0-.117.117v3.064c0 .065.053.118.117.118h3.065a.117.117 0 0 0 .119-.118v-3.064a.117.117 0 0 0-.12-.117zm5.227-3.272-.003.793 3.968.018.004-.795zm5.555.021-.002.795 4.762.018.004-.793zm6.35.026-.002.795 1.033.004.002-.795zM2.69 269.425a.117.117 0 0 0-.117.118v3.064c0 .065.052.117.117.117h3.064a.117.117 0 0 0 .118-.117v-3.064a.117.117 0 0 0-.118-.118zm5.226-3.273-.004.795 3.97.016.003-.793zm5.555.024-.002.793 4.762.02.004-.796zm6.352.025-.004.793 1.033.004.002-.793zM2.69 264.926a.117.117 0 0 0-.117.117v3.066c0 .065.052.118.117.118h3.064a.117.117 0 0 0 .117-.118v-3.066a.117.117 0 0 0-.117-.117zm5.225-3.272-.002.795 3.969.016.002-.795zm5.557.024-.002.793 4.761.019.004-.795zm6.35.025-.003.793 1.033.004.002-.793zM2.69 260.428a.117.117 0 0 0-.117.117v3.064c0 .065.053.117.117.117h3.065a.117.117 0 0 0 .117-.117v-3.064a.117.117 0 0 0-.117-.117zm5.226-3.271-.004.793 3.969.015.004-.793zm5.557.021-.004.793 4.762.02.003-.793zm6.35.026-.005.793 1.034.004.004-.793zM2.69 255.928a.117.117 0 0 0-.118.117v3.067c0 .065.053.117.118.117h3.064a.117.117 0 0 0 .12-.117v-3.067a.117.117 0 0 0-.12-.117zm5.226-3.272-.004.795 3.968.016.004-.793zm5.556.024-.004.793 4.762.02.004-.794zm6.35.025-.004.793 1.033.004.004-.793zM2.689 251.43a.117.117 0 0 0-.117.117v3.066c0 .065.052.117.117.117h3.066a.117.117 0 0 0 .118-.117v-3.066a.117.117 0 0 0-.118-.117z" style="color:#000;font-style:normal;font-variant:normal;font-weight:400;font-stretch:normal;font-size:medium;line-height:normal;font-family:sans-serif;font-variant-ligatures:normal;font-variant-position:normal;font-variant-caps:normal;font-variant-numeric:normal;font-variant-alternates:normal;font-feature-settings:normal;text-indent:0;text-align:start;text-decoration:none;text-decoration-line:none;text-decoration-style:solid;text-decoration-color:#000;letter-spacing:normal;word-spacing:normal;text-transform:none;writing-mode:lr-tb;direction:ltr;text-orientation:mixed;dominant-baseline:auto;baseline-shift:baseline;text-anchor:start;white-space:normal;shape-padding:0;clip-rule:nonzero;display:inline;overflow:visible;visibility:visible;opacity:1;isolation:auto;mix-blend-mode:normal;color-interpolation:sRGB;color-interpolation-filters:linearRGB;solid-color:#000;solid-opacity:1;fill:#000;fill-opacity:1;fill-rule:evenodd;stroke:none;stroke-linecap:butt;stroke-linejoin:miter;stroke-miterlimit:4;stroke-dasharray:4.7625,1.5875;stroke-dashoffset:.79375;stroke-opacity:1;color-rendering:auto;image-rendering:auto;shape-rendering:auto;text-rendering:auto" transform="translate(15.8 -211.978)scale(.9272)"/></g><path d="M11.245 285.066a.156.156 0 0 0-.157.157v.784c0 .087.07.157.157.157h.784c.087 0 .157-.07.157-.157v-.784a.156.156 0 0 0-.157-.157zm.157.47h.47v.314h-.47zm1.098-.47a.156.156 0 0 0-.157.157v.784c0 .087.07.157.157.157h.784c.087 0 .156-.07.156-.157v-.784a.156.156 0 0 0-.156-.157zm.156.47h.47v.314h-.47zm-1.411.784a.156.156 0 0 0-.157.157v.785c0 .086.07.156.157.156h.784c.087 0 .157-.07.157-.156v-.785a.156.156 0 0 0-.157-.156zm.157.471h.47v.314h-.47zm1.098-.471a.156.156 0 0 0-.157.157v.785c0 .086.07.156.157.156h.784c.087 0 .156-.07.156-.156v-.785a.156.156 0 0 0-.156-.156zm.156.471h.47v.314h-.47z" style="fill:#000;fill-opacity:1;stroke:none;stroke-width:.157001;stroke-linecap:round;stroke-linejoin:round;stroke-miterlimit:4;stroke-dasharray:none;stroke-dashoffset:0;stroke-opacity:1" transform="translate(15.189 -210.964)scale(.9272)"/><g style="display:inline;fill:#000;fill-opacity:1;stroke:none"><path d="M8 280h16v16H8Z" style="opacity:.02;fill:#000;fill-opacity:1;stroke:none" transform="translate(30.766 12.555)scale(.14569)"/><path d="M11 281c-1.662 0-3 1.338-3 3v7c0 1.662 1.338 3 3 3h10c1.662 0 3-1.338 3-3v-7c0-1.662-1.338-3-3-3zm0 2h10c.554 0 1 .446 1 1v7c0 .554-.446 1-1 1H11c-.554 0-1-.446-1-1v-7c0-.554.446-1 1-1m5 13c3 0 4-1 4-1h-8s1 1 4 1" style="fill:#000;fill-opacity:1;stroke:none" transform="translate(30.766 12.555)scale(.14569)"/></g><g style="fill:#000;fill-opacity:1;stroke:none"><path d="M17.337 14.274h29.529c.909 0 1.64.731 1.64 1.64v6.562c0 .909-.731 1.64-1.64 1.64H17.337c-.908 0-1.64-.731-1.64-1.64v-6.562c0-.909.732-1.64 1.64-1.64m22.967 13.123h6.562c.909 0 1.64.732 1.64 1.64v16.406c0 .908-.731 1.64-1.64 1.64h-6.562c-.909 0-1.64-.732-1.64-1.64V29.038c0-.909.731-1.64 1.64-1.64m-22.967-.001h16.405c.909 0 1.64.732 1.64 1.64v16.406c0 .908-.731 1.64-1.64 1.64H17.337c-.908 0-1.64-.732-1.64-1.64V29.038c0-.909.732-1.64 1.64-1.64" style="color:#000;font-style:normal;font-variant:normal;font-weight:400;font-stretch:normal;font-size:medium;line-height:normal;font-family:sans-serif;font-variant-ligatures:normal;font-variant-position:normal;font-variant-caps:normal;font-variant-numeric:normal;font-variant-alternates:normal;font-feature-settings:normal;text-indent:0;text-align:start;text-decoration:none;text-decoration-line:none;text-decoration-style:solid;text-decoration-color:#000;letter-spacing:normal;word-spacing:normal;text-transform:none;writing-mode:lr-tb;direction:ltr;text-orientation:mixed;dominant-baseline:auto;baseline-shift:baseline;text-anchor:start;white-space:normal;shape-padding:0;clip-rule:nonzero;display:inline;overflow:visible;visibility:visible;opacity:1;isolation:auto;mix-blend-mode:normal;color-interpolation:sRGB;color-interpolation-filters:linearRGB;solid-color:#000;solid-opacity:1;fill:#000;fill-opacity:1;fill-rule:nonzero;stroke:none;stroke-width:1.64048;stroke-linecap:butt;stroke-linejoin:miter;stroke-miterlimit:4;stroke-dasharray:none;stroke-dashoffset:0;stroke-opacity:1;color-rendering:auto;image-rendering:auto;shape-rendering:auto;text-rendering:auto" transform="translate(17.89 52.333)scale(.07105)"/></g></svg>