<svg xmlns="http://www.w3.org/2000/svg" width="350" height="350"><path d="M75.23 29.883c-15.021 0-27.207 12.189-27.207 27.21v235.813c0 15.022 12.186 27.211 27.207 27.211h199.536c15.021 0 27.21-12.189 27.21-27.21V57.093c0-15.022-12.189-27.211-27.21-27.211zm6.803 27.21h185.93c3.741 0 6.803 3.062 6.803 6.803v176.86c0 3.741-3.062 6.8-6.803 6.8H82.033c-3.741 0-6.803-3.059-6.803-6.8V63.896c0-3.74 3.062-6.802 6.803-6.802M175 268.093A16.91 16.91 0 0 1 191.908 285 16.91 16.91 0 0 1 175 301.908 16.91 16.91 0 0 1 158.092 285 16.91 16.91 0 0 1 175 268.092" style="fill:#383a3c;fill-opacity:1;stroke:none;stroke-width:1.21617;stroke-opacity:1"/></svg>