<svg xmlns="http://www.w3.org/2000/svg" width="350" height="350"><path d="M72.401 48.722h205.2c13.023 0 23.678 10.655 23.678 23.678v165.739H48.724V72.399c0-13.022 10.655-23.677 23.677-23.677m7.89 31.569v126.277h189.417V80.291ZM25.047 253.923h118.005c-.124 7.167 6.947 15.784 16.166 15.784h29.989c8.893 0 15.785-6.012 16.15-15.784h119.598c4.34 0 7.893 3.552 7.893 7.893v7.891c0 17.363-14.205 31.57-31.568 31.57H48.724c-17.363 0-31.571-14.207-31.571-31.57v-7.89c0-4.342 3.553-7.894 7.893-7.894" style="fill:#383a3c;fill-opacity:1;stroke:none;stroke-width:1.21617"/></svg>