<svg xmlns="http://www.w3.org/2000/svg" width="66mm" height="66mm" viewBox="0 0 66 66"><path d="M.37 231.53a.09.09 0 0 0-.088.087v2.64a.09.09 0 0 0 .088.09h65.258a.09.09 0 0 0 .09-.09v-2.64a.09.09 0 0 0-.09-.088zm.09.177h65.08v2.463H.46Z" style="color:#000;font-style:normal;font-variant:normal;font-weight:400;font-stretch:normal;font-size:medium;line-height:normal;font-family:sans-serif;font-variant-ligatures:normal;font-variant-position:normal;font-variant-caps:normal;font-variant-numeric:normal;font-variant-alternates:normal;font-feature-settings:normal;text-indent:0;text-align:start;text-decoration:none;text-decoration-line:none;text-decoration-style:solid;text-decoration-color:#000;letter-spacing:normal;word-spacing:normal;text-transform:none;writing-mode:lr-tb;direction:ltr;text-orientation:mixed;dominant-baseline:auto;baseline-shift:baseline;text-anchor:start;white-space:normal;shape-padding:0;clip-rule:nonzero;display:inline;overflow:visible;visibility:visible;isolation:auto;mix-blend-mode:normal;color-interpolation:sRGB;color-interpolation-filters:linearRGB;solid-color:#000;solid-opacity:1;vector-effect:none;fill:#000;fill-opacity:1;fill-rule:nonzero;stroke:none;stroke-width:1;stroke-linecap:butt;stroke-linejoin:round;stroke-miterlimit:4;stroke-dasharray:none;stroke-dashoffset:0;stroke-opacity:1;color-rendering:auto;image-rendering:auto;shape-rendering:auto;text-rendering:auto" transform="translate(0 -231)"/><path d="m55.626 232.549-.002.545 2.484.01.002-.545zm3.576.013-.002.547 3.277.012.004-.545zm4.371.018-.002.547.96.004.001-.547z" style="color:#000;font-style:normal;font-variant:normal;font-weight:400;font-stretch:normal;font-size:medium;line-height:normal;font-family:sans-serif;font-variant-ligatures:normal;font-variant-position:normal;font-variant-caps:normal;font-variant-numeric:normal;font-variant-alternates:normal;font-feature-settings:normal;text-indent:0;text-align:start;text-decoration:none;text-decoration-line:none;text-decoration-style:solid;text-decoration-color:#000;letter-spacing:normal;word-spacing:normal;text-transform:none;writing-mode:lr-tb;direction:ltr;text-orientation:mixed;dominant-baseline:auto;baseline-shift:baseline;text-anchor:start;white-space:normal;shape-padding:0;clip-rule:nonzero;display:inline;overflow:visible;visibility:visible;isolation:auto;mix-blend-mode:normal;color-interpolation:sRGB;color-interpolation-filters:linearRGB;solid-color:#000;solid-opacity:1;vector-effect:none;fill:#000;fill-opacity:1;fill-rule:evenodd;stroke:none;stroke-width:1;stroke-linecap:butt;stroke-linejoin:miter;stroke-miterlimit:4;stroke-dasharray:3.278,1.09267;stroke-dashoffset:.79375;stroke-opacity:1;color-rendering:auto;image-rendering:auto;shape-rendering:auto;text-rendering:auto" transform="translate(0 -231)"/><path d="m31.995 232.619-.004.402.817.006.004-.402zm1.621.014-.004.402 1.61.016.004-.403zm2.414.021-.004.403.313.004.004-.403z" style="color:#000;font-style:normal;font-variant:normal;font-weight:400;font-stretch:normal;font-size:medium;line-height:normal;font-family:sans-serif;font-variant-ligatures:normal;font-variant-position:normal;font-variant-caps:normal;font-variant-numeric:normal;font-variant-alternates:normal;font-feature-settings:normal;text-indent:0;text-align:start;text-decoration:none;text-decoration-line:none;text-decoration-style:solid;text-decoration-color:#000;letter-spacing:normal;word-spacing:normal;text-transform:none;writing-mode:lr-tb;direction:ltr;text-orientation:mixed;dominant-baseline:auto;baseline-shift:baseline;text-anchor:start;white-space:normal;shape-padding:0;clip-rule:nonzero;display:inline;overflow:visible;visibility:visible;isolation:auto;mix-blend-mode:normal;color-interpolation:sRGB;color-interpolation-filters:linearRGB;solid-color:#000;solid-opacity:1;vector-effect:none;fill:#000;fill-opacity:1;fill-rule:evenodd;stroke:none;stroke-width:1;stroke-linecap:butt;stroke-linejoin:miter;stroke-miterlimit:4;stroke-dasharray:1.60947,.804735;stroke-dashoffset:.793529;stroke-opacity:1;color-rendering:auto;image-rendering:auto;shape-rendering:auto;text-rendering:auto" transform="translate(0 -231)"/><path d="m3.423 232.662-.004.314 2.603.04.004-.315z" style="color:#000;font-style:normal;font-variant:normal;font-weight:400;font-stretch:normal;font-size:medium;line-height:normal;font-family:sans-serif;font-variant-ligatures:normal;font-variant-position:normal;font-variant-caps:normal;font-variant-numeric:normal;font-variant-alternates:normal;font-feature-settings:normal;text-indent:0;text-align:start;text-decoration:none;text-decoration-line:none;text-decoration-style:solid;text-decoration-color:#000;letter-spacing:normal;word-spacing:normal;text-transform:none;writing-mode:lr-tb;direction:ltr;text-orientation:mixed;dominant-baseline:auto;baseline-shift:baseline;text-anchor:start;white-space:normal;shape-padding:0;clip-rule:nonzero;display:inline;overflow:visible;visibility:visible;isolation:auto;mix-blend-mode:normal;color-interpolation:sRGB;color-interpolation-filters:linearRGB;solid-color:#000;solid-opacity:1;vector-effect:none;fill:#000;fill-opacity:1;fill-rule:evenodd;stroke:none;stroke-width:1;stroke-linecap:butt;stroke-linejoin:miter;stroke-miterlimit:4;stroke-dasharray:7.5497,7.5497;stroke-dashoffset:.793529;stroke-opacity:1;color-rendering:auto;image-rendering:auto;shape-rendering:auto;text-rendering:auto" transform="translate(0 -231)"/><g style="fill:#000;fill-opacity:1;stroke:none"><path d="M17.337 14.274h29.529c.909 0 1.64.731 1.64 1.64v6.562c0 .909-.731 1.64-1.64 1.64H17.337c-.908 0-1.64-.731-1.64-1.64v-6.562c0-.909.732-1.64 1.64-1.64m22.967 13.123h6.562c.909 0 1.64.732 1.64 1.64v16.406c0 .908-.731 1.64-1.64 1.64h-6.562c-.909 0-1.64-.732-1.64-1.64V29.038c0-.909.731-1.64 1.64-1.64m-22.967-.001h16.405c.909 0 1.64.732 1.64 1.64v16.406c0 .908-.731 1.64-1.64 1.64H17.337c-.908 0-1.64-.732-1.64-1.64V29.038c0-.909.732-1.64 1.64-1.64" style="color:#000;font-style:normal;font-variant:normal;font-weight:400;font-stretch:normal;font-size:medium;line-height:normal;font-family:sans-serif;font-variant-ligatures:normal;font-variant-position:normal;font-variant-caps:normal;font-variant-numeric:normal;font-variant-alternates:normal;font-feature-settings:normal;text-indent:0;text-align:start;text-decoration:none;text-decoration-line:none;text-decoration-style:solid;text-decoration-color:#000;letter-spacing:normal;word-spacing:normal;text-transform:none;writing-mode:lr-tb;direction:ltr;text-orientation:mixed;dominant-baseline:auto;baseline-shift:baseline;text-anchor:start;white-space:normal;shape-padding:0;clip-rule:nonzero;display:inline;overflow:visible;visibility:visible;opacity:1;isolation:auto;mix-blend-mode:normal;color-interpolation:sRGB;color-interpolation-filters:linearRGB;solid-color:#000;solid-opacity:1;vector-effect:none;fill:#000;fill-opacity:1;fill-rule:nonzero;stroke:none;stroke-width:1.64048;stroke-linecap:butt;stroke-linejoin:miter;stroke-miterlimit:4;stroke-dasharray:none;stroke-dashoffset:0;stroke-opacity:1;color-rendering:auto;image-rendering:auto;shape-rendering:auto;text-rendering:auto" transform="translate(-.12 .114)scale(.05943)"/></g><path d="M2.596 2.39a.265.265 0 0 0-.132.454l1.058 1.059a.266.266 0 1 0 .372-.38l-1.058-1.06a.27.27 0 0 0-.24-.073M1.722.271C.92.272.264.928.264 1.728S.92 3.185 1.722 3.185s1.457-.656 1.457-1.457c0-.8-.656-1.456-1.457-1.456zm0 .532a.92.92 0 0 1 .926.924.92.92 0 0 1-.926.925.92.92 0 0 1-.926-.925.92.92 0 0 1 .926-.924" style="fill:#000;stroke-width:.442937" transform="translate(21.047 7.338)scale(.45153)"/><path d="M21.766 237.623c-1.042 0-1.896.742-1.896 1.675 0 .934.854 1.675 1.896 1.675h22.468c1.042 0 1.896-.74 1.896-1.675 0-.933-.854-1.675-1.896-1.675zm0 .2h22.468c.948 0 1.696.664 1.696 1.475 0 .812-.748 1.475-1.696 1.475H21.766c-.948 0-1.696-.663-1.696-1.475 0-.81.748-1.475 1.696-1.475" style="color:#000;fill:#000;stroke-width:.2;-inkscape-stroke:none" transform="translate(0 -231)"/><path d="M8.92 243.104c-1.534 0-2.791 1.091-2.791 2.466v35.918c0 1.376 1.257 2.467 2.79 2.467h48.417c1.534 0 2.793-1.091 2.793-2.467V245.57c0-1.375-1.26-2.466-2.793-2.466zm0 .3h48.416c1.393 0 2.492.975 2.492 2.166v35.918c0 1.192-1.1 2.166-2.492 2.166H8.92c-1.393 0-2.492-.974-2.492-2.166V245.57c0-1.191 1.1-2.166 2.492-2.166" style="color:#000;fill:#000;-inkscape-stroke:none" transform="translate(0 -230.217)"/><path d="M9.91 246.338v16.299h23.04v-16.3zm.2.2h22.64v15.898H10.11Z" style="color:#000;fill:#000;-inkscape-stroke:none" transform="translate(0 -230.217)"/><path d="M9.934 247.328v.201h22.992v-.2zm28.683.869v12.58h17.766v-12.58zm.201.2h17.366v12.181H38.818Z" style="color:#000;fill:#000;-inkscape-stroke:none" transform="translate(0 -230.217)"/><path d="M38.66 248.959v.2h17.682v-.2zm-21.545 16.148v16.262h31.77v-16.262zm.201.2h31.368v15.861H17.316Z" style="color:#000;fill:#000;-inkscape-stroke:none" transform="translate(0 -230.217)"/><path d="M17.111 266.096v.2H48.89v-.2z" style="color:#000;fill:#000;-inkscape-stroke:none" transform="translate(0 -230.217)"/><g style="fill:#000"><path d="M1.47 250.873a.095.095 0 0 0-.095.094v2.445c0 .053.043.096.096.096h2.527a.095.095 0 0 0 .096-.096v-2.445a.095.095 0 0 0-.096-.094zm0 3.207a.095.095 0 0 0-.095.096v2.443c0 .053.043.096.096.096h2.527a.095.095 0 0 0 .096-.096v-2.443a.095.095 0 0 0-.096-.096zm0 3.21a.095.095 0 0 0-.095.095v2.443c0 .053.043.096.096.096h2.527a.095.095 0 0 0 .096-.096v-2.443a.095.095 0 0 0-.096-.096zm0 3.208a.095.095 0 0 0-.095.094v2.445c0 .052.044.094.096.094h2.527a.095.095 0 0 0 .096-.094v-2.445a.095.095 0 0 0-.096-.094zm0 3.207a.095.095 0 0 0-.095.096v2.443c0 .053.043.096.096.096h2.527a.095.095 0 0 0 .096-.096v-2.443a.095.095 0 0 0-.096-.096zm0 3.209a.095.095 0 0 0-.095.096v2.443c0 .053.043.096.096.096h2.527a.095.095 0 0 0 .096-.096v-2.443a.095.095 0 0 0-.096-.096zm0 3.207a.095.095 0 0 0-.095.096v2.443c0 .053.043.096.096.096h2.527a.095.095 0 0 0 .096-.096v-2.443a.095.095 0 0 0-.096-.096z" style="color:#000;stroke-linejoin:round" transform="rotate(90 119.038 175.88)"/></g><path d="M21.932 287.652c-1.051 0-1.9.848-1.9 1.899v2.053c0 1.05.849 1.898 1.9 1.898h22.343c1.051 0 1.9-.848 1.9-1.898v-2.053a1.897 1.897 0 0 0-1.9-1.899zm0 .2h22.343c.944 0 1.702.755 1.702 1.699v2.053c0 .943-.758 1.699-1.702 1.699H21.932a1.694 1.694 0 0 1-1.702-1.7v-2.052c0-.944.758-1.7 1.702-1.7" style="color:#000;fill:#000;-inkscape-stroke:none" transform="translate(0 -231)"/></svg>