<svg xmlns="http://www.w3.org/2000/svg" width="350" height="350"><g stroke="none" style="stroke:#b7c4c8;stroke-opacity:1"><path d="M133.754 137.97h101.17c6.985 0 12.644 5.662 12.644 12.646v75.859a30.72 30.72 0 0 0-21.079 21.095h-92.735c-6.984 0-12.646-5.662-12.646-12.646v-84.308c0-6.984 5.662-12.646 12.646-12.646m143.323 0h101.168c6.984 0 12.646 5.662 12.646 12.646v84.308c0 6.984-5.662 12.646-12.646 12.646h-92.719a30.72 30.72 0 0 0-21.095-21.08v-75.874c0-6.984 5.662-12.646 12.646-12.646M133.754 264.43h92.719a30.72 30.72 0 0 0 21.095 21.08v75.874c0 6.985-5.66 12.647-12.644 12.647h-101.17c-6.984 0-12.646-5.662-12.646-12.647v-84.307c0-6.985 5.662-12.647 12.646-12.647m151.755 0h92.736c6.984 0 12.646 5.662 12.646 12.647v84.307c0 6.985-5.662 12.647-12.646 12.647H277.077c-6.985 0-12.646-5.662-12.646-12.647v-75.858a30.72 30.72 0 0 0 21.078-21.096" style="fill:#383a3c;fill-opacity:1;stroke:none;stroke-width:1.21617;stroke-opacity:1" transform="translate(-81 -81)"/><path d="M256 234.278c-11.998 0-21.723 9.725-21.723 21.722s9.725 21.723 21.722 21.723 21.723-9.726 21.723-21.723-9.726-21.722-21.723-21.722" style="fill:#383a3c;fill-opacity:1;stroke:none;stroke-width:.429088;stroke-opacity:1" transform="translate(-81 -81)"/></g></svg>