<svg xmlns="http://www.w3.org/2000/svg" id="svg9" width="24" height="24" version="1.1"><defs id="defs3"><style id="current-color-scheme" type="text/css">.ColorScheme-Text{color:#444}</style></defs><g id="g13" style="fill:#000"><path id="path5" d="M.78.78v3.244H17V.78Zm0 6.488v3.244h10.847A7.3 7.3 0 0 1 16.19 8.89c.279 0 .54.071.811.101V7.268Zm0 6.488V17h8.21c-.03-.27-.101-.532-.101-.811 0-.86.183-1.666.456-2.433z" class="ColorScheme-Text" style="color:#444;fill:#000;stroke-width:1.62201428"/><path id="path18" d="m15.357 10.51-.139 1.654a5 5 0 0 0-1.443.835l-1.504-.709-1.57 2.721 1.365.949a5 5 0 0 0-.075.833 5 5 0 0 0 .071.836l-1.362.945 1.571 2.72 1.5-.706a5 5 0 0 0 1.447.83l.135 1.66h3.142l.138-1.655a5 5 0 0 0 1.443-.835l1.504.708 1.571-2.72-1.366-.949a5 5 0 0 0 .076-.833 5 5 0 0 0-.072-.836l1.362-.945-1.57-2.72-1.501.706a5 5 0 0 0-1.447-.83l-.135-1.66zm1.57 4.487a1.795 1.795 0 0 1 1.796 1.796 1.795 1.795 0 0 1-1.796 1.795 1.795 1.795 0 0 1-1.795-1.795 1.795 1.795 0 0 1 1.795-1.796" class="ColorScheme-Text" style="color:#444;fill:#000;stroke-width:.897614"/></g></svg>