<svg xmlns="http://www.w3.org/2000/svg" width="44" height="44"><g transform="translate(50 -1.048)"><path d="M-49.357 22.96a21 21 0 0 0-.023.622A21.38 21.38 0 0 0-28 44.962a21.38 21.38 0 0 0 21.38-21.38 21 21 0 0 0-.022-.447A21.38 21.38 0 0 1-28 43.893 21.38 21.38 0 0 1-49.357 22.96" style="opacity:.166667;stroke-width:1.06902"/><path d="M-42.767 7.052a21.38 21.38 0 0 1 30.228.694 21.38 21.38 0 0 1-.694 30.228 21.38 21.38 0 0 1-30.228-.694 21.38 21.38 0 0 1 .694-30.228" style="fill:#ededec;fill-opacity:1;stroke-width:1.06902"/><path d="M-41.66 8.212a19.777 19.777 0 0 1 27.962.641 19.777 19.777 0 0 1-.642 27.962 19.777 19.777 0 0 1-27.962-.642 19.777 19.777 0 0 1 .642-27.961" style="fill:#383838;fill-opacity:.843137;stroke-width:.98884"/><path d="M-37.727 9.697c-.871 0-1.572.701-1.572 1.572v.786c0-.87.701-1.572 1.572-1.572h14.15v-.786Z" style="opacity:.2;fill:#fff;stroke-width:.786115"/><rect width="23.792" height="7.138" x="-39.896" y="11.537" rx="1.19" ry="1.19" style="opacity:.2;stroke-width:1.18962"/><rect width="23.792" height="7.138" x="-39.896" y="10.347" rx="1.19" ry="1.19" style="fill:#ededec;fill-opacity:1;stroke-width:1.18962"/><rect width="7.138" height="14.275" x="-23.241" y="21.054" rx="1.19" ry="1.19" style="opacity:.2;stroke-width:1.18962"/><rect width="7.138" height="14.275" x="-23.241" y="19.864" rx="1.19" ry="1.19" style="fill:#ededec;fill-opacity:1;stroke-width:1.18962"/><rect width="14.275" height="14.275" x="-39.896" y="21.054" rx="1.19" ry="1.19" style="opacity:.2;stroke-width:1.18962"/><rect width="14.275" height="14.275" x="-39.896" y="19.864" rx="1.19" ry="1.19" style="fill:#ededec;fill-opacity:1;stroke-width:1.18962"/><path d="M-28 1.133a21.38 21.38 0 0 0-21.38 21.38 21 21 0 0 0 .023.447A21.38 21.38 0 0 1-28.001 2.202 21.38 21.38 0 0 1-6.643 23.135a21 21 0 0 0 .023-.622A21.38 21.38 0 0 0-28 1.133" style="opacity:.1;fill:#fff;fill-opacity:1;stroke-width:1.06902"/></g></svg>