<svg xmlns="http://www.w3.org/2000/svg" id="svg9" width="16" height="16" version="1.1"><defs id="defs3"><style id="current-color-scheme" type="text/css">.ColorScheme-Text{color:#444}</style></defs><g id="g822" transform="translate(-.5 .5)"><path id="path5" d="M3 0S2 0 2 1v12c0 1 1 1 1 1h6.193c-1.418-.537-2.443-1.904-2.443-3.5 0-2.056 1.694-3.75 3.75-3.75 1.596 0 2.963 1.025 3.5 2.443V4l-4-4Z" class="ColorScheme-Text" style="fill:#ccc"/><path id="path7" d="m11.5 12.5 2.278 2.278s.5.5 1 0 0-1 0-1L12.5 11.5Zm-3.75-2c0 1.5 1.25 2.75 2.75 2.75s2.75-1.25 2.75-2.75S12 7.75 10.5 7.75 7.75 9 7.75 10.5m2.75-1.75c1 0 1.75.75 1.75 1.75s-.75 1.75-1.75 1.75-1.75-.75-1.75-1.75.75-1.75 1.75-1.75" class="ColorScheme-Text" style="fill:#ccc"/></g></svg>