<svg xmlns="http://www.w3.org/2000/svg" width="256" height="72"><path d="M509.664 325.476c5.53 1.419 18.514 1.419 24.293 0 .807-.198 1.433.672 1.5 1.5l1.998 13.06h-31.289l1.997-13.06c.126-.821.696-1.706 1.5-1.5zm33.957 0c5.53 1.419 18.514 1.419 24.294 0 .807-.198 1.433.672 1.5 1.5l1.998 13.06h-31.29l1.998-13.06c.126-.821.695-1.706 1.5-1.5zm33.959 0c5.53 1.419 18.513 1.419 24.293 0 .807-.198 1.433.672 1.5 1.5l1.998 13.06h-31.29l1.998-13.06c.126-.821.695-1.706 1.5-1.5zm33.543 0c5.53 1.419 18.514 1.419 24.294 0 .807-.198 1.433.672 1.5 1.5l1.998 13.06h-31.29l1.998-13.06c.126-.821.695-1.706 1.5-1.5zm33.958 0c5.53 1.419 18.514 1.419 24.294 0 .807-.198 1.433.672 1.5 1.5l1.997 13.06h-31.288l1.997-13.06c.125-.821.695-1.706 1.5-1.5zm33.958 0c5.53 1.419 18.514 1.419 24.293 0 .808-.198 1.434.672 1.5 1.5l1.998 13.06h-31.289l1.998-13.06c.125-.821.695-1.706 1.5-1.5z" style="fill:#fff;fill-opacity:1;stroke:#000;stroke-width:1.59999979;stroke-miterlimit:4;stroke-dasharray:none;stroke-opacity:1" transform="translate(-503.234 -290.416)"/><path d="M712.583 325.476c5.53 1.419 18.514 1.419 24.293 0 .808-.198 1.434.672 1.5 1.5l1.998 13.06h-31.289l1.998-13.06c.125-.821.695-1.706 1.5-1.5z" style="fill:#fff;fill-opacity:1;stroke:#000;stroke-width:1.60000002;stroke-miterlimit:4;stroke-dasharray:none;stroke-opacity:1" transform="translate(-503.234 -290.416)"/><path d="M516.19 335.266c5.53 1.419 18.514 1.419 24.294 0 .807-.198 1.433.672 1.5 1.5l1.998 13.06h-31.29l1.998-13.06c.126-.82.695-1.706 1.5-1.5zm33.958 0c5.53 1.419 18.514 1.419 24.294 0 .807-.198 1.433.672 1.5 1.5l1.998 13.06h-31.29l1.998-13.06c.126-.82.695-1.706 1.5-1.5zm33.958 0c5.53 1.419 18.514 1.419 24.294 0 .807-.198 1.433.672 1.5 1.5l1.997 13.06H580.61q.997-6.53 1.997-13.06c.125-.82.695-1.706 1.5-1.5zm33.544 0c5.53 1.419 18.514 1.419 24.294 0 .807-.198 1.433.672 1.5 1.5l1.997 13.06h-31.288q.997-6.53 1.997-13.06c.125-.82.695-1.706 1.5-1.5zm33.958 0c5.53 1.419 18.514 1.419 24.293 0 .808-.198 1.434.672 1.5 1.5l1.998 13.06H648.11l1.998-13.06c.125-.82.695-1.706 1.5-1.5zm33.958 0c5.53 1.419 18.514 1.419 24.293 0 .807-.198 1.433.672 1.5 1.5l1.998 13.06h-31.289l1.997-13.06c.126-.82.696-1.706 1.5-1.5z" style="fill:#fff;fill-opacity:1;stroke:#000;stroke-width:1.59999979;stroke-miterlimit:4;stroke-dasharray:none;stroke-opacity:1" transform="translate(-503.234 -290.416)"/><path d="M719.11 335.266c5.53 1.419 18.514 1.419 24.293 0 .807-.198 1.433.672 1.5 1.5l1.998 13.06h-31.289l1.997-13.06c.126-.82.696-1.706 1.5-1.5z" style="fill:#fff;fill-opacity:1;stroke:#000;stroke-width:1.60000002;stroke-miterlimit:4;stroke-dasharray:none;stroke-opacity:1" transform="translate(-503.234 -290.416)"/><path d="M525.98 345.057c5.53 1.418 18.515 1.418 24.294 0 .807-.198 1.433.672 1.5 1.5l1.998 13.059h-31.289l1.997-13.059c.126-.822.696-1.707 1.5-1.5zm33.958 0c5.53 1.418 18.514 1.418 24.294 0 .807-.198 1.433.672 1.5 1.5l1.998 13.059h-31.29l1.997-13.059c.126-.822.695-1.707 1.5-1.5zm33.958 0c5.53 1.418 18.514 1.418 24.294 0 .807-.198 1.433.672 1.5 1.5l1.998 13.059h-31.29l1.998-13.059c.126-.822.695-1.707 1.5-1.5zm33.544 0c5.53 1.418 18.514 1.418 24.294 0 .807-.198 1.433.672 1.5 1.5l1.998 13.059h-31.29l1.998-13.059c.126-.822.695-1.707 1.5-1.5zm33.958 0c5.53 1.418 18.514 1.418 24.294 0 .807-.198 1.433.672 1.5 1.5l1.998 13.059H657.9l1.998-13.059c.125-.822.695-1.707 1.5-1.5zm33.958 0c5.53 1.418 18.514 1.418 24.293 0 .808-.198 1.434.672 1.5 1.5l1.998 13.059h-31.289l1.998-13.059c.125-.822.695-1.707 1.5-1.5z" style="fill:#fff;fill-opacity:1;stroke:#000;stroke-width:1.59999979;stroke-miterlimit:4;stroke-dasharray:none;stroke-opacity:1" transform="translate(-503.234 -290.416)"/><path d="M728.9 345.057c5.53 1.418 18.514 1.418 24.294 0 .807-.198 1.433.672 1.5 1.5l1.997 13.059h-31.289l1.998-13.059c.125-.822.695-1.707 1.5-1.5z" style="fill:#fff;fill-opacity:1;stroke:#000;stroke-width:1.60000002;stroke-miterlimit:4;stroke-dasharray:none;stroke-opacity:1" transform="translate(-503.234 -290.416)"/><g transform="translate(-85.14 -961.5)scale(1.35975)"><path d="M95.25 715.11v1.124c.012.278.14.557.341.75l5.693 5.762 5.66-5.762a1.1 1.1 0 0 0 .306-.784v-1.09h-1.09c-.29 0-.58.1-.785.306l-4.09 4.16-4.126-4.16a.99.99 0 0 0-.818-.307z" style="color:#bebebe;font-style:normal;font-variant:normal;font-weight:400;font-stretch:normal;font-size:medium;line-height:normal;font-family:&quot;Andale Mono&quot;;-inkscape-font-specification:&quot;Andale Mono&quot;;text-indent:0;text-align:start;text-decoration:none;text-decoration-line:none;letter-spacing:normal;word-spacing:normal;text-transform:none;direction:ltr;block-progression:tb;writing-mode:lr-tb;text-anchor:start;display:inline;overflow:visible;visibility:visible;fill:#000100;fill-opacity:1;fill-rule:nonzero;stroke:none;stroke-width:1.78124988;marker:none"/><rect width="2.182" height="12" x="-102.341" y="708.927" rx="0" ry="0" style="color:#bebebe;display:inline;overflow:visible;visibility:visible;fill:#000100;fill-opacity:1;fill-rule:nonzero;stroke:none;stroke-width:2;marker:none" transform="scale(-1 1)"/></g><g transform="translate(-11.112 -951.71)scale(1.35975)"><path d="M95.25 715.11v1.124c.012.278.14.557.341.75l5.693 5.762 5.66-5.762a1.1 1.1 0 0 0 .306-.784v-1.09h-1.09c-.29 0-.58.1-.785.306l-4.09 4.16-4.126-4.16a.99.99 0 0 0-.818-.307z" style="color:#bebebe;font-style:normal;font-variant:normal;font-weight:400;font-stretch:normal;font-size:medium;line-height:normal;font-family:&quot;Andale Mono&quot;;-inkscape-font-specification:&quot;Andale Mono&quot;;text-indent:0;text-align:start;text-decoration:none;text-decoration-line:none;letter-spacing:normal;word-spacing:normal;text-transform:none;direction:ltr;block-progression:tb;writing-mode:lr-tb;text-anchor:start;display:inline;overflow:visible;visibility:visible;fill:#000100;fill-opacity:1;fill-rule:nonzero;stroke:none;stroke-width:1.78124988;marker:none"/><rect width="2.182" height="12" x="-102.341" y="708.927" rx="0" ry="0" style="color:#bebebe;display:inline;overflow:visible;visibility:visible;fill:#000100;fill-opacity:1;fill-rule:nonzero;stroke:none;stroke-width:2;marker:none" transform="scale(-1 1)"/></g><g transform="translate(90.347 -951.71)scale(1.35975)"><path d="M95.25 715.11v1.124c.012.278.14.557.341.75l5.693 5.762 5.66-5.762a1.1 1.1 0 0 0 .306-.784v-1.09h-1.09c-.29 0-.58.1-.785.306l-4.09 4.16-4.126-4.16a.99.99 0 0 0-.818-.307z" style="color:#bebebe;font-style:normal;font-variant:normal;font-weight:400;font-stretch:normal;font-size:medium;line-height:normal;font-family:&quot;Andale Mono&quot;;-inkscape-font-specification:&quot;Andale Mono&quot;;text-indent:0;text-align:start;text-decoration:none;text-decoration-line:none;letter-spacing:normal;word-spacing:normal;text-transform:none;direction:ltr;block-progression:tb;writing-mode:lr-tb;text-anchor:start;display:inline;overflow:visible;visibility:visible;fill:#000100;fill-opacity:1;fill-rule:nonzero;stroke:none;stroke-width:1.78124988;marker:none"/><rect width="2.182" height="12" x="-102.341" y="708.927" rx="0" ry="0" style="color:#bebebe;display:inline;overflow:visible;visibility:visible;fill:#000100;fill-opacity:1;fill-rule:nonzero;stroke:none;stroke-width:2;marker:none" transform="scale(-1 1)"/></g></svg>