<?xml version="1.0" encoding="UTF-8" standalone="no"?>
<!-- Created with Inkscape (http://www.inkscape.org/) -->

<svg
   id="svg1650"
   sodipodi:docname="paw-print.svg"
   viewBox="0 0 25.999999 26"
   version="1.1"
   inkscape:version="1.4.3 (0d15f75042, 2025-12-25)"
   width="26"
   height="26"
   inkscape:export-filename="paw-lightblue-4k.png"
   inkscape:export-xdpi="192"
   inkscape:export-ydpi="192"
   xmlns:inkscape="http://www.inkscape.org/namespaces/inkscape"
   xmlns:sodipodi="http://sodipodi.sourceforge.net/DTD/sodipodi-0.dtd"
   xmlns="http://www.w3.org/2000/svg"
   xmlns:svg="http://www.w3.org/2000/svg"
   xmlns:rdf="http://www.w3.org/1999/02/22-rdf-syntax-ns#"
   xmlns:cc="http://creativecommons.org/ns#"
   xmlns:dc="http://purl.org/dc/elements/1.1/">
  <defs
     id="defs1" />
  <sodipodi:namedview
     id="base"
     bordercolor="#666666"
     inkscape:pageshadow="2"
     inkscape:window-y="0"
     fit-margin-left="0"
     pagecolor="#ffffff"
     fit-margin-top="0"
     inkscape:window-maximized="1"
     inkscape:zoom="31.607277"
     inkscape:window-x="0"
     inkscape:window-height="1388"
     showgrid="false"
     borderopacity="1.0"
     inkscape:current-layer="layer1"
     inkscape:cx="14.284685"
     inkscape:cy="14.205589"
     fit-margin-right="0"
     fit-margin-bottom="0"
     inkscape:window-width="2548"
     inkscape:pageopacity="0.0"
     inkscape:document-units="px"
     inkscape:showpageshadow="2"
     inkscape:pagecheckerboard="0"
     inkscape:deskcolor="#d1d1d1" />
  <g
     id="layer1"
     inkscape:label="Layer 1"
     inkscape:groupmode="layer"
     transform="translate(-119,-256.27)">
    <path
       id="path1575"
       style="fill:#71c7f2;fill-opacity:1;stroke-width:0.0620301"
       d="m 136.49816,256.61724 c -0.0547,6.9e-4 -0.11099,0.004 -0.16685,0.008 -2.22192,0.38357 -3.44391,2.73329 -3.6207,4.80541 -0.25866,1.88049 0.57005,4.29655 2.63442,4.71836 0.2996,0.0571 0.61037,0.0309 0.90315,-0.0484 2.48616,-0.83369 3.59836,-3.77813 3.23922,-6.21665 -0.10482,-1.57532 -1.29209,-3.28816 -2.98924,-3.2665 z m -9.42049,0.10079 c -1.38203,0.034 -2.45825,1.43526 -2.67721,2.75258 -0.46157,2.60986 0.72561,5.85254 3.44452,6.67816 0.25494,0.0553 0.51795,0.0608 0.77538,0.0211 1.83794,-0.30643 2.61642,-2.36645 2.5395,-4.03003 -0.0553,-2.19411 -1.19532,-4.73122 -3.47368,-5.3481 -0.20842,-0.0553 -0.41125,-0.0786 -0.60851,-0.0737 z m 15.44113,7.41259 c -2.39002,0.14329 -4.02885,2.52835 -4.2627,4.75522 -0.31574,1.60596 0.54028,3.75467 2.37326,3.88308 2.55502,-0.0317 4.29868,-2.7622 4.37064,-5.11189 0.1619,-1.55385 -0.75367,-3.44019 -2.4812,-3.52641 z m -20.92148,0.52974 c -1.01692,-0.009 -2.01703,0.60045 -2.34932,1.63387 -0.8866,2.76531 0.89372,6.26751 3.82253,6.84874 1.22236,0.20903 2.29623,-0.72949 2.59955,-1.85905 0.64201,-2.41607 -0.67705,-5.22105 -2.90971,-6.31775 -0.36367,-0.20408 -0.76506,-0.30271 -1.16305,-0.30581 z m 10.71568,4.95805 c -1.99365,0.004 -4.0183,1.01606 -5.30915,2.52215 -1.39444,1.75545 -2.53653,3.7981 -2.98333,6.01319 -0.54283,1.59416 0.68748,3.42964 2.39218,3.4408 2.05072,0.0565 3.81299,-1.35163 5.85192,-1.45584 1.73002,-0.26362 3.2789,0.6358 4.83461,1.22508 1.32434,0.56635 3.15422,0.34924 3.83036,-1.07621 0.53159,-1.45212 -0.25123,-3.00164 -0.89943,-4.29124 -1.32248,-2.09412 -2.73987,-4.29495 -4.90845,-5.60255 -0.86903,-0.53842 -1.83484,-0.77723 -2.80871,-0.77538 z" />
  </g>
  <metadata
     id="metadata1">
    <rdf:RDF>
      <cc:Work>
        <dc:format>image/svg+xml</dc:format>
        <dc:type
           rdf:resource="http://purl.org/dc/dcmitype/StillImage" />
        <cc:license
           rdf:resource="http://creativecommons.org/publicdomain/zero/1.0/" />
        <dc:publisher>
          <cc:Agent
             rdf:about="http://openclipart.org/">
            <dc:title>Openclipart</dc:title>
          </cc:Agent>
        </dc:publisher>
        <dc:title>Paw Print</dc:title>
        <dc:date>2011-06-05T04:06:25</dc:date>
        <dc:description>A simple paw print</dc:description>
        <dc:source>https://openclipart.org/detail/142447/paw-print-by-kattekrab</dc:source>
        <dc:creator>
          <cc:Agent>
            <dc:title>kattekrab</dc:title>
          </cc:Agent>
        </dc:creator>
        <dc:subject>
          <rdf:Bag>
            <rdf:li>animal</rdf:li>
            <rdf:li>animal foot print</rdf:li>
            <rdf:li>black</rdf:li>
            <rdf:li>paw print</rdf:li>
            <rdf:li>simple</rdf:li>
          </rdf:Bag>
        </dc:subject>
      </cc:Work>
      <cc:License
         rdf:about="http://creativecommons.org/publicdomain/zero/1.0/">
        <cc:permits
           rdf:resource="http://creativecommons.org/ns#Reproduction" />
        <cc:permits
           rdf:resource="http://creativecommons.org/ns#Distribution" />
        <cc:permits
           rdf:resource="http://creativecommons.org/ns#DerivativeWorks" />
      </cc:License>
    </rdf:RDF>
  </metadata>
</svg>
