<?xml version="1.0" encoding="UTF-8" standalone="no"?>
<svg
   height="496"
   width="496"
   id="svg4"
   version="1.1"
   viewBox="0 0 496 496"
   sodipodi:docname="endeavour-logo-symbolic.svg"
   inkscape:version="1.1.1 (3bf5ae0d25, 2021-09-20, custom)"
   xmlns:inkscape="http://www.inkscape.org/namespaces/inkscape"
   xmlns:sodipodi="http://sodipodi.sourceforge.net/DTD/sodipodi-0.dtd"
   xmlns="http://www.w3.org/2000/svg"
   xmlns:svg="http://www.w3.org/2000/svg"
   xmlns:rdf="http://www.w3.org/1999/02/22-rdf-syntax-ns#"
   xmlns:cc="http://creativecommons.org/ns#"
   xmlns:dc="http://purl.org/dc/elements/1.1/">
  <sodipodi:namedview
     pagecolor="#ffffff"
     bordercolor="#666666"
     borderopacity="1"
     objecttolerance="10"
     gridtolerance="10"
     guidetolerance="10"
     inkscape:pageopacity="0"
     inkscape:pageshadow="2"
     inkscape:window-width="2560"
     inkscape:window-height="1371"
     id="namedview6"
     showgrid="false"
     inkscape:zoom="1.4370235"
     inkscape:cx="528.87097"
     inkscape:cy="255.73695"
     inkscape:window-x="2560"
     inkscape:window-y="40"
     inkscape:window-maximized="1"
     inkscape:current-layer="svg4"
     inkscape:pagecheckerboard="0" />
  <metadata
     id="metadata10">
    <rdf:RDF>
      <cc:Work
         rdf:about="">
        <dc:format>image/svg+xml</dc:format>
        <dc:type
           rdf:resource="http://purl.org/dc/dcmitype/StillImage" />
      </cc:Work>
    </rdf:RDF>
  </metadata>
  <defs
     id="defs8" />
  <g
     id="g420">
    <path
       id="path167"
       style="fill:#cccccc;fill-opacity:1;stroke-width:4.47289"
       d="M 280.34997,58.52204 C 268.84695,60.136555 57.85748,325.03256 57.85748,325.03256 c 0,0 15.211217,4.40321 49.79594,9.50169 11.2003,-8.88369 168.7613,-279.642918 173.30197,-275.780453 -0.0809,-0.1089 -0.2119,-0.149164 -0.39504,-0.123712 z m 0,0 c 34.58471,49.82588 180.11297,242.56319 80.97515,282.7329 -46.31475,21.7071 -257.30424,-12.74615 -254.27713,-7.11467 -15.135533,25.33781 -27.16829,45.73166 -27.16829,45.73166 0,0 162.70709,7.47001 288.33209,-9.81068 C 547.56799,345.49593 331.28108,111.27568 280.42564,58.746078 Z M 478,248 A 230,230 0 0 1 248,478 230,230 0 0 1 18,248 230,230 0 0 1 248,18 230,230 0 0 1 478,248 Z" />
  </g>
</svg>
