<?xml version="1.0" encoding="UTF-8" standalone="no"?>
<svg
   inkscape:version="1.2.1 (9c6d41e410, 2022-07-14)"
   sodipodi:docname="sheild-symbolic.svg"
   width="64"
   height="64"
   version="1.1"
   id="svg24"
   xmlns:inkscape="http://www.inkscape.org/namespaces/inkscape"
   xmlns:sodipodi="http://sodipodi.sourceforge.net/DTD/sodipodi-0.dtd"
   xmlns="http://www.w3.org/2000/svg"
   xmlns:svg="http://www.w3.org/2000/svg"
   xmlns:rdf="http://www.w3.org/1999/02/22-rdf-syntax-ns#"
   xmlns:cc="http://creativecommons.org/ns#"
   xmlns:dc="http://purl.org/dc/elements/1.1/">
  <sodipodi:namedview
     inkscape:document-rotation="0"
     inkscape:current-layer="svg24"
     inkscape:window-maximized="1"
     inkscape:window-y="40"
     inkscape:window-x="0"
     inkscape:cy="26.305085"
     inkscape:cx="39.79661"
     inkscape:zoom="7.375"
     showgrid="false"
     id="namedview953"
     inkscape:window-height="1363"
     inkscape:window-width="2560"
     inkscape:pageshadow="2"
     inkscape:pageopacity="0"
     guidetolerance="10"
     gridtolerance="10"
     objecttolerance="10"
     borderopacity="1"
     bordercolor="#666666"
     pagecolor="#ffffff"
     inkscape:showpageshadow="2"
     inkscape:pagecheckerboard="0"
     inkscape:deskcolor="#d1d1d1" />
  <metadata
     id="metadata30">
    <rdf:RDF>
      <cc:Work
         rdf:about="">
        <dc:format>image/svg+xml</dc:format>
        <dc:type
           rdf:resource="http://purl.org/dc/dcmitype/StillImage" />
        <dc:title />
      </cc:Work>
    </rdf:RDF>
  </metadata>
  <defs
     id="defs28" />
  <path
     style="fill:#cccccc;stroke-width:1.90993"
     d="M 31.981572,6.1787203 C 11.22222,6.1794134 10.692614,6.1891302 10.151749,6.5107178 9.0035793,7.1934928 9.0624968,6.352489 9.0624968,22.271313 c 0,16.154055 -0.021979,15.828458 1.2310032,18.961208 1.441317,3.603727 3.761582,6.650179 7.572549,9.959949 3.197639,2.777101 6.992184,5.288574 11.220796,7.423332 1.430595,0.722213 2.168246,1.052692 2.894727,1.040759 0.726482,0.01183 1.46413,-0.318546 2.894726,-1.040759 4.228611,-2.134758 8.023156,-4.646231 11.220798,-7.423332 3.810966,-3.30977 6.131229,-6.356222 7.572547,-9.959949 1.252978,-3.13275 1.231003,-2.807153 1.231003,-18.961208 0,-15.918836 0.05891,-15.0778202 -1.089251,-15.7605952 C 53.270529,6.1891604 52.740925,6.1794134 31.981572,6.1787203 Z m 0,7.6396917 c 8.592207,2.87e-4 12.1947,0.01339 15.215967,0.03731 0.02615,2.124334 0.06341,3.283503 0.06341,8.4156 0,8.080495 -0.01642,12.109538 -0.130558,13.869321 -0.114157,1.759781 0.09882,0.616349 -0.555819,2.253113 -0.94323,2.358363 -2.270789,4.238157 -5.487299,7.03165 -2.507783,2.177982 -5.645268,4.206219 -9.105704,6.00954 z"
     id="path10" />
</svg>
