<?xml version="1.0" encoding="UTF-8" standalone="no"?>
<!-- Created with Inkscape (http://www.inkscape.org/) -->

<svg
   width="66mm"
   height="66mm"
   viewBox="0 0 66 66"
   version="1.1"
   id="svg8"
   inkscape:version="1.2.1 (9c6d41e410, 2022-07-14)"
   sodipodi:docname="menu-budgie-symbolic.svg"
   xmlns:inkscape="http://www.inkscape.org/namespaces/inkscape"
   xmlns:sodipodi="http://sodipodi.sourceforge.net/DTD/sodipodi-0.dtd"
   xmlns="http://www.w3.org/2000/svg"
   xmlns:svg="http://www.w3.org/2000/svg"
   xmlns:rdf="http://www.w3.org/1999/02/22-rdf-syntax-ns#"
   xmlns:cc="http://creativecommons.org/ns#"
   xmlns:dc="http://purl.org/dc/elements/1.1/">
  <defs
     id="defs2" />
  <sodipodi:namedview
     id="base"
     pagecolor="#ffffff"
     bordercolor="#666666"
     borderopacity="1.0"
     inkscape:pageopacity="0.0"
     inkscape:pageshadow="2"
     inkscape:zoom="2.8"
     inkscape:cx="15"
     inkscape:cy="91.785714"
     inkscape:document-units="mm"
     inkscape:current-layer="layer1"
     showgrid="false"
     inkscape:window-width="2560"
     inkscape:window-height="1363"
     inkscape:window-x="0"
     inkscape:window-y="40"
     inkscape:window-maximized="1"
     inkscape:showpageshadow="2"
     inkscape:pagecheckerboard="0"
     inkscape:deskcolor="#d1d1d1" />
  <metadata
     id="metadata5">
    <rdf:RDF>
      <cc:Work
         rdf:about="">
        <dc:format>image/svg+xml</dc:format>
        <dc:type
           rdf:resource="http://purl.org/dc/dcmitype/StillImage" />
        <dc:title />
      </cc:Work>
    </rdf:RDF>
  </metadata>
  <g
     inkscape:label="Layer 1"
     inkscape:groupmode="layer"
     id="layer1"
     transform="translate(0,-231)">
    <g
       id="g322"
       transform="matrix(1.1111111,0,0,1.1111111,-3.6666663,-29.33333)">
      <path
         d="m 16.279116,241.5 a 0.118972,0.118972 0 0 0 -0.117673,0.11944 v 44.76113 A 0.118972,0.118972 0 0 0 16.279116,286.5 h 33.441768 a 0.118972,0.118972 0 0 0 0.117673,-0.11943 V 241.61944 A 0.118972,0.118972 0 0 0 49.720884,241.5 Z m 0.119428,0.23886 h 33.20291 v 44.52404 h -33.20291 z"
         style="color:#000000;font-style:normal;font-variant:normal;font-weight:normal;font-stretch:normal;font-size:medium;line-height:normal;font-family:sans-serif;font-variant-ligatures:normal;font-variant-position:normal;font-variant-caps:normal;font-variant-numeric:normal;font-variant-alternates:normal;font-feature-settings:normal;text-indent:0;text-align:start;text-decoration:none;text-decoration-line:none;text-decoration-style:solid;text-decoration-color:#000000;letter-spacing:normal;word-spacing:normal;text-transform:none;writing-mode:lr-tb;direction:ltr;text-orientation:mixed;dominant-baseline:auto;baseline-shift:baseline;text-anchor:start;white-space:normal;shape-padding:0;clip-rule:nonzero;display:inline;overflow:visible;visibility:visible;isolation:auto;mix-blend-mode:normal;color-interpolation:sRGB;color-interpolation-filters:linearRGB;solid-color:#000000;solid-opacity:1;fill:#000000;fill-opacity:1;fill-rule:nonzero;stroke:none;stroke-width:0.899227;stroke-linecap:butt;stroke-linejoin:round;stroke-miterlimit:4;stroke-dasharray:none;stroke-dashoffset:0;stroke-opacity:1;color-rendering:auto;image-rendering:auto;shape-rendering:auto;text-rendering:auto;enable-background:accumulate"
         id="rect30567"
         inkscape:connector-curvature="0" />
      <path
         id="path30569"
         d="m 29.219557,245.29888 -0.228319,0.002 0.208999,40.97631 0.22832,-0.002 z"
         style="color:#000000;font-style:normal;font-variant:normal;font-weight:normal;font-stretch:normal;font-size:medium;line-height:normal;font-family:sans-serif;font-variant-ligatures:normal;font-variant-position:normal;font-variant-caps:normal;font-variant-numeric:normal;font-variant-alternates:normal;font-feature-settings:normal;text-indent:0;text-align:start;text-decoration:none;text-decoration-line:none;text-decoration-style:solid;text-decoration-color:#000000;letter-spacing:normal;word-spacing:normal;text-transform:none;writing-mode:lr-tb;direction:ltr;text-orientation:mixed;dominant-baseline:auto;baseline-shift:baseline;text-anchor:start;white-space:normal;shape-padding:0;clip-rule:nonzero;display:inline;overflow:visible;visibility:visible;isolation:auto;mix-blend-mode:normal;color-interpolation:sRGB;color-interpolation-filters:linearRGB;solid-color:#000000;solid-opacity:1;fill:#000000;fill-opacity:1;fill-rule:evenodd;stroke:none;stroke-width:0.899227;stroke-linecap:butt;stroke-linejoin:miter;stroke-miterlimit:4;stroke-dasharray:none;stroke-dashoffset:0;stroke-opacity:1;color-rendering:auto;image-rendering:auto;shape-rendering:auto;text-rendering:auto;enable-background:accumulate"
         inkscape:connector-curvature="0" />
      <g
         style="fill:#000000;fill-opacity:1;stroke:none"
         id="path30636"
         transform="matrix(0.8992272,0,0,0.8992272,15.537956,26.099961)">
        <path
           id="path1236"
           d="m 0.83429704,243.71419 37.00353496,0.0501"
           style="color:#000000;font-style:normal;font-variant:normal;font-weight:normal;font-stretch:normal;font-size:medium;line-height:normal;font-family:sans-serif;font-variant-ligatures:normal;font-variant-position:normal;font-variant-caps:normal;font-variant-numeric:normal;font-variant-alternates:normal;font-feature-settings:normal;text-indent:0;text-align:start;text-decoration:none;text-decoration-line:none;text-decoration-style:solid;text-decoration-color:#000000;letter-spacing:normal;word-spacing:normal;text-transform:none;writing-mode:lr-tb;direction:ltr;text-orientation:mixed;dominant-baseline:auto;baseline-shift:baseline;text-anchor:start;white-space:normal;shape-padding:0;clip-rule:nonzero;display:inline;overflow:visible;visibility:visible;isolation:auto;mix-blend-mode:normal;color-interpolation:sRGB;color-interpolation-filters:linearRGB;solid-color:#000000;solid-opacity:1;fill:#000000;fill-opacity:1;fill-rule:evenodd;stroke:none;stroke-width:0.376674;stroke-linecap:butt;stroke-linejoin:miter;stroke-miterlimit:4;stroke-dasharray:none;stroke-dashoffset:0;stroke-opacity:1;color-rendering:auto;image-rendering:auto;shape-rendering:auto;text-rendering:auto;enable-background:accumulate"
           inkscape:connector-curvature="0" />
        <path
           id="path1238"
           d="m 0.83398438,243.52539 v 0.37695 l 37.00390662,0.0508 v -0.37695 z"
           style="color:#000000;font-style:normal;font-variant:normal;font-weight:normal;font-stretch:normal;font-size:medium;line-height:normal;font-family:sans-serif;font-variant-ligatures:normal;font-variant-position:normal;font-variant-caps:normal;font-variant-numeric:normal;font-variant-alternates:normal;font-feature-settings:normal;text-indent:0;text-align:start;text-decoration:none;text-decoration-line:none;text-decoration-style:solid;text-decoration-color:#000000;letter-spacing:normal;word-spacing:normal;text-transform:none;writing-mode:lr-tb;direction:ltr;text-orientation:mixed;dominant-baseline:auto;baseline-shift:baseline;text-anchor:start;white-space:normal;shape-padding:0;clip-rule:nonzero;display:inline;overflow:visible;visibility:visible;isolation:auto;mix-blend-mode:normal;color-interpolation:sRGB;color-interpolation-filters:linearRGB;solid-color:#000000;solid-opacity:1;fill:#000000;fill-opacity:1;fill-rule:evenodd;stroke:none;stroke-linecap:butt;stroke-linejoin:miter;stroke-miterlimit:4;stroke-dasharray:none;stroke-dashoffset:0;stroke-opacity:1;color-rendering:auto;image-rendering:auto;shape-rendering:auto;text-rendering:auto;enable-background:accumulate"
           inkscape:connector-curvature="0" />
      </g>
      <g
         transform="matrix(0.48958916,0,0,0.48958916,17.211289,242.31148)"
         style="fill:#000000;fill-opacity:1;stroke:none"
         id="use31418">
        <title
           id="title1041">Edit Find</title>
        <path
           id="path1043"
           d="m 1.7216437,0.27172708 c -0.80115828,0 -1.45785412,0.65616667 -1.45785412,1.45626662 0,0.8008938 0.65669584,1.4567959 1.45785412,1.4567959 0.8016875,0 1.4578542,-0.6561667 1.4578542,-1.4565313 0,-0.80009997 -0.6561667,-1.45600205 -1.4578542,-1.45600205 z m 0,0.5318125 c 0.5154084,0 0.9260417,0.41010412 0.9260417,0.92445412 0,0.5148792 -0.4106333,0.925248 -0.9260417,0.925248 -0.5151437,0 -0.92604162,-0.4101042 -0.92604162,-0.9249834 0,-0.51435 0.41089792,-0.92445413 0.92604162,-0.92445413 z"
           inkscape:connector-curvature="0"
           style="fill:#000000;fill-opacity:1;stroke:none;stroke-width:0.264583" />
        <path
           id="path1045"
           d="M 2.5960917,2.3891875 A 0.26458333,0.26458333 0 0 0 2.4638,2.8442708 L 3.5221333,3.9026042 A 0.26614947,0.26614947 0 1 0 3.8944021,3.5221333 L 2.8360687,2.4638 A 0.26458333,0.26458333 0 0 0 2.5958271,2.3897167 Z"
           inkscape:connector-curvature="0"
           style="fill:#000000;fill-opacity:1;stroke:none;stroke-width:0.264583" />
      </g>
      <g
         style="fill:#000000;fill-opacity:1;stroke:none"
         transform="matrix(0.93114518,0,0,0.60739877,11.713832,97.341593)"
         id="g27387">
        <path
           d="m 7.0234375,251.41992 -0.00195,0.79297 3.9687495,0.0176 0.002,-0.79492 z m 5.5566405,0.0234 -0.0039,0.79297 4.763672,0.0215 0.0039,-0.79492 z m 6.34961,0.0273 -0.002,0.79297 h 0.0059 l 0.0039,-0.79297 z m -1.535157,4.81836 -4.763672,0.0117 0.002,0.79297 4.763672,-0.0117 z m -6.349609,0.0156 -3.9687501,0.01 0.00195,0.79493 3.9687501,-0.01 z m 6.412109,4.70898 -4.761719,0.0137 0.002,0.79297 4.761718,-0.0117 z m -6.349609,0.0176 -3.9687501,0.01 0.00195,0.79492 3.9687501,-0.0117 z m -3.8496095,5.13867 -0.00391,0.79492 3.9687495,0.0176 0.0039,-0.79492 z m 5.5566405,0.0254 -0.0039,0.79297 4.761719,0.0215 0.0039,-0.79297 z m 4.695313,4.43164 -4.761719,0.0117 0.002,0.79492 4.763672,-0.0137 z m -6.34961,0.0176 -3.9687498,0.01 0.00195,0.79297 3.9687498,-0.01 z m 6.464844,4.28711 -4.763672,0.0469 0.0078,0.79296 4.761718,-0.0449 z m -6.351562,0.0605 -3.9667974,0.0391 0.00586,0.79297 3.9687504,-0.0371 z m 6.357421,4.49414 -4.761718,0.0137 0.002,0.79297 4.763672,-0.0117 z m -6.349609,0.0176 -3.96875,0.01 0.00195,0.79492 3.96875,-0.0117 z m -3.9648438,-32.85547 -0.00391,0.79297 3.9687498,0.0195 0.0039,-0.79492 z m 5.5546878,0.0254 -0.002,0.79297 4.761718,0.0215 0.0039,-0.79297 z"
           style="color:#000000;font-style:normal;font-variant:normal;font-weight:normal;font-stretch:normal;font-size:medium;line-height:normal;font-family:sans-serif;font-variant-ligatures:normal;font-variant-position:normal;font-variant-caps:normal;font-variant-numeric:normal;font-variant-alternates:normal;font-feature-settings:normal;text-indent:0;text-align:start;text-decoration:none;text-decoration-line:none;text-decoration-style:solid;text-decoration-color:#000000;letter-spacing:normal;word-spacing:normal;text-transform:none;writing-mode:lr-tb;direction:ltr;text-orientation:mixed;dominant-baseline:auto;baseline-shift:baseline;text-anchor:start;white-space:normal;shape-padding:0;clip-rule:nonzero;display:inline;overflow:visible;visibility:visible;opacity:1;isolation:auto;mix-blend-mode:normal;color-interpolation:sRGB;color-interpolation-filters:linearRGB;solid-color:#000000;solid-opacity:1;fill:#000000;fill-opacity:1;fill-rule:evenodd;stroke:none;stroke-linecap:butt;stroke-linejoin:miter;stroke-miterlimit:4;stroke-dasharray:4.7625, 1.5875;stroke-dashoffset:0.79375;stroke-opacity:1;color-rendering:auto;image-rendering:auto;shape-rendering:auto;text-rendering:auto;enable-background:accumulate"
           id="path36027"
           inkscape:connector-curvature="0" />
      </g>
      <g
         style="fill:#000000;fill-opacity:1;stroke:none"
         transform="matrix(0.73762645,0,0,0.64835826,53.889758,87.538614)"
         id="g29146">
        <g
           style="fill:#000000;fill-opacity:1;stroke:none"
           transform="matrix(0.93454954,0,0,0.93454954,-33.227493,23.523971)"
           id="g27405">
          <g
             style="opacity:1;fill:#000000;fill-opacity:1;stroke:none"
             id="rect27389" />
          <g
             style="opacity:1;fill:#000000;fill-opacity:1;stroke:none"
             id="rect27391" />
          <g
             style="opacity:1;fill:#000000;fill-opacity:1;stroke:none"
             id="rect27393" />
          <g
             style="opacity:1;fill:#000000;fill-opacity:1;stroke:none"
             id="rect27395" />
          <g
             style="opacity:1;fill:#000000;fill-opacity:1;stroke:none"
             id="rect27397" />
          <g
             style="opacity:1;fill:#000000;fill-opacity:1;stroke:none"
             id="rect27399" />
          <g
             style="opacity:1;fill:#000000;fill-opacity:1;stroke:none"
             id="rect27401" />
          <g
             style="opacity:1;fill:#000000;fill-opacity:1;stroke:none"
             id="rect27403" />
        </g>
      </g>
      <path
         style="color:#000000;display:inline;overflow:visible;visibility:visible;fill:#000000;fill-opacity:1;fill-rule:nonzero;stroke:none;stroke-width:0.0303714;marker:none;enable-background:accumulate"
         d="m 47.000122,242.50793 c 0,0 -0.679729,0.33596 -1.274531,0.82004 h -1.85e-4 c -2.39e-4,2.2e-4 -7.14e-4,4.6e-4 -9.89e-4,6.8e-4 h 1.82e-4 c 0,0 0,6e-5 0,6e-5 h -1.82e-4 c 2.37e-4,2.3e-4 7.13e-4,4.6e-4 9.89e-4,7e-4 h 1.85e-4 c 0.594806,0.48407 1.274531,0.82002 1.274531,0.82002 v -0.002 h 1.457829 v -0.81866 -0.002 -0.81867 h -1.457829 z m 0.228615,0.2861 0.415355,0.41536 0.415355,-0.41536 0.128839,0.12884 -0.415352,0.41536 0.415352,0.41535 -0.128839,0.1289 -0.415355,-0.41535 -0.415355,0.41535 -0.128841,-0.1289 0.415355,-0.41535 -0.415355,-0.41536 z"
         id="path1031"
         inkscape:connector-curvature="0" />
      <g
         style="fill:#000000;fill-opacity:1;stroke:none"
         transform="matrix(0.8992272,0,0,0.8992272,55.792564,38.481995)"
         id="g29219">
        <g
           style="opacity:1;fill:#000000;fill-opacity:1;stroke:none"
           id="rect29150" />
        <g
           style="opacity:1;fill:#000000;fill-opacity:1;stroke:none"
           id="rect29152" />
        <g
           style="opacity:1;fill:#000000;fill-opacity:1;stroke:none"
           id="rect29158" />
        <g
           style="opacity:1;fill:#000000;fill-opacity:1;stroke:none"
           id="rect29160" />
        <g
           style="opacity:1;fill:#000000;fill-opacity:1;stroke:none"
           id="rect29162" />
        <path
           sodipodi:nodetypes="cccccccccccccccccccccccccccccccccccccccccccccccccccccccccccccccccccccccccccccccccccccccccccccccccccccccccccccccccccccccccccccccccccccccccccccccccccccccccccccccccccccccccccccccccccccc"
           inkscape:connector-curvature="0"
           d="m -23.605469,258.83789 -0.002,0.20313 14.3183595,0.0371 0.00195,-0.20312 z m 0.0957,3.69727 -0.002,0.20312 14.3183596,0.0371 0.00195,-0.20312 z m -0.05273,3.23242 v 0.20508 l 14.3183594,0.0371 v -0.20508 z m 0.0957,3.15625 v 0.20312 l 13.7890626,0.0371 v -0.20312 z m 0.0039,3.23242 v 0.20313 l 14.3183598,0.0371 v -0.20312 z m -4.519531,-8.24219 c -0.05296,-2.6e-4 -0.09596,0.0427 -0.0957,0.0957 v 2.44335 c -2.57e-4,0.053 0.04274,0.096 0.0957,0.0957 h 2.527344 c 0.05296,2.6e-4 0.09596,-0.0427 0.0957,-0.0957 v -2.44335 c 2.57e-4,-0.053 -0.04274,-0.096 -0.0957,-0.0957 z m -2e-6,2.92967 c -0.05296,-2.6e-4 -0.09596,0.0427 -0.0957,0.0957 v 2.44336 c -2.57e-4,0.053 0.04274,0.096 0.0957,0.0957 h 2.527344 c 0.05296,2.6e-4 0.09596,-0.0427 0.0957,-0.0957 v -2.44336 c 2.57e-4,-0.053 -0.04274,-0.096 -0.0957,-0.0957 z m -2e-6,3.15817 c -0.05218,-2.6e-4 -0.09486,0.0415 -0.0957,0.0937 v 2.44532 c 8.43e-4,0.0522 0.04352,0.094 0.0957,0.0937 h 2.527344 c 0.05218,2.6e-4 0.09486,-0.0415 0.0957,-0.0937 v -2.44532 c -8.43e-4,-0.0522 -0.04352,-0.094 -0.0957,-0.0937 z m -2e-6,-12.38085 c -0.05218,-2.6e-4 -0.09486,0.0415 -0.0957,0.0937 v 2.44532 c 8.43e-4,0.0522 0.04352,0.094 0.0957,0.0937 h 2.527344 c 0.05218,2.6e-4 0.09486,-0.0415 0.0957,-0.0937 v -2.44532 c -8.43e-4,-0.0522 -0.04352,-0.094 -0.0957,-0.0937 z m -2e-6,3.1738 c -0.05296,-2.6e-4 -0.09596,0.0427 -0.0957,0.0957 v 2.44336 c -2.57e-4,0.053 0.04274,0.096 0.0957,0.0957 h 2.527344 c 0.05296,2.6e-4 0.09596,-0.0427 0.0957,-0.0957 v -2.44336 c 2.57e-4,-0.053 -0.04274,-0.096 -0.0957,-0.0957 z m 4.280911,-24.77254 v 0.19152 l 14.3166115,0.0366 0.0016,-0.19151 z m 0.04326,3.53045 v 0.19011 l 14.318214,0.038 v -0.19152 z m 0.05287,3.40793 -0.0016,0.19011 14.3182141,0.0366 0.0016,-0.19011 z m 0.09453,3.69803 v 0.19011 l 14.3182138,0.038 v -0.19151 z m -0.05127,3.23191 v 0.19151 l 14.3182137,0.0366 v -0.19011 z m 0.09613,3.15585 -0.0016,0.19011 14.3182141,0.038 0.0016,-0.19152 z m 0.0032,3.23332 v 0.19011 l 14.3182136,0.0366 v -0.19011 z m 0,-23.69641 v 0.19012 l 14.3182136,0.0366 v -0.19012 z m -4.518448,15.45334 c -0.05629,-1.1e-4 -0.101946,0.04 -0.101814,0.0895 v 2.44394 c -1.32e-4,0.0495 0.04553,0.0896 0.101814,0.0895 h 2.527387 c 0.05629,1.1e-4 0.101947,-0.04 0.101815,-0.0895 v -2.44394 c 1.32e-4,-0.0495 -0.04553,-0.0896 -0.101815,-0.0895 z m 0,2.92962 c -0.05629,-1.1e-4 -0.101946,0.04 -0.101814,0.0895 v 2.44393 c -1.32e-4,0.0495 0.04553,0.0896 0.101814,0.0895 h 2.527387 c 0.05629,1.1e-4 0.101947,-0.04 0.101815,-0.0895 v -2.44393 c 1.32e-4,-0.0495 -0.04553,-0.0896 -0.101815,-0.0895 z m 0,3.15725 c -0.05629,-1.1e-4 -0.101946,0.04 -0.101814,0.0895 v 2.44394 c -1.32e-4,0.0495 0.04553,0.0896 0.101814,0.0895 h 2.527387 c 0.05629,1.1e-4 0.101947,-0.04 0.101815,-0.0895 v -2.44394 c 1.32e-4,-0.0495 -0.04553,-0.0896 -0.101815,-0.0895 z m 0,-18.83288 c -0.05629,-1.1e-4 -0.101946,0.04 -0.101814,0.0895 v 2.44393 c -1.32e-4,0.0495 0.04553,0.0896 0.101814,0.0895 h 2.527387 c 0.05629,1.1e-4 0.101947,-0.04 0.101815,-0.0895 v -2.44393 c 1.32e-4,-0.0495 -0.04553,-0.0896 -0.101815,-0.0895 z m 0,3.2533 c -0.05629,-1.1e-4 -0.101946,0.04 -0.101814,0.0895 v 2.44393 c -1.32e-4,0.0495 0.04553,0.0896 0.101814,0.0895 h 2.527387 c 0.05629,1.1e-4 0.101947,-0.04 0.101815,-0.0895 v -2.44393 c 1.32e-4,-0.0495 -0.04553,-0.0896 -0.101815,-0.0895 z m 0,3.1994 c -0.05571,-1.1e-4 -0.101133,0.0392 -0.101814,0.0882 v 2.44393 c -1.32e-4,0.0495 0.04553,0.0896 0.101814,0.0895 h 2.527387 c 0.05629,1.1e-4 0.101947,-0.04 0.101815,-0.0895 v -2.44393 c -6.81e-4,-0.049 -0.0461,-0.0883 -0.101815,-0.0882 z m 0,3.17434 c -0.05629,-1.1e-4 -0.101946,0.04 -0.101814,0.0895 v 2.44393 c -1.32e-4,0.0495 0.04553,0.0896 0.101814,0.0895 h 2.527387 c 0.05629,1.1e-4 0.101947,-0.04 0.101815,-0.0895 v -2.44393 c 1.32e-4,-0.0495 -0.04553,-0.0896 -0.101815,-0.0895 z m 0,-12.93692 c -0.05629,-1.1e-4 -0.101946,0.04 -0.101814,0.0895 v 2.44393 c -1.32e-4,0.0495 0.04553,0.0896 0.101814,0.0895 h 2.527387 c 0.05629,1.1e-4 0.101947,-0.04 0.101815,-0.0895 v -2.44393 c 1.32e-4,-0.0495 -0.04553,-0.0896 -0.101815,-0.0895 z"
           style="color:#000000;font-style:normal;font-variant:normal;font-weight:normal;font-stretch:normal;font-size:medium;line-height:normal;font-family:sans-serif;font-variant-ligatures:normal;font-variant-position:normal;font-variant-caps:normal;font-variant-numeric:normal;font-variant-alternates:normal;font-feature-settings:normal;text-indent:0;text-align:start;text-decoration:none;text-decoration-line:none;text-decoration-style:solid;text-decoration-color:#000000;letter-spacing:normal;word-spacing:normal;text-transform:none;writing-mode:lr-tb;direction:ltr;text-orientation:mixed;dominant-baseline:auto;baseline-shift:baseline;text-anchor:start;white-space:normal;shape-padding:0;clip-rule:nonzero;display:inline;overflow:visible;visibility:visible;opacity:1;isolation:auto;mix-blend-mode:normal;color-interpolation:sRGB;color-interpolation-filters:linearRGB;solid-color:#000000;solid-opacity:1;fill:#000000;fill-opacity:1;fill-rule:evenodd;stroke:none;stroke-linecap:butt;stroke-linejoin:miter;stroke-miterlimit:4;stroke-dasharray:none;stroke-dashoffset:0.264583;stroke-opacity:1;color-rendering:auto;image-rendering:auto;shape-rendering:auto;text-rendering:auto;enable-background:accumulate"
           id="path29176" />
      </g>
    </g>
  </g>
</svg>
