<?xml version="1.0" encoding="UTF-8" standalone="no"?>
<!-- Created with Inkscape (http://www.inkscape.org/) -->

<svg
   width="66mm"
   height="66mm"
   viewBox="0 0 66 66"
   version="1.1"
   id="svg8"
   inkscape:version="1.2.1 (9c6d41e410, 2022-07-14)"
   sodipodi:docname="menu-elementary-symbolic.svg"
   xmlns:inkscape="http://www.inkscape.org/namespaces/inkscape"
   xmlns:sodipodi="http://sodipodi.sourceforge.net/DTD/sodipodi-0.dtd"
   xmlns="http://www.w3.org/2000/svg"
   xmlns:svg="http://www.w3.org/2000/svg"
   xmlns:rdf="http://www.w3.org/1999/02/22-rdf-syntax-ns#"
   xmlns:cc="http://creativecommons.org/ns#"
   xmlns:dc="http://purl.org/dc/elements/1.1/">
  <defs
     id="defs2" />
  <sodipodi:namedview
     id="base"
     pagecolor="#ffffff"
     bordercolor="#666666"
     borderopacity="1.0"
     inkscape:pageopacity="0.0"
     inkscape:pageshadow="2"
     inkscape:zoom="3.959798"
     inkscape:cx="36.112953"
     inkscape:cy="119.70308"
     inkscape:document-units="mm"
     inkscape:current-layer="layer1"
     showgrid="false"
     inkscape:window-width="2560"
     inkscape:window-height="1363"
     inkscape:window-x="0"
     inkscape:window-y="40"
     inkscape:window-maximized="1"
     inkscape:showpageshadow="2"
     inkscape:pagecheckerboard="0"
     inkscape:deskcolor="#d1d1d1" />
  <metadata
     id="metadata5">
    <rdf:RDF>
      <cc:Work
         rdf:about="">
        <dc:format>image/svg+xml</dc:format>
        <dc:type
           rdf:resource="http://purl.org/dc/dcmitype/StillImage" />
        <dc:title />
      </cc:Work>
    </rdf:RDF>
  </metadata>
  <g
     inkscape:label="Layer 1"
     inkscape:groupmode="layer"
     id="layer1"
     transform="translate(0,-231)">
    <g
       id="g434"
       transform="matrix(1.2200349,0,0,1.2200349,-0.570986,-64.841039)">
      <path
         id="rect30567"
         d="m 0.64239,249.04291 a 0.14381439,0.14381439 0 0 0 -0.142578,0.14454 v 40.69531 a 0.14381439,0.14381439 0 0 0 0.142578,0.14258 h 53.746095 a 0.14381439,0.14381439 0 0 0 0.144532,-0.14258 v -40.69531 a 0.14381439,0.14381439 0 0 0 -0.144532,-0.14454 z m 0.144531,0.28711 h 53.457033 v 40.40821 H 0.786921 Z"
         style="color:#000000;font-style:normal;font-variant:normal;font-weight:normal;font-stretch:normal;font-size:medium;line-height:normal;font-family:sans-serif;font-variant-ligatures:normal;font-variant-position:normal;font-variant-caps:normal;font-variant-numeric:normal;font-variant-alternates:normal;font-feature-settings:normal;text-indent:0;text-align:start;text-decoration:none;text-decoration-line:none;text-decoration-style:solid;text-decoration-color:#000000;letter-spacing:normal;word-spacing:normal;text-transform:none;writing-mode:lr-tb;direction:ltr;text-orientation:mixed;dominant-baseline:auto;baseline-shift:baseline;text-anchor:start;white-space:normal;shape-padding:0;clip-rule:nonzero;display:inline;overflow:visible;visibility:visible;isolation:auto;mix-blend-mode:normal;color-interpolation:sRGB;color-interpolation-filters:linearRGB;solid-color:#000000;solid-opacity:1;fill:#000000;fill-opacity:1;fill-rule:nonzero;stroke:none;stroke-width:1;stroke-linecap:butt;stroke-linejoin:round;stroke-miterlimit:4;stroke-dasharray:none;stroke-dashoffset:0;stroke-opacity:1;color-rendering:auto;image-rendering:auto;shape-rendering:auto;text-rendering:auto;enable-background:accumulate"
         inkscape:connector-curvature="0" />
      <g
         transform="matrix(0.54445546,0,0,0.54445546,2.823847,251.16908)"
         style="fill:#000000;fill-opacity:1;stroke:none"
         id="use31418">
        <title
           id="title1016">Edit Find</title>
        <path
           id="path1018"
           d="m 1.7216437,0.27172708 c -0.80115828,0 -1.45785412,0.65616667 -1.45785412,1.45626662 0,0.8008938 0.65669584,1.4567959 1.45785412,1.4567959 0.8016875,0 1.4578542,-0.6561667 1.4578542,-1.4565313 0,-0.80009997 -0.6561667,-1.45600205 -1.4578542,-1.45600205 z m 0,0.5318125 c 0.5154084,0 0.9260417,0.41010412 0.9260417,0.92445412 0,0.5148792 -0.4106333,0.925248 -0.9260417,0.925248 -0.5151437,0 -0.92604162,-0.4101042 -0.92604162,-0.9249834 0,-0.51435 0.41089792,-0.92445413 0.92604162,-0.92445413 z"
           inkscape:connector-curvature="0"
           style="fill:#000000;fill-opacity:1;stroke:none;stroke-width:0.264583" />
        <path
           id="path1020"
           d="M 2.5960917,2.3891875 A 0.26458333,0.26458333 0 0 0 2.4638,2.8442708 L 3.5221333,3.9026042 A 0.26614947,0.26614947 0 1 0 3.8944021,3.5221333 L 2.8360687,2.4638 A 0.26458333,0.26458333 0 0 0 2.5958271,2.3897167 Z"
           inkscape:connector-curvature="0"
           style="fill:#000000;fill-opacity:1;stroke:none;stroke-width:0.264583" />
      </g>
      <g
         style="fill:#000000;fill-opacity:1;stroke:none"
         transform="translate(0.319995,0.458931)"
         id="g27455">
        <g
           style="opacity:1;fill:#000000;fill-opacity:1;stroke:none"
           transform="rotate(89.890204)"
           id="rect33676" />
        <g
           style="opacity:1;fill:#000000;fill-opacity:1;stroke:none"
           transform="rotate(89.890204)"
           id="rect33678" />
        <g
           style="opacity:1;fill:#000000;fill-opacity:1;stroke:none"
           transform="rotate(89.890204)"
           id="rect33684" />
        <g
           style="opacity:1;fill:#000000;fill-opacity:1;stroke:none"
           transform="rotate(89.890204)"
           id="rect33686" />
        <g
           style="opacity:1;fill:#000000;fill-opacity:1;stroke:none"
           transform="rotate(89.890204)"
           id="rect33688" />
      </g>
      <g
         style="fill:#000000;fill-opacity:1;stroke:none"
         transform="matrix(1.2318096,0,0,1,-9.814604,0.458931)"
         id="g27411">
        <g
           style="opacity:1;fill:#000000;fill-opacity:1;stroke:none"
           id="path30636">
          <path
             id="path1126"
             d="m 9.7399768,253.17747 40.7826832,0.0501"
             style="color:#000000;font-style:normal;font-variant:normal;font-weight:normal;font-stretch:normal;font-size:medium;line-height:normal;font-family:sans-serif;font-variant-ligatures:normal;font-variant-position:normal;font-variant-caps:normal;font-variant-numeric:normal;font-variant-alternates:normal;font-feature-settings:normal;text-indent:0;text-align:start;text-decoration:none;text-decoration-line:none;text-decoration-style:solid;text-decoration-color:#000000;letter-spacing:normal;word-spacing:normal;text-transform:none;writing-mode:lr-tb;direction:ltr;text-orientation:mixed;dominant-baseline:auto;baseline-shift:baseline;text-anchor:start;white-space:normal;shape-padding:0;clip-rule:nonzero;display:inline;overflow:visible;visibility:visible;isolation:auto;mix-blend-mode:normal;color-interpolation:sRGB;color-interpolation-filters:linearRGB;solid-color:#000000;solid-opacity:1;fill:#000000;fill-opacity:1;fill-rule:evenodd;stroke:none;stroke-width:0.133189;stroke-linecap:butt;stroke-linejoin:miter;stroke-miterlimit:4;stroke-dasharray:none;stroke-dashoffset:0;stroke-opacity:1;color-rendering:auto;image-rendering:auto;shape-rendering:auto;text-rendering:auto;enable-background:accumulate"
             inkscape:connector-curvature="0" />
          <path
             id="path1128"
             d="m 9.7402344,253.11133 v 0.13281 l 40.7832036,0.0508 v -0.13476 z"
             style="color:#000000;font-style:normal;font-variant:normal;font-weight:normal;font-stretch:normal;font-size:medium;line-height:normal;font-family:sans-serif;font-variant-ligatures:normal;font-variant-position:normal;font-variant-caps:normal;font-variant-numeric:normal;font-variant-alternates:normal;font-feature-settings:normal;text-indent:0;text-align:start;text-decoration:none;text-decoration-line:none;text-decoration-style:solid;text-decoration-color:#000000;letter-spacing:normal;word-spacing:normal;text-transform:none;writing-mode:lr-tb;direction:ltr;text-orientation:mixed;dominant-baseline:auto;baseline-shift:baseline;text-anchor:start;white-space:normal;shape-padding:0;clip-rule:nonzero;display:inline;overflow:visible;visibility:visible;isolation:auto;mix-blend-mode:normal;color-interpolation:sRGB;color-interpolation-filters:linearRGB;solid-color:#000000;solid-opacity:1;fill:#000000;fill-opacity:1;fill-rule:evenodd;stroke:none;stroke-linecap:butt;stroke-linejoin:miter;stroke-miterlimit:4;stroke-dasharray:none;stroke-dashoffset:0;stroke-opacity:1;color-rendering:auto;image-rendering:auto;shape-rendering:auto;text-rendering:auto;enable-background:accumulate"
             inkscape:connector-curvature="0" />
        </g>
        <g
           style="opacity:1;fill:#000000;fill-opacity:1;stroke:none"
           id="path27401">
          <path
             id="path1132"
             d="m 9.8120713,250.53162 40.7105887,0.0501"
             style="color:#000000;font-style:normal;font-variant:normal;font-weight:normal;font-stretch:normal;font-size:medium;line-height:normal;font-family:sans-serif;font-variant-ligatures:normal;font-variant-position:normal;font-variant-caps:normal;font-variant-numeric:normal;font-variant-alternates:normal;font-feature-settings:normal;text-indent:0;text-align:start;text-decoration:none;text-decoration-line:none;text-decoration-style:solid;text-decoration-color:#000000;letter-spacing:normal;word-spacing:normal;text-transform:none;writing-mode:lr-tb;direction:ltr;text-orientation:mixed;dominant-baseline:auto;baseline-shift:baseline;text-anchor:start;white-space:normal;shape-padding:0;clip-rule:nonzero;display:inline;overflow:visible;visibility:visible;isolation:auto;mix-blend-mode:normal;color-interpolation:sRGB;color-interpolation-filters:linearRGB;solid-color:#000000;solid-opacity:1;fill:#000000;fill-opacity:1;fill-rule:evenodd;stroke:none;stroke-width:0.132662;stroke-linecap:butt;stroke-linejoin:miter;stroke-miterlimit:4;stroke-dasharray:none;stroke-dashoffset:0;stroke-opacity:1;color-rendering:auto;image-rendering:auto;shape-rendering:auto;text-rendering:auto;enable-background:accumulate"
             inkscape:connector-curvature="0" />
          <path
             id="path1134"
             d="m 9.8125,250.46484 v 0.13282 l 40.710938,0.0508 v -0.13282 z"
             style="color:#000000;font-style:normal;font-variant:normal;font-weight:normal;font-stretch:normal;font-size:medium;line-height:normal;font-family:sans-serif;font-variant-ligatures:normal;font-variant-position:normal;font-variant-caps:normal;font-variant-numeric:normal;font-variant-alternates:normal;font-feature-settings:normal;text-indent:0;text-align:start;text-decoration:none;text-decoration-line:none;text-decoration-style:solid;text-decoration-color:#000000;letter-spacing:normal;word-spacing:normal;text-transform:none;writing-mode:lr-tb;direction:ltr;text-orientation:mixed;dominant-baseline:auto;baseline-shift:baseline;text-anchor:start;white-space:normal;shape-padding:0;clip-rule:nonzero;display:inline;overflow:visible;visibility:visible;isolation:auto;mix-blend-mode:normal;color-interpolation:sRGB;color-interpolation-filters:linearRGB;solid-color:#000000;solid-opacity:1;fill:#000000;fill-opacity:1;fill-rule:evenodd;stroke:none;stroke-linecap:butt;stroke-linejoin:miter;stroke-miterlimit:4;stroke-dasharray:none;stroke-dashoffset:0;stroke-opacity:1;color-rendering:auto;image-rendering:auto;shape-rendering:auto;text-rendering:auto;enable-background:accumulate"
             inkscape:connector-curvature="0" />
        </g>
        <g
           style="opacity:1;fill:#000000;fill-opacity:1;stroke:none"
           id="path27403">
          <path
             id="path1138"
             d="m 50.567789,250.51956 -0.04546,2.70726"
             style="color:#000000;font-style:normal;font-variant:normal;font-weight:normal;font-stretch:normal;font-size:medium;line-height:normal;font-family:sans-serif;font-variant-ligatures:normal;font-variant-position:normal;font-variant-caps:normal;font-variant-numeric:normal;font-variant-alternates:normal;font-feature-settings:normal;text-indent:0;text-align:start;text-decoration:none;text-decoration-line:none;text-decoration-style:solid;text-decoration-color:#000000;letter-spacing:normal;word-spacing:normal;text-transform:none;writing-mode:lr-tb;direction:ltr;text-orientation:mixed;dominant-baseline:auto;baseline-shift:baseline;text-anchor:start;white-space:normal;shape-padding:0;clip-rule:nonzero;display:inline;overflow:visible;visibility:visible;isolation:auto;mix-blend-mode:normal;color-interpolation:sRGB;color-interpolation-filters:linearRGB;solid-color:#000000;solid-opacity:1;fill:#000000;fill-opacity:1;fill-rule:evenodd;stroke:none;stroke-width:0.103723;stroke-linecap:butt;stroke-linejoin:miter;stroke-miterlimit:4;stroke-dasharray:none;stroke-dashoffset:0;stroke-opacity:1;color-rendering:auto;image-rendering:auto;shape-rendering:auto;text-rendering:auto;enable-background:accumulate"
             inkscape:connector-curvature="0" />
          <path
             id="path1140"
             d="m 50.515625,250.51953 -0.04492,2.70703 0.103516,0.002 0.04492,-2.70899 z"
             style="color:#000000;font-style:normal;font-variant:normal;font-weight:normal;font-stretch:normal;font-size:medium;line-height:normal;font-family:sans-serif;font-variant-ligatures:normal;font-variant-position:normal;font-variant-caps:normal;font-variant-numeric:normal;font-variant-alternates:normal;font-feature-settings:normal;text-indent:0;text-align:start;text-decoration:none;text-decoration-line:none;text-decoration-style:solid;text-decoration-color:#000000;letter-spacing:normal;word-spacing:normal;text-transform:none;writing-mode:lr-tb;direction:ltr;text-orientation:mixed;dominant-baseline:auto;baseline-shift:baseline;text-anchor:start;white-space:normal;shape-padding:0;clip-rule:nonzero;display:inline;overflow:visible;visibility:visible;isolation:auto;mix-blend-mode:normal;color-interpolation:sRGB;color-interpolation-filters:linearRGB;solid-color:#000000;solid-opacity:1;fill:#000000;fill-opacity:1;fill-rule:evenodd;stroke:none;stroke-linecap:butt;stroke-linejoin:miter;stroke-miterlimit:4;stroke-dasharray:none;stroke-dashoffset:0;stroke-opacity:1;color-rendering:auto;image-rendering:auto;shape-rendering:auto;text-rendering:auto;enable-background:accumulate"
             inkscape:connector-curvature="0" />
        </g>
        <g
           style="opacity:1;fill:#000000;fill-opacity:1;stroke:none"
           id="path27405">
          <path
             id="path1144"
             d="m 9.8219303,250.51956 -0.04546,2.70726"
             style="color:#000000;font-style:normal;font-variant:normal;font-weight:normal;font-stretch:normal;font-size:medium;line-height:normal;font-family:sans-serif;font-variant-ligatures:normal;font-variant-position:normal;font-variant-caps:normal;font-variant-numeric:normal;font-variant-alternates:normal;font-feature-settings:normal;text-indent:0;text-align:start;text-decoration:none;text-decoration-line:none;text-decoration-style:solid;text-decoration-color:#000000;letter-spacing:normal;word-spacing:normal;text-transform:none;writing-mode:lr-tb;direction:ltr;text-orientation:mixed;dominant-baseline:auto;baseline-shift:baseline;text-anchor:start;white-space:normal;shape-padding:0;clip-rule:nonzero;display:inline;overflow:visible;visibility:visible;isolation:auto;mix-blend-mode:normal;color-interpolation:sRGB;color-interpolation-filters:linearRGB;solid-color:#000000;solid-opacity:1;fill:#000000;fill-opacity:1;fill-rule:evenodd;stroke:none;stroke-width:0.103723;stroke-linecap:butt;stroke-linejoin:miter;stroke-miterlimit:4;stroke-dasharray:none;stroke-dashoffset:0;stroke-opacity:1;color-rendering:auto;image-rendering:auto;shape-rendering:auto;text-rendering:auto;enable-background:accumulate"
             inkscape:connector-curvature="0" />
          <path
             id="path1146"
             d="m 9.7695312,250.51953 -0.044922,2.70703 0.1035156,0.002 0.044922,-2.70899 z"
             style="color:#000000;font-style:normal;font-variant:normal;font-weight:normal;font-stretch:normal;font-size:medium;line-height:normal;font-family:sans-serif;font-variant-ligatures:normal;font-variant-position:normal;font-variant-caps:normal;font-variant-numeric:normal;font-variant-alternates:normal;font-feature-settings:normal;text-indent:0;text-align:start;text-decoration:none;text-decoration-line:none;text-decoration-style:solid;text-decoration-color:#000000;letter-spacing:normal;word-spacing:normal;text-transform:none;writing-mode:lr-tb;direction:ltr;text-orientation:mixed;dominant-baseline:auto;baseline-shift:baseline;text-anchor:start;white-space:normal;shape-padding:0;clip-rule:nonzero;display:inline;overflow:visible;visibility:visible;isolation:auto;mix-blend-mode:normal;color-interpolation:sRGB;color-interpolation-filters:linearRGB;solid-color:#000000;solid-opacity:1;fill:#000000;fill-opacity:1;fill-rule:evenodd;stroke:none;stroke-linecap:butt;stroke-linejoin:miter;stroke-miterlimit:4;stroke-dasharray:none;stroke-dashoffset:0;stroke-opacity:1;color-rendering:auto;image-rendering:auto;shape-rendering:auto;text-rendering:auto;enable-background:accumulate"
             inkscape:connector-curvature="0" />
        </g>
      </g>
      <g
         style="fill:#000000;fill-opacity:1;stroke:none"
         id="g27467"
         transform="translate(0.319995,8.9255975)">
        <g
           style="opacity:1;fill:#000000;fill-opacity:1;stroke:none"
           transform="rotate(89.890204)"
           id="rect27457" />
        <g
           style="opacity:1;fill:#000000;fill-opacity:1;stroke:none"
           transform="rotate(89.890204)"
           id="rect27459" />
        <g
           style="opacity:1;fill:#000000;fill-opacity:1;stroke:none"
           transform="rotate(89.890204)"
           id="rect27461" />
        <g
           style="opacity:1;fill:#000000;fill-opacity:1;stroke:none"
           transform="rotate(89.890204)"
           id="rect27463" />
        <g
           style="opacity:1;fill:#000000;fill-opacity:1;stroke:none"
           transform="rotate(89.890204)"
           id="rect27465" />
      </g>
      <g
         id="g394">
        <g
           style="fill:#000000;fill-opacity:1;stroke:none"
           id="g27499"
           transform="translate(-0.209173,0.458931)">
          <g
             style="opacity:1;fill:#000000;fill-opacity:1;stroke:none"
             transform="rotate(89.890204)"
             id="rect27469" />
          <g
             style="opacity:1;fill:#000000;fill-opacity:1;stroke:none"
             transform="rotate(89.890204)"
             id="rect27471" />
          <g
             style="opacity:1;fill:#000000;fill-opacity:1;stroke:none"
             transform="rotate(89.890204)"
             id="rect27473" />
          <g
             style="opacity:1;fill:#000000;fill-opacity:1;stroke:none"
             transform="rotate(89.890204)"
             id="rect27475" />
          <g
             style="opacity:1;fill:#000000;fill-opacity:1;stroke:none"
             transform="rotate(89.890204)"
             id="rect27477">
            <path
               sodipodi:nodetypes="ccccccccccccccccccccccccccccccccccccccccccccccccccccccccccccccccccccccccccccccccccccccccccccccccccccccccccccccccccccccccccccccccccccccc"
               inkscape:connector-curvature="0"
               d="m 275.89844,-29.478516 c -0.11165,-5.45e-4 -0.20259,0.08952 -0.20313,0.201172 v 5.267578 c -5.5e-4,0.11241 0.0907,0.203674 0.20313,0.203125 h 5.2832 c 0.11164,-5.38e-4 0.20171,-0.09148 0.20117,-0.203125 v -5.267578 c -5.3e-4,-0.110882 -0.0903,-0.200638 -0.20117,-0.201172 z m -0.009,10.771485 c -0.11164,5.38e-4 -0.20171,0.09148 -0.20117,0.203125 v 5.267578 c 5.3e-4,0.110882 0.0903,0.200638 0.20117,0.201172 h 5.28516 c 0.11088,-5.34e-4 0.20064,-0.09029 0.20117,-0.201172 v -5.267578 c 5.4e-4,-0.111644 -0.0895,-0.202587 -0.20117,-0.203125 z m -0.006,10.7734372 c -0.11164,-5.394e-4 -0.20258,0.089529 -0.20312,0.2011719 v 5.2675781 c 5.4e-4,0.1116427 0.0915,0.2017113 0.20312,0.2011719 h 5.28321 c 0.11088,-5.339e-4 0.20064,-0.09029 0.20117,-0.2011719 v -5.2675781 c -5.3e-4,-0.110882 -0.0903,-0.200638 -0.20117,-0.2011719 z m 0.0313,-43.0898442 c -0.11241,-5.43e-4 -0.20367,0.09072 -0.20312,0.203126 v 5.267578 c 5.4e-4,0.111643 0.0915,0.201711 0.20312,0.201172 h 5.28321 c 0.11088,-5.34e-4 0.20064,-0.09029 0.20117,-0.201172 v -5.267578 c 5.4e-4,-0.111644 -0.0895,-0.202588 -0.20117,-0.203126 z m -0.008,10.773438 c -0.11165,-5.45e-4 -0.20259,0.08953 -0.20313,0.201172 v 5.267578 c -5.5e-4,0.11241 0.0907,0.203674 0.20313,0.203125 h 5.2832 c 0.11164,-5.38e-4 0.20171,-0.09148 0.20117,-0.203125 v -5.267578 c -5.3e-4,-0.111014 -0.0905,-0.200824 -0.20151,-0.201172 z m -8.47569,10.754636 c -0.11164,5.38e-4 -0.20171,0.09148 -0.20117,0.203125 v 5.267578 c 5.3e-4,0.110882 0.0903,0.200638 0.20117,0.201172 h 5.28516 c 0.11088,-5.34e-4 0.20064,-0.09029 0.20117,-0.201172 v -5.267578 c 5.4e-4,-0.111644 -0.0895,-0.202587 -0.20117,-0.203125 z m -0.008,10.773438 c -0.11088,5.34e-4 -0.20064,0.09029 -0.20117,0.201172 v 5.267578 c 5.3e-4,0.110882 0.0903,0.200638 0.20117,0.201172 h 5.2832 c 0.11165,5.45e-4 0.20259,-0.08953 0.20313,-0.201172 v -5.267578 c -5.4e-4,-0.111647 -0.0915,-0.201717 -0.20313,-0.201172 z m -0.008,10.7714836 c -0.11089,5.285e-4 -0.20065,0.090286 -0.20118,0.2011719 v 5.2675781 c -5.4e-4,0.1116478 0.0895,0.2025929 0.20118,0.203125 h 5.2832 c 0.11241,5.431e-4 0.20367,-0.090719 0.20312,-0.203125 v -5.2675781 c -5.4e-4,-0.1116427 -0.0915,-0.2017113 -0.20312,-0.2011719 z m 0.0313,-43.0878906 c -0.11089,5.28e-4 -0.20065,0.09029 -0.20118,0.201172 v 5.267578 c -5.4e-4,0.111648 0.0895,0.202593 0.20118,0.203125 h 5.2832 c 0.11241,5.43e-4 0.20367,-0.09072 0.20312,-0.203125 v -5.267578 c -5.4e-4,-0.111643 -0.0915,-0.201711 -0.20312,-0.201172 z m -0.008,10.771485 c -0.11088,5.34e-4 -0.20064,0.09029 -0.20117,0.201172 v 5.267578 c -5.4e-4,0.111644 0.0895,0.202587 0.20117,0.203125 h 5.28516 c 0.11164,-5.38e-4 0.20171,-0.09148 0.20117,-0.203125 v -5.267578 c -5.3e-4,-0.110882 -0.0903,-0.200638 -0.20117,-0.201172 z m -8.47447,10.755259 c -0.11164,5.38e-4 -0.20171,0.09148 -0.20117,0.203125 v 5.267578 c 5.3e-4,0.110882 0.0903,0.200638 0.20117,0.201172 h 5.28516 c 0.11088,-5.34e-4 0.20064,-0.09029 0.20117,-0.201172 v -5.267578 c 5.4e-4,-0.111644 -0.0895,-0.202587 -0.20117,-0.203125 z m -0.008,10.773438 c -0.11088,5.34e-4 -0.20064,0.09029 -0.20117,0.201172 v 5.267578 c 5.3e-4,0.110882 0.0903,0.200638 0.20117,0.201172 h 5.2832 c 0.11165,5.45e-4 0.20259,-0.08953 0.20313,-0.201172 v -5.267578 c -5.4e-4,-0.111647 -0.0915,-0.201717 -0.20313,-0.201172 z m -0.008,10.771484 c -0.11089,5.285e-4 -0.20065,0.090286 -0.20118,0.2011719 v 5.2675781 c -5.4e-4,0.1116478 0.0895,0.2025929 0.20118,0.203125 h 5.2832 c 0.11241,5.431e-4 0.20367,-0.090719 0.20312,-0.203125 v -5.2675781 c -5.4e-4,-0.1116427 -0.0915,-0.2017113 -0.20312,-0.2011719 z m 0.0313,-43.087891 c -0.11089,5.28e-4 -0.20065,0.09029 -0.20118,0.201172 v 5.267578 c -5.4e-4,0.111648 0.0895,0.202593 0.20118,0.203125 h 5.2832 c 0.11241,5.43e-4 0.20367,-0.09072 0.20312,-0.203125 v -5.267578 c -5.4e-4,-0.111643 -0.0915,-0.201711 -0.20312,-0.201172 z m -0.008,10.771485 c -0.11088,5.34e-4 -0.20064,0.09029 -0.20117,0.201172 v 5.267578 c -5.4e-4,0.111644 0.0895,0.202587 0.20117,0.203125 h 5.28516 c 0.11164,-5.38e-4 0.20171,-0.09148 0.20117,-0.203125 v -5.267578 c -5.3e-4,-0.110882 -0.0903,-0.200638 -0.20117,-0.201172 z"
               style="color:#000000;font-style:normal;font-variant:normal;font-weight:normal;font-stretch:normal;font-size:medium;line-height:normal;font-family:sans-serif;font-variant-ligatures:normal;font-variant-position:normal;font-variant-caps:normal;font-variant-numeric:normal;font-variant-alternates:normal;font-feature-settings:normal;text-indent:0;text-align:start;text-decoration:none;text-decoration-line:none;text-decoration-style:solid;text-decoration-color:#000000;letter-spacing:normal;word-spacing:normal;text-transform:none;writing-mode:lr-tb;direction:ltr;text-orientation:mixed;dominant-baseline:auto;baseline-shift:baseline;text-anchor:start;white-space:normal;shape-padding:0;clip-rule:nonzero;display:inline;overflow:visible;visibility:visible;isolation:auto;mix-blend-mode:normal;color-interpolation:sRGB;color-interpolation-filters:linearRGB;solid-color:#000000;solid-opacity:1;fill:#000000;fill-opacity:1;fill-rule:nonzero;stroke:none;stroke-linecap:butt;stroke-linejoin:round;stroke-miterlimit:4;stroke-dasharray:none;stroke-dashoffset:0;stroke-opacity:1;color-rendering:auto;image-rendering:auto;shape-rendering:auto;text-rendering:auto;enable-background:accumulate"
               id="path1092" />
          </g>
        </g>
      </g>
    </g>
  </g>
</svg>
