<?xml version="1.0" encoding="UTF-8" standalone="no"?>
<!-- Created with Inkscape (http://www.inkscape.org/) -->

<svg
   width="66mm"
   height="66mm"
   viewBox="0 0 66 66"
   version="1.1"
   id="svg8"
   inkscape:version="1.2.1 (9c6d41e410, 2022-07-14)"
   sodipodi:docname="menu-insider-symbolic.svg"
   xmlns:inkscape="http://www.inkscape.org/namespaces/inkscape"
   xmlns:sodipodi="http://sodipodi.sourceforge.net/DTD/sodipodi-0.dtd"
   xmlns="http://www.w3.org/2000/svg"
   xmlns:svg="http://www.w3.org/2000/svg"
   xmlns:rdf="http://www.w3.org/1999/02/22-rdf-syntax-ns#"
   xmlns:cc="http://creativecommons.org/ns#"
   xmlns:dc="http://purl.org/dc/elements/1.1/">
  <defs
     id="defs2" />
  <sodipodi:namedview
     id="base"
     pagecolor="#ffffff"
     bordercolor="#666666"
     borderopacity="1.0"
     inkscape:pageopacity="0.0"
     inkscape:pageshadow="2"
     inkscape:zoom="5.6"
     inkscape:cx="87.5"
     inkscape:cy="203.39286"
     inkscape:document-units="mm"
     inkscape:current-layer="layer1"
     showgrid="false"
     inkscape:window-width="2560"
     inkscape:window-height="1363"
     inkscape:window-x="0"
     inkscape:window-y="40"
     inkscape:window-maximized="1"
     inkscape:showpageshadow="2"
     inkscape:pagecheckerboard="0"
     inkscape:deskcolor="#d1d1d1" />
  <metadata
     id="metadata5">
    <rdf:RDF>
      <cc:Work
         rdf:about="">
        <dc:format>image/svg+xml</dc:format>
        <dc:type
           rdf:resource="http://purl.org/dc/dcmitype/StillImage" />
        <dc:title />
      </cc:Work>
    </rdf:RDF>
  </metadata>
  <g
     inkscape:label="Layer 1"
     inkscape:groupmode="layer"
     id="layer1"
     transform="translate(0,-231)">
    <g
       id="g896"
       transform="matrix(1.111111,0,0,1.111111,-3.6666624,-29.333304)">
      <path
         d="m 12.195713,241.5 a 0.13266545,0.13266545 0 0 0 -0.131722,0.13348 v 44.7348 A 0.13266545,0.13266545 0 0 0 12.195713,286.5 h 41.606818 a 0.13266545,0.13266545 0 0 0 0.133477,-0.13172 v -44.7348 A 0.13266545,0.13266545 0 0 0 53.802531,241.5 Z m 0.13348,0.2652 h 41.341615 v 44.4696 H 12.329193 Z"
         style="color:#000000;font-style:normal;font-variant:normal;font-weight:normal;font-stretch:normal;font-size:medium;line-height:normal;font-family:sans-serif;font-variant-ligatures:normal;font-variant-position:normal;font-variant-caps:normal;font-variant-numeric:normal;font-variant-alternates:normal;font-feature-settings:normal;text-indent:0;text-align:start;text-decoration:none;text-decoration-line:none;text-decoration-style:solid;text-decoration-color:#000000;letter-spacing:normal;word-spacing:normal;text-transform:none;writing-mode:lr-tb;direction:ltr;text-orientation:mixed;dominant-baseline:auto;baseline-shift:baseline;text-anchor:start;white-space:normal;shape-padding:0;clip-rule:nonzero;display:inline;overflow:visible;visibility:visible;isolation:auto;mix-blend-mode:normal;color-interpolation:sRGB;color-interpolation-filters:linearRGB;solid-color:#000000;solid-opacity:1;fill:#000000;fill-opacity:1;fill-rule:nonzero;stroke:none;stroke-width:0.899227;stroke-linecap:butt;stroke-linejoin:round;stroke-miterlimit:4;stroke-dasharray:none;stroke-dashoffset:0;stroke-opacity:1;color-rendering:auto;image-rendering:auto;shape-rendering:auto;text-rendering:auto;enable-background:accumulate"
         id="rect30567"
         inkscape:connector-curvature="0" />
      <path
         id="path30569"
         d="m 18.460446,243.87101 -0.228319,0.002 0.209,40.97631 h 0.228319 z"
         style="color:#000000;font-style:normal;font-variant:normal;font-weight:normal;font-stretch:normal;font-size:medium;line-height:normal;font-family:sans-serif;font-variant-ligatures:normal;font-variant-position:normal;font-variant-caps:normal;font-variant-numeric:normal;font-variant-alternates:normal;font-feature-settings:normal;text-indent:0;text-align:start;text-decoration:none;text-decoration-line:none;text-decoration-style:solid;text-decoration-color:#000000;letter-spacing:normal;word-spacing:normal;text-transform:none;writing-mode:lr-tb;direction:ltr;text-orientation:mixed;dominant-baseline:auto;baseline-shift:baseline;text-anchor:start;white-space:normal;shape-padding:0;clip-rule:nonzero;display:inline;overflow:visible;visibility:visible;isolation:auto;mix-blend-mode:normal;color-interpolation:sRGB;color-interpolation-filters:linearRGB;solid-color:#000000;solid-opacity:1;fill:#000000;fill-opacity:1;fill-rule:evenodd;stroke:none;stroke-width:0.899227;stroke-linecap:butt;stroke-linejoin:miter;stroke-miterlimit:4;stroke-dasharray:none;stroke-dashoffset:0;stroke-opacity:1;color-rendering:auto;image-rendering:auto;shape-rendering:auto;text-rendering:auto;enable-background:accumulate"
         inkscape:connector-curvature="0" />
      <g
         style="fill:#000000;fill-opacity:1;stroke:none"
         id="path36029"
         transform="matrix(0.8992271,0,0,0.8992271,11.440504,26.099989)">
        <path
           id="path1759"
           d="m 2.0694373,287.70415 5.9779913,0.0514"
           style="color:#000000;font-style:normal;font-variant:normal;font-weight:normal;font-stretch:normal;font-size:medium;line-height:normal;font-family:sans-serif;font-variant-ligatures:normal;font-variant-position:normal;font-variant-caps:normal;font-variant-numeric:normal;font-variant-alternates:normal;font-feature-settings:normal;text-indent:0;text-align:start;text-decoration:none;text-decoration-line:none;text-decoration-style:solid;text-decoration-color:#000000;letter-spacing:normal;word-spacing:normal;text-transform:none;writing-mode:lr-tb;direction:ltr;text-orientation:mixed;dominant-baseline:auto;baseline-shift:baseline;text-anchor:start;white-space:normal;shape-padding:0;clip-rule:nonzero;display:inline;overflow:visible;visibility:visible;isolation:auto;mix-blend-mode:normal;color-interpolation:sRGB;color-interpolation-filters:linearRGB;solid-color:#000000;solid-opacity:1;fill:#000000;fill-opacity:1;fill-rule:evenodd;stroke:none;stroke-width:0.153352;stroke-linecap:butt;stroke-linejoin:miter;stroke-miterlimit:4;stroke-dasharray:none;stroke-dashoffset:0;stroke-opacity:1;color-rendering:auto;image-rendering:auto;shape-rendering:auto;text-rendering:auto;enable-background:accumulate"
           inkscape:connector-curvature="0" />
        <path
           id="path1761"
           d="m 2.0703125,287.62695 -0.00195,0.1543 5.9785156,0.0508 0.00195,-0.15234 z"
           style="color:#000000;font-style:normal;font-variant:normal;font-weight:normal;font-stretch:normal;font-size:medium;line-height:normal;font-family:sans-serif;font-variant-ligatures:normal;font-variant-position:normal;font-variant-caps:normal;font-variant-numeric:normal;font-variant-alternates:normal;font-feature-settings:normal;text-indent:0;text-align:start;text-decoration:none;text-decoration-line:none;text-decoration-style:solid;text-decoration-color:#000000;letter-spacing:normal;word-spacing:normal;text-transform:none;writing-mode:lr-tb;direction:ltr;text-orientation:mixed;dominant-baseline:auto;baseline-shift:baseline;text-anchor:start;white-space:normal;shape-padding:0;clip-rule:nonzero;display:inline;overflow:visible;visibility:visible;isolation:auto;mix-blend-mode:normal;color-interpolation:sRGB;color-interpolation-filters:linearRGB;solid-color:#000000;solid-opacity:1;fill:#000000;fill-opacity:1;fill-rule:evenodd;stroke:none;stroke-linecap:butt;stroke-linejoin:miter;stroke-miterlimit:4;stroke-dasharray:none;stroke-dashoffset:0;stroke-opacity:1;color-rendering:auto;image-rendering:auto;shape-rendering:auto;text-rendering:auto;enable-background:accumulate"
           inkscape:connector-curvature="0" />
      </g>
      <path
         id="path27401"
         d="m 13.224908,243.87101 -0.226563,0.002 0.209,40.97631 h 0.228319 z"
         style="color:#000000;font-style:normal;font-variant:normal;font-weight:normal;font-stretch:normal;font-size:medium;line-height:normal;font-family:sans-serif;font-variant-ligatures:normal;font-variant-position:normal;font-variant-caps:normal;font-variant-numeric:normal;font-variant-alternates:normal;font-feature-settings:normal;text-indent:0;text-align:start;text-decoration:none;text-decoration-line:none;text-decoration-style:solid;text-decoration-color:#000000;letter-spacing:normal;word-spacing:normal;text-transform:none;writing-mode:lr-tb;direction:ltr;text-orientation:mixed;dominant-baseline:auto;baseline-shift:baseline;text-anchor:start;white-space:normal;shape-padding:0;clip-rule:nonzero;display:inline;overflow:visible;visibility:visible;isolation:auto;mix-blend-mode:normal;color-interpolation:sRGB;color-interpolation-filters:linearRGB;solid-color:#000000;solid-opacity:1;fill:#000000;fill-opacity:1;fill-rule:evenodd;stroke:none;stroke-width:0.899227;stroke-linecap:butt;stroke-linejoin:miter;stroke-miterlimit:4;stroke-dasharray:none;stroke-dashoffset:0;stroke-opacity:1;color-rendering:auto;image-rendering:auto;shape-rendering:auto;text-rendering:auto;enable-background:accumulate"
         inkscape:connector-curvature="0" />
      <g
         style="fill:#000000;fill-opacity:1;stroke:none"
         id="path29221"
         transform="matrix(0.8992271,0,0,0.8992271,11.440504,26.099989)">
        <path
           id="path1749"
           d="m 1.8239097,242.17723 5.9076173,0.0518"
           style="color:#000000;font-style:normal;font-variant:normal;font-weight:normal;font-stretch:normal;font-size:medium;line-height:normal;font-family:sans-serif;font-variant-ligatures:normal;font-variant-position:normal;font-variant-caps:normal;font-variant-numeric:normal;font-variant-alternates:normal;font-feature-settings:normal;text-indent:0;text-align:start;text-decoration:none;text-decoration-line:none;text-decoration-style:solid;text-decoration-color:#000000;letter-spacing:normal;word-spacing:normal;text-transform:none;writing-mode:lr-tb;direction:ltr;text-orientation:mixed;dominant-baseline:auto;baseline-shift:baseline;text-anchor:start;white-space:normal;shape-padding:0;clip-rule:nonzero;display:inline;overflow:visible;visibility:visible;isolation:auto;mix-blend-mode:normal;color-interpolation:sRGB;color-interpolation-filters:linearRGB;solid-color:#000000;solid-opacity:1;fill:#000000;fill-opacity:1;fill-rule:evenodd;stroke:none;stroke-width:0.153091;stroke-linecap:butt;stroke-linejoin:miter;stroke-miterlimit:4;stroke-dasharray:none;stroke-dashoffset:0;stroke-opacity:1;color-rendering:auto;image-rendering:auto;shape-rendering:auto;text-rendering:auto;enable-background:accumulate"
           inkscape:connector-curvature="0" />
        <path
           id="path1751"
           d="m 1.8242188,242.10156 -0.00195,0.15235 5.9082032,0.0508 0.00195,-0.15235 z"
           style="color:#000000;font-style:normal;font-variant:normal;font-weight:normal;font-stretch:normal;font-size:medium;line-height:normal;font-family:sans-serif;font-variant-ligatures:normal;font-variant-position:normal;font-variant-caps:normal;font-variant-numeric:normal;font-variant-alternates:normal;font-feature-settings:normal;text-indent:0;text-align:start;text-decoration:none;text-decoration-line:none;text-decoration-style:solid;text-decoration-color:#000000;letter-spacing:normal;word-spacing:normal;text-transform:none;writing-mode:lr-tb;direction:ltr;text-orientation:mixed;dominant-baseline:auto;baseline-shift:baseline;text-anchor:start;white-space:normal;shape-padding:0;clip-rule:nonzero;display:inline;overflow:visible;visibility:visible;isolation:auto;mix-blend-mode:normal;color-interpolation:sRGB;color-interpolation-filters:linearRGB;solid-color:#000000;solid-opacity:1;fill:#000000;fill-opacity:1;fill-rule:evenodd;stroke:none;stroke-linecap:butt;stroke-linejoin:miter;stroke-miterlimit:4;stroke-dasharray:none;stroke-dashoffset:0;stroke-opacity:1;color-rendering:auto;image-rendering:auto;shape-rendering:auto;text-rendering:auto;enable-background:accumulate"
           inkscape:connector-curvature="0" />
      </g>
      <g
         style="fill:#000000;fill-opacity:1;stroke:none"
         inkscape:label="Layer 1"
         id="layer1-2"
         transform="matrix(0.8992271,0,0,0.8992271,-50.083745,29.876975)">
        <g
           transform="matrix(0.46763782,0,0,0.46763782,110.34208,248.2361)"
           style="fill:#000000;fill-opacity:1;stroke:none"
           id="use31418">
          <title
             id="title1548">Edit Find</title>
        </g>
        <g
           style="fill:#000000;fill-opacity:1;stroke:none"
           id="g27411"
           transform="matrix(0.83442172,0,0,0.87108423,70.508575,29.858694)">
          <g
             style="opacity:1;fill:#000000;fill-opacity:1;stroke:none"
             id="path30636" />
          <g
             style="opacity:1;fill:#000000;fill-opacity:1;stroke:none"
             id="path27401-4" />
          <g
             style="opacity:1;fill:#000000;fill-opacity:1;stroke:none"
             id="path27403" />
          <g
             style="opacity:1;fill:#000000;fill-opacity:1;stroke:none"
             id="path27405">
            <path
               d="m 9.7695312,250.51953 -0.044922,2.70703 0.1035156,0.002 0.044922,-2.70899 z m 0.052399,3e-5 -0.04546,2.70726 m 40.7391548,-2.70729 -0.04492,2.70703 0.103516,0.002 0.04492,-2.70899 z m 0.05216,3e-5 -0.04546,2.70726 M 9.8125,250.46484 v 0.13282 l 40.710938,0.0508 v -0.13282 z m -4.287e-4,0.0668 40.7105887,0.0501 m -40.7824256,2.52961 v 0.13281 l 40.7832036,0.0508 v -0.13476 z m -2.576e-4,0.0661 40.7826832,0.0501 m -1.329866,-1.24886 a 0.14828134,0.14204042 0 0 0 -0.07414,0.24431 l 0.593126,0.56816 a 0.14915906,0.1428812 0 1 0 0.208631,-0.20425 l -0.593125,-0.56816 a 0.14828134,0.14204042 0 0 0 -0.134639,-0.0398 z m -0.49007,-1.13675 c -0.448996,0 -0.81703,0.35226 -0.81703,0.78179 0,0.42996 0.368034,0.78208 0.81703,0.78208 0.449292,0 0.81703,-0.35226 0.81703,-0.78194 0,-0.42953 -0.367738,-0.78165 -0.81703,-0.78165 z m 0,0.2855 c 0.288852,0 0.518985,0.22016 0.518985,0.49629 0,0.27641 -0.230133,0.49672 -0.518985,0.49672 -0.288704,0 -0.518985,-0.22017 -0.518985,-0.49658 0,-0.27612 0.230281,-0.49629 0.518985,-0.49629 z"
               style="color:#000000;font-style:normal;font-variant:normal;font-weight:normal;font-stretch:normal;font-size:medium;line-height:normal;font-family:sans-serif;font-variant-ligatures:normal;font-variant-position:normal;font-variant-caps:normal;font-variant-numeric:normal;font-variant-alternates:normal;font-feature-settings:normal;text-indent:0;text-align:start;text-decoration:none;text-decoration-line:none;text-decoration-style:solid;text-decoration-color:#000000;letter-spacing:normal;word-spacing:normal;text-transform:none;writing-mode:lr-tb;direction:ltr;text-orientation:mixed;dominant-baseline:auto;baseline-shift:baseline;text-anchor:start;white-space:normal;shape-padding:0;clip-rule:nonzero;display:inline;overflow:visible;visibility:visible;isolation:auto;mix-blend-mode:normal;color-interpolation:sRGB;color-interpolation-filters:linearRGB;solid-color:#000000;solid-opacity:1;fill:#000000;fill-opacity:1;fill-rule:evenodd;stroke:none;stroke-linecap:butt;stroke-linejoin:miter;stroke-miterlimit:4;stroke-dasharray:none;stroke-dashoffset:0;stroke-opacity:1;color-rendering:auto;image-rendering:auto;shape-rendering:auto;text-rendering:auto;enable-background:accumulate"
               id="path1745"
               inkscape:connector-curvature="0" />
          </g>
        </g>
      </g>
      <path
         d="m 35.958452,242.85472 c -0.677995,5e-5 -1.333573,0.28606 -1.812937,0.79069 -0.479443,0.50473 -0.750872,1.19478 -0.750872,1.90834 v 0.002 c 0.0013,0.27473 0.02577,0.59089 0.155279,0.91158 0.337635,0.83604 0.843852,1.48525 1.306141,1.98703 h -8.33e-4 c 0.127663,0.14583 0.273177,0.29392 0.418222,0.43632 h 1.35311 c 0.146868,-0.14361 0.296945,-0.2926 0.436022,-0.43718 h -0.0012 c 0.462144,-0.50167 0.968201,-1.15044 1.305711,-1.98617 0.129495,-0.32066 0.154265,-0.63677 0.155278,-0.91158 v -0.002 c 0,-0.71369 -0.2717,-1.40367 -0.751084,-1.90834 -0.479309,-0.50457 -1.134726,-0.79064 -1.812724,-0.79069 h -2.18e-4 z m 2.305581,5.28138 c -0.303868,0.43894 -0.634605,0.81932 -0.949901,1.14443 h 0.0012 c -0.577375,0.57022 -1.353753,1.25102 -1.353753,1.25102 0,0 -0.82288,-0.66876 -1.358683,-1.25016 h 0.0013 c -0.314905,-0.32468 -0.645427,-0.70447 -0.949046,-1.14271 -0.01357,0.005 -0.02744,0.01 -0.04097,0.0148 -0.73147,0.27725 -1.377373,0.64592 -1.937768,1.10604 v 2.15695 h 3.031787 0.0038 2.493892 3.035647 v -2.15695 c -0.560394,-0.46012 -1.203188,-0.82879 -1.928753,-1.10604 -0.01601,-0.006 -0.03242,-0.0113 -0.04847,-0.0174 z"
         style="font-style:normal;font-variant:normal;font-weight:normal;font-stretch:normal;font-size:121.63px;line-height:125%;font-family:Ubuntu;-inkscape-font-specification:Ubuntu;text-align:center;letter-spacing:0px;word-spacing:0px;writing-mode:lr-tb;text-anchor:middle;fill:#000000;fill-opacity:1;stroke:none;stroke-width:0.109788"
         id="path1538"
         inkscape:connector-curvature="0" />
      <g
         transform="matrix(0.12120349,0,0,0.12120351,16.576073,274.0903)"
         style="fill:#000000;fill-opacity:1;stroke:none"
         id="use10672">
        <title
           id="title1472">settings</title>
        <g
           transform="matrix(0,-1,-1,0,98.823214,136.65863)"
           id="g1498"
           style="display:inline;fill:#000000;fill-opacity:1;stroke:none">
          <g
             style="fill:#000000;fill-opacity:1;stroke:none"
             transform="matrix(0,-1,-1,0,940.42503,162.81458)"
             id="g1496">
            <path
               sodipodi:nodetypes="ccccccccccccccccccccccccccccccccccccccccccccccccccccccscsssccccc"
               inkscape:connector-curvature="0"
               d="m 52.217005,828.32506 -2.822236,2.39924 2.543164,3.03081 2.837522,-2.38099 -2.558384,-3.04893 z m -4.899226,5.95191 -0.619763,3.65202 3.896342,0.68701 0.643202,-3.64786 -3.919649,-0.69112 z m 0.07278,7.70858 1.872705,3.19598 3.426373,-1.97823 -1.852073,-3.20786 -3.446878,1.99006 z m 5.010732,5.85833 3.488918,1.24452 1.353169,-3.71785 -3.480747,-1.26688 -1.361266,3.7401 z m 7.604104,1.2669 3.472638,-1.28926 -1.353206,-3.71785 -3.480732,1.26691 1.361284,3.74007 z m 6.639436,-3.91731 1.831477,-3.2198 -3.426399,-1.97821 -1.852059,3.20786 3.446891,1.99007 z m 2.568104,-7.26858 -0.666655,-3.64377 -3.896349,0.68705 0.643228,3.64786 3.919659,-0.69114 z m -2.704883,-7.21882 -2.852843,-2.36275 -2.543154,3.03083 2.837537,2.38096 2.558375,-3.04896 z m -6.712223,-4.05585 -3.704143,0.55298 v 3.69187 h 3.704143 v -4.24471 z m 6.177666,16.02219 c 2.547011,-4.41568 1.015664,-10.11007 -3.401533,-12.66272 -4.417204,-2.55266 -10.111463,-1.03386 -12.658474,3.38181 -2.547016,4.41568 -1.013967,10.11105 3.403238,12.6637 4.417196,2.55265 10.109754,1.03289 12.656769,-3.38279 z m -2.749664,-1.589 c -1.688262,2.92688 -5.386363,3.91635 -8.320326,2.22084 -2.933972,-1.69551 -3.928607,-5.39686 -2.240344,-8.32374 1.688257,-2.92688 5.388046,-3.91538 8.322018,-2.21986 2.933963,1.6955 3.926909,5.39588 2.238652,8.32276 z"
               style="color:#000000;display:inline;overflow:visible;visibility:visible;fill:#000000;fill-opacity:1;fill-rule:nonzero;stroke:none;stroke-width:0.529167;marker:none;enable-background:accumulate"
               id="path1494" />
          </g>
        </g>
      </g>
      <path
         d="m 15.169644,274.05123 h 0.769642 v 0.19241 h -0.769642 z m 0,-0.38482 h 1.346874 v 0.19241 h -1.346874 z m 0,-0.38483 h 1.346874 v 0.19241 h -1.346874 z m -0.577232,-0.57723 v 2.50135 h 1.731695 0.09621 l 0.673437,-0.67344 v -0.0962 -1.7317 z m 0.19241,0.19242 h 2.116516 v 1.53928 h -0.577231 v 0.57723 h -1.539285 z m 1.058376,-4.47962 c -0.197999,2e-5 -0.389451,0.0835 -0.529442,0.23101 -0.140015,0.14746 -0.219281,0.34906 -0.219281,0.55752 v 7.2e-4 c 3.57e-4,0.0803 0.0076,0.17262 0.04535,0.26631 0.0986,0.24426 0.246435,0.43392 0.381439,0.58051 h -2.38e-4 c 0.03728,0.0426 0.07978,0.0859 0.122136,0.12749 h 0.395156 c 0.04289,-0.042 0.08672,-0.0855 0.127334,-0.12774 h -3.57e-4 c 0.134962,-0.14655 0.282749,-0.33608 0.381314,-0.58026 0.03782,-0.0937 0.04505,-0.18603 0.04535,-0.26631 v -7.2e-4 c 0,-0.2085 -0.07935,-0.41008 -0.219343,-0.55752 -0.139976,-0.14742 -0.331381,-0.23099 -0.52938,-0.23101 h -6.4e-5 z m 0.673312,1.54297 c -0.08874,0.12824 -0.185328,0.23936 -0.277405,0.33435 h 3.57e-4 c -0.168615,0.16658 -0.395344,0.36548 -0.395344,0.36548 0,0 -0.24031,-0.19537 -0.396784,-0.36524 h 3.57e-4 c -0.09196,-0.0949 -0.188487,-0.2058 -0.277155,-0.33384 -0.004,0.002 -0.008,0.003 -0.01196,0.005 -0.213615,0.081 -0.402241,0.1887 -0.565896,0.32313 v 0.63015 h 0.885389 0.0011 0.728305 0.886515 V 270.289 c -0.163655,-0.13443 -0.351374,-0.24214 -0.563264,-0.32313 -0.0047,-0.002 -0.0095,-0.004 -0.01415,-0.005 z"
         style="color:#000000;display:inline;overflow:visible;visibility:visible;fill:#000000;fill-opacity:1;fill-rule:nonzero;stroke:none;stroke-width:0.19241;marker:none;enable-background:accumulate"
         id="rect1464"
         inkscape:connector-curvature="0" />
      <g
         transform="matrix(0.60609323,0,0,0.90913982,13.726383,244.21743)"
         style="fill:#000000;fill-opacity:1;stroke:none"
         id="use84791">
        <path
           d="m 0.79375,4.7625 h 4.7625 V 4.2333333 h -4.7625 z m 0,-1.3229167 h 4.7625 V 2.9104167 h -4.7625 z m 0,-1.8520833 v 0.5291667 h 4.7625 V 1.5875 Z"
           style="fill:#000000;fill-opacity:1;stroke:none;stroke-width:0.264583"
           id="path1450"
           inkscape:connector-curvature="0" />
      </g>
      <g
         style="fill:#000000;fill-opacity:1;stroke:none"
         inkscape:label="Layer 1"
         id="layer1-3"
         transform="matrix(0.8992271,0,0,0.8992271,45.842041,23.607499)">
        <g
           style="fill:#000000;fill-opacity:1;stroke:none"
           id="g27497"
           transform="matrix(0.97575991,0,0,0.83001849,-29.472107,55.41509)">
          <g
             style="fill:#000000;fill-opacity:1;stroke:none"
             transform="rotate(-89.926423,-5.277254,234.71843)"
             id="g27430">
            <g
               style="opacity:1;fill:#000000;fill-opacity:1;stroke:none"
               id="rect33674" />
            <g
               style="opacity:1;fill:#000000;fill-opacity:1;stroke:none"
               id="rect33678" />
            <g
               style="opacity:1;fill:#000000;fill-opacity:1;stroke:none"
               id="rect33680" />
            <g
               style="opacity:1;fill:#000000;fill-opacity:1;stroke:none"
               id="rect33682" />
          </g>
          <g
             style="fill:#000000;fill-opacity:1;stroke:none"
             id="g27440"
             transform="rotate(-89.926423,-1.502096,238.48869)">
            <g
               style="opacity:1;fill:#000000;fill-opacity:1;stroke:none"
               id="rect27432" />
            <g
               style="opacity:1;fill:#000000;fill-opacity:1;stroke:none"
               id="rect27434" />
            <g
               style="opacity:1;fill:#000000;fill-opacity:1;stroke:none"
               id="rect27436" />
            <g
               style="opacity:1;fill:#000000;fill-opacity:1;stroke:none"
               id="rect27438" />
          </g>
          <g
             style="fill:#000000;fill-opacity:1;stroke:none"
             transform="rotate(-89.926423,2.2730603,242.25896)"
             id="g27450">
            <g
               style="opacity:1;fill:#000000;fill-opacity:1;stroke:none"
               id="rect27442" />
            <g
               style="opacity:1;fill:#000000;fill-opacity:1;stroke:none"
               id="rect27444" />
            <g
               style="opacity:1;fill:#000000;fill-opacity:1;stroke:none"
               id="rect27446" />
            <g
               style="opacity:1;fill:#000000;fill-opacity:1;stroke:none"
               id="rect27448" />
          </g>
          <g
             style="fill:#000000;fill-opacity:1;stroke:none"
             id="g27460"
             transform="rotate(-89.926423,6.0482183,246.02923)">
            <g
               style="opacity:1;fill:#000000;fill-opacity:1;stroke:none"
               id="rect27452" />
            <g
               style="opacity:1;fill:#000000;fill-opacity:1;stroke:none"
               id="rect27454" />
            <g
               style="opacity:1;fill:#000000;fill-opacity:1;stroke:none"
               id="rect27456" />
            <g
               style="opacity:1;fill:#000000;fill-opacity:1;stroke:none"
               id="rect27458" />
          </g>
          <g
             style="fill:#000000;fill-opacity:1;stroke:none"
             transform="rotate(-89.926423,9.8233747,249.79949)"
             id="g27470">
            <g
               style="opacity:1;fill:#000000;fill-opacity:1;stroke:none"
               id="rect27462" />
            <g
               style="opacity:1;fill:#000000;fill-opacity:1;stroke:none"
               id="rect27464" />
            <g
               style="opacity:1;fill:#000000;fill-opacity:1;stroke:none"
               id="rect27466" />
            <g
               style="opacity:1;fill:#000000;fill-opacity:1;stroke:none"
               id="rect27468">
              <path
                 sodipodi:nodetypes="cccccccccccccccccccccccccccccccccccccccccccccccccccccccccccccccccccccccccccccccccccccccccccccccccccccccccccccccccccccccccccccccccccccccccccccccccccccccccccccccccccccccccccccccccccc"
                 inkscape:connector-curvature="0"
                 d="m -22.314453,251.79883 c -0.122442,5.1e-4 -0.221272,0.10021 -0.220703,0.22265 v 6.06641 c 5.05e-4,0.12168 0.09902,0.2202 0.220703,0.2207 h 5.513672 c 0.122443,5.7e-4 0.222148,-0.0983 0.222656,-0.2207 v -6.06641 c 5.73e-4,-0.12321 -0.09945,-0.22323 -0.222656,-0.22265 z m 0,8.07617 c -0.122446,5.1e-4 -0.221277,0.10021 -0.220703,0.22266 v 6.0664 c 5e-4,0.12168 0.09902,0.22021 0.220703,0.22071 h 5.513672 c 0.122446,5.7e-4 0.222153,-0.0983 0.222656,-0.22071 v -6.0664 c 5.78e-4,-0.12321 -0.09945,-0.22324 -0.222656,-0.22266 z m 0,7.93945 c -0.121684,5e-4 -0.220203,0.099 -0.220703,0.22071 v 6.0664 c 5e-4,0.12168 0.09902,0.22021 0.220703,0.22071 h 5.513672 c 0.122446,5.7e-4 0.222153,-0.0983 0.222656,-0.22071 v -6.0664 c -5.03e-4,-0.12245 -0.10021,-0.22128 -0.222656,-0.22071 z m 0,-24.22851 c -0.121681,5e-4 -0.220198,0.099 -0.220703,0.2207 v 6.06641 c 5.05e-4,0.12168 0.09902,0.2202 0.220703,0.2207 h 5.513672 c 0.122443,5.7e-4 0.222148,-0.0983 0.222656,-0.2207 v -6.06641 c -5.08e-4,-0.12244 -0.100213,-0.22127 -0.222656,-0.2207 z m 7.540565,8.20316 c -0.122442,5.1e-4 -0.221272,0.10021 -0.220703,0.22265 v 6.06641 c 5.05e-4,0.12168 0.09902,0.2202 0.220703,0.2207 h 5.5136724 c 0.1224425,5.7e-4 0.2221479,-0.0983 0.222656,-0.2207 v -6.06641 c 5.728e-4,-0.12321 -0.099451,-0.22323 -0.222656,-0.22265 z m 0,8.07617 c -0.122446,5.1e-4 -0.221277,0.10021 -0.220703,0.22266 v 6.0664 c 5e-4,0.12168 0.09902,0.22021 0.220703,0.22071 h 5.5136724 c 0.1224464,5.7e-4 0.2221534,-0.0983 0.222656,-0.22071 v -6.0664 c 5.783e-4,-0.12321 -0.099447,-0.22324 -0.222656,-0.22266 z m 0,7.93945 c -0.121684,5e-4 -0.220203,0.099 -0.220703,0.22071 v 6.0664 c 5e-4,0.12168 0.09902,0.22021 0.220703,0.22071 h 5.5136724 c 0.1224464,5.7e-4 0.2221534,-0.0983 0.222656,-0.22071 v -6.0664 c -5.026e-4,-0.12245 -0.1002096,-0.22128 -0.222656,-0.22071 z m 0,-24.22851 c -0.121681,5e-4 -0.220198,0.099 -0.220703,0.2207 v 6.06641 c 5.05e-4,0.12168 0.09902,0.2202 0.220703,0.2207 h 5.5136724 c 0.1224425,5.7e-4 0.2221479,-0.0983 0.222656,-0.2207 v -6.06641 c -5.081e-4,-0.12244 -0.1002135,-0.22127 -0.222656,-0.2207 z m 7.5405774,8.20316 c -0.1224416,5.1e-4 -0.2212719,0.10021 -0.220703,0.22265 v 6.06641 c 5.053e-4,0.12168 0.099022,0.2202 0.220703,0.2207 h 5.513672 c 0.1224425,5.7e-4 0.2221479,-0.0983 0.222656,-0.2207 v -6.06641 c 5.728e-4,-0.12321 -0.099451,-0.22323 -0.222656,-0.22265 z m 0,8.07617 c -0.1224455,5.1e-4 -0.2212775,0.10021 -0.220703,0.22266 v 6.0664 c 4.998e-4,0.12168 0.099019,0.22021 0.220703,0.22071 h 5.513672 c 0.1224464,5.7e-4 0.2221534,-0.0983 0.222656,-0.22071 v -6.0664 c 5.783e-4,-0.12321 -0.099447,-0.22324 -0.222656,-0.22266 z m 0,7.93945 c -0.1216844,5e-4 -0.2202032,0.099 -0.220703,0.22071 v 6.0664 c 4.998e-4,0.12168 0.099019,0.22021 0.220703,0.22071 h 5.513672 c 0.1224464,5.7e-4 0.2221534,-0.0983 0.222656,-0.22071 v -6.0664 c -5.026e-4,-0.12245 -0.1002096,-0.22128 -0.222656,-0.22071 z m 0,-24.22851 c -0.1216805,5e-4 -0.2201977,0.099 -0.220703,0.2207 v 6.06641 c 5.053e-4,0.12168 0.099022,0.2202 0.220703,0.2207 h 5.513672 c 0.1224425,5.7e-4 0.2221479,-0.0983 0.222656,-0.2207 v -6.06641 c -5.081e-4,-0.12244 -0.1002135,-0.22127 -0.222656,-0.2207 z m 7.54057525,8.20316 c -0.12244161,5.1e-4 -0.22127191,0.10021 -0.220703,0.22265 v 6.06641 c 5.0527e-4,0.12168 0.09902248,0.2202 0.220703,0.2207 H 5.8209367 c 0.1224425,5.7e-4 0.2221479,-0.0983 0.222656,-0.2207 v -6.06641 c 5.728e-4,-0.12321 -0.099451,-0.22323 -0.222656,-0.22265 z m 0,8.07617 c -0.12244554,5.1e-4 -0.22127746,0.10021 -0.220703,0.22266 v 6.0664 c 4.9979e-4,0.12168 0.0990186,0.22021 0.220703,0.22071 H 5.8209367 c 0.1224464,5.7e-4 0.2221534,-0.0983 0.222656,-0.22071 v -6.0664 c 5.783e-4,-0.12321 -0.099447,-0.22324 -0.222656,-0.22266 z m 0,7.93945 c -0.1216844,5e-4 -0.22020321,0.099 -0.220703,0.22071 v 6.0664 c 4.9979e-4,0.12168 0.0990186,0.22021 0.220703,0.22071 H 5.8209367 c 0.1224464,5.7e-4 0.2221534,-0.0983 0.222656,-0.22071 v -6.0664 c -5.026e-4,-0.12245 -0.1002096,-0.22128 -0.222656,-0.22071 z m 0,-24.22851 c -0.12168052,5e-4 -0.22019773,0.099 -0.220703,0.2207 v 6.06641 c 5.0527e-4,0.12168 0.09902248,0.2202 0.220703,0.2207 H 5.8209367 c 0.1224425,5.7e-4 0.2221479,-0.0983 0.222656,-0.2207 v -6.06641 c -5.081e-4,-0.12244 -0.1002135,-0.22127 -0.222656,-0.2207 z m 7.54056695,8.20316 c -0.1224416,5.1e-4 -0.2212719,0.10021 -0.220703,0.22265 v 6.06641 c 5.053e-4,0.12168 0.099023,0.2202 0.220703,0.2207 h 5.5136724 c 0.122443,5.7e-4 0.222148,-0.0983 0.222656,-0.2207 v -6.06641 c 5.73e-4,-0.12321 -0.09945,-0.22323 -0.222656,-0.22265 z m 0,8.07617 c -0.1224455,5.1e-4 -0.2212775,0.10021 -0.220703,0.22266 v 6.0664 c 4.998e-4,0.12168 0.099019,0.22021 0.220703,0.22071 h 5.5136724 c 0.122446,5.7e-4 0.222153,-0.0983 0.222656,-0.22071 v -6.0664 c 5.78e-4,-0.12321 -0.09945,-0.22324 -0.222656,-0.22266 z m 0,7.93945 c -0.1216844,5e-4 -0.2202032,0.099 -0.220703,0.22071 v 6.0664 c 4.998e-4,0.12168 0.099019,0.22021 0.220703,0.22071 h 5.5136724 c 0.122446,5.7e-4 0.222153,-0.0983 0.222656,-0.22071 v -6.0664 c -5.03e-4,-0.12245 -0.10021,-0.22128 -0.222656,-0.22071 z m 0,-24.22851 c -0.1216805,5e-4 -0.2201977,0.099 -0.220703,0.2207 v 6.06641 c 5.053e-4,0.12168 0.099023,0.2202 0.220703,0.2207 h 5.5136724 c 0.122443,5.7e-4 0.222148,-0.0983 0.222656,-0.2207 v -6.06641 c -5.08e-4,-0.12244 -0.100213,-0.22127 -0.222656,-0.2207 z"
                 style="color:#000000;font-style:normal;font-variant:normal;font-weight:normal;font-stretch:normal;font-size:medium;line-height:normal;font-family:sans-serif;font-variant-ligatures:normal;font-variant-position:normal;font-variant-caps:normal;font-variant-numeric:normal;font-variant-alternates:normal;font-feature-settings:normal;text-indent:0;text-align:start;text-decoration:none;text-decoration-line:none;text-decoration-style:solid;text-decoration-color:#000000;letter-spacing:normal;word-spacing:normal;text-transform:none;writing-mode:lr-tb;direction:ltr;text-orientation:mixed;dominant-baseline:auto;baseline-shift:baseline;text-anchor:start;white-space:normal;shape-padding:0;clip-rule:nonzero;display:inline;overflow:visible;visibility:visible;isolation:auto;mix-blend-mode:normal;color-interpolation:sRGB;color-interpolation-filters:linearRGB;solid-color:#000000;solid-opacity:1;fill:#000000;fill-opacity:1;fill-rule:nonzero;stroke:none;stroke-linecap:butt;stroke-linejoin:round;stroke-miterlimit:4;stroke-dasharray:none;stroke-dashoffset:0;stroke-opacity:1;color-rendering:auto;image-rendering:auto;shape-rendering:auto;text-rendering:auto;enable-background:accumulate"
                 id="path1713" />
            </g>
          </g>
        </g>
      </g>
      <g
         id="g771"
         transform="translate(11.397263,15.260853)">
        <path
           id="path528"
           d="m 4.543581,265.74646 c -0.698959,0 -1.2681,0.56915 -1.2681,1.26812 0,0.69896 0.569141,1.2681 1.2681,1.2681 0.69896,0 1.268101,-0.56914 1.268101,-1.2681 0,-0.69897 -0.569141,-1.26812 -1.268101,-1.26812 z m 0,0.23887 c 0.570171,0 1.029234,0.45907 1.029234,1.02924 0,0.57016 -0.459063,1.02923 -1.029234,1.02923 -0.570171,0 -1.03099,-0.45907 -1.03099,-1.02923 0,-0.57017 0.460819,-1.02924 1.03099,-1.02924 z"
           style="color:#000000;font-style:normal;font-variant:normal;font-weight:normal;font-stretch:normal;font-size:medium;line-height:normal;font-family:sans-serif;font-variant-ligatures:normal;font-variant-position:normal;font-variant-caps:normal;font-variant-numeric:normal;font-variant-alternates:normal;font-feature-settings:normal;text-indent:0;text-align:start;text-decoration:none;text-decoration-line:none;text-decoration-style:solid;text-decoration-color:#000000;letter-spacing:normal;word-spacing:normal;text-transform:none;writing-mode:lr-tb;direction:ltr;text-orientation:mixed;dominant-baseline:auto;baseline-shift:baseline;text-anchor:start;white-space:normal;shape-padding:0;clip-rule:nonzero;display:inline;overflow:visible;visibility:visible;isolation:auto;mix-blend-mode:normal;color-interpolation:sRGB;color-interpolation-filters:linearRGB;solid-color:#000000;solid-opacity:1;fill:#000000;fill-opacity:1;fill-rule:nonzero;stroke:none;stroke-width:0.899262;stroke-linecap:butt;stroke-linejoin:round;stroke-miterlimit:4;stroke-dasharray:none;stroke-dashoffset:0;stroke-opacity:1;color-rendering:auto;image-rendering:auto;shape-rendering:auto;text-rendering:auto;enable-background:accumulate"
           inkscape:connector-curvature="0" />
        <path
           id="path519"
           d="m 4.482773,266.25146 0.120457,-0.0201 v 0.66251 H 4.482773 Z"
           style="color:#000000;display:inline;overflow:visible;visibility:visible;fill:#000000;fill-opacity:1;stroke:none;stroke-width:0.180686;marker:none;enable-background:accumulate"
           inkscape:connector-curvature="0" />
        <path
           id="path516"
           d="m 4.211683,266.44059 c -0.259434,0.14978 -0.386088,0.45593 -0.308554,0.74529 0.07753,0.28936 0.340362,0.49099 0.639929,0.49099 0.299568,0 0.562396,-0.20163 0.63993,-0.49099 0.07753,-0.28936 -0.04927,-0.59551 -0.308702,-0.74529 l -0.06031,0.10433 c 0.212722,0.12281 0.316256,0.37243 0.252682,0.60969 -0.06358,0.23726 -0.277962,0.40177 -0.523592,0.40177 -0.245629,0 -0.460019,-0.16451 -0.523592,-0.40177 -0.06358,-0.23726 0.03981,-0.48688 0.252533,-0.60969 z"
           style="color:#000000;font-style:normal;font-variant:normal;font-weight:normal;font-stretch:normal;font-size:medium;line-height:normal;font-family:sans-serif;font-variant-ligatures:normal;font-variant-position:normal;font-variant-caps:normal;font-variant-numeric:normal;font-variant-alternates:normal;font-feature-settings:normal;text-indent:0;text-align:start;text-decoration:none;text-decoration-line:none;text-decoration-style:solid;text-decoration-color:#000000;letter-spacing:normal;word-spacing:normal;text-transform:none;writing-mode:lr-tb;direction:ltr;text-orientation:mixed;dominant-baseline:auto;baseline-shift:baseline;text-anchor:start;white-space:normal;shape-padding:0;clip-rule:nonzero;display:inline;overflow:visible;visibility:visible;isolation:auto;mix-blend-mode:normal;color-interpolation:sRGB;color-interpolation-filters:linearRGB;solid-color:#000000;solid-opacity:1;fill:#000000;fill-opacity:1;fill-rule:nonzero;stroke:none;stroke-width:0.0758786;stroke-linecap:butt;stroke-linejoin:round;stroke-miterlimit:4;stroke-dasharray:none;stroke-dashoffset:0;stroke-opacity:1;marker:none;color-rendering:auto;image-rendering:auto;shape-rendering:auto;text-rendering:auto;enable-background:accumulate"
           inkscape:connector-curvature="0" />
      </g>
    </g>
  </g>
</svg>
