<?xml version="1.0" encoding="UTF-8" standalone="no"?>
<!-- Created with Inkscape (http://www.inkscape.org/) -->

<svg
   width="66mm"
   height="66mm"
   viewBox="0 0 66 66"
   version="1.1"
   id="svg8"
   inkscape:version="1.2.1 (9c6d41e410, 2022-07-14)"
   sodipodi:docname="menu-mint-symbolic.svg"
   xmlns:inkscape="http://www.inkscape.org/namespaces/inkscape"
   xmlns:sodipodi="http://sodipodi.sourceforge.net/DTD/sodipodi-0.dtd"
   xmlns="http://www.w3.org/2000/svg"
   xmlns:svg="http://www.w3.org/2000/svg"
   xmlns:rdf="http://www.w3.org/1999/02/22-rdf-syntax-ns#"
   xmlns:cc="http://creativecommons.org/ns#"
   xmlns:dc="http://purl.org/dc/elements/1.1/">
  <defs
     id="defs2" />
  <sodipodi:namedview
     id="base"
     pagecolor="#ffffff"
     bordercolor="#666666"
     borderopacity="1.0"
     inkscape:pageopacity="0.0"
     inkscape:pageshadow="2"
     inkscape:zoom="2.8"
     inkscape:cx="-73.571429"
     inkscape:cy="96.428571"
     inkscape:document-units="mm"
     inkscape:current-layer="layer1"
     showgrid="false"
     inkscape:window-width="2560"
     inkscape:window-height="1363"
     inkscape:window-x="0"
     inkscape:window-y="40"
     inkscape:window-maximized="1"
     inkscape:showpageshadow="2"
     inkscape:pagecheckerboard="0"
     inkscape:deskcolor="#d1d1d1" />
  <metadata
     id="metadata5">
    <rdf:RDF>
      <cc:Work
         rdf:about="">
        <dc:format>image/svg+xml</dc:format>
        <dc:type
           rdf:resource="http://purl.org/dc/dcmitype/StillImage" />
        <dc:title />
      </cc:Work>
    </rdf:RDF>
  </metadata>
  <g
     inkscape:label="Layer 1"
     inkscape:groupmode="layer"
     id="layer1"
     transform="translate(0,-231)">
    <g
       id="g370"
       transform="matrix(0.99914123,0,0,0.99914123,0.02833941,0.22671528)">
      <g
         id="g508"
         transform="translate(9.233586,-1.006225)">
        <path
           id="rect30567"
           d="m 0.630672,239.98474 a 0.14753275,0.14753275 0 0 0 -0.146484,0.14844 v 49.74805 a 0.14753275,0.14753275 0 0 0 0.146484,0.14648 h 46.269532 a 0.14753275,0.14753275 0 0 0 0.148436,-0.14648 v -49.74805 a 0.14753275,0.14753275 0 0 0 -0.148436,-0.14844 z m 0.148438,0.29492 h 45.97461 v 49.45313 H 0.77911 Z"
           style="color:#000000;font-style:normal;font-variant:normal;font-weight:normal;font-stretch:normal;font-size:medium;line-height:normal;font-family:sans-serif;font-variant-ligatures:normal;font-variant-position:normal;font-variant-caps:normal;font-variant-numeric:normal;font-variant-alternates:normal;font-feature-settings:normal;text-indent:0;text-align:start;text-decoration:none;text-decoration-line:none;text-decoration-style:solid;text-decoration-color:#000000;letter-spacing:normal;word-spacing:normal;text-transform:none;writing-mode:lr-tb;direction:ltr;text-orientation:mixed;dominant-baseline:auto;baseline-shift:baseline;text-anchor:start;white-space:normal;shape-padding:0;clip-rule:nonzero;display:inline;overflow:visible;visibility:visible;isolation:auto;mix-blend-mode:normal;color-interpolation:sRGB;color-interpolation-filters:linearRGB;solid-color:#000000;solid-opacity:1;fill:#000000;fill-opacity:1;fill-rule:nonzero;stroke:none;stroke-width:1;stroke-linecap:butt;stroke-linejoin:round;stroke-miterlimit:4;stroke-dasharray:none;stroke-dashoffset:0;stroke-opacity:1;color-rendering:auto;image-rendering:auto;shape-rendering:auto;text-rendering:auto;enable-background:accumulate"
           inkscape:connector-curvature="0" />
        <path
           id="path30569"
           d="m 7.597469,242.62146 -0.253906,0.002 0.232422,45.56836 h 0.253906 z"
           style="color:#000000;font-style:normal;font-variant:normal;font-weight:normal;font-stretch:normal;font-size:medium;line-height:normal;font-family:sans-serif;font-variant-ligatures:normal;font-variant-position:normal;font-variant-caps:normal;font-variant-numeric:normal;font-variant-alternates:normal;font-feature-settings:normal;text-indent:0;text-align:start;text-decoration:none;text-decoration-line:none;text-decoration-style:solid;text-decoration-color:#000000;letter-spacing:normal;word-spacing:normal;text-transform:none;writing-mode:lr-tb;direction:ltr;text-orientation:mixed;dominant-baseline:auto;baseline-shift:baseline;text-anchor:start;white-space:normal;shape-padding:0;clip-rule:nonzero;display:inline;overflow:visible;visibility:visible;isolation:auto;mix-blend-mode:normal;color-interpolation:sRGB;color-interpolation-filters:linearRGB;solid-color:#000000;solid-opacity:1;fill:#000000;fill-opacity:1;fill-rule:evenodd;stroke:none;stroke-width:1;stroke-linecap:butt;stroke-linejoin:miter;stroke-miterlimit:4;stroke-dasharray:none;stroke-dashoffset:0;stroke-opacity:1;color-rendering:auto;image-rendering:auto;shape-rendering:auto;text-rendering:auto;enable-background:accumulate"
           inkscape:connector-curvature="0" />
        <g
           style="fill:#000000;fill-opacity:1;stroke:none"
           transform="matrix(0.83262068,0,0,0.75462043,8.535331,61.359386)"
           id="g27387">
          <g
             style="fill:#000000;fill-opacity:1;stroke:none"
             id="g33698"
             transform="matrix(0.93454954,0,0,0.93454954,0.11002233,23.523971)">
            <g
               style="opacity:1;fill:#000000;fill-opacity:1;stroke:none"
               id="rect33674" />
            <g
               style="opacity:1;fill:#000000;fill-opacity:1;stroke:none"
               id="rect33676" />
            <g
               style="opacity:1;fill:#000000;fill-opacity:1;stroke:none"
               id="rect33678" />
            <g
               style="opacity:1;fill:#000000;fill-opacity:1;stroke:none"
               id="rect33680" />
            <g
               style="opacity:1;fill:#000000;fill-opacity:1;stroke:none"
               id="rect33682" />
            <g
               style="opacity:1;fill:#000000;fill-opacity:1;stroke:none"
               id="rect33684" />
            <g
               style="opacity:1;fill:#000000;fill-opacity:1;stroke:none"
               id="rect33686" />
            <g
               style="opacity:1;fill:#000000;fill-opacity:1;stroke:none"
               id="rect33688" />
          </g>
        </g>
        <g
           style="fill:#000000;fill-opacity:1;stroke:none"
           id="path36029"
           transform="translate(-0.209172,0.4456772)">
          <path
             id="path1455"
             d="m 2.0694373,287.70415 5.9779913,0.0514"
             style="color:#000000;font-style:normal;font-variant:normal;font-weight:normal;font-stretch:normal;font-size:medium;line-height:normal;font-family:sans-serif;font-variant-ligatures:normal;font-variant-position:normal;font-variant-caps:normal;font-variant-numeric:normal;font-variant-alternates:normal;font-feature-settings:normal;text-indent:0;text-align:start;text-decoration:none;text-decoration-line:none;text-decoration-style:solid;text-decoration-color:#000000;letter-spacing:normal;word-spacing:normal;text-transform:none;writing-mode:lr-tb;direction:ltr;text-orientation:mixed;dominant-baseline:auto;baseline-shift:baseline;text-anchor:start;white-space:normal;shape-padding:0;clip-rule:nonzero;display:inline;overflow:visible;visibility:visible;isolation:auto;mix-blend-mode:normal;color-interpolation:sRGB;color-interpolation-filters:linearRGB;solid-color:#000000;solid-opacity:1;fill:#000000;fill-opacity:1;fill-rule:evenodd;stroke:none;stroke-width:0.153352;stroke-linecap:butt;stroke-linejoin:miter;stroke-miterlimit:4;stroke-dasharray:none;stroke-dashoffset:0;stroke-opacity:1;color-rendering:auto;image-rendering:auto;shape-rendering:auto;text-rendering:auto;enable-background:accumulate"
             inkscape:connector-curvature="0" />
          <path
             id="path1457"
             d="m 2.0703125,287.62695 -0.00195,0.1543 5.9785156,0.0508 0.00195,-0.15234 z"
             style="color:#000000;font-style:normal;font-variant:normal;font-weight:normal;font-stretch:normal;font-size:medium;line-height:normal;font-family:sans-serif;font-variant-ligatures:normal;font-variant-position:normal;font-variant-caps:normal;font-variant-numeric:normal;font-variant-alternates:normal;font-feature-settings:normal;text-indent:0;text-align:start;text-decoration:none;text-decoration-line:none;text-decoration-style:solid;text-decoration-color:#000000;letter-spacing:normal;word-spacing:normal;text-transform:none;writing-mode:lr-tb;direction:ltr;text-orientation:mixed;dominant-baseline:auto;baseline-shift:baseline;text-anchor:start;white-space:normal;shape-padding:0;clip-rule:nonzero;display:inline;overflow:visible;visibility:visible;isolation:auto;mix-blend-mode:normal;color-interpolation:sRGB;color-interpolation-filters:linearRGB;solid-color:#000000;solid-opacity:1;fill:#000000;fill-opacity:1;fill-rule:evenodd;stroke:none;stroke-linecap:butt;stroke-linejoin:miter;stroke-miterlimit:4;stroke-dasharray:none;stroke-dashoffset:0;stroke-opacity:1;color-rendering:auto;image-rendering:auto;shape-rendering:auto;text-rendering:auto;enable-background:accumulate"
             inkscape:connector-curvature="0" />
        </g>
        <g
           style="fill:#000000;fill-opacity:1;stroke:none"
           transform="matrix(0.8202893,0,0,0.72101718,54.611401,69.298683)"
           id="g29146">
          <g
             style="fill:#000000;fill-opacity:1;stroke:none"
             transform="matrix(0.93454954,0,0,0.93454954,-33.227493,23.523971)"
             id="g27405">
            <g
               style="opacity:1;fill:#000000;fill-opacity:1;stroke:none"
               id="rect27389" />
            <g
               style="opacity:1;fill:#000000;fill-opacity:1;stroke:none"
               id="rect27391" />
            <g
               style="opacity:1;fill:#000000;fill-opacity:1;stroke:none"
               id="rect27393" />
            <g
               style="opacity:1;fill:#000000;fill-opacity:1;stroke:none"
               id="rect27395" />
            <g
               style="opacity:1;fill:#000000;fill-opacity:1;stroke:none"
               id="rect27397" />
            <g
               style="opacity:1;fill:#000000;fill-opacity:1;stroke:none"
               id="rect27399" />
            <g
               style="opacity:1;fill:#000000;fill-opacity:1;stroke:none"
               id="rect27401" />
            <g
               style="opacity:1;fill:#000000;fill-opacity:1;stroke:none"
               id="rect27403" />
          </g>
        </g>
        <g
           style="fill:#000000;fill-opacity:1;stroke:none"
           transform="translate(56.727451,14.744483)"
           id="g29219">
          <g
             style="opacity:1;fill:#000000;fill-opacity:1;stroke:none"
             id="rect29150" />
          <g
             style="opacity:1;fill:#000000;fill-opacity:1;stroke:none"
             id="rect29152" />
          <g
             style="opacity:1;fill:#000000;fill-opacity:1;stroke:none"
             id="rect29158" />
          <g
             style="opacity:1;fill:#000000;fill-opacity:1;stroke:none"
             id="rect29160" />
          <g
             style="opacity:1;fill:#000000;fill-opacity:1;stroke:none"
             id="rect29162" />
          <path
             sodipodi:nodetypes="cccccccccccccccccccccccccccccccccccccccccccccccccccccccccccccccccccccccccccccccccccccccccccccccccccccccccccccccccccccccccccccccccccccccccccccccccccccccccccccccccccccccccccccccccccccccccccccccccccccccccccccccccccccccccccccccccccccccccccccccccccccccccccccccccccccccccccccccccccccccccccccccccccccccccccccccccccccccccccccccccccccccccccccccccccccccccccccccccccccccccccccccccccccc"
             inkscape:connector-curvature="0"
             d="m -23.605469,258.83789 -0.002,0.20313 10.615234,0.0371 V 258.875 Z m 0.0957,3.69727 -0.002,0.20312 10.615235,0.0371 v -0.20312 z m -0.05273,3.23242 v 0.20508 l 10.613281,0.0371 0.002,-0.20508 z m 0.0957,3.15625 v 0.20312 l 10.613281,0.0371 0.002,-0.20312 z m 0.0039,3.23242 v 0.20313 l 10.613282,0.0371 0.002,-0.20312 z m -4.519531,-8.24219 c -0.05296,-2.6e-4 -0.09596,0.0427 -0.0957,0.0957 v 2.44335 c -2.57e-4,0.053 0.04274,0.096 0.0957,0.0957 h 2.527344 c 0.05296,2.6e-4 0.09596,-0.0427 0.0957,-0.0957 v -2.44335 c 2.57e-4,-0.053 -0.04274,-0.096 -0.0957,-0.0957 z m -2e-6,2.92967 c -0.05296,-2.6e-4 -0.09596,0.0427 -0.0957,0.0957 v 2.44336 c -2.57e-4,0.053 0.04274,0.096 0.0957,0.0957 h 2.527344 c 0.05296,2.6e-4 0.09596,-0.0427 0.0957,-0.0957 v -2.44336 c 2.57e-4,-0.053 -0.04274,-0.096 -0.0957,-0.0957 z m -2e-6,3.15817 c -0.05218,-2.6e-4 -0.09486,0.0415 -0.0957,0.0937 v 2.44532 c 8.43e-4,0.0522 0.04352,0.094 0.0957,0.0937 h 2.527344 c 0.05218,2.6e-4 0.09486,-0.0415 0.0957,-0.0937 v -2.44532 c -8.43e-4,-0.0522 -0.04352,-0.094 -0.0957,-0.0937 z m -2e-6,-12.38085 c -0.05218,-2.6e-4 -0.09486,0.0415 -0.0957,0.0937 v 2.44532 c 8.43e-4,0.0522 0.04352,0.094 0.0957,0.0937 h 2.527344 c 0.05218,2.6e-4 0.09486,-0.0415 0.0957,-0.0937 v -2.44532 c -8.43e-4,-0.0522 -0.04352,-0.094 -0.0957,-0.0937 z m -2e-6,3.1738 c -0.05296,-2.6e-4 -0.09596,0.0427 -0.0957,0.0957 v 2.44336 c -2.57e-4,0.053 0.04274,0.096 0.0957,0.0957 h 2.527344 c 0.05296,2.6e-4 0.09596,-0.0427 0.0957,-0.0957 v -2.44336 c 2.57e-4,-0.053 -0.04274,-0.096 -0.0957,-0.0957 z m 4.280911,-24.77254 v 0.19152 l 10.612493,0.0366 0.0016,-0.19151 z m 0.04486,3.53045 -0.0016,0.19011 10.614095,0.038 v -0.19152 z m 0.05127,3.40793 -0.0016,0.19011 10.614095,0.0366 0.0016,-0.19011 z m 0.09453,3.69803 v 0.19011 l 10.614095,0.038 v -0.19151 z m -0.05127,3.23191 v 0.19151 l 10.614095,0.0366 v -0.19011 z m 0.09613,3.15585 -0.0016,0.19011 10.614095,0.038 0.0016,-0.19152 z m 0.0032,3.23332 v 0.19011 l 10.614095,0.0366 v -0.19011 z m 0,-23.69641 v 0.19012 l 10.614095,0.0366 v -0.19012 z m -4.518448,15.45334 c -0.05629,-1.1e-4 -0.101946,0.04 -0.101814,0.0895 v 2.44394 c -1.32e-4,0.0495 0.04553,0.0896 0.101814,0.0895 h 2.527387 c 0.05629,1.1e-4 0.101947,-0.04 0.101815,-0.0895 v -2.44394 c 1.32e-4,-0.0495 -0.04553,-0.0896 -0.101815,-0.0895 z m 0,2.92962 c -0.05629,-1.1e-4 -0.101946,0.04 -0.101814,0.0895 v 2.44393 c -1.32e-4,0.0495 0.04553,0.0896 0.101814,0.0895 h 2.527387 c 0.05629,1.1e-4 0.101947,-0.04 0.101815,-0.0895 v -2.44393 c 1.32e-4,-0.0495 -0.04553,-0.0896 -0.101815,-0.0895 z m 0,3.15725 c -0.05629,-1.1e-4 -0.101946,0.04 -0.101814,0.0895 v 2.44394 c -1.32e-4,0.0495 0.04553,0.0896 0.101814,0.0895 h 2.527387 c 0.05629,1.1e-4 0.101947,-0.04 0.101815,-0.0895 v -2.44394 c 1.32e-4,-0.0495 -0.04553,-0.0896 -0.101815,-0.0895 z m 0,-18.83288 c -0.05629,-1.1e-4 -0.101946,0.04 -0.101814,0.0895 v 2.44393 c -1.32e-4,0.0495 0.04553,0.0896 0.101814,0.0895 h 2.527387 c 0.05629,1.1e-4 0.101947,-0.04 0.101815,-0.0895 v -2.44393 c 1.32e-4,-0.0495 -0.04553,-0.0896 -0.101815,-0.0895 z m 0,3.2533 c -0.05629,-1.1e-4 -0.101946,0.04 -0.101814,0.0895 v 2.44393 c -1.32e-4,0.0495 0.04553,0.0896 0.101814,0.0895 h 2.527387 c 0.05629,1.1e-4 0.101947,-0.04 0.101815,-0.0895 v -2.44393 c 1.32e-4,-0.0495 -0.04553,-0.0896 -0.101815,-0.0895 z m 0,3.1994 c -0.05571,-1.1e-4 -0.101133,0.0392 -0.101814,0.0882 v 2.44393 c -1.32e-4,0.0495 0.04553,0.0896 0.101814,0.0895 h 2.527387 c 0.05629,1.1e-4 0.101947,-0.04 0.101815,-0.0895 v -2.44393 c -6.81e-4,-0.049 -0.0461,-0.0883 -0.101815,-0.0882 z m 0,3.17434 c -0.05629,-1.1e-4 -0.101946,0.04 -0.101814,0.0895 v 2.44393 c -1.32e-4,0.0495 0.04553,0.0896 0.101814,0.0895 h 2.527387 c 0.05629,1.1e-4 0.101947,-0.04 0.101815,-0.0895 v -2.44393 c 1.32e-4,-0.0495 -0.04553,-0.0896 -0.101815,-0.0895 z m 0,-12.93692 c -0.05629,-1.1e-4 -0.101946,0.04 -0.101814,0.0895 v 2.44393 c -1.32e-4,0.0495 0.04553,0.0896 0.101814,0.0895 h 2.527387 c 0.05629,1.1e-4 0.101947,-0.04 0.101815,-0.0895 v -2.44393 c 1.32e-4,-0.0495 -0.04553,-0.0896 -0.101815,-0.0895 z m -14.363018,4.36068 -0.0016,0.59839 3.304463,0.0118 0.0016,-0.59839 z m 4.626574,0.0162 -0.0016,0.59839 3.964706,0.0147 0.0033,-0.59839 z m 5.286817,0.0192 -0.0016,0.59839 0.860267,0.003 0.0016,-0.59839 z m -9.867857,3.65813 -0.0033,0.59987 3.304463,0.0118 0.0033,-0.59839 z m 4.626574,0.0177 -0.0033,0.59839 3.964706,0.0147 0.0033,-0.59986 z m 5.286816,0.0192 -0.0033,0.59839 0.860266,0.003 0.0033,-0.59839 z m -9.861351,3.52992 -0.0033,0.59986 3.304463,0.0118 0.0033,-0.59986 z m 4.626574,0.0162 -0.0033,0.59986 3.966332,0.0147 0.0016,-0.59986 z m 5.286816,0.0192 -0.0033,0.59986 0.860266,0.003 0.0033,-0.59986 z m -9.815817,3.835 -0.0033,0.59987 3.304463,0.0118 0.0033,-0.59986 z m 4.626573,0.0177 -0.0033,0.59839 3.964706,0.0147 0.0033,-0.59986 z m 5.286816,0.0192 -0.0033,0.59839 0.860266,0.003 0.0033,-0.59839 z m -9.965428,3.34716 -0.0033,0.59839 3.304464,0.0118 0.0033,-0.59839 z m 4.624948,0.0162 -0.0016,0.59986 3.964706,0.0133 0.0033,-0.5984 z m 5.288441,0.0192 -0.0033,0.59986 0.860266,0.003 0.0016,-0.59986 z m -9.817443,3.26756 -0.0016,0.5984 3.304464,0.0118 0.0016,-0.59838 z m 4.626575,0.0162 -0.0033,0.59839 3.966331,0.0147 0.0016,-0.59838 z m 5.286815,0.0192 -0.0016,0.59839 0.85864,0.003 0.0033,-0.59839 z m -9.908511,3.34716 -0.0033,0.59986 3.304463,0.0118 0.0033,-0.59987 z m 4.624948,0.0162 -0.0016,0.59986 3.964705,0.0147 0.0033,-0.59987 z m 5.288442,0.0192 -0.0033,0.59986 0.860266,0.003 0.0016,-0.59839 z m -9.91339,-24.83615 -0.0033,0.59839 3.304463,0.0133 0.0033,-0.59987 z m 4.624948,0.0162 -0.0016,0.59987 3.964705,0.0147 0.0033,-0.59987 z m 5.288442,0.0192 -0.0033,0.59987 0.860266,0.003 0.0016,-0.59987 z m -14.501702,16.33862 c -0.05714,-1.2e-4 -0.103497,0.0419 -0.103345,0.0937 v 2.55784 c -1.52e-4,0.0518 0.0462,0.0938 0.103345,0.0937 h 2.565381 c 0.05714,1.2e-4 0.103497,-0.0419 0.103345,-0.0937 v -2.55784 c 1.52e-4,-0.0518 -0.0462,-0.0938 -0.103345,-0.0937 z m 0,3.06611 c -0.05714,-1.2e-4 -0.103497,0.0419 -0.103345,0.0937 v 2.55784 c -1.52e-4,0.0518 0.0462,0.0938 0.103345,0.0937 h 2.565381 c 0.05714,1.2e-4 0.103497,-0.0419 0.103345,-0.0937 v -2.55784 c 1.52e-4,-0.0518 -0.0462,-0.0938 -0.103345,-0.0937 z m 0,3.30436 c -0.05714,-1.2e-4 -0.103497,0.0419 -0.103345,0.0937 v 2.55784 c -1.52e-4,0.0518 0.0462,0.0938 0.103345,0.0937 h 2.565381 c 0.05714,1.2e-4 0.103497,-0.0419 0.103345,-0.0937 v -2.55784 c 1.52e-4,-0.0518 -0.0462,-0.0938 -0.103345,-0.0937 z m 0,-19.71064 c -0.05714,-1.2e-4 -0.103497,0.0419 -0.103345,0.0937 v 2.55784 c -1.52e-4,0.0518 0.0462,0.0938 0.103345,0.0937 h 2.565381 c 0.05714,1.2e-4 0.103497,-0.0419 0.103345,-0.0937 v -2.55784 c 1.52e-4,-0.0518 -0.0462,-0.0938 -0.103345,-0.0937 z m 0,3.40491 c -0.05714,-1.2e-4 -0.103497,0.0419 -0.103345,0.0937 v 2.55783 c -1.52e-4,0.0518 0.0462,0.0938 0.103345,0.0937 h 2.565381 c 0.05714,1.2e-4 0.103497,-0.0419 0.103345,-0.0937 v -2.55783 c 1.52e-4,-0.0518 -0.0462,-0.0938 -0.103345,-0.0937 z m 0,3.34846 c -0.05654,-1.2e-4 -0.102648,0.0411 -0.103345,0.0923 v 2.55783 c -1.52e-4,0.0518 0.0462,0.0938 0.103345,0.0937 h 2.565381 c 0.05714,1.2e-4 0.103497,-0.0419 0.103345,-0.0937 v -2.55783 c -6.97e-4,-0.0512 -0.0468,-0.0924 -0.103345,-0.0923 z m 0,3.32232 c -0.05714,-1.2e-4 -0.103497,0.0419 -0.103345,0.0937 v 2.55784 c -1.52e-4,0.0518 0.0462,0.0938 0.103345,0.0937 h 2.565381 c 0.05714,1.2e-4 0.103497,-0.0419 0.103345,-0.0937 v -2.55784 c 1.52e-4,-0.0518 -0.0462,-0.0938 -0.103345,-0.0937 z m 0,-13.53988 c -0.05714,-1.2e-4 -0.103497,0.0419 -0.103345,0.0937 v 2.55784 c -1.52e-4,0.0518 0.0462,0.0938 0.103345,0.0937 h 2.565381 c 0.05714,1.2e-4 0.103497,-0.0419 0.103345,-0.0937 v -2.55784 c 1.52e-4,-0.0518 -0.0462,-0.0938 -0.103345,-0.0937 z"
             style="color:#000000;font-style:normal;font-variant:normal;font-weight:normal;font-stretch:normal;font-size:medium;line-height:normal;font-family:sans-serif;font-variant-ligatures:normal;font-variant-position:normal;font-variant-caps:normal;font-variant-numeric:normal;font-variant-alternates:normal;font-feature-settings:normal;text-indent:0;text-align:start;text-decoration:none;text-decoration-line:none;text-decoration-style:solid;text-decoration-color:#000000;letter-spacing:normal;word-spacing:normal;text-transform:none;writing-mode:lr-tb;direction:ltr;text-orientation:mixed;dominant-baseline:auto;baseline-shift:baseline;text-anchor:start;white-space:normal;shape-padding:0;clip-rule:nonzero;display:inline;overflow:visible;visibility:visible;opacity:1;isolation:auto;mix-blend-mode:normal;color-interpolation:sRGB;color-interpolation-filters:linearRGB;solid-color:#000000;solid-opacity:1;fill:#000000;fill-opacity:1;fill-rule:evenodd;stroke:none;stroke-linecap:butt;stroke-linejoin:miter;stroke-miterlimit:4;stroke-dasharray:none;stroke-dashoffset:0.264583;stroke-opacity:1;color-rendering:auto;image-rendering:auto;shape-rendering:auto;text-rendering:auto;enable-background:accumulate"
             id="path29176" />
        </g>
        <path
           id="path27401"
           d="m 1.775203,242.62146 -0.251953,0.002 0.232422,45.56836 h 0.253906 z"
           style="color:#000000;font-style:normal;font-variant:normal;font-weight:normal;font-stretch:normal;font-size:medium;line-height:normal;font-family:sans-serif;font-variant-ligatures:normal;font-variant-position:normal;font-variant-caps:normal;font-variant-numeric:normal;font-variant-alternates:normal;font-feature-settings:normal;text-indent:0;text-align:start;text-decoration:none;text-decoration-line:none;text-decoration-style:solid;text-decoration-color:#000000;letter-spacing:normal;word-spacing:normal;text-transform:none;writing-mode:lr-tb;direction:ltr;text-orientation:mixed;dominant-baseline:auto;baseline-shift:baseline;text-anchor:start;white-space:normal;shape-padding:0;clip-rule:nonzero;display:inline;overflow:visible;visibility:visible;isolation:auto;mix-blend-mode:normal;color-interpolation:sRGB;color-interpolation-filters:linearRGB;solid-color:#000000;solid-opacity:1;fill:#000000;fill-opacity:1;fill-rule:evenodd;stroke:none;stroke-width:1;stroke-linecap:butt;stroke-linejoin:miter;stroke-miterlimit:4;stroke-dasharray:none;stroke-dashoffset:0;stroke-opacity:1;color-rendering:auto;image-rendering:auto;shape-rendering:auto;text-rendering:auto;enable-background:accumulate"
           inkscape:connector-curvature="0" />
        <g
           style="fill:#000000;fill-opacity:1;stroke:none"
           id="path29221"
           transform="translate(-0.209172,0.4456772)">
          <path
             id="path1315"
             d="m 1.8239097,242.17723 5.9076173,0.0518"
             style="color:#000000;font-style:normal;font-variant:normal;font-weight:normal;font-stretch:normal;font-size:medium;line-height:normal;font-family:sans-serif;font-variant-ligatures:normal;font-variant-position:normal;font-variant-caps:normal;font-variant-numeric:normal;font-variant-alternates:normal;font-feature-settings:normal;text-indent:0;text-align:start;text-decoration:none;text-decoration-line:none;text-decoration-style:solid;text-decoration-color:#000000;letter-spacing:normal;word-spacing:normal;text-transform:none;writing-mode:lr-tb;direction:ltr;text-orientation:mixed;dominant-baseline:auto;baseline-shift:baseline;text-anchor:start;white-space:normal;shape-padding:0;clip-rule:nonzero;display:inline;overflow:visible;visibility:visible;isolation:auto;mix-blend-mode:normal;color-interpolation:sRGB;color-interpolation-filters:linearRGB;solid-color:#000000;solid-opacity:1;fill:#000000;fill-opacity:1;fill-rule:evenodd;stroke:none;stroke-width:0.153091;stroke-linecap:butt;stroke-linejoin:miter;stroke-miterlimit:4;stroke-dasharray:none;stroke-dashoffset:0;stroke-opacity:1;color-rendering:auto;image-rendering:auto;shape-rendering:auto;text-rendering:auto;enable-background:accumulate"
             inkscape:connector-curvature="0" />
          <path
             id="path1317"
             d="m 1.8242188,242.10156 -0.00195,0.15235 5.9082032,0.0508 0.00195,-0.15235 z"
             style="color:#000000;font-style:normal;font-variant:normal;font-weight:normal;font-stretch:normal;font-size:medium;line-height:normal;font-family:sans-serif;font-variant-ligatures:normal;font-variant-position:normal;font-variant-caps:normal;font-variant-numeric:normal;font-variant-alternates:normal;font-feature-settings:normal;text-indent:0;text-align:start;text-decoration:none;text-decoration-line:none;text-decoration-style:solid;text-decoration-color:#000000;letter-spacing:normal;word-spacing:normal;text-transform:none;writing-mode:lr-tb;direction:ltr;text-orientation:mixed;dominant-baseline:auto;baseline-shift:baseline;text-anchor:start;white-space:normal;shape-padding:0;clip-rule:nonzero;display:inline;overflow:visible;visibility:visible;isolation:auto;mix-blend-mode:normal;color-interpolation:sRGB;color-interpolation-filters:linearRGB;solid-color:#000000;solid-opacity:1;fill:#000000;fill-opacity:1;fill-rule:evenodd;stroke:none;stroke-linecap:butt;stroke-linejoin:miter;stroke-miterlimit:4;stroke-dasharray:none;stroke-dashoffset:0;stroke-opacity:1;color-rendering:auto;image-rendering:auto;shape-rendering:auto;text-rendering:auto;enable-background:accumulate"
             inkscape:connector-curvature="0" />
        </g>
        <g
           style="fill:#000000;fill-opacity:1;stroke:none"
           id="rect27406"
           transform="translate(-0.209172,0.4456772)">
          <path
             sodipodi:nodetypes="ccccccccc"
             inkscape:connector-curvature="0"
             d="m 2.8535156,266.26367 c -0.083654,4.1e-4 -0.1510621,0.0687 -0.1503906,0.15235 v 3.9375 c 4.096e-4,0.0829 0.067502,0.14998 0.1503906,0.15039 h 3.9511719 c 0.082888,-4.1e-4 0.149981,-0.0675 0.1503906,-0.15039 v -3.9375 c 6.715e-4,-0.0836 -0.066736,-0.15194 -0.1503906,-0.15235 z"
             style="color:#000000;font-style:normal;font-variant:normal;font-weight:normal;font-stretch:normal;font-size:medium;line-height:normal;font-family:sans-serif;font-variant-ligatures:normal;font-variant-position:normal;font-variant-caps:normal;font-variant-numeric:normal;font-variant-alternates:normal;font-feature-settings:normal;text-indent:0;text-align:start;text-decoration:none;text-decoration-line:none;text-decoration-style:solid;text-decoration-color:#000000;letter-spacing:normal;word-spacing:normal;text-transform:none;writing-mode:lr-tb;direction:ltr;text-orientation:mixed;dominant-baseline:auto;baseline-shift:baseline;text-anchor:start;white-space:normal;shape-padding:0;clip-rule:nonzero;display:inline;overflow:visible;visibility:visible;isolation:auto;mix-blend-mode:normal;color-interpolation:sRGB;color-interpolation-filters:linearRGB;solid-color:#000000;solid-opacity:1;fill:#000000;fill-opacity:1;fill-rule:nonzero;stroke:none;stroke-linecap:butt;stroke-linejoin:round;stroke-miterlimit:4;stroke-dasharray:none;stroke-dashoffset:0;stroke-opacity:1;color-rendering:auto;image-rendering:auto;shape-rendering:auto;text-rendering:auto;enable-background:accumulate"
             id="path1241" />
        </g>
        <g
           style="fill:#000000;fill-opacity:1;stroke:none"
           transform="translate(-0.209172,-2.2001563)"
           id="g27494">
          <g
             style="opacity:1;fill:#000000;fill-opacity:1;stroke:none"
             id="rect27404" />
          <g
             style="opacity:1;fill:#000000;fill-opacity:1;stroke:none"
             id="rect27408" />
          <g
             style="opacity:1;fill:#000000;fill-opacity:1;stroke:none"
             id="rect27410" />
          <g
             style="opacity:1;fill:#000000;fill-opacity:1;stroke:none"
             id="rect27412">
            <path
               sodipodi:nodetypes="cccccccccccccccccccccccccccccccccccc"
               inkscape:connector-curvature="0"
               d="m 2.8535156,250.75 c -0.08365,4.1e-4 -0.1510565,0.0687 -0.1503906,0.15234 v 3.9375 c -6.715e-4,0.0836 0.066736,0.15194 0.1503906,0.15235 h 3.9511719 c 0.083654,-4.1e-4 0.1510621,-0.0687 0.1503906,-0.15235 v -3.9375 c 6.659e-4,-0.0837 -0.06674,-0.15193 -0.1503906,-0.15234 z m 0,5.24414 c -0.082888,4.1e-4 -0.149981,0.0675 -0.1503906,0.15039 v 3.93945 c 4.041e-4,0.0829 0.067499,0.14999 0.1503906,0.1504 h 3.9511719 c 0.082892,-4.1e-4 0.1499865,-0.0675 0.1503906,-0.1504 v -3.93945 c -4.096e-4,-0.0829 -0.067502,-0.14998 -0.1503906,-0.15039 z m 0,5.1543 c -0.082888,4.1e-4 -0.149981,0.0675 -0.1503906,0.15039 v 3.9375 c -6.659e-4,0.0836 0.06674,0.15193 0.1503906,0.15234 h 3.9511719 c 0.08365,-4.1e-4 0.1510565,-0.0687 0.1503906,-0.15234 v -3.9375 c -4.096e-4,-0.0829 -0.067502,-0.14998 -0.1503906,-0.15039 z m 0,-15.73047 c -0.082888,4.1e-4 -0.149981,0.0675 -0.1503906,0.15039 v 3.93945 c 4.096e-4,0.0829 0.067502,0.14998 0.1503906,0.15039 h 3.9511719 c 0.082888,-4.1e-4 0.149981,-0.0675 0.1503906,-0.15039 v -3.93945 c -4.096e-4,-0.0829 -0.067502,-0.14998 -0.1503906,-0.15039 z"
               style="color:#000000;font-style:normal;font-variant:normal;font-weight:normal;font-stretch:normal;font-size:medium;line-height:normal;font-family:sans-serif;font-variant-ligatures:normal;font-variant-position:normal;font-variant-caps:normal;font-variant-numeric:normal;font-variant-alternates:normal;font-feature-settings:normal;text-indent:0;text-align:start;text-decoration:none;text-decoration-line:none;text-decoration-style:solid;text-decoration-color:#000000;letter-spacing:normal;word-spacing:normal;text-transform:none;writing-mode:lr-tb;direction:ltr;text-orientation:mixed;dominant-baseline:auto;baseline-shift:baseline;text-anchor:start;white-space:normal;shape-padding:0;clip-rule:nonzero;display:inline;overflow:visible;visibility:visible;isolation:auto;mix-blend-mode:normal;color-interpolation:sRGB;color-interpolation-filters:linearRGB;solid-color:#000000;solid-opacity:1;fill:#000000;fill-opacity:1;fill-rule:nonzero;stroke:none;stroke-linecap:butt;stroke-linejoin:round;stroke-miterlimit:4;stroke-dasharray:none;stroke-dashoffset:0;stroke-opacity:1;color-rendering:auto;image-rendering:auto;shape-rendering:auto;text-rendering:auto;enable-background:accumulate"
               id="path1311" />
          </g>
        </g>
        <g
           style="fill:#000000;fill-opacity:1;stroke:none"
           transform="translate(-0.209172,2.2775966)"
           id="g27488">
          <g
             style="opacity:1;fill:#000000;fill-opacity:1;stroke:none"
             id="rect27414" />
          <g
             style="opacity:1;fill:#000000;fill-opacity:1;stroke:none"
             id="rect27416" />
          <g
             style="opacity:1;fill:#000000;fill-opacity:1;stroke:none"
             id="rect27418">
            <path
               sodipodi:nodetypes="ccccccccccccccccccccccccccc"
               inkscape:connector-curvature="0"
               d="m 2.8535156,271.29102 c -0.082888,4.1e-4 -0.149981,0.0675 -0.1503906,0.15039 v 3.93945 c 4.096e-4,0.0829 0.067502,0.14998 0.1503906,0.15039 h 3.9511719 c 0.082888,-4.1e-4 0.149981,-0.0675 0.1503906,-0.15039 v -3.93945 c -4.096e-4,-0.0829 -0.067502,-0.14998 -0.1503906,-0.15039 z m 0,4.7207 c -0.082888,4.1e-4 -0.149981,0.0675 -0.1503906,0.15039 v 3.93945 c 4.096e-4,0.0829 0.067502,0.14998 0.1503906,0.15039 h 3.9511719 c 0.082888,-4.1e-4 0.149981,-0.0675 0.1503906,-0.15039 v -3.93945 c -4.096e-4,-0.0829 -0.067502,-0.14998 -0.1503906,-0.15039 z m 0,5.08789 c -0.082888,4.1e-4 -0.149981,0.0675 -0.1503906,0.15039 v 3.9375 c -6.659e-4,0.0836 0.06674,0.15193 0.1503906,0.15234 h 3.9511719 c 0.08365,-4.1e-4 0.1510565,-0.0687 0.1503906,-0.15234 V 281.25 c -4.096e-4,-0.0829 -0.067502,-0.14998 -0.1503906,-0.15039 z"
               style="color:#000000;font-style:normal;font-variant:normal;font-weight:normal;font-stretch:normal;font-size:medium;line-height:normal;font-family:sans-serif;font-variant-ligatures:normal;font-variant-position:normal;font-variant-caps:normal;font-variant-numeric:normal;font-variant-alternates:normal;font-feature-settings:normal;text-indent:0;text-align:start;text-decoration:none;text-decoration-line:none;text-decoration-style:solid;text-decoration-color:#000000;letter-spacing:normal;word-spacing:normal;text-transform:none;writing-mode:lr-tb;direction:ltr;text-orientation:mixed;dominant-baseline:auto;baseline-shift:baseline;text-anchor:start;white-space:normal;shape-padding:0;clip-rule:nonzero;display:inline;overflow:visible;visibility:visible;isolation:auto;mix-blend-mode:normal;color-interpolation:sRGB;color-interpolation-filters:linearRGB;solid-color:#000000;solid-opacity:1;fill:#000000;fill-opacity:1;fill-rule:nonzero;stroke:none;stroke-linecap:butt;stroke-linejoin:round;stroke-miterlimit:4;stroke-dasharray:none;stroke-dashoffset:0;stroke-opacity:1;color-rendering:auto;image-rendering:auto;shape-rendering:auto;text-rendering:auto;enable-background:accumulate"
               id="path1287" />
          </g>
        </g>
        <g
           style="fill:#000000;fill-opacity:1;stroke:none"
           inkscape:label="Layer 1"
           id="layer1-2"
           transform="translate(-68.628204,-4.8790653)">
          <g
             transform="matrix(0.46763782,0,0,0.46763782,110.34208,248.2361)"
             style="fill:#000000;fill-opacity:1;stroke:none"
             id="use31418">
            <title
               id="title1195">Edit Find</title>
            <path
               style="fill:#000000;fill-opacity:1;stroke:none;stroke-width:0.264583"
               inkscape:connector-curvature="0"
               d="m 1.7216437,0.27172708 c -0.80115828,0 -1.45785412,0.65616667 -1.45785412,1.45626662 0,0.8008938 0.65669584,1.4567959 1.45785412,1.4567959 0.8016875,0 1.4578542,-0.6561667 1.4578542,-1.4565313 0,-0.80009997 -0.6561667,-1.45600205 -1.4578542,-1.45600205 z m 0,0.5318125 c 0.5154084,0 0.9260417,0.41010412 0.9260417,0.92445412 0,0.5148792 -0.4106333,0.925248 -0.9260417,0.925248 -0.5151437,0 -0.92604162,-0.4101042 -0.92604162,-0.9249834 0,-0.51435 0.41089792,-0.92445413 0.92604162,-0.92445413 z"
               id="path1197" />
            <path
               style="fill:#000000;fill-opacity:1;stroke:none;stroke-width:0.264583"
               inkscape:connector-curvature="0"
               d="M 2.5960917,2.3891875 A 0.26458333,0.26458333 0 0 0 2.4638,2.8442708 L 3.5221333,3.9026042 A 0.26614947,0.26614947 0 1 0 3.8944021,3.5221333 L 2.8360687,2.4638 A 0.26458333,0.26458333 0 0 0 2.5958271,2.3897167 Z"
               id="path1199" />
          </g>
          <g
             style="fill:#000000;fill-opacity:1;stroke:none"
             id="g27411"
             transform="matrix(0.83442172,0,0,0.87108423,70.508575,29.858694)">
            <g
               style="opacity:1;fill:#000000;fill-opacity:1;stroke:none"
               id="path30636">
              <path
                 id="path1249"
                 d="m 9.7399768,253.17747 40.7826832,0.0501"
                 style="color:#000000;font-style:normal;font-variant:normal;font-weight:normal;font-stretch:normal;font-size:medium;line-height:normal;font-family:sans-serif;font-variant-ligatures:normal;font-variant-position:normal;font-variant-caps:normal;font-variant-numeric:normal;font-variant-alternates:normal;font-feature-settings:normal;text-indent:0;text-align:start;text-decoration:none;text-decoration-line:none;text-decoration-style:solid;text-decoration-color:#000000;letter-spacing:normal;word-spacing:normal;text-transform:none;writing-mode:lr-tb;direction:ltr;text-orientation:mixed;dominant-baseline:auto;baseline-shift:baseline;text-anchor:start;white-space:normal;shape-padding:0;clip-rule:nonzero;display:inline;overflow:visible;visibility:visible;isolation:auto;mix-blend-mode:normal;color-interpolation:sRGB;color-interpolation-filters:linearRGB;solid-color:#000000;solid-opacity:1;fill:#000000;fill-opacity:1;fill-rule:evenodd;stroke:none;stroke-width:0.133189;stroke-linecap:butt;stroke-linejoin:miter;stroke-miterlimit:4;stroke-dasharray:none;stroke-dashoffset:0;stroke-opacity:1;color-rendering:auto;image-rendering:auto;shape-rendering:auto;text-rendering:auto;enable-background:accumulate"
                 inkscape:connector-curvature="0" />
              <path
                 id="path1251"
                 d="m 9.7402344,253.11133 v 0.13281 l 40.7832036,0.0508 v -0.13476 z"
                 style="color:#000000;font-style:normal;font-variant:normal;font-weight:normal;font-stretch:normal;font-size:medium;line-height:normal;font-family:sans-serif;font-variant-ligatures:normal;font-variant-position:normal;font-variant-caps:normal;font-variant-numeric:normal;font-variant-alternates:normal;font-feature-settings:normal;text-indent:0;text-align:start;text-decoration:none;text-decoration-line:none;text-decoration-style:solid;text-decoration-color:#000000;letter-spacing:normal;word-spacing:normal;text-transform:none;writing-mode:lr-tb;direction:ltr;text-orientation:mixed;dominant-baseline:auto;baseline-shift:baseline;text-anchor:start;white-space:normal;shape-padding:0;clip-rule:nonzero;display:inline;overflow:visible;visibility:visible;isolation:auto;mix-blend-mode:normal;color-interpolation:sRGB;color-interpolation-filters:linearRGB;solid-color:#000000;solid-opacity:1;fill:#000000;fill-opacity:1;fill-rule:evenodd;stroke:none;stroke-linecap:butt;stroke-linejoin:miter;stroke-miterlimit:4;stroke-dasharray:none;stroke-dashoffset:0;stroke-opacity:1;color-rendering:auto;image-rendering:auto;shape-rendering:auto;text-rendering:auto;enable-background:accumulate"
                 inkscape:connector-curvature="0" />
            </g>
            <g
               style="opacity:1;fill:#000000;fill-opacity:1;stroke:none"
               id="path27401-4">
              <path
                 id="path1255"
                 d="m 9.8120713,250.53162 40.7105887,0.0501"
                 style="color:#000000;font-style:normal;font-variant:normal;font-weight:normal;font-stretch:normal;font-size:medium;line-height:normal;font-family:sans-serif;font-variant-ligatures:normal;font-variant-position:normal;font-variant-caps:normal;font-variant-numeric:normal;font-variant-alternates:normal;font-feature-settings:normal;text-indent:0;text-align:start;text-decoration:none;text-decoration-line:none;text-decoration-style:solid;text-decoration-color:#000000;letter-spacing:normal;word-spacing:normal;text-transform:none;writing-mode:lr-tb;direction:ltr;text-orientation:mixed;dominant-baseline:auto;baseline-shift:baseline;text-anchor:start;white-space:normal;shape-padding:0;clip-rule:nonzero;display:inline;overflow:visible;visibility:visible;isolation:auto;mix-blend-mode:normal;color-interpolation:sRGB;color-interpolation-filters:linearRGB;solid-color:#000000;solid-opacity:1;fill:#000000;fill-opacity:1;fill-rule:evenodd;stroke:none;stroke-width:0.132662;stroke-linecap:butt;stroke-linejoin:miter;stroke-miterlimit:4;stroke-dasharray:none;stroke-dashoffset:0;stroke-opacity:1;color-rendering:auto;image-rendering:auto;shape-rendering:auto;text-rendering:auto;enable-background:accumulate"
                 inkscape:connector-curvature="0" />
              <path
                 id="path1257"
                 d="m 9.8125,250.46484 v 0.13282 l 40.710938,0.0508 v -0.13282 z"
                 style="color:#000000;font-style:normal;font-variant:normal;font-weight:normal;font-stretch:normal;font-size:medium;line-height:normal;font-family:sans-serif;font-variant-ligatures:normal;font-variant-position:normal;font-variant-caps:normal;font-variant-numeric:normal;font-variant-alternates:normal;font-feature-settings:normal;text-indent:0;text-align:start;text-decoration:none;text-decoration-line:none;text-decoration-style:solid;text-decoration-color:#000000;letter-spacing:normal;word-spacing:normal;text-transform:none;writing-mode:lr-tb;direction:ltr;text-orientation:mixed;dominant-baseline:auto;baseline-shift:baseline;text-anchor:start;white-space:normal;shape-padding:0;clip-rule:nonzero;display:inline;overflow:visible;visibility:visible;isolation:auto;mix-blend-mode:normal;color-interpolation:sRGB;color-interpolation-filters:linearRGB;solid-color:#000000;solid-opacity:1;fill:#000000;fill-opacity:1;fill-rule:evenodd;stroke:none;stroke-linecap:butt;stroke-linejoin:miter;stroke-miterlimit:4;stroke-dasharray:none;stroke-dashoffset:0;stroke-opacity:1;color-rendering:auto;image-rendering:auto;shape-rendering:auto;text-rendering:auto;enable-background:accumulate"
                 inkscape:connector-curvature="0" />
            </g>
            <g
               style="opacity:1;fill:#000000;fill-opacity:1;stroke:none"
               id="path27403">
              <path
                 id="path1261"
                 d="m 50.567789,250.51956 -0.04546,2.70726"
                 style="color:#000000;font-style:normal;font-variant:normal;font-weight:normal;font-stretch:normal;font-size:medium;line-height:normal;font-family:sans-serif;font-variant-ligatures:normal;font-variant-position:normal;font-variant-caps:normal;font-variant-numeric:normal;font-variant-alternates:normal;font-feature-settings:normal;text-indent:0;text-align:start;text-decoration:none;text-decoration-line:none;text-decoration-style:solid;text-decoration-color:#000000;letter-spacing:normal;word-spacing:normal;text-transform:none;writing-mode:lr-tb;direction:ltr;text-orientation:mixed;dominant-baseline:auto;baseline-shift:baseline;text-anchor:start;white-space:normal;shape-padding:0;clip-rule:nonzero;display:inline;overflow:visible;visibility:visible;isolation:auto;mix-blend-mode:normal;color-interpolation:sRGB;color-interpolation-filters:linearRGB;solid-color:#000000;solid-opacity:1;fill:#000000;fill-opacity:1;fill-rule:evenodd;stroke:none;stroke-width:0.103723;stroke-linecap:butt;stroke-linejoin:miter;stroke-miterlimit:4;stroke-dasharray:none;stroke-dashoffset:0;stroke-opacity:1;color-rendering:auto;image-rendering:auto;shape-rendering:auto;text-rendering:auto;enable-background:accumulate"
                 inkscape:connector-curvature="0" />
              <path
                 id="path1263"
                 d="m 50.515625,250.51953 -0.04492,2.70703 0.103516,0.002 0.04492,-2.70899 z"
                 style="color:#000000;font-style:normal;font-variant:normal;font-weight:normal;font-stretch:normal;font-size:medium;line-height:normal;font-family:sans-serif;font-variant-ligatures:normal;font-variant-position:normal;font-variant-caps:normal;font-variant-numeric:normal;font-variant-alternates:normal;font-feature-settings:normal;text-indent:0;text-align:start;text-decoration:none;text-decoration-line:none;text-decoration-style:solid;text-decoration-color:#000000;letter-spacing:normal;word-spacing:normal;text-transform:none;writing-mode:lr-tb;direction:ltr;text-orientation:mixed;dominant-baseline:auto;baseline-shift:baseline;text-anchor:start;white-space:normal;shape-padding:0;clip-rule:nonzero;display:inline;overflow:visible;visibility:visible;isolation:auto;mix-blend-mode:normal;color-interpolation:sRGB;color-interpolation-filters:linearRGB;solid-color:#000000;solid-opacity:1;fill:#000000;fill-opacity:1;fill-rule:evenodd;stroke:none;stroke-linecap:butt;stroke-linejoin:miter;stroke-miterlimit:4;stroke-dasharray:none;stroke-dashoffset:0;stroke-opacity:1;color-rendering:auto;image-rendering:auto;shape-rendering:auto;text-rendering:auto;enable-background:accumulate"
                 inkscape:connector-curvature="0" />
            </g>
            <g
               style="opacity:1;fill:#000000;fill-opacity:1;stroke:none"
               id="path27405">
              <path
                 id="path1267"
                 d="m 9.8219303,250.51956 -0.04546,2.70726"
                 style="color:#000000;font-style:normal;font-variant:normal;font-weight:normal;font-stretch:normal;font-size:medium;line-height:normal;font-family:sans-serif;font-variant-ligatures:normal;font-variant-position:normal;font-variant-caps:normal;font-variant-numeric:normal;font-variant-alternates:normal;font-feature-settings:normal;text-indent:0;text-align:start;text-decoration:none;text-decoration-line:none;text-decoration-style:solid;text-decoration-color:#000000;letter-spacing:normal;word-spacing:normal;text-transform:none;writing-mode:lr-tb;direction:ltr;text-orientation:mixed;dominant-baseline:auto;baseline-shift:baseline;text-anchor:start;white-space:normal;shape-padding:0;clip-rule:nonzero;display:inline;overflow:visible;visibility:visible;isolation:auto;mix-blend-mode:normal;color-interpolation:sRGB;color-interpolation-filters:linearRGB;solid-color:#000000;solid-opacity:1;fill:#000000;fill-opacity:1;fill-rule:evenodd;stroke:none;stroke-width:0.103723;stroke-linecap:butt;stroke-linejoin:miter;stroke-miterlimit:4;stroke-dasharray:none;stroke-dashoffset:0;stroke-opacity:1;color-rendering:auto;image-rendering:auto;shape-rendering:auto;text-rendering:auto;enable-background:accumulate"
                 inkscape:connector-curvature="0" />
              <path
                 id="path1269"
                 d="m 9.7695312,250.51953 -0.044922,2.70703 0.1035156,0.002 0.044922,-2.70899 z"
                 style="color:#000000;font-style:normal;font-variant:normal;font-weight:normal;font-stretch:normal;font-size:medium;line-height:normal;font-family:sans-serif;font-variant-ligatures:normal;font-variant-position:normal;font-variant-caps:normal;font-variant-numeric:normal;font-variant-alternates:normal;font-feature-settings:normal;text-indent:0;text-align:start;text-decoration:none;text-decoration-line:none;text-decoration-style:solid;text-decoration-color:#000000;letter-spacing:normal;word-spacing:normal;text-transform:none;writing-mode:lr-tb;direction:ltr;text-orientation:mixed;dominant-baseline:auto;baseline-shift:baseline;text-anchor:start;white-space:normal;shape-padding:0;clip-rule:nonzero;display:inline;overflow:visible;visibility:visible;isolation:auto;mix-blend-mode:normal;color-interpolation:sRGB;color-interpolation-filters:linearRGB;solid-color:#000000;solid-opacity:1;fill:#000000;fill-opacity:1;fill-rule:evenodd;stroke:none;stroke-linecap:butt;stroke-linejoin:miter;stroke-miterlimit:4;stroke-dasharray:none;stroke-dashoffset:0;stroke-opacity:1;color-rendering:auto;image-rendering:auto;shape-rendering:auto;text-rendering:auto;enable-background:accumulate"
                 inkscape:connector-curvature="0" />
            </g>
          </g>
        </g>
      </g>
    </g>
  </g>
</svg>
